<svg xmlns="http://www.w3.org/2000/svg" viewBox="0 0 512 512"><path fill="#e0230d" d="M505 95L344 256l161 161-22 21-272-182L483 74z"/><path fill="#ff5440" d="M483 74L301 256l182 182-66 67-161-161L95 505 8 417l160-161L8 95 95 8l161 160L417 8z"/><path d="M354 256l156-156c3-2 3-7 0-10L422 2a7 7 0 00-10 0L256 158 100 2c-2-3-7-3-10 0L2 90a8 8 0 000 10l156 156-65 65a8 8 0 0011 10l70-70a8 8 0 000-10L18 95l77-77 156 156c3 3 7 3 10 0L417 18l77 77-156 156c-3 3-3 7 0 10l156 156-77 77-156-156c-3-3-7-3-10 0L95 494l-77-77 65-65a8 8 0 00-11-10L2 412c-3 2-3 7 0 10l88 88a7 7 0 0010 0l156-156 156 156a8 8 0 0010 0l88-88c3-3 3-8 0-10L354 256z"/></svg>