<svg height="512" width="512" xmlns="http://www.w3.org/2000/svg"><path d="M380.615 40.23c-18.596-18.596-48.745-18.596-67.341 0-6.508 6.513-17.093 6.511-23.601 0h-67.342v67.344c43.64 43.641 114.649 43.636 158.284 0 18.596-18.595 18.596-48.747 0-67.344z" fill="#ff8e9e"/><path d="M289.672 40.23C246.033-3.408 175.03-3.408 131.396 40.222c-18.596 18.596-18.596 48.747 0 67.344 18.596 18.596 48.745 18.596 67.341 0 6.501-6.504 17.085-6.499 23.593.009.001-37.193 30.15-67.344 67.342-67.345z" fill="#ea5b70"/><path d="M212.329 186.278c-9.857-13.442-25.692-21.468-42.36-21.468-5.553 0-11.05.879-16.337 2.611a52.413 52.413 0 0 0-36.183 49.918v234.633c0 28.962 23.562 52.524 52.524 52.524s52.525-23.563 52.525-52.524v-74.19a184.58 184.58 0 0 1 43.232-118.686z" fill="#ffb357"/><path d="M342.038 164.814c-28.962 0-52.525 23.563-52.525 52.525v74.189l-23.784-32.433a184.579 184.579 0 0 0-43.232 118.686l77.185 105.251c9.856 13.441 25.692 21.467 42.362 21.467 5.554 0 11.052-.879 16.335-2.609a52.41 52.41 0 0 0 36.184-49.918V217.34c-.001-28.962-23.563-52.526-52.525-52.526z" fill="#ffce71"/><g fill="#ff8e9e"><ellipse cx="172.44" cy="342.813" rx="30.834" ry="24.555"/><ellipse cx="339.571" cy="342.813" rx="30.834" ry="24.555"/></g><g><path d="M204.042 112.866c3.579-3.58 9.407-3.571 12.985.011 34.4 34.399 83.853 42.939 125.662 27.634a7.5 7.5 0 0 0 4.465-9.621 7.498 7.498 0 0 0-9.621-4.465c-36.823 13.48-80.009 5.735-109.897-24.153-9.435-9.439-24.754-9.462-34.201-.011-15.678 15.678-41.055 15.68-56.735 0-15.677-15.677-15.681-41.057 0-56.736 40.74-40.736 106.926-40.733 147.667.005 9.442 9.451 24.764 9.455 34.21.002 7.577-7.577 17.651-11.75 28.368-11.75 35.868 0 53.408 43.452 28.366 68.487a105.077 105.077 0 0 1-13.125 11.135 7.5 7.5 0 1 0 8.729 12.199 120.232 120.232 0 0 0 15.003-12.727c34.388-34.384 10.323-94.095-38.973-94.095-14.723 0-28.564 5.733-38.976 16.146-3.582 3.584-9.407 3.587-12.993-.002C272.453 12.403 242.463 0 210.532 0c-31.932 0-61.919 12.4-84.44 34.917-21.541 21.541-21.542 56.407 0 77.951 21.542 21.539 56.406 21.543 77.95-.002zM342.039 157.314c-33.098 0-60.025 26.928-60.025 60.025v51.575l-63.637-87.071c-14.926-20.355-41.835-29.818-67.079-21.55a59.896 59.896 0 0 0-41.349 57.046v201.404c0 4.106 3.164 7.688 7.269 7.811a7.499 7.499 0 0 0 7.731-7.496V217.34a44.927 44.927 0 0 1 31.017-42.79c18.97-6.212 39.141.925 50.315 16.164l80.957 110.771a7.5 7.5 0 0 0 10.486 1.615 7.5 7.5 0 0 0 1.615-10.48l-2.324-3.18v-72.1c0-24.827 20.198-45.025 45.025-45.025 24.826 0 45.023 20.198 45.023 45.025v234.633a44.928 44.928 0 0 1-31.019 42.791 44.936 44.936 0 0 1-14 2.236c-14.289 0-27.864-6.879-36.313-18.402l-81-110.454a7.497 7.497 0 0 0-10.483-1.612 7.5 7.5 0 0 0-1.613 10.483l2.363 3.222v71.736c0 24.826-20.198 45.024-45.024 45.024s-45.024-20.198-45.024-45.024v-2.914c0-4.143-3.358-7.5-7.5-7.5s-7.5 3.357-7.5 7.5v2.914c0 33.098 26.927 60.024 60.024 60.024 33.098 0 60.024-26.927 60.024-60.024v-51.281l63.637 86.776C304.897 502.829 322.995 512 342.043 512a59.885 59.885 0 0 0 18.668-2.981 59.896 59.896 0 0 0 41.351-57.046V217.34c0-33.098-26.927-60.026-60.023-60.026z"/><path d="M197.91 329.873v-12c0-4.143-3.358-7.5-7.5-7.5s-7.5 3.357-7.5 7.5v12c0 4.143 3.358 7.5 7.5 7.5s7.5-3.357 7.5-7.5zM278.954 334.729a7.5 7.5 0 0 0-11.309-9.855c-6.164 7.073-17.12 7.068-23.279 0a7.5 7.5 0 0 0-11.309 9.855c12.142 13.932 33.766 13.919 45.897 0zM317.511 329.539a6.414 6.414 0 0 1 6.406-6.406 6.414 6.414 0 0 1 6.407 6.406c0 4.143 3.357 7.5 7.5 7.5s7.5-3.357 7.5-7.5c0-11.804-9.604-21.406-21.407-21.406s-21.406 9.603-21.406 21.406c0 4.143 3.358 7.5 7.5 7.5s7.5-3.357 7.5-7.5z"/></g></svg>