<svg height="512" width="512" xmlns="http://www.w3.org/2000/svg"><path d="M345.114 48.542h-15.871c-17.878 15.073-44.545 13.811-60.897-3.312h-13.924l-14.01 36.145L256 111.023h89.114V48.542z" fill="#ffce71"/><path d="M268.345 45.23a44.722 44.722 0 0 1-6.159-8.125h-12.372c-14.093 23.83-46.088 29.115-67.057 11.436h-15.871v62.481H256c-8.157-21.727-4.963-54.072 12.345-65.792z" fill="#ffb357"/><g fill="#ffce71"><path d="M256 7.5c-11.535 0-20.886 9.351-20.886 20.886 0 11.552 9.38 20.886 20.886 20.886 4.62 0 8.887-1.503 12.345-4.042 5.178-3.801 8.541-9.929 8.541-16.844C276.886 16.851 267.535 7.5 256 7.5z"/><circle cx="166.886" cy="42.31" r="20.886"/><path d="M345.114 21.424c-15.199 0-25.29 15.75-19.011 29.532 3.289 7.219 10.561 12.24 19.011 12.24 11.535 0 20.886-9.351 20.886-20.886s-9.351-20.886-20.886-20.886z"/></g><path d="M435.212 401.482C453.182 370.777 463.5 335.073 463.5 297c0-114.415-93.084-207.5-207.5-207.5l-101.817 65.634V297c0-56.141 45.675-101.817 101.817-101.817S357.817 240.859 357.817 297c0 8.329-1.013 16.424-2.908 24.177l-9.989-9.989c-20.641-20.636-54.098-20.635-74.729-.001-20.636 20.636-20.639 54.094-.003 74.73l9.991 9.991A101.68 101.68 0 0 1 256 398.817c-56.142 0-101.817-45.675-101.817-101.817v137.972L256 504.5c38.072 0 73.776-10.318 104.481-28.288l12.81 12.811c10.321 10.319 23.841 15.477 37.366 15.477 13.523 0 27.048-5.16 37.363-15.476 20.636-20.636 20.639-54.094.003-74.73z" fill="#e8b5b1"/><path d="M154.183 297c0-81.196 37.596-157.816 101.817-207.5-114.415 0-207.5 93.085-207.5 207.5S141.585 504.5 256 504.5C191.779 454.816 154.183 378.196 154.183 297z" fill="#d6948c"/><g><ellipse cx="176.443" cy="176.563" fill="#ffdbe0" rx="29.355" ry="23.377"/><ellipse cx="335.557" cy="176.563" fill="#ffdbe0" rx="29.355" ry="23.377"/></g><g><path d="M444.539 400.203C462.215 368.033 471 332.769 471 297c-.02-82.615-47.086-156.02-118.386-192.024V69.683C364.637 66.385 373.5 55.366 373.5 42.31c0-15.652-12.733-28.386-28.386-28.386-17.992 0-31.159 16.424-27.894 33.638-12.291 6.262-26.883 5.128-38.044-2.83 3.334-4.737 5.209-10.443 5.209-16.346C284.386 12.734 271.652 0 256 0s-28.386 12.734-28.386 28.386c0 6.084 1.93 11.723 5.202 16.348-11.086 7.799-25.855 8.942-38.035 2.805 3.29-17.586-10.281-33.616-27.896-33.616-15.652 0-28.386 12.734-28.386 28.386 0 13.056 8.863 24.075 20.886 27.373v35.289C89.06 140.498 41.02 213.311 41 297c0 22.75 3.56 45.18 10.569 66.65 6.79 20.77 16.7 40.34 29.471 58.18 2.375 3.326 7.047 4.182 10.46 1.73 3.388-2.412 4.137-7.09 1.74-10.46C68.88 379.05 56 338.9 56 297c-.014-107.469 87.4-200 200-200 112.612 0 200.014 92.547 200 200 0 32.124-7.791 63.759-22.552 92.112l-2.932-2.932a7.5 7.5 0 0 0-10.607 10.606l22.812 22.812c17.678 17.678 17.677 46.444-.003 64.124-17.717 17.719-46.397 17.72-64.122-.001l-22.81-22.811a7.498 7.498 0 0 0-10.606 0 7.498 7.498 0 0 0-.001 10.606l2.933 2.933A199.643 199.643 0 0 1 256 497c-54.91 0-106.16-21.9-144.311-61.66-2.903-3.025-7.641-3.06-10.6-.23a7.493 7.493 0 0 0-.22 10.61C140.818 487.386 196.268 512 256 512l.02-.05v.05c34.881 0 70.325-8.405 103.186-26.457l8.783 8.783C379.388 505.723 394.541 512 410.657 512c16.118 0 31.271-6.276 42.667-17.673 23.527-23.528 23.528-61.81.003-85.336zM333.868 35.07c7.191-11.178 24.632-6.077 24.632 7.24 0 7.381-6.005 13.386-13.386 13.386-10.435 0-17.064-11.582-11.246-20.626zM256 15c7.381 0 13.386 6.005 13.386 13.386 0 4.307-1.997 8.243-5.479 10.798-8.775 6.441-21.293.168-21.293-10.799C242.614 21.005 248.619 15 256 15zM153.5 42.31c0-7.381 6.005-13.386 13.386-13.386 7.382 0 13.387 6.005 13.387 13.386s-6.005 13.386-13.387 13.386c-7.381 0-13.386-6.005-13.386-13.386zm20.886 55.788V69.683a28.431 28.431 0 0 0 13.821-8.663c18.357 9.148 40.765 6.581 56.563-6.569a28.329 28.329 0 0 0 22.47-.002c15.883 13.326 37.946 15.973 56.526 6.615 3.378 3.807 8.098 7.056 13.848 8.623V98.1c-52.822-21.758-111.877-21.145-163.228-.002z"/><path d="M201.051 154.06v-12c0-4.142-3.357-7.5-7.5-7.5s-7.5 3.358-7.5 7.5v12c0 4.142 3.357 7.5 7.5 7.5s7.5-3.358 7.5-7.5zM325.948 154.06v-12c0-4.142-3.357-7.5-7.5-7.5s-7.5 3.358-7.5 7.5v12c0 4.142 3.357 7.5 7.5 7.5s7.5-3.358 7.5-7.5zM278.118 158.63a7.499 7.499 0 0 0-.728-10.582 7.5 7.5 0 0 0-10.581.727c-5.727 6.571-15.899 6.564-21.619 0a7.5 7.5 0 0 0-11.309 9.855c11.704 13.431 32.546 13.417 44.237 0zM146.68 297c.046 69.18 63.59 120.876 131.102 107.117l7.094 7.094a7.5 7.5 0 0 0 10.606 0 7.498 7.498 0 0 0 .001-10.606l-19.99-19.991c-17.721-17.72-17.72-46.4.003-64.124 17.673-17.676 46.438-17.677 64.121.002l19.988 19.989a7.5 7.5 0 0 0 10.607-10.606l-7.095-7.095a108.559 108.559 0 0 0 2.193-21.779c.01-19.56-5.24-38.76-15.18-55.54-2.096-3.523-6.692-4.766-10.28-2.63-3.532 2.095-4.758 6.68-2.63 10.27 8.57 14.47 13.09 31.03 13.1 47.9a95.86 95.86 0 0 1-.398 8.598c-23.556-23.231-61.61-23.141-85.034.286-23.468 23.469-23.606 61.409-.284 85.041C209.561 395.967 161.68 352.553 161.68 297c0-52.039 42.275-94.299 94.32-94.32 23.66.01 46.31 8.85 63.779 24.9 3.042 2.8 7.788 2.61 10.601-.44 2.782-3.051 2.626-7.774-.45-10.6-20.23-18.61-46.48-28.86-73.93-28.86-60.565.042-109.28 49.217-109.32 109.32z"/></g></svg>