<svg height="512" width="512" xmlns="http://www.w3.org/2000/svg"><path d="M97.423 430.716c-7.138 7.138-19.041 7.359-26.044.089H46.104v25.668c20.811 20.861 55.108 21.392 75.938.561l50.042-50.042-25.469-25.469-49.192 49.193z" fill="#676fb2"/><path d="M320.587 207.551 146.615 381.523l25.469 25.469L346.056 233.02z" fill="#d4d4ff"/><path d="M418 7.5c-34.951 0-63.283 28.333-63.283 63.283v223.504c0 46.123-38.082 83.648-84.89 83.648l-69.766 63.282 69.765 63.283c116.599 0 211.457-94.301 211.457-210.213V70.783C481.283 35.833 452.952 7.5 418 7.5z" fill="#ffce71"/><path d="M269.828 377.935c-46.808 0-84.89-37.524-84.89-83.648V70.783c0-34.95-28.332-63.283-63.283-63.283S58.372 35.833 58.372 70.783v223.504c0 115.912 94.858 210.213 211.454 210.213-26.353-38.073-26.352-88.492.002-126.565z" fill="#ffb357"/><path d="M415.857 137.034c-7.126-6.746-18.432-6.321-25.371.618l-69.899 69.899 25.469 25.469 70.164-70.164c7.152-7.151 7.031-18.823-.363-25.822z" fill="#d4d4ff"/><path d="M217.055 131.591c-13.311 7.937-14.182 27.54-.878 36.666a108.982 108.982 0 0 1 36.751 43.025 40.156 40.156 0 0 0 7.849 11.101h70.447l68.017-68.017c-49.407-49.406-124.795-56.998-182.186-22.775z" fill="#4c5699"/><path d="m399.24 154.367-68.016 68.016v70.446a39.976 39.976 0 0 0 11.1 7.85 108.995 108.995 0 0 1 43.026 36.752c9.108 13.278 28.715 12.454 36.666-.878 34.224-57.392 26.631-132.78-22.776-182.186z" fill="#8288cb"/><path d="M260.777 222.384a39.897 39.897 0 0 0 11.06 7.828 109.132 109.132 0 0 1 51.558 51.558 40.048 40.048 0 0 0 7.829 11.059c56.804-57.676 87.201-119.278 68.016-138.463-19.184-19.184-80.787 11.214-138.463 68.018z" fill="#676fb2"/><path d="M94.625 357.594c-7.003-7.27-18.906-7.05-26.044.088l-21.817 21.817c-20.989 20.989-21.624 55.959-.66 76.973 0-15.021 11.84-25.668 25.275-25.668-6.791-7.05-6.711-18.272.241-25.223l22.764-22.764c6.951-6.952 7.032-18.173.241-25.223z" fill="#4c5699"/><g><ellipse cx="189.8" cy="433.525" fill="#ff8e9e" rx="23.515" ry="29.529" transform="rotate(-89.89 189.74 433.5)"/><ellipse cx="349.856" cy="433.875" fill="#ff8e9e" rx="23.515" ry="29.529" transform="rotate(-89.89 349.782 433.866)"/></g><g><path d="M214.793 416.009v-12c0-4.143-3.357-7.5-7.5-7.5s-7.5 3.357-7.5 7.5v12c0 4.143 3.357 7.5 7.5 7.5s7.5-3.358 7.5-7.5zM339.69 416.009v-12c0-4.143-3.357-7.5-7.5-7.5s-7.5 3.357-7.5 7.5v12c0 4.143 3.357 7.5 7.5 7.5s7.5-3.358 7.5-7.5zM269.924 439.669c14.124 12.386 36.411 2.337 36.411-16.505 0-4.143-3.357-7.5-7.5-7.5s-7.5 3.357-7.5 7.5a6.963 6.963 0 0 1-6.955 6.956 6.963 6.963 0 0 1-6.956-6.956c0-4.143-3.357-7.5-7.5-7.5s-7.5 3.357-7.5 7.5a6.963 6.963 0 0 1-6.955 6.956 6.963 6.963 0 0 1-6.956-6.956c0-4.143-3.357-7.5-7.5-7.5s-7.5 3.357-7.5 7.5c-.001 18.831 22.278 28.9 36.411 16.505z"/><path d="M418 0c-39.03 0-70.783 31.753-70.783 70.783v41.701c-43.255-15.761-92.46-12.107-134.004 12.666-18.058 10.77-19.039 37.11-1.279 49.293a101.576 101.576 0 0 1 34.222 40.064c8.356 17.553 22.096 21.819 30.25 26.62l-79.278 79.277a74.713 74.713 0 0 1-4.69-26.116V70.783C192.438 31.753 160.685 0 121.655 0S50.873 31.753 50.873 70.783V86.39c0 4.142 3.357 7.5 7.5 7.5s7.5-3.358 7.5-7.5V70.783C65.873 40.024 90.897 15 121.655 15s55.782 25.024 55.782 55.783v223.504c0 50.259 41.446 91.147 92.391 91.147 41.064 0 77.302-26.892 88.75-65.825a101.522 101.522 0 0 1 20.587 22.065c12.205 17.79 38.542 16.749 49.292-1.281 32.392-54.32 28.674-121.737-7.341-171.826 11.127-11.127 9.929-27.482-.104-36.98-9.935-9.403-26.007-9.06-35.83.762l-.142.142a156.663 156.663 0 0 0-22.823-13.638v-48.07C362.217 40.024 387.241 15 418 15s55.783 25.024 55.783 55.783v223.504c-.001 55.307-22.088 107.016-62.192 145.602a7.5 7.5 0 0 0 10.4 10.808c20.89-20.099 37.316-43.666 48.825-70.049 11.921-27.33 17.967-56.386 17.967-86.361V70.783C488.783 31.753 457.03 0 418 0zM220.419 162.073c-8.913-6.114-8.029-18.968.477-24.041 47.772-28.486 106.73-26.096 151.624 4.027-9.164 1.634-19.672 5.328-31.386 11.091-24.869 12.233-52.92 32.734-79.645 58.121-2.907-4.658-12.438-29.558-41.07-49.198zm51.726 59.766c25.542-24.22 52.158-43.694 75.609-55.23 21.963-10.804 39.659-13.466 46.184-6.938 6.524 6.523 3.865 24.22-6.938 46.183-11.535 23.45-31.009 50.066-55.229 75.608-2.808-4.595-16.211-38.735-56.708-58.021a31.826 31.826 0 0 1-2.918-1.602zm-67.956 112.718 84.719-84.719A102.153 102.153 0 0 1 303.77 264.7l-85.939 85.939a77.016 77.016 0 0 1-13.642-16.082zm65.639 35.878c-14.522 0-28.118-3.963-39.742-10.837l82.395-82.395c1.49 2.531 2.875 5.13 4.143 7.793 8.374 17.573 23.061 22.508 28.756 25.726-7.742 34.366-39.354 59.713-75.552 59.713zm145.746-37.723c-5.051 8.47-17.899 9.426-24.04.478-19.493-28.419-44.3-38.012-49.197-41.07 25.387-26.726 45.888-54.777 58.121-79.646 5.763-11.716 9.458-22.224 11.091-31.389 30.114 44.874 32.514 103.852 4.025 151.627zM410.7 142.48a10.496 10.496 0 0 1 .983 14.212 158.836 158.836 0 0 0-7.139-7.629 158.725 158.725 0 0 0-7.59-7.105c4.142-3.13 10.02-3.004 13.746.522z"/><path d="M389.395 458.421C354.422 483.659 313.076 497 269.826 497c-63.23 0-121.804-29.057-160.146-77.332a203.92 203.92 0 0 1-16.818-24.722l6.826-6.826c9.865-9.867 9.955-25.742.339-35.729-7.113-7.385-17.836-9.513-27.311-6.02a201.09 201.09 0 0 1-6.843-52.084V116.39c0-4.142-3.357-7.5-7.5-7.5s-7.5 3.358-7.5 7.5v177.897a215.97 215.97 0 0 0 8.929 61.566L41.46 374.195c-23.501 23.503-24.914 63.263-.639 87.601 22.519 22.57 60.975 26.091 88.092-1.026C168.382 493.85 218.136 512 269.826 512c46.421 0 90.803-14.321 128.346-41.415a7.5 7.5 0 0 0-8.777-12.164zM93.856 423.676l-1.738 1.737c-4.145 4.145-11.229 4.453-15.337.189-3.926-4.078-3.953-10.624.142-14.718l4.983-4.983a219.62 219.62 0 0 0 11.95 17.775zm-42.415 27.526c-18.259-18.307-17.205-48.57.627-66.399l21.816-21.817c4.146-4.148 11.233-4.453 15.338-.189 3.933 4.083 3.949 10.628-.142 14.717l-10.901 10.902-.023.023-11.841 11.842c-9.987 9.993-9.819 25.884-.337 35.729 9.316 9.67 25.804 10.956 37.307-.547a221.326 221.326 0 0 0 14.449 15.275c-20.142 20.14-49.289 17.509-66.293.464z"/></g></svg>