<svg height="512" viewBox="0 0 511.975 511.975" width="512" xmlns="http://www.w3.org/2000/svg"><path d="M435.249 40.919A63.28 63.28 0 0 0 379.457 7.5H220.643l-55.89 28.022v70.515l55.89 28.022h40.576L114.421 377.916h136.334l181.352-272.037a63.272 63.272 0 0 0 3.142-64.96z" fill="#55dafe"/><g fill="#1cbbea"><path d="M220.643 7.5h-88.126c-34.949 0-63.28 28.331-63.28 63.279s28.33 63.279 63.28 63.279h88.126c-34.949-34.948-34.949-91.61 0-126.558zM379.457 377.916H250.755c-31.025 0-53.298-29.877-44.438-59.61l54.901-184.247L79.866 406.095a63.28 63.28 0 0 0 52.651 98.38h246.941c34.949 0 63.28-28.331 63.28-63.279s-28.331-63.28-63.281-63.28z"/></g><path d="M255.986 82.13c-16.662 0-30.17 13.507-30.17 30.17h60.339c0-16.663-13.507-30.17-30.169-30.17z" fill="#4c5699"/><path d="m237.078 215.512-34.726-97.055c17.191-6.764 35.199-10.201 53.525-10.214h.109c18.365 0 36.411 3.437 53.636 10.214l-34.729 97.055c-6.082-2.394-12.444-3.607-18.907-3.607h-.073c-6.414.005-12.763 1.219-18.835 3.607z" fill="#676fb2"/><path d="M182.742 105.048h-18.643a25.402 25.402 0 0 0-22.156 12.977l-35.798 63.838 35.798 63.838a25.4 25.4 0 0 0 22.156 12.977h18.643c36.01-7.031 63.188-38.747 63.188-76.815s-27.178-69.784-63.188-76.815z" fill="#ffce71"/><path d="M119.554 181.863c0-38.068 27.178-69.784 63.188-76.815a78.667 78.667 0 0 0-15.085-1.458c-43.229 0-78.273 35.044-78.273 78.273s35.044 78.273 78.273 78.273c5.161 0 10.203-.505 15.085-1.458-36.01-7.031-63.188-38.747-63.188-76.815z" fill="#ffb357"/><g><path d="M187.77 138.182h-13.409l-27.991 43.68 27.991 43.68h13.409c16.505-7.63 27.991-24.334 27.991-43.68s-11.486-36.049-27.991-43.68z" fill="#b9f0ff"/><path d="M159.78 181.863c0-19.346 11.486-36.05 27.991-43.68a47.805 47.805 0 0 0-20.113-4.423c-26.525 0-48.104 21.579-48.104 48.104s21.579 48.104 48.104 48.104a47.805 47.805 0 0 0 20.113-4.423c-16.506-7.632-27.991-24.336-27.991-43.682z" fill="#7ce3ff"/></g><g><path d="M359.401 105.048h-18.643a25.402 25.402 0 0 0-22.156 12.977l-35.798 63.838 35.798 63.838a25.4 25.4 0 0 0 22.156 12.977h18.643c36.01-7.031 63.188-38.747 63.188-76.815s-27.178-69.784-63.188-76.815z" fill="#ffce71"/><path d="M296.213 181.863c0-38.068 27.178-69.784 63.188-76.815a78.667 78.667 0 0 0-15.085-1.458c-43.229 0-78.273 35.044-78.273 78.273s35.044 78.273 78.273 78.273c5.161 0 10.203-.505 15.085-1.458-36.01-7.031-63.188-38.747-63.188-76.815z" fill="#ffb357"/><g><path d="M364.429 138.182H351.02l-27.991 43.68 27.991 43.68h13.409c16.505-7.63 27.991-24.334 27.991-43.68s-11.486-36.049-27.991-43.68z" fill="#b9f0ff"/><path d="M336.439 181.863c0-19.346 11.486-36.05 27.991-43.68a47.809 47.809 0 0 0-20.113-4.423c-26.525 0-48.104 21.579-48.104 48.104s21.579 48.104 48.104 48.104a47.809 47.809 0 0 0 20.113-4.423c-16.506-7.632-27.991-24.336-27.991-43.682z" fill="#7ce3ff"/></g></g><g><path d="M379.458 370.416H264.736l68.699-103.49c3.602.456 7.241.709 10.882.709 47.295 0 85.772-38.478 85.772-85.773 0-14.915-3.841-29.414-11.132-42.262l19.391-29.559c7.831-11.744 11.97-25.234 11.97-39.012 0-9.547-1.922-18.902-5.713-27.806a7.497 7.497 0 0 0-9.838-3.963 7.498 7.498 0 0 0-3.963 9.838c7.284 17.111 5.844 36.454-4.968 52.667l-16.126 24.582c-16.207-19.116-39.952-30.257-65.394-30.257-15.625 0-30.273 4.22-42.904 11.549a155.269 155.269 0 0 0-8.415-2.353c-3.26-17.596-18.519-30.657-37.012-30.657-18.494 0-33.754 13.061-37.013 30.658-2.82.703-5.625 1.487-8.411 2.352-12.631-7.33-27.28-11.55-42.905-11.55-23.365 0-44.566 9.401-60.051 24.606a55.692 55.692 0 0 1-30.869-49.917C76.737 40.022 101.759 15 132.516 15h246.941c13.402-.001 25.777 4.475 35.787 12.943 3.161 2.677 7.894 2.28 10.569-.882s2.281-7.895-.882-10.569C412.178 5.702 396.454-.001 379.458 0H132.516C93.489 0 61.737 31.752 61.737 70.779c0 25.768 13.862 49.154 35.916 61.615-9.916 13.991-15.768 31.054-15.768 49.468 0 45.679 35.894 83.123 80.957 85.63L73.625 401.934c-11.548 17.318-14.895 38.123-9.363 57.961a7.502 7.502 0 0 0 9.24 5.209 7.502 7.502 0 0 0 5.209-9.24c-4.382-15.704-1.681-31.997 7.403-45.622l95.379-143.73c26.96-4.367 49.913-21.049 62.429-45.386a43.677 43.677 0 0 1 24.146.007c10.385 20.125 28.366 35.339 49.682 42.298l-72.175 108.726-5.282 2.748a7.498 7.498 0 0 0-3.192 10.114 7.498 7.498 0 0 0 10.114 3.192l5.373-2.795h126.869c30.757 0 55.779 25.022 55.779 55.779s-25.022 55.779-55.779 55.779H132.516c-15.941 0-30.543-6.427-41.115-18.097a7.501 7.501 0 0 0-11.117 10.071c13.453 14.849 32.003 23.026 52.232 23.026h246.941c39.028 0 70.779-31.751 70.779-70.779.001-39.027-31.75-70.779-70.778-70.779zM276.231 102.094a152.3 152.3 0 0 0-40.49 0c8.313-16.628 32.197-16.587 40.49 0zm-100.03 150.028a71.395 71.395 0 0 1-8.544.514c-39.024 0-70.772-31.749-70.772-70.773s31.748-70.772 70.772-70.772c51.613 0 86.033 53.862 64.156 100.686-10.426 22.312-31.216 37.395-55.612 40.345zm74.156-47.42c8.256-29.882-.134-63.114-24.358-85.635 19.577-4.359 39.727-4.506 59.974 0a85.646 85.646 0 0 0-24.349 85.635 58.744 58.744 0 0 0-11.267 0zm29.82 7.08c-21.911-46.875 12.563-100.692 64.14-100.692 39.183 0 70.772 31.757 70.772 70.772 0 39.024-31.748 70.773-70.772 70.773-4.584 0-9.169-.44-13.626-1.31-22.069-4.303-40.953-19.086-50.514-39.543z"/><path d="M167.657 126.259c-30.66 0-55.604 24.943-55.604 55.604s24.943 55.604 55.604 55.604 55.604-24.943 55.604-55.604-24.944-55.604-55.604-55.604zm0 96.207c-22.389 0-40.604-18.215-40.604-40.604s18.215-40.604 40.604-40.604 40.604 18.215 40.604 40.604-18.216 40.604-40.604 40.604zM399.92 181.862c0-30.66-24.943-55.604-55.604-55.604s-55.604 24.943-55.604 55.604 24.943 55.604 55.604 55.604 55.604-24.944 55.604-55.604zm-96.207 0c0-22.389 18.215-40.604 40.604-40.604s40.604 18.215 40.604 40.604-18.215 40.604-40.604 40.604-40.604-18.215-40.604-40.604z"/><path d="M166.49 169.844a7.499 7.499 0 0 0-7.5 7.5v12c0 4.143 3.357 7.5 7.5 7.5s7.5-3.357 7.5-7.5v-12a7.5 7.5 0 0 0-7.5-7.5zM348.887 189.344v-12c0-4.143-3.357-7.5-7.5-7.5s-7.5 3.357-7.5 7.5v12c0 4.143 3.357 7.5 7.5 7.5s7.5-3.358 7.5-7.5zM278.056 253.913c2.722-3.122 2.396-7.86-.728-10.581s-7.86-2.396-10.581.728c-5.725 6.569-15.899 6.564-21.619 0a7.5 7.5 0 1 0-11.309 9.853c11.703 13.431 32.546 13.419 44.237 0z"/></g></svg>