<svg height="512" width="512" xmlns="http://www.w3.org/2000/svg"><path d="M281 223.672h-38.73v274.656H281c17.079-8.997 28.73-26.912 28.73-47.558V271.229c0-20.645-11.651-38.56-28.73-47.557z" fill="#70dcba"/><path d="M252.27 450.771V271.229c0-20.646 11.65-38.561 28.73-47.558a53.471 53.471 0 0 0-25-6.172c-29.675 0-53.73 24.055-53.73 53.729v179.541c0 29.674 24.055 53.729 53.73 53.729a53.471 53.471 0 0 0 25-6.172c-17.079-8.995-28.73-26.91-28.73-47.555z" fill="#18c08b"/><g><path d="M319.64 33.856c-15.962-15.963-36.428-24.677-57.307-26.141L166 97.5l96.333 89.785c20.879-1.464 41.345-10.177 57.307-26.141C337.213 143.569 346 120.535 346 97.5s-8.787-46.069-26.36-63.644z" fill="#70dcba"/><path d="M223.273 97.5c0-33.08 13.284-65.737 39.06-89.785A90.432 90.432 0 0 0 256 7.5c-49.686 0-90 40.249-90 90 0 49.686 40.247 90 90 90 2.112 0 4.225-.067 6.333-.215-25.018-23.341-39.06-55.664-39.06-89.785z" fill="#18c08b"/></g><g><path d="M256 210c-33.762 0-61.229 27.468-61.229 61.229V450.77c0 13.968 4.581 27.122 13.248 38.041a7.5 7.5 0 0 0 11.748-9.326c-6.539-8.238-9.996-18.168-9.996-28.715V271.229C209.771 245.738 230.509 225 256 225s46.229 20.738 46.229 46.229V450.77c0 25.656-20.816 46.23-46.229 46.23a46.101 46.101 0 0 1-15.528-2.67 7.5 7.5 0 0 0-5.037 14.129A61.064 61.064 0 0 0 256 512c33.47 0 61.229-27.071 61.229-61.229V271.229C317.229 237.468 289.762 210 256 210zM338.076 44.841a7.497 7.497 0 0 0-10.363-2.256 7.499 7.499 0 0 0-2.256 10.363C333.989 66.229 338.5 81.635 338.5 97.5c0 45.49-37.01 82.5-82.5 82.5s-82.5-37.01-82.5-82.5S210.51 15 256 15c18.365 0 36.264 6.014 51.055 17.678a7.5 7.5 0 1 0 9.289-11.777C299.157 7.346 278.077 0 256 0c-53.762 0-97.5 43.738-97.5 97.5S202.238 195 256 195s97.5-43.738 97.5-97.5c0-18.745-5.333-36.955-15.424-52.659z"/><path d="M196.051 107.06v12c0 4.143 3.357 7.5 7.5 7.5s7.5-3.357 7.5-7.5v-12c0-4.143-3.357-7.5-7.5-7.5s-7.5 3.357-7.5 7.5zM300.948 107.06v12c0 4.143 3.357 7.5 7.5 7.5s7.5-3.357 7.5-7.5v-12c0-4.143-3.357-7.5-7.5-7.5s-7.5 3.357-7.5 7.5zM261.846 114.906c-1.477 1.694-3.607 2.666-5.846 2.666s-4.369-.972-5.846-2.666a7.5 7.5 0 0 0-11.309 9.855c4.326 4.964 10.579 7.811 17.154 7.811s12.828-2.847 17.154-7.811a7.5 7.5 0 0 0-11.307-9.855z"/></g></svg>