<svg height="512" width="512" xmlns="http://www.w3.org/2000/svg"><path d="M241 37.495h30V111h-30z" fill="#d4d4ff"/><path d="M131.234 37.495v.011c0 20.457 20.042 34.902 39.449 28.434L256 37.5 170.683 9.061c-19.407-6.469-39.449 7.976-39.449 28.434z" fill="#d4d4ff"/><path d="M341.317 9.061 256 37.5l85.317 28.439c19.407 6.468 39.449-7.977 39.449-28.434v-.011c0-20.457-20.042-34.902-39.449-28.433z" fill="#efedff"/><circle cx="256" cy="37.5" fill="#9ea2e3" r="30"/><path d="M316.507 144.672C297.538 138.089 277.181 134.5 256 134.5l-60.501 39.286v140.375c2.714-31.005 28.805-55.411 60.501-55.411 33.497 0 60.75 27.253 60.75 60.75s-27.253 60.75-60.75 60.75c-31.697 0-57.787-24.406-60.501-55.411V461.94L256 504.5c102.01 0 185-82.99 185-185 0-80.828-52.109-149.705-124.493-174.828z" fill="#ff8f71"/><path d="M195.25 319.5c0-1.8.094-3.578.248-5.339C196.574 250.979 216.737 188.052 256 134.5c-21.181 0-41.538 3.589-60.507 10.172C123.109 169.795 71 238.672 71 319.5c0 102.01 82.99 185 185 185-39.263-53.552-59.426-116.479-60.501-179.661a60.816 60.816 0 0 1-.249-5.339z" fill="#ff6f4d"/><path d="M256 97.5c-29.205 0-53.715 20.072-60.507 47.172 33.417 33.417 87.596 33.417 121.013 0C309.715 117.572 285.205 97.5 256 97.5z" fill="#55dafe"/><g><path d="m256 97.5-31.582 20v46.202c20.243 8.026 42.921 8.026 63.164 0V117.5z" fill="#fce3a0"/><path d="M195.493 144.672a85.263 85.263 0 0 0 28.925 19.03A109.917 109.917 0 0 1 256 97.5c-29.205 0-53.715 20.072-60.507 47.172z" fill="#55dafe"/><path d="M256 97.5a109.917 109.917 0 0 1 31.582 66.202 85.288 85.288 0 0 0 28.925-19.03C309.715 117.572 285.205 97.5 256 97.5z" fill="#ffb5c0"/></g><g><path d="M322.665 138.914a69.618 69.618 0 0 0-44.165-45.19V67.479a37.8 37.8 0 0 0 9.968-11.251l50.478 16.826c11.539 3.847 23.849 1.991 33.76-5.15 9.889-7.128 15.561-18.208 15.561-30.41C388.266 15.962 370.067 0 350.504 0c-3.803 0-7.691.656-11.56 1.945l-50.477 16.826C281.977 7.563 269.859 0 256 0s-25.977 7.563-32.468 18.771L173.055 1.945C169.226.668 165.376 0 161.606 0c-21.193 0-37.872 15.884-37.872 37.506 0 12.19 5.672 23.271 15.561 30.398 9.891 7.128 22.193 9.005 33.761 5.15l50.477-16.826a37.772 37.772 0 0 0 9.968 11.251v26.243a69.623 69.623 0 0 0-44.165 45.191C113.904 166.82 63.5 238.894 63.5 319.5c0 49.684 18.943 96.876 53.34 132.882a7.5 7.5 0 0 0 10.604.242 7.5 7.5 0 0 0 .242-10.604C95.968 408.818 78.5 365.307 78.5 319.5c0-74.022 46.105-140.236 115.194-166.197 17.555 15.852 40.017 23.958 62.306 23.958 22.285 0 44.748-8.103 62.306-23.958C387.395 179.264 433.5 245.478 433.5 319.5c0 97.874-79.626 177.5-177.5 177.5-38.888 0-75.835-12.396-106.847-35.849a7.5 7.5 0 0 0-9.047 11.965C173.744 498.554 213.819 512 256 512c106.145 0 192.5-86.355 192.5-192.5 0-80.606-50.404-152.68-125.835-180.586zm21.023-122.738c14.567-4.851 29.578 5.952 29.578 21.33 0 7.311-3.401 13.955-9.332 18.229-5.931 4.276-13.313 5.399-20.245 3.089L293.22 42.001c.177-1.478.28-2.977.28-4.501s-.102-3.023-.28-4.501zM256 15c12.406 0 22.5 10.094 22.5 22.5S268.406 60 256 60s-22.5-10.094-22.5-22.5S243.594 15 256 15zm-87.688 43.824c-6.937 2.314-14.314 1.187-20.246-3.089-5.931-4.274-9.332-10.919-9.332-18.241 0-15.358 15.012-26.173 29.577-21.318l50.468 16.823c-.177 1.478-.28 2.977-.28 4.501s.102 3.023.28 4.501zM256 75c2.568 0 5.076-.261 7.5-.755v16.167a68.504 68.504 0 0 0-15 0V74.245c2.424.494 4.932.755 7.5.755zm-18.724 33.31a117.992 117.992 0 0 0-18.762 44.34 77.462 77.462 0 0 1-14.542-10.274c5.323-15.897 17.589-28.388 33.304-34.066zm-4.616 50.363A102.867 102.867 0 0 1 256 108.532a102.867 102.867 0 0 1 23.34 50.141 77.785 77.785 0 0 1-46.68 0zm60.826-6.024c-3.131-15.921-9.555-31.042-18.762-44.34 15.716 5.679 27.98 18.17 33.303 34.065a77.337 77.337 0 0 1-14.541 10.275z"/><path d="M193.465 192.117a7.499 7.499 0 0 0-7.5 7.5v12c0 4.143 3.357 7.5 7.5 7.5s7.5-3.357 7.5-7.5v-12a7.5 7.5 0 0 0-7.5-7.5zM325.862 211.617v-12c0-4.143-3.357-7.5-7.5-7.5s-7.5 3.357-7.5 7.5v12c0 4.143 3.357 7.5 7.5 7.5s7.5-3.357 7.5-7.5zM256.096 235.276c14.124 12.385 36.411 2.338 36.411-16.504 0-4.143-3.357-7.5-7.5-7.5s-7.5 3.357-7.5 7.5a6.963 6.963 0 0 1-6.955 6.955 6.963 6.963 0 0 1-6.956-6.955c0-4.143-3.357-7.5-7.5-7.5s-7.5 3.357-7.5 7.5a6.963 6.963 0 0 1-6.955 6.955 6.963 6.963 0 0 1-6.956-6.955c0-4.143-3.357-7.5-7.5-7.5s-7.5 3.357-7.5 7.5c0 18.831 22.278 28.899 36.411 16.504zM187.75 319.5c0 37.633 30.617 68.25 68.25 68.25s68.25-30.617 68.25-68.25c0-10.533-2.348-20.644-6.977-30.05a7.5 7.5 0 1 0-13.459 6.623c3.606 7.329 5.436 15.211 5.436 23.427 0 29.362-23.888 53.25-53.25 53.25s-53.25-23.888-53.25-53.25 23.888-53.25 53.25-53.25c11.182 0 21.89 3.442 30.966 9.956a7.5 7.5 0 1 0 8.746-12.188C284.07 255.665 270.339 251.25 256 251.25c-37.633 0-68.25 30.617-68.25 68.25z"/></g></svg>