<svg height="512" width="512" xmlns="http://www.w3.org/2000/svg"><path d="M255.997 281.095c-25.359 0-45.99-20.632-45.99-45.99 0-25.359 20.631-45.99 45.99-45.99V83.994c-83.324 0-151.111 67.787-151.111 151.11 0 77.217 58.218 141.081 133.065 150.029h59.911V254.197c-7.475 16.34-23.91 26.898-41.865 26.898z" fill="#ff6f4d"/><path d="M255.997 83.994c.002.002-.002.004 0 .005v-.004c-14.514 14.514-21.771 33.537-21.771 52.56s7.257 38.046 21.771 52.56v-.002c25.357.001 45.99 20.632 45.99 45.99 0 6.685-1.388 13.109-4.125 19.092l-59.911 130.937-20.551 44.913c-12.078 26.396-.469 57.585 25.926 69.663 26.401 12.088 57.585.47 69.663-25.926l80.455-175.834.01-.022c9.059-19.805 13.653-40.942 13.653-62.823.001-83.322-67.786-151.109-151.11-151.109z" fill="#ff8f71"/><path d="M247.192 139.17c2.869.109 5.75.164 8.642.164 30.023 0 59.459-5.809 87.054-17.002a513.864 513.864 0 0 1 2.828-42.063 513.312 513.312 0 0 1 5.753-39.014c1.719-9.184-3.682-18.222-12.593-21.033a275.144 275.144 0 0 0-82.909-12.723c-2.234.001-4.469.039-6.702.095l-23.944 8.02v110.103z" fill="#8288cb"/><path d="M234.666 39.354c-2.401-12.828 3.694-25.475 14.598-31.759a277.16 277.16 0 0 0-76.181 12.648c-8.922 2.802-14.334 11.846-12.614 21.039a513.415 513.415 0 0 1 5.765 39.136 513.993 513.993 0 0 1 2.812 41.94c24.362 9.816 50.698 15.773 78.146 16.812a839.049 839.049 0 0 0-3.098-35.804 838.772 838.772 0 0 0-9.428-64.012z" fill="#676fb2"/><path d="M255.834 159.167c-39.031 0-77.064-9.194-111.932-26.334-12.949-6.366-16.191-23.743-5.709-34.227 6.704-6.702 16.638-7.971 24.557-4.012 28.966 14.476 60.283 21.816 93.084 21.816 32.865 0 64.236-7.366 93.241-21.896 7.881-3.946 17.842-2.743 24.596 4.009 10.409 10.411 7.339 27.771-5.635 34.217-34.278 17.041-72.401 26.427-112.202 26.427z" fill="#676fb2"/><g fill="#ffdbe0"><path d="M180.795 298.187c-13.807 0-25 8.914-25 19.909s11.193 19.909 25 19.909 25-8.914 25-19.909c.001-10.996-11.192-19.909-25-19.909zM331.199 298.187c-13.807 0-25 8.914-25 19.908 0 10.995 11.193 19.909 25 19.909s25-8.914 25-19.909-11.193-19.908-25-19.908z"/></g><g><path d="M185.962 292.31v12c0 4.143 3.357 7.5 7.5 7.5s7.5-3.357 7.5-7.5v-12c0-4.143-3.357-7.5-7.5-7.5s-7.5 3.357-7.5 7.5zM310.859 292.31v12c0 4.143 3.357 7.5 7.5 7.5s7.5-3.357 7.5-7.5v-12c0-4.143-3.357-7.5-7.5-7.5s-7.5 3.357-7.5 7.5zM277.504 311.465a6.963 6.963 0 0 1-6.955 6.955 6.963 6.963 0 0 1-6.956-6.955c0-4.143-3.357-7.5-7.5-7.5s-7.5 3.357-7.5 7.5a6.963 6.963 0 0 1-6.955 6.955 6.963 6.963 0 0 1-6.956-6.955c0-4.143-3.357-7.5-7.5-7.5s-7.5 3.357-7.5 7.5c0 18.83 22.277 28.899 36.411 16.504 14.123 12.386 36.411 2.338 36.411-16.504 0-4.143-3.357-7.5-7.5-7.5s-7.5 3.357-7.5 7.5z"/><path d="M378.478 134.459c11.401-10.92 12.295-29.436.496-41.238a28.77 28.77 0 0 0-26.222-7.842 496.798 496.798 0 0 1 6.088-42.74c2.403-12.798-4.974-25.552-17.708-29.568C313.625 4.395 285.07 0 255.964 0a285.093 285.093 0 0 0-85.129 13.087c-12.727 3.999-20.145 16.742-17.737 29.574.48 2.565.936 5.106 1.367 7.628a7.501 7.501 0 0 0 14.785-2.533 523.682 523.682 0 0 0-1.409-7.858c-1.014-5.392 2.082-10.801 7.489-12.5 25.102-7.883 52.363-12.383 80.637-12.397 27.669 0 54.704 4.191 80.653 12.375a10.945 10.945 0 0 1 7.477 12.501c-3.218 17.194-5.508 34.248-6.997 51.972-51.42 22.737-110.763 22.781-162.246.125a537.911 537.911 0 0 0-1.36-14.072 7.5 7.5 0 0 0-14.91 1.646c.216 1.957.419 3.942.616 5.939a28.757 28.757 0 0 0-26.31 7.817c-11.901 11.903-10.799 30.433.54 41.252-23.298 28.342-36.043 63.72-36.043 100.55 0 76.839 55.045 142.159 129.616 155.938l-16.421 35.889C192.299 466.882 221.819 512 265.166 512c23.439 0 44.889-13.772 54.644-35.089l26.277-57.429a7.5 7.5 0 0 0-13.64-6.24L306.17 470.67c-7.32 15.995-23.415 26.33-41.004 26.33-32.526 0-54.65-33.881-40.945-63.825l24-52.45a7.502 7.502 0 0 0-3.699-9.941 7.502 7.502 0 0 0-9.941 3.699l-1.121 2.449c-69.396-10.951-121.073-70.98-121.073-141.826 0-34.098 12.071-66.824 34.088-92.769 68.718 31.754 147.799 33.154 218.984-.063 36.462 42.914 44.1 102.424 21.165 152.562l-41.696 91.127a7.5 7.5 0 0 0 13.64 6.24l41.706-91.148c24.69-53.973 17.539-118.827-21.796-166.596zm-231.267-8.356c-8.39-4.125-10.53-15.375-3.715-22.192 4.208-4.207 10.596-5.258 15.901-2.606 60.415 30.189 132.593 30.204 193.035-.082 5.311-2.658 11.715-1.613 15.935 2.605 6.419 6.421 5.419 17.845-4.333 22.516h.001c-64.645 31.896-141.28 35.622-216.824-.241z"/><path d="M309.487 235.105c0-29.483-23.897-53.42-53.361-53.489l-.131-.001c-29.493 0-53.488 23.996-53.488 53.49s23.996 53.489 53.49 53.489 53.49-23.994 53.49-53.489zm-53.49 38.49c-21.224 0-38.49-17.267-38.49-38.489 0-21.224 17.267-38.49 38.49-38.49s38.49 17.267 38.49 38.49c0 21.222-17.266 38.489-38.49 38.489z"/></g></svg>