<svg height="512" width="512" xmlns="http://www.w3.org/2000/svg"><path d="m354.5 56-69 50 69 50c27.6 0 50 22.4 50 50v100c0 27.6-22.4 50-50 50l-69 50 69 50c82.7 0 150-67.3 150-150V206c0-82.7-67.3-150-150-150z" fill="#b28ae4"/><path d="M354.5 356c-27.6 0-50-22.4-50-50V206c0-27.6 22.4-50 50-50-27.6-27.6-27.6-72.4 0-100-82.7 0-150 67.3-150 150v100c0 82.7 67.3 150 150 150-27.6-27.6-27.6-72.3 0-100z" fill="#976bcf"/><path d="M155.8 68.7H95.5v333.7l48.7 48.7c16.8-8.1 28.3-25.2 28.3-45.1V106c0-14.5-6.3-27.9-16.7-37.3z" fill="#b28ae4"/><path d="M122.5 139.8c0-28.6 12.9-54.1 33.3-71.1-4.2-3.7-9-6.8-14.4-9-18.8-7.7-40.4-3.2-54.6 11.4l-65 66.7c-19.3 19.8-18.9 51.4.9 70.7 13.6 13.3 32.9 17.2 49.9 11.9V406c0 27.6 22.4 50 50 50 7.8 0 15.1-1.8 21.7-4.9-13.5-16.1-21.7-36.9-21.7-59.5V139.8z" fill="#976bcf"/><g fill="#ff8e9e"><path d="M274.2 120.4c-16.2 0-29.4 10.5-29.4 23.4s13.1 23.4 29.4 23.4 29.4-10.5 29.4-23.4-13.2-23.4-29.4-23.4zM433.3 120.4c-16.2 0-29.4 10.5-29.4 23.4s13.1 23.4 29.4 23.4 29.4-10.5 29.4-23.4-13.2-23.4-29.4-23.4z"/></g><g><path d="M354.5 48.5C267.7 48.5 197 119.2 197 206v100c0 86.9 70.7 157.5 157.5 157.5 31.4 0 61.7-9.3 87.7-26.8 3.4-2.3 4.3-7 2-10.4s-7-4.3-10.4-2c-23.5 15.8-51 24.2-79.4 24.2-78.5.1-142.4-63.9-142.4-142.5V206c0-78.6 63.9-142.5 142.5-142.5S497 127.5 497 206v100c0 37.7-14.6 73.3-41.2 100.2-2.9 2.9-2.9 7.7.1 10.6 2.9 2.9 7.7 2.9 10.6-.1C495.8 387 512 347.7 512 306V206c0-86.8-70.7-157.5-157.5-157.5zM81.3 65.9 53.4 94.6c-2.9 3-2.8 7.7.1 10.6 3 2.9 7.7 2.8 10.6-.1L92 76.5c26.5-27.2 72.9-8.7 72.9 29.7v300c0 23.4-19.1 42.5-42.5 42.5s-42.5-19.1-42.5-42.5V223.5l5-5c2.9-2.9 2.9-7.7 0-10.6s-7.7-2.9-10.6 0l-5.8 5.8c-27 7.3-53.5-13.1-53.5-41 0-11.1 4.3-21.7 12.1-29.7l16.1-16.5c2.9-3 2.8-7.7-.1-10.6-3-2.9-7.7-2.8-10.6.1l-16.1 16.5C5.8 143.4 0 157.6 0 172.7c0 34.8 30.6 61.5 65 57V406c0 31.7 25.8 57.5 57.5 57.5S180 437.7 180 406V106c0-51.2-62.5-77.2-98.7-40.1z"/><path d="M298.8 109.3c0-4.1-3.4-7.5-7.5-7.5s-7.5 3.4-7.5 7.5v12c0 4.1 3.4 7.5 7.5 7.5s7.5-3.4 7.5-7.5zM423.7 121.3v-12c0-4.1-3.4-7.5-7.5-7.5s-7.5 3.4-7.5 7.5v12c0 4.1 3.4 7.5 7.5 7.5s7.5-3.4 7.5-7.5zM375.9 125.9c2.7-3.1 2.4-7.9-.7-10.6s-7.9-2.4-10.6.7c-5.7 6.6-15.9 6.6-21.6 0-2.7-3.1-7.5-3.4-10.6-.7s-3.4 7.5-.7 10.6c11.6 13.4 32.4 13.4 44.2 0zM354.5 363.5c31.7 0 57.5-25.8 57.5-57.5V206c0-31.7-25.8-57.5-57.5-57.5S297 174.3 297 206v100c0 31.7 25.8 57.5 57.5 57.5zM312 206c0-23.4 19.1-42.5 42.5-42.5S397 182.6 397 206v100c0 23.4-19.1 42.5-42.5 42.5S312 329.4 312 306z"/></g></svg>