<svg height="512" width="512" xmlns="http://www.w3.org/2000/svg"><path d="M233.397 192.718H108.858v126.566h124.539c34.95 0 63.279-28.333 63.279-63.283s-28.329-63.283-63.279-63.283z" fill="#ff8e9e"/><path d="M442.674 258.365h-8.324v-12.889c-15.113-21.033-34.592-36.556-56.288-41.921l-68.782 52.339v174.169h109.336l16.325-8.769c19.425-19.157 31.48-45.841 31.48-75.359 0-30.633-8.907-61.957-23.747-87.57z" fill="#fad5cb"/><path d="M336.421 315.935c0-41.496 16.344-84.261 41.64-112.379-5.42-1.34-10.977-2.056-16.64-2.056-55.933 0-101.645 68.891-104.818 136.936l8.045 6.96-7.96 8.04c3.827 54.801 49.252 98.064 104.733 98.064 28.63 0 54.578-11.525 73.52-30.206-54.971-3.366-98.52-49.246-98.52-105.359z" fill="#ffb39d"/><path d="M172.138 134.066h121.926c34.95 0 63.279-28.333 63.279-63.283S329.013 7.5 294.063 7.5h-63.561l-78.365 29.006v70.079z" fill="#ff8e9e"/><path d="M293.12 377.934H172.138V134.066c0-46.423 19.058-92.217 58.365-126.566H108.858c-34.948 0-63.279 28.333-63.279 63.283v370.434c0 34.95 28.331 63.283 63.279 63.283h185.205c35.229 0 63.733-28.788 63.274-64.124-.451-34.776-29.44-62.442-64.217-62.442z" fill="#ea5b70"/><ellipse cx="92.904" cy="270.897" fill="#ffdbe0" rx="29.355" ry="23.377"/><ellipse cx="242.017" cy="270.897" fill="#ffdbe0" rx="29.355" ry="23.377"/><g><path d="M112.512 248.395v-12c0-4.143-3.358-7.5-7.5-7.5s-7.5 3.357-7.5 7.5v12a7.5 7.5 0 0 0 15 0zM237.41 248.395v-12c0-4.143-3.358-7.5-7.5-7.5s-7.5 3.357-7.5 7.5v12a7.5 7.5 0 0 0 15 0zM189.58 252.965a7.5 7.5 0 0 0-11.309-9.855c-5.724 6.569-15.901 6.564-21.62 0a7.5 7.5 0 0 0-11.309 9.855c11.703 13.428 32.546 13.416 44.238 0z"/><path d="M361.421 194c-24.565 0-46.755 11.684-64.814 30.108-11.879-23.63-36.103-38.89-63.209-38.89h-53.76v-43.652h114.426c39.028 0 70.779-31.753 70.779-70.783S333.092 0 294.063 0H108.858C69.831 0 38.079 31.753 38.079 70.783v7.544a7.5 7.5 0 0 0 15 0v-7.544C53.079 40.024 78.102 15 108.858 15h185.205c30.757 0 55.779 25.024 55.779 55.783s-25.022 55.783-55.779 55.783H165.138a7.5 7.5 0 0 0-7.5 7.5c0 3.974 3.092 7.216 7 7.475v51.177a7.5 7.5 0 0 0 7.5 7.5h61.26c23.502 0 44.261 14.549 52.332 36.427-15.479 20.081-26.858 45.348-32.6 71.54a55.536 55.536 0 0 1-19.731 3.6h-61.26a7.5 7.5 0 0 0-7.5 7.5v51.176c-3.908.259-7 3.501-7 7.475a7.5 7.5 0 0 0 7.5 7.5H293.12c31.102 0 56.723 25.051 56.723 55.782 0 30.759-25.022 55.783-55.779 55.783H108.858c-30.757 0-55.779-25.024-55.779-55.783v-332.89a7.5 7.5 0 0 0-15 0v332.89c0 39.03 31.751 70.783 70.779 70.783h185.205c32.896 0 60.62-22.56 68.521-53.021 21.243-.219 41.848-6.393 59.656-17.917a7.502 7.502 0 0 0 2.222-10.372 7.503 7.503 0 0 0-10.372-2.222c-14.763 9.554-31.747 14.87-49.316 15.471 1.541-40.505-31.65-73.505-71.654-73.505h-26.118a98.413 98.413 0 0 1-2.799-16.999h26.271l4.495 4.494a7.498 7.498 0 0 0 10.606-.001 7.5 7.5 0 0 0-.001-10.606l-4.494-4.493v-13.222l6.788-6.787a7.5 7.5 0 0 0-10.606-10.607l-8.984 8.984a7.5 7.5 0 0 0-2.197 5.304v11.936H264.11c1.48-30.724 11.94-61.989 29.221-86.829C312.447 224.132 336.629 209 361.421 209c24.557 0 48.515 14.86 67.55 41.856l-13.261 13.262-7.562-7.563a7.503 7.503 0 0 0-10.607 0l-15.855 15.855-6.818-6.818a7.5 7.5 0 0 0-10.607 10.607l6.818 6.818-6.819 6.819a7.5 7.5 0 1 0 10.607 10.606l12.109-12.109.014-.013a.2.2 0 0 0 .013-.015l15.841-15.842 7.562 7.563a7.502 7.502 0 0 0 10.607-.001l16.171-16.172c13.918 24.651 21.737 53.836 21.737 82.08.001 23.635-8.482 46.468-23.887 64.293a7.5 7.5 0 0 0 11.35 9.808c17.759-20.551 27.538-46.867 27.537-74.102 0-67.954-45.519-151.932-112.5-151.932zM179.638 370.435v-43.65h53.76c5.739 0 11.385-.689 16.878-2.036-.889 7.088-1.355 14.178-1.355 21.187 0 8.285.903 16.489 2.664 24.499z"/></g></svg>