<svg xmlns="http://www.w3.org/2000/svg" viewBox="0 0 512 512" style="enable-background:new 0 0 512 512" xml:space="preserve"><path style="fill:#eda751" d="M100.451 367.568c-8.061 0-16.518-.223-25.369-.67-12.983-.656-22.976-11.713-22.32-24.697.656-12.984 11.678-22.977 24.697-22.32 34.53 1.746 63.14-.403 80.568-6.048 12.368-4.007 25.64 2.774 29.646 15.141 4.005 12.367-2.773 25.64-15.141 29.645-18.38 5.954-42.556 8.949-72.081 8.949zM367.127 416.71c-33.15 0-52.458-23.636-69.843-44.915-5.14-6.291-4.207-15.56 2.086-20.7 6.291-5.14 15.558-4.208 20.7 2.086 23.15 28.336 35.192 39.162 61.494 31.956 9.477-2.597 13.046-7.844 19.594-18.519 7.114-11.598 15.969-26.033 37.163-35.929 7.361-3.439 16.116-.257 19.553 7.106 3.438 7.361.256 16.116-7.106 19.553-13.184 6.156-18.442 14.727-24.53 24.653-7.029 11.461-15.779 25.725-36.9 31.512-8.052 2.205-15.422 3.197-22.211 3.197z"/><path style="fill:#fcd79d" d="M457.875 337.794c-3.438-7.364-12.192-10.545-19.553-7.106a80.044 80.044 0 0 0-10.498 5.872c1.42 6.757 5.794 18.651 15.036 25.396 2.295-1.653 4.886-3.197 7.909-4.608 7.362-3.438 10.543-12.193 7.106-19.554z"/><path style="fill:#eda751" d="M217.526 504.5c-12.521 0-22.937-9.865-23.497-22.497-1.413-31.905.368-58.671 2.758-71.044 2.466-12.763 14.819-21.113 27.576-18.645 12.763 2.465 21.112 14.812 18.645 27.576-1.042 5.396-3.425 26.699-1.949 60.031.575 12.987-9.488 23.982-22.474 24.556-.354.016-.707.023-1.059.023zM289.133 504.5c-12.521 0-22.937-9.865-23.497-22.497-1.411-31.896.368-58.662 2.757-71.04 2.465-12.765 14.817-21.112 27.573-18.65 12.764 2.465 21.114 14.81 18.65 27.573-1.042 5.4-3.425 26.711-1.95 60.034.575 12.987-9.488 23.982-22.474 24.556-.354.017-.707.024-1.059.024z"/><path style="opacity:.2;fill:#a35f00;enable-background:new" d="M366.921 387.285c-17.08-.154-28.466-11.601-46.85-34.105-5.142-6.294-14.409-7.226-20.7-2.086-6.293 5.141-7.226 14.409-2.086 20.7 13.659 16.72 28.511 34.888 50.327 41.909 7.617-7.923 14.129-16.802 19.309-26.418zM295.967 392.313c-12.756-2.462-25.108 5.885-27.573 18.65-1.613 8.354-2.946 23.268-3.209 41.884 17.032-1.561 33.093-6.275 47.518-13.509.542-10.114 1.394-16.76 1.914-19.452 2.464-12.763-5.886-25.108-18.65-27.573zM224.363 392.314c-12.756-2.467-25.109 5.882-27.576 18.645-1.222 6.325-2.284 16.419-2.842 29.032 14.223 6.933 29.997 11.427 46.694 12.897.274-17.811 1.645-29.249 2.369-32.999 2.467-12.762-5.881-25.109-18.645-27.575zM158.027 313.834c-8.423 2.728-19.464 4.637-32.516 5.687a113.264 113.264 0 0 0 4.172 46.921c16.623-1.365 30.956-3.97 42.848-7.822 12.368-4.005 19.146-17.279 15.141-29.645-4.005-12.366-17.277-19.147-29.645-15.141z"/><ellipse style="fill:#fcd690" cx="252.67" cy="333.13" rx="108.56" ry="100.88"/><path style="opacity:.15;fill:#c17a00;enable-background:new" d="M236.813 432.935c-49.611-32.572-34.236-99.329-25.814-128.524V239.95c-39.278 15.184-66.898 51.182-66.898 93.178.001 50.711 40.269 92.677 92.712 99.807z"/><path style="fill:#eda751" d="M186.598 158.2c21.244-17.826 35.428-47.75 5.463-91.986-30.201-44.585-75.166-55.761-110.27-51.626a21.952 21.952 0 0 0-18.423 15.459c-10.169 33.853-6.97 80.075 31.693 117.56 38.361 37.191 70.293 28.419 91.537 10.593z"/><path style="fill:#ff91ab" d="M61.955 35.228c-8.337 33.285-3.623 76.771 33.106 112.38 33.25 32.236 61.664 29.932 82.481 17.141-14.317-97.19-76.857-122.962-115.587-129.521z"/><path style="fill:#eda751" d="M318.736 158.2c-21.244-17.826-35.428-47.75-5.463-91.986 30.201-44.585 75.166-55.761 110.27-51.626a21.953 21.953 0 0 1 18.423 15.459c10.169 33.853 6.97 80.075-31.693 117.56-38.361 37.191-70.294 28.419-91.537 10.593z"/><path style="fill:#ff91ab" d="M443.379 35.228c8.336 33.285 3.623 76.771-33.106 112.38-33.25 32.236-61.664 29.932-82.481 17.141 14.316-97.19 76.857-122.962 115.587-129.521z"/><path style="fill:#ffdc9c" d="M437.498 185.105c0 84.51-82.751 121.524-184.831 121.524-102.079 0-184.831-37.014-184.831-121.524S150.588 32.087 252.667 32.087s184.831 68.508 184.831 153.018z"/><path style="opacity:.15;fill:#c17a00;enable-background:new" d="M153.976 55.712c-51.764 27.117-86.14 74.929-86.14 129.393 0 72.647 61.151 110.196 143.163 119.307-117.726-70.321-102.372-164.909-57.023-248.7z"/><circle style="fill:#78cfc0" cx="307.36" cy="152.15" r="21.615"/><circle style="fill:#78cfc0" cx="167.37" cy="152.15" r="21.615"/><path style="fill:#ff91ab" d="M236.19 156.397c16.943 0 35.815 10.541 38.803 27.988 1.604 9.365-5.569 18.154-15.216 18.154-14.602 0-18.581-10.414-33.374-10.414-12.525 0-22.508-4.632-22.508-15.363.001-7.503 8.855-20.365 32.295-20.365z"/><path style="fill:#fff" d="M272.356 194.032c-7.128-9.849-27.011-7.919-32.014 3.693-5.212 12.095 3.137 27.712 7.386 39.035a13.982 13.982 0 0 0 13.093 9.075c6.886 0 12.731-5.01 13.817-11.809 2.001-12.536 3.747-31.663-2.282-39.994z"/><path style="fill:#ff91ab" d="M244.552 41.217c1.15-17.149 15.114-31.066 32.266-32.175a34.602 34.602 0 0 1 14.833 2.272c1.772.689 3.726.672 5.469-.088A44.749 44.749 0 0 1 315.039 7.5c21.207 0 38.973 14.686 43.709 34.44.441 1.839 1.599 3.401 3.204 4.4 10.994 6.848 17.99 19.509 16.667 33.69-1.584 16.981-15.368 30.642-32.361 32.09-10.236.873-19.66-2.588-26.655-8.745-4.093-3.603-9.144-5.868-14.464-7.063a44.845 44.845 0 0 1-21.216-11.417c-3.868-3.712-8.616-6.454-13.794-7.84-15.504-4.149-26.721-18.78-25.577-35.838z"/><path style="fill:#eda751" d="M284.824 367.568c-8.061 0-16.519-.223-25.37-.67-12.983-.656-22.976-11.713-22.32-24.697.656-12.984 11.697-22.977 24.697-22.32 34.531 1.746 63.14-.403 80.568-6.048 12.368-4.007 25.64 2.774 29.645 15.141 4.005 12.367-2.773 25.64-15.141 29.645-18.379 5.954-42.555 8.949-72.079 8.949z"/><g style="opacity:.1"><path d="M365.723 49.052a35.786 35.786 0 0 0-3.771-2.711c-1.605-1-2.763-2.562-3.204-4.4a44.659 44.659 0 0 0-1.667-5.414c-12.342 4.305-24.245 12.546-28.581 23.568a7.282 7.282 0 0 0 13.55 5.331c2.425-6.165 11.987-13.405 23.673-16.374zM291.499 37.042a7.282 7.282 0 0 0-4.859 9.078c1.538 5.079 4.812 22.201-16.754 30.865.081.022.161.049.242.071 5.179 1.386 9.926 4.129 13.794 7.84.267.256.553.492.826.742 17.705-11.555 19.988-29.988 15.828-43.736a7.281 7.281 0 0 0-9.077-4.86z"/></g><g style="opacity:.1"><circle cx="324.04" cy="31.07" r="7.396"/><circle cx="269.48" cy="38.466" r="7.396"/><circle cx="347.43" cy="86.27" r="7.396"/></g><path d="M464.671 334.621a22.064 22.064 0 0 0-12.539-11.479 22.062 22.062 0 0 0-16.983.75c-23.236 10.85-33.146 27.006-40.384 38.803-6.602 10.763-8.794 13.457-15.182 15.208-8.75 2.398-15.268 2.578-21.364.37a103.855 103.855 0 0 0 5.801-14.534c5.682-2.952 10.302-7.576 13.274-13.394 3.771-7.384 4.44-15.794 1.886-23.68-2.283-7.053-6.905-12.925-13.135-16.787a102.535 102.535 0 0 0-4.222-13.624c9.129-3.569 17.611-7.65 25.363-12.243 37.821-22.408 57.813-56.609 57.813-98.905 0-18.518-3.887-36.745-11.224-53.902 20.407-30.431 26.031-67.837 15.375-103.312a29.396 29.396 0 0 0-24.728-20.75c-23.726-2.797-47.946 1.406-68.962 11.819C345.756 7.227 331.139 0 315.039 0c-7.2 0-14.187 1.442-20.767 4.287-5.722-2.211-11.758-3.128-17.938-2.729-15.318.99-28.442 10.236-34.962 23.314-22.43 1.082-44.146 5.383-64.363 12.592-26.058-23.452-60.803-34.483-96.096-30.323a29.399 29.399 0 0 0-24.728 20.75c-10.64 35.422-5.048 72.768 15.284 103.174-7.313 17.126-11.133 35.351-11.133 54.041 0 51.665 29.171 90.169 83.143 111.195a101.768 101.768 0 0 0-4.333 14.112c-16.264 2.503-37.303 3.193-61.31 1.979-17.087-.87-31.7 12.34-32.564 29.431-.864 17.094 12.339 31.703 29.432 32.566 8.922.451 17.585.68 25.747.68 16.189 0 30.962-.904 44.033-2.682 8.61 20.618 23.791 38.189 43.13 50.457-1.611 16.411-2.021 38.183-1.077 59.493.737 16.633 14.349 29.663 30.989 29.663.468 0 .939-.01 1.391-.03 8.282-.367 15.927-3.936 21.524-10.053 5.597-6.115 8.478-14.045 8.11-22.328-.71-16.044-.5-28.865-.052-38.156 1.384.046 2.771.077 4.167.077 1.783 0 3.556-.045 5.322-.12-.415 10.348-.583 24.27.156 40.946.737 16.634 14.349 29.664 30.989 29.664a31.037 31.037 0 0 0 27.929-17.449 7.5 7.5 0 0 0-13.482-6.576 16.05 16.05 0 0 1-14.446 9.026c-8.594 0-15.624-6.732-16.005-15.327-.769-17.397-.525-31.67-.059-41.854a121.5 121.5 0 0 0 32.807-10.367c-.646 7.26-1.19 17.431-1.178 30.244a7.5 7.5 0 0 0 7.5 7.492h.008a7.5 7.5 0 0 0 7.492-7.508c-.021-21.665 1.641-35.044 2.282-38.369.09-.464.168-.933.236-1.404a114.75 114.75 0 0 0 7.882-6.017c11.558 6.935 23.726 10.32 37.028 10.32 7.665 0 15.805-1.165 24.193-3.464 23.983-6.57 33.999-22.9 41.313-34.824 5.901-9.622 10.166-16.575 21.309-21.777a22.072 22.072 0 0 0 11.48-12.539 22.083 22.083 0 0 0-.751-16.986zm-364.22 25.447c-7.911 0-16.318-.223-24.989-.66-8.833-.446-15.655-7.996-15.209-16.828.446-8.83 7.989-15.644 16.827-15.208 22.83 1.155 43.24.634 59.784-1.491a103.197 103.197 0 0 0-.263 7.246c0 8.512 1.06 16.797 3.056 24.748-11.708 1.449-24.837 2.193-39.206 2.193zm264.459-28.781a15.932 15.932 0 0 1-.975 12.235 15.935 15.935 0 0 1-9.302 7.949l-.054.019a.008.008 0 0 0-.004.002c-17.584 5.691-41.051 8.577-69.752 8.577-7.912 0-16.319-.223-24.99-.66a15.94 15.94 0 0 1-11.09-5.264 15.937 15.937 0 0 1-4.119-11.563 15.941 15.941 0 0 1 5.259-11.092 15.919 15.919 0 0 1 11.568-4.117c35.413 1.793 64.98-.483 83.258-6.403a15.946 15.946 0 0 1 12.237.975 15.933 15.933 0 0 1 7.964 9.342zm-81.589-18.311c23.537-1.817 45.144-5.773 64.339-11.76a88.734 88.734 0 0 1 1.456 3.963 31.154 31.154 0 0 0-9.027 1.52c-12.967 4.198-32.702 6.349-56.768 6.277zm142.563-197.528c-9.919-17.199-23.497-32.947-40.267-46.343-.05-.283-.102-.565-.157-.847 17.672-14.021 36.97-20.896 52.117-24.255 3.059 17.072 3.795 43.948-11.693 71.445zm-3.219-93.411a14.405 14.405 0 0 1 10.994 7.474c-15.729 3.561-35.394 10.557-53.931 24.249a43.161 43.161 0 0 0-13.727-13.734 52.916 52.916 0 0 0-2.721-8.201c18.155-8.715 38.967-12.192 59.385-9.788zM252.036 41.719a26.792 26.792 0 0 1 1.332-6.721c.101-.25.192-.504.267-.766 3.619-9.824 12.784-17.002 23.668-17.705 4.016-.256 7.932.338 11.629 1.777 3.65 1.421 7.622 1.348 11.185-.201A37.115 37.115 0 0 1 315.039 15c13.052 0 24.743 6.645 31.476 17.102.045.086.083.175.132.26.145.254.305.493.474.724a37.585 37.585 0 0 1 4.335 10.607c.901 3.751 3.222 6.952 6.531 9.014 5.682 3.539 9.781 8.833 11.823 14.918.03.104.061.207.096.309a28.444 28.444 0 0 1 1.246 11.4c-1.24 13.296-12.216 24.179-25.529 25.314-7.778.654-15.254-1.789-21.064-6.903-4.815-4.239-10.796-7.184-17.775-8.751a37.356 37.356 0 0 1-17.667-9.51c-4.834-4.639-10.728-7.983-17.049-9.675-12.476-3.337-20.899-15.152-20.032-28.09zM82.669 22.037c13.975-1.648 47.817-2.399 78.603 21.766-9.968 4.497-19.483 9.743-28.432 15.705-20.481-17.487-43.2-25.935-61.164-29.998a14.402 14.402 0 0 1 10.993-7.473zM67.758 44.001c15.416 3.416 34.817 10.404 52.559 24.617a182.725 182.725 0 0 0-5.255 4.307c-14.763 12.609-26.74 26.92-35.691 42.387C63.96 87.86 64.703 61.044 67.758 44.001zM229.376 491.79a15.94 15.94 0 0 1-11.141 5.194c-.237.012-.474.016-.709.016-8.593 0-15.623-6.732-16.004-15.328-.797-17.998-.605-36.256.479-51.048a121.032 121.032 0 0 0 31.55 9.407c-.489 9.726-.735 23.262.016 40.221.189 4.28-1.3 8.378-4.191 11.538zm95.504-93.277c-.35.264-.676.564-.981.894a99.572 99.572 0 0 1-12.602 9.804 7.574 7.574 0 0 0-.743.491c-16.537 10.663-36.575 16.808-57.887 16.808-55.728 0-101.065-41.891-101.065-93.382 0-4.91.406-9.759 1.211-14.53.04-.175.068-.353.095-.531a86.522 86.522 0 0 1 4.751-16.829c8.477 2.632 17.467 4.89 26.97 6.75a7.5 7.5 0 0 0 2.88-14.72c-11.163-2.185-21.552-4.94-31.16-8.241a7.103 7.103 0 0 0-.641-.228c-20.107-6.986-36.743-16.396-49.643-28.149-20.39-18.579-30.729-42.649-30.729-71.542 0-17.724 3.876-35.018 11.29-51.199.145-.265.275-.537.387-.816 8.381-17.958 21.125-34.528 37.79-48.762a170.999 170.999 0 0 1 11.702-9.13l.026-.019c12.451-8.886 26.204-16.225 40.894-21.883.337-.1.667-.227.99-.375 18.367-6.961 38.171-11.305 58.705-12.767-.015.187-.038.372-.051.559-1.345 20.07 11.743 38.4 31.121 43.585 3.882 1.039 7.526 3.116 10.54 6.008a52.361 52.361 0 0 0 24.765 13.321c4.496 1.01 8.248 2.818 11.152 5.375 7.956 7.004 17.939 10.752 28.453 10.752 1.258 0 2.525-.054 3.796-.162 18.249-1.556 33.182-14.362 37.855-31.518 12.517 11.443 22.678 24.334 30.274 38.471a132.71 132.71 0 0 1 3.559 7.132c7.577 16.395 11.413 33.657 11.413 51.426 0 37.229-16.977 66.163-50.459 86-8.991 5.327-19.08 9.918-30.137 13.76-.069.023-.138.045-.207.071-26.959 9.334-59.69 14.192-96.528 14.192-10.737 0-21.296-.423-31.382-1.257-4.128-.346-7.752 2.728-8.093 6.856s2.729 7.751 6.856 8.093c9.754.806 19.93 1.227 30.266 1.284a30.962 30.962 0 0 0-10.49 6.258c-6.146 5.558-9.762 13.179-10.18 21.46-.419 8.28 2.412 16.228 7.972 22.379 5.559 6.15 13.18 9.769 21.46 10.187 8.922.451 17.585.68 25.748.68 23.66 0 44.097-1.921 61.012-5.706a89.892 89.892 0 0 1-4.028 7.854c-.046.067-.097.128-.141.197-.15.233-.283.473-.404.715-4.466 7.518-9.991 14.364-16.382 20.384zm126.443-52.033a7.162 7.162 0 0 1-3.728 4.071c-15.227 7.109-21.31 17.027-27.75 27.527-6.668 10.873-14.227 23.196-32.488 28.199-7.098 1.944-13.904 2.931-20.23 2.931-9.12 0-17.6-2.037-25.709-6.191a108.72 108.72 0 0 0 9.169-11.653c9.719 4.233 20.177 4.507 32.96 1.004 12.758-3.497 17.721-11.588 24.004-21.831 6.934-11.302 14.791-24.111 33.944-33.056a7.165 7.165 0 0 1 5.513-.243 7.156 7.156 0 0 1 4.071 3.728 7.168 7.168 0 0 1 .244 5.514zM231.739 200.332c-2.254 11.457 2.664 23.502 6.734 33.456.814 1.992 1.584 3.874 2.234 5.607 3.129 8.337 11.212 13.939 20.114 13.939 10.619 0 19.545-7.623 21.223-18.126 2.861-17.928 2.595-31.412-.78-40.224a22.975 22.975 0 0 0 1.123-11.866c-1.732-10.111-7.91-19.17-17.396-25.506-8.29-5.538-18.788-8.715-28.801-8.715-28.99 0-39.794 17.091-39.794 27.864 0 14.103 11.498 22.863 30.008 22.863 1.996.001 3.706.254 5.335.708zm35.492 32.511c-.508 3.182-3.204 5.491-6.41 5.491a6.516 6.516 0 0 1-6.071-4.21c-.727-1.936-1.536-3.916-2.393-6.013-3.676-8.988-8.249-20.176-5.128-27.42 1.209-2.805 4.78-4.926 9.1-5.401a16.101 16.101 0 0 1 1.755-.098c3.566 0 6.733 1.216 8.196 3.236 2.553 3.527 4.143 14.42.951 34.415zm-55.835-56.081c0-3.435 5.876-12.864 24.794-12.864 11.839 0 25.631 6.58 30.162 17.482-3.603-1.077-7.577-1.451-11.668-1-6.051.667-11.482 3.049-15.533 6.626-3.557-1.39-7.656-2.381-12.747-2.381-13.058 0-15.008-4.927-15.008-7.863zm-73.806 12.685a7.5 7.5 0 0 0 1.967-14.871c-10.703-1.415-32.671.229-41.891 2.532a7.5 7.5 0 0 0 3.639 14.553c7.577-1.894 27.623-3.36 36.285-2.214zm5.854 10.255c-10.434 2.771-30.12 12.659-37.765 18.303a7.5 7.5 0 1 0 8.908 12.068c6.283-4.639 24.258-13.631 32.706-15.873a7.5 7.5 0 0 0-3.849-14.498zm163.918-18.435c16.054 0 29.114-13.062 29.114-29.115s-13.061-29.114-29.114-29.114c-16.054 0-29.115 13.061-29.115 29.114s13.061 29.115 29.115 29.115zm0-43.23c7.782 0 14.114 6.332 14.114 14.114 0 7.783-6.332 14.115-14.114 14.115-7.783 0-14.115-6.332-14.115-14.115 0-7.782 6.332-14.114 14.115-14.114zm-139.989-15c-16.054 0-29.115 13.061-29.115 29.114s13.062 29.115 29.115 29.115c16.054 0 29.115-13.062 29.115-29.115s-13.062-29.114-29.115-29.114zm0 43.23c-7.783 0-14.115-6.332-14.115-14.115 0-7.782 6.332-14.114 14.115-14.114s14.115 6.332 14.115 14.114c0 7.783-6.332 14.115-14.115 14.115zm201.682 51.738c-7.646-5.644-27.332-15.532-37.765-18.303a7.5 7.5 0 0 0-3.85 14.498c8.446 2.242 26.423 11.234 32.706 15.873a7.467 7.467 0 0 0 4.448 1.466 7.49 7.49 0 0 0 6.04-3.046 7.498 7.498 0 0 0-1.579-10.488zm-40.33-35.01a7.498 7.498 0 0 0 8.419 6.452c8.664-1.147 28.708.319 36.285 2.214a7.555 7.555 0 0 0 1.825.226 7.502 7.502 0 0 0 1.814-14.779c-9.22-2.306-31.189-3.947-41.891-2.532a7.5 7.5 0 0 0-6.452 8.419z"/></svg>