<svg xmlns="http://www.w3.org/2000/svg" viewBox="0 0 512.001 512.001" style="enable-background:new 0 0 512.001 512.001" xml:space="preserve"><path style="fill:#eda751" d="M187.287 427.452c-7.687 0-15.65-1.474-23.854-4.423-34.084-12.251-51.912-16.605-68.088-3.648-6.463 5.179-15.899 4.133-21.075-2.329-5.177-6.464-4.133-15.899 2.33-21.075 31.045-24.868 64.564-12.817 96.977-1.166 24.408 8.774 36.87-5.289 56.802-30.896 2.68-3.445 5.453-7.006 8.284-10.472 5.238-6.413 14.684-7.365 21.096-2.126 6.413 5.239 7.365 14.685 2.126 21.097-2.607 3.192-5.151 6.46-7.842 9.919-10.077 12.945-20.496 26.333-34.194 35.223-10.162 6.593-21.053 9.896-32.562 9.896z"/><path style="fill:#fcd79d" d="M87.827 388.595c-3.774 1.981-7.519 4.411-11.229 7.383-6.463 5.176-7.505 14.611-2.33 21.074 5.177 6.463 14.612 7.507 21.075 2.329 2.629-2.106 5.305-3.747 8.084-4.979-1.102-11.696-8.467-20.908-15.6-25.807z"/><path style="fill:#eda751" d="M253.605 504.457c-2.654 0-5.351-.444-7.996-1.379-12.49-4.416-19.037-18.121-14.621-30.613 8.147-23.044 15.606-48.341 9.157-61.239-5.925-11.851-1.122-26.26 10.728-32.185 11.852-5.925 26.261-1.121 32.185 10.728 13.639 27.279 7.132 59.18-6.836 98.686-3.482 9.848-12.737 16.002-22.617 16.002zM170.123 363.738c-27.646 0-55.438-10.469-72.897-27.931-9.368-9.368-9.368-24.557 0-33.925s24.558-9.369 33.925.001c9.563 9.563 27.833 15.171 44.408 13.629 9.734-.902 17.439-4.208 20.614-8.843 7.487-10.931 22.417-13.724 33.347-6.24 10.931 7.486 13.724 22.416 6.239 33.346-11.476 16.76-31.282 27.24-55.768 29.509-3.275.304-6.573.454-9.868.454zM383.826 484.76c-2.654 0-5.352-.444-7.996-1.379-12.49-4.417-19.036-18.122-14.62-30.614 2.777-7.853 2.268-14.257-1.603-20.155-3.891-5.929-9.519-9.041-10.705-9.493-12.5-4.388-19.057-18.071-14.669-30.573 4.386-12.5 18.098-19.069 30.598-14.683 12.187 4.276 29.849 16.435 39.519 36.624 8.01 16.723 8.733 35.49 2.094 54.273-3.482 9.847-12.737 16-22.618 16z"/><path style="opacity:.2;fill:#a35f00;enable-background:new" d="M402.574 411.044c-9.941-18.13-26.268-29.152-37.743-33.179-12.5-4.387-26.212 2.182-30.599 14.682-4.388 12.501 2.17 26.185 14.67 30.573 1.186.452 6.814 3.564 10.705 9.493 1.804 2.748 2.867 5.611 3.219 8.675 15.288-7.546 28.792-17.863 39.748-30.244zM250.873 379.042c-11.85 5.925-16.653 20.334-10.728 32.185 3.459 6.919 2.914 17.406.411 29.198 13.99 7.161 29.528 11.973 46.009 13.881 5.715-24.407 5.967-45.588-3.507-64.536-5.925-11.848-20.334-16.651-32.185-10.728z"/><path style="opacity:.2;fill:#a35f00;enable-background:new" d="M259.757 351.318c-6.413-5.238-15.858-4.287-21.096 2.126-2.831 3.466-5.604 7.027-8.284 10.472-14.307 18.381-24.765 30.812-38.555 33.12 5.901 8.981 12.998 17.199 21.091 24.444a65.709 65.709 0 0 0 6.933-3.923c13.698-8.89 24.117-22.278 34.194-35.223 2.691-3.459 5.235-6.727 7.842-9.919 5.239-6.412 4.287-15.858-2.125-21.097zM229.519 300.428c-10.93-7.484-25.861-4.691-33.347 6.24-3.173 4.635-10.88 7.941-20.614 8.843-.575.054-1.156.078-1.735.115a115.376 115.376 0 0 0 2.786 47.911 105.3 105.3 0 0 0 3.379-.252c24.487-2.27 44.293-12.749 55.769-29.509 7.486-10.932 4.693-25.861-6.238-33.348z"/><ellipse style="fill:#fcd690" cx="302.56" cy="333.004" rx="110.648" ry="102.809"/><path style="opacity:.15;fill:#c17a00;enable-background:new" d="M286.399 434.727c-50.561-33.195-34.891-101.231-26.308-130.985v-65.696c-40.03 15.475-68.178 52.162-68.178 94.962 0 51.682 41.039 94.451 94.486 101.719z"/><path style="fill:#eda751" d="M235.224 154.732c21.651-18.167 36.106-48.664 5.568-93.747C210.013 15.546 164.187 4.156 128.41 8.37a22.372 22.372 0 0 0-18.776 15.755c-10.363 34.501-7.104 81.609 32.301 119.811 39.094 37.902 71.638 28.962 93.289 10.796z"/><path style="fill:#ff91ab" d="M108.193 29.405c-8.496 33.922-3.692 78.24 33.74 114.531 33.886 32.853 62.844 30.506 84.06 17.469-14.59-99.05-78.328-125.316-117.8-132z"/><path style="fill:#eda751" d="M369.891 154.732c-21.651-18.167-36.106-48.664-5.568-93.747 30.78-45.439 76.606-56.829 112.381-52.614a22.372 22.372 0 0 1 18.776 15.755c10.363 34.501 7.104 81.609-32.299 119.811-39.096 37.901-71.64 28.961-93.29 10.795z"/><path style="fill:#ff91ab" d="M496.92 29.405c8.496 33.922 3.692 78.24-33.74 114.531-33.886 32.853-62.844 30.506-84.06 17.469 14.591-99.05 78.329-125.316 117.8-132z"/><path style="fill:#ffdc9c" d="M490.926 182.151c0 86.128-84.336 123.851-188.369 123.851S114.188 268.28 114.188 182.151 198.523 26.203 302.557 26.203s188.369 69.82 188.369 155.948z"/><path style="opacity:.15;fill:#c17a00;enable-background:new" d="M201.977 50.281c-52.755 27.636-87.789 76.364-87.789 131.87 0 74.038 62.321 112.306 145.904 121.591-119.98-71.667-104.333-168.067-58.115-253.461z"/><path style="fill:#ff91ab" d="M302.557 167.938c-7.41 0-14.067-3.187-18.705-8.253a19.71 19.71 0 0 0-1.085 6.418c0 7.053-4.431 8.607-5.888 9.117-10.314 3.617-15.743 14.911-12.127 25.226 2.857 8.147 10.504 13.246 18.675 13.246 2.173 0 4.384-.361 6.55-1.121 23.867-8.37 32.371-29.493 32.371-46.469 0-2.25-.393-4.403-1.085-6.419-4.639 5.068-11.295 8.255-18.706 8.255z"/><path style="opacity:.1;enable-background:new" d="M283.427 201.396a7.503 7.503 0 0 1-7.076-5.02 7.498 7.498 0 0 1 4.595-9.557c11.495-4.031 13.749-13.836 14.07-19.321a7.495 7.495 0 0 1 7.924-7.048 7.499 7.499 0 0 1 7.048 7.924c-.904 15.44-9.905 27.626-24.08 32.595-.82.29-1.658.427-2.481.427z"/><ellipse style="fill:#ff91ab" cx="210.119" cy="185.783" rx="34.103" ry="27.165"/><ellipse style="fill:#ff91ab" cx="394.992" cy="185.783" rx="34.103" ry="27.165"/><path style="fill:#7694e4" d="M502.69 271.467c-6.239-17.142-27.644-26.332-54.475-25.89-3.003.049-5.785 1.704-7.232 4.336a25.794 25.794 0 0 1-13.828 11.851 25.851 25.851 0 0 1-3.287.955c-1.681.37-3.005 1.619-3.591 3.237-3.3 9.116-10.458 16.76-20.281 20.335-11.188 4.072-23.123 1.886-31.984-4.766-3.343-2.509-8.045-2.07-11.051.837-6.695 6.476-11.909 13.352-15.33 20.263a2.493 2.493 0 0 1-3.035 1.246c-9.225-3.133-21.258-5.536-35.437-5.355-12.762.163-21.558 12.867-17.193 24.861l17.337 47.633c4.365 11.994 19.269 16.072 29.151 7.993 10.979-8.975 18.651-18.55 23.704-26.881a2.491 2.491 0 0 1 3.122-.998c19.319 8.465 48.749 8.124 78.578-2.732 45.272-16.478 74.298-50.918 64.832-76.925z"/><path style="opacity:.1;enable-background:new" d="M319.329 323.57a7.28 7.28 0 0 0-9.33-4.35l-22.556 8.21 4.979 13.68h.001l22.556-8.21a7.28 7.28 0 0 0 4.35-9.33zm9.406 25.845a7.28 7.28 0 0 0-9.33-4.35l-22.556 8.21 4.979 13.68 22.556-8.21a7.278 7.278 0 0 0 4.351-9.33z"/><path style="fill:#7694e4" d="M151.176 294.379c-9.892-10.149-20.094-16.956-28.829-21.264a2.512 2.512 0 0 1-1.276-3.049c3.445-10.214 4.349-22.862 2.633-36.625-.446-3.576-3.721-6.174-7.291-5.671-13.924 1.962-28.075-5.24-34.327-18.646-6.464-13.86-2.416-29.923 8.87-39.212 2.785-2.293 3.072-6.483.754-9.247-19.814-23.625-44.263-35.005-62.499-26.501C4.128 145.861.299 190.738 20.659 234.4c13.411 28.761 33.973 49.809 53.615 57.489a2.51 2.51 0 0 1 1.514 2.936c-2.315 9.461-3.657 21.651-2.242 35.753 1.275 12.699 14.697 20.355 26.265 14.961l45.941-21.423c11.569-5.394 14.333-20.597 5.424-29.737z"/><path style="opacity:.1;enable-background:new" d="M106.772 315.807a7.277 7.277 0 0 0-9.673-3.52 7.279 7.279 0 0 0-3.52 9.673l10.145 21.755 13.194-6.153-10.146-21.755zm35.072 10.132-10.145-21.756a7.278 7.278 0 0 0-9.673-3.52 7.28 7.28 0 0 0-3.521 9.673l10.145 21.756 13.194-6.153z"/><path style="fill:#eda751" d="M432.322 380.414c-11.596 0-21.795-8.427-23.664-20.243-1.053-6.656-3.337-13.851-6.787-21.39-5.513-12.046-.218-26.282 11.83-31.796 12.049-5.512 26.282-.217 31.796 11.83 5.265 11.504 8.814 22.894 10.549 33.857 2.071 13.086-6.858 25.373-19.944 27.442-1.27.203-2.533.3-3.78.3z"/><path d="M509.737 268.903c-4.291-11.789-14.199-20.63-28.122-25.757 11.15-17.657 16.812-38.116 16.812-60.994 0-19.094-3.889-37.674-11.346-55.12 20.716-30.959 26.418-68.992 15.583-105.063A29.817 29.817 0 0 0 477.584.924c-35.953-4.24-71.334 7.007-97.864 30.905-24.067-8.598-50.201-13.124-77.16-13.124-26.96 0-53.094 4.526-77.161 13.124-26.532-23.9-61.913-35.146-97.864-30.906a29.817 29.817 0 0 0-25.081 21.045C91.618 58.04 97.32 96.072 118.037 127.031c-7.458 17.444-11.347 36.025-11.347 55.12 0 13.737 2.042 26.568 6.038 38.412-10.115.376-19.478-5.25-23.842-14.609-4.885-10.477-2.073-22.917 6.84-30.253 2.869-2.362 4.639-5.718 4.983-9.448a14.258 14.258 0 0 0-3.249-10.406c-22.975-27.394-50.338-38.306-71.415-28.478-29.278 13.652-34.628 62.059-12.18 110.201 13.017 27.914 32.87 49.85 53.725 59.605-2.152 10.775-2.673 22.49-1.502 34.152a26.089 26.089 0 0 0 13.038 20.042 26.011 26.011 0 0 0 12.868 3.397c3.748 0 7.503-.807 10.988-2.433l1.621-.756c18.244 12.534 41.848 19.658 65.522 19.658 3.528 0 7.082-.163 10.557-.486 3.47-.321 6.909-.833 10.296-1.489a106.32 106.32 0 0 0 8.141 16.991c-7.111 4.469-13.849 4.796-23.01 1.501-32.754-11.774-69.879-25.119-104.197 2.371a22.344 22.344 0 0 0-8.295 15.084 22.343 22.343 0 0 0 4.802 16.532c3.755 4.689 9.112 7.633 15.083 8.294 5.972.658 11.844-1.045 16.532-4.802 12.551-10.052 26.207-7.603 60.864 4.853 8.979 3.228 17.859 4.865 26.391 4.865 12.96 0 25.288-3.735 36.641-11.104a84.253 84.253 0 0 0 5.731-4.086 118.532 118.532 0 0 0 5.406 3.734c.128 12.753-5.786 31.312-11.147 46.473-5.787 16.37 2.822 34.395 19.193 40.182a31.431 31.431 0 0 0 10.494 1.808c13.316 0 25.247-8.439 29.687-21 6.857-19.395 11.012-34.496 13.115-47.785 2.038.098 4.088.149 6.151.149 16.922 0 33.263-3.293 48.314-9.61a19.409 19.409 0 0 1 2.467 3.018c1.797 2.737 3.296 6.488.802 13.542-5.787 16.368 2.821 34.393 19.189 40.182a31.422 31.422 0 0 0 10.497 1.808c13.226 0 25.13-8.361 29.618-20.807a7.498 7.498 0 0 0-4.509-9.598c-3.892-1.407-8.192.613-9.598 4.509-2.352 6.519-8.585 10.898-15.512 10.898-1.866 0-3.715-.319-5.497-.95-8.572-3.03-13.08-12.471-10.05-21.044 3.572-10.103 2.786-18.859-2.403-26.769a33.058 33.058 0 0 0-1.172-1.67 120.51 120.51 0 0 0 9.335-5.983 115.259 115.259 0 0 0 16.624-14.399 64.4 64.4 0 0 1 6.925 11.281c2.941 6.142 4.797 12.644 5.514 19.332a7.499 7.499 0 1 0 14.912-1.599c-.898-8.384-3.22-16.53-6.9-24.212-2.826-5.9-6.399-11.448-10.653-16.561a109.286 109.286 0 0 0 9.6-15.962c5.714 5.723 13.599 9.187 22.263 9.187 1.648 0 3.313-.132 4.95-.391 8.307-1.314 15.605-5.785 20.551-12.589 4.944-6.804 6.943-15.125 5.629-23.431a119.148 119.148 0 0 0-1.127-5.987c37.207-20.424 56.602-51.353 47.408-76.612zM479.19 111.277c-9.559-16.571-22.539-31.835-38.653-45.175a193.063 193.063 0 0 0-3.316-2.68c18.195-14.616 38.113-21.769 53.903-25.251 3.145 17.426 3.943 44.95-11.934 73.106zm-3.363-95.459a14.824 14.824 0 0 1 11.402 7.859c-18.341 4.127-41.595 12.745-62.535 30.652-9.208-6.147-18.987-11.548-29.231-16.161 22.564-17.688 51.249-25.782 80.364-22.35zm-346.54 0c29.116-3.428 57.799 4.664 80.365 22.351-10.245 4.613-20.023 10.014-29.231 16.161-20.941-17.906-44.193-26.526-62.534-30.653a14.815 14.815 0 0 1 11.4-7.859zm-15.296 22.354c15.79 3.482 35.709 10.635 53.903 25.251a187.289 187.289 0 0 0-3.316 2.679c-16.114 13.34-29.094 28.604-38.653 45.175-15.88-28.155-15.08-55.68-11.934-73.105zm-11.657 297.917-.008.004-5.683 2.649c-3.276 1.528-6.959 1.379-10.103-.41-3.152-1.794-5.169-4.894-5.531-8.504-1.459-14.522.318-26.082 2.065-33.223 1.186-4.853-1.422-9.883-6.068-11.7-18.497-7.232-37.484-27.799-49.55-53.675-18.265-39.169-16.01-80.508 4.926-90.271 3.05-1.423 6.397-2.113 9.95-2.113 13.06 0 28.907 9.336 43.057 25.954-13.558 11.762-17.725 31.133-10.097 47.492 7.396 15.858 23.812 25.02 41.088 23.04 1.42 12.274.589 23.435-2.415 32.336-1.594 4.728.583 9.961 5.065 12.172 6.591 3.25 16.586 9.318 26.775 19.772v.001c2.533 2.598 3.611 6.135 2.959 9.702-.651 3.559-2.903 6.476-6.181 8.004l-40.249 18.77zm76.963 19.728a99.76 99.76 0 0 1-9.174.422c-17.443 0-34.764-4.392-49.226-12.26l28.026-13.068a26.02 26.02 0 0 0 10.187-8.5c3.678.559 7.376.848 11.001.848 2.078 0 4.13-.093 6.141-.28 3.127-.29 6.068-.8 8.798-1.501a104.847 104.847 0 0 0-.635 11.531c0 7.464.803 14.756 2.324 21.809-2.453.433-4.94.767-7.442.999zm9.312-52.05c-2.297 1.742-6.858 3.64-13.744 4.279-3.517.328-7.217.28-10.941-.124.153-6.935-2.464-13.734-7.379-18.776v.001c-8.184-8.396-17.494-15.529-27.133-20.806 1.142-4.312 1.894-8.954 2.292-13.825 14.203 17.145 34.275 30.917 59.772 40.852a104.803 104.803 0 0 0-2.867 8.399zm27.154 107.499c-8.881 5.765-18.461 8.686-28.476 8.686-6.798 0-13.97-1.34-21.318-3.98-33.657-12.098-55.519-18.299-75.314-2.444a7.434 7.434 0 0 1-5.506 1.6 7.452 7.452 0 0 1-5.027-2.764 7.45 7.45 0 0 1-1.601-5.509 7.448 7.448 0 0 1 2.764-5.025c27.768-22.243 57.875-11.421 89.753.038 13.797 4.959 25.354 3.967 36.578-3.283a113.76 113.76 0 0 0 10.253 11.254c-.699.492-1.399.969-2.106 1.427zm53.389 74.691c-2.326 6.581-8.573 11.002-15.547 11.002a16.47 16.47 0 0 1-5.497-.95c-8.573-3.03-13.081-12.471-10.051-21.044 5.035-14.241 10.015-29.872 11.538-43.371a122.994 122.994 0 0 0 31.883 9.964c-1.993 12.184-5.906 26.24-12.326 44.399zm33.405-57.634c-56.875 0-103.146-42.758-103.146-95.314a88.26 88.26 0 0 1 6.238-32.693c7.232 2.256 14.828 4.242 22.794 5.944a7.503 7.503 0 0 0 8.9-5.767 7.498 7.498 0 0 0-5.767-8.899c-34.229-7.312-61.092-19.975-79.842-37.643-19.938-18.787-30.048-42.943-30.048-71.798 0-81.856 81.139-148.449 180.872-148.449s180.871 66.594 180.871 148.449c0 21.78-5.802 40.965-17.24 57.107-5.647-.869-11.696-1.277-18.097-1.179-5.702.095-10.943 3.244-13.68 8.222a18.366 18.366 0 0 1-12.156 9.094c-4.171.919-7.546 3.912-9.028 8.008a26.354 26.354 0 0 1-15.796 15.841c-8.419 3.065-17.733 1.676-24.918-3.717-6.287-4.719-15.018-4.113-20.764 1.444-6.145 5.943-11.107 12.157-14.793 18.519-10.544-3.082-22.14-4.629-33.893-4.474a26.084 26.084 0 0 0-17.543 7.119 366.609 366.609 0 0 1-20.198-1.389c-4.12-.391-7.789 2.611-8.192 6.733a7.498 7.498 0 0 0 6.732 8.193c4.531.443 9.171.798 13.863 1.081a25.994 25.994 0 0 0 1.197 13.186l17.337 47.632a26.06 26.06 0 0 0 17.552 16.187 26.097 26.097 0 0 0 23.393-4.952c9.078-7.422 16.995-16.076 23.09-25.216 11.262 4.06 25.005 5.649 39.726 4.636-14.266 37.987-53.54 64.095-97.464 64.095zm143.133-62.206a16.383 16.383 0 0 1-10.764 6.594c-.864.137-1.741.206-2.604.206-7.751 0-14.308-5.307-16.024-12.77a7.451 7.451 0 0 0-.082-.4c-.051-.248-.112-.492-.152-.745a72.37 72.37 0 0 0-.954-4.851l-.004-.02c-1.355-5.897-3.496-12.085-6.417-18.467-3.784-8.269-.137-18.073 8.13-21.857a16.388 16.388 0 0 1 6.838-1.494c6.256 0 12.252 3.576 15.02 9.625 3.328 7.273 5.912 14.475 7.756 21.527l.024.094c.905 3.469 1.645 6.906 2.18 10.289a16.363 16.363 0 0 1-2.947 12.269zm12.533-35.525a153.95 153.95 0 0 0-5.909-14.897c-7.226-15.786-25.947-22.749-41.734-15.527-15.787 7.225-22.752 25.947-15.528 41.735a93.724 93.724 0 0 1 3.033 7.427c-13.752.849-26.238-.889-35.792-5.074-4.56-2-9.953-.293-12.547 3.976-3.812 6.286-10.73 15.72-22.039 24.964-2.81 2.297-6.427 3.063-9.926 2.103-3.487-.959-6.197-3.457-7.434-6.855l-17.337-47.633c-1.237-3.397-.768-7.053 1.289-10.028 2.062-2.984 5.325-4.724 8.953-4.771 14.607-.171 25.969 2.593 32.931 4.959 4.722 1.601 9.952-.555 12.166-5.021 3.044-6.15 7.695-12.274 13.822-18.2.396-.382.996-.485 1.336-.229 11.251 8.446 25.848 10.62 39.051 5.816a41.3 41.3 0 0 0 24.313-23.634 33.362 33.362 0 0 0 20.679-16.177.928.928 0 0 1 .784-.451c24.353-.397 42.455 7.63 47.304 20.958 6.152 16.884-9.694 40.255-37.415 56.559zm13.461-50.461-1.456-.679.679-1.456a7.498 7.498 0 1 0-13.591-6.339l-.679 1.456-1.456-.679a7.5 7.5 0 0 0-6.339 13.591l1.456.679-.679 1.456a7.498 7.498 0 0 0 3.626 9.965 7.459 7.459 0 0 0 3.164.705 7.503 7.503 0 0 0 6.801-4.331l.679-1.456 1.456.679a7.456 7.456 0 0 0 3.164.705 7.503 7.503 0 0 0 6.801-4.331 7.498 7.498 0 0 0-3.626-9.965zM55.599 171.484l-1.509-.549.549-1.509a7.498 7.498 0 0 0-4.482-9.611 7.5 7.5 0 0 0-9.611 4.481l-.549 1.509-1.509-.549a7.498 7.498 0 1 0-5.13 14.092l1.51.549-.549 1.509a7.498 7.498 0 1 0 14.092 5.129l.549-1.509 1.509.549a7.49 7.49 0 0 0 2.564.454 7.505 7.505 0 0 0 7.047-4.936 7.497 7.497 0 0 0-4.481-9.609zm175.555-37.377c-12.218 0-22.158 9.94-22.158 22.159a7.498 7.498 0 0 0 7.499 7.498 7.497 7.497 0 0 0 7.498-7.498c0-3.949 3.212-7.162 7.161-7.162s7.161 3.212 7.161 7.162c0 4.142 3.357 7.498 7.498 7.498s7.498-3.356 7.498-7.498c0-12.218-9.94-22.159-22.157-22.159zm164.654 47.073c.543 4.106 4.323 6.986 8.416 6.452 8.844-1.172 29.302.326 37.035 2.26a7.555 7.555 0 0 0 1.825.226 7.5 7.5 0 0 0 1.814-14.776c-9.383-2.346-31.745-4.015-42.637-2.577a7.498 7.498 0 0 0-6.453 8.415zm-36.507-17.416a7.498 7.498 0 0 0 7.499-7.498 7.17 7.17 0 0 1 7.162-7.162c3.948 0 7.161 3.212 7.161 7.162 0 4.142 3.356 7.498 7.499 7.498s7.498-3.356 7.498-7.498c0-12.219-9.939-22.159-22.158-22.159-12.219 0-22.159 9.94-22.159 22.159a7.497 7.497 0 0 0 7.498 7.498zm-56.744 11.672a32.87 32.87 0 0 0 24.782-11.287 7.498 7.498 0 1 0-11.307-9.853c-3.402 3.904-8.314 6.144-13.476 6.144s-10.074-2.239-13.477-6.144a7.502 7.502 0 0 0-10.58-.727 7.5 7.5 0 0 0-.727 10.58 32.877 32.877 0 0 0 24.785 11.287zm134.122 41.561c-7.782-5.745-27.821-15.81-38.439-18.629a7.499 7.499 0 0 0-3.847 14.495c8.619 2.289 26.967 11.466 33.38 16.2a7.49 7.49 0 0 0 10.486-1.579 7.498 7.498 0 0 0-1.58-10.487zm-229.807-18.629c-10.618 2.818-30.656 12.884-38.438 18.629a7.499 7.499 0 1 0 8.905 12.065c6.415-4.733 24.761-13.911 33.381-16.2a7.499 7.499 0 1 0-3.848-14.494zm-5.982-10.736c4.105.549 7.873-2.346 8.416-6.452a7.5 7.5 0 0 0-6.452-8.416c-10.891-1.436-33.253.233-42.637 2.577a7.499 7.499 0 0 0-5.456 9.094 7.503 7.503 0 0 0 7.269 5.682c.602 0 1.214-.073 1.825-.226 7.732-1.932 28.19-3.429 37.035-2.259z"/></svg>