<svg xmlns="http://www.w3.org/2000/svg" viewBox="0 0 511.998 511.998" style="enable-background:new 0 0 511.998 511.998" xml:space="preserve"><path style="fill:#eda751" d="M374.825 420.007c-35.262 0-53.802-22.7-73.282-46.546l-.278-.34c-5.249-6.425-4.296-15.89 2.13-21.14 6.427-5.251 15.89-4.296 21.14 2.13l.278.34c21.666 26.523 32.541 39.831 62.379 34.261 16.523-3.088 21.911-9.443 29.37-18.239 7.847-9.254 17.614-20.771 39.278-25.246 8.118-1.686 16.075 3.548 17.752 11.674 1.678 8.126-3.548 16.074-11.674 17.752-11.523 2.38-15.866 7.501-22.438 15.254-8.8 10.377-19.752 23.292-46.769 28.341-6.415 1.201-12.36 1.759-17.886 1.759z"/><path style="fill:#fcd79d" d="M473.592 356.903c-1.677-8.126-9.634-13.36-17.752-11.674-6.256 1.292-11.515 3.174-16.028 5.416.715 7.819 4.682 20 11.435 27.99 2.85-1.73 6.222-3.062 10.671-3.981 8.126-1.678 13.353-9.625 11.674-17.751z"/><path style="fill:#eda751" d="M113.085 367.342c-21.966 0-44.437-8.053-65.237-23.424-10.678-7.89-12.937-22.941-5.047-33.618 7.891-10.679 22.944-12.937 33.618-5.047 18.034 13.326 44.963 23.87 70.851-1.575 9.468-9.306 24.688-9.174 33.994.293 9.307 9.469 9.175 24.687-.293 33.994-18.46 18.144-40.588 28.271-63.995 29.293a90.122 90.122 0 0 1-3.891.084zM209.331 504.499c-11.687 0-21.933-8.536-23.737-20.441-5.141-33.94-1.525-70.147 4.011-89.427 3.666-12.76 16.973-20.133 29.739-16.471 12.76 3.665 20.134 16.979 16.471 29.739-3.324 11.576-6.992 40.534-2.687 68.959 1.988 13.126-7.041 25.378-20.167 27.366-1.22.185-2.434.275-3.63.275zM291.455 504.499c-11.687 0-21.933-8.536-23.737-20.441-5.141-33.94-1.525-70.147 4.011-89.427 3.665-12.76 16.974-20.133 29.739-16.471 12.76 3.665 20.134 16.979 16.471 29.739-3.324 11.576-6.992 40.534-2.687 68.959 1.988 13.126-7.042 25.378-20.167 27.366-1.22.185-2.434.275-3.63.275z"/><path style="opacity:.2;fill:#a35f00;enable-background:new" d="M147.27 303.677c-8.555 8.408-17.221 12.869-25.644 14.616a115.732 115.732 0 0 0-1.02 15.342c0 11.377 1.666 22.393 4.77 32.852 20.285-2.815 39.361-12.565 55.596-28.522 9.469-9.307 9.6-24.525.293-33.994-9.307-9.467-24.527-9.599-33.995-.294zM219.343 378.159c-12.767-3.662-26.073 3.712-29.739 16.471-3.027 10.544-5.476 26.153-6.237 43.682 14.376 8.221 30.571 13.899 47.872 16.369-.51-20.256 2.124-38.247 4.576-46.783 3.662-12.761-3.712-26.075-16.472-29.739zM301.467 378.159c-12.766-3.662-26.074 3.712-29.739 16.471-3.979 13.86-6.967 36.466-6.422 60.689 17.294-1.797 33.577-6.785 48.168-14.326.595-14.433 2.584-26.547 4.465-33.096 3.662-12.76-3.712-26.074-16.472-29.738z"/><path style="opacity:.2;fill:#a35f00;enable-background:new" d="M366.937 389.26c-16.09-2.962-26.194-15.307-42.125-34.808l-.278-.34c-5.25-6.426-14.713-7.382-21.14-2.13-6.426 5.25-7.379 14.716-2.13 21.14l.278.34c13.901 17.016 27.327 33.442 46.689 41.459 7.328-7.742 13.635-16.356 18.706-25.661z"/><ellipse style="fill:#fcd690" cx="250.893" cy="333.631" rx="110.867" ry="103.027"/><path style="opacity:.15;fill:#c17a00;enable-background:new" d="M234.701 435.563c-50.666-33.264-34.963-101.439-26.362-131.255v-65.831c-40.113 15.507-68.319 52.27-68.319 95.159-.001 51.786 41.123 94.644 94.681 101.927z"/><path style="fill:#eda751" d="M183.418 154.99c21.695-18.205 36.18-48.765 5.579-93.941C158.154 15.517 112.235 4.103 76.384 8.327a22.417 22.417 0 0 0-18.815 15.788c-10.385 34.572-7.119 81.777 32.367 120.058 39.176 37.979 71.787 29.021 93.482 10.817z"/><path style="fill:#ff91ab" d="M56.126 29.404c-8.514 33.992-3.7 78.402 33.809 114.767 33.956 32.921 62.974 30.568 84.234 17.506C159.548 62.422 95.68 36.102 56.126 29.404z"/><path style="fill:#eda751" d="M318.363 154.99c-21.695-18.205-36.18-48.765-5.579-93.941 30.843-45.533 76.763-56.947 112.613-52.723a22.417 22.417 0 0 1 18.815 15.788c10.385 34.572 7.119 81.777-32.367 120.058-39.175 37.98-71.786 29.022-93.482 10.818z"/><path style="fill:#ff91ab" d="M445.655 29.404c8.514 33.992 3.7 78.402-33.809 114.767-33.956 32.921-62.974 30.568-84.234 17.506 14.621-99.255 78.49-125.575 118.043-132.273z"/><path style="fill:#ffdc9c" d="M439.649 182.466c0 86.306-84.51 124.106-188.758 124.106S62.133 268.771 62.133 182.466s84.51-156.27 188.758-156.27 188.758 69.965 188.758 156.27z"/><path style="opacity:.15;fill:#c17a00;enable-background:new" d="M150.104 50.324c-52.865 27.693-87.971 76.521-87.971 132.143 0 74.191 62.45 112.538 146.205 121.842C88.11 232.493 103.79 135.895 150.104 50.324z"/><ellipse style="fill:#ff91ab" cx="134.316" cy="186.104" rx="34.179" ry="27.219"/><ellipse style="fill:#ff91ab" cx="319.561" cy="186.104" rx="34.179" ry="27.219"/><path style="fill:#ff91ab" d="M225.796 208.149c-12.743-.6-22.545-11.577-22.545-24.332v-19.208c0-3.544 1.589-6.928 4.383-9.11 5.326-4.159 12.026-6.64 19.308-6.64s13.982 2.481 19.308 6.64c2.794 2.181 4.383 5.565 4.383 9.11v19.876c-.002 13.464-11.233 24.304-24.837 23.664z"/><path style="fill:#7694e4" d="m427.152 257.637-52.197-5.74c-11.651-1.281-20.057-11.765-18.777-23.416l11.795-107.264c1.281-11.651 11.765-20.057 23.416-18.777l52.197 5.74c11.651 1.281 20.058 11.765 18.777 23.415l-11.795 107.264c-1.282 11.653-11.766 20.058-23.416 18.778z"/><circle style="opacity:.1;enable-background:new" cx="392.949" cy="129.786" r="8.839"/><circle style="fill:#fff" cx="410.469" cy="169.105" r="15.06"/><path transform="rotate(-173.72 404.936 219.434)" style="opacity:.1;enable-background:new" d="M357.456 211.933h94.957v14.999h-94.957z"/><path style="fill:#eda751" d="M338.839 344.864c-11.153 0-21.154-7.806-23.511-19.157-2.7-12.998 5.651-25.723 18.65-28.422 32.2-6.686 48.51-26.886 51.325-63.574 1.016-13.237 12.575-23.149 25.807-22.128 13.238 1.016 23.143 12.571 22.128 25.807-4.445 57.921-36.226 95.91-89.488 106.967a24.148 24.148 0 0 1-4.911.507z"/><path d="M226.964 215.676c8.057 0 15.645-3.03 21.504-8.621 6.231-5.944 9.663-13.96 9.663-22.569V164.61c0-5.853-2.717-11.468-7.267-15.02-6.894-5.383-15.167-8.229-23.924-8.229s-17.029 2.845-23.925 8.229c-4.55 3.554-7.266 9.168-7.266 15.02v19.208c0 17.063 13.043 31.04 29.692 31.824.511.022 1.017.034 1.523.034zm-16.215-31.86v-19.208c0-1.27.561-2.465 1.498-3.198 4.232-3.304 9.313-5.051 14.693-5.051 5.381 0 10.461 1.746 14.692 5.051.939.733 1.499 1.929 1.499 3.198v19.876c0 4.47-1.782 8.631-5.018 11.718-3.232 3.084-7.458 4.66-11.967 4.455v-.001c-8.488-.399-15.397-7.954-15.397-16.84zm270.188 171.571a22.377 22.377 0 0 0-9.694-14.273c-5.029-3.304-11.042-4.449-16.919-3.23-24.199 4.998-35.345 18.144-43.481 27.74-7.174 8.459-11.125 13.118-25.027 15.716-12.526 2.339-20.323.815-26.734-2.772a104.134 104.134 0 0 0 9.586-33.873c17.565-7.05 32.276-17.56 43.885-31.436 11.365-13.584 19.398-29.967 24.031-48.902 11.318-2.931 20.121-12.703 21.438-24.677l11.795-107.264c.839-7.626-1.343-15.123-6.143-21.107-3.815-4.758-8.924-8.102-14.689-9.697 12.629-33.584 7.152-63.861 2.408-79.655A29.865 29.865 0 0 0 426.273.88c-36.039-4.249-71.52 7.036-98.11 31.014-24.287-8.666-50.59-13.197-77.274-13.197-27.016 0-53.206 4.536-77.323 13.154C146.985 7.901 111.524-3.363 75.506.878a29.863 29.863 0 0 0-25.118 21.077C39.53 58.101 45.244 96.211 66.005 127.23c-7.475 17.482-11.372 36.1-11.372 55.235 0 34.766 12.797 63.63 38.035 85.792 11.507 10.104 25.607 18.716 41.912 25.598 1.649.696 3.335 1.366 5.031 2.028a104.681 104.681 0 0 0-2.331 6.621c-16.62 13.2-35.587 12.098-56.404-3.284-6.774-5.007-15.097-7.077-23.423-5.825-8.332 1.251-15.678 5.671-20.684 12.446-5.007 6.775-7.075 15.095-5.824 23.425 1.251 8.331 5.671 15.676 12.446 20.681 22.036 16.286 46.137 24.894 69.694 24.894 1.401 0 2.82-.031 4.217-.092a96.76 96.76 0 0 0 22.239-3.611c7.527 19.424 20.727 36.33 37.722 48.972-1.626 14.326-3.09 38.621.916 65.068 2.315 15.29 15.709 26.818 31.152 26.818 1.579 0 3.178-.121 4.752-.359 17.194-2.604 29.063-18.712 26.459-35.905-1.786-11.795-2.047-23.134-1.778-32.15 3.988.381 8.033.576 12.126.576 2.327 0 4.637-.07 6.932-.195-.298 14.264.532 28.362 2.48 41.215 2.315 15.29 15.709 26.818 31.152 26.818 1.579 0 3.178-.121 4.752-.359 11.999-1.817 21.719-10.14 25.367-21.719a7.5 7.5 0 1 0-14.306-4.508c-1.915 6.076-7.014 10.443-13.307 11.396-.833.127-1.677.19-2.507.19-8.091 0-15.108-6.047-16.323-14.065-1.913-12.629-2.69-26.578-2.28-40.683l.059-.011c11.94-2.1 23.26-5.876 33.666-11.063a213.656 213.656 0 0 0-.676 25.062c.132 4.142 3.621 7.435 7.734 7.258a7.5 7.5 0 0 0 7.258-7.734c-.365-11.474.336-23.799 1.927-34.349a117.258 117.258 0 0 0 8.844-6.984c13.08 8.785 27.258 13.076 43.161 13.076 6.09 0 12.572-.635 19.265-1.886 29.635-5.538 42.047-20.174 51.111-30.862 6.347-7.486 9.243-10.902 18.235-12.76a22.373 22.373 0 0 0 14.263-9.683 22.346 22.346 0 0 0 3.24-16.925zm-364.29 4.378c-21.43.942-43.772-6.678-64.342-21.879a16.43 16.43 0 0 1-6.527-10.846 16.43 16.43 0 0 1 3.055-12.283 16.426 16.426 0 0 1 10.848-6.527c4.37-.655 8.729.429 12.282 3.055 21.087 15.582 42.261 19.303 61.16 11.138a105.16 105.16 0 0 0-.603 11.213c0 7.941.909 15.686 2.622 23.156a81.888 81.888 0 0 1-18.495 2.973zm335.326-239.073a13.638 13.638 0 0 1 2.935 10.086l-11.796 107.264c-.302 2.751-1.44 5.252-3.13 7.27.286-2.419.543-4.86.734-7.348 1.331-17.34-11.693-32.528-29.028-33.858-8.4-.656-16.547 2.017-22.943 7.502-6.396 5.484-10.273 13.131-10.918 21.529-.309 4.02-.788 7.805-1.436 11.373l-.616-.068a13.625 13.625 0 0 1-9.206-5.057 13.637 13.637 0 0 1-2.935-10.086l11.795-107.264a13.625 13.625 0 0 1 5.057-9.206 13.632 13.632 0 0 1 10.086-2.935l46.913 5.158.072.008 5.211.573a13.64 13.64 0 0 1 9.205 5.059zM433.68 99.546l-14.664-1.612c-9.181-12.696-20.365-24.288-33.213-34.437 18.257-14.673 38.248-21.843 54.086-25.33 2.845 15.497 3.592 37.639-6.209 61.379zm-9.16-83.771a14.872 14.872 0 0 1 11.445 7.9c-18.389 4.136-41.71 12.778-62.706 30.743a201.645 201.645 0 0 0-22.936-13.2 209.805 209.805 0 0 0-6.402-2.997c22.62-17.757 51.387-25.885 80.599-22.446zm-347.259 0c29.188-3.433 57.943 4.68 80.561 22.414-10.276 4.626-20.084 10.043-29.32 16.21-20.99-17.954-44.301-26.59-62.682-30.724a14.861 14.861 0 0 1 11.441-7.9zM61.925 38.173c15.83 3.489 35.804 10.66 54.049 25.32a188.057 188.057 0 0 0-3.338 2.697c-16.153 13.372-29.162 28.673-38.742 45.285-15.931-28.234-15.126-55.836-11.969-73.302zm149.913 458.636c-.833.127-1.677.19-2.507.19-8.091 0-15.108-6.047-16.323-14.065-2.511-16.579-3.032-35.628-1.557-53.752a122.568 122.568 0 0 0 32.385 12.061c-.385 10.012-.197 23.059 1.875 36.736 1.368 9.018-4.857 17.464-13.873 18.83zm114.274-97.64c-.18.161-.354.331-.521.511a101.892 101.892 0 0 1-13.733 11.105c-.042.027-.089.046-.131.075-12.958 8.735-28.042 14.581-43.809 17.005l-.186.027a112.635 112.635 0 0 1-16.843 1.27c-57 0-103.372-42.853-103.372-95.526a88.553 88.553 0 0 1 3.431-24.511c.048-.151.094-.302.133-.455a89.495 89.495 0 0 1 2.697-7.825c10.356 3.236 21.41 5.909 33.074 7.968a7.504 7.504 0 0 0 8.69-6.082 7.499 7.499 0 0 0-6.082-8.689c-13.375-2.361-25.708-5.502-36.997-9.382a7.355 7.355 0 0 0-1.023-.342c-19.598-6.852-35.961-15.988-48.877-27.328-21.853-19.188-32.933-44.261-32.933-74.52 0-82.032 81.312-148.77 181.259-148.77 58.516 0 113.245 23.38 147.113 61.927l-5.796-.637c-15.738-1.732-29.959 9.668-31.69 25.411l-5.831 53.029c-9.581-.913-20.812-1.282-27.836-.353a7.5 7.5 0 0 0 1.965 14.871c5.467-.723 15.559-.401 24.23.401l-2.471 22.469c-9.119-4.961-20.636-10.195-27.757-12.085a7.5 7.5 0 0 0-3.85 14.498c7.27 1.93 21.711 8.894 29.819 13.84l-.065.594c-.839 7.626 1.343 15.122 6.143 21.107 4.407 5.497 10.54 9.108 17.419 10.312-5.053 12.498-13.438 21.119-25.626 26.446-27.265 8.986-59.48 13.546-95.767 13.546-9.263 0-18.419-.309-27.213-.917a7.495 7.495 0 0 0-8 6.965 7.501 7.501 0 0 0 6.965 8c9.138.632 18.643.952 28.248.952 20.759 0 40.282-1.455 58.436-4.322a31.683 31.683 0 0 0-1.838 7.806 7.499 7.499 0 0 0 6.686 8.234 7.499 7.499 0 0 0 8.234-6.686c.746-7.188 6.008-13.007 13.094-14.478 6.077-1.262 11.651-2.994 16.751-5.181.081-.034.162-.067.241-.103 18.919-8.191 31.123-22.819 36.87-44.247a7.46 7.46 0 0 0 .268-1.064c1.548-6.053 2.602-12.626 3.148-19.747a16.44 16.44 0 0 1 5.727-11.292c3.353-2.876 7.614-4.283 12.029-3.933 9.092.697 15.922 8.662 15.225 17.755-.512 6.667-1.402 13.045-2.656 19.133a7.547 7.547 0 0 0-.132.643c-3.905 18.506-11.243 34.275-21.925 47.043-10.756 12.858-24.706 22.409-41.602 28.532-.21.063-.415.133-.617.213a125.577 125.577 0 0 1-16.607 4.635c-2.809.582-5.72.431-8.429-.447a7.5 7.5 0 0 0-4.619 14.271 31.338 31.338 0 0 0 9.664 1.525c2.153 0 4.319-.224 6.436-.663 2.546-.529 5.03-1.135 7.485-1.779-1.78 9.604-5.104 18.7-9.724 27.073-.168.261-.317.53-.449.804-4.42 7.828-9.981 15.011-16.473 21.368zm139.054-35.094a7.475 7.475 0 0 1-4.765 3.235c-14.056 2.902-19.888 9.782-26.642 17.749-8.451 9.965-18.029 21.259-42.426 25.818-5.787 1.081-11.342 1.63-16.51 1.63-11.969 0-22.406-2.855-32.289-8.905a111.03 111.03 0 0 0 9.16-11.984c10.54 5.92 22.011 7.241 36.875 4.467 19.143-3.577 25.894-11.54 33.713-20.759 7.472-8.813 15.939-18.801 35.082-22.753a7.438 7.438 0 0 1 5.642 1.078 7.476 7.476 0 0 1 3.241 4.771 7.457 7.457 0 0 1-1.081 5.653zm-340.1-176.132a7.501 7.501 0 0 0 1.965-14.871c-10.917-1.443-33.319.233-42.721 2.583a7.5 7.5 0 0 0 3.639 14.553c7.747-1.937 28.254-3.435 37.117-2.265zm174.582-21.488a7.5 7.5 0 0 0 7.5-7.5v-12.069c0-4.143-3.357-7.5-7.5-7.5a7.499 7.499 0 0 0-7.5 7.5v12.069c0 4.143 3.357 7.5 7.5 7.5zm-145.414-27.068a7.499 7.499 0 0 0-7.5 7.5v12.069c0 4.142 3.357 7.5 7.5 7.5s7.5-3.358 7.5-7.5v-12.069a7.5 7.5 0 0 0-7.5-7.5zm-23.172 59.343c-10.637 2.824-30.714 12.91-38.513 18.666a7.5 7.5 0 0 0 8.908 12.068c6.429-4.745 24.815-13.943 33.454-16.236a7.5 7.5 0 0 0-3.849-14.498z"/></svg>