<svg xmlns="http://www.w3.org/2000/svg" viewBox="0 0 512.001 512.001" style="enable-background:new 0 0 512.001 512.001" xml:space="preserve"><path style="fill:#eda751" d="M389.838 471.824c-3.05 0-6.145-.714-9.036-2.223-32.555-16.979-46.391-32.745-61.685-70.286-4.079-10.012.73-21.435 10.742-25.513 10.013-4.077 21.435.731 25.513 10.743 11.894 29.193 19.217 37.663 43.535 50.346 9.585 4.999 13.303 16.822 8.304 26.408-3.492 6.693-10.312 10.525-17.373 10.525z"/><path style="opacity:.2;fill:#a35f00;enable-background:new" d="M355.372 384.544c-4.078-10.012-15.5-14.82-25.513-10.743-10.012 4.079-14.822 15.502-10.742 25.513 11.622 28.529 22.411 44.479 41.204 57.946 7.203-11.995 11.939-25.47 13.55-39.81-7.065-7.577-12.128-17.267-18.499-32.906z"/><path style="fill:#eda751" d="M382.451 501.924a19.514 19.514 0 0 1-13.954-5.846c-10.423-10.593-36.296-16.602-49.495-8.466-9.201 5.673-21.26 2.812-26.934-6.392-5.673-9.203-2.811-21.262 6.392-26.935 30.757-18.959 76.301-7.66 97.942 14.336 7.582 7.706 7.482 20.099-.224 27.682a19.51 19.51 0 0 1-13.727 5.621zM164.17 491.729c-3.135 0-6.314-.172-9.526-.517-17.463-1.876-34.302-8.785-47.411-19.453-14.85-12.085-23.738-27.784-25.702-45.401-.748-6.715 4.088-12.766 10.803-13.514 6.698-.755 12.767 4.087 13.514 10.803 2.115 18.968 20.453 39.91 51.41 43.236 9.111.978 39.629 1.828 49.798-28.345 2.158-6.402 9.095-9.844 15.501-7.686 6.403 2.158 9.844 9.098 7.687 15.501-5.555 16.479-16.283 29.302-31.024 37.083-10.377 5.479-22.348 8.293-35.05 8.293z"/><path style="fill:#fcd79d" d="M108.324 433.388c-1.278-3.24-2.117-6.518-2.476-9.741-.747-6.716-6.816-11.559-13.514-10.803-6.715.748-11.552 6.799-10.803 13.514a64.764 64.764 0 0 0 2.944 13.36c5.863-.193 15.216-1.328 23.849-6.33z"/><path style="opacity:.2;fill:#a35f00;enable-background:new" d="M298.461 454.284c-9.203 5.673-12.065 17.732-6.392 26.935 5.675 9.204 17.733 12.065 26.934 6.392 6.105-3.763 14.921-4.495 23.666-3.152 10.899-9.297 19.809-20.622 26.063-33.335-22.28-8.644-49.609-9.576-70.271 3.16z"/><ellipse style="fill:#fcd690" cx="268.991" cy="407.77" rx="90.28" ry="83.89"/><path style="opacity:.15;fill:#c17a00;enable-background:new" d="M255.808 490.775c-41.258-27.087-28.471-82.604-21.467-106.883v-53.608c-32.665 12.627-55.633 42.564-55.633 77.489-.001 42.171 33.487 77.071 77.1 83.002z"/><path style="fill:#eda751" d="M214.048 262.299c17.667-14.824 29.462-39.71 4.543-76.497-25.116-37.078-62.51-46.372-91.703-42.933a18.256 18.256 0 0 0-15.321 12.856c-8.456 28.153-5.797 66.592 26.357 97.765 31.902 30.928 58.458 23.633 76.124 8.809z"/><path style="fill:#ff91ab" d="M110.392 160.032c-6.933 27.68-3.013 63.844 27.532 93.457 27.651 26.808 51.281 24.892 68.593 14.255-11.906-80.824-63.916-102.257-96.125-107.712z"/><path style="fill:#eda751" d="M323.937 262.299c-17.667-14.824-29.462-39.71-4.543-76.497 25.116-37.078 62.51-46.372 91.703-42.933a18.256 18.256 0 0 1 15.321 12.856c8.456 28.153 5.797 66.592-26.357 97.765-31.902 30.928-58.458 23.633-76.124 8.809z"/><path style="fill:#ff91ab" d="M427.593 160.032c6.933 27.68 3.013 63.844-27.532 93.457-27.651 26.808-51.281 24.892-68.593 14.255 11.906-80.824 63.916-102.257 96.125-107.712z"/><path style="fill:#ffdc9c" d="M422.702 284.673c0 70.28-68.818 101.062-153.709 101.062s-153.709-30.782-153.709-101.062 68.818-127.254 153.709-127.254 153.709 56.974 153.709 127.254z"/><path style="opacity:.15;fill:#c17a00;enable-background:new" d="M186.919 177.067c-43.048 22.551-71.636 62.312-71.636 107.606 0 60.415 50.855 91.642 119.058 99.218-97.904-58.48-85.135-137.142-47.422-206.824z"/><ellipse style="fill:#ff91ab" cx="199.761" cy="265.06" rx="27.831" ry="22.16"/><ellipse style="fill:#ff91ab" cx="350.611" cy="265.06" rx="27.831" ry="22.16"/><path style="fill:#dee2e5" d="M308.46 7.501a56.88 56.88 0 0 0-33.704 10.815c-1.029.744-2.333.964-3.564.652a29.1 29.1 0 0 0-7.156-.892c-10.397 0-19.519 5.449-24.675 13.644-.53.843-1.421 1.405-2.415 1.474-24.097 1.681-43.125 21.75-43.125 46.274 0 24.318 18.711 44.255 42.52 46.227 1.998.166 3.843 1.118 5.228 2.568 6.031 6.312 14.526 10.248 23.945 10.248 11.291 0 21.256-5.652 27.235-14.278 1.581-2.281 4.317-3.422 7.062-3.014a56.95 56.95 0 0 0 8.385.623c32.021 0 57.893-26.324 57.156-58.512-.702-30.77-26.113-55.691-56.892-55.829z"/><circle style="fill:#fff" cx="234.541" cy="73.14" r="11.779"/><circle style="fill:#fff" cx="280.501" cy="73.14" r="11.779"/><circle style="fill:#fff" cx="326.461" cy="73.14" r="11.779"/><path style="fill:#eda751" d="M200.426 429.061c-7.105 0-14.31-1.337-21.286-4.073-10.064-3.948-15.021-15.308-11.073-25.372 3.948-10.065 15.307-15.021 25.372-11.074 7.952 3.12 14.968.25 18.881-3.477 2.898-2.759 7.263-8.861 3.941-18.725-3.45-10.245 2.058-21.348 12.303-24.799 10.249-3.449 21.35 2.059 24.799 12.303 7.267 21.578 1.885 44.404-14.046 59.573-10.775 10.259-24.63 15.644-38.891 15.644zM310.673 504.5a19.48 19.48 0 0 1-10.799-3.262c-11.119-7.372-27.216-10.256-57.33-10.256-.158 0-.295.008-.471 0-10.803 0-19.564-8.751-19.575-19.556-.01-10.811 8.746-19.583 19.557-19.593h.517c32.216 0 57.983 2.885 78.935 16.777 9.01 5.974 11.471 18.121 5.498 27.131-3.767 5.681-9.99 8.759-16.332 8.759z"/><path style="opacity:.15;fill:#c18f00;enable-background:new" d="M310.673 504.5a19.48 19.48 0 0 1-10.799-3.262c-11.119-7.372-27.216-10.256-57.33-10.256-.158 0-.295.008-.471 0-10.803 0-19.564-8.751-19.575-19.556-.01-10.811 8.746-19.583 19.557-19.593h.517c32.216 0 57.983 2.885 78.935 16.777 9.01 5.974 11.471 18.121 5.498 27.131-3.767 5.681-9.99 8.759-16.332 8.759z"/><path d="M391.673 255.205c-7.77-1.943-26.29-3.325-35.309-2.133a7.5 7.5 0 0 0-6.453 8.418c.543 4.107 4.327 6.992 8.418 6.453 6.951-.92 23.639.297 29.705 1.814a7.506 7.506 0 0 0 1.825.226 7.504 7.504 0 0 0 7.27-5.683 7.499 7.499 0 0 0-5.456-9.095zm-6.219 34.219c-6.442-4.755-23.036-13.09-31.832-15.425a7.501 7.501 0 0 0-3.85 14.498c6.775 1.799 21.742 9.282 26.773 12.996a7.467 7.467 0 0 0 4.448 1.466 7.5 7.5 0 0 0 4.461-13.535zm44.748-4.751c0-15.676-3.23-30.732-9.145-44.737 16.849-25.512 21.444-56.74 12.543-86.37a25.713 25.713 0 0 0-21.627-18.147c-29.484-3.471-58.51 5.644-80.392 25.072-19.253-6.806-40.404-10.572-62.588-10.572-21.869 0-43.081 3.624-62.653 10.515-21.874-19.391-50.874-28.489-80.329-25.015a25.707 25.707 0 0 0-21.625 18.146c-8.89 29.594-4.318 60.783 12.48 86.276-5.966 14.204-9.082 29.309-9.082 44.831 0 28.337 10.305 51.949 30.628 70.179 10.385 9.316 23.16 16.993 38.171 22.99a86.939 86.939 0 0 0-1.459 4.28c-6.202 2.809-11.363 7.932-14.039 14.756-5.189 13.225.787 28.113 13.353 34.223 2.357 8.37 5.957 16.313 10.644 23.625-10.54 5.847-22.975 5.136-27.023 4.702-27.027-2.904-42.975-20.616-44.758-36.608A19.606 19.606 0 0 0 106 409.582c-4.123-3.292-9.273-4.783-14.498-4.191-10.813 1.205-18.631 10.984-17.427 21.799 2.188 19.612 12.017 37.036 28.424 50.387 14.221 11.573 32.455 19.064 51.343 21.093 3.455.371 6.93.56 10.328.56 13.869 0 27.199-3.167 38.55-9.158a70.968 70.968 0 0 0 10.796-7.03 99.194 99.194 0 0 0 6.285 3.732c4.869 7.033 12.973 11.665 22.141 11.709.21.007.401.005.602 0 28.128 0 43.537 2.609 53.186 9.006a26.948 26.948 0 0 0 14.939 4.512h.004a27.03 27.03 0 0 0 22.583-12.115 27.09 27.09 0 0 0 3.733-8.468c9.862.537 20.852 4.525 26.161 9.921 5.131 5.215 11.984 8.086 19.3 8.086a26.923 26.923 0 0 0 18.989-7.775c7.923-7.796 10.019-19.31 6.252-29.076 2.503-2.195 4.616-4.831 6.169-7.807 6.901-13.236 1.749-29.622-11.486-36.525-22.029-11.489-28.26-18.389-38.587-42.978a85.67 85.67 0 0 0-2.39-7.445c44.568-17.863 68.805-50.35 68.805-93.146zm-17.197-60.511c-8.193-13.569-19.05-25.827-31.994-36.296 13.763-10.678 28.628-16.183 40.741-19.01 2.239 13.617 2.473 34.143-8.747 55.306zm-2.787-73.846a10.716 10.716 0 0 1 7.264 4.137c-14.606 3.513-32.613 10.486-49.002 24.258-6.639-4.365-13.703-8.296-21.12-11.76 24.808-18.568 51.639-17.954 62.858-16.635zm-282.453.001c11.208-1.321 37.983-1.932 62.761 16.562a166.001 166.001 0 0 0-21.098 11.769c-16.368-13.729-34.342-20.686-48.926-24.194a10.712 10.712 0 0 1 7.263-4.137zm-11.531 18.539c12.09 2.822 26.921 8.311 40.662 18.948-.458.371-.921.735-1.375 1.111-12.589 10.422-22.862 22.271-30.611 35.116-11.149-21.116-10.911-41.586-8.676-55.175zm67.249 249.738c-.056-.022-.114-.042-.17-.062-.479-.172-.958-.339-1.435-.526-6.198-2.432-9.262-9.453-6.83-15.651 1.865-4.755 6.431-7.665 11.255-7.665 1.464 0 2.952.269 4.396.835 11.234 4.406 21.207.293 26.792-5.028a24.771 24.771 0 0 0 4.283-5.45 7.66 7.66 0 0 0 .308-.546l.046-.085.03-.057c2.516-4.682 4.203-11.525 1.21-20.412-2.125-6.31 1.279-13.172 7.588-15.297 6.313-2.127 13.174 1.28 15.299 7.589 6.326 18.783 1.686 38.612-12.11 51.747-9.193 8.753-21.168 13.574-33.718 13.575-5.736 0-11.426-1.005-16.944-2.967zm12.235 58.212c-11.506 6.073-25.673 8.52-40.273 6.95-16.038-1.723-31.479-8.049-43.479-17.814-13.293-10.817-21.24-24.792-22.982-40.414a4.743 4.743 0 0 1 4.189-5.231 4.675 4.675 0 0 1 3.466 1.006 4.707 4.707 0 0 1 1.754 3.176c1.306 11.703 7.437 23.128 17.266 32.172 10.712 9.856 24.819 15.974 40.799 17.69 7.054.757 23.506 1.268 37.812-7.608a94.192 94.192 0 0 0 6.817 6.81c-1.73 1.178-3.512 2.283-5.369 3.263zm125.036 14.79A12.064 12.064 0 0 1 310.672 497h-.001c-2.365 0-4.666-.696-6.652-2.013-12.487-8.279-29.724-11.505-61.498-11.505l-.237.003a7.3 7.3 0 0 0-.21-.003c-6.651 0-12.068-5.412-12.075-12.063a11.997 11.997 0 0 1 3.528-8.541 11.993 11.993 0 0 1 8.528-3.545l.518-.001c30.835 0 55.353 2.641 74.79 15.527a11.998 11.998 0 0 1 5.162 7.666c.108.533.167 1.068.203 1.601 0 .039.005.079.006.118a11.97 11.97 0 0 1-1.98 7.352zm70.166-.64a12.008 12.008 0 0 1-8.469 3.468 11.986 11.986 0 0 1-8.607-3.606c-8.258-8.393-23.429-14.051-37.466-14.439a26.9 26.9 0 0 0-.66-1.796c6.92-6.03 12.795-12.88 17.51-20.332 14.95 3.339 28.829 10.482 37.829 19.63 4.669 4.745 4.608 12.406-.137 17.075zm-24.978-71.241c7.11 8.586 15.95 14.76 29.495 21.825 5.903 3.079 8.201 10.387 5.124 16.289a12.044 12.044 0 0 1-1.863 2.636c-10.086-9.082-23.57-16.061-38.382-19.933a86.262 86.262 0 0 0 5.626-20.817zm-17.037-53.234-.02.007a178.727 178.727 0 0 1-12.443 3.793 7.5 7.5 0 1 0 3.858 14.496 199.708 199.708 0 0 0 6.919-1.991c3.01 8.004 4.558 16.378 4.558 24.987 0 12.147-3.095 23.897-8.863 34.431-.06.108-.125.212-.18.323-4.153 7.496-9.666 14.368-16.383 20.32-.232-.164-.462-.331-.7-.489-22.564-14.96-49.53-18.025-83.079-18.025l-.524.001c-7.233.007-14.028 2.83-19.138 7.948-3.827 3.834-6.363 8.612-7.392 13.807-10.377-8.107-18.444-18.443-23.463-30.083 2.773.362 5.565.557 8.369.557 16.419 0 32.066-6.29 44.062-17.711 7.649-7.283 13.147-16.114 16.333-25.723 2.739.065 5.472.108 8.172.108 12.104 0 23.901-.621 35.066-1.844a7.5 7.5 0 0 0-1.634-14.911c-10.624 1.164-21.872 1.755-33.432 1.755-1.704 0-3.429-.026-5.153-.054.699-8.779-.38-17.85-3.371-26.73-4.764-14.146-20.151-21.779-34.301-17.018-14.148 4.765-21.781 20.152-17.017 34.3.423 1.255.658 2.438.742 3.56-7.344-1.618-14.257-3.548-20.736-5.781-.063-.024-.127-.044-.19-.066-16.374-5.665-29.96-13.27-40.539-22.76-17.017-15.264-25.645-35.119-25.645-59.013 0-66.032 65.589-119.753 146.209-119.753s146.209 53.721 146.209 119.753c.003 47.353-33.632 70.498-66.294 81.806zM235.723 133.17c.045.003.221.062.424.275 7.743 8.104 18.174 12.567 29.369 12.567a40.654 40.654 0 0 0 33.296-17.357c3.107.457 6.264.689 9.386.689 17.555 0 33.98-6.915 46.252-19.471 12.269-12.552 18.805-29.142 18.402-46.713a63.682 63.682 0 0 0-6.199-26.072 7.5 7.5 0 1 0-13.545 6.445 48.789 48.789 0 0 1 4.748 19.971c.309 13.5-4.71 26.245-14.133 35.886-9.426 9.644-22.043 14.955-35.525 14.955-2.42 0-4.869-.182-7.28-.541-5.623-.835-11.117 1.522-14.331 6.159a25.653 25.653 0 0 1-21.07 11.05c-7.06 0-13.638-2.816-18.522-7.929-2.697-2.823-6.26-4.549-10.032-4.862-19.985-1.655-35.64-18.677-35.64-38.753 0-20.338 15.878-37.377 36.146-38.792 3.355-.234 6.436-2.089 8.242-4.962 3.993-6.348 10.844-10.138 18.326-10.138 1.793 0 3.58.223 5.312.662 3.415.865 6.984.193 9.801-1.844C287.654 18.246 297.693 15 308.197 15h.229a49.372 49.372 0 0 1 24.287 6.538 7.5 7.5 0 0 0 7.461-13.013A64.4 64.4 0 0 0 308.494 0h-.298c-13.172 0-25.786 3.921-36.597 11.364a36.72 36.72 0 0 0-7.563-.789c-11.938 0-22.925 5.692-29.806 15.335-27.038 3.002-47.909 26.113-47.909 53.558 0 13.611 5.088 26.605 14.327 36.588 9.185 9.923 21.641 16.001 35.075 17.114zm98.672 92.458a7.5 7.5 0 0 0-7.5 7.5v9.828c0 4.142 3.357 7.5 7.5 7.5s7.5-3.358 7.5-7.5v-9.828a7.5 7.5 0 0 0-7.5-7.5zm-118.413 0a7.5 7.5 0 0 0-7.5 7.5v9.828c0 4.142 3.357 7.5 7.5 7.5s7.5-3.358 7.5-7.5v-9.828a7.5 7.5 0 0 0-7.5-7.5zm-19.226 48.371c-8.796 2.336-25.39 10.67-31.832 15.425a7.5 7.5 0 0 0 4.46 13.534 7.467 7.467 0 0 0 4.448-1.466c5.031-3.714 19.998-11.197 26.773-12.996a7.5 7.5 0 0 0-3.849-14.497zm-4.709-6.056c4.093.54 7.875-2.346 8.418-6.453a7.5 7.5 0 0 0-6.452-8.418c-9.025-1.193-27.539.19-35.309 2.133a7.5 7.5 0 0 0 3.639 14.552c6.067-1.517 22.753-2.735 29.704-1.814zm98.751-27.583h-31.219c-4.143 0-7.5 3.358-7.5 7.5s3.357 7.5 7.5 7.5h31.219c4.143 0 7.5-3.358 7.5-7.5s-3.357-7.5-7.5-7.5z"/></svg>