<svg xmlns="http://www.w3.org/2000/svg" viewBox="0 0 511.998 511.998" style="enable-background:new 0 0 511.998 511.998" xml:space="preserve"><circle style="fill:#dee2e5" cx="145.279" cy="144.3" r="100.67"/><path style="opacity:.05;enable-background:new" d="M145.275 244.97c27.887 0 53.123-11.341 71.354-29.66C68.142 235.994 72.946 104.666 98.725 55.029c-32.162 16.805-54.117 50.473-54.117 89.274 0 55.596 45.07 100.667 100.667 100.667z"/><path style="fill:#82c7e6" d="M69.322 216.479c-1.464 2.983-5.716 2.983-7.179 0a46.017 46.017 0 0 0-21.04-21.04c-2.983-1.464-2.983-5.715 0-7.179a46.017 46.017 0 0 0 21.04-21.04c1.464-2.983 5.716-2.983 7.179 0a46.017 46.017 0 0 0 21.04 21.04c2.983 1.464 2.983 5.716 0 7.179a46.017 46.017 0 0 0-21.04 21.04z"/><path style="fill:#bd4568" d="M246.888 130.483c-2.336 4.76-9.122 4.76-11.458 0a73.444 73.444 0 0 0-33.578-33.578c-4.76-2.336-4.76-9.122 0-11.458a73.444 73.444 0 0 0 33.578-33.578c2.336-4.76 9.122-4.76 11.458 0a73.444 73.444 0 0 0 33.578 33.578c4.76 2.336 4.76 9.122 0 11.458a73.444 73.444 0 0 0-33.578 33.578z"/><circle style="fill:#7694e4" cx="117.699" cy="119.27" r="28.09"/><circle style="fill:#78cfc0" cx="132.749" cy="244.97" r="28.09"/><path style="fill:#eda751" d="M122.896 450.293c-2.006 0-4.04-.486-5.927-1.51-6.038-3.28-8.273-10.834-4.993-16.871 9.212-16.959 20.589-27.305 34.78-31.63 14.178-4.32 30.495-2.634 51.348 5.31 20.807 7.922 30.959-3.024 50.157-26.533l.707-.865c4.347-5.32 12.185-6.11 17.506-1.764 5.321 4.348 6.111 12.185 1.764 17.506l-.704.861c-9.678 11.852-18.82 23.046-30.617 30.393-14.625 9.106-30.217 10.302-47.67 3.654-32.938-12.547-44.883-4.428-55.406 14.945a12.441 12.441 0 0 1-10.945 6.504z"/><path style="fill:#fcd79d" d="M117.144 423.436a96.137 96.137 0 0 0-5.169 8.476c-3.28 6.038-1.044 13.591 4.993 16.871a12.437 12.437 0 0 0 16.87-4.994c1.461-2.689 2.952-5.151 4.519-7.382-5.791-9.079-14.639-11.89-21.213-12.971z"/><path style="opacity:.2;fill:#a35f00;enable-background:new" d="M266.473 376.43c-5.321-4.345-13.159-3.556-17.506 1.764l-.707.865c-18.134 22.205-28.201 33.193-46.795 27.668.206.404.405.81.617 1.212a106.051 106.051 0 0 0 17.563 24.224c5.932-1.171 11.673-3.488 17.271-6.973 11.797-7.347 20.939-18.541 30.617-30.393l.704-.861c4.346-5.322 3.557-13.159-1.764-17.506z"/><path style="fill:#495059" d="M253.219 504.5c-2.202 0-4.44-.368-6.635-1.144-10.365-3.664-15.797-15.037-12.132-25.402 5.957-16.851 13.227-40.555 7.598-51.811-4.916-9.833-.931-21.791 8.902-26.707 9.835-4.915 21.791-.93 26.707 8.902 12.166 24.331 4.464 54.215-5.672 82.884-2.889 8.171-10.569 13.278-18.768 13.278z"/><path style="fill:#eda751" d="M194.626 383.772c-17.984 0-37.053-5.995-54.95-17.995-9.131-6.123-11.569-18.489-5.447-27.619 6.123-9.131 18.49-11.567 27.619-5.447 20.645 13.843 41.712 15.034 54.978 3.11 8.175-7.349 20.76-6.68 28.111 1.497 7.35 8.176 6.679 20.761-1.496 28.111-13.599 12.225-30.654 18.343-48.815 18.343z"/><path style="fill:#7694e4" d="M216.827 335.821c-11.305 10.161-28.275 10.791-45.82 2.191-1.249 20.08-12.157 29.775-19.546 34.706 14.332 7.359 29.08 11.054 43.166 11.054 18.161 0 35.216-6.118 48.816-18.343 8.176-7.35 8.846-19.935 1.496-28.111-7.353-8.177-19.937-8.846-28.112-1.497z"/><path style="opacity:.2;enable-background:new" d="M216.827 335.821c-6.655 5.982-15.281 8.634-24.824 8.071a99.33 99.33 0 0 0-1.529 17.344c0 7.667.866 15.184 2.564 22.51.53.01 1.061.026 1.589.026 18.161 0 35.216-6.119 48.816-18.343 8.176-7.35 8.846-19.935 1.496-28.111-7.353-8.177-19.937-8.846-28.112-1.497z"/><path style="fill:#495059" d="M390.529 503.503c-7.288 0-14.307-4.016-17.803-10.973-18.673-37.163-33.482-56.213-37.371-59.198-8.9-6.454-10.868-18.889-4.414-27.79 6.454-8.9 18.915-10.87 27.816-4.418 18.388 13.334 42.569 59.652 49.543 73.53 4.936 9.823.974 21.788-8.85 26.724a19.806 19.806 0 0 1-8.921 2.125z"/><path style="opacity:.2;enable-background:new" d="M384.336 432.158c-8.349-13.008-17.52-25.189-25.579-31.033-8.9-6.453-21.362-4.483-27.816 4.418-6.454 8.9-4.487 21.336 4.414 27.789 2.263 1.737 8.227 8.924 16.494 21.942 12.2-5.718 23.22-13.526 32.487-23.116zM250.952 399.436c-9.833 4.916-13.818 16.873-8.902 26.707 2.84 5.679 2.394 14.528.492 24.066 11.429 6.771 24.174 11.556 37.687 14.049 4.765-19.799 5.803-39.174-2.57-55.92-4.917-9.832-16.872-13.817-26.707-8.902z"/><path style="fill:#eda751" d="M383.256 371.473c-4.936 0-9.628-.447-13.98-1.473-10.7-2.522-17.33-13.241-14.808-23.942 2.522-10.699 13.238-17.325 23.942-14.808 10.592 2.494 38-5.422 54.375-10.153 5.414-1.565 10.526-3.043 15.33-4.316 10.63-2.823 21.525 3.515 24.341 14.141 2.817 10.626-3.515 21.525-14.141 24.341-4.375 1.159-9.281 2.578-14.475 4.079-19.935 5.761-41.972 12.131-60.584 12.131z"/><path style="fill:#7694e4" d="M431.822 321.375c-16.466 4.756-43.023 12.321-53.411 9.875-10.704-2.517-21.42 4.108-23.942 14.808-2.522 10.701 4.108 21.42 14.808 23.942 4.352 1.025 9.044 1.473 13.98 1.473 18.035 0 39.279-5.979 58.716-11.591-9.922-13.799-11.091-29.819-10.151-38.507z"/><path style="opacity:.2;enable-background:new" d="M413.503 361.236a99.069 99.069 0 0 0-5.766-33.348c-11.8 2.823-23.293 4.782-29.328 3.361-10.704-2.517-21.42 4.108-23.942 14.808-2.522 10.701 4.107 21.42 14.808 23.942 4.351 1.026 9.044 1.473 13.98 1.473 9.384 0 19.638-1.626 30.053-3.969.129-2.077.195-4.166.195-6.267z"/><path style="fill:#fcd690" d="m301.988 395.586 73.525-85.453c-16.746-20.771-43.446-34.212-73.525-34.212-30.079 0-56.779 13.441-73.525 34.212l73.525 85.453z"/><path style="fill:#7694e4" d="M384.469 398.745c5.974-11.321 9.332-24.05 9.332-37.509 0-27.813-14.326-52.514-36.491-68.089l-50.987 71.096c-2.129 2.968-6.542 2.967-8.671-.002l-50.986-71.095c-22.166 15.575-36.491 40.276-36.491 68.089 0 13.459 3.359 26.188 9.332 37.509h164.962v.001z"/><path style="fill:#495059" d="M219.508 398.745c14.939 28.312 46.258 47.806 82.48 47.806 36.223 0 67.541-19.494 82.48-47.806h-164.96z"/><path style="opacity:.1;enable-background:new" d="M288.581 445.643c-41.956-27.546-28.953-84.002-21.831-108.691v-54.515c-33.217 12.841-56.575 43.284-56.575 78.8.001 42.885 34.055 78.375 78.406 84.406z"/><circle style="fill:#82c7e6" cx="243.589" cy="375.67" r="7.335"/><circle style="fill:#82c7e6" cx="366.259" cy="349.68" r="7.335"/><circle style="fill:#82c7e6" cx="351.589" cy="381.8" r="7.335"/><circle style="fill:#82c7e6" cx="253.279" cy="340.5" r="7.335"/><path style="fill:#eda751" d="M246.115 213.301c17.966-15.075 29.961-40.382 4.62-77.792-25.541-37.706-63.567-47.157-93.255-43.66a18.563 18.563 0 0 0-15.58 13.073c-8.6 28.629-5.895 67.719 26.803 99.419 32.441 31.454 59.446 24.035 77.412 8.96z"/><path style="fill:#ff91ab" d="M140.705 109.304c-7.05 28.149-3.064 64.924 27.998 95.038 28.119 27.262 52.149 25.313 69.753 14.496-12.108-82.191-64.997-103.986-97.751-109.534z"/><path style="fill:#eda751" d="M357.862 213.301c-17.966-15.075-29.961-40.382-4.62-77.792 25.541-37.706 63.567-47.157 93.255-43.66a18.563 18.563 0 0 1 15.58 13.073c8.599 28.629 5.895 67.719-26.803 99.419-32.441 31.454-59.446 24.035-77.412 8.96z"/><path style="fill:#ff91ab" d="M463.272 109.304c7.05 28.149 3.064 64.924-27.997 95.038-28.119 27.262-52.149 25.313-69.753 14.496 12.106-82.191 64.996-103.986 97.75-109.534z"/><path style="fill:#ffdc9c" d="M458.298 236.055c0 71.469-69.982 102.772-156.31 102.772s-156.31-31.303-156.31-102.772 69.982-129.406 156.31-129.406 156.31 57.936 156.31 129.406z"/><path style="opacity:.15;fill:#c17a00;enable-background:new" d="M218.527 126.628c-43.776 22.933-72.848 63.367-72.848 109.427 0 61.437 51.715 93.192 121.072 100.897-99.56-59.471-86.576-139.463-48.224-210.324z"/><ellipse style="fill:#ff91ab" cx="241.159" cy="232.57" rx="28.3" ry="22.538"/><ellipse style="fill:#ff91ab" cx="394.559" cy="232.57" rx="28.3" ry="22.538"/><path style="fill:#ff91ab" d="M338.74 243.643c0 6.1-3.426 11.741-8.924 14.381-3.618 1.737-7.671 2.71-11.953 2.71s-8.335-.973-11.953-2.71c-5.499-2.639-8.924-8.281-8.924-14.381v-19.12a4.948 4.948 0 0 1 4.251-4.898 118.122 118.122 0 0 1 33.253 0 4.948 4.948 0 0 1 4.251 4.898l-.001 19.12z"/><path d="M429.917 257.447c-6.542-4.829-23.395-13.294-32.328-15.665a7.5 7.5 0 1 0-3.848 14.498c6.9 1.832 22.144 9.452 27.268 13.235a7.465 7.465 0 0 0 4.448 1.466 7.501 7.501 0 0 0 4.46-13.534zm49.789 71.554c-1.875-7.076-6.393-12.999-12.721-16.677-6.331-3.679-13.713-4.67-20.791-2.793-4.934 1.308-10.301 2.859-15.49 4.36l-.968.28c-.042.012-.083.023-.124.036-1.814.524-3.742 1.079-5.762 1.653 27.48-19.103 41.95-46.52 41.95-79.805 0-15.79-3.173-31.157-9.252-45.604 17.091-25.903 21.748-57.604 12.713-87.685a26.018 26.018 0 0 0-21.885-18.363c-29.938-3.528-59.42 5.726-81.645 25.456-19.91-7.019-41.49-10.71-63.741-10.71-4.46 0-8.891.156-13.289.449a13.812 13.812 0 0 0 2.838-8.422c0-5.336-2.977-10.11-7.767-12.462-13.042-6.4-23.749-17.107-30.149-30.15-2.351-4.789-7.126-7.765-12.462-7.765s-10.111 2.976-12.462 7.766a65.879 65.879 0 0 1-10.733 15.638c-18.086-16.474-40.788-26.159-65.189-27.808V7.5c0-4.143-3.358-7.5-7.5-7.5s-7.5 3.357-7.5 7.5v28.899C81.618 40.265 37.108 87.181 37.108 144.303c0 11.783 1.876 23.31 5.574 34.348a38.202 38.202 0 0 1-4.884 2.876c-3.968 1.948-6.433 5.903-6.433 10.323s2.465 8.375 6.434 10.323a38.702 38.702 0 0 1 17.61 17.608 11.422 11.422 0 0 0 10.322 6.435h.001c2.419 0 4.696-.742 6.584-2.062a107.236 107.236 0 0 0 25.03 17.138 35.754 35.754 0 0 0-.19 3.678c0 19.625 15.966 35.591 35.591 35.591 4.914 0 9.752-1.033 14.206-2.97 4.344 9.289 10.281 17.789 17.819 25.437a7.502 7.502 0 0 0 10.606.077 7.501 7.501 0 0 0 .077-10.607c-14.781-14.996-22.276-33.986-22.276-56.443 0-67.22 66.756-121.906 148.81-121.906s148.809 54.687 148.809 121.906c0 31.046-14.166 55.181-42.105 71.734-7.526 4.459-15.972 8.305-25.23 11.525-.09.03-.179.058-.268.092-16.966 5.869-36.665 9.628-58.506 11.147l-.148.01c-7.288.503-14.809.763-22.551.763-7.734 0-15.261-.257-22.557-.763l-.108-.009c-31.466-2.196-58.619-9.056-79.418-20.165-3.653-1.954-8.198-.571-10.149 3.082s-.571 8.197 3.083 10.148c4.822 2.576 9.948 4.935 15.346 7.085a87.67 87.67 0 0 0-.981 2.77c-10.729 5.775-25.898 3.252-41.178-6.994-12.552-8.417-29.609-5.051-38.025 7.5-8.416 12.549-5.052 29.607 7.499 38.025a125.27 125.27 0 0 0 12.488 7.36c15.185 7.81 31.082 11.906 46.639 11.906 4.376 0 8.726-.34 13.002-1.004a89.27 89.27 0 0 0 4.383 10.28c-3.318.337-6.913-.318-11.237-1.965-22.49-8.567-40.35-10.308-56.205-5.476-16.168 4.928-28.986 16.449-39.184 35.224-5.249 9.66-1.66 21.791 8.005 27.044a19.934 19.934 0 0 0 27.04-8.006c8.148-14.999 15.321-23.257 46.146-11.517 17.81 6.785 34.577 6.148 49.926-1.825.99 9.895-4.165 27.406-9.122 41.426-2.44 6.902-2.046 14.341 1.108 20.946 3.155 6.605 8.693 11.588 15.594 14.026a27.31 27.31 0 0 0 9.136 1.574c11.59 0 21.974-7.345 25.839-18.277 4.043-11.437 8.717-25.866 10.961-40.346 3.936.437 7.929.674 11.97.674 12.527 0 24.621-2.158 35.819-6.174 5.395 7.46 15.537 22.786 28.217 48.02 4.681 9.317 14.07 15.105 24.504 15.105 4.235 0 8.484-1.01 12.289-2.922 11.504-5.78 17.479-19.002 14.21-31.438a7.502 7.502 0 0 0-9.161-5.347 7.502 7.502 0 0 0-5.347 9.161c1.479 5.623-1.228 11.604-6.436 14.221a12.256 12.256 0 0 1-5.555 1.325 12.36 12.36 0 0 1-11.102-6.84c-11.769-23.424-21.438-38.672-27.631-47.513a97.855 97.855 0 0 0 20.174-14.466c5.411 7.686 11.265 17.085 17.471 28.061a7.495 7.495 0 0 0 10.219 2.837 7.5 7.5 0 0 0 2.838-10.22c-7.167-12.675-13.936-23.401-20.184-31.993a93.465 93.465 0 0 0 8.721-13.504l.045-.081.021-.039c4.146-7.857 7.034-16.081 8.654-24.58 15.328-2.211 31.608-6.91 46.167-11.118 5.139-1.486 9.991-2.89 14.314-4.034 7.075-1.876 12.997-6.395 16.675-12.725 3.676-6.326 4.668-13.709 2.793-20.784zM65.732 207.64a53.95 53.95 0 0 0-15.791-15.79 53.626 53.626 0 0 0 6.247-4.762c.151-.118.295-.244.435-.372l.002-.001c.099-.091.198-.182.292-.277a53.92 53.92 0 0 0 8.815-10.378 53.978 53.978 0 0 0 15.791 15.791 53.935 53.935 0 0 0-15.791 15.789zm67.015 57.92c-11.354 0-20.591-9.237-20.591-20.591s9.237-20.591 20.591-20.591c2.018 0 4.016.308 5.934.886-.33 3.571-.502 7.168-.502 10.79 0 9.689 1.207 18.837 3.58 27.428a20.38 20.38 0 0 1-9.012 2.078zm8.294-55.181c-2.708-.649-5.489-1-8.294-1-13.016 0-24.417 7.027-30.623 17.484a92.404 92.404 0 0 1-20.914-14.951 38.653 38.653 0 0 1 12.456-9.739c3.968-1.948 6.433-5.903 6.433-10.323s-2.465-8.375-6.433-10.322a38.722 38.722 0 0 1-17.611-17.612 11.425 11.425 0 0 0-10.323-6.433 11.426 11.426 0 0 0-10.322 6.433 38.265 38.265 0 0 1-.862 1.643 93.359 93.359 0 0 1-2.44-21.255c0-51.373 41.794-93.168 93.167-93.168 22.828 0 44.268 8.093 61.222 22.939a65.334 65.334 0 0 1-7.949 4.64 13.86 13.86 0 0 0-6.813 7.411c-11.353-2.505-23.207-3.13-35.133-1.723a25.994 25.994 0 0 0-15.754 7.866c-6.373-5.447-14.58-8.593-23.153-8.593-19.625 0-35.591 15.966-35.591 35.591s15.966 35.591 35.591 35.591c4.977 0 9.783-1.016 14.2-2.94 2.488 13.587 7.705 26.668 15.535 38.534a118.37 118.37 0 0 0-6.389 19.927zm-10.819-74.805a20.365 20.365 0 0 1-12.527 4.283c-11.354 0-20.591-9.237-20.591-20.591s9.237-20.591 20.591-20.591c6.237 0 12.138 2.885 16.019 7.676-2.551 9.686-3.706 19.508-3.492 29.223zm56.456 3.199c-12.854 10.641-23.329 22.748-31.215 35.872-11.498-21.643-11.224-42.641-8.921-56.522 12.37 2.872 27.581 8.488 41.657 19.421-.508.41-1.02.814-1.521 1.229zm14.053-10.38c-16.714-14.044-35.088-21.128-49.957-24.683a11.019 11.019 0 0 1 7.584-4.411c11.439-1.346 38.803-1.971 64.085 16.994a168.631 168.631 0 0 0-21.712 12.1zm56.121-24.003a184.174 184.174 0 0 0-18.605 5.469 103.61 103.61 0 0 0-30.721-18.904 80.891 80.891 0 0 0 15.018-10.342c.212-.164.419-.338.617-.528.041-.039.076-.082.115-.122 7.247-6.456 13.347-14.185 17.884-22.814 7.602 14.459 19.567 26.424 34.026 34.027a80.663 80.663 0 0 0-18.334 13.214zm124.682 11.903c25.282-18.965 52.647-18.339 64.084-16.994a11.022 11.022 0 0 1 7.585 4.412c-14.87 3.555-33.243 10.639-49.957 24.683a168.517 168.517 0 0 0-21.712-12.101zm66.981 58.352c-7.887-13.124-18.361-25.23-31.215-35.871-.502-.416-1.014-.819-1.521-1.229 14.076-10.934 29.287-16.549 41.657-19.421 2.302 13.88 2.576 34.878-8.921 56.521zM150.823 363.853a112.297 112.297 0 0 1-6.969-4.305c-5.682-3.81-7.205-11.533-3.396-17.213 3.811-5.681 11.533-7.204 17.214-3.396a89.543 89.543 0 0 0 5.324 3.302c-1.457 8.914-5.472 16.042-12.173 21.612zm43.803 12.419c-9.661 0-19.537-1.898-29.273-5.561 5.758-6.216 9.655-13.62 11.664-22.15 9.198 3.019 18.157 3.73 26.303 2.078a87.987 87.987 0 0 0-.644 10.598c0 4.879.405 9.689 1.19 14.417a70.09 70.09 0 0 1-9.24.618zm107.363-29.946c2.698 0 5.371-.033 8.021-.093l-8.021 11.185-8.02-11.183c2.65.061 5.323.091 8.02.091zm-110.073 75.509c-17.632-6.716-30.726-8.172-41.208-4.584-11.895 4.073-18.533 13.892-23.459 22.958a4.948 4.948 0 0 1-4.353 2.584 4.947 4.947 0 0 1-4.331-7.301c8.226-15.144 18.162-24.314 30.376-28.037 12.503-3.81 27.275-2.175 46.494 5.145 9.186 3.498 17.234 3.973 24.832 1.422a94.322 94.322 0 0 0 6.614 8.014c-10.8 4.79-22.074 4.709-34.965-.201zm72.999 66.888A12.428 12.428 0 0 1 253.219 497c-1.401 0-2.792-.24-4.136-.716a12.323 12.323 0 0 1-7.059-6.35 12.323 12.323 0 0 1-.501-9.482c4.652-13.159 9.001-27.226 9.893-39.231a102.184 102.184 0 0 0 23.846 9.454c-2.025 13.393-6.49 27.14-10.347 38.048zm102.741-78.633a7.434 7.434 0 0 0-1.094 1.248c-7.797 8.613-17.445 15.474-28.28 20.218a7.443 7.443 0 0 0-1.726.744c-10.634 4.385-22.357 6.751-34.567 6.751a92.57 92.57 0 0 1-16.676-1.515 7.32 7.32 0 0 0-.945-.17c-13.77-2.671-26.428-8.446-36.975-16.737a7.45 7.45 0 0 0-1.776-1.427c-.196-.163-.385-.334-.58-.499a7.439 7.439 0 0 0-1.669-1.446 79.848 79.848 0 0 1-10.176-11.011h137.596a80.968 80.968 0 0 1-3.132 3.844zm18.131-40.181c-.016.119-.033.238-.044.359a71.907 71.907 0 0 1-5.944 20.977h-155.62a72.623 72.623 0 0 1-4.049-11.294c-.01-.046-.015-.092-.027-.139-.025-.103-.061-.199-.09-.3a72.127 72.127 0 0 1-2.337-18.276c0-8.807 1.57-17.381 4.668-25.573 15.744 4.809 33.368 8.033 52.458 9.587l16.755 23.362a12.862 12.862 0 0 0 10.43 5.358h.002c4.126 0 8.024-2.002 10.431-5.355l16.754-23.363c19.117-1.549 36.724-4.771 52.461-9.584a71.914 71.914 0 0 1 4.667 25.569 73.389 73.389 0 0 1-.515 8.672zm15.499-7.664c.004-.337.015-.671.015-1.009a86.94 86.94 0 0 0-3.249-23.623c8.459-1.537 17.845-3.959 26.203-6.285.562 7.483 2.463 15.914 6.349 23.995-9.692 2.711-19.759 5.3-29.318 6.922zm62.656-19.991a12.329 12.329 0 0 1-7.548 5.76c-3.46.917-7.191 1.977-11.111 3.106-5.102-9.151-6.144-18.399-6.208-24.032 3.808-1.095 7.462-2.13 10.965-3.058a12.307 12.307 0 0 1 9.408 1.263 12.327 12.327 0 0 1 5.758 7.551c.849 3.203.4 6.545-1.264 9.41zm-22.198-110.488a7.501 7.501 0 0 0-5.457-9.096c-7.888-1.971-26.693-3.376-35.858-2.166a7.5 7.5 0 0 0 1.965 14.871c7.077-.938 24.076.302 30.255 1.848a7.504 7.504 0 0 0 9.095-5.457zm-63.674-45.382c-11.575 0-20.993 9.418-20.993 20.994 0 4.143 3.357 7.5 7.5 7.5s7.5-3.357 7.5-7.5a6 6 0 0 1 5.993-5.994 6 6 0 0 1 5.994 5.994c0 4.143 3.357 7.5 7.5 7.5a7.5 7.5 0 0 0 7.5-7.5c0-11.576-9.418-20.994-20.994-20.994zm-60.208 81.849a34.84 34.84 0 0 0 15.198-3.448c8.007-3.844 13.18-12.143 13.18-21.143v-19.12c0-6.159-4.598-11.457-10.695-12.324a125.743 125.743 0 0 0-35.365 0c-6.098.867-10.695 6.165-10.695 12.324v19.12c0 9 5.173 17.299 13.18 21.143a34.842 34.842 0 0 0 15.197 3.448zm-13.378-41.473a110.677 110.677 0 0 1 26.756 0v16.883c0 3.267-1.833 6.258-4.67 7.619a19.952 19.952 0 0 1-8.708 1.972c-3.052 0-5.982-.663-8.708-1.972-2.837-1.361-4.67-4.353-4.67-7.619V226.76zm-52.824-19.382a6 6 0 0 1 5.994-5.994 6 6 0 0 1 5.994 5.994 7.5 7.5 0 0 0 7.5 7.5c4.143 0 7.5-3.357 7.5-7.5 0-11.576-9.418-20.994-20.994-20.994s-20.994 9.418-20.994 20.994a7.5 7.5 0 0 0 15 0zm-13.525 34.404c-8.933 2.371-25.785 10.836-32.328 15.665a7.5 7.5 0 0 0 4.46 13.534 7.467 7.467 0 0 0 4.448-1.466c5.124-3.783 20.367-11.403 27.268-13.235a7.501 7.501 0 0 0-3.848-14.498zm-38.697-19.112a7.5 7.5 0 0 0-5.457 9.096 7.504 7.504 0 0 0 9.095 5.458c6.179-1.545 23.178-2.782 30.255-1.848a7.5 7.5 0 0 0 1.965-14.871c-9.165-1.211-27.97.193-35.858 2.165z"/></svg>