<svg xmlns="http://www.w3.org/2000/svg" viewBox="0 0 511.999 511.999" style="enable-background:new 0 0 511.999 511.999" xml:space="preserve"><path style="fill:#eda751" d="M98.715 437.529c-31.172 0-61.13-17.164-75.015-43.166-3.782-7.082-1.106-15.889 5.976-19.671 7.081-3.781 15.889-1.107 19.671 5.976 8.993 16.841 29.839 28.263 50.673 27.772 27.201-.639 51.295-20.175 67.844-55.009 3.445-7.253 12.117-10.338 19.368-6.893 7.252 3.445 10.338 12.117 6.893 19.368-29.013 61.071-70.986 71.073-93.422 71.6-.662.015-1.327.023-1.988.023z"/><path style="fill:#bd4568" d="m57.681 361.154-32.905-7.08c-6.15-1.323-12.116 2.898-12.913 9.138l-4.27 33.386c-1.186 9.276 9.225 15.532 16.859 10.13l4.895-3.464a78.725 78.725 0 0 0 8.842 10.065c5.963-2.537 14.896-7.913 22.059-19.219a50.417 50.417 0 0 1-7.167-7.64l8.548-6.049c7.631-5.4 5.195-17.3-3.948-19.267z"/><path style="fill:#eda751" d="M174.705 496.891c-2.574 0-5.189-.43-7.752-1.336-12.111-4.282-18.459-17.571-14.177-29.681 7.899-22.344 15.131-46.871 8.878-59.377-5.744-11.49-1.087-25.461 10.402-31.205 11.491-5.744 25.461-1.088 31.205 10.402 13.224 26.449 6.915 57.379-6.628 95.684-3.374 9.547-12.348 15.513-21.928 15.513zM108.725 362.204c-.422 0-.843-.004-1.266-.011-29.001-.495-54.274-17.673-69.341-47.129-5.849-11.437-1.32-25.45 10.116-31.299 11.439-5.85 25.451-1.319 31.299 10.116 7.194 14.065 17.124 21.603 28.718 21.801 8.892.137 16.7-4.312 19.145-8.714 6.236-11.23 20.397-15.278 31.625-9.043 11.23 6.236 15.279 20.396 9.043 31.625-11.066 19.931-34.26 32.654-59.339 32.654zM302.04 488.363c-2.574 0-5.189-.43-7.753-1.336-12.111-4.282-18.458-17.571-14.177-29.681 8.277-23.412-6.206-40.104-9.4-42.421-10.399-7.542-12.714-22.086-5.172-32.484 7.543-10.399 22.086-12.715 32.484-5.172 18.383 13.333 41.682 51.073 25.946 95.583-3.374 9.545-12.348 15.511-21.928 15.511zM371.714 366.123c-7.279 0-14.588-.686-21.799-2.074-23.266-4.477-42.944-15.61-55.411-31.347-7.977-10.069-6.281-24.698 3.789-32.674 10.069-7.977 24.697-6.28 32.674 3.789 11.265 14.22 42.617 21.569 67.714 10.118 11.686-5.333 25.483-.181 30.815 11.507 5.332 11.687.181 25.484-11.507 30.815-14.295 6.521-30.205 9.866-46.275 9.866z"/><path style="fill:#bd4568" d="M496.514 222.034c-7.164-3.622-15.909-.756-19.534 6.409l-16.412 32.437c-2.319 4.584-6.865 7.536-11.82 7.967-1.395.121-2.507-1.164-2.24-2.539l9.539-49.179c1.489-7.678-3.123-15.432-10.72-17.29-8.119-1.986-16.169 3.232-17.744 11.349l-9.618 49.585c-.274 1.413-1.83 2.133-3.109 1.473-4.39-2.266-7.467-6.679-7.902-11.766l-3.06-35.811c-.666-7.799-7.234-13.998-15.055-13.699-8.351.319-14.652 7.534-13.948 15.766l3.095 36.22c1.514 17.73 13.78 32.724 30.481 37.978 1.963.618 3.14 2.622 2.748 4.643l-22.717 117.121c-1.527 7.876 3.585 15.964 11.465 17.468.92.176 1.836.26 2.741.26 6.821 0 12.908-4.826 14.255-11.772l22.797-117.535c.389-2.008 2.211-3.453 4.25-3.286 1.144.094 2.287.141 3.425.141 16.231 0 31.568-9.122 39.08-23.969l16.412-32.437c3.625-7.164.755-15.91-6.409-19.534z"/><path style="opacity:.2;fill:#a35f00;enable-background:new" d="M357.681 318.122c-11.543-2.386-21.381-7.574-26.715-14.306-7.977-10.069-22.605-11.766-32.673-3.789-10.069 7.977-11.766 22.606-3.789 32.674 12.467 15.738 32.144 26.871 55.411 31.347 1.068.206 2.14.391 3.212.566a112.145 112.145 0 0 0 5.255-33.958c0-4.232-.24-8.413-.701-12.534zM159.023 297.925c-11.229-6.235-25.39-2.187-31.625 9.043-2.445 4.402-10.253 8.851-19.145 8.714a26.77 26.77 0 0 1-2.24-.135c-.67 4.95-1.015 9.993-1.015 15.111 0 10.914 1.578 21.486 4.516 31.534 24.776-.264 47.601-12.92 58.552-32.64 6.235-11.231 2.187-25.391-9.043-31.627zM187.232 346.537c-7.252-3.446-15.924-.36-19.368 6.893-10.403 21.897-23.788 37.743-39.05 46.656 6.022 7.863 13.038 15.009 20.872 21.278 15.458-10.569 31.281-27.762 44.439-55.458 3.445-7.252.359-15.923-6.893-19.369z"/><path style="opacity:.2;fill:#a35f00;enable-background:new" d="M172.056 375.292c-11.49 5.745-16.146 19.716-10.402 31.205 2.937 5.874 2.898 14.401 1.213 24.108 13.184 8.05 28.051 13.859 43.987 16.849 5.357-23.325 5.488-43.599-3.593-61.76-5.744-11.49-19.714-16.146-31.205-10.402zM323.512 412.633c-6.188-16.305-16.433-28.799-25.489-35.366-10.399-7.543-24.942-5.227-32.484 5.172-7.542 10.399-5.227 24.943 5.172 32.484 2.318 1.681 10.573 10.937 11.769 24.832 15.553-6.423 29.484-15.697 41.032-27.122z"/><ellipse style="fill:#fcd690" cx="231.685" cy="330.655" rx="107.278" ry="99.688"/><path style="opacity:.15;fill:#c17a00;enable-background:new" d="M216.024 429.282c-49.023-32.185-33.83-98.152-25.509-127.001v-63.698c-38.813 15.004-66.105 50.575-66.105 92.074.001 50.11 39.792 91.578 91.614 98.625z"/><path style="fill:#eda751" d="M166.404 157.803c20.992-17.615 35.007-47.184 5.399-90.895-29.844-44.059-74.276-55.102-108.965-51.016a21.693 21.693 0 0 0-18.205 15.276c-10.048 33.451-6.888 79.127 31.317 116.167 37.907 36.75 69.462 28.081 90.454 10.468z"/><path style="fill:#ff91ab" d="M43.238 36.287c-8.238 32.89-3.58 75.861 32.713 111.048 32.855 31.853 60.934 29.577 81.504 16.938C143.308 68.235 81.509 42.769 43.238 36.287z"/><path style="fill:#eda751" d="M296.975 157.803c-20.992-17.615-35.007-47.184-5.399-90.895 29.843-44.057 74.276-55.101 108.963-51.014a21.693 21.693 0 0 1 18.205 15.276c10.048 33.451 6.888 79.127-31.317 116.167-37.906 36.748-69.459 28.079-90.452 10.466z"/><path style="fill:#ff91ab" d="M420.142 36.287c8.238 32.89 3.58 75.861-32.713 111.048-32.855 31.853-60.934 29.577-81.504 16.938 14.147-96.038 75.946-121.504 114.217-127.986z"/><path style="fill:#ffdc9c" d="M414.33 184.388c0 83.509-81.771 120.084-182.641 120.084S49.05 267.897 49.05 184.388 130.82 33.183 231.689 33.183 414.33 100.88 414.33 184.388z"/><path style="opacity:.15;fill:#c17a00;enable-background:new" d="M134.169 56.528c-51.151 26.796-85.121 74.041-85.121 127.86 0 71.787 60.427 108.891 141.467 117.893-116.33-69.488-101.158-162.955-56.346-245.753z"/><path style="fill:#bd4568" d="M142.412 43.321c-6.038 14.944-6.38 31.052-2.327 41.825 1.56 4.147 4.895 7.334 9.123 8.659 10.127 3.174 23.502 1.315 32.987-4.449 6.477-3.935 7.605-12.875 2.597-18.564-7.204-8.182-15.374-18.421-23.41-29.667-4.988-6.982-15.755-5.761-18.97 2.196zM320.968 43.321c6.038 14.944 6.38 31.052 2.327 41.825-1.56 4.147-4.895 7.334-9.123 8.659-10.127 3.174-23.502 1.315-32.987-4.449-6.477-3.935-7.605-12.875-2.597-18.564 7.204-8.182 15.374-18.421 23.41-29.667 4.987-6.982 15.755-5.761 18.97 2.196z"/><path d="M160.988 128.135a7.5 7.5 0 0 0-10.606 0 7.5 7.5 0 0 0 0 10.606l5.792 5.792a7.471 7.471 0 0 0-2.334 5.428v11.678a7.5 7.5 0 0 0 15 0v-5.904a7.54 7.54 0 0 0 1.893.25 7.5 7.5 0 0 0 5.303-12.804l-15.048-15.046zm-27.904 61.795a7.5 7.5 0 1 0 1.966-14.871c-10.584-1.4-32.31.225-41.426 2.504a7.5 7.5 0 0 0-5.457 9.095 7.503 7.503 0 0 0 7.27 5.683c.602 0 1.214-.073 1.825-.226 7.48-1.87 27.268-3.318 35.822-2.185zm197.212 0c8.553-1.131 28.342.315 35.823 2.185.61.153 1.222.226 1.825.226a7.503 7.503 0 0 0 7.27-5.683 7.5 7.5 0 0 0-5.457-9.095c-9.117-2.279-30.841-3.901-41.426-2.504a7.5 7.5 0 0 0 1.965 14.871zm180.595 38.206a21.894 21.894 0 0 0-10.992-12.795c-10.842-5.482-24.125-1.124-29.61 9.716l-13.199 26.087 6.32-32.586c2.286-11.787-4.874-23.209-16.301-26.003-5.925-1.448-12.01-.438-17.137 2.846a22.137 22.137 0 0 0-9.752 14.36l-6.399 32.991-1.098-12.842c6.019-13.782 9.107-29.025 9.107-45.522 0-18.267-3.779-36.305-11.033-53.325 20.119-30.073 25.656-67.015 15.131-102.052a29.138 29.138 0 0 0-24.511-20.567c-17.864-2.104-52.03-1.924-84.624 21.577a18.35 18.35 0 0 0-3.72-.843 18.437 18.437 0 0 0-16.018 6.14c-20.913-6.39-42.873-9.634-65.367-9.634-22.493 0-44.452 3.244-65.366 9.634a18.437 18.437 0 0 0-16.018-6.14 18.416 18.416 0 0 0-3.72.842C113.992 6.521 79.825 6.338 61.96 8.444A29.141 29.141 0 0 0 37.45 29.01c-10.525 35.037-4.988 71.98 15.132 102.052-7.254 17.02-11.033 35.058-11.033 53.325 0 34.134 12.71 62.386 37.778 83.971 12.193 10.499 27.041 19.152 44.362 25.933a101.014 101.014 0 0 0-3.116 9.406c-1.303 1.584-5.935 4.575-12.193 4.486-6.033-.103-14.776-3.261-22.171-17.717-7.723-15.1-26.292-21.103-41.391-13.378-7.315 3.741-12.735 10.107-15.262 17.925-2.527 7.818-1.858 16.152 1.883 23.467 7.761 15.173 18.064 27.342 30.145 36.009a18.922 18.922 0 0 0-2.327-.666l-32.905-7.08a18.283 18.283 0 0 0-14.373 2.942 18.29 18.29 0 0 0-7.558 12.577L.152 395.648c-.932 7.288 2.401 14.166 8.698 17.95 5.997 3.603 13.21 3.517 19.063-.166a86.007 86.007 0 0 0 4.827 5.056c.085.09.164.183.254.269 17.402 16.696 41.356 26.272 65.72 26.272.718 0 1.44-.008 2.164-.025 14.492-.341 34.685-4.172 55.104-18.885-1.818 13.312-7.554 29.546-10.279 37.254-5.653 15.991 2.757 33.599 18.749 39.252a30.688 30.688 0 0 0 10.252 1.765c13.009 0 24.663-8.244 28.999-20.513 6.735-19.051 10.808-33.926 12.821-46.972 4.963.615 10.024.937 15.164.937 14.42 0 28.224-2.503 40.949-7.057 2.371 5.752 3.934 14.065.401 24.059-5.652 15.991 2.758 33.599 18.749 39.252a30.696 30.696 0 0 0 10.252 1.765c10.892 0 21.065-5.835 26.552-15.228a7.5 7.5 0 0 0-12.952-7.566c-2.808 4.807-8.019 7.793-13.6 7.793-1.782 0-3.549-.306-5.253-.907-8.193-2.897-12.502-11.919-9.606-20.112 5.132-14.513 2.754-26.644-.753-34.995 9.641-4.906 18.448-11.066 26.172-18.242 5.851 11.268 9.034 23.903 9.067 36.396a7.5 7.5 0 0 0 7.5 7.48h.021a7.5 7.5 0 0 0 7.48-7.52c-.044-16.596-4.751-33.379-13.318-47.866 6.375-7.888 11.608-16.622 15.475-25.985 3.192.896 6.423 1.676 9.674 2.302a122.487 122.487 0 0 0 40.171 1.023l-7.532 38.832c-1.131 5.832.154 12.032 3.525 17.011 3.311 4.888 8.246 8.174 13.896 9.251 1.368.262 2.764.394 4.147.394 10.521 0 19.613-7.504 21.619-17.844l22.23-114.616c.294.006.587.008.878.008 19.175 0 37.141-11.023 45.772-28.083l16.412-32.436a21.898 21.898 0 0 0 1.275-16.815zM402.9 115.3a150.324 150.324 0 0 0-7.252-11.364c-9.032-12.803-20.195-24.461-33.046-34.646 17.464-13.965 36.547-20.852 51.734-24.228 3 16.816 3.707 43.211-11.436 70.238zm-3.237-91.959a14.143 14.143 0 0 1 10.742 7.235c-17.737 4.026-40.14 12.376-60.343 29.615a194.73 194.73 0 0 0-19.319-11.287 76.61 76.61 0 0 0-2.817-8.378c27.783-18.891 56.511-18.977 71.737-17.185zm-91.564 22.145c.87-1.218 2.05-1.437 2.786-1.437a3.472 3.472 0 0 1 2.029.645c.066.052.133.104.201.154.349.302.671.712.901 1.282a62.111 62.111 0 0 1 2.967 9.501c.016.076.03.152.049.228 2.155 9.652 1.96 19.427-.757 26.648-.753 2.003-2.337 3.513-4.345 4.142-8.063 2.527-19.105 1.005-26.851-3.702-1.512-.919-1.938-2.361-2.056-3.14a4.984 4.984 0 0 1 1.194-4.058c7.844-8.911 16.102-19.377 23.882-30.263zm-161.75 10.371c.018-.074.032-.149.048-.224a62.139 62.139 0 0 1 2.968-9.503c.231-.572.554-.984.904-1.286a3.472 3.472 0 0 1 2.224-.796c.736 0 1.917.219 2.786 1.437a428 428 0 0 0 2.138 2.955l.025.035c7.139 9.809 14.599 19.186 21.72 27.274a4.99 4.99 0 0 1 1.194 4.058c-.119.778-.544 2.221-2.056 3.14-7.747 4.707-18.788 6.229-26.852 3.702-2.008-.629-3.592-2.14-4.346-4.143-2.714-7.221-2.908-16.997-.753-26.649zM63.716 23.341c15.224-1.797 43.953-1.708 71.737 17.185a76.626 76.626 0 0 0-2.817 8.379 194.73 194.73 0 0 0-19.319 11.287c-20.203-17.24-42.606-25.59-60.343-29.616a14.144 14.144 0 0 1 10.742-7.235zM49.044 45.063c15.187 3.376 34.27 10.264 51.734 24.229-12.852 10.185-24.015 21.843-33.046 34.645a150.324 150.324 0 0 0-7.252 11.364C45.336 88.274 46.044 61.878 49.044 45.063zm75.143 323.146a104.124 104.124 0 0 0 9.991 18.923c-10.549 8.879-22.074 13.523-34.334 13.811-12.331.293-25.262-4.35-34.596-12.414-.029-.026-.054-.054-.084-.08a46.345 46.345 0 0 1-.838-.746l1.635-1.157c5.997-4.244 8.807-11.352 7.333-18.549-.712-3.478-2.342-6.537-4.641-8.95 11.705 6.727 24.796 10.41 38.685 10.647a81.453 81.453 0 0 0 16.849-1.485zm-79.391-56.56a15.656 15.656 0 0 1-.965-12.024 15.652 15.652 0 0 1 7.818-9.183c7.736-3.957 17.251-.883 21.208 6.854 10.782 21.08 25.131 25.711 35.281 25.885 3.097.053 6.191-.357 9.135-1.125-.24 2.847-.362 5.715-.362 8.601 0 7.944.938 15.686 2.702 23.141a66.255 66.255 0 0 1-12.026.896c-26.141-.446-49.028-16.136-62.791-43.045zm-5.063 92.5a71.127 71.127 0 0 1-4.351-5.336 7.488 7.488 0 0 0-6.042-3.049 7.466 7.466 0 0 0-4.326 1.378l-4.896 3.464c-1.502 1.065-2.863.54-3.541.132-.678-.407-1.779-1.363-1.545-3.189l4.269-33.386a3.214 3.214 0 0 1 1.343-2.235 3.233 3.233 0 0 1 2.554-.523l32.905 7.08c1.8.387 2.335 1.744 2.494 2.519.158.774.2 2.232-1.303 3.296l-8.548 6.049a7.5 7.5 0 0 0-1.651 10.645 56.53 56.53 0 0 0 3.292 3.961c-3.53 4.261-7.288 7.19-10.654 9.194zm60.798 25.859c-17.691.41-35.199-5.208-49.273-15.5a56.733 56.733 0 0 0 10.537-9.81c10.846 7.238 23.866 11.258 36.908 11.258.497 0 .996-.006 1.493-.018 15.359-.361 30.13-6.194 43.141-16.937a111.645 111.645 0 0 0 10.141 10.028c-19.509 16.604-39.261 20.657-52.947 20.979zm89.032 48.87c-2.223 6.288-8.194 10.513-14.858 10.513-1.783 0-3.55-.305-5.252-.907a15.653 15.653 0 0 1-8.968-8.066 15.656 15.656 0 0 1-.638-12.044c5.802-16.411 10.875-32.904 11.573-46.535a118.503 118.503 0 0 0 30.353 12.305c-1.834 12.192-5.703 26.327-12.21 44.734zm18.643-167.581c7.633.448 15.535.675 23.484.675 35.165 0 66.89-4.352 93.821-12.742a85.813 85.813 0 0 1 3.677 11.736 85.633 85.633 0 0 1 2.28 19.692c0 50.832-44.76 92.186-99.779 92.186s-99.779-41.354-99.779-92.186c0-7.35.919-14.561 2.742-21.572.073-.224.134-.449.185-.676a86.022 86.022 0 0 1 3.018-9.145c10.743 3.336 22.302 6.04 34.653 8.098a7.502 7.502 0 0 0 8.63-6.166 7.5 7.5 0 0 0-6.165-8.63c-13.86-2.309-26.605-5.46-38.201-9.428a7.497 7.497 0 0 0-1.117-.4c-18.569-6.482-34.154-15.08-46.541-25.746-21.609-18.607-32.565-43.034-32.565-72.604 0-25.239 8.105-50.069 23.439-71.805 12.536-17.77 29.637-33.166 49.927-45.092-.129 7.332.902 14.318 3.152 20.296 2.39 6.353 7.456 11.155 13.899 13.175 4.007 1.256 8.417 1.864 12.937 1.864 9.088 0 18.616-2.46 26.189-7.06 4.907-2.981 8.222-7.974 9.095-13.696a19.947 19.947 0 0 0-4.764-16.233c-4.739-5.383-9.644-11.371-14.5-17.689 17.92-4.951 36.628-7.465 55.767-7.465 19.14 0 37.848 2.515 55.767 7.466-4.855 6.317-9.76 12.305-14.5 17.689a19.953 19.953 0 0 0-4.764 16.233c.873 5.722 4.188 10.714 9.096 13.696 7.573 4.601 17.099 7.06 26.188 7.06 4.519 0 8.932-.609 12.938-1.864 6.444-2.019 11.51-6.822 13.899-13.174 2.249-5.978 3.281-12.965 3.152-20.297 20.29 11.926 37.391 27.323 49.927 45.092 15.334 21.736 23.439 46.566 23.439 71.805 0 14.923-2.763 28.495-8.258 40.664a7.471 7.471 0 0 0-.444.94c-5.283 11.337-12.965 21.44-23.019 30.266a7.544 7.544 0 0 0-.511.448c-5.234 4.536-11.091 8.737-17.587 12.586-8.881 5.262-18.849 9.798-29.772 13.593-.065.022-.13.043-.194.067-26.631 9.221-58.965 14.02-95.357 14.02-7.658 0-15.263-.218-22.605-.649a7.5 7.5 0 1 0-.879 14.972zm131.474-17.032c8.99-3.52 17.343-7.542 24.98-12.067a139.717 139.717 0 0 0 12.168-8.094c5.828 10.457 15.155 18.64 26.46 22.964l-1.548 7.981a30.684 30.684 0 0 0-6.17 2.062c-18.177 8.294-40.261 5.243-52.539-2.598a101.466 101.466 0 0 0-3.351-10.248zm11.652 62.42a104.513 104.513 0 0 1-7.815-1.827 100.37 100.37 0 0 0 2.951-24.201c0-2.724-.112-5.432-.327-8.121 7.685 2.793 16.622 4.478 25.944 4.478 8.692 0 17.71-1.462 26.331-4.831l-6.702 34.555c-13.237 2.506-27.116 2.499-40.382-.053zm144.899-118.503-16.412 32.437c-6.102 12.061-18.816 19.855-32.387 19.855a34.32 34.32 0 0 1-2.813-.117c-5.837-.479-11.099 3.533-12.225 9.333l-22.796 117.535c-.641 3.303-3.54 5.701-6.893 5.701-.442 0-.891-.043-1.335-.128-1.707-.326-3.23-1.366-4.289-2.929-1.152-1.702-1.597-3.795-1.219-5.743l19.557-100.834.01-.05 3.149-16.236c1.121-5.779-2.258-11.465-7.86-13.226-9.874-3.106-17.882-10.277-22.128-19.595a111.56 111.56 0 0 0 10.997-12.176c.913 7.15 5.376 13.57 11.829 16.902a9.734 9.734 0 0 0 8.666.114 9.666 9.666 0 0 0 5.246-6.824l9.617-49.584a6.979 6.979 0 0 1 3.116-4.586 6.99 6.99 0 0 1 5.483-.907c3.581.876 5.887 4.723 5.139 8.576l-9.539 49.18a9.707 9.707 0 0 0 2.306 8.299c2.034 2.258 4.935 3.405 7.948 3.139 7.591-.661 14.435-5.279 17.862-12.053l16.412-32.437c1.751-3.462 5.994-4.854 9.457-3.103a6.991 6.991 0 0 1 3.509 4.085 6.996 6.996 0 0 1-.407 5.372zM138.857 199.89c-10.318 2.739-29.786 12.519-37.347 18.1a7.5 7.5 0 0 0 8.908 12.068c6.204-4.579 23.95-13.457 32.288-15.67a7.5 7.5 0 1 0-3.849-14.498zm92.832-21.783a32.102 32.102 0 0 0 24.202-11.022 7.5 7.5 0 0 0-11.309-9.855 17.104 17.104 0 0 1-12.893 5.877 17.106 17.106 0 0 1-12.894-5.877 7.498 7.498 0 0 0-10.581-.726 7.498 7.498 0 0 0-.726 10.581 32.105 32.105 0 0 0 24.201 11.022zm88.984 36.281c8.339 2.214 26.086 11.091 32.288 15.67a7.467 7.467 0 0 0 4.448 1.466 7.5 7.5 0 0 0 4.46-13.534c-7.561-5.581-27.03-15.36-37.347-18.1a7.504 7.504 0 0 0-9.174 5.324 7.502 7.502 0 0 0 5.325 9.174zm-28.026-58.402a7.5 7.5 0 0 0 1.893-.25v5.904a7.5 7.5 0 0 0 15 0v-11.678a7.471 7.471 0 0 0-2.334-5.428l5.792-5.792a7.5 7.5 0 0 0 0-10.606 7.5 7.5 0 0 0-10.606 0l-15.047 15.047a7.5 7.5 0 0 0 5.302 12.803z"/></svg>