<svg xmlns="http://www.w3.org/2000/svg" viewBox="0 0 512 512" style="enable-background:new 0 0 512 512" xml:space="preserve"><path style="fill:#eda751" d="M126.664 453.535a46.57 46.57 0 0 1-14.873-2.413c-21.649-7.267-34.502-29.401-29.898-51.486 1.417-6.798 8.075-11.162 14.874-9.743 6.798 1.417 11.16 8.076 9.743 14.874-2.005 9.621 3.705 19.3 13.284 22.516 21.927 7.359 44.198-20.636 56.61-46.848 2.972-6.275 10.468-8.955 16.744-5.982 6.276 2.971 8.954 10.468 5.982 16.744-11.777 24.873-25.91 42.663-42.004 52.876-9.869 6.263-20.317 9.462-30.462 9.462z"/><path style="fill:#fcd79d" d="M106.905 414.02a18.936 18.936 0 0 1-.396-9.253c1.417-6.798-2.945-13.457-9.743-14.874-6.799-1.42-13.456 2.945-14.874 9.743a44.003 44.003 0 0 0-.618 14.227c5.652 1.589 16.272 2.726 25.631.157z"/><path style="opacity:.2;fill:#c18f00;enable-background:new" d="M193.146 374.453c-6.276-2.972-13.772-.293-16.744 5.982-10.243 21.632-27.202 44.458-45.14 47.645a1068.4 1068.4 0 0 0 .727 25.158c8.443-.917 16.986-3.993 25.135-9.164 16.094-10.213 30.227-28.003 42.004-52.876 2.973-6.277.294-13.774-5.982-16.745z"/><path style="fill:#eda751" d="M200.808 504.497c-.83 0-1.668-.051-2.512-.156-11.025-1.374-18.849-11.425-17.475-22.449 2.591-20.797.634-37.261-1.258-53.184-.37-3.112-.735-6.182-1.063-9.233-1.189-11.046 6.803-20.964 17.85-22.153 11.046-1.194 20.964 6.804 22.153 17.85.312 2.904.66 5.826 1.013 8.788 2.075 17.46 4.427 37.25 1.23 62.906-1.269 10.18-9.937 17.631-19.938 17.631zM266.505 504.497c-.83 0-1.668-.051-2.513-.156-11.025-1.374-18.849-11.424-17.475-22.449 2.59-20.795.635-37.26-1.258-53.181-.369-3.114-.734-6.185-1.063-9.237-1.188-11.047 6.804-20.964 17.851-22.152 11.047-1.188 20.964 6.804 22.153 17.85.312 2.905.66 5.828 1.012 8.792 2.075 17.459 4.427 37.248 1.231 62.902-1.27 10.18-9.938 17.631-19.938 17.631z"/><path style="fill:#7694e4" d="M130.744 373.262c-20.882 0-47.039-4.647-66.185-23.793-7.856-7.856-7.856-20.593 0-28.449 7.856-7.856 20.593-7.856 28.449 0 6.68 6.68 28.104 17.242 61.373 9.402 10.813-2.544 21.646 4.152 24.195 14.966 2.549 10.814-4.152 21.646-14.966 24.195-4.565 1.076-17.238 3.679-32.866 3.679z"/><path style="fill:#eda751" d="M344.419 379.006c-18.81 0-37.033-4.541-49.636-11.241-9.81-5.215-13.535-17.396-8.319-27.206 5.215-9.81 17.393-13.536 27.206-8.32 15.386 8.181 48.068 10.46 61.681-3.156 7.856-7.856 20.594-7.856 28.45 0 7.855 7.856 7.855 20.593 0 28.449-15.51 15.511-37.831 21.474-59.382 21.474z"/><path style="fill:#7694e4" d="M344.419 379.006c-18.81 0-37.033-4.541-49.636-11.241-9.81-5.215-13.535-17.396-8.319-27.206 5.215-9.81 17.393-13.536 27.206-8.32 15.386 8.181 48.068 10.46 61.681-3.156 7.856-7.856 20.594-7.856 28.45 0 7.855 7.856 7.855 20.593 0 28.449-15.51 15.511-37.831 21.474-59.382 21.474z"/><path style="fill:#eda751" d="M375.352 329.083c-2.9 2.9-6.67 5.073-10.949 6.628.349 9.937 4.538 27.001 17.313 36.344 8.159-3.399 15.704-8.141 22.086-14.522 7.855-7.856 7.855-20.593 0-28.449-7.856-7.857-20.594-7.857-28.45-.001z"/><path style="opacity:.2;fill:#a35f00;enable-background:new" d="M287.823 452.919c-.431-10.565-1.555-20.066-2.612-28.957a815.914 815.914 0 0 1-1.012-8.792c-1.189-11.047-11.106-19.038-22.153-17.85-11.047 1.188-19.038 11.106-17.851 22.152.329 3.052.693 6.123 1.063 9.237 1.383 11.636 2.792 23.57 2.444 37.265 14.426-1.946 27.983-6.464 40.121-13.055zM218.502 415.171c-1.189-11.046-11.107-19.043-22.153-17.85-11.046 1.188-19.038 11.106-17.85 22.153.328 3.051.693 6.121 1.063 9.233 1.045 8.79 2.105 17.75 2.413 27.508 12.332 5.709 25.922 9.36 40.265 10.476.399-16.333-1.23-30.145-2.725-42.732-.353-2.962-.7-5.884-1.013-8.788z"/><ellipse style="fill:#fcd690" cx="231.612" cy="360.727" rx="92.78" ry="86.22"/><path style="opacity:.15;fill:#c17a00;enable-background:new" d="M218.062 446.026c-42.4-27.837-29.259-84.892-22.062-109.843v-55.092c-33.569 12.977-57.174 43.742-57.174 79.635 0 43.339 34.416 79.205 79.236 85.3z"/><path style="opacity:.1;enable-background:new" d="M338.584 338.62c-9.535-.702-18.655-3.053-24.914-6.38-9.813-5.217-21.991-1.49-27.206 8.32-5.216 9.81-1.491 21.99 8.319 27.206 11.916 6.335 28.859 10.734 46.57 11.195-.406-15.283-1.332-28.734-2.769-40.341z"/><path style="fill:#7694e4" d="M264.05 450.962c12.586-.008 37.707-.794 56.717-6.311a6.729 6.729 0 0 0 4.856-6.191c2.436-60.132-.236-105.799-8.452-128.009h-61.02v132.603c0 4.367 3.532 7.911 7.899 7.908z"/><path style="fill:#82c7e6" d="M272.826 422.383c0 1.393.695 2.705 1.872 3.449 2.504 1.582 7.5 3.965 14.88 3.965s12.376-2.383 14.88-3.965c1.178-.744 1.872-2.056 1.872-3.449v-28.84a2.59 2.59 0 0 0-2.589-2.59h-28.326a2.59 2.59 0 0 0-2.59 2.59l.001 28.84z"/><path style="opacity:.1;enable-background:new" d="M154.381 330.422c-10.991 2.59-20.68 3.164-28.981 2.54-1.663 11.363-2.777 24.716-3.339 40.02 2.969.192 5.875.28 8.683.28 15.627 0 28.3-2.603 32.866-3.679 10.814-2.549 17.514-13.381 14.966-24.195s-13.382-17.51-24.195-14.966z"/><path style="fill:#7694e4" d="M199.173 450.962c-12.586-.008-37.707-.794-56.717-6.311a6.729 6.729 0 0 1-4.856-6.191c-2.436-60.132.236-105.799 8.452-128.009h61.02v132.603c0 4.367-3.532 7.911-7.899 7.908z"/><path style="fill:#dee2e5" d="M237.874 152.197c16.586-8.233 44.456-9.919 62.751-10.786 4.867-.231 9.062-3.426 10.655-8.03 6.497-18.782 24.099-51.89 32.59-66.958 1.737-3.082-.99-6.766-4.443-5.999-10.906 2.423-28.455 7.02-39.156 12.017-2.487 1.162-5.195-1.115-4.459-3.76 2.944-10.583 9.128-26.759 13.65-36.665 1.577-3.455-1.505-7.23-5.198-6.343-17.942 4.308-31.976 16.146-43.496 27.76-2.219 2.237-5.998 1.471-7.208-1.439-6.857-16.489-14.213-32.935-18.429-42.228-1.373-3.026-5.667-3.026-7.04 0-4.216 9.293-11.572 25.739-18.429 42.228-1.21 2.909-4.989 3.676-7.208 1.439-11.52-11.614-25.555-23.452-43.496-27.76-3.693-.887-6.775 2.888-5.198 6.343 4.522 9.907 10.706 26.083 13.65 36.665.736 2.645-1.971 4.922-4.459 3.76-10.701-4.997-28.25-9.594-39.156-12.017-3.454-.767-6.18 2.917-4.443 5.999 8.491 15.068 26.094 48.176 32.59 66.958 1.593 4.605 5.788 7.799 10.655 8.03 18.295.867 46.164 2.553 62.751 10.786a14.116 14.116 0 0 0 12.526 0z"/><path style="fill:#eda751" d="M175.146 211.224c18.156-15.235 30.278-40.809 4.669-78.615-25.811-38.105-64.24-47.656-94.242-44.122a18.759 18.759 0 0 0-15.745 13.212c-8.691 28.932-5.957 68.436 27.087 100.472 32.784 31.784 60.075 24.287 78.231 9.053z"/><path style="fill:#ff91ab" d="M68.62 106.125c-7.125 28.447-3.096 65.612 28.294 96.045 28.417 27.55 52.701 25.582 70.492 14.649-12.235-83.062-65.685-105.088-98.786-110.694z"/><path style="fill:#eda751" d="M288.077 211.224c-18.156-15.235-30.278-40.809-4.669-78.615 25.811-38.105 64.241-47.656 94.242-44.122a18.759 18.759 0 0 1 15.745 13.212c8.691 28.932 5.957 68.436-27.087 100.472-32.784 31.784-60.075 24.287-78.231 9.053z"/><path style="fill:#ff91ab" d="M394.603 106.125c7.125 28.447 3.096 65.612-28.294 96.045-28.417 27.55-52.701 25.582-70.492 14.649 12.236-83.062 65.686-105.088 98.786-110.694z"/><path style="fill:#ffdc9c" d="M389.577 234.218c0 72.226-70.724 103.86-157.965 103.86-87.242 0-157.965-31.634-157.965-103.86s70.723-130.777 157.965-130.777c87.241 0 157.965 58.551 157.965 130.777z"/><path style="opacity:.15;fill:#c17a00;enable-background:new" d="M147.266 123.632c-44.24 23.176-73.62 64.038-73.62 110.586 0 62.088 52.263 94.179 122.354 101.965-100.614-60.1-87.492-140.939-48.734-212.551z"/><ellipse style="fill:#ff91ab" cx="154.092" cy="237.267" rx="28.601" ry="22.777"/><ellipse style="fill:#ff91ab" cx="309.122" cy="237.267" rx="28.601" ry="22.777"/><circle style="fill:#fff" cx="170.762" cy="209.497" r="30.52"/><circle style="fill:#fff" cx="292.452" cy="209.497" r="30.52"/><path style="fill:#82c7e6" d="m431.837 364.711 18.967 18.506c4.856 4.738 2.312 12.984-4.37 14.162l-59.275 10.452c-6.682 1.178-11.893-5.7-8.95-11.814l11.493-23.877a30.524 30.524 0 0 0 2.557-18.543l-5.418-30.729a5.268 5.268 0 0 1 4.272-6.102l20.457-3.607a5.268 5.268 0 0 1 6.102 4.272l5.418 30.729a30.545 30.545 0 0 0 8.747 16.551z"/><path style="fill:#f5d141" d="m450.804 383.217-18.967-18.506a30.896 30.896 0 0 1-1.653-1.745c-11.589 2.207-26.111 8.2-40.431 9.059-.018.038-.032.078-.05.116l-11.494 23.877c-2.943 6.113 2.268 12.992 8.95 11.814l59.275-10.452c6.682-1.179 9.226-9.425 4.37-14.163z"/><path style="fill:#82c7e6" d="M190.397 422.383c0 1.393-.695 2.705-1.872 3.449-2.504 1.582-7.5 3.965-14.88 3.965s-12.376-2.383-14.88-3.965c-1.177-.744-1.872-2.056-1.872-3.449v-28.84a2.59 2.59 0 0 1 2.59-2.59h28.325a2.59 2.59 0 0 1 2.59 2.59l-.001 28.84z"/><path style="fill:#eda751" d="M93.009 321.02c-7.856-7.856-20.593-7.856-28.449 0s-7.856 20.593 0 28.449c4.772 4.772 9.979 8.642 15.432 11.765 16.3-10.319 20.754-24.709 21.86-34.267-4.028-1.966-7-4.104-8.843-5.947z"/><path d="M231.611 229.798a28.78 28.78 0 0 0 21.696-9.88 7.5 7.5 0 0 0-11.309-9.856c-2.622 3.01-6.409 4.736-10.388 4.736s-7.765-1.726-10.387-4.736a7.501 7.501 0 0 0-11.309 9.856 28.783 28.783 0 0 0 21.697 9.88zm-43.804 153.656h-28.326c-5.563 0-10.089 4.526-10.089 10.09v28.839c0 4.006 2.005 7.666 5.367 9.79 3.701 2.338 9.981 5.124 18.886 5.124 8.904 0 15.185-2.786 18.886-5.125 3.36-2.123 5.366-5.783 5.366-9.79v-28.839c0-5.563-4.526-10.089-10.09-10.089zm-4.91 36.923c-1.98.935-5.062 1.92-9.252 1.92-4.191 0-7.273-.985-9.252-1.92v-21.923h18.504v21.923zM302.989 251.97a7.5 7.5 0 0 0 5.324 9.173c6.98 1.852 22.4 9.562 27.585 13.389a7.47 7.47 0 0 0 4.448 1.466 7.5 7.5 0 0 0 4.46-13.535c-6.608-4.877-23.626-13.424-32.644-15.818a7.499 7.499 0 0 0-9.173 5.325zm-124.723-37.428v-10.1a7.5 7.5 0 0 0-15 0v10.1a7.5 7.5 0 0 0 15 0zm138.762 25.473c7.16-.946 24.354.306 30.605 1.869a7.54 7.54 0 0 0 1.824.226 7.5 7.5 0 0 0 1.812-14.778c-7.967-1.992-26.956-3.411-36.207-2.188a7.5 7.5 0 0 0-6.453 8.418c.544 4.107 4.323 6.993 8.419 6.453zm-17.07-25.473v-10.1c0-4.142-3.357-7.5-7.5-7.5s-7.5 3.358-7.5 7.5v10.1c0 4.142 3.357 7.5 7.5 7.5s7.5-3.357 7.5-7.5zm3.784 168.912h-28.326c-5.564 0-10.089 4.526-10.089 10.09v28.839c0 4.007 2.006 7.666 5.367 9.79 3.7 2.338 9.98 5.124 18.885 5.124 8.906 0 15.186-2.787 18.886-5.125 3.36-2.123 5.366-5.783 5.366-9.79v-28.839c0-5.563-4.526-10.089-10.089-10.089zm-4.911 36.923c-1.979.935-5.061 1.92-9.252 1.92-4.19 0-7.272-.985-9.252-1.92v-21.923h18.504v21.923zm-147.77-173.732c-9.021 2.395-26.037 10.941-32.644 15.818a7.5 7.5 0 0 0 4.46 13.534 7.467 7.467 0 0 0 4.448-1.466c5.184-3.826 20.603-11.536 27.584-13.389a7.501 7.501 0 0 0 5.325-9.173 7.501 7.501 0 0 0-9.173-5.324zm304.981 131.204-18.968-18.506a22.897 22.897 0 0 1-6.596-12.484l-5.419-30.728a12.683 12.683 0 0 0-5.25-8.242 12.688 12.688 0 0 0-9.54-2.115l-20.457 3.607a12.689 12.689 0 0 0-9.695 8.008 27.292 27.292 0 0 0-10.069 6.393c-6.285 6.286-22.648 9.911-40.411 6.049-.071-.431-.146-.849-.218-1.273 6.302-2.659 12.219-5.616 17.713-8.871 32.674-19.358 49.944-48.913 49.944-85.467 0-15.961-3.211-31.493-9.36-46.094 17.279-26.164 21.99-58.193 12.862-88.583a26.217 26.217 0 0 0-22.051-18.503c-11.883-1.402-23.695-.807-35.019 1.639a706.398 706.398 0 0 1 6.896-12.573 11.604 11.604 0 0 0-.788-12.595 11.589 11.589 0 0 0-11.816-4.406c-4.973 1.105-19.644 4.527-32.1 9.039 3.151-9.339 7.403-20.043 10.585-27.011 1.933-4.236 1.294-9.1-1.667-12.695-2.953-3.584-7.588-5.139-12.104-4.055-18.483 4.438-32.914 16-43.789 26.526-6.495-15.428-13.182-30.344-16.764-38.239C240.094 2.556 236.129 0 231.612 0h-.001c-4.517 0-8.482 2.556-10.35 6.67-3.581 7.895-10.269 22.81-16.763 38.239-10.875-10.527-25.306-22.088-43.789-26.526-4.514-1.085-9.152.471-12.105 4.055-2.961 3.594-3.6 8.459-1.667 12.694 3.181 6.97 7.434 17.674 10.584 27.011-12.455-4.511-27.126-7.934-32.1-9.039a11.6 11.6 0 0 0-11.817 4.408 11.604 11.604 0 0 0-.787 12.595 708.908 708.908 0 0 1 6.896 12.573c-11.323-2.445-23.134-3.039-35.019-1.64a26.215 26.215 0 0 0-22.051 18.503c-9.128 30.389-4.417 62.418 12.862 88.583-6.15 14.602-9.36 30.134-9.36 46.095 0 17.476 3.91 33.407 11.621 47.35a7.5 7.5 0 0 0 13.126-7.258c-6.468-11.696-9.747-25.185-9.747-40.091 0-67.975 67.498-123.277 150.465-123.277s150.465 55.302 150.465 123.277c0 31.405-14.329 55.818-42.59 72.563-6.413 3.799-13.486 7.158-21.154 10.07-.16.058-.32.115-.473.183-17.792 6.693-38.776 10.977-62.228 12.691-.099.007-.199.009-.296.02-7.655.552-15.57.833-23.724.833-50.832 0-93.134-11.163-119.112-31.434a7.5 7.5 0 1 0-9.228 11.826c7.059 5.508 15.034 10.378 23.842 14.604-19.799-1.126-28.697-9.754-28.802-9.859-10.768-10.767-28.288-10.768-39.056 0s-10.768 28.289 0 39.056c4.811 4.811 10.26 8.956 16.246 12.461.432.323.896.59 1.38.811 14.607 8.188 32.416 12.516 52.579 12.693-.305 12.26-.287 25.641.061 40.037-2.548.393-4.978.194-7.342-.6-5.979-2.008-9.56-7.973-8.329-13.876a19.942 19.942 0 0 0-2.859-15.095 19.937 19.937 0 0 0-12.692-8.651 19.941 19.941 0 0 0-15.098 2.858 19.943 19.943 0 0 0-8.651 12.695c-5.379 25.803 9.605 51.651 34.854 60.128a54.118 54.118 0 0 0 17.254 2.803h.005c8.901 0 17.801-2.098 26.492-6.226 7.1 1.294 14.432 2.145 21.346 2.695.207 8.087-.155 15.682-1.125 23.46-.912 7.32 1.081 14.557 5.612 20.378 4.531 5.821 11.059 9.529 18.38 10.441 1.14.142 2.296.213 3.437.213 13.89 0 25.66-10.406 27.379-24.204 1.389-11.142 1.864-21.937 1.484-33.38.647.012 1.293.03 1.941.03 2.829 0 5.652-.124 8.462-.344.424 9.457.106 17.997-.999 26.865-.912 7.32 1.081 14.557 5.612 20.378 4.531 5.821 11.058 9.529 18.38 10.441a27.92 27.92 0 0 0 3.438.213 27.571 27.571 0 0 0 24.289-14.512 7.5 7.5 0 0 0-13.203-7.12 12.655 12.655 0 0 1-12.672 6.533 12.54 12.54 0 0 1-8.396-4.77 12.536 12.536 0 0 1-2.564-9.31c1.127-9.049 1.515-17.745 1.193-27.2a15.257 15.257 0 0 0 8.892 2.844h.01a327.883 327.883 0 0 0 16.412-.422c.021 1.13.035 2.257.037 3.384a7.5 7.5 0 0 0 7.5 7.487h.013a7.5 7.5 0 0 0 7.487-7.513 219.823 219.823 0 0 0-.059-4.517c9.262-.984 18.881-2.551 27.413-5.027a14.218 14.218 0 0 0 10.259-13.09c.777-19.188 1.027-36.837.758-52.719 3.534.297 7.059.46 10.545.46 11.51 0 22.402-1.599 32.293-4.671l-5.261 10.93a15.765 15.765 0 0 0 1.646 16.423 15.748 15.748 0 0 0 12.585 6.272c.92 0 1.85-.08 2.779-.244l59.273-10.452a15.764 15.764 0 0 0 12.376-10.92 15.747 15.747 0 0 0-4.064-15.996zM115.13 135.967c-13.023 10.781-23.626 23.051-31.6 36.353-11.722-21.98-11.423-43.313-9.076-57.379 12.547 2.905 28 8.6 42.289 19.722-.538.435-1.08.864-1.613 1.304zm14.146-10.452c-16.935-14.244-35.562-21.409-50.613-24.994a11.22 11.22 0 0 1 7.788-4.586c11.587-1.366 39.327-1.996 64.928 17.269a170.337 170.337 0 0 0-22.103 12.311zm102.335-29.574c-22.494 0-44.309 3.735-64.434 10.835a104.663 104.663 0 0 0-27.018-17.421 856.392 856.392 0 0 0-10.519-19.849c10.618 2.64 22.553 6.188 30.138 9.731 3.839 1.793 8.233 1.207 11.465-1.53 3.227-2.732 4.527-6.961 3.393-11.035-2.644-9.505-7.427-22.298-11.49-31.917 13.988 5.074 25.374 15.28 33.984 23.96a11.866 11.866 0 0 0 10.731 3.292 11.92 11.92 0 0 0 8.726-7.133c5.292-12.728 10.93-25.526 15.024-34.666 4.094 9.14 9.731 21.938 15.023 34.665a11.915 11.915 0 0 0 8.726 7.134 11.871 11.871 0 0 0 10.732-3.292c8.609-8.68 19.995-18.886 33.983-23.96-4.063 9.615-8.845 22.406-11.49 31.917-1.133 4.075.167 8.303 3.395 11.035 3.232 2.738 7.624 3.323 11.464 1.529 7.586-3.543 19.52-7.091 30.138-9.731a854.775 854.775 0 0 0-10.519 19.849 104.667 104.667 0 0 0-27.018 17.422c-20.124-7.1-41.94-10.835-64.434-10.835zm80.234 17.263c25.6-19.265 53.34-18.633 64.927-17.27a11.222 11.222 0 0 1 7.789 4.586c-15.051 3.585-33.68 10.75-50.614 24.994a170.622 170.622 0 0 0-22.102-12.31zm67.848 59.117c-7.974-13.302-18.577-25.572-31.6-36.353-.532-.441-1.074-.869-1.613-1.303 14.289-11.122 29.742-16.818 42.29-19.723 2.346 14.065 2.644 35.399-9.077 57.379zM79.746 352.216c-3.982-2.645-7.248-5.415-9.883-8.051-4.919-4.919-4.919-12.923 0-17.843 4.919-4.919 12.924-4.919 17.842 0 1.551 1.551 3.506 3.116 5.837 4.615-1.63 6.793-5.438 14.715-13.796 21.279zm14.354 7.352c7.2-7.153 11.173-15.089 13.3-22.335 6.914 2.146 15.191 3.511 24.664 3.456-.891 7.542-1.57 15.921-2.04 25.064-14.684-.079-26.496-2.567-35.924-6.185zm32.563 86.467h-.004c-4.282 0-8.482-.681-12.482-2.023-18.048-6.059-28.771-24.478-24.942-42.846a5.04 5.04 0 0 1 2.187-3.21 5.032 5.032 0 0 1 3.815-.721 5.04 5.04 0 0 1 3.208 2.186 5.039 5.039 0 0 1 .722 3.815c-2.781 13.337 5.06 26.732 18.24 31.158a30.058 30.058 0 0 0 12.588 1.441c.037.974.073 1.945.113 2.927a14.19 14.19 0 0 0 2.119 6.9c-1.86.247-3.715.373-5.564.373zm55.247-3.055c-8.863-.497-18.876-1.47-28.168-3.317-.077-.017-.154-.032-.231-.047a111.498 111.498 0 0 1-8.44-2.016c-1.77-44.196-.712-79.727 3.049-103.69 15.376 4.986 32.609 8.408 51.452 10.198v98.947c0 .047 0 .174-.12.294-.113.113-.215.086-.275.114a316.025 316.025 0 0 1-16.939-.465c-.109-.008-.218-.016-.328-.018zm31.392 42.958c-.785 6.305-6.157 11.059-12.494 11.059-.525 0-1.059-.033-1.585-.099a12.537 12.537 0 0 1-8.396-4.77 12.535 12.535 0 0 1-2.564-9.31c1.017-8.157 1.432-16.106 1.27-24.504 3.613.108 6.88.147 9.636.148h.01c4.115 0 7.982-1.604 10.89-4.517.452-.453.861-.937 1.249-1.434 1.096.211 2.195.404 3.298.581.47 11.337.048 21.919-1.314 32.846zm35.348-48.076a93.48 93.48 0 0 1-34.078 0v-92.691c5.561.265 11.237.407 17.039.407 5.79 0 11.471-.137 17.039-.408v92.692zm69.501-.263c-9.48 2.689-20.562 4.172-30.759 4.973h-.105c-.094.005-.186.021-.279.029-8.918.688-17.131.857-22.962.861-.036-.003-.161 0-.275-.114-.12-.12-.12-.247-.12-.294v-98.967c18.771-1.804 36.035-5.239 51.445-10.226 3.766 23.965 4.826 59.514 3.055 103.738zm26.268-66.093c-3.622 0-7.297-.204-10.979-.568-.384-9.271-.976-17.799-1.768-25.545a87.35 87.35 0 0 0 12.599.931c4.658 0 9.293-.397 13.721-1.219 1.513 7.796 4.665 16.355 10 23.622-7.299 1.835-15.225 2.779-23.573 2.779zm27.963-31.176c3.109-1.621 5.915-3.584 8.274-5.944.167-.167.343-.321.518-.478l3.701 20.991c.431 2.445.461 4.904.111 7.31-.658.357-1.323.707-2 1.044-6.492-6.522-9.52-15.9-10.604-22.923zm73.397 49.092c-.149.483-.485.543-.647.571l-59.274 10.452c-.16.029-.497.09-.804-.315-.306-.404-.157-.712-.086-.859l11.493-23.877a37.807 37.807 0 0 0 3.186-23.098l-5.03-28.53 16.06-2.832 5.031 28.529a37.8 37.8 0 0 0 10.892 20.616h.001l18.967 18.506c.116.114.36.353.211.837zM148.161 225.144c-9.25-1.221-28.24.196-36.208 2.188a7.5 7.5 0 1 0 3.638 14.552c6.251-1.563 23.444-2.816 30.605-1.869a7.5 7.5 0 0 0 8.418-6.453 7.501 7.501 0 0 0-6.453-8.418z"/><path style="fill:#7694e4" d="M170.766 247.513c-20.964 0-38.02-17.056-38.02-38.021 0-20.964 17.056-38.02 38.02-38.02s38.02 17.056 38.02 38.02c0 20.965-17.056 38.021-38.02 38.021zm0-61.041c-12.693 0-23.02 10.327-23.02 23.02s10.327 23.021 23.02 23.021 23.02-10.327 23.02-23.021c0-12.693-10.327-23.02-23.02-23.02zM292.458 247.513c-20.965 0-38.021-17.056-38.021-38.021 0-20.964 17.056-38.02 38.021-38.02 20.964 0 38.02 17.056 38.02 38.02-.001 20.965-17.057 38.021-38.02 38.021zm0-61.041c-12.693 0-23.021 10.327-23.021 23.02s10.327 23.021 23.021 23.021c12.693 0 23.02-10.327 23.02-23.021-.001-12.693-10.327-23.02-23.02-23.02z"/><path style="fill:#7694e4" d="M264.817 204.041a7.469 7.469 0 0 1-4.996-1.909c-.073-.066-7.577-6.562-28.209-6.562s-28.136 6.496-28.209 6.562a7.5 7.5 0 0 1-9.999-11.181c5.612-5.018 18.596-10.38 38.208-10.38s32.596 5.362 38.208 10.38a7.5 7.5 0 0 1-5.003 13.09z"/></svg>