<svg xmlns="http://www.w3.org/2000/svg" viewBox="0 0 512 512" style="enable-background:new 0 0 512 512" xml:space="preserve"><path style="fill:#eda751" d="M190.717 358.892c20.991-17.487 35.007-46.842 5.398-90.238-29.842-43.738-74.273-54.702-108.96-50.645-8.552 1-15.727 6.978-18.204 15.165-10.048 33.209-6.888 78.553 31.316 115.326 37.905 36.484 69.458 27.879 90.45 10.392z"/><path style="fill:#ff91ab" d="M67.555 238.257c-8.237 32.652-3.58 75.312 32.713 110.244 32.855 31.623 60.931 29.363 81.501 16.815-14.147-95.342-75.944-120.625-114.214-127.059z"/><path style="fill:#eda751" d="M321.284 358.892c-20.991-17.487-35.007-46.842-5.398-90.238 29.842-43.738 74.273-54.702 108.96-50.645 8.552 1 15.727 6.978 18.204 15.165 10.048 33.209 6.888 78.553-31.317 115.326-37.905 36.484-69.458 27.879-90.449 10.392z"/><path style="fill:#ff91ab" d="M444.445 238.257c8.237 32.652 3.58 75.312-32.713 110.244-32.855 31.623-60.931 29.363-81.501 16.815 14.148-95.342 75.944-120.625 114.214-127.059z"/><path style="fill:#ffdc9c" d="M438.634 385.285c0 82.904-81.768 119.215-182.634 119.215S73.366 468.189 73.366 385.285 155.134 235.175 256 235.175s182.634 67.207 182.634 150.11z"/><path style="opacity:.15;fill:#c17a00;enable-background:new" d="M158.482 258.352c-51.149 26.602-85.116 73.505-85.116 126.934 0 71.267 60.424 108.102 141.461 117.039C98.501 433.34 113.672 340.55 158.482 258.352z"/><ellipse style="fill:#ff91ab" cx="166.38" cy="388.78" rx="33.07" ry="26.14"/><ellipse style="fill:#ff91ab" cx="345.62" cy="388.78" rx="33.07" ry="26.14"/><ellipse style="fill:#ff91ab" cx="256" cy="382.95" rx="26.589" ry="32.687"/><path style="fill:#f5d141" d="M301.456 90.614c0-25.564-21.104-46.2-46.841-45.435-23.651.703-43.062 19.883-44.031 43.524-.583 14.223 5.376 27.064 15.111 35.776 5.945 5.32 9.495 12.806 9.495 20.784v5.588h41.621v-5.59c0-7.859 3.346-15.36 9.241-20.557 9.444-8.326 15.404-20.509 15.404-34.09z"/><path style="fill:#f5d141" d="M301.456 90.614c0-25.564-21.104-46.2-46.841-45.435-23.651.703-43.062 19.883-44.031 43.524-.583 14.223 5.376 27.064 15.111 35.776 5.945 5.32 9.495 12.806 9.495 20.784v5.588h41.621v-5.59c0-7.859 3.346-15.36 9.241-20.557 9.444-8.326 15.404-20.509 15.404-34.09z"/><path style="opacity:.2;fill:#c18f00;enable-background:new" d="M250.447 150.851c1.12-13.918-.444-29.511-11.182-40.641-16.653-17.261-12.338-46.43-.054-61.801-16.164 6.5-27.88 22.066-28.628 40.293-.583 14.223 5.376 27.064 15.111 35.777 5.945 5.32 9.495 12.806 9.495 20.784v5.588h15.258z"/><circle style="fill:#495059" cx="256" cy="180.22" r="26.802"/><path style="fill:#dee2e5" d="M283.431 182.17h-54.863a8.995 8.995 0 0 1-8.995-8.995v-13.329a8.995 8.995 0 0 1 8.995-8.995h54.863a8.995 8.995 0 0 1 8.995 8.995v13.329a8.994 8.994 0 0 1-8.995 8.995z"/><path style="opacity:.1;enable-background:new" d="M244.78 150.851h-16.211a8.995 8.995 0 0 0-8.995 8.995v13.329a8.995 8.995 0 0 0 8.995 8.995h16.802c-5.521-8.121-5.032-24.606-.591-31.319z"/><path d="M220.693 130.067c3.958 3.542 6.408 8.321 6.899 13.333-8.641.509-15.52 7.679-15.52 16.446v13.329c0 7.046 4.449 13.057 10.678 15.416 3.773 14.931 17.378 25.927 33.248 25.927 15.871 0 29.476-10.996 33.249-25.927 6.229-2.359 10.678-8.37 10.678-15.416v-13.329c0-8.768-6.882-15.939-15.525-16.446.468-5.038 2.815-9.725 6.609-13.07a53.371 53.371 0 0 0 5.958-6.174 7.5 7.5 0 0 0-1.043-10.555 7.5 7.5 0 0 0-10.555 1.043 38.46 38.46 0 0 1-4.28 4.434c-7.01 6.18-11.22 14.941-11.728 24.272h-26.729c-.522-9.252-4.806-18.078-11.938-24.461-8.487-7.595-13.086-18.485-12.619-29.88.811-19.786 16.958-35.746 36.761-36.334 20.736-.635 38.251 15.7 39.086 36.372a7.494 7.494 0 0 0 7.796 7.191 7.5 7.5 0 0 0 7.191-7.797c-1.166-28.849-25.613-51.6-54.519-50.761-27.636.822-50.17 23.098-51.303 50.713-.648 15.891 5.768 31.081 17.606 41.674zM256 199.518c-7.143 0-13.457-3.966-16.79-9.848h33.581c-3.334 5.881-9.648 9.848-16.791 9.848zm27.432-41.167c.824 0 1.495.671 1.495 1.495v13.329c0 .824-.671 1.495-1.495 1.495h-54.863a1.497 1.497 0 0 1-1.495-1.495v-13.329c0-.824.671-1.495 1.495-1.495h54.863zM179.939 53.328l12.493 7.564a7.498 7.498 0 0 0 10.3-2.531A7.5 7.5 0 0 0 200.2 48.06l-12.493-7.563a7.5 7.5 0 1 0-7.768 12.831zM256 29.351a7.5 7.5 0 0 0 7.5-7.5V7.5c0-4.143-3.358-7.5-7.5-7.5s-7.5 3.357-7.5 7.5v14.351a7.5 7.5 0 0 0 7.5 7.5zm-82.832 84.876c.475 0 .957-.045 1.44-.139l14.335-2.789a7.5 7.5 0 0 0-2.864-14.725l-14.336 2.789a7.5 7.5 0 0 0 1.425 14.864zm143.958-11.723a7.5 7.5 0 0 0 5.93 8.795l14.335 2.789a7.5 7.5 0 0 0 2.863-14.724l-14.335-2.789a7.5 7.5 0 0 0-8.793 5.929zm-1.435-40.527c1.323 0 2.663-.35 3.877-1.085l12.493-7.564a7.5 7.5 0 0 0-7.769-12.832L311.8 48.06a7.5 7.5 0 0 0 3.891 13.917zm38.904 328.865c8.558-1.122 28.358.314 35.841 2.171.607.15 1.214.223 1.813.223a7.501 7.501 0 0 0 1.8-14.781c-9.113-2.262-30.829-3.873-41.406-2.485a7.5 7.5 0 1 0 1.952 14.872zm-64.506-7.888c0-22.159-15.292-40.188-34.089-40.188s-34.089 18.028-34.089 40.188S237.203 423.14 256 423.14s34.089-18.027 34.089-40.186zm-53.178 0c0-13.889 8.564-25.188 19.089-25.188 10.526 0 19.089 11.299 19.089 25.188 0 13.888-8.563 25.186-19.089 25.186-10.526.001-19.089-11.298-19.089-25.186zm96.937-20.253v-11.593c0-4.143-3.358-7.5-7.5-7.5s-7.5 3.357-7.5 7.5v11.593c0 4.143 3.358 7.5 7.5 7.5s7.5-3.357 7.5-7.5zm5.805 43.258a7.5 7.5 0 0 0 5.341 9.164c8.34 2.198 26.09 11.014 32.295 15.561a7.466 7.466 0 0 0 4.427 1.451 7.5 7.5 0 0 0 4.439-13.55c-7.56-5.54-27.024-15.247-37.337-17.965a7.501 7.501 0 0 0-9.165 5.339zm110.575-174.956c-3.349-11.068-12.97-19.093-24.512-20.442-34.87-4.083-69.191 6.732-94.948 29.721-23.325-8.26-48.648-12.607-74.767-12.607-26.12 0-51.442 4.347-74.768 12.607-25.758-22.987-60.082-33.792-94.948-29.721-11.541 1.35-21.163 9.374-24.512 20.442-10.518 34.763-5.009 71.408 15.052 101.261-7.201 16.784-10.958 34.655-10.958 53.021 0 48.485 26.358 85.393 76.226 106.732a7.5 7.5 0 0 0 5.902-13.791c-21.336-9.13-37.868-21.344-49.14-36.304-11.935-15.841-17.987-34.897-17.987-56.638 0-78.636 78.565-142.61 175.134-142.61s175.134 63.975 175.134 142.61c0 36.457-16.753 64.797-49.795 84.232C350.773 487.496 307.431 497 256 497c-27.464 0-52.749-2.719-75.152-8.082a7.5 7.5 0 0 0-3.492 14.588C200.901 509.143 227.361 512 256 512c54.103 0 100.075-10.22 132.944-29.554 37.414-22.008 57.189-55.605 57.189-97.161 0-18.366-3.757-36.237-10.958-53.021 20.061-29.853 25.57-66.499 15.053-101.261zm-328.132 42.345c-15.543 12.775-28.083 27.383-37.35 43.239-15.081-26.767-14.383-52.9-11.393-69.566 15.165 3.345 34.219 10.165 51.663 23.984-.98.773-1.956 1.55-2.92 2.343zm15.503-11.43c-20.179-17.091-42.549-25.377-60.271-29.377 2.18-3.869 6.127-6.548 10.698-7.083 13.772-1.611 47.063-2.354 77.403 21.158-9.745 4.384-19.054 9.496-27.83 15.302zm208.972-15.301c30.339-23.509 63.629-22.768 77.402-21.158 4.571.535 8.518 3.213 10.698 7.083-17.72 3.999-40.09 12.285-60.271 29.376-8.775-5.806-18.084-10.918-27.829-15.301zm80.682 69.969c-9.267-15.855-21.806-30.463-37.35-43.239-.964-.792-1.94-1.57-2.921-2.343 17.446-13.82 36.499-20.64 51.663-23.984 2.991 16.667 3.689 42.8-11.392 69.566zm-269.848 74.256c4.102.532 7.872-2.355 8.412-6.461a7.5 7.5 0 0 0-6.461-8.412c-10.577-1.384-32.293.224-41.406 2.485a7.501 7.501 0 0 0 3.613 14.558c7.484-1.856 27.285-3.292 35.842-2.17zm28.247-20.641a7.5 7.5 0 0 0 7.5-7.5v-11.593c0-4.143-3.358-7.5-7.5-7.5s-7.5 3.357-7.5 7.5v11.593a7.5 7.5 0 0 0 7.5 7.5zm-13.305 35.758a7.5 7.5 0 0 0-9.164-5.34c-10.313 2.718-29.777 12.425-37.337 17.965a7.5 7.5 0 1 0 8.866 12.099c6.206-4.547 23.956-13.362 32.295-15.561a7.498 7.498 0 0 0 5.34-9.163z"/></svg>