<svg xmlns="http://www.w3.org/2000/svg" viewBox="0 0 512.001 512.001" style="enable-background:new 0 0 512.001 512.001" xml:space="preserve"><path style="fill:#eda751" d="M183.223 441.093c-13.877.001-28.047-6.298-39.956-18.188-16.01-15.984-29.976-19.456-37.702-17.379-5.739 1.543-9.787 6.593-12.034 15.008-1.886 7.067-9.142 11.266-16.212 9.38-7.067-1.887-11.267-9.145-9.38-16.212 4.727-17.707 15.647-29.695 30.748-33.755 19.549-5.256 42.617 3.57 63.296 24.213 8.945 8.931 19.297 12.403 27.689 9.291 8.76-3.249 14.408-13.321 15.497-27.635.555-7.294 6.917-12.763 14.211-12.201 7.294.555 12.757 6.917 12.201 14.211-1.879 24.7-14.103 43.564-32.699 50.461a44.924 44.924 0 0 1-15.659 2.806z"/><path style="fill:#fcd79d" d="M93.53 420.533c1.07-4.009 2.554-7.244 4.43-9.71-8.703-8.563-18.351-9.836-25.248-9.473-1.968 3.725-3.574 7.851-4.775 12.351-1.886 7.067 2.313 14.326 9.38 16.212 7.071 1.886 14.327-2.314 16.213-9.38z"/><path style="fill:#eda751" d="M239.43 503.518c-.873 0-1.755-.054-2.644-.165-11.614-1.445-19.857-12.032-18.411-23.646 3.794-30.481 2.217-47.773-1.557-65.795-2.399-11.455 4.942-22.686 16.397-25.085 11.454-2.399 22.686 4.942 25.085 16.397 4.538 21.671 6.638 43.52 2.133 79.717-1.336 10.726-10.467 18.577-21.003 18.577zM167.252 368.699c-13.818 0-28.13-4.047-40.382-12.209-25.709-17.127-34.827-47.324-23.796-78.806 3.871-11.045 15.963-16.86 27.007-12.991 11.045 3.87 16.861 15.961 12.991 27.007-4.648 13.265-2.194 23.196 7.296 29.518 10.012 6.67 23.349 6.387 28.586 1.678 8.701-7.826 22.1-7.116 29.927 1.586 7.826 8.701 7.116 22.1-1.585 29.927-10.562 9.498-25.01 14.29-40.044 14.29z"/><path style="opacity:.1;fill:#c18f00;enable-background:new" d="M130.081 264.693c-8.477-2.969-17.557-.219-23.077 6.209 8.036 13.366 19.376 24.98 33.86 34.559-.301-4.089.428-8.678 2.209-13.761 3.869-11.046-1.947-23.137-12.992-27.007z"/><path style="fill:#eda751" d="M371.985 368.699c-15.035 0-29.481-4.792-40.042-14.291-8.702-7.827-9.412-21.225-1.586-29.927 7.828-8.702 21.227-9.411 29.927-1.586 5.236 4.71 18.575 4.993 28.587-1.678 9.489-6.322 11.944-16.253 7.296-29.518-3.87-11.045 1.946-23.136 12.991-27.007 11.044-3.87 23.136 1.946 27.007 12.991 11.031 31.481 1.913 61.678-23.796 78.806-12.252 8.162-26.568 12.21-40.384 12.21z"/><path style="opacity:.1;fill:#c18f00;enable-background:new" d="M409.158 264.693c-11.045 3.87-16.861 15.961-12.991 27.007 1.781 5.083 2.51 9.673 2.209 13.761 14.484-9.579 25.824-21.193 33.86-34.56-5.521-6.428-14.601-9.179-23.078-6.208z"/><path style="fill:#eda751" d="M314.572 504.5c-1.401 0-2.82-.139-4.247-.429-11.468-2.333-18.874-13.521-16.542-24.989 5.233-25.725 1.735-37.495-4.407-54.571-3.961-11.013 1.756-23.151 12.768-27.113 11.014-3.958 23.151 1.756 27.113 12.768 7.616 21.175 13.329 41.613 6.057 77.363-2.041 10.043-10.876 16.971-20.742 16.971z"/><path style="opacity:.2;fill:#c18f00;enable-background:new" d="M219.379 373.613c-7.294-.561-13.656 4.908-14.211 12.201-1.089 14.313-6.737 24.386-15.497 27.635-6.174 2.289-13.41 1.003-20.366-3.389 7.496 11.058 16.999 20.795 28.016 28.764a44.22 44.22 0 0 0 1.56-.539c18.596-6.897 30.82-25.761 32.699-50.461.556-7.294-4.907-13.656-12.201-14.211z"/><path style="opacity:.2;fill:#a35f00;enable-background:new" d="M385.145 323.314c-9.369 4.437-20.253 3.727-24.862-.419-8.7-7.825-22.099-7.116-29.927 1.586-7.826 8.701-7.116 22.1 1.586 29.927 10.562 9.499 25.007 14.291 40.042 14.291 5.034 0 10.134-.544 15.177-1.622a106.004 106.004 0 0 0 1.389-17.129 105.662 105.662 0 0 0-3.405-26.634zM178.954 322.895c-4.61 4.145-15.492 4.855-24.861.419a105.695 105.695 0 0 0-3.406 26.633c0 5.823.475 11.543 1.389 17.129a72.695 72.695 0 0 0 15.176 1.622c15.033 0 29.482-4.793 40.043-14.291 8.701-7.827 9.411-21.225 1.585-29.927-7.826-8.701-21.225-9.41-29.926-1.585zM233.215 388.827c-11.455 2.399-18.796 13.63-16.397 25.085 2.454 11.716 3.977 23.128 3.701 38.051 12.946 5.549 27.128 8.969 42.038 9.796 1.263-23.201-.779-39.924-4.257-56.536-2.399-11.453-13.631-18.795-25.085-16.396zM337.659 441.768c-1.561-11.531-4.761-21.484-8.4-31.601-3.961-11.013-16.098-16.727-27.113-12.768-11.012 3.961-16.729 16.1-12.768 27.113 4.292 11.934 7.289 21.282 6.92 34.609 15.077-3.268 29.065-9.246 41.361-17.353z"/><ellipse style="fill:#fcd690" cx="269.624" cy="349.944" rx="97.741" ry="90.821"/><path style="opacity:.15;fill:#c17a00;enable-background:new" d="M255.346 439.805c-44.664-29.324-30.822-89.426-23.24-115.709v-58.035c-35.362 13.67-60.228 46.078-60.228 83.888 0 45.654 36.254 83.436 83.468 89.856z"/><path style="fill:#eda751" d="M210.138 192.461c19.126-16.048 31.895-42.989 4.918-82.815-27.19-40.14-67.672-50.201-99.276-46.478a19.763 19.763 0 0 0-16.586 13.917c-9.155 30.477-6.275 72.092 28.533 105.838 34.536 33.484 63.284 25.586 82.411 9.538z"/><path style="fill:#ff91ab" d="M97.921 81.749c-7.505 29.966-3.261 69.117 29.805 101.175 29.934 29.021 55.517 26.948 74.258 15.432-12.89-87.499-69.194-110.702-104.063-116.607z"/><path style="fill:#eda751" d="M329.101 192.461c-19.125-16.048-31.895-42.989-4.918-82.815 27.19-40.14 67.672-50.201 99.276-46.478a19.763 19.763 0 0 1 16.586 13.917c9.155 30.477 6.275 72.092-28.533 105.838-34.537 33.484-63.286 25.586-82.411 9.538z"/><path style="fill:#ff91ab" d="M441.316 81.749c7.505 29.966 3.262 69.117-29.805 101.175-29.934 29.021-55.517 26.948-74.258 15.432 12.89-87.499 69.194-110.702 104.063-116.607z"/><path style="fill:#ffdc9c" d="M436.022 216.683c0 76.084-74.501 109.408-166.403 109.408s-166.403-33.324-166.403-109.408S177.717 78.921 269.619 78.921 436.022 140.6 436.022 216.683z"/><path style="fill:#b77866" d="M283.103 289.689c7.583-6.866 19.113-6.937 26.781-.167l7.782 6.871c8.693 7.676 22.062 6.418 29.171-2.745l4.789-6.173a20.089 20.089 0 0 1 18.176-7.643c18.262 2.107 32.819-14.996 27.82-32.687l-.175-.618a20.09 20.09 0 0 1 5.465-19.999l7.425-7.085c11.187-10.674 9.065-29.084-4.257-36.933l-13.582-8.002a20.09 20.09 0 0 1-9.692-14.485l-3.045-21.444c-1.679-11.822-13.237-19.58-24.814-16.654l-30.336 7.668a20.091 20.091 0 0 1-17.509-3.818l-24.898-20.011a20.092 20.092 0 0 0-25.171 0l-24.899 20.011a20.091 20.091 0 0 1-17.509 3.818l-30.336-7.668c-11.577-2.926-23.135 4.831-24.814 16.654l-3.045 21.444a20.09 20.09 0 0 1-9.692 14.485l-13.582 8.002c-13.322 7.849-15.443 26.259-4.257 36.933l7.425 7.085a20.092 20.092 0 0 1 5.465 19.999l-.175.618c-4.999 17.691 9.557 34.794 27.82 32.687a20.091 20.091 0 0 1 18.176 7.643l4.789 6.173c7.109 9.163 20.477 10.421 29.171 2.745l7.782-6.871c7.668-6.77 19.198-6.699 26.781.167 7.656 6.929 19.316 6.929 26.97 0z"/><path style="opacity:.15;fill:#c17a00;enable-background:new" d="M180.768 100.191c-46.603 24.413-77.552 67.459-77.552 116.492 0 65.404 55.055 99.21 128.889 107.411-105.987-63.308-92.165-148.466-51.337-223.903z"/><circle style="fill:#78cfc0" cx="205.524" cy="187.962" r="28.28"/><circle style="opacity:.5;fill:#fff;enable-background:new" cx="205.524" cy="187.962" r="18.716"/><circle style="fill:#78cfc0" cx="333.715" cy="187.962" r="28.28"/><circle style="opacity:.5;fill:#fff;enable-background:new" cx="333.715" cy="187.962" r="18.716"/><path style="fill:#dee2e5" d="M327.008 64.551H212.231c-12.022 0-21.768-9.746-21.768-21.768 0-10.899 8.061-20.118 18.863-21.573l99.461-13.392c21.165-2.85 39.989 13.609 39.989 34.965-.001 12.022-9.746 21.768-21.768 21.768z"/><path style="fill:#dee2e5" d="M366.246 100.191H172.991c-15.853 0-28.704-12.851-28.704-28.704s12.851-28.704 28.704-28.704h193.256c15.853 0 28.704 12.851 28.704 28.704s-12.852 28.704-28.705 28.704z"/><path style="opacity:.1;enable-background:new" d="M366.246 100.191H172.991c-15.853 0-28.704-12.851-28.704-28.704s12.851-28.704 28.704-28.704h193.256c15.853 0 28.704 12.851 28.704 28.704s-12.852 28.704-28.705 28.704z"/><path style="fill:#dee2e5" d="M387.597 141.17H151.64c-15.853 0-28.704-12.851-28.704-28.704s12.851-28.704 28.704-28.704h235.957c15.853 0 28.704 12.851 28.704 28.704.001 15.852-12.851 28.704-28.704 28.704z"/><path d="M184.867 230.163c-9.464 2.513-27.319 11.481-34.251 16.599a7.5 7.5 0 0 0 4.46 13.534 7.467 7.467 0 0 0 4.448-1.466c5.485-4.049 21.803-12.207 29.192-14.169a7.5 7.5 0 0 0-3.849-14.498zm203.754 16.598c-6.932-5.117-24.787-14.085-34.251-16.599a7.5 7.5 0 0 0-3.85 14.498c7.39 1.962 23.708 10.12 29.192 14.169a7.467 7.467 0 0 0 4.448 1.466 7.5 7.5 0 0 0 4.461-13.534zm44.957 15.137c6.571-13.531 9.944-28.689 9.944-45.214 0-16.782-3.378-33.14-9.927-48.575 18.245-27.499 23.237-61.205 13.633-93.18a27.215 27.215 0 0 0-22.892-19.209 112.717 112.717 0 0 0-25.539-.07c-5.886-12.047-18.263-20.367-32.549-20.367h-10.646a42.768 42.768 0 0 0-13.946-24.705A42.775 42.775 0 0 0 307.787.385l-99.461 13.393c-11.899 1.602-21.384 10.334-24.371 21.506h-10.962c-14.286 0-26.663 8.32-32.549 20.367a112.552 112.552 0 0 0-25.54.071A27.214 27.214 0 0 0 92.012 74.93c-9.604 31.975-4.612 65.681 13.632 93.18-6.548 15.435-9.927 31.793-9.927 48.575 0 16.652 3.308 31.779 9.863 45.276a28.602 28.602 0 0 0-9.584 13.244c-12.219 34.87-1.981 68.409 26.716 87.528 13.037 8.685 28.855 13.467 44.541 13.467.305 0 .624-.02.933-.023 3.326 11.212 8.725 21.627 15.793 30.855-5.053.272-11.168-2.66-16.698-8.181-22.626-22.588-48.338-32.118-70.543-26.148-17.798 4.785-30.6 18.658-36.047 39.064-2.95 11.051 3.641 22.442 14.694 25.393 11.049 2.95 22.442-3.643 25.391-14.693 1.505-5.638 3.771-8.901 6.734-9.699 4.386-1.176 15.736.748 30.457 15.444 13.164 13.143 29.236 20.381 45.255 20.38a52.356 52.356 0 0 0 18.266-3.275 50.98 50.98 0 0 0 11.293-5.885c.654 11.512.049 24.079-1.852 39.348-1.954 15.699 9.229 30.061 24.926 32.015 1.182.147 2.384.222 3.572.222 14.432 0 26.661-10.812 28.444-25.149 1.719-13.809 2.548-26.182 2.542-37.606 5.997-.042 11.876-.55 17.597-1.496 1.293 7.873 1.227 17.022-1.58 30.82-3.153 15.503 6.894 30.68 22.396 33.834a28.85 28.85 0 0 0 5.741.58c10.86 0 20.965-6.305 25.744-16.063a7.5 7.5 0 0 0-3.438-10.034 7.501 7.501 0 0 0-10.034 3.438c-2.278 4.653-7.096 7.66-12.272 7.66-.917 0-1.842-.094-2.751-.279-7.397-1.505-12.192-8.748-10.687-16.145 2.983-14.665 3.48-26.003 1.494-37.263a108.144 108.144 0 0 0 25.489-11.67c1.783 7.316 3.122 15.869 3.051 26.124a7.5 7.5 0 0 0 7.448 7.552h.053a7.5 7.5 0 0 0 7.499-7.448c.103-14.735-2.425-26.597-5.093-35.809 14.141-12.239 24.687-28.051 29.977-45.886.308.004.628.023.933.023 15.686 0 31.504-4.783 44.541-13.467 28.697-19.119 38.935-52.658 26.716-87.528a28.551 28.551 0 0 0-9.659-13.307zm-7.972-109.558a141.598 141.598 0 0 0-10.951-15.855c5.685-6.396 9.147-14.809 9.147-24.02a35.976 35.976 0 0 0-4.32-17.133 123.693 123.693 0 0 1 16.01-4.774c2.57 15.014 3 38.075-9.886 61.782zm-23.184-81.99a97.627 97.627 0 0 1 20.158.266 12.223 12.223 0 0 1 8.822 5.485c-7.749 1.803-15.225 4.218-22.341 7.229a36.166 36.166 0 0 0-7.42-4.235c.531-2.48.81-5.019.81-7.609-.001-.38-.018-.757-.029-1.136zM210.327 28.643l99.46-13.393a27.765 27.765 0 0 1 21.994 6.619 27.783 27.783 0 0 1 8.459 13.414H200.116c2.189-3.521 5.869-6.056 10.211-6.64zm-37.336 21.64h193.255c11.692 0 21.204 9.512 21.204 21.204 0 1.628-.18 3.223-.537 4.773H152.324a21.237 21.237 0 0 1-.537-4.773c0-11.692 9.512-21.204 21.204-21.204zM151.64 91.26h235.957c11.692 0 21.204 9.512 21.204 21.204s-9.512 21.204-21.204 21.204H151.64c-11.692 0-21.204-9.512-21.204-21.204s9.512-21.204 21.204-21.204zm-34.982-20.643a97.624 97.624 0 0 1 20.158-.267c-.012.379-.029.756-.029 1.137 0 2.59.279 5.129.81 7.609a36.212 36.212 0 0 0-7.42 4.235c-7.117-3.011-14.593-5.427-22.342-7.23 1.949-3 5.153-5.052 8.823-5.484zm-12.912 19.941a123.536 123.536 0 0 1 16.01 4.774 35.973 35.973 0 0 0-4.32 17.133c0 9.21 3.463 17.623 9.147 24.019a141.506 141.506 0 0 0-10.951 15.855c-12.887-23.706-12.457-46.766-9.886-61.781zm61.32 270.6c-12.035-.417-24.043-4.251-34.038-10.909-22.72-15.137-30.72-41.991-20.876-70.084a13.641 13.641 0 0 1 3.178-5.089c4.542 6.429 9.955 12.408 16.235 17.92a115.16 115.16 0 0 0 4.436 3.683c-2.406 13.053 1.82 23.859 12.208 30.779 5.765 3.841 12.828 6.001 19.586 6.311a92.504 92.504 0 0 0-.729 27.389zm4.747-42.471c-4.386.577-10.436-.478-15.288-3.711-2.531-1.686-5.11-4.091-5.944-8.345 6.691 3.94 13.946 7.473 21.777 10.572-.186.493-.366.988-.545 1.484zm26.461 112.567a37.427 37.427 0 0 1-13.051 2.339c-12.017.001-24.325-5.68-34.657-15.996-15.514-15.49-32.322-22.707-44.949-19.314-5.854 1.574-13.611 6.376-17.332 20.316a5.75 5.75 0 0 1-7.032 4.068 5.751 5.751 0 0 1-4.069-7.032c4.007-15.009 13.045-25.112 25.449-28.447 16.89-4.539 37.319 3.579 56.05 22.278 11.074 11.056 24.378 15.174 35.596 11.016.945-.35 1.864-.765 2.761-1.23a104.179 104.179 0 0 0 9.31 7.771 36.162 36.162 0 0 1-8.076 4.231zm56.716 52.762c-.852 6.842-6.681 12.002-13.56 12.002a13.96 13.96 0 0 1-1.717-.107 13.598 13.598 0 0 1-9.111-5.175 13.598 13.598 0 0 1-2.784-10.102c1.93-15.5 2.592-28.471 2.024-40.449a110.068 110.068 0 0 0 27.576 7.189c.051 11.038-.741 23.086-2.428 36.642zm16.629-50.744a98.26 98.26 0 0 1-6.418-.213c-46.775-3.05-83.823-39.158-83.823-83.111 0-9.585 1.73-18.91 5.149-27.805 8.914 2.739 18.417 5.022 28.536 6.806a7.503 7.503 0 0 0 8.689-6.084 7.5 7.5 0 0 0-6.084-8.689c-11.75-2.072-22.583-4.827-32.494-8.231a7.581 7.581 0 0 0-1.007-.337c-13.522-4.734-25.271-10.713-35.173-17.892a7.187 7.187 0 0 0-.49-.347 103.16 103.16 0 0 1-7.043-5.646c-19.073-16.741-28.744-38.623-28.744-65.04 0-15.864 3.456-31.331 10.14-45.859.123-.234.234-.474.33-.718 4.031-8.607 9.201-16.877 15.465-24.698a35.98 35.98 0 0 0 14.989 3.262h235.957a35.98 35.98 0 0 0 14.989-3.262c6.263 7.821 11.433 16.092 15.464 24.698.097.245.208.484.33.718 6.683 14.527 10.14 29.995 10.14 45.859 0 16.503-3.743 31.179-11.168 43.944a7.3 7.3 0 0 0-.486.817c-5.878 9.831-13.973 18.509-24.255 25.999-.066.044-.128.094-.192.14a115.896 115.896 0 0 1-8.959 5.882c-8.048 4.768-17.079 8.879-26.98 12.32-.075.025-.149.049-.223.077-24.185 8.371-53.563 12.728-86.638 12.728-6.619 0-13.198-.179-19.553-.533-4.116-.221-7.674 2.936-7.905 7.072a7.5 7.5 0 0 0 7.072 7.905c6.631.369 13.49.556 20.386.556 31.848 0 60.611-3.915 85.088-11.46a77.077 77.077 0 0 1 5.153 27.816c-.001 45.947-40.483 83.326-90.242 83.326zm99.805-114.585a91.55 91.55 0 0 0-.556-1.515c7.816-3.094 15.096-6.61 21.788-10.541-.834 4.254-3.413 6.659-5.945 8.345-4.851 3.233-10.902 4.287-15.287 3.711zm38.786 31.562c-9.995 6.658-22.003 10.492-34.038 10.909a92.5 92.5 0 0 0-.729-27.388c6.757-.31 13.821-2.469 19.586-6.31 10.392-6.923 14.617-17.734 12.206-30.792 8.138-6.463 15.018-13.705 20.605-21.654a13.65 13.65 0 0 1 3.246 5.151c9.844 28.091 1.844 54.947-20.876 70.084zM205.524 152.181c-19.729 0-35.779 16.05-35.779 35.778a35.558 35.558 0 0 0 5.561 19.121c-10.381-.264-24.838 1.038-31.639 2.739a7.5 7.5 0 0 0-5.456 9.095 7.503 7.503 0 0 0 7.27 5.683c.602 0 1.214-.073 1.825-.226 6.613-1.653 24.809-2.979 32.389-1.977a7.497 7.497 0 0 0 7.497-3.724 35.556 35.556 0 0 0 18.333 5.069c19.728 0 35.778-16.05 35.778-35.779-.001-19.729-16.051-35.779-35.779-35.779zm0 56.557c-11.457 0-20.779-9.321-20.779-20.779 0-11.457 9.321-20.778 20.779-20.778 11.457 0 20.778 9.321 20.778 20.778 0 11.458-9.321 20.779-20.778 20.779zm64.094 2.89a29.915 29.915 0 0 0 22.553-10.271 7.5 7.5 0 0 0-11.309-9.855 14.916 14.916 0 0 1-11.244 5.126 14.918 14.918 0 0 1-11.244-5.126 7.5 7.5 0 0 0-11.309 9.855 29.918 29.918 0 0 0 22.553 10.271zm64.097 12.11a35.556 35.556 0 0 0 18.333-5.069 7.501 7.501 0 0 0 7.497 3.724c7.58-1.003 25.775.323 32.389 1.977a7.506 7.506 0 0 0 1.825.226 7.503 7.503 0 0 0 7.27-5.683 7.499 7.499 0 0 0-5.457-9.095c-6.802-1.701-21.259-3.003-31.639-2.739a35.558 35.558 0 0 0 5.561-19.121c0-19.728-16.05-35.778-35.779-35.778-19.728 0-35.778 16.05-35.778 35.778-.002 19.73 16.05 35.78 35.778 35.78zm0-56.557c11.457 0 20.779 9.321 20.779 20.778 0 11.458-9.321 20.779-20.779 20.779-11.457 0-20.778-9.321-20.778-20.779-.001-11.457 9.321-20.778 20.778-20.778z"/></svg>