<svg xmlns="http://www.w3.org/2000/svg" viewBox="0 0 512 512" style="enable-background:new 0 0 512 512" xml:space="preserve"><path style="fill:#eda751" d="M372.379 421.192c-28.951 0-45.087-20.338-60.768-40.104a747.901 747.901 0 0 0-6.936-8.655c-5.239-6.414-4.287-15.861 2.126-21.1 6.414-5.239 15.861-4.289 21.1 2.126a805.77 805.77 0 0 1 7.204 8.989c19.061 24.025 26.678 32.102 46.748 27.591 6.339-1.426 8.637-6.193 13.251-21.852 5.079-17.237 12.753-43.283 44.947-49.859 8.113-1.659 16.036 3.577 17.693 11.692 1.657 8.114-3.577 16.035-11.692 17.693-13.212 2.698-16.741 10.487-22.181 28.951-4.617 15.67-10.94 37.129-35.442 42.637-5.765 1.296-11.096 1.891-16.05 1.891z"/><path style="fill:#fcd79d" d="M440.052 318.329c-5.227 1.068-9.798 2.655-13.826 4.628.658 6.833 3.33 19.315 12.576 27.239 2.052-1.095 4.429-1.906 7.251-2.483 8.114-1.658 13.349-9.579 11.692-17.693s-9.58-13.35-17.693-11.691z"/><path style="fill:#eda751" d="M211.606 504.5c-9.883 0-19.138-6.154-22.621-16.002-14.934-42.243 1.027-83.248 23.469-105.147 9.485-9.253 24.675-9.068 33.928.416 9.255 9.485 9.068 24.674-.416 33.929-6.435 6.28-21.088 28.366-11.741 54.807 4.417 12.493-2.13 26.202-14.624 30.619a23.948 23.948 0 0 1-7.995 1.378zM280.874 504.5c-9.883 0-19.139-6.154-22.621-16.003-14.934-42.241 1.027-83.246 23.469-105.145 9.484-9.255 24.673-9.069 33.928.416 9.254 9.484 9.068 24.673-.416 33.929-6.435 6.28-21.088 28.366-11.741 54.807 4.417 12.493-2.131 26.201-14.624 30.618a23.96 23.96 0 0 1-7.995 1.378zM143.69 347.973c-24.904 0-56.099-5.542-78.936-28.377-9.37-9.37-9.37-24.561 0-33.931 9.369-9.37 24.561-9.371 33.931-.001 7.968 7.969 33.518 20.564 73.197 11.214 12.899-3.032 25.817 4.952 28.857 17.849 3.04 12.898-4.95 25.818-17.849 28.858-5.444 1.283-20.562 4.388-39.2 4.388z"/><path style="opacity:.2;fill:#a35f00;enable-background:new" d="M335.105 362.449c-2.3-2.9-4.679-5.898-7.204-8.989-5.24-6.415-14.687-7.366-21.1-2.126-6.414 5.241-7.366 14.687-2.126 21.1 2.391 2.925 4.701 5.838 6.936 8.656 12.547 15.814 25.391 31.982 44.849 37.821 8.766-8.334 16.269-17.842 22.215-28.249-17.752 2.951-25.55-5.502-43.57-28.213z"/><path style="opacity:.2;fill:#a35f00;enable-background:new" d="M281.722 383.351c-16.36 15.964-29.258 42.082-29.274 71.427 3.806.316 7.655.487 11.547.487 12.74 0 25.054-1.738 36.698-4.962 1.479-16.012 10.029-28.203 14.543-32.608 9.484-9.255 9.67-24.445.416-33.928-9.256-9.484-24.446-9.671-33.93-.416zM212.455 383.351c-11.738 11.454-21.691 28.138-26.39 47.487 13.343 9.412 28.664 16.473 45.265 20.522 1.188-16.533 10.025-29.162 14.639-33.665 9.484-9.254 9.671-24.443.416-33.928-9.255-9.483-24.446-9.668-33.93-.416zM171.883 296.879c-12.483 2.942-23.564 3.709-33.143 3.134a115.097 115.097 0 0 0-4.822 33.008c0 4.979.326 9.886.945 14.711 3.01.164 5.962.242 8.828.242 18.638 0 33.756-3.106 39.202-4.389 12.898-3.04 20.888-15.961 17.849-28.858-3.042-12.896-15.961-20.88-28.859-17.848z"/><ellipse style="fill:#fcd690" cx="263.993" cy="333.021" rx="110.667" ry="102.827"/><path style="opacity:.15;fill:#c17a00;enable-background:new" d="M247.834 434.757c-50.57-33.201-34.897-101.248-26.313-131.007v-65.707c-40.037 15.478-68.19 52.171-68.19 94.978 0 51.69 41.046 94.467 94.503 101.736z"/><path style="fill:#eda751" d="M196.649 154.713c21.654-18.171 36.112-48.673 5.569-93.763C171.433 15.503 125.599 4.111 89.816 8.327a22.376 22.376 0 0 0-18.779 15.758c-10.365 34.507-7.105 81.623 32.306 119.832 39.102 37.908 71.652 28.966 93.306 10.796z"/><path style="fill:#ff91ab" d="M69.597 29.364c-8.498 33.928-3.693 78.254 33.746 114.551 33.892 32.859 62.855 30.511 84.075 17.473C172.824 62.32 109.076 36.05 69.597 29.364z"/><path style="fill:#eda751" d="M331.339 154.713c-21.654-18.171-36.112-48.673-5.569-93.763 30.786-45.447 76.62-56.839 112.402-52.623a22.376 22.376 0 0 1 18.779 15.758c10.365 34.507 7.105 81.623-32.305 119.832-39.103 37.908-71.652 28.966-93.307 10.796z"/><path style="fill:#ff91ab" d="M458.391 29.364c8.498 33.928 3.693 78.254-33.746 114.551-33.892 32.859-62.856 30.511-84.075 17.473C355.164 62.32 418.913 36.05 458.391 29.364z"/><path style="fill:#ffdc9c" d="M452.396 182.138c0 86.143-84.351 123.873-188.403 123.873S75.591 268.281 75.591 182.138 159.942 26.162 263.993 26.162s188.403 69.833 188.403 155.976z"/><path style="opacity:.15;fill:#c17a00;enable-background:new" d="M163.396 50.245c-52.765 27.641-87.805 76.377-87.805 131.893 0 74.051 62.332 112.326 145.929 121.613-119.999-71.68-104.35-168.097-58.124-253.506z"/><path style="fill:#7694e4" d="M231.552 158.606h-28.534v88.635c0 7.88 6.388 14.268 14.268 14.268 7.88 0 14.268-6.388 14.268-14.268v-88.635h-.002zM376.692 158.606h-28.534v88.635c0 7.88 6.388 14.268 14.268 14.268 7.88 0 14.268-6.388 14.268-14.268v-88.635h-.002z"/><circle style="fill:#fff" cx="217.285" cy="152.646" r="20.224"/><circle style="fill:#fff" cx="362.421" cy="152.646" r="20.224"/><path style="fill:#ff91ab" d="M289.854 211.778c13.686 0 23.46 10.282 27.465-10.555 4.966-25.834-7.439-48.575-27.465-48.575s-32.431 22.74-27.465 48.575c4.004 20.837 13.779 10.555 27.465 10.555z"/><path style="fill:#eda751" d="M316.777 363.051c-14.931 0-30.325-3.83-44.287-11.335-22.715-12.209-38.634-32.584-43.674-55.899-2.799-12.953 5.431-25.721 18.382-28.521 12.953-2.799 25.72 5.43 28.52 18.382 2.066 9.561 9.17 18.225 19.488 23.77 10.999 5.912 23.697 7.297 33.142 3.617 12.345-4.812 26.255 1.297 31.067 13.644 4.811 12.347-1.297 26.255-13.645 31.066-9.064 3.534-18.923 5.276-28.993 5.276z"/><path style="fill:#7694e4" d="M126.059 137.883a7.5 7.5 0 0 1-7.5-7.5V94.317a7.5 7.5 0 0 1 7.5-7.5 7.5 7.5 0 0 1 7.5 7.5v36.065a7.5 7.5 0 0 1-7.5 7.501zM148.556 133.084a7.5 7.5 0 0 1-7.5-7.5v-39.69a7.5 7.5 0 0 1 7.5-7.5 7.5 7.5 0 0 1 7.5 7.5v39.69a7.5 7.5 0 0 1-7.5 7.5zM171.054 135.483a7.5 7.5 0 0 1-7.5-7.5V80.952a7.5 7.5 0 0 1 7.5-7.5 7.5 7.5 0 0 1 7.5 7.5v47.032a7.5 7.5 0 0 1-7.5 7.499z"/><path d="m155.908 438.067 2.526-12.368a7.5 7.5 0 0 0-4.368-8.384l-10.971-4.751 4.808-7.297a7.5 7.5 0 0 0-.871-9.34l-12.087-12.501a7.497 7.497 0 0 0-10.605-.179 7.499 7.499 0 0 0-.179 10.604l7.909 8.181-6.417 9.737a7.503 7.503 0 0 0 3.282 11.01l13.582 5.881-2.115 10.354a7.501 7.501 0 0 0 2.042 6.802l10.835 10.846a7.477 7.477 0 0 0 5.306 2.199 7.5 7.5 0 0 0 5.306-12.8l-7.983-7.994zM51.449 255.896a7.5 7.5 0 0 0 7.471 8.261c3.8 0 7.059-2.879 7.452-6.741l1.684-16.53a7.5 7.5 0 0 0-6.497-8.197l-6.291-.816 4.201-9.952a7.5 7.5 0 0 0-2.538-9.011l-10.337-7.414 6.11-11.501a7.5 7.5 0 0 0-13.247-7.038l-9.187 17.292a7.5 7.5 0 0 0 2.252 9.613l10.797 7.744-5.706 13.52a7.497 7.497 0 0 0 5.945 10.353l8.834 1.145-.943 9.272zm300.314 193.396 3.895-2.368a7.5 7.5 0 0 0-7.794-12.817l-11.777 7.162a7.502 7.502 0 0 0-1.581 11.532l5.792 6.193-7.745 5.266a7.501 7.501 0 0 0-2.232 10.031l5.696 9.594a7.499 7.499 0 0 0 10.278 2.62 7.5 7.5 0 0 0 2.621-10.278l-2.095-3.528 9.157-6.227a7.502 7.502 0 0 0 1.26-11.325l-5.475-5.855zm103.691-135.039c-5.014-3.313-11.017-4.477-16.903-3.272-36.612 7.479-45.394 37.281-50.641 55.088-4.392 14.905-5.84 16.235-7.702 16.654-4.784 1.077-8.286 1.234-11.15.752 8.367-15.13 13.098-32.285 13.098-50.454 0-13.007-2.384-25.649-7.083-37.693 12.809-4.992 24.332-10.968 34.386-17.876 32.995-22.671 50.436-55.63 50.436-95.314 0-19.097-3.89-37.681-11.348-55.129 20.72-30.964 26.423-69.003 15.586-105.082A29.82 29.82 0 0 0 439.05.88c-35.951-4.235-71.345 7.008-97.881 30.91-24.071-8.6-50.21-13.127-77.174-13.127S210.891 23.19 186.82 31.79C160.285 7.886 124.898-3.364 88.939.879a29.817 29.817 0 0 0-25.084 21.048C53.017 58.005 58.72 96.045 79.44 127.009c-7.459 17.448-11.348 36.031-11.348 55.129 0 50.164 27.509 88.532 78.31 110.534-29.112.58-42.269-12.165-42.414-12.31-5.948-5.948-13.857-9.224-22.269-9.224-8.413.001-16.321 3.276-22.267 9.225-12.279 12.279-12.279 32.259 0 44.538 20.001 20.001 49.131 30.573 84.239 30.573 1.503 0 3.042-.033 4.587-.074 5.061 22.845 17.714 43.126 35.372 58.441-9.976 24.819-10.628 52-1.734 77.158 4.443 12.561 16.375 21 29.691 21a31.42 31.42 0 0 0 10.498-1.808c16.373-5.789 24.982-23.817 19.194-40.19-3.942-11.15-2.808-21.172-.424-28.776 1.598.297 3.206.567 4.826.803-1.995 16.556-.167 32.991 5.481 48.968C255.623 503.559 267.555 512 280.874 512c3.571 0 7.103-.608 10.497-1.808a31.476 31.476 0 0 0 18.838-18.235 7.5 7.5 0 0 0-4.255-9.716c-3.858-1.512-8.208.397-9.716 4.255a16.493 16.493 0 0 1-9.867 9.554c-1.784.631-3.634.95-5.499.95-6.975 0-13.224-4.422-15.55-11.004-4.925-13.929-6.488-28.26-4.674-42.691a125.741 125.741 0 0 0 34.368-3.82c-1.599 6.012-2.489 12.915-1.85 20.507a7.5 7.5 0 0 0 14.947-1.259c-.886-10.516 2.16-19.389 5.307-25.511a119.952 119.952 0 0 0 24.939-14.53c10.484 6.717 21.664 10.001 34.017 10.001 5.623 0 11.578-.698 17.697-2.074 28.805-6.475 36.139-31.364 40.992-47.834 5.427-18.42 7.893-21.968 16.488-23.723a22.35 22.35 0 0 0 14.266-9.639 22.343 22.343 0 0 0 3.272-16.903 22.336 22.336 0 0 0-9.637-14.267zm-14.796-203.001c-9.561-16.574-22.543-31.84-38.66-45.183a190.354 190.354 0 0 0-3.318-2.681c18.198-14.619 38.12-21.772 53.913-25.255 3.147 17.427 3.946 44.958-11.935 73.119zm-3.363-95.477c4.929.581 9.16 3.57 11.403 7.861-18.344 4.128-41.601 12.748-62.545 30.657-9.21-6.148-18.99-11.55-29.236-16.164 22.568-17.69 51.256-25.782 80.378-22.354zm-346.601 0c29.122-3.427 57.809 4.666 80.379 22.354-10.247 4.615-20.026 10.016-29.236 16.164-20.944-17.91-44.201-26.53-62.545-30.658a14.818 14.818 0 0 1 11.402-7.86zM75.395 38.134c15.793 3.483 35.715 10.637 53.913 25.255a186.55 186.55 0 0 0-3.317 2.68c-16.117 13.343-29.099 28.609-38.66 45.183C71.45 83.091 72.249 55.56 75.395 38.134zm70.437 294.887c0 2.492.098 4.963.273 7.414-.805.012-1.624.039-2.414.039-21.646 0-51.994-4.542-73.632-26.181-6.431-6.431-6.431-16.894 0-23.324a16.384 16.384 0 0 1 11.662-4.831c4.406 0 8.548 1.716 11.663 4.831 5.261 5.261 14.011 9.978 24.005 12.94 9.777 2.898 20.364 4.133 31.593 3.696a103.363 103.363 0 0 0-3.15 25.416zm80.656 154.587a16.382 16.382 0 0 1-9.384 8.442c-1.784.631-3.634.95-5.499.95-6.974 0-13.223-4.422-15.55-11.002-7.211-20.397-7.137-42.352.059-62.719a121.224 121.224 0 0 0 30.174 14.313c-2.978 9.945-4.252 22.932.866 37.41a16.378 16.378 0 0 1-.666 12.606zm37.506-59.256c-56.884 0-103.163-42.766-103.163-95.331a88.266 88.266 0 0 1 5.641-31.152l.034-.093c.183-.487.374-.972.566-1.458a244.875 244.875 0 0 0 13.21 3.72 7.5 7.5 0 1 0 3.666-14.544c-6.418-1.618-12.443-3.402-18.102-5.333a7.55 7.55 0 0 0-1.022-.355c-66.967-23.245-81.732-67.34-81.732-101.666 0-81.87 81.153-148.476 180.902-148.476 99.75 0 180.903 66.605 180.903 148.476 0 35.015-14.781 62.923-43.93 82.952-26.377 18.124-64.26 29.331-109.691 32.488-4.272-3.9-7.164-8.563-8.227-13.483-3.668-16.972-20.459-27.793-37.435-24.129-16.556 3.58-27.253 19.644-24.366 36.183-1.243-.142-2.498-.274-3.724-.428a7.501 7.501 0 0 0-1.876 14.883c3.379.426 6.836.789 10.309 1.123 7.981 19.37 23.082 35.902 42.982 46.597 14.884 8 31.426 12.229 47.838 12.229 11.195 0 21.867-1.947 31.719-5.788a31.545 31.545 0 0 0 17.352-16.579c-7.885 45.381-50.553 80.164-101.854 80.164zm90.125-119.406a31.48 31.48 0 0 0-9.732-4.131 251.053 251.053 0 0 0 16.517-4.531 88.269 88.269 0 0 1 6.255 32.736c0 2.965-.155 5.897-.443 8.794a7.479 7.479 0 0 0-4.555-4.952 7.5 7.5 0 0 0-9.665 4.371 16.524 16.524 0 0 1-9.448 9.554c-8.109 3.162-16.949 4.765-26.272 4.765-13.942 0-28.028-3.61-40.737-10.441-18.07-9.711-31.418-25.003-37.601-42.746l-.015-.041a68.993 68.993 0 0 1-2.278-8.09c-1.921-8.89 3.748-17.685 12.637-19.605 8.891-1.922 17.685 3.747 19.605 12.636 1.969 9.112 7.553 17.479 15.704 23.85a53.177 53.177 0 0 0 7.565 4.943c12.878 6.92 27.981 8.453 39.417 3.998a16.55 16.55 0 0 1 14.93 1.507 7.502 7.502 0 0 0 8.116-12.617zm95.188 28.208a7.446 7.446 0 0 1-4.753 3.211c-17.669 3.608-22.317 15.321-27.874 34.18-4.543 15.421-9.693 32.898-29.894 37.439-5.042 1.134-9.889 1.709-14.406 1.709-8.01 0-15.195-1.741-22.09-5.388a113.145 113.145 0 0 0 10.215-11.694c6.671 2.6 13.904 2.79 22.996.746 11.039-2.483 14.335-11.897 18.799-27.049 4.844-16.441 11.479-38.958 39.255-44.632a7.452 7.452 0 0 1 5.631 1.091 7.445 7.445 0 0 1 3.212 4.755 7.457 7.457 0 0 1-1.091 5.632zm32.401-107.522a7.503 7.503 0 0 0-10.16-3.047l-13.112 7.063a7.5 7.5 0 0 0-3.913 7.278l.829 9.177-9.376 2.062a7.501 7.501 0 0 0-5.889 7.325v16.072a7.5 7.5 0 0 0 7.5 7.5 7.5 7.5 0 0 0 7.5-7.5v-10.043l9.94-2.185a7.5 7.5 0 0 0 5.859-8l-.978-10.826 8.754-4.715a7.503 7.503 0 0 0 3.046-10.161zm-287.555-31.275c-10.624 2.821-30.664 12.89-38.445 18.633a7.498 7.498 0 0 0 4.46 13.534 7.473 7.473 0 0 0 4.449-1.466c6.412-4.734 24.761-13.914 33.387-16.204a7.5 7.5 0 1 0-3.851-14.497zm-5.984-10.737a7.5 7.5 0 1 0 1.965-14.871c-10.893-1.437-33.259.233-42.644 2.578a7.5 7.5 0 0 0-5.457 9.096 7.504 7.504 0 0 0 7.27 5.683c.602 0 1.214-.073 1.825-.226 7.734-1.934 28.195-3.431 37.041-2.26zm235.832 29.37c-7.781-5.744-27.822-15.813-38.445-18.633a7.5 7.5 0 0 0-3.851 14.498c8.626 2.29 26.975 11.47 33.387 16.204a7.468 7.468 0 0 0 4.449 1.466 7.5 7.5 0 0 0 4.46-13.535zm-61.576-36.617c15.288 0 27.724-12.438 27.724-27.725s-12.438-27.724-27.724-27.724c-15.288 0-27.724 12.437-27.724 27.724-.001 15.287 12.436 27.725 27.724 27.725zm0-40.449c7.017 0 12.725 5.708 12.725 12.725 0 7.017-5.708 12.726-12.725 12.726-7.017 0-12.725-5.709-12.725-12.726 0-7.017 5.708-12.725 12.725-12.725zm-98.479 79.449c5.693 3.741 11.843 2.379 17.268 1.177 2.821-.625 5.738-1.271 8.64-1.271 2.901 0 5.818.646 8.639 1.271 2.764.612 5.714 1.266 8.697 1.266 2.874 0 5.778-.606 8.571-2.442 5.855-3.849 7.897-11.394 8.924-16.733 3.305-17.197-.189-34.083-9.349-45.17-6.564-7.946-15.614-12.322-25.482-12.322-9.869 0-18.919 4.376-25.483 12.322-9.159 11.087-12.653 27.973-9.348 45.17 1.027 5.338 3.068 12.883 8.923 16.732zm11.989-52.35c2.591-3.137 7.11-6.876 13.919-6.876s11.328 3.739 13.919 6.876c6.247 7.562 8.616 20.123 6.182 32.784-.994 5.174-2.129 6.689-2.398 6.988-.978.177-3.877-.461-5.818-.891-3.271-.725-7.341-1.627-11.884-1.627-4.544 0-8.614.902-11.884 1.627-1.942.43-4.841 1.065-5.819.891-.27-.299-1.404-1.814-2.398-6.988-2.435-12.659-.066-25.222 6.181-32.784zm107.187 14.144a7.506 7.506 0 0 0 8.418 6.453c8.844-1.172 29.308.326 37.042 2.26a7.549 7.549 0 0 0 1.825.226 7.5 7.5 0 0 0 1.813-14.779c-9.385-2.346-31.752-4.016-42.645-2.578a7.5 7.5 0 0 0-6.453 8.418zm-165.837-.794c15.288 0 27.724-12.438 27.724-27.725s-12.438-27.724-27.724-27.724-27.724 12.437-27.724 27.724c-.001 15.287 12.437 27.725 27.724 27.725zm0-40.449c7.017 0 12.725 5.708 12.725 12.725 0 7.017-5.708 12.726-12.725 12.726-7.017 0-12.725-5.709-12.725-12.726 0-7.017 5.709-12.725 12.725-12.725z"/></svg>