<svg xmlns="http://www.w3.org/2000/svg" viewBox="0 0 512.001 512.001" style="enable-background:new 0 0 512.001 512.001" xml:space="preserve"><path style="fill:#78cfc0" d="m280.847 484.824 140.306-23.721c9.351-1.581 12.687-13.3 5.57-19.569l-9.356-8.241c-2.772-2.441-2.677-6.791.198-9.11l70.811-57.113c7.439-6 4.502-17.955-4.871-19.824l-50.281-10.029c-4.302-.858-6.233-5.913-3.6-9.421l72.603-96.727c5.419-7.219.576-17.56-8.439-18.02l-64.428-3.288c-4.378-.223-7.025-4.939-4.934-8.793l64.618-119.099c4.542-8.372-2.705-18.253-12.054-16.437L327.346 94.501a5.96 5.96 0 0 1-6.025-2.442l-55.3-79.33c-4.86-6.972-15.179-6.972-20.039 0l-55.3 79.33a5.96 5.96 0 0 1-6.024 2.442L35.012 65.434c-9.35-1.816-16.596 8.066-12.054 16.437L87.576 200.97c2.091 3.854-.555 8.569-4.934 8.793l-64.428 3.288c-9.014.46-13.857 10.802-8.439 18.02l72.603 96.727c2.633 3.508.702 8.563-3.6 9.421l-50.281 10.029c-9.373 1.869-12.31 13.824-4.871 19.824l70.811 57.113c2.875 2.319 2.97 6.668.198 9.11l-9.356 8.241c-7.116 6.268-3.78 17.988 5.57 19.569l140.306 23.721a149.082 149.082 0 0 0 49.692-.002z"/><path style="fill:#eda751" d="M48.165 434.779c-2.538 0-5.105-.701-7.402-2.17-6.406-4.095-8.278-12.607-4.184-19.013 9.723-15.207 24.255-24.789 42.026-27.711 16.462-2.705 35.988.181 58.041 8.582 23.023 8.765 34.255-3.346 55.496-29.357l.781-.957c4.81-5.887 13.483-6.761 19.37-1.952 5.888 4.811 6.761 13.482 1.951 19.37l-.778.953c-10.709 13.114-20.824 25.5-33.876 33.629-16.181 10.076-33.433 11.399-52.745 4.043-17.446-6.647-32.173-9.052-43.774-7.143-10.126 1.665-17.746 6.694-23.296 15.375a13.756 13.756 0 0 1-11.61 6.351z"/><path style="fill:#fcd79d" d="M42.898 405.262a65.352 65.352 0 0 0-6.318 8.334c-4.095 6.405-2.222 14.918 4.184 19.013a13.696 13.696 0 0 0 7.402 2.17c4.54 0 8.984-2.245 11.611-6.353 1.412-2.21 2.961-4.18 4.649-5.921-4.349-8.667-12.87-14.374-21.528-17.243z"/><path style="fill:#eda751" d="M314.519 504.5c-2.437 0-4.913-.408-7.341-1.266-11.469-4.054-17.479-16.638-13.425-28.107 9.366-26.491-9.005-40.765-9.792-41.359-9.704-7.335-11.623-21.148-4.288-30.851 7.336-9.704 21.149-11.623 30.851-4.288 22.386 16.922 38.724 51.679 24.76 91.18-3.195 9.041-11.693 14.691-20.765 14.691zM197.483 504.5c-9.072 0-17.569-5.649-20.766-14.689-13.965-39.502 2.373-74.259 24.76-91.181 9.703-7.337 23.516-5.416 30.852 4.288 7.335 9.704 5.415 23.517-4.288 30.851-.787.595-19.158 14.868-9.792 41.358 4.054 11.469-1.956 24.053-13.424 28.108a22.022 22.022 0 0 1-7.342 1.265zM371.913 365.443c-15.091 0-30.973-3.188-46.739-9.447-11.305-4.489-16.831-17.293-12.343-28.599 4.49-11.304 17.294-16.827 28.599-12.343 11.042 4.385 48.49 16.477 66.787-12.003 6.576-10.234 20.2-13.199 30.436-6.626 10.234 6.575 13.2 20.202 6.626 30.436-13.056 20.32-32.687 33.194-56.772 37.231-5.388.903-10.936 1.351-16.594 1.351zM140.09 365.443c-5.66 0-11.206-.448-16.595-1.351-24.086-4.036-43.717-16.91-56.772-37.232-6.575-10.234-3.609-23.86 6.626-30.435 10.234-6.574 23.86-3.608 30.435 6.627 18.296 28.479 55.745 16.388 66.788 12.002 11.306-4.485 24.11 1.038 28.598 12.343 4.489 11.306-1.037 24.11-12.343 28.599-15.763 6.26-31.648 9.447-46.737 9.447z"/><path style="opacity:.2;fill:#a35f00;enable-background:new" d="M341.431 315.055c-11.305-4.485-24.109 1.039-28.599 12.343-4.488 11.306 1.038 24.11 12.343 28.599 15.766 6.259 31.648 9.447 46.739 9.447 2.093 0 4.166-.082 6.226-.205a110.187 110.187 0 0 0 1.474-17.972c0-8.955-1.081-17.676-3.123-26.056-14.63 1.089-28.923-3.719-35.06-6.156zM310.525 398.629c-9.703-7.336-23.516-5.416-30.851 4.288-7.336 9.704-5.416 23.517 4.288 30.851.587.444 10.959 8.507 12.299 23.575 14.891-4.844 28.501-12.296 40.211-21.777-5.153-15.657-14.798-28.509-25.947-36.937zM201.478 398.629c-11.149 8.427-20.794 21.28-25.947 36.937 11.711 9.48 25.321 16.932 40.212 21.777 1.34-15.068 11.712-23.131 12.299-23.575 9.704-7.335 11.623-21.148 4.288-30.851-7.337-9.704-21.149-11.624-30.852-4.288z"/><path style="opacity:.2;fill:#a35f00;enable-background:new" d="M212.294 362.201c-5.887-4.809-14.559-3.935-19.37 1.952l-.781.957c-18.823 23.051-29.792 35.172-48.066 31.536 4.856 9.724 11.091 18.72 18.48 26.754 5.829-1.401 11.496-3.799 17.034-7.247 13.053-8.129 23.168-20.515 33.876-33.629l.778-.953c4.81-5.888 3.936-14.56-1.951-19.37zM170.572 315.055c-6.137 2.438-20.431 7.245-35.06 6.156a109.909 109.909 0 0 0-3.123 26.056c0 6.111.506 12.112 1.474 17.972 2.061.123 4.133.205 6.227.205 15.09 0 30.974-3.188 46.738-9.447 11.306-4.489 16.832-17.293 12.343-28.599s-17.293-16.828-28.599-12.343z"/><ellipse style="fill:#fcd690" cx="256.001" cy="347.27" rx="101.59" ry="94.4"/><path style="opacity:.15;fill:#c17a00;enable-background:new" d="M241.167 440.658c-46.422-30.478-32.035-92.945-24.155-120.263v-60.318c-36.754 14.208-62.597 47.892-62.597 87.189-.001 47.451 37.679 86.72 86.752 93.392z"/><path style="fill:#82c7e6" d="M163.283 385.89c15.885 32.876 51.423 55.773 92.718 55.773s76.833-22.897 92.718-55.773H163.283z"/><path style="opacity:.1;enable-background:new" d="M241.166 440.658c-20.994-13.783-29.55-34.109-31.896-54.768h-45.987c13.947 28.864 43.043 50.03 77.883 54.768z"/><path style="fill:#eda751" d="M194.179 183.582c19.878-16.68 33.15-44.681 5.112-86.073-28.26-41.72-70.334-52.177-103.182-48.307A20.542 20.542 0 0 0 78.87 63.667c-9.515 31.677-6.522 74.928 29.656 110.003 35.895 34.8 65.775 26.592 85.653 9.912z"/><path style="fill:#ff91ab" d="M77.548 68.514c-7.801 31.145-3.39 71.836 30.978 105.156 31.113 30.164 57.701 28.008 77.179 16.039C172.309 98.767 113.788 74.652 77.548 68.514z"/><path style="fill:#eda751" d="M317.823 183.582c-19.878-16.68-33.15-44.681-5.112-86.073 28.26-41.72 70.335-52.177 103.182-48.307a20.542 20.542 0 0 1 17.239 14.465c9.515 31.677 6.522 74.928-29.656 110.003-35.895 34.8-65.775 26.592-85.653 9.912z"/><path style="fill:#ff91ab" d="M434.455 68.514c7.801 31.145 3.39 71.836-30.978 105.156-31.112 30.164-57.701 28.008-77.179 16.039 13.396-90.942 71.916-115.057 108.157-121.195z"/><path style="fill:#7694e4" d="M428.951 208.758c0 79.078-77.432 113.713-172.95 113.713s-172.95-34.635-172.95-113.713 77.432-143.183 172.95-143.183c95.518 0 172.95 64.105 172.95 143.183z"/><path style="fill:#f5d141" d="M93.607 159.393c-6.827 15.389-10.556 32.016-10.556 49.364 0 18.646 4.309 34.818 12.14 48.65 14.444-7.002 24.814-26.132 24.814-48.65.001-23.333-11.133-43.032-26.398-49.364zM418.396 159.393c6.827 15.389 10.556 32.016 10.556 49.364 0 18.646-4.309 34.818-12.141 48.65-14.444-7.002-24.814-26.132-24.814-48.65-.001-23.333 11.134-43.032 26.399-49.364z"/><path style="opacity:.1;enable-background:new" d="M163.654 87.682c-48.437 25.374-80.603 70.113-80.603 121.076 0 67.978 57.22 103.113 133.961 111.638-110.159-65.801-95.792-154.31-53.358-232.714z"/><ellipse style="fill:#ff91ab" cx="171.131" cy="212.09" rx="31.32" ry="24.938"/><ellipse style="fill:#ff91ab" cx="340.871" cy="212.09" rx="31.32" ry="24.938"/><path style="fill:#ffdc9c" d="M163.851 177.027c-2.672 14.64 7.504 28.652 22.511 30.438 12.859 1.531 25.096-6.929 28.205-19.5 3.629-14.671-5.885-29.14-20.525-31.812l-18.62-3.398a6.932 6.932 0 0 0-8.058 5.541l-3.513 18.731zM348.151 177.027c2.672 14.64-7.504 28.652-22.511 30.438-12.859 1.531-25.096-6.929-28.206-19.5-3.629-14.671 5.885-29.14 20.525-31.812l18.62-3.398a6.932 6.932 0 0 1 8.058 5.541l3.514 18.731z"/><path style="fill:#ff91ab" d="M229.741 217.967c0 14.503 11.757 20.386 26.26 20.386 14.503 0 26.26-5.883 26.26-20.386s-11.757-26.26-26.26-26.26c-14.503 0-26.26 11.757-26.26 26.26z"/><path style="fill:#495059" d="M167 401.122h178.003c4.938 0 9.536-2.664 11.855-7.023a101.167 101.167 0 0 0 5.891-13.281c1.78-4.949-1.952-10.159-7.211-10.159H156.464c-5.259 0-8.991 5.21-7.211 10.159a101.152 101.152 0 0 0 5.891 13.281c2.32 4.359 6.918 7.023 11.856 7.023z"/><ellipse style="fill:#b77866" cx="256.001" cy="385.89" rx="49.883" ry="36.997"/><ellipse style="opacity:.1;enable-background:new" cx="256.001" cy="385.89" rx="25.755" ry="13.842"/><path d="M164.656 43.056a7.496 7.496 0 0 0 10.258 2.696 7.5 7.5 0 0 0 2.696-10.258l-11.261-19.289a7.5 7.5 0 0 0-12.954 7.563l11.261 19.288zm172.432 2.696a7.494 7.494 0 0 0 10.257-2.697l11.262-19.289a7.502 7.502 0 0 0-2.696-10.259 7.502 7.502 0 0 0-10.258 2.696l-11.262 19.289a7.504 7.504 0 0 0 2.697 10.26zM36.656 181.508a7.469 7.469 0 0 0 5.256 2.15 7.498 7.498 0 0 0 5.257-12.849l-17.063-16.765a7.499 7.499 0 0 0-10.606.094 7.498 7.498 0 0 0 .094 10.605l17.062 16.765zm473.556 34.838a18.733 18.733 0 0 0-16.042-10.785l-57.878-2.954a128.44 128.44 0 0 0-.509-6.841l59.853-110.317c3.5-6.45 2.979-14.134-1.361-20.051-4.34-5.918-11.51-8.725-18.715-7.325l-34.325 6.667a122.66 122.66 0 0 0-.92-3.229 27.99 27.99 0 0 0-23.543-19.756c-33.058-3.892-65.603 6.391-90.065 28.284a201.574 201.574 0 0 0-14.825-4.634L272.173 8.44A19.716 19.716 0 0 0 256.001 0a19.723 19.723 0 0 0-16.172 8.44l-39.71 56.964a201.55 201.55 0 0 0-14.824 4.634c-24.46-21.894-57.002-32.181-90.064-28.284A27.993 27.993 0 0 0 71.686 61.51a117.905 117.905 0 0 0-.92 3.229l-34.324-6.667c-7.204-1.403-14.376 1.408-18.715 7.326s-4.861 13.601-1.362 20.05l59.854 110.32c-.23 2.267-.4 4.545-.509 6.832l-57.878 2.961A18.732 18.732 0 0 0 1.79 216.344a18.733 18.733 0 0 0 1.986 19.229l10.478 13.96a7.484 7.484 0 0 0 6.004 2.998 7.5 7.5 0 0 0 5.993-12.002l-10.479-13.96c-1.227-1.635-.687-3.245-.399-3.862.289-.616 1.181-2.062 3.222-2.165l57.288-2.924c2.61 35.678 21.136 64.633 54 84.104 6.857 4.063 14.316 7.704 22.324 10.914-14.557 2.805-32.093 1.964-42.114-13.635-8.799-13.696-27.099-17.683-40.799-8.883a29.586 29.586 0 0 0-3.707 2.819L47.134 268.35a7.5 7.5 0 0 0-11.996 9.004l21.858 29.12c-2.388 7.975-1.424 16.905 3.417 24.442.448.697.923 1.362 1.385 2.042l-34.768 6.934c-7.222 1.44-12.799 6.777-14.557 13.929-1.757 7.15.712 14.465 6.444 19.088l25.425 20.507c-5.359 4.498-10.086 9.892-14.083 16.142-6.315 9.88-3.415 23.056 6.462 29.371a21.21 21.21 0 0 0 11.442 3.352c7.299 0 14.002-3.668 17.93-9.813 3.442-5.386 7.74-8.887 13.288-10.79l8.922 7.197-7.984 7.032c-5.483 4.83-7.646 12.196-5.646 19.224 2.001 7.028 7.719 12.15 14.923 13.369l76.9 13.001a99.323 99.323 0 0 0 3.148 10.81c4.165 11.777 15.351 19.69 27.836 19.69 3.347 0 6.658-.57 9.841-1.694 7.436-2.629 13.402-7.996 16.801-15.113a29.832 29.832 0 0 0 1.468-3.702l4.311.728a156.325 156.325 0 0 0 26.096 2.196c8.718 0 17.438-.731 26.096-2.195l4.311-.729c.405 1.255.89 2.492 1.468 3.702 3.399 7.116 9.366 12.483 16.801 15.111a29.435 29.435 0 0 0 9.842 1.695c12.486 0 23.673-7.912 27.837-19.69a99.388 99.388 0 0 0 3.148-10.81l76.9-13.001c7.205-1.219 12.923-6.341 14.924-13.369 2-7.027-.163-14.394-5.647-19.224l-7.983-7.032 23.94-19.309a7.5 7.5 0 1 0-9.418-11.676l-25.363 20.458a13.43 13.43 0 0 0-5.006 10.184 13.427 13.427 0 0 0 4.56 10.391l9.356 8.241c1.611 1.42 1.329 3.173 1.134 3.861-.196.689-.88 2.327-2.997 2.685l-72.147 12.197c1.032-17.43-2.953-34.486-11.731-49.413 2.482-2.5 4.842-5.123 7.064-7.871H345c7.785 0 14.865-4.215 18.475-10.999a109.04 109.04 0 0 0 6.328-14.267 15.046 15.046 0 0 0-.116-10.453c.741.015 1.487.041 2.222.041 6.073 0 12.073-.489 17.834-1.454 19.606-3.285 36.502-11.958 49.729-25.376l42.563 8.489c2.122.423 2.752 2.097 2.924 2.797s.39 2.476-1.295 3.834l-18.099 14.598a7.5 7.5 0 1 0 9.418 11.676l18.098-14.598c5.732-4.623 8.201-11.938 6.444-19.089s-7.335-12.488-14.557-13.929l-34.767-6.934c.462-.681.937-1.346 1.385-2.042 4.841-7.537 5.805-16.466 3.417-24.441l53.219-70.9a18.728 18.728 0 0 0 1.99-19.229zM444.205 79.442l34.215-6.645c2.117-.411 3.334.893 3.759 1.471.425.579 1.302 2.132.273 4.027l-51.186 94.343c-1.43-4.888-3.149-9.7-5.154-14.423 15.58-23.426 21.864-51.207 18.093-78.773zm-26.045 63.004c-8.759-14.916-20.533-28.666-35.082-40.71a166.97 166.97 0 0 0-2.452-1.981c16.214-12.837 33.862-19.257 48.011-22.448 2.742 15.731 3.286 40.11-10.477 65.139zm-3.144-85.796a12.995 12.995 0 0 1 9.6 6.189c-16.684 3.852-37.602 11.731-56.524 27.789a186.093 186.093 0 0 0-25.636-14.217c28.497-21.994 59.641-21.281 72.56-19.761zM252.135 17.019c1.269-1.823 3.126-2.019 3.866-2.019.647 0 2.15.15 3.367 1.409.174.18.342.382.501.61l30.517 43.778a217.496 217.496 0 0 0-34.384-2.722 217.5 217.5 0 0 0-34.385 2.722l30.518-43.778zM96.986 56.65c12.922-1.521 44.064-2.233 72.561 19.761a185.93 185.93 0 0 0-25.636 14.217C124.988 74.57 104.07 66.691 87.387 62.839a12.991 12.991 0 0 1 9.599-6.189zM83.365 77.306c14.149 3.191 31.797 9.611 48.011 22.449a166.97 166.97 0 0 0-2.452 1.981c-14.549 12.045-26.323 25.795-35.082 40.711-13.763-25.029-13.219-49.409-10.477-65.141zm-2.629 95.331L29.55 78.294c-1.028-1.895-.151-3.447.274-4.026.424-.58 1.639-1.89 3.759-1.472l34.214 6.646c-3.77 27.567 2.513 55.348 18.093 78.774a131.063 131.063 0 0 0-5.154 14.421zm56.794 116.178c-30.919-18.319-46.711-44.97-46.967-79.215l-.001-.084c-.002-.254-.011-.503-.011-.758 0-74.815 74.221-135.683 165.45-135.683s165.45 60.867 165.45 135.683c0 .206-.008.408-.009.614-.008.161-.01.321-.007.48-.332 34.124-16.12 60.689-46.964 78.963-8.381 4.966-17.785 9.247-28.094 12.83-.076.026-.151.049-.226.078-25.171 8.713-55.74 13.248-90.151 13.248s-64.979-4.535-90.15-13.247c-.077-.029-.154-.053-.231-.079-10.305-3.584-19.709-7.865-28.089-12.83zm118.471 52.579c-20.937 0-39.283 8.744-49.305 21.766h-43.205a81.019 81.019 0 0 1-1.577-15.894 80.412 80.412 0 0 1 5.478-29.272c25.467 7.886 55.424 11.977 88.61 11.977 33.185 0 63.143-4.091 88.61-11.977a80.411 80.411 0 0 1 5.477 29.272c0 5.347-.532 10.671-1.576 15.894h-43.206c-10.024-13.023-28.369-21.766-49.306-21.766zm42.383 44.497c0 3.783-1.04 7.398-2.913 10.725a7.474 7.474 0 0 0-.795 1.317c-6.633 10.276-21.467 17.454-38.675 17.454-17.21 0-32.045-7.179-38.677-17.457a7.492 7.492 0 0 0-.791-1.31c-1.874-3.328-2.915-6.944-2.915-10.729 0-3.786 1.041-7.404 2.917-10.732.305-.405.569-.841.788-1.304 6.631-10.279 21.467-17.46 38.678-17.46 17.209 0 32.044 7.179 38.676 17.457.22.466.485.904.792 1.311 1.874 3.327 2.915 6.943 2.915 10.728zM72.277 308.475l.036-.073a14.418 14.418 0 0 1 5.09-5.666c6.738-4.329 15.742-2.368 20.071 4.37 10.674 16.614 28.637 23.943 51.312 21.235a95.894 95.894 0 0 0-1.299 29.319c-7.901.571-15.531.243-22.753-.965-21.943-3.678-39.822-15.395-51.702-33.889-2.863-4.456-2.959-9.9-.755-14.331zm-43.943 52.757c-1.684-1.358-1.466-3.133-1.294-3.833.172-.7.801-2.374 2.923-2.797l42.563-8.489c13.227 13.418 30.123 22.091 49.729 25.377 5.76.964 11.76 1.453 17.833 1.453.734 0 1.481-.027 2.222-.041a15.046 15.046 0 0 0-.115 10.455c.687 1.91 1.45 3.806 2.25 5.689a40.42 40.42 0 0 1-5.13-1.588c-23.304-8.877-44.139-11.896-61.928-8.974-7.103 1.168-13.734 3.302-19.835 6.314l-29.218-23.566zm135.911 104.673-72.146-12.197c-2.117-.357-2.801-1.996-2.997-2.685-.196-.688-.478-2.441 1.134-3.861l9.355-8.241a13.432 13.432 0 0 0 4.56-10.392 13.418 13.418 0 0 0-2.668-7.73c6.801 1.104 14.378 3.237 22.692 6.405 16.343 6.225 31.417 6.874 45.7 1.917-4.475 11.613-6.381 24.099-5.63 36.784zm-34.729-52.719c-18.704-7.126-34.739-9.664-47.661-7.535-12.176 2.002-21.73 8.306-28.398 18.735a6.25 6.25 0 0 1-5.292 2.893 6.24 6.24 0 0 1-3.362-.988 6.275 6.275 0 0 1-1.905-8.655c8.544-13.362 21.312-21.782 36.923-24.351 15.14-2.486 33.36.269 54.156 8.19 7.429 2.83 14.181 3.834 20.509 3.041a21.03 21.03 0 0 0 12.513 4.105h1.913a101.226 101.226 0 0 0 2.84 3.356c-13.046 6.794-26.582 7.172-42.236 1.209zm37.483-19.565c-2.229 0-4.234-1.167-5.234-3.046a95.342 95.342 0 0 1-5.463-12.292c.001-.002.033-.124.162-.124h1.068l.024.002.029-.002h41.918c-.57 2.513-.885 5.093-.885 7.731s.314 5.218.885 7.73l-32.504.001zm44.179 84.006c1.293 3.657 1.084 7.6-.588 11.101s-4.607 6.142-8.264 7.435a14.501 14.501 0 0 1-4.843.837c-6.142 0-11.645-3.895-13.694-9.69-7.39-20.903-5.969-42.609 3.736-60.753 7.754 5.837 16.312 10.646 25.423 14.306-4.266 8.199-7.455 20.684-1.77 36.764zm75.504-5a29.773 29.773 0 0 0-1.057 3.783l-6.029 1.019a141.155 141.155 0 0 1-47.19 0l-6.028-1.019a30.033 30.033 0 0 0-1.057-3.783c-4.423-12.511-1.379-21.515 2.163-27.025a115.99 115.99 0 0 0 57.035 0c3.542 5.51 6.586 14.514 2.163 27.025zm-30.681-38.464c-25.191 0-49.092-9.341-66.602-25.542h17.297c10.022 13.022 28.368 21.766 49.305 21.766s39.282-8.744 49.305-21.766h17.297c-17.51 16.201-41.411 25.542-66.602 25.542zm72.212 53.147a14.552 14.552 0 0 1-13.694 9.69c-1.643 0-3.271-.281-4.841-.837a14.43 14.43 0 0 1-8.266-7.435 14.426 14.426 0 0 1-.588-11.101c5.685-16.08 2.495-28.565-1.77-36.764 9.111-3.66 17.669-8.469 25.423-14.306 9.705 18.145 11.126 39.851 3.736 60.753zm27.479-109.031a93.902 93.902 0 0 1-5.455 12.296c-1 1.879-3.005 3.046-5.233 3.046H312.5c.57-2.513.885-5.093.885-7.73a34.87 34.87 0 0 0-.885-7.731h41.917l.029.002.024-.002h1.069c.127 0 .161.12.153.119zm83.277-55.471c-11.88 18.493-29.758 30.211-51.7 33.888-7.223 1.209-14.854 1.536-22.754.965a95.966 95.966 0 0 0-1.298-29.318c22.673 2.71 40.637-4.619 51.311-21.236 4.33-6.739 13.332-8.698 20.072-4.371a14.415 14.415 0 0 1 5.09 5.665l.037.077c2.202 4.431 2.105 9.873-.758 14.33zm57.261-96.239-49.815 66.366a29.666 29.666 0 0 0-3.707-2.82c-13.699-8.797-32.001-4.811-40.8 8.884-10.021 15.6-27.555 16.438-42.112 13.635 8.007-3.209 15.466-6.85 22.323-10.913 32.864-19.471 51.39-48.425 54-84.104l57.288 2.924c2.041.104 2.933 1.55 3.222 2.166.288.617.827 2.228-.399 3.862zm-14.332-72.525-17.064 16.765a7.498 7.498 0 0 0-.094 10.605 7.473 7.473 0 0 0 5.35 2.244 7.479 7.479 0 0 0 5.256-2.15l17.064-16.765a7.5 7.5 0 0 0-10.512-10.699zm-225.897-50.671c4.143 0 7.5-3.357 7.5-7.5v-8.228c0-4.143-3.357-7.5-7.5-7.5a7.5 7.5 0 0 0-7.5 7.5v8.228a7.5 7.5 0 0 0 7.5 7.5zm-66.617 91.343a7.5 7.5 0 0 0 7.5-7.5v-11.058c0-4.143-3.358-7.5-7.5-7.5s-7.5 3.357-7.5 7.5v11.058a7.5 7.5 0 0 0 7.5 7.5zm-26.809 19.683a7.498 7.498 0 0 0 8.418-6.453 7.5 7.5 0 0 0-6.453-8.418c-10.06-1.33-30.711.214-39.376 2.38a7.5 7.5 0 0 0 3.637 14.553c6.898-1.725 25.873-3.107 33.774-2.062zm93.426-44.85c4.143 0 7.5-3.357 7.5-7.5v-8.227c0-4.143-3.357-7.5-7.5-7.5a7.5 7.5 0 0 0-7.5 7.5v8.227a7.5 7.5 0 0 0 7.5 7.5zm-78.836 58.827a7.502 7.502 0 0 0-9.174-5.324c-9.808 2.604-28.313 11.899-35.499 17.204a7.5 7.5 0 0 0 4.46 13.535 7.462 7.462 0 0 0 4.448-1.467c5.72-4.222 22.737-12.729 30.442-14.774a7.5 7.5 0 0 0 5.323-9.174zm172.262-13.977c7.901-1.047 26.876.337 33.774 2.062a7.54 7.54 0 0 0 1.824.226 7.502 7.502 0 0 0 1.812-14.779c-8.666-2.166-29.316-3.709-39.376-2.38a7.5 7.5 0 0 0-6.453 8.418c.544 4.107 4.315 6.989 8.419 6.453zm-93.426-77.938c4.143 0 7.5-3.357 7.5-7.5v-8.228c0-4.143-3.357-7.5-7.5-7.5a7.5 7.5 0 0 0-7.5 7.5v8.228a7.5 7.5 0 0 0 7.5 7.5zm84.16 101.089c7.705 2.046 24.722 10.553 30.441 14.774a7.47 7.47 0 0 0 4.448 1.467 7.5 7.5 0 0 0 4.46-13.535c-7.188-5.305-25.692-14.6-35.5-17.204a7.498 7.498 0 0 0-9.174 5.324 7.503 7.503 0 0 0 5.325 9.174zm-17.542-42.834c4.143 0 7.5-3.357 7.5-7.5v-11.058c0-4.143-3.357-7.5-7.5-7.5s-7.5 3.357-7.5 7.5v11.058a7.5 7.5 0 0 0 7.5 7.5z"/><path style="fill:#fff" d="M189.431 215.148c-1.309 0-2.627-.077-3.956-.235-9.295-1.107-17.465-5.85-23.005-13.355a33.585 33.585 0 0 1-5.997-25.878l.006-.036 3.514-18.73c1.461-7.784 8.985-12.964 16.777-11.536l18.618 3.397c9.046 1.65 17.098 7.027 22.092 14.752 5.064 7.834 6.615 17.152 4.367 26.238-3.715 15.028-17.262 25.383-32.416 25.383zm-18.205-36.758c-.919 5.058.257 10.122 3.313 14.261s7.569 6.756 12.71 7.368c9.053 1.07 17.851-5.009 20.038-13.854 1.244-5.025.39-10.173-2.403-14.493-2.796-4.324-7.124-7.216-12.188-8.14l-18.064-3.296-3.406 18.154zM322.571 215.148c-15.154 0-28.699-10.355-32.416-25.382-2.248-9.086-.696-18.404 4.367-26.238 4.994-7.725 13.046-13.102 22.091-14.752l18.62-3.397c7.793-1.429 15.317 3.753 16.775 11.537l3.521 18.765a33.582 33.582 0 0 1-5.998 25.878c-5.539 7.505-13.71 12.248-23.005 13.355a33.654 33.654 0 0 1-3.955.234zm14.798-54.912-18.064 3.296c-5.063.924-9.391 3.814-12.186 8.14-2.793 4.32-3.647 9.468-2.404 14.493 2.188 8.846 10.987 14.923 20.038 13.854 5.141-.612 9.655-3.23 12.711-7.368 3.055-4.139 4.23-9.201 3.313-14.259l-3.408-18.156zM256.001 245.854c-20.824 0-33.76-10.686-33.76-27.886 0-18.616 15.145-33.761 33.76-33.761 18.616 0 33.761 15.145 33.761 33.761 0 17.2-12.937 27.886-33.761 27.886zm0-46.647c-10.344 0-18.76 8.416-18.76 18.761 0 8.551 6.312 12.886 18.76 12.886s18.761-4.335 18.761-12.886c0-10.345-8.416-18.761-18.761-18.761z"/></svg>