<svg width="1422" height="918" fill="none" xmlns="http://www.w3.org/2000/svg">
  <path d="M873.52 555.2l.7-.21.15 1.18 3.1-.68 3.26.11 2.38.13 2.7-2.92 2.95-2.78 2.5-2.68.74 1.49.54 3.42-2.02.02-.32 2.81.7.6-1.79.85-.01 1.75-1.15 1.77-.1 1.71-.8.9-11.86-2.14-1.51-4.34-.15-1zM911.54 503.37l4.02 1.83 2.98-.64.82-2.2 3.12-.73 2.22-1.48.79-3.92 3.33-.95.61-1.76 1.87 1.32 1.19.16 2.2.03 2.97 1.04 1.2.6 2.86-1.58 1.33.95 1.28-2.27 2.36.1.6-.72.42-2.01 1.7-1.74 2.14 1.14-.43 1.52 1.2.24-.38 4.16 1.56 1.61 1.38-1.03 1.75-.49 2.46-2.21 2.72.36 4.07.01.7 1.42-2.3.55-2 .91-4.53.57-4.24 1.03-2.3 2.12.93 2.06.45 2.4-1.96 2 .16 1.84-1.08 1.7-3.76-.14 1.55 3.12-2.5 1.2-1.68 2.81.21 2.8-1.54 1.3-1.46-.44-3.02.6-.43 1.29h-2.94l-2.2 2.59-.14 3.87-5.12 1.88-2.75-.4-.8.99-2.36-.58-3.95.68-6.61-2.3 3.58-4.13-.32-2.95-3-.78-.3-2.93-1.3-3.72 1.7-2.58-1.73-.7 1.09-3.44 1.6-5.98zM751.22 472.06l-.5 1.79.56 2.24 1.64 1.27-.08 1.37-1.28.74-.24 1.68-1.84 2.48-.67-.35-.07-1.13-2.2-1.72-.33-2.47.33-3.56.54-1.63-.67-.83-.26-1.68 1.7-2.63.26 1 1.06-.46.84 1.43.95.54.26 1.92zM841.97 476.06l5.48-.81.82 1.37 1.5.9-.8 1.3 2.1 1.77-1.1 1.64 1.67 1.39 1.77.83.1 3.52-1.44.14-1.6-2.92v-.79l-1.74.01-1.16-1.37-.82.14-1.56-1.5-2.93-1.27.38-2.52-.67-1.83zM734.4 676.34l.97 2.94 1.13 2.37.9 1.27 1.52 2.07 2.6-.32 1.31-.56 2.18.56.6-.99.98-2.3 2.45-.15.21-.69 2.02-.01-.35 1.42 4.8-.04.06 2.5.8 1.52-.58 2.4.3 2.43 1.3 1.48-.2 4.75.98-.37 1.71.1 2.45-.6 1.8.24.41 1.24-.45 1.94.7 1.88-.6 1.5.34 1.39-8.21-.05-.19 12.89 2.67 3.34 2.57 2.57-7.25 1.68-9.56-.59-2.73-1.97-16 .18-.6.29-2.35-1.86-2.56-.12-2.36.7-1.9.78-.37-2.58.55-3.6 1.36-3.71.2-1.74 1.28-3.65.94-1.65 2.27-2.63 1.26-1.79.42-2.96-.2-2.27-1.19-1.42-1.05-2.42-.97-2.38.21-.83 1.22-1.57-1.2-3.83-.81-2.64-1.98-2.5.38-.76 1.63-.53 1.14.07 1.38-.47 11.65.05zm-15.36-.76l-1 .41-1.06-2.96 1.6-1.7 1.19-.66 1.48 1.35-1.44.83-.64 1-.13 1.73zM411.45 914.4l-3.75.34-2.01-2.43-2.38-.19h-4.22v-14.88l1.51 3.03 1.97 4.96 5.13 4.03 5.53 1.7-1.78 3.43zm2.11-172.35l2.32 3.07 1.54-3.42 4.5.18.64.9 7.26 6.96 3.22.66 4.83 3.18 4.06 1.7.57 1.91-3.89 6.66 3.98 1.2 4.43.68 3.13-.72 3.57-3.37.65-3.86 1.95-.84 1.99 2.52-.09 3.5-3.32 2.44-2.65 1.8-4.45 4.34-5.27 6.15-.99 3.65-1.05 4.74.04 4.64-.86 1.04-.3 3.05-.27 2.48 5 4.1-.53 3.33 2.46 2.13-.2 2.39-3.79 6.36-5.85 2.69-7.92 1.05-4.33-.51.83 3.02-.81 3.83.73 2.6-2.37 1.84-4.05.72-3.8-1.9-1.52 1.36.56 5.22 2.66 1.6 2.16-1.67 1.18 2.76-3.64 1.66-3.17 3.35-.58 5.5-.93 2.97-3.73.01-3.1 2.87-1.12 4.24 3.88 4.2 3.77 1.17-1.35 5.24-4.67 3.35-2.56 7.07-3.6 2.42-1.62 2.9 1.27 6.53 2.63 3.7-1.67-.32-3.65-1-9.54-.86-1.63-3.7.07-4.7-2.63.4-1.39-2.24-.34-6.48 3.03-2.64 1.25-3.77-.46-2.98 2.09-4.95 1.44-7.53-.42-3.28 1.72-1.06-.42-2.08-1.83-1.1 1.3-2.3-1.79-2.05-.92-6.18 1.59-1.09-.67-6.39.93-5.28 1.06-4.54 2.36-1.83-1.2-4.87-.01-4.53 2.98-3.18-.09-4.04 2.25-4.66.01-4.35-1.02-.85-1.82-8.02 2.43-4.7-.37-4.39 1.41-4.08 2.58-4.17 2.8-2.74-1.19-1.73.82-1.4-.12-7.24 4.3-2.13 1.35-4.44-.48-1.07 3.29-3.83 5.17 1.03zM736.97 437.14l-.3 2.4-2.22.01.76 1.27-1.3 3.73-.76.97-3.45.14-2 1.3-3.25-.45-5.65-1.48-.88-2-3.9 1-.46 1.1-2.39-.82-2.01-.16-1.79-1.05.6-1.42-.15-1.03 1.2-.32 2 1.62.55-1.54 3.48.25 2.83-1.05 1.89.18L721 441l.37-1-.56-3.82 1.42-.75 1.39-2.75 2.93 1.92 2.22-2.44 1.39-.45 3.06 1.82 1.86-.3 1.81 1.12-.31.75.4 2.06zM1243.8 828.89l3.81 1.8 2.15-.72 3.08-1 2.36.35.29 6.23-1.36 1.83-.4 4.3-1.38-1.46-2.74 3.76-.82-.3-2.43-.16-2.43-4.61-.54-3.52-2.28-4.58.1-2.38 2.59.46zm-7.25-121.14l1.42 3.17 2.53-1.53 1.31 1.72 1.89 1.58-.4 1.8.84 3.5.6 2.04.99.5 1.08 3.51-.39 2.14 1.28 2.81 4.28 2.17 2.79 1.98 2.64 1.82-.51 1.01 2.25 2.64 1.54 4.57 1.57-.93 1.6 1.84.97-.65.68 4.51 2.8 2.64 1.83 1.64 3.09 3.5 1.11 3.5.1 2.5-.27 2.73 1.88 3.76-.23 3.96-.68 2.08-1.07 4.04.08 2.62-.78 3.3-1.74 4.21-2.92 2.3-1.44 3.64-1.32 2.35-1.17 4.12-1.53 2.4-.99 3.64-.51 3.38.2 1.56-2.26 1.73-4.42.18-3.64 2.04-1.82 1.95-2.38 2.16-3.27-2.23-2.42-.88.62-2.6-2.16.93-3.46 3.64-3.41-1.37-2.24-.8-2.25-.35-3.82-1.44-2.56-3.07-.73-3.73-.92-2.47-1.94-1.97-3.79-.58 1.3-2.34-.96-3.55-1.93 3.31-3.51.88 2.07-2.65.59-2.75 1.53-2.32-.32-3.47-3.21 4-2.46 1.63-1.52 3.78-3.08-1.96.13-2.52-2.47-3.42-2.09-1.76.75-1.07-5.07-2.82-2.77-.13-3.8-2.25-7.06.44-5.12 1.65-4.49 1.55-3.76-.31-4.19 2.39-3.42 1.08-.76 2.46-1.46 1.92-3.35.11-2.47.42-3.49-.86-2.84.52-2.71.21-2.35 2.54-1.15-.22-1.98 1.35-1.9 1.53-2.88-.2h-2.64l-4.19-3.05-2.12-.9.09-2.71 1.96-.64.67-1.08-.14-1.68.48-3.24-.44-2.74-2.09-4.64-.64-2.6.17-2.57-1.58-2.93-.1-1.31-1.74-1.78-.5-3.47-2.25-3.49-.55-1.87 1.73 1.9-1.33-4.06 1.96 1.27 1.17 1.7-.07-2.25-1.95-3.42-.38-1.36-.91-1.3.42-2.48.81-1.05.54-2.14-.42-2.5 1.63-3.04.3 3.23 1.67-2.92 3.2-1.4 1.93-1.8 3.01-1.54 1.79-.33 1.09.51 3.11-1.56 2.4-.46.59-.91 1.05-.39 2.18.1 4.15-1.22 2.14-1.85 1.01-2.21 2.32-2.1.17-1.65.11-2.24 2.76-3.48 1.66 3.54 1.68-.82-1.41-1.93 1.24-1.99 1.74.89.48-3.1 2.16-2 .95-1.6 1.99-.7.06-1.13 1.73.47.07-1.01 1.74-.58 1.9-.55 2.92 1.86 2.19 2.4 2.47.02 2.51.39-.84-2.23 1.89-3.24 1.78-1.06-.61-1 1.71-2.3 2.39-1.42 2.02.48 3.32-.75-.08-2.05-2.89-1.32 2.11-.58 2.61.99 2.1 1.64 3.32 1.03 1.13-.4 2.44 1.22 2.31-1.14 1.48.35.92-.77 1.82 1.98-1.06 2.15-1.49 1.63-1.36.13.46 1.62-1.16 2.01-1.4 2 .28 1.14 3.14 2.25 3.04 1.3 2.03 1.41 2.85 2.42h1.11l2.07 1.05.6 1.27 3.77 1.4 2.6-1.41.78-2.2.8-1.82.49-2.24 1.2-3.24-.55-1.96.28-1.18-.45-2.3.51-3.04.76-.82-.61-1.34.95-2.13.75-2.2.1-1.14 1.46-1.5 1.12 1.96.27 2.5.99.49.16 1.69 1.44 2.04.29 2.28-.13 1.46z" fill="#fff" stroke="#2A8086" stroke-width="1.45"/>
  <path d="M847.57 483.05l1.17 1.36h1.74l-.02.78 1.61 2.93-2.7-.68-2-2.33-.62-1.93.82-.13zm9.36-7.65l1.74.35.68-1.33 2.36-2.12 2.07 2.77 2 3.7 1.85.23 1.21 1.4-3.25.4-.69 3.98-.67 1.78-1.45 1.18.1 2.49-.98.25-2.46-2.63 1.36-2.5-1.16-1.5-1.48.38-4.66 3.74-.09-3.52-1.77-.83-1.67-1.4 1.11-1.63-2.1-1.77.8-1.3-1.51-.9-.82-1.37.97-.86 2.94 1.5 2.12.32.54-.61-1.94-2.84 1.02-.73 1.11.18 2.72 3.19zM744.97 455.8l1.43-.01-.99 2.43 1.9 2.1-.57 2.57-.93.24-.74.5-1.28 1.25-.58 2.96-3.5-2.03-1.49-2.26-1.5-1.2-1.81-2.04-.86-1.7-1.93-2.58.82-2.31 1.42 1.28.86-1.16 1.84-.12 3.4.93 2.72-.08 1.79 1.23zM1035.71 564.6l-.08 3.03-1.38-.63.26 3.38-1.13-2.2-.23-2.14-.75-2.04-1.65-2.47-3.63-.17.35 1.75-1.23 2.36-1.68-.86-.58.77-1.11-.46-1.53-.38-.62-3.5-1.36-3.2.67-2.6-2.43-1.15.87-1.57 2.47-1.62-2.85-2.3 1.4-2.96 3.12 1.89 1.89.21.35 3.03 3.75.6 3.66-.07 2.28.74-1.82 3.65-1.77.25-1.22 2.44 2.16 2.21.65-2.73 1.09-.01 2.08 6.75zM683.04 417.51l2.9.5 3.65-1.31 2.5 2.75 2.17 1.46-.45 4.18-1.03.23-.43 3.42-3.45-2.78-2.02.48-2.76-2.9-1.84-2.49-1.83-.1-.57-2.2 3.16-1.24zM658.8 615.27l-2.7-1.02-1.85.15-1.38 1-1.78-.84-.69-1.32-1.77-.87-.26-2.32 1.07-1.69-.09-1.36 3.14-3.32.58-2.76 1.08-.98 1.9.54 1.66-.82.54-1.04 3.06-1.8.75-1.27 3.69-1.69 2.17-.57.99.78 2.53-.02-.31 1.96.52 1.84 2.23 2.64.12 1.95 4.55.91-.09 2.75-.86 1.2-1.93.37-.8 1.75-1.36.45-3.46-.08-1.82-.32-1.28.64-1.74-.29-6.86.19-.09 2.26.54 3zM759.38 459.25l1.13 2.25 1.53-.4 3.04.85 5.8.29 1.95-1.4 4.65-1.27 2.87 2 2.32.56-2.05 2.25-1.44 3.84 1.27 3.03-3.4-.7-4.02 1.66-.04 2.62-3.59.49-2.78-1.83-3.16 1.44-2.92-.15-.28-3.48-1.97-1.7.65-.76-.43-.63.66-1.7 1.5-1.69-1.91-2.33-.36-2 .98-1.24zM785.75 670.91l-.25-4.74-.99-1.78 2.4.3 1.2-2.23 2.1.26.23 1.55.85.89.04 1.27-.98.83-1.53 2.04-1.43 1.43-1.64.18z" fill="#fff" stroke="#2A8086" stroke-width="1.45"/>
  <path d="M680.58 628.67l-3.26.46-.97-2.72.18-9.1-.8-.81-.15-1.96-1.37-1.4-1.2-1.17.5-2.1 1.36-.45.8-1.75 1.93-.37.86-1.2 1.33-1.18h1.41l3.01 2.3-.15 1.33.88 2.37-.77 1.6.41 1.08-1.91 2.46-1.22 1.22-.74 2.5.1 2.52-.23 6.37zM1120.68 635.5l1.57-1.48 3.35-2.16-.17 1.94-.23 2.52-1.89-.13-.83 1.34-1.8-2.04zM421.93 741.88l-4.5-.18-1.55 3.41-2.32-3.06-5.16-1.03-3.29 3.83-2.85.58-1.54-5.84-2.12-4.7 1.24-4.05-2.07-1.76-.53-2.98-1.93-2.8 2.49-4.43-1.7-3.44.9-1.36-.7-1.5 1.54-2.04.08-3.43.2-2.84.84-1.36-3.41-6.44 2.93.33 2.04-.08.88-1.21 3.45-1.62 2.08-1.5 5.16-.67-.42 2.99.48 1.53-.31 2.68 4.28 3.6 4.42.66 1.56 1.5 2.66.8 1.64 1.17 2.48-.04 2.3 1.2.17 2.33.77 1.18.05 1.75-1.15.07 1.51 4.74 7.57.17-.58 2.37.42 1.62 2.16 1.15.93 2.56-.7 3.26-1.08 1.82.38 2.38-1.24.86-.06-1.29-3.68-2.13-3.66-.05-6.88 1.2-1.9 3.68-.1 2.26-1.55 5.05-.63-.9z" fill="#fff" stroke="#2A8086" stroke-width="1.45"/>
  <path d="M442.53 777.7l5.27-6.16 4.45-4.33 2.65-1.8 3.33-2.44.08-3.5-1.99-2.52-1.95.83.78-2.5.53-2.57v-2.36l-1.42-.78-1.48.7-1.47-.2-.46-1.65-.37-3.9-.74-1.28-2.66-1.15-1.61.83-4.17-.8.26-5.73-1.16-2.33 1.23-.86-.38-2.38 1.08-1.82.7-3.26-.93-2.56-2.16-1.15-.42-1.62.58-2.37-7.57-.16-1.51-4.75 1.15-.07-.05-1.75-.77-1.18-.18-2.34-2.29-1.2-2.48.05-1.64-1.17-2.66-.8-1.56-1.5-4.42-.67-4.28-3.59.31-2.68-.48-1.53.42-2.99-5.16.68-2.08 1.5-3.45 1.6-.88 1.22-2.04.08-2.93-.33-2.23.68-1.8-.46.27-6.05-3.24 2.35-3.48-.1-1.5-2.13-2.61-.23.83-1.7-2.2-2.42-1.63-3.56 1.04-.73v-1.67l2.38-1.14-.4-2.13 1.01-1.37.29-1.84 4.51-2.68 3.24-.75.53-.6 3.55.19 1.78-10.76.09-1.7-.62-2.25-1.75-1.43.02-2.85 2.22-.64.8.4.13-1.5-2.32-.4-.04-2.46 7.68.09 1.31-1.35 1.1 1.24.76 2.31.75-.48 2.17 2.07 3.07-.25.77-1.2 2.93-.92 1.63-.64.45-1.66 2.82-1.12-.2-.82-3.35-.34-.55-2.47.16-2.63-1.77-1.02.74-.36 2.92.5 3.14.98 1.14-.93 2.84-.6 4.41-1.48 1.45-1.5-.53-1.11 2.06-.18.91.91-.51 1.73 1.36.6.9 1.82-1.1 1.39-.62 3.34 1.01 1.98.29 1.82 2.42 1.84 1.94.2.44-.77 1.25-.17 1.78-.7 1.28-1.04 2.19.34.96-.14 2.14.32.36-.8-.66-.79.4-1.13 1.58.35 1.87-.4 2.26.83 1.72.8 1.22-1.06.89.17.53 1.1 1.9-.28 1.5-1.49 1.22-2.89 2.33-3.6 1.35-.18.97 2.17 2.22 6.87 2.1.65.11 2.7-2.96 3.23 1.22 1.18 6.98.62.14 3.93 3-2.58 4.97 1.41 6.55 2.4 1.93 2.3-.65 2.17 4.59-1.21 7.68 2.07 5.9-.15 5.83 3.25 5.04 4.4 3.04 1.14 3.38.16 1.43 1.24 1.34 5.02.65 2.4-1.57 6.54-2 2.6-5.57 5.54-2.51 4.53-2.93 3.48-.98.08-1.1 2.97.27 7.6-1.1 6.3-.42 2.7-1.24 1.64-.7 5.54-4 5.46-.68 4.36-3.19 1.83-.93 2.55-4.28-.01-6.21 1.64-2.78 1.9-4.42 1.26-4.65 3.43-3.34 4.31-.57 3.27.65 2.43-.73 4.48-.9 2.18-2.76 2.47-4.38 7.99-3.47 3.65-2.68 2.16-1.8 4.44-2.6 2.7-1.1-2.67 1.74-2.22-2.28-3.17-3.1-2.55-4.06-2.94-1.47.13-3.96-3.52-2.56.48zM363.95 557.28l-.96.22-1-2.48-1.48-1.25.86-2.74 1.18.17 1.38 3.59.02 2.5zm-1.12-12.23l-4.3.7-.28-1.62 1.86-.35 2.6.13.12 1.14zm3.24-.04l-.69 3.1-.72-.55.06-2.29-1.77-1.74v-.5l3.12 1.98zM1031.85 539.8l1.61 1.4-.28 2.72-3.22.13-3.33-.3-2.48.69-3.59-1.67-.08-.89 2.61-3.3 2.13-1.12 2.82 1.03 2.09.1 1.72 1.2zM771.19 727.24l.8.74 1.23 2.4 4.47 4.58 1.69.45v1.48l1.17 2.67 3.05.65 2.52 1.9-5.59 3.13-3.54 3.2-1.32 2.85-1.18 1.62-2.15.35-.7 2.07-.4 1.35-2.51 1.02-3.22-.22-1.88-1.22-1.67-.53-1.92 1.01-.97 2.09-1.87 1.31-1.97 1.96-2.83.45-.88-1.54.37-2.67-2.34-4.13-1.07-.65V741.1l3.89-.15.12-14.88 2.93-.13 6.09-1.44 1.5 1.7 2.53-1.62 1.2-.01 2.22-.93.7.3 1.53 3.3zM762.64 400.86l3.82.04 4.28-2.52.92-3.84 3.23-2.2-.37-3.1 2.4-1.18 4.24-2.71 4.16 1.76.56 1.74 2.07-.83 3.86 1.66.38 3.25-.84 1.85 2.47 4.44 1.61 1.22-.24 1.21 2.66 1.17 1.14 1.76-1.54 1.44-3.18-.22-.76.6.93 2.18.97 4.13-3.4.38-1.2 1.4-.26 3.19-1.57-.61-3.56.3-1.04-1.48-1.48 1.1-1.48-.9-3.1-.13-4.41-1.53-3.99-.5-3.06.14-2.16 1.73-1.89.24-.07-2.83-1.22-2.98 2.37-1.32.02-2.6-1.1-2.5-.17-2.95zM318.14 582.27l-.03-.6.48-.2.71.5 1.42-2.5.75-.05.01.6.75.02-.06 1.13-.64 1.78.34.64-.41 1.47.25.39-.46 2.07-.77 1.08-.72.13-.78 1.42h-1.18l.31-4.62.03-3.26zM730.26 624.08l3.27-.3.72-1.02.66.08.98.9 4.97-1.52 1.68-1.55 2.06-1.38-.4-1.4 1.12-.36 3.8.24 3.72-1.84 2.86-4.34 2-1.62 2.5-.68.44 1.71 2.28 2.5.01 1.62-.64 1.65.25 1.24 1.37 1.14 3 1.73 2.17 1.6.03 1.29 2.66 2.06 1.64 1.7 1 2.37 2.95 1.56.63 1.25-1.3.41-2.53-.09-2.97-.41-1.46.34-.6.95-1.27.12-1.56-.83-4.4 1.96-1.8-.4-.53.31-1.19 2.38-2.94-.77-2.89-.39-2.51-1.45-3.25-1.34-2.11 1.27-1.54 2-.35 2.74-2.54-.22-2.67-.66-2.35 2.08-2.08 3.65-.41-1.13-.18-1.8-1.8-1.26-1.46-2.03-.33-1.4-1.87-2.06.32-1.17-.4-1.66.3-3.06.96-.71 1.98-4z" fill="#fff" stroke="#2A8086" stroke-width="1.45"/>
  <path d="M721.25 672.02l-1.48-1.35-1.2.66-1.59 1.7-3.24-4.16 3-2.17-1.48-2.6 1.35-.99 2.66-.48.32-1.74 2.1 1.89 3.5.16 1.2-1.85.5-2.6-.43-3.07-1.87-2.32 1.71-4.54-.98-.78-2.94.32-1.1-2.02.29-1.72 4.98.16 3.19 1.03 3.13.93.29-2.12 2.07-3.65 2.35-2.08 2.67.66 2.54.22-.24 2.37-1.18 2.1-.77 2.44-.5 3.48.22 2.22-.65 1.36-.1 1.44-.45 1.25-2.6 1.89-1.8 2.02-1.72 3.81.13 3.23-1 1.26-2.3 1.92-2.32 2.46-1.47-.7-.26-1.1-2.14-.04-1.36 1.5-1.03-.4zM707.82 440.65l.16 1.03-.6 1.42 1.78 1.05 2.01.16-.31 2.35-1.74.96-2.92-.71-.86 2.3-1.87.17-.69-.9-2.21 1.92-1.9.27-1.7-1.2-1.36-2.5-1.88.9.06-2.6 2.88-3.24-.13-1.48 1.8.54 1.09-1 3.35.05.81-1.27 4.23 1.78zM658.69 633.65l-1.8.04-2.75-.77-2.53.05-4.68.68-2.74 1.14-3.9 1.44-.77-.1.3-3.24.38-.5-.12-1.55-1.67-1.65-1.25-.26-1.15-1.09.85-1.75-.4-1.91.2-1.15h.62l.23-1.73-.3-.77.37-.55 1.47-.47-.98-3.18-.9-1.64.31-1.36.79-.3.51-.37 1.1.6 3.04.03.73-1.16.68.08 1.14-.45.61 1.7.92-.5 1.63-.59 1.77.87.7 1.32 1.77.84 1.38-1 1.85-.15 2.7 1.02 1.05 5.65-1.67 3.32-1.03 4.46 1.72 3.4-.18 1.55z" fill="#fff" stroke="#2A8086" stroke-width="1.45"/>
  <path d="M399.08 897.25v14.87h4.23l2.38.19-1.3 2.78-3.4 2.16-1.93-.22-2.34-.56-2.87-2.09-4.13-1-4.97-3.8-4.03-3.63-6.55-11.11 4.37 5.09 9.51 5.35 1.67-.16.66-6.17 3.54-2.34 1.9-1.59 3.26 2.23zm1.64-157.66l1.54 5.84 2.85-.58.48 1.07-1.35 4.44-4.3 2.13.12 7.24-.82 1.4 1.18 1.73-2.79 2.75-2.58 4.17-1.41 4.07.37 4.39-2.43 4.7 1.82 8.02 1.02.86v4.34l-2.26 4.66.1 4.04-3 3.18.02 4.53 1.2 4.88-2.37 1.83-1.05 4.53-.93 5.28.67 6.4-1.59 1.08.93 6.18 1.78 2.06-1.3 2.3 1.83 1.1.42 2.08-1.72 1.05.42 3.28-1.44 7.53-2.1 4.96.47 2.97-1.25 3.77-3.03 2.64.34 6.48 1.4 2.24 2.62-.4-.07 4.7 1.63 3.7 9.54.86 3.65 1-3.5-.05-1.9 1.6-3.57 2.34-.63 6.16-1.68.16-4.2-2.37-5.3-2.98-4.38-5.1-1.23-4.04 1.12-3.7-1.99-4.13-.5-10.33 1.67-5.68 4.17-4.49-5.99-1.67 3.76-5.02 1.34-9.23 4.39 1.93 2.06-11.22-2.65-1.41-1.23 6.68-2.49-.76 1.24-7.63 1.35-9.63 1.8-3.49-1.13-4.92-.32-5.6 1.66-.15 2.42-7.88 2.73-7.65 1.67-6.99-.9-6.91 1.17-3.76-.47-5.57 2.3-5.44.72-8.5 1.26-8.98 1.24-9.5-.3-6.85-.81-5.85 2.03-1.05 1.05-2.12 1.94 2.8.53 3 2.07 1.75-1.25 4.04 2.12 4.71z" fill="#fff"/>
  <path d="M374.18 894.84l6.54 11.11 4.03 3.62 4.97 3.82 4.13 1 2.87 2.08 2.34.56 1.94.22 3.38-2.16 1.3-2.78-2.37-.18h-4.22v-14.88l-3.27-2.23m-21.64-.18l4.36 5.09m-4.37-5.1l-1.23-4.04 1.12-3.7-1.99-4.13-.5-10.33 1.67-5.68 4.17-4.49-5.99-1.67 3.76-5.02 1.34-9.23 4.39 1.93 2.06-11.22-2.65-1.41-1.23 6.68-2.49-.76 1.24-7.63 1.35-9.63 1.8-3.49-1.13-4.92-.32-5.6 1.66-.15 2.42-7.88 2.73-7.65 1.67-6.99-.9-6.91 1.17-3.76-.47-5.57 2.3-5.44.72-8.5 1.26-8.98 1.24-9.5-.3-6.85-.81-5.85 2.03-1.05 1.05-2.12 1.94 2.8.53 3 2.07 1.75-1.25 4.04 2.12 4.71 1.54 5.84 2.85-.58.48 1.07-1.35 4.44-4.3 2.13.12 7.24-.82 1.4 1.18 1.73-2.79 2.75-2.58 4.17-1.41 4.07.37 4.39-2.43 4.7 1.82 8.02 1.02.86v4.34l-2.26 4.66.1 4.04-3 3.18.02 4.53 1.2 4.88-2.37 1.83-1.05 4.53-.93 5.28.67 6.4-1.59 1.08.93 6.18 1.78 2.06-1.3 2.3 1.83 1.1.42 2.08-1.72 1.05.42 3.28-1.44 7.53-2.1 4.96.47 2.97-1.25 3.77-3.03 2.64.34 6.48 1.4 2.24 2.62-.4-.07 4.7 1.63 3.7 9.54.86 3.65 1-3.5-.05m-17.29 4.9l9.51 5.36m-9.5-5.35l5.3 2.98 4.2 2.37m0 0l1.67-.16.66-6.17 3.54-2.34m-5.87 8.67l1.68-.16.63-6.16 3.56-2.35m0 0l1.9-1.59" stroke="#2A8086" stroke-width="1.45"/>
  <path d="M721.57 644.36l-.5-.21-2.33.5-2.4-.52-1.88.26-6.42-.1.58-3.1-1.54-2.59-1.8-.66-.8-1.76-1.02-.57.05-1.09 1.01-2.78 1.88-3.8 1.14-.04 2.35-2.31 1.5-.07 2.21 1.63 2.72-1.33.36-1.65.9-1.59.6-2 2.11-1.64.8-2.78.84-.88.55-2.07 1.05-2.55 3.32-3.09.21-1.33.43-.72-1.56-1.6.12-1.28 1.12-.23 1.57 2.57.26 2.66-.14 2.65 2.15 3.63-2.2-.04-1.12.28-1.8-.4-.86 1.88 2.33 2.32 1.72.67.55 1.64 1.25 2.74-.62 1.07-1.98 4-.95.71-.3 3.06.39 1.66-.32 1.17 1.87 2.05.33 1.41 1.46 2.03 1.8 1.26.18 1.8.41 1.13-.28 2.12-3.13-.93-3.2-1.03-4.97-.16zM342.52 620.9l-2.14-.88-.8-.83.45-.7-.14-.87-1.1-.95-1.55-.78-1.36-.51-.26-1.16-1.03-.72.25 1.16-.79.95-.9-1.1-1.26-.4-.54-.8.02-1.21.52-1.26-1.11-.56.9-.77.6-.52 2.6 1.06.9-.52 1.25.33.66.83 1.16.26.95-.85 1 2.17 1.52 1.6 1.86 1.7-1.53.36.02 1.6.82.59-.59.47.16.72-.33.8-.2.79zM345.27 559.73l3.41.3 3.1.05 3.71 1.45 1.57 1.56 3.69-.48 1.4 1 3.34 2.62 2.45 1.9 1.3-.06 2.36.86-.29 1.18 2.91.17 2.98 1.72-.46.98-2.63.53-2.66.2-2.71-.33-5.66.4 2.65-2.32-1.6-1.1-2.55-.27-1.37-1.21-.93-2.4-2.23.16-3.68-1.13-1.19-.89-5.14-.65-1.38-.83 1.48-1.06-3.87-.22-2.83 2.2-1.64.06-.57 1.04-1.95.46-1.69-.4 2.09-1.3.85-1.54 1.78-.95 2.02-.83 2.99-.4.95-.47zM803.75 505.32l2.67-2.06-3.59 1.45-2.84-.07-.57 1.16-.28.03-1.88.17.93 1.93 1.93.62 4.04-1.94-.12-.4-.29-.9zM736.9 434.34l-1.82-1.13-1.86.31-3.06-1.82-1.4.45-2.21 2.44-2.93-1.92-2.23-2.59-2.01-1.45-.42-2.57-.7-1.82 2.87-1.35 1.47-1.54 2.83-1.2 1-1.2 1.03.72 1.76-.65 1.88 2 2.95.55-.25 1.7 2.15 1.28.58-1.6 2.71.7.37 1.92 2.94.37 1.82 3h-1.18l-.61 1.1-.9.26-.27 1.37-.75.28-.1.56-1.36.62-1.75-.1-.56 1.31z" fill="#fff" stroke="#2A8086" stroke-width="1.45"/>
  <path d="M709.12 393.6l.07 2.65 3.99 1.58-.05 2.38 4.01-1.26 2.23-1.85 4.45 2.67 1.86 2.13.93 3.37-1.1 1.75 1.43 2.32.98 3.45-.31 2.2 1.62 4.03-1.77.65-1.04-.72-.99 1.2-2.83 1.2-1.47 1.54-2.86 1.35.69 1.82.41 2.57 2.02 1.45 2.23 2.59-1.4 2.75-1.41.75.56 3.82-.37 1-1.23-1.2-1.9-.18-2.82 1.05-3.48-.25-.56 1.54-2-1.62-1.19.32-4.23-1.78-.8 1.27-3.36-.04.5-4.2 2-4.07-5.7-1.11-1.86-1.58.23-2.67-.8-1.38.46-4.18-.67-6.6h2.38l1-2.41.98-5.95-.74-2.23.77-1.4 3.3-.37.73 1.47 2.68-3.29-.9-2.52-.18-3.86 2.98.9 2.53-1.04zM839.99 603.05l.93 1.24-.12 1.67-2.26.96 1.7 1.1-1.46 2.13-.87-.71-.95.28-2.2-.06-.07-1.22-.3-1.1 1.33-1.88 1.38-1.78 1.7.35 1.19-.98z" fill="#fff" stroke="#2A8086" stroke-width="1.45"/>
  <path d="M720.04 389.27l-2.37 5.6-4.13-3.9-.55-2.89 5.8-2.33 1.25 3.52zm-7.01-5.98l-.97 2.67-1.17-.76-2.85 5.05 1.08 3.36-2.53 1.04-2.98-.9-1.6-3.83-.12-7.21.65-1.94 1.14-2.16 3.47-.46 1.39-2 3.17-2.08-.13 3.77-1.17 2.36.48 2 2.14 1.09zM386.93 574.38l.5-.71 3.08.01 2.34 1.08 1.04-.1.71 1.47 2.16-.08-.13 1.23 1.76.15 1.94 1.53-1.47 1.68-1.87-.9-1.81.17-1.3-.2-.71.76-1.52.25-.6-1-1.3.6-1.58 2.82-1.02-.66-.2-1.18.08-1.12-1.01-1.25.96-.7.3-1.59-.35-2.26zM717.32 558.52l-13.53 8.1-11.42 8.23-5.57 1.85-4.38.4-.04-2.64-1.83-.67-2.46-1.2-.94-1.96-13.3-9.22-13.32-9.36-14.85-10.6.08-.85v-.3l-.03-5.28 6.37-3.32 3.94-.69 3.23-1.21 1.5-2.28 4.62-1.8.17-3.4 2.29-.41 1.78-1.71 5.17-.79.72-1.8-1.04-1-1.36-4.96-.24-2.9-1.49-3.06 3.8-2.63 4.27-.85 2.49-2 3.8-1.49 6.69-.87 6.52-.4 2 .73 3.71-1.94 4.22-.04 1.6 1.15 2.7-.3-.8 2.51.63 4.63-.93 3.96-2.43 2.66.34 3.55 3.23 2.8.03 1.12 2.44 1.88 1.68 8.24 1.28 4 .21 2.1-.7 3.64.3 2.02-.5 2.42.34 2.77-1.57 1.83 2.33 3.17.15 1.86 1.4 2.41 1.85-.79 3.11 2 1.74 2.69zM353.03 666.61l2.1-2.94-.85-1.7-1.5 1.81-2.37-1.71.8-1.11-.67-3.56 1.38-.6.73-2.43 1.5-2.53-.28-1.6 2.16-.84 2.71-1.56 3.95 2.24.74-.06.96 1.68 3.35.55 1.12-.63 1.94 1.3 1.69.93.55 2.98-1.23 2.55-4.3 4.1-4.75 1.55-2.42 3.42-.75 2.65-2.23 1.62-1.65-1.99-1.6-.42-1.63.31-.1-1.44 1.12-.94-.47-1.63zM765.91 373.6l.46-4.4-1.45.95-2.5-2.67-.35-4.39 5-2.15 4.96-1.13 4.29 1.29 4.07-.23.6 1.35-2.81 4.4 1.17 7-1.7 2.33-3.25-.01-3.4-2.74-1.73-.9-3.36 1.3zM807.79 532.05l-1.11 1.81-.85 3.39-1.08 2.31-.92.78-1.31-1.44-1.78-1.98-2.82-6.45-.4.41 1.63 4.75 2.43 4.48 2.98 6.86 1.46 2.37 1.26 2.45 3.54 4.78-.78.75.13 2.77 4.6 3.82.69.87h-46.84v-31.54l-1.18-3.64 1.02-2.81-.61-1.96 1.43-2.2 5.25-.08 3.8 1.22 3.91 1.35 1.83.72 3.04-1.46 1.62-1.31 3.48-.38 2.81.58 1.08 2.27.91-1.5 3.16 1.09 3.08.26 1.94-1.16 2.6 7.82z" fill="#fff" stroke="#2A8086" stroke-width="1.45"/>
  <path d="M618.1 540.38l-2.5 4.5-2.63 1.6-1.43 2.7-.09 2.31-1.04 2.52-1.33.7-2.2 2.73-1.36 3.02.26 1.44-1.3 2.2-1.5 1.16-.2 1.96-.16 1.78.86-1.4 15.45.02-.75-6.11.97-2.2 3.7-.38-.13-11.05 12.95.23.01-6.65.08-.86v-.29l-17.61.02-.05.05zM837.1 603.68l-1.34-1.3-1.63-2.36-1.75-1.3-1.02-1.39-3.43-1.62-2.7-.05-.96-.85-2.31.96-2.4-1.85-1.23 3.03-4.6-.85-.41-1.62 1.7-5.98.38-2.72 1.25-1.26 2.9-.68 2-2.35 2.3 4.76 1.08 3.75 2.16 1.99 5.39 3.83 2.2 2.3 2.13 2.34 1.24 1.38 1.94 1.21-1.2.98-1.68-.35zM634.3 471.92l.2-3.78-1.61-2.32 5.58-3.9 4.83.97 5.3-.03 4.2.92 3.28-.28 6.38.18 1.57 2.1 7.26 2.43 1.44-1.15 4.44 2.41 4.57-.69.21 3.08-3.74 3.5-5.05 1.1-.36 1.75-2.42 2.87-1.52 4.16 1.54 2.89-2.28 2.24-.86 3.24-2.98.99-2.8 3.78-5 .08-3.76-.1-2.48 1.73-1.5 1.84-1.94-.4-1.46-1.65-1.12-2.81-3.68-.77-.33-1.63 1.46-1.86.55-1.36-1.36-1.49 1.09-3.3-1.59-3.05 1.7-.42.17-2.43.64-.75.05-4.05 1.82-1.41-1.1-2.64-2.3-.19-.68.67h-2.33l-.99-2.58-1.6.77-1.44 1.34z" fill="#fff" stroke="#2A8086" stroke-width="1.45"/>
  <path d="M819.56 593.92l2.4 1.84 2.31-.95.95.85 2.7.05 3.44 1.62 1.02 1.4 1.75 1.29 1.63 2.36 1.35 1.3-1.4 1.78-1.33 1.88.31 1.1.06 1.22 2.2.06.96-.28.88.71-.87 1.42 1.46 2.2 1.46 1.9 1.5 1.42 12.9 4.71 3.33-.02-11.16 11.84-5.14.17-3.51 2.78-2.53.07-1.08 1.24h-2.7l-1.6-1.33-3.6 1.64-1.16 1.64-2.63-.3-.88-.46-.92.1-1.25-.03-5-3.34h-2.74l-1.35-1.3v-2.2l-2.05-.66-2.34-4.3-1.8-.91-.69-1.58-2-1.93-2.42-.28 1.34-2.26 2.1-.1.59-1.2-.05-3.58 1.16-4.16 1.87-1.12.4-1.63 1.69-3.06 2.38-2 1.6-3.96.63-3.47 4.6.85 1.23-3.03zM428.42 892.19l4.74-3.8 3.35 1.58 2.37-2.52 3.16 2.83-1.19 2.23-5.32 1.92-1.78-2.24-3.35 2.88-1.98-2.88zM782.8 272.8l-.57 7.61 6.04 7.02-3.64 7.71 4.59 11.2-2.66 8.12 3.55 6.83-1.61 5.83 5.84 6-1.48 4.37-3.67 4.86-8.45 10.42-7.16.63-6.94 2.92-6.42 1.66-2.29-4.32-3.82-2.63.88-8.06-1.92-7.62 1.88-5.03 3.58-5.55 9.03-9.88 2.64-1.95-.41-4-5.5-4.54-1.32-3.8-.1-15.65-6.17-7.25-5.26-5.35 2.37-2.94 4.38 5.84 5.15-.54 4.24 2.63 3.77-4.84 1.93-8.24 6.13-3.9 5.06 4.57-1.67 7.87zM1381.17 716.9l-.49 1.97-.32.22-2.51 1-2.52.87-.51-1.53 1.97-.84 1.25-.22 2.32-1.28.81-.19zm-8.21 6.08l-1.79-.5-1.53 1.4.38 1.82 2.18.51 2.45-.56.65-2.16-1.36-1.18-.98.67zM707.69 470.49l-1.3 4.07-1.8-1.07-.91-3.56.8-1.98 2.54-2.04.67 4.58zm-23.57-46.95l2.75 2.9 2.03-.48 3.45 2.78.88.53 1.14-.13 1.87 1.58 5.68 1.1-2 4.09-.5 4.19-1.08.99-1.8-.54.13 1.48-2.89 3.24-.05 2.59 1.88-.9 1.36 2.5-.17 1.6 1.16 2.1-1.36 1.7 1.01 4.28 2.14.7-.45 2.37-3.57 3.06-7.79-1.46-5.75 1.75-.45 3.22-4.57.7-4.44-2.42-1.44 1.15-7.26-2.43-1.58-2.1 2.04-3.26.76-11.1-4.08-6-2.9-2.93-6.04-2.25-.4-4.32 5.12-1.3 6.63 1.54-1.25-6.82 3.72 2.6 9.19-4.75 1.18-5.07 3.46-1.27.57 2.2 1.83.1 1.84 2.5zM713.74 668.87l-4.05-3.97-2.61-3.24-2.4-4.05.13-1.3.86-1.25.96-2.86.8-2.9 1.33-.23 5.74.04-.04-4.72 1.88-.26 2.4.52 2.33-.5.5.21-.3 1.72 1.11 2.02 2.94-.32.98.78-1.7 4.54 1.86 2.32.43 3.06-.5 2.61-1.2 1.85-3.5-.16-2.1-1.89-.32 1.74-2.66.48-1.35 1 1.49 2.59-3 2.16zM647.61 396.53l-2.11 4.63-2.99-1.38-2.43.1.8-3.63-.8-3.66 3.3-.29 4.23 4.23zm10.49-29.22l-4.22 8.06 4.02-1 4.32.03-1.02 5.94-3.55 6.38 4.08.45.31.74 3.52 8.14 2.7 1.1 2.43 7.6 1.12 2.6 4.78 1.24-.48 4.13-2 1.87 1.57 3.28-3.55 3.27-5.28-.05-6.72 1.7-1.84-1.22-2.6 2.9-3.66-.7-2.77 2.35-2.1-1.23 5.79-6.52 3.53-1.36h-.03l-6.17-1.06-1.11-2.54 4.12-1.99-2.16-3.48.75-4.3 5.87.6h0l.58-3.87-2.64-4.15-.06-.1-4.8-1.2-.93-1.85 1.43-3.1-1.3-1.92-2.12 3.3-.23-6.76-2-3.64 1.44-7.54 3.06-6.07 3.16.6 4.76-.63zM674.14 629.97l-6.18 2.3-2.2 1.36-3.55 1.14-3.52-1.12.18-1.55-1.72-3.4 1.03-4.46 1.67-3.32-1.05-5.65-.54-3 .1-2.26 6.85-.19 1.74.3 1.28-.65 1.82.32-.29 1.24 1.65 2.06v2.89l.37 3.12.99 1.45-.87 3.57.31 1.96 1.05 2.5.88 1.39zM636.65 623.03l-1.12-.1-.8 1.6-1.12-.03-.76-.84.26-1.59-1.65-2.43-1.03.45-.85.09-1.08.23.04-1.46-.63-1.04.13-1.15-.86-1.67-1.1-1.43h-3.15l-.92.75-1.1.1-.66.85-.46 1.1-2.11 1.75-1.73-2.35-1.54-1.56-1-.51-1-.8-.44-1.76-.58-.88-1.14-.65 1.75-1.95 1.2.07 1.03-.67h.87l.62-.53-.34-1.33.44-.42.07-1.37 1.9.05 2.84.98.87-.1.3-.44 2.15.32.57-.23.23 1.47h.62l1.03-.54.66.13 1.1 1.02 1.68.32 1.08-.86 1.28-.54.95-.56.79.1.87.88.47 1.11 1.62 1.68-.8 1.03-.16 1.3.84-.4.5.47-.22 1.19 1.2 1.15-.78.3-.32 1.36.91 1.64.98 3.18-1.47.47-.38.55.31.77-.23 1.73h-.63z" fill="#fff" stroke="#2A8086" stroke-width="1.45"/>
  <path d="M707.42 649.3l-.73-.6 1.35-4.4 6.42.09.04 4.72-5.75-.04-1.33.22zM763.5 503.1l2.15 1.63 3.07-.28 2.94.35-.1.83 2.16-.57-.5 1.42-5.68.4.04-.79-4.82-.94.74-2.05zm11.46-29.5l-1.23 3.27-.93.59-2.4-.15-2.07-.5-4.78 1.36 2.74 2.9-2 .84h-2.2l-2.09-2.65-.74 1.13.88 3.06 1.98 2.4-1.5 1.1 2.2 2.33 1.96 1.45.06 2.81-1.91-1.6-1.74.29 1.16 2.53-1.29.27-1.4-.98 1.68 5.56-.82.02-.63-1.78-.8-.03-.37 1.85-.64-.42.15-1.04-.8-1.47h-.89l.17 1.19-.36.37-.86-.76-.54-1.43.73-.8-.5-1.05-.58-.53-.6-.14-.68-1.32.82-.73.5-.69.79.15.35-.58.83-.23.96.65.78.24.54-.88-1.32-.12-.78-.27-1.76.4-1.71.06-1.54-2.3-.25-.36.23-.9-2-1.63-.27-1.45 1.84-2.49.23-1.67 1.28-.75.08-1.37 2.58-.46 1.5-1.14 2.15.1.65-.9.75-.18 2.92.15 3.16-1.44 2.78 1.83 3.59-.5.04-2.61 1.92 1.4zM314.38 598.88l-2.02-.7-2.46-.08-1.81-.8-2.12-1.67.1-1.18.45-.96-.56-.75 1.9-3.33h5.07l.1-1.4-.64-.25-.44-.88-1.46-.95-1.47-1.37 1.78-.01v-2.31l3.7-.01 3.64.04-.03 3.26-.3 4.62h1.17l1.29.73.34-.6 1.15.52-1.8 1.55-1.86 1.14-.28.78.31.8-.82 1.02-.92.25.2.48-.73.44-1.36 1.02-.12.6zM610.25 609.7l-2.11-1.67-1.66-.27-.91-1.13.02-.6-1.2-.86-.25-.86 2.09-.65 1.3.13 1.06-.45 7.3.16-.07 1.37-.44.42.34 1.32-.62.53-.87.01-1.03.67-1.2-.07-1.75 1.95zM434.11 620.33l2.6 1.46 2.44 2.58.1 2.03 1.5.1 2.1 1.92 1.57 1.38-.63 3.54-2.4 1.02.21.93-.72 2.03 1.75 2.85h1.26l.52 2.22 2.4 3.42-.95.14-2.19-.34-1.28 1.05-1.78.68-1.25.17-.44.77-1.94-.2-2.42-1.83-.29-1.82-1.01-1.98.63-3.34 1.1-1.39-.91-1.83-1.36-.59.51-1.73-.91-.9-2.06.17-2.67-2.99 1.07-1.09-.08-1.82 2.43-.63.98-.74-1.35-1.47.35-1.44 3.12-2.33z" fill="#fff" stroke="#2A8086" stroke-width="1.45"/>
  <path d="M325.35 601.9l-.68-1.26-1.2-.35.27-1.61-.53-.44-.81-.29-1.74.48-.14-.54-1.2-.65-.84-.8-1.17-.35.82-1.03-.31-.8.28-.77 1.87-1.14 1.8-1.55.4.16.87-.72 1.13-.06.37.33.6-.2 1.84.37 1.82-.1 1.27-.46.47-.46 1.26.22.94.27 1.03-.1.79-.35 1.8.57.63.09 1.2.76 1.14.91 1.44.63 1.04 1.11-1.36-.08-.54.55-1.38.53h-1l-.86.52-.8-.18-.67-.62-.41.12-.5.97-.39-.04-.06.84-1.38 1.1-.72.49-.4.5-1.17-.82-.86 1.08-.82-.03-.93.1.09 1.98-.58.04-.5.92-1.22.16zM744.27 449.93l.96 2.18 1.26 1.6-1.52 2.09-1.79-1.23-2.73.08-3.39-.93-1.84.12-.86 1.16-1.42-1.28-.82 2.31 1.93 2.58.86 1.7 1.81 2.04 1.5 1.2 1.5 2.26 3.49 2.03-.44.9-3.7-1.98-2.3-1.93-3.6-1.6-3.32-4.03.8-.4-1.8-2.32-.08-1.88-2.54-.88-1.2 2.4-1.17-1.86.09-1.94.14-.1 2.75.2.72-.95 1.34.92 1.55.1-.01-1.56 1.37-.58.38-2.3 3.14-1.5 1.26.7 2.95 2.43 3.26 1.09 1.47-.84zM381.1 573.54l2.41.18 3.42.66.35 2.26-.3 1.6-.97.7 1.02 1.24-.08 1.12-2.62-.7-1.86.28-2.41-.3-1.85.78-2.11-1.29.34-1.33 3.64.57 2.98.33 1.42-.92-1.8-1.8.02-1.58-2.49-.65.9-1.15z" fill="#fff" stroke="#2A8086" stroke-width="1.45"/>
  <path d="M733.9 444.55l1.32-3.73-.77-1.27h2.22l.3-2.4 2.01 1.5 1.46.64 3.3-.72.33-1.18 1.56-.18 1.92-.91.43.38 1.86-.74.92-1.4 1.3-.36 4.22 1.8.84-.6 2.2 1.6.27 1.58-2.41 1.23-1.87 3.94-2.38 3.88-3.17 1.08-2.46-.25-3.03 1.49-1.47.84-3.26-1.09-2.95-2.43-1.26-.7-.76-1.94-.67-.06zM1146.38 693.61l-1.66.08-5.24-2.79 3.68-.78 2.08 1.21 1.38 1.2-.24 1.08zm14.69-.4l-3.38.88-.48-.47.36-1.36 1.7-2.42 3.9-1.58.4.78.07 1.2-2.57 2.98zm-25.8-8.11l1.42 1.05 2.44-.32.98 1.69-4.56.8-2.74.52-2.12-.03 1.36-2.28 2.16-.03 1.06-1.4zm19.75 0l-.58 2.2-5.93 1.12-5.25-.49-.01-1.45 3.13-.82 2.47 1.19 2.63-.3 3.54-1.46zm-56.36-5.21l7.56.4.87-1.64 7.32 1.9 1.44 2.57 5.92.72 4.84 2.35-4.51 1.51-4.33-1.6-3.58.11-4.09-.3-3.7-.7-4.57-1.51-2.9-.4-1.64.5-7.19-1.63-.69-1.7-3.61-.29 2.71-3.77 4.79.24 3.18 1.54 1.64.3.54 1.4zm103.01-2.22l-2.03 2.68-.38-2.97.7-1.41.82-1.34.9 1.16-.01 1.88zm-29.5-10.85l-1.48 1.3-2.73-.72-.77-1.68 4-.2.98 1.3zm12.71-1.43l1.44 3-3.33-1.62-3.3-.32-2.23.25-2.73-.13.94-2.16 4.87-.16 4.34 1.14zm14.5-7.62l1.1 6.34 4.08 2.35 3.3-4.16 4.53-2.37h3.51l3.37 1.37 2.93 1.4 4.24.75.06 12.81.07 12.9-3.51-3.26-4.01-.8-.97 1.13-5 .12 1.67-3.22 2.49-1.1-1.03-4.3-1.9-3.3-7.65-3.33-3.25-.33-5.93-3.63-1.17 1.9-1.51.35-.9-1.44-.01-1.7-3.01-1.93 4.25-1.42 2.81.08-.33-1.04h-5.78l-1.56-2.34-3.52-.73-1.68-1.94 5.32-.95 2.03-1.28 6.33 1.62.63 1.45zm-35.14-10.08l-3.17 3.89-2.97.75-3.79-.76-6.58.2-3.45.56-.56 2.96 3.53 3.5 2.14-1.79 7.36-1.33-.33 1.8-1.72-.56-1.71 2.3-3.48 1.51 3.74 5.03-.72 1.35 3.54 4.54-.03 2.58-2.11 1.16-1.55-1.38 1.91-3.23-3.87 1.53-.98-1.1.51-1.51-2.85-2.3.3-3.83-2.64 1.2.34 4.57.16 5.63-2.5.57-1.7-1.15 1.13-3.63-.61-3.79-1.66-.03-1.23-2.69 1.64-2.57.56-3.11 1.98-5.91.83-1.62 3.35-2.9 3.09 1.15 4.97.54 4.54-.16 3.9-2.85.69.88zm13.61 1.13l-.21 3.42-2.03-.38-.6 2.38 1.62 2.07-1.1.47-1.6-2.48-1.17-5.01.79-3.13 1.31-1.43.29 2.14 2.33.34.37 1.6zm-42.68-2.73l4.43 3.63-4.68.46-1.31 2.67.17 3.55-3.8 2.69-.1 3.9-1.52 6-.58-1.4-4.49 1.78-1.56-2.4-2.81-.23-1.97-1.26-4.69 1.41-1.44-1.9-2.59.22-3.25-.45-.61-5.26-1.97-1.1-1.89-3.35-.55-3.43.46-3.63 2.34-2.6.66 2.61 2.7 2.22 2.55-.8 2.52.29 2.3-1.99 1.89-.34 3.73 1.1 3.22-.84 2.03-5.45 1.52-1.37 1.36-4.47h4.54l3.42.67-2.24 3.55 2.9 3.71-.69 1.8zm-47.58 30.15l-4.37.08-3.33-3.3-5.07-3.2-1.68-2.39-2.99-3.2-1.96-2.93-3.01-5.5-3.46-3.26-1.16-3.37-1.45-3.06-3.56-2.47-2.07-3.36-2.97-2.2-4.11-4.34-.35-2 2.54.16 6.11.76 3.49 3.85 3.05 2.66 2.18 1.64 3.74 4.22 4.01.06 3.31 2.68 2.29 3.29 3 1.79-1.58 3.2 2.26 1.36 1.42.1.67 2.74 1.38 2.18 2.9.35 1.92 2.49-1 4.88-.15 6.09zM645.5 401.16l.65 4.73-2.98 5.8-7 3.78-5.59-.96 3.2-6.73-2.06-6.71 5.37-5.28 2.98-3.2.82 3.66-.82 3.62 2.45-.09 2.98 1.38zM810.93 517.34l-.68 1.47-1.43-.65-.83 3.1 1 .51-1.01.64-.18 1.2 1.86-.62.1 1.8-1.97 7.26-2.6-7.81 1.15-1.52-.27-.26 1.05-2.16.8-3.51.56-1.2.1-.04 1.33.01.36-.82 1.06-.06.06 1.91-.53.71.07.04zM882.77 495.8l3.47-.95 2.8-2.84 2.64.14 1.74-.93 2.8.46 4.37 2.52 3.15.55 4.5 4.35 2.95.18.35 4.09-1.61 5.98-1.09 3.45 1.72.7-1.69 2.57 1.3 3.72.3 2.93 3 .78.32 2.95-3.58 4.12 1.95 2.38 1.6 2.7 3.76 1.97.11 3.91 1.9.72.32 2.03-5.7 2.26-1.48 5.06-7.43-1.31-4.3-1-4.45-.56-1.69-5.38-1.89-.78-3.03.79-3.98 2.13-4.82-1.46-3.99-3.4-3.8-1.26-2.63-4.23-2.91-6.01-2.13.73-2.5-1.5-1.48 1.77-2.18-2.39-.04-2.43h-1.26l.64-3.33-2.03-3.52-4.83-2.56-2.74-4.48.92-3.72 1.98-1.65-.3-2.81-2.58-1.46-2.56-5.84-2.16-3.97.77-1.55-1.23-5.78 2.7-1.46.63 1.93 2 2.33 2.7.67 1.43-.15 4.65-3.73 1.49-.38 1.16 1.5-1.36 2.5 2.46 2.63.98-.25 1.25 3.67 3.75 1.04 2.74 2.47 5.6.85 6.17-1.3.38-1.16zM612.7 300.01l-.91 6.3 4.46 6.48-5.13 7.05-11.39 6.17-3.4 1.61-5.2-1.3-11-2.83 3.88-4-8.6-4.5 7-1.8-.17-2.77-8.29-2.2 2.67-6.3 5.98-1.46 6.15 6.6 6-5.29 4.96 2.76 6.44-5.22 6.55.7zM731.21 490.68l-1.42 3.91.6 1.53-.84 2.53-3.02-1.85-2-.53-5.51-2.51.55-2.56 4.62.46 4.02-.55 3-.44zm-24.9-15.23l2.37 3.69-.56 6.77-1.8-.32-1.6 1.69-1.5-1.34-.16-6.17-.9-2.97 2.17.26 1.98-1.61zm12.5-30.42l5.64 1.48-.43 2.8.95 2.4-3.15-.81-3.2 2 .21 2.76-.48 1.58 1.3 2.8 3.7 2.74 1.98 4.46 4.4 4.3 3.08-.04.97 1.17-1.11 1.04 3.53 1.9 2.9 1.57 3.38 2.7.41.97-.74 1.83-2.18-2.4-3.43-.84-1.66 3.32 2.85 1.9-.47 2.64-1.65.3-2.1 4.3-1.65.38.01-1.52.8-2.7.87-1.07-1.55-2.94-1.2-2.59-1.64-.63-1.16-2.23-2.54-.95-1.7-2.09-2.93-.34-3.08-2.37-3.61-3.44-2.68-3.08-1.24-5.36-1.96-.63-3.21-1.81-1.82.74-2.28 2.54-1.64.4.45-2.38-2.14-.69-1.01-4.28 1.36-1.7-1.16-2.1.17-1.6 1.7 1.2 1.9-.26 2.21-1.92.69.9 1.87-.18.86-2.3 2.92.72 1.74-.96.31-2.35 2.4.81.45-1.09 3.9-1 .88 2zM363.82 579.46l2.65.37 2.1 1 .66 1.12-2.78.08-1.2.69-2.2-.67-2.26-1.5.47-.94 1.66-.3.9.15z" fill="#fff" stroke="#2A8086" stroke-width="1.45"/>
  <path d="M810.25 518.8l.68-1.46 4.4 1.84 7.73-4.98 1.59 5.69-.75.7-7.9 2.31 3.93 4.59-1.3.77-.66 1.52-3 .63-.95 1.63-1.7 1.38-4.4-.71-.13-.66 1.96-7.27-.09-1.78.59-1.36v-2.83zM1201.33 510.56l.51 1.62-2.23 2.85-1.62-1.5-2.02 1.09-1.05 2.74-2.57-1.33.03-2.23 2.19-2.82 2.24.55 1.62-2 2.9 1.03zm25.02-14.48l-1.49 3.92.69 2.44-2.06 3.4-5.04 2.25-6.94.3-5.62 5.4-2.66-1.8-.16-3.56-6.86 1.05-4.67 2.24-4.62.09 4 3.46-2.64 7.9-2.55 1.94-1.91-1.79.97-4.17-2.5-1.35-1.6-3.21 3.73-1.45 2.07-2.98 3.97-2.46 2.9-3.28 7.85-1.44 4.22.98 4.13-8.68 2.63 2.35 5.79-4.94 2.25-1.94 2.48-6.17-.68-5.77 1.67-3.28 4.2-.96 2.15 7.19-.12 4.13-3.65 5.07.07 5.13zm11.57-36.5l2.78 1.17 2.79-2.32.88 6.12-5.86 1.47-3.45 5.3-6.21-3.64-2.14 5.8-4.39.08-.55-5.26 1.95-4.13 4.22-.3 1.15-7.58 1.17-4.35 4.64 5.8 3.02 1.84zM831.74 656.62l2.34 3.23-2.76 1.57-.98 1.64-1.48.29-.56 2.76-1.26 1.59-.77 2.61-1.6 1.3-5.66-3.93-.27-2.28-14.3-8-.67-.42-.04-4.16 1.13-1.58 1.94-2.6 1.44-2.86-1.74-4.5-.46-1.97-1.88-2.73 2.43-2.35 2.68-2.6 2.05.67v2.2l1.35 1.3h2.74l5 3.34 1.25.04.92-.11.88.45 2.63.31 1.16-1.64 3.6-1.64 1.6 1.33h2.7l-3.45 4.45.04 14.29zM950.02 469.88l.89-2.33 2.6-.76 6.49 1.84.61-3.16 2.24-1.12 5.62 2.27 1.44-.6 6.54.15 5.86.56 1.98 1.92 2.43.79-.56 1.2-6.21 2.86-1.41 2.08-5.06.62-1.5 3.31-4.17-.7-2.73 1.02-3.77 2.43.54 1.2-1.12 1.16-7.46.77-4.88-1.65-4.28.4.38-2.96 4.3.86 1.44-1.58 3 .5 5.05-3.72-4.67-2.75-2.81 1.3-2.92-1.97 3.32-3.42-1.18-.52zM1078.43 611.33l-1.61-2.08-1.99-4.14-.94-4.86 2.53-3.35 5.1-.78 3.7.58 3.26 1.59 1.79-2.8 3.49 1.5.92 2.7-.49 4.82-6.63 3.08 1.73 2.42-4.14.3-3.42 1.6-3.3-.58zM1185.55 469.2l.55.93-1.5-.32-1.71 1.8-1.18 1.79.15 3.75-2.04 1.15-.7.91-1.49 1.53-2.63.84-1.71 1.38-.12 2.2-.46.57 1.57.82 2.23 2.21-.57 1.22-1.68.33-2.79.24-1.53 2.25-1.76-.17-.25.45-1.92-.95-.48.94-1.15.4-.14-.93-1.02-.46-1.06-.79 1.08-2.2.93-.6-.35-.92 1-2.73-.26-.83-2.3-.56-1.87-1.37 3.22-3.3 4.35-2.8 2.71-3.72 1.87 1.65 3.41.2-.61-2.79 6.09-2.28 1.57-3 2.55 3.16z" fill="#fff" stroke="#2A8086" stroke-width="1.45"/>
  <path d="M1176.51 488.76l3.41 5.89.98 3.2.03 5.6-1.49 2.65-3.57.92-3.16 1.99-3.55.4-.45-2.6.74-3.6-1.75-5.08 2.93-.82-2.7-4.23.25-.45 1.76.17 1.53-2.25 2.79-.24 1.68-.33.57-1.22zM751.9 471.02l-.18 1.08-.5-.04-.26-1.92-.95-.54-.84-1.44.74-1.2.94-.38.55-1.79.7-.3.57.76.74.34.51.86.65.25.77.99.56-.03-.44 1.3-.48.64.13.4-.88.2-2.33.82zM859.3 529.9l.82 2-.35 1.03 1.27 3.39-2.8.11-.97-2.13-3.52-.43 2.9-4.34 2.65.38zM811.33 514.67l-1.06.07-.36.82h-1.32l1.4-3.85 1.97-3.34.07-.17 1.78.24.64 1.87-2.15 1.79-.97 2.57zM992.75 623.68l-.6 4.1-1.65 1.13-3.43.9-1.88-3.13-.7-5.69 1.79-6.44 2.72 2.2 1.84 2.8 1.9 4.13zM639.52 636.13l-1.03.03-4.07-1.87-3.59-3-3.36-2.15-2.66-2.55.95-1.26.2-1.15 1.79-2.15 1.83-1.85.85-.09 1.03-.45 1.65 2.43-.26 1.6.76.83 1.12.02.8-1.6 1.12.11-.18 1.15.4 1.91-.86 1.75 1.15 1.09 1.25.26 1.67 1.65.12 1.55-.38.5-.3 3.24zM784.33 772l1.37 1.36-1.22 2.19-.67 1.48-2.2.7-.72 1.46-1.41.46-2.96-3.5 2.1-2.86 2.14-1.76 1.84-.91 1.73 1.38zM759.67 398.07l-.31-1.73.42-1.86-1.75-1.1-4.13-1.2-.84-5.86 4.52-2.17 6.62.46 3.88-.7.55 1.47 2.1.45 3.8 3.4.36 3.11-3.23 2.2-.92 3.84-4.28 2.52-3.82-.04-.94-2.07-2.03-.72zM693.8 425.09l.8 1.38-.23 2.67-1.13.13-.89-.53.43-3.42 1.03-.23z" fill="#fff" stroke="#2A8086" stroke-width="1.45"/>
  <path d="M753.06 386.32l.14-5.36 1.93-4.55 3.73-2.51 3.13 5.46 3.16-.14.76-5.62 3.37-1.3 1.73.9 3.4 2.74h3.25l1.9 1.7.33 3.5 1.27 4.2-4.24 2.72-2.4 1.18-3.8-3.4-2.1-.46-.54-1.48-3.88.7-6.62-.45-4.52 2.17zM728.57 561.12l-2.79 1.58-2.22-2.34-6.24-1.84-1.74-2.69-3.11-2-1.84.79-1.4-2.4-.16-1.87-2.33-3.17 1.57-1.83-.35-2.77.5-2.42-.28-2.02.7-3.65-.22-2.09-1.28-4 1.93-1.05.34-1.93-.42-1.9 2.7-1.78 1.22-1.48 1.93-1.34.22-3.58 4.64 1.6 1.65-.4 3.3.78 5.24 2.08 1.85 4.11 3.54.9 5.56 1.91 4.2 2.27 1.93-1.18 1.9-2.1-.93-3.53 1.24-2.25 2.85-2.18 2.71-.64 5.34.96 1.35 2.08 1.47.02 1.25.79 3.92.54.97 1.53-1.43 2.2.6 1.96-1 2.8 1.17 3.65v39.94h-4.53l-.05 1.75-15.74-8.02-15.74-8.13-3.99 2.34zM664.48 516.61l-1.36-4.96-.24-2.9-1.49-3.06-1.7-.05-4.1-1.06-3.75.33-2.38-2.05-2.9-.02-1.24 2.96-2.64 4.94-2.93 1.96-3.96 2.15-2.54 3.16-.53 2.45-1.5 3.96.99 5.68-3.3 3.77-1.97 1.2-3.11 3.04-3.67.5-1.99 1.7-.02.02 17.6-.02v0l-.02-5.29 6.37-3.32 3.94-.69 3.23-1.22 1.5-2.27 4.62-1.8.17-3.41 2.29-.4 1.78-1.71 5.17-.79.72-1.8-1.04-1zM775.02 436.57l.94-.87 2.62-.59 2.91 1.84 1.62.23 1.79 1.58-.29 1.98 1.44.95.57 2.42 1.38 1.46-.28.85.74.58-1.05.42-2.32-.17-.4-.79-.82.46.28 1.02-1.08 1.81-.69 1.94-1 .6-.7-2.56.42-2.43-.13-2.51-2.28-3.44-1.25-2.46-1.22-1.74-1.2-.58zM748.11 468.64l-.25-1-1.71 2.62.26 1.68-.82-.4-1.1-1.74-1.72-1.06.44-.9.58-2.96 1.28-1.25.74-.5 1.05.93.57.75 1.3.58 1.5 1.12-.32.46-.74 1.2-1.06.47zM865.5 702.53l1.04 1.72.98 2.65.63 4.87 1.02 1.9-.39 1.95-.7 1.2-1.34-2.39-.74 1.21.75 3.02-.35 1.74-1.09.95-.24 3.48-1.56 4.82-1.95 5.75-2.43 7.99-1.52 5.93-1.78 5-3.21 1.02-3.44 1.84-2.28-1.1-3.13-1.56-1.09-2.28-.26-3.81-1.39-3.4-.36-3.06.7-3.04 1.82-.73.01-1.4 1.89-3.17.36-2.66-.92-1.97-.75-2.6-.31-3.8 1.38-2.3.52-2.6 1.97-.15 2.2-.83 1.46-.74 1.74-.06 2.25-2.32 3.25-2.5 1.18-2.03-.54-1.73 1.68.49 2.17-2.8.08-2.42 1.3-1.8 1.38 1.73zM751.22 472.06l.5.04.18-1.08 2.33-.82.88-.2 1.35-.32 1.83-.08 1.97 1.7.28 3.48-.75.17-.65.91-2.14-.1-1.5 1.14-2.58.46-1.64-1.27-.56-2.24.5-1.8zM621.92 595.31l1.33-.74.67-2.39 1.25-.1 2.75 1.14 2.23-.8 1.52.26.6-.9 15.83-.06.88-2.86-.68-.5-1.9-17.86-1.91-18.37 6.04-.08 13.31 9.36 13.31 9.22.94 1.96 2.46 1.2 1.83.67.04 2.65 4.38-.4.01 9.5-2.16 2.73-.33 2.5-3.5.65-5.4.35-1.45 1.45-2.53.16-2.53.02-.99-.78-2.17.57-3.69 1.69-.75 1.26-3.06 1.81-.54 1.04-1.66.82-1.9-.54-1.08.98-.58 2.76-3.14 3.33.1 1.35-1.08 1.7.26 2.31-1.63.6-.92.5-.61-1.71-1.14.45-.68-.08-.73 1.16-3.05-.03-1.09-.6-.51.37-1.2-1.15.2-1.2-.5-.46-.83.4.15-1.3.81-1.03-1.62-1.68-.47-1.1-.87-.89-.8-.1-.94.56-1.28.54-1.08.86-1.69-.32-1.1-1.01-.65-.14-1.03.54h-.63l-.22-1.47.18-1.25-.34-1.56-1.48-1.13-.77-2.31-.19-2.52zM1062.82 572.4l-2.3 1.82-2.79.18-1.8 4.5-1.66.74 1.91 3.62 2.5 3 1.62 2.7-1.45 3.54-1.36.76.94 2.03 2.63 3.22.46 2.25-.07 1.87 1.55 3.66-2.17 3.73-1.91 4.1-.38-2.96 1.21-3.06-1.33-2.37.32-4.38-1.6-2.09-1.29-4.84-.71-5.14-1.71-3.4-2.6 2.06-4.48 2.91-2.21-.36-2.45-.96 1.36-5.07-.82-3.86-3.1-4.78.49-1.5-2.31-.53-2.8-3.41-.26-3.38 1.38.63.08-3.03 1.94-1-.41-1.8.89-1.45.15-4.44 3.09.98 1.76-3.55.2-2.1 2.17-3.66-.12-2.5 5.11-3.04 2.82.8-.32-2.73 1.38-.81-.29-1.69 2.3-.33 1.32 2.62 1.73 1.06.11 3.37-.16 3.62-3.73 3.63-.48 5.11 4.17-.71.94 3.94 2.5.83-1.15 3.53 2.93 1.59 1.71.77 2.89-1.23.12 1.75-3.36 2.74-.84 1.54-2.26.96zM806.36 698.73l-1.11 3.04 1.1 5.23 1.38-.06 1.42 1.3 1.65 2.93.34 5.23-1.71.86-1.2 2.84-2.58-2.53-.3-2.87.84-1.9-.23-1.62-1.56-1.02-1.08.37-2.28-1.94-2.07-1.05 1.2-3.74 1.24-1.4-.76-3.32.8-3.25.67-1.08-1-3.38-1.87-1.77 3.87.74.8 1.1 1.33 1.86 1.1 5.43zM286.58 548.16l-1.53 3.81-.7 3.11-.28 5.74-.38 2.07.68 2.32 1.23 2.05.79 3.26 2.61 3.12.93 2.38 1.54 2.04 4.2 1.1 1.62 1.73 3.46-1.16 3.01-.42 2.96-.74 2.48-.71 2.51-1.7.94-2.42.33-3.52.68-1.22 2.67-1.1 4.18-.98 3.5.14 2.38-.35.95.89-.13 2.03-2.12 2.49-.94 2.54.73.72-.6 1.8-.98 3.23-1-1.06-.83.07-.75.05-1.42 2.5-.71-.5-.48.2.03.6-3.65-.04h-3.68v2.32l-1.79.01 1.47 1.37 1.46.95.44.88.64.25-.1 1.4h-5.07l-1.9 3.33.56.76-.46.95-.1 1.18-4.46-4.38-2.03-1.32-3.23-1.06-2.2.3-3.17 1.53-2 .4-2.78-1.07-2.95-.78-3.7-1.88-2.95-.57-4.47-1.9-3.3-1.97-1-1.1-2.2-.25-4.04-1.3-1.65-1.9-4.24-2.35-1.98-2.62-.94-2.04 1.32-.41-.4-1.2.9-1.09.02-1.45-1.33-1.9-.36-1.68-1.32-2.15-3.48-4.24-3.97-3.36-1.92-2.7-3.38-1.77-.73-1.07.6-2.7-2.01-1.02-2.33-2.14-.98-3.09-2.13-.36-2.29-2.35-1.85-2.18-.17-1.4-2.12-3.4-1.4-3.5.06-1.75-2.86-1.83-1.31.2-2.25-1.27-.64 1.87.66 2.2.38 3.43 1.35 1.87 2.93 3.1.65 1.06.6.32.52 1.54.7-.07.8 2.87 1.2 1.13.84 1.57 2.48 2.24 1.3 4.07 1.18 1.9 1.1 2.03.21 2.28 1.9.14 1.59 1.95 1.43 1.92-.1.76-1.66 1.57-.7-.03-1.04-2.59-2.58-2.44-2.85-2.08-2.02-1.1.13-3.17-.6-2.36-1.88-1.36-2.7-1.96-.53.57-1-1.15-2.43-1.06-2.32-2.57.28-.34 1.63.26 1.46-1.66.15-2.02-3.04-3.2-2.32-1.25-1.45-2.82-1.46-3-1.83-3.66-1.6-4.17 4.48-.36 5.01-.5-.37.9 5.96 2.26 9 3.25 7.85-.03h3.13l.01-1.9h6.84l1.44 1.63 2.02 1.46 2.34 2 1.31 2.38.98 2.5 2.04 1.36 3.28 1.35 2.49-3.57 3.22-.08 2.78 1.8 1.98 3.07 1.37 2.62 2.33 2.53.87 3.09 1.1 2.06 3.08 1.36 2.8.96 1.54-.13zM1068.87 628.88l.31 2.03 2.61-.47 1.29-1.62.9.37 2.34 2.38 1.65 2.63.23 2.65-.42 1.79.38 1.35.29 2.32 1.39 1.08 1.55 3.47-.08 1.33-2.79.26-3.74-2.9-4.67-3.12-.46-2-2.28-2.63-.54-3.25-1.43-2.15.44-2.87-.87-1.67.68-.7 3.22 1.72zm69.24 6.8l-2.91 1.34-3.42-.66h-4.54l-1.37 4.47-1.52 1.36-2.02 5.46-3.22.83-3.73-1.1-1.89.35-2.3 1.98-2.52-.28-2.55.8-2.7-2.22-.66-2.62 2.89 1.34 3.05-.73.8-3.32 1.68-.74 4.73-.85 2.83-3.11 1.94-2.49 1.8 2.04.83-1.34 1.88.13.23-2.52.18-1.93 3.04-2.75 1.99-3.08 1.6-.01 2.02 2 .18 1.7 2.6 1.1 3.3 1.2-.28 1.53-2.65.2.71 1.92z" fill="#fff" stroke="#2A8086" stroke-width="1.45"/>
  <path d="M806.36 698.73l2.97-.33 4.74 1.13 1.03-.5 2.75-.1 1.4-1.2 2.37.06 4.31-1.55 3.15-2.32.63 1.8-.16 3.97.49 3.52.15 6.3.7 1.99-1.18 2.9-1.53 2.83-2.51 2.54-3.61 1.56-4.45 2-4.46 4.42-1.52.76-2.75 2.95-1.63.96-.33 2.98 1.87 3.18.78 2.48.04 1.26.7-.2-.11 4.16-.64 1.98.93.74-.59 1.78-1.65 1.54-3.25 1.45-4.75 2.35-1.73 1.6.34 1.85 1 .3-.33 2.3-3-.04-.33-1.94-.59-1.96-.34-1.56.7-4.82-1.02-3.06-1.89-6 4.16-4.79 1.04-3.02.6-.39.44-2.45-.63-1.24.17-3.1.77-2.86-.01-5.2-2.05-1.32-1.88-.3-.85-1-1.83-.87-3.3.09-.25-1.52-.37-2.9 11.97-3.33 2.28 1.94 1.08-.37 1.56 1.02.23 1.63-.83 1.89.29 2.87 2.58 2.53 1.2-2.84 1.7-.86-.33-5.23-1.65-2.92-1.42-1.3-1.38.05-1.1-5.23 1.1-3.04zM734.47 770.3l-2.94-3.36-1.54-3.23-.87-4.28-.97-3.16-1.33-6.64-.09-5.12-.5-2.3-1.54-1.75-2.03-3.48-2.08-5.02-.86-2.61-3.21-4.04-.24-3.16 1.9-.78 2.36-.7 2.56.12 2.35 1.86.6-.29 16-.18 2.73 1.98 9.56.58 7.25-1.68 3.23-.93 2.56.23 1.56.93.03.34-2.23.93h-1.2l-2.51 1.63-1.51-1.7-6.09 1.44-2.93.14-.12 14.87-3.89.15V769.8l-3.53 2.28-2.12.33-2.48-.85-1.77-.32-.66-1.91-1.56-1.22-1.9 2.2zM1324.24 737.85l3.23 2.61 2.06 1.95-1.5 1.01-2.18-1.14-2.82-1.9-2.54-2.24-2.62-2.96-.54-1.41 1.7.05 2.21 1.43 1.73 1.42 1.27 1.18zM678.46 606.1l.1-2.75-4.56-.91-.12-1.95-2.23-2.64-.52-1.84.3-1.96 2.54-.16 1.46-1.45 5.38-.35 3.5-.64.34-2.51 2.16-2.74v-9.5l5.56-1.85 11.42-8.24 13.53-8.1 6.24 1.85 2.22 2.34 2.8-1.58.96 6.58 1.48 1.1.06 1.33 1.64 1.44-.86 1.8-1.51 8.41-.21 5.34-5.04 3.86-1.7 5.34 1.64 1.5v2.6l2.52.1-.4 1.89-1.1.23-.13 1.28-.74.09-2.67-4.4-.92-.17-3.09 2.25-3.05-1.17-2.13-.24-1.14.57-2.31-.13-2.33 1.72-2.01.1-4.78-2.08-1.87.99-2.01-.07-1.48-1.52-3.96-1.5-4.24.47-1.03.87-.55 2.32-1.13 1.62-.28 3.58-3-2.3h-1.42l-1.33 1.18z" fill="#fff" stroke="#2A8086" stroke-width="1.45"/>
  <path d="M703.5 634.52l-4.09 1.42-1.5-.2-1.52.88-3.15-.1-2.12-2.45-1.3-2.85-2.79-2.6-2.97.05h-3.48l.23-6.37-.1-2.52.74-2.5 1.22-1.22 1.91-2.46-.41-1.07.77-1.61-.88-2.37.15-1.33.27-3.58 1.14-1.62.55-2.32 1.03-.87 4.24-.48 3.96 1.5 1.48 1.53 2.01.07 1.87-1 4.78 2.09 2.01-.1 2.33-1.71 2.31.12 1.14-.57 2.13.24 3.05 1.17 3.09-2.25.92.16 2.67 4.4.74-.08 1.56 1.6-.43.72-.2 1.33-3.33 3.1-1.05 2.54-.55 2.07-.84.88-.8 2.78-2.1 1.64-.62 2-.89 1.6-.36 1.64-2.72 1.33-2.21-1.63-1.5.07-2.35 2.31-1.14.04-1.88 3.8-1.01 2.78zM331.68 609.5l-1.36-1.25-1.85-1.62-.87-1.35-1.66-1.26-1.98-1.81.44-.63.65.6.3-.28 1.23-.16.5-.92.57-.04-.08-1.98.92-.1.82.03.86-1.08 1.16.82.4-.5.73-.48 1.38-1.11.06-.84.38.04.51-.97.41-.12.68.62.79.18.87-.51h1l1.37-.53.54-.56 1.36.08-.35.4-.2.9.4 1.48-.9 1.38-.43 1.62-.12 1.78.2 1.04.1 1.8-.6.4-.36 1.72.27 1.06-.81 1.02.18 1.08.6.65-.94.85-1.16-.26-.66-.83-1.25-.33-.9.52-2.6-1.06-.6.52zM689.42 405.84l-.24 1.28.68.22.3.58.12.52.55.2.04.27-.5.37-.53.04v.4l.37.66-.54.64.55.17 1.11-1.08.68-1v-.67l-.24-.47-.64-.32.14-.74-.14-.64.58-1.41.58-.73 1.64-.6 3.28.2.74 2.22-.99 5.95-1 2.4h-2.37l.67 6.6-2.17-1.45-2.5-2.75-3.66 1.3-2.89-.49 1-1.74 1.28-1.7 1.8-1.76 1.07-2.95.34-3.07.89-.45zM781.12 248.18l12.34 8.78-5.08 3.14 4.33 7.2-6.72 4.48-3.19 1.02 1.67-7.87-5.06-4.57-6.13 3.9-1.93 8.24-3.77 4.84-4.24-2.63-5.15.54-4.39-5.85-2.36 2.94-2.45.46-.58 7.15-7.44-1.72-1.04 5.94-3.79-.04-2.6 7.38-3.95 11.07-6.13 13.38 1.43 3.14-1.37 3.6-3.91-.16-2.57 8.31.25 11.32 2.52 4.2-1.3 9.46-3.3 5.37-1.73 4.43-2.65-4.72-7.8 8.82-5.25 1.75-5.46-3.82-1.41-8.25-1.25-18.66 3.63-5.46 10.42-7.3 7.8-9.26 7.22-13.1 9.49-19.37 6.6-7.98 10.85-13.93 8.66-5.05 6.5.62 6-9.85 7.2.54 7.09-2.43zM1017.74 539.33l-.3 1.9.51 2.8-.45 1.75-3.28.07-4.75-1.02-3.05-.42-2.28-2.24-5.4-.57-5.15-2.5-3.73-2.18-3.82-1.69 1.53-4.2 2.5-2.06 1.64-1.1 3.17 1.4 3.98 2.95 2.22.65 1.33 2.16 3.06.88 3.2 1.96 4.47 1.02 4.6.44zM1352.81 829.54l.9 2.16 2.8-2.12 1.15 2.2V834l-1.47 2.45-2.58 3.94-2.02 2.16 1.46 2.62-3.05.07-3.37 2.06-1.06 3.61-2.24 5.67-3.1 2.54-1.97 1.63-3.64-.12-2.55-1.89-4.29-.4-.66-2.08 2.12-4.16 4.96-5.45 2.55-1.03 2.83-2.08 3.38-2.82 2.37-2.78 1.76-3.96 1.5-1.33.58-2.92 2.77-2.4.87 2.21zm6.28-23.94l2.86 5.15.09-3.35 1.78 1.34.59 3.73 3.17 1.62 2.67.4 2.26-1.9 2 .57-.96 4.44-1.2 2.94-3.01-.1-1.06 1.54.37 2.2-.58.95-1.49 2.78-1.96 3.57-3.05 2.09-.68-1.38-1.64-.75 2.27-4.28-1.29-2.83-4.25-2.05.11-1.84 2.86-1.76.66-3.86-.18-3.22-1.6-3.3.11-.86-1.89-2.01-3.11-4.28-1.65-3.4 1.47-.37 2.15 2.66 3.07 1.25 1.11 4.3zM902.26 568.52l-1.47 2.87-1.79-.22-.82 1-.63 2.12.48 2.78-.37.5h-1.82l-2.46 1.54-.38 2.01-.9.87-2.46-.03-1.55 1.04.02 1.66-1.9 1.14-2.19-.39-2.63 1.38-1.83.24-1.29-2.87-3.08-6.81 11.84-4.17 2.63-8.4-1.81-3 .1-1.72 1.15-1.77.01-1.75 1.79-.85-.7-.6.32-2.8 2.02-.03 1.77 2.95 2.2 1.56 2.9.56 2.33.78 1.79 2.45 1.06 1.42 1.41.53v.95l-1.44 2.52-.63 1.19-1.67 1.35zm-9.74-20.48l-.52.8-.75-1.5 1.15-1.48.49.38-.37 1.8zM362.59 624.86l-1.32-1.14-.84-2.14.97-1.06-1-.27-.74-1.3-1.96-1.11-1.73.25-.8 1.38-1.6 1-.85.14-.4.82 1.9 2.15-1.09.5-.57.59-1.83.2-.69-2.36-.5.67-1.31-.23-.8-1.6-1.62-.26-1.02-.46h-1.7l-.12.87-.45-.6.2-.79.34-.8-.16-.72.6-.47-.83-.6-.02-1.59 1.53-.36 1.42 1.43-.09.84 1.58.18.37-.32 1.09.97 1.94-.28 1.68-1 2.4-.8 1.34-1.2 2.18.24-.15.39 2.2.13 1.76.7 1.29 1.18 1.48 1.1-.48.58.92 2.33-.75 1.18-1.27-.28-.5 1.92zM395.3 723.3l-1.05 2.1-2.03 1.06-3.96-2.37-.34-1.69-7.82-4.11-7.08-4.46-3.04-2.5-1.64-3.34.65-1.17-3.34-5.28-3.9-7.38-3.72-7.9-1.62-1.81-1.24-2.92-3.06-2.57-2.82-1.6 1.28-1.76-1.91-3.75 1.22-2.76 3.15-2.48.47 1.63-1.13.94.11 1.44 1.63-.31 1.6.42 1.65 1.99 2.23-1.62.75-2.65 2.42-3.42 4.74-1.54 4.3-4.11 1.24-2.55-.56-2.98 1.06-.37 2.62 1.86 1.26 1.85 1.83 1 2.32 4.12 2.94.5 2.18-1.05 1.42.68 2.37-.34 3.02 1.84-2.54 4 1.18.1 1.97 2.08-3.55-.18-.53.59-3.24.75-4.51 2.68-.29 1.84-1 1.37.39 2.13-2.39 1.15v1.66l-1.03.73 1.64 3.56 2.2 2.42-.84 1.7 2.62.23 1.49 2.12 3.48.1 3.24-2.34-.26 6.05 1.8.46 2.22-.68 3.41 6.44-.85 1.36-.2 2.84-.07 3.43-1.54 2.03.7 1.5-.9 1.38 1.7 3.43-2.5 4.42zM1285.16 680.05l-1.1.4-1.71-1.52-1.73-2.5-.85-3 .55-.38.42 1.17 1.2.9 1.91 2.5 1.87 1.33-.56 1.1zm-15.38-5.29l-2.06.33-.63 1.1-2.15.96-2.03.92h-2.09l-3.24-1.15-2.26-1.1.33-1.21 3.54.57 2.16-.3.59-1.9.57-.1.38 2.1 2.26-.3 1.11-1.35 2.2-1.4-.43-2.32 2.36-.07.8.64-.08 2.18-1.33 2.4zm-18.9 7.54l3.52 2.6 2.56 4.2 2.26-.13-.16 1.76 3.05.67-1.18.75 4.19 1.68-.44 1.15-2.61.28-.97-1.03-3.39-.45-3.99-.6-3.07-2.54-2.24-2.18-2.05-3.48-5.15-1.72-3.34 1.12-2.41 1.31.5 2.93-3.1 1.36-2.21-.66-4.08-.17-.07-12.89-.06-12.81 6.85 2.7 7.29 2.25 2.72 2.01 2.2 1.98.6 2.32 6.58 2.43.96 2.1-3.63.42.87 2.64zm23.47-11.39l-1.23 1.05-.75-2.32-.91-1.52-1.79-1.28-2.25-1.68-2.85-1.15 1.1-.95 2.13 1.1 1.34.86 1.66.94 1.58 1.65 1.5 1.26.47 2.04zM1168.73 620.15l.4 2.63.23 2.22-1.35 3.6-1.44-4.02-1.84 2 1.26 2.91-1.13 1.85-4.65-2.29-1.11-2.85 1.21-1.88-2.5-1.87-1.24 1.64-1.86-.15-2.92 2.2-.65-1.16 1.55-3.33 2.48-1.11 2.15-1.5 1.4 1.8 3-1.09.64-1.77 2.79-.1-.23-3.08 3.2 1.89.33 2 .28 1.46zm-9.45-7.41l-1.42 1.3-1.24 2.52-1.24 1.18-2.43-2.75.81-1.07.99-1.11.44-2.48 2.18-.23-.64 2.68 2.92-3.85-.37 3.8zm-21.62 3.83l-5.25 3.76 1.93-2.77 2.85-2.45 2.37-2.76 2.07-3.97.7 3.26-2.6 2.2-2.07 2.73zm13.33-10.28l2.37 1.24h2.51l-.07 1.67-1.83 1.7-2.51 1.2-.14-1.86.28-2.04-.61-1.9zm14.29-1.08l1.1 4.46-3.04-1.05.08 1.34.97 2.46-1.88.9-.16-2.81-1.19-.21-.62-2.42 2.32.32-.05-1.52-2.41-3.06 3.79.09 1.09 1.5zm-15.69-3.65l-1.05 3.47-1.69-2-2.02-3.07 3.39.15 1.37 1.45zm-.82-22.16l2.44 1.18 1.21-1.07.36 1.05-.64 1.7 1.35 2.95-1.04 3.4-2.33 1.36-.62 3.28.88 3.23 2.09.45 1.75-.48 4.93 2.24-.38 2.2 1.29.96-.41 1.85-3.08-1.97-1.45-2.12-1.02 1.48-2.51-2.41-3.59.6-1.96-.9.2-1.67 1.23-1.03-1.18-.93-.51 1.46-1.94-2.33-.59-1.77-.15-3.9 1.59 1.34.41-6.41 1.28-3.74h2.39zM729.23 419.02l-1.62-4.03.3-2.2-.97-3.45-1.43-2.32 1.1-1.75-.93-3.37 2.7-1.97 6.16-3.12 4.97-2.3 3.94 1.15.3 1.66 3.8.08 4.86.77 7.26-.1 2.03.72.94 2.07.18 2.94 1.09 2.5-.02 2.6-2.37 1.33 1.22 2.98.07 2.83 1.99 5.48-.43 1.74-1.95.72-3.59 5.08 1.02 2.7-.86-.34-3.75-2.32-2.84.85-1.87-.62-2.33 1.3-1.99-2.15-1.62.83-.22-.37-1.82-3-2.93-.37-.38-1.92-2.7-.7-.6 1.6-2.14-1.28.25-1.7-2.95-.54-1.87-2.01zM966.58 496.13l2.92 2.29 1.17 3.75 6.49 1.95-3.81 4.04-4.4.7-6-1.16-1.93 2.06 1.4 4.14 1.37 3.18 3.19 2.3-3.37 2.68.06 3.27-3.83 4.58-2.47 4.57-4.13 4.68-4.58-.33-4.35 4.63 2.58 1.98.45 3.36 2.22 2.2.78 3.72-8.68-.01-2.63 2.87-2.9-1.1-1.17-3.09-3.05-3.3-7.27.82-6.41.08-5.56.61 1.49-5.06 5.69-2.26-.33-2.03-1.89-.72-.1-3.9-3.78-1.97-1.59-2.71-1.95-2.38 6.61 2.3 3.95-.67 2.36.58.8-1 2.75.4 5.13-1.87.13-3.87 2.2-2.6h2.94l.43-1.28 3.02-.6 1.46.43 1.54-1.3-.21-2.79 1.67-2.82 2.51-1.19-1.55-3.12 3.75.15 1.09-1.71-.16-1.83 1.96-2.02-.45-2.4-.93-2.05 2.3-2.12 4.24-1.03 4.53-.57 2-.9 2.3-.56zM408.37 579.36l2.01.36.71.82-1 1.04-2.98-.02-2.3.15-.23-1.77.55-.6 3.24.02zM810.25 518.8v2.84l-.59 1.36-1.86.62.18-1.21 1-.64-.99-.52.83-3.09 1.42.65zM634.3 471.93l1.43-1.35 1.62-.77.98 2.59h2.33l.68-.67 2.3.18 1.1 2.64-1.82 1.41-.05 4.05-.64.76-.16 2.42-1.7.42 1.58 3.05-1.1 3.3 1.37 1.5-.55 1.35-1.46 1.86.33 1.63-1.58 1.28-2.09-.7-2.03.55.6-3.86-.37-3.07-1.77-.46-.94-1.9.31-3.32 1.58-1.85.28-2.08.82-3.1-.09-2.2-.78-1.89-.18-1.77zM422.56 742.78l1.56-5.05.1-2.26 1.89-3.67 6.88-1.21 3.66.05 3.68 2.13.07 1.3 1.16 2.32-.26 5.72 4.17.81 1.6-.83 2.67 1.15.74 1.27.37 3.91.46 1.65 1.47.2 1.48-.7 1.42.78v2.36l-.53 2.56-.78 2.51-.64 3.86-3.58 3.38-3.13.7-4.43-.67-3.98-1.2 3.89-6.66-.57-1.92-4.06-1.69-4.83-3.18-3.22-.66-7.26-6.96zM870.49 553l-.26-3.15 1.06-2.29 1.08-.47 1.2 1.37.06 2.54-.85 2.55-1.1.3-1.2-.85zM759.59 438.56l1.7-1.26 2.45.66 2.53.02 1.83 1.43 1.35-.9 2.9-.56 1-1.38h1.67l1.2.58 1.22 1.74 1.25 2.46 2.28 3.44.13 2.5-.42 2.44.7 2.57 1.77 1.03 1.85-.9 1.8.96.08 1.44-1.9 1.2-1.2-.53-1.11 6.63-2.32-.57-2.87-1.99-4.65 1.28-1.96 1.39-5.8-.29-3.03-.85-1.52.4-1.14-2.25-.72-.96.91-.93-.97-.69-1.24 1.24-2.3-1.6-.31-2.3-2.4-1.31-.45-1.79-2.14-2.22 3.16-1.07 2.4-3.9 1.86-3.93 2.41-1.23z" fill="#fff" stroke="#2A8086" stroke-width="1.45"/>
  <path d="M752.34 452.7l2.4 1.31.32 2.3 2.3 1.6 1.24-1.24.97.7-.91.92.72.96-.98 1.24.36 2 1.92 2.33-1.5 1.69-.67 1.7.43.63-.65.76-1.83.08-1.35.31-.13-.4.48-.63.44-1.3-.56.03-.77-1-.65-.25-.51-.85-.74-.33-.56-.77-.71.3-.55 1.79-.94.38.32-.45-1.5-1.12-1.3-.58-.57-.75-1.05-.93.93-.24.57-2.56-1.9-2.11.99-2.44-1.43.02 1.52-2.1-1.26-1.6-.96-2.17 3.03-1.5 2.46.26 2.14 2.22.44 1.79zM838.8 588.27l-.52-1.75-1.19-1.23-.3-1.64-2.04-1.48-2.1-3.46-1.12-3.38-2.73-2.87-1.76-.7-2.61-4-.46-2.92.17-2.52-2.26-4.73-1.85-1.68-2.13-.89-1.3-2.47.21-.98-1.1-2.25-1.15-.97-1.54-3.26-2.4-3.55-2.01-3.04-1.97.02.62-2.45.17-1.57.49-1.8 4.4.72 1.7-1.38.94-1.63 3.01-.63.65-1.52 1.3-.77-3.93-4.59 7.9-2.31.76-.7 4.75 1.25 5.88 3.23 11.13 9.14 7.34.36 3.52.43.98 2.13 2.79-.11 1.55 3.84 1.94 1 .67 1.56 2.7 1.85.23 1.8-.39 1.46.5 1.47 1.13 1.22.53 1.42.59 1.06 1.2.86 1.09-.3.75 1.64.15 1 1.5 4.33 11.87 2.14.8-.9 1.8 3-2.62 8.41-11.84 4.17-11.38 1.59-3.69 1.86-2.83 4.32-1.84.68-.99-1.37-1.5.21-3.82-.41-.73-.41-4.55.1-1.07.36-1.62-1.07-1.05 2.02.4 1.73-1.73 1.3zM1309.79 694.58l1.1 1.37-2.76-.02-1.49-2.45 2.35.96.8.14zm-5-2.43l-1.54.1-2.42-.41-.83-.61.25-1.58 2.61.62 1.28.84.65 1.04zm3.27-1.08l-.6.73-2.92-3.44-.83-2.37h1.35l1.42 3.17 1.58 1.9zm-7.13-5.01l.17.8-3.09-1.69-2.16-1.42-1.48-1.32.58-.4 1.82.95 3.24 1.82.92 1.26zm-9.22-3.92l-.79.23-1.72-.9-1.62-1.63.2-.66 2.36 1.67 1.57 1.29zM804 615.98l-.55-.08.07-1.98-.47-1.37-2.03-1.57-.48-2.88.48-2.96-1.83-.28-.28.9-2.37.2.95 1.18.34 2.4-2.17 2.2-1.96 2.86-2.03.41-3.32-2.32-1.5.82-.4 1.16-2.04.75-.13.82h-3.93l-.54-.82-2.85-.13-1.42.68-1.08-.34-2.04-2.33-.67-1.09-2.85.55-1.08 1.84-1.02 3.55-1.36.75-1.2.43-.33-.18-1.37-1.14-.25-1.24.64-1.65-.01-1.63-2.28-2.49-.44-1.7.04-.98-1.45-1.18-.04-2.33-.83-1.54-1.38.23.4-1.48 1.02-1.68-.45-1.67 1.3-1.24-.83-.94 1.05-2.5 1.8-3 3.4.28-.2-16.34.06-1.75h4.53v-8.4h46.84l1.27 4.14-.87.76.58 4.3 1.45 4.97 1.5 1.01 2.16 1.53-2 2.35-2.9.68-1.25 1.26-.38 2.72-1.7 5.98.41 1.62-.63 3.47-1.6 3.97-2.38 1.99-1.7 3.06-.39 1.63-1.87 1.12-1.16 4.16v.48zM757.5 307.13l-3.82 6.6.62 5.66-6.28 7.23-7.62 7.52-2.88 11.84 2.81 5.72 3.78 4.42-3.63 8.76-4.1 1.79-1.5 12.44-2.25 6.7-4.79-.69-2.23 5.56-4.57.32-1.25-6.63-3.3-8.18-3.01-10.56 1.74-4.43 3.28-5.36 1.31-9.47-2.52-4.2-.25-11.32 2.57-8.31 3.91.15 1.38-3.6-1.44-3.13 6.13-13.38 3.94-11.07 2.61-7.38 3.79.04 1.04-5.94 7.44 1.72.58-7.15 2.45-.45 5.26 5.35 6.16 7.25.1 15.65 1.34 3.8-6.8 2.73zM724.45 446.51l3.26.45 1.99-1.3 3.45-.14.75-.97.67.06.76 1.94-3.14 1.5-.38 2.3-1.37.58.01 1.57-1.55-.11-1.34-.92-.72.95-2.75-.2.88-.5-.95-2.4.43-2.8zM767.54 148.08l-8.82 7.54-6.96-4.25 2.72-4.82-2.38-6.12 8.18-3.91 1.56 7.28 5.7 4.28zm-25.55-37.55l13 15.9-9.94 7.96-2.2 14.2-3.45 3.5-1.88 14.79-4.76.67-8.49-10.76 3.58-6.5-5.91-5.44-7.7-16.64-3.06-16.6 10.76-8 2.16 7.83 5.62-.3 1.5-7.66 5.8-.79 4.97 7.84zm28.4-16.13l7.74 8.16-5.86 11.99-11.44 2.54-11.64-3.6-.7-6.09-5.67-.39-4.32-10.53 12.2-6.64 5.72 5.73 4-7.16 9.97 5.99zM744.37 428.94l.22.37 1.62-.83 2 2.15 2.32-1.3 1.87.63 2.84-.86 3.75 2.32-1.1 1.56-.77 2.4-.84.6-4.23-1.8-1.29.36-.92 1.4-1.86.74-.43-.38-1.92.91-1.56.18-.32 1.18-3.32.72-1.45-.64-2-1.5-.4-2.06.31-.75.57-1.31 1.74.1 1.35-.62.1-.56.76-.28.26-1.37.9-.26.62-1.1h1.17zM624.81 626.59l-1.06-.3-2.84-1.59-2.06-2.12-.69-1.44-.48-2.93 2.1-1.75.47-1.1.67-.86 1.09-.09.92-.75h3.15l1.1 1.43.86 1.67-.13 1.15.63 1.04-.04 1.46 1.08-.23-1.83 1.85-1.78 2.15-.21 1.15-.95 1.26zM604 599.45l-1.63-3.15-1.97-1.45 1.73-.77 1.92-2.85.94-2.1 1.35-1.3 1.96.35 1.92-.9 2.2-.04 1.9 1.2 2.61 1.09 2.4 3 2.6 2.78.18 2.52.77 2.31 1.48 1.13.34 1.56-.18 1.25-.57.23-2.15-.32-.3.45-.87.09-2.84-.98-1.9-.04-7.3-.17-1.05.45-1.31-.13-2.1.66-.64-3.09 3.6.09.94-.57.7-.03 1.47-.93 1.7.85 1.7.07 1.72-.9-.8-1.17-1.3.68-1.23-.02-1.55-1-1.26.07-.89.96-4.3.12zM871.77 606.87l-.1-1.1h-1.49l-1.87 1.37-2.09.4-1.82.6-1.26.08-2.25.14-1.4.73-1.96.26-3.48 1.24-4.3.48-3.71 1.02-1.96-.02-1.78-1.67-.78-1.65-1.28-.74-1.46 2.14-.86 1.42 1.46 2.2 1.46 1.9 1.5 1.43 12.9 4.7 3.33-.02-11.16 11.84-5.14.18-3.51 2.77-2.53.07-1.08 1.24-3.45 4.46.04 14.28 2.34 3.24.9-.93.9-2.07 4.32-4.75 3.68-2.98 5.9-3.9 3.95-3.17 4.64-5.36 3.38-4.4 3.38-5.78 2.44-5.05 1.9-4.43 1.11-4.3.84-1.45-.02-2.1.37-2.32zM444.42 629.8l4.73.79.42-.72 3.2-.28 4.23 1.06-2.05 3.38.31 2.7 1.55 2.32-.69 1.7-.35 1.79-1 1.65-2.26-.83-1.87.4-1.59-.35-.4 1.13.67.79-.36.8-2.14-.32-2.41-3.41-.52-2.22h-1.26l-1.75-2.86.72-2.03-.2-.92 2.39-1.03.63-3.55z" fill="#fff" stroke="#2A8086" stroke-width="1.45"/>
  <path d="M804 615.98l.05 3.1-.6 1.2-2.09.1-1.34 2.26 2.42.28 2 1.93.7 1.58 1.8.92 2.33 4.28-2.68 2.6-2.43 2.35-2.42 1.8h-2.78l-3.18.92-2.5-.88-1.63 1.07-3.48-2.61-.93-1.68-2.2.83-1.82-.26-1.06.66-1.77-.47-2.4-3.25-.63-1.25-2.95-1.56-1-2.37-1.64-1.7-2.65-2.06-.04-1.29-2.16-1.6-2.69-1.55 1.21-.43 1.36-.75 1.02-3.55 1.08-1.84 2.85-.55.67 1.1 2.04 2.32 1.08.34 1.42-.68 2.85.13.54.82h3.93l.13-.82 2.04-.75.4-1.16 1.5-.82 3.32 2.32 2.03-.4 1.96-2.88 2.17-2.2-.34-2.4-.95-1.16 2.38-.21.27-.9 1.82.28-.47 2.96.48 2.88 2.03 1.57.47 1.37-.07 1.98.55.08zM323.47 600.3l-.44.94-2.28-.06-1.43-.38-1.63-.8-2.2-.26-1.1-.86.11-.6 1.36-1.01.74-.45-.21-.48.92-.25 1.17.34.84.81 1.2.65.14.54 1.73-.48.82.29.53.44-.27 1.61zM823.06 514.2l-7.73 4.98-4.4-1.84-.07-.04.53-.7-.06-1.92.97-2.58 2.15-1.79-.64-1.87-1.78-.24-.37-3.67.97-1.99 1.06-1.06 1.05-1.07.22-2.73 1.29.95 4.35-1.36 2.1.93 3.24-.02 4.54-1.85 2.13.09 4.49-.77-2.02 3.07-2.16 1.2.37 3.55-1.5 5.8-8.73 4.93zM796.53 762.13l-.8 1.96-2.3.48-2.36-2.4-.04-1.51 1.08-1.64.37-1.27 1.14-.31 2 .8.58 1.95.33 1.94zM727.17 602.4l.4-1.89-2.54-.1.01-2.59-1.64-1.5 1.7-5.35 5.04-3.85.2-5.34 1.52-8.42.86-1.8-1.64-1.43-.06-1.34-1.48-1.09-.97-6.58 3.99-2.34 15.74 8.13 15.74 8.02.2 16.35-3.41-.3-1.8 3-1.05 2.5.83.95-1.3 1.24.45 1.67-1.03 1.68-.4 1.48 1.4-.23.82 1.55.04 2.32 1.45 1.18-.04.97-2.5.68-2 1.62-2.86 4.34-3.71 1.84-3.81-.24-1.12.36.4 1.4-2.07 1.38-1.67 1.55-4.97 1.51-.98-.9-.66-.07-.72 1.02-3.27.3.62-1.08-1.25-2.73-.55-1.64-1.72-.67-2.33-2.32.86-1.88 1.8.4 1.11-.28 2.2.04-2.14-3.63.14-2.65-.26-2.66-1.57-2.57zM942.02 872.34l2.55 1.88 3.73.75.14 1.14-1.1 2.76-6.07.4-.1-3.24.59-2.47.26-1.22zM677.32 629.13l-3.18.84-.88-1.39-1.05-2.5-.31-1.97.87-3.56-1-1.45-.37-3.12.01-2.9-1.65-2.05.3-1.24 3.45.08-.5 2.1 1.2 1.18 1.37 1.4.15 1.94.8.82-.18 9.1.97 2.72zM1163.17 688.26l.46-.94 3.4-.89 2.75-.13 1.24-.5 1.49.5-1.45 1.07-4.12 1.74-3.3 1.14-.07-1.2-.4-.79zM911.54 503.37l-.35-4.1-2.94-.17-4.51-4.35-3.15-.55-4.37-2.52-2.8-.46-1.74.93-2.64-.14-2.8 2.84-3.47.95-.73-3.5.57-5.25-3.08-1.72 1.01-3.49-2.62-.3.88-4.35 3.72 1.27 3.47-1.66-2.88-3.14-1.13-3.02-3.18 1.35-.4 3.85-1.23-3.4 1.74-1.76 4.48-1.1 2.67 1.48 2.76 4.13 2.03-.26 4.45-.07-.65-2.65 3.37-1.82 3.33-3.1 5.32 2.82.42 4.21 1.5 1.07 4.27-.24 1.33.95 1.94 5.34 4.51 3.53 2.58 2.38 4.13 2.47 5.25 2.14-.11 3.04-1.2-.16-1.86-1.32-.61 1.76-3.33.95-.79 3.92-2.22 1.49-3.12.73-.82 2.19-2.98.64-4.02-1.83zM707.38 528.4l-1.68-8.24-2.44-1.88-.03-1.13-3.23-2.79-.34-3.56 2.43-2.65.93-3.96-.63-4.63.8-2.51 4.3-2 2.76.6-.11 2.49 3.35-1.8.28.94-1.98 2.4-.02 2.25 1.36 1.2-.52 4.17-2.6 2.4.76 2.58 2.04.08.99 2.24 1.5.73-.22 3.6-1.93 1.33-1.21 1.48-2.71 1.77.42 1.9-.34 1.94-1.93 1.05z" fill="#fff" stroke="#2A8086" stroke-width="1.45"/>
  <path d="M815.64 474.8l5.66 2.01 4.6-.8 3.4.46 4.66-2.73 4.2-.25 3.8 2.57.68 1.83-.38 2.52 2.93 1.28 1.55 1.5-2.7 1.45 1.23 5.79-.77 1.55 2.16 3.97-1.9.83-1.38-1.26-4.59-.63-1.7.76-4.48.77-2.13-.08-4.54 1.84-3.25.01-2.1-.92-4.34 1.37-1.3-.96-.2 2.73-1.07 1.07-1.05 1.06-1.45-2.2 1.5-1.84-2.42.42-3.3-1.13-2.71 2.81-5.99.55-3.2-2.62-4.25-.16-.9 2.02-2.74.58-3.81-2.6-4.31.09-2.34-4.9-2.88-2.77 1.92-3.9-2.5-2.43 4.38-4.9 6.07-.21 1.66-3.96 7.52.7 4.75-3.4 4.6-1.5 6.53-.11 6.88 3.71zm-38.36 3.35l-3.3 2.78-1.24-2.4.06-1.07.94-.58 1.22-3.28-1.93-1.4 4.02-1.66 3.4.71.47 2.03 3.45 1.7-.72 1.28-4.69.28-1.68 1.61zM426.53 610.82l2.27-.52.83.14-.16 2.97-3.3.44-.7-.36 1.14-1.1-.08-1.57zM1150.57 554.56l-2.37 6.86-1.69 3.48-2.08-3.58-.45-3.17 2.32-4.22 3.16-3.27 1.8 1.29-.69 2.6zM803.76 656.98l.67.43 14.31 8 .27 2.27 5.67 3.93-1.82 4.85.23 2.24 2.52 1.43.12 1.03-1.08 2.39.22 1.2-.26 1.9 1.38 2.48 1.64 3.92 1.45.87-3.15 2.32-4.31 1.55-2.37-.07-1.4 1.2-2.75.1-1.03.51-4.75-1.13-2.97.33-1.1-5.43-1.34-1.86-.8-1.1-3.86-.74-2.24-1.2-2.5-.66-1.58-.66-1.65-1.01-2.13-4.99-2.3-2.21-.78-2.29.4-2.05-.72-3.62 1.63-.18 1.44-1.43 1.53-2.05.98-.82-.04-1.27-.85-.9-.23-1.54 1.14-.5.23-2.3-1.57-2.22 1.39-.47 4.32.05 8.04-.3zM795.4 412.71l1.48.26 1-1.46 1.2.32 4.09-.62 2.52 3.62-.98 1.29.32 1.96 3.15.3 1.4 2.72-.08 1.22 5 2.17 3.04-.98 2.43 2.88 2.31-.07 5.82 1.99.04 1.77-1.6 3.15.87 3.27-.62 1.96-3.82.44-2.03 1.63-.13 2.58-3.15.46-2.62 1.86-3.7.3-3.4 2.13-1.86 1.45 2.1 2.07 1.93 1.36 4.02-.34-.77 2-4.32.96-5.36 3.2-2.2-1.13.88-2.6-4.32-1.63.7-1.08 4.45-2.3-.55-1.15-.64.58-.62-.3-6.14-1.43-.27-2.13-3.66.7-1.46 3.14-3.06 4.16-1.79-.96-1.85.9-1.76-1.03 1-.61.68-1.94 1.08-1.81-.28-1.02.83-.46.38.8 2.33.16 1.05-.42-.74-.58.28-.85-1.38-1.46-.57-2.42-1.44-.95.29-1.98-1.79-1.58-1.62-.23-2.9-1.84-2.63.59-.94.87h-1.67l-1 1.38-2.9.56-1.35.9-1.83-1.43-2.53-.02-2.45-.66-1.7 1.26-.28-1.57-2.19-1.61.77-2.4 1.1-1.56.86.35-1.02-2.71 3.59-5.08 1.95-.72.43-1.74-1.99-5.48 1.89-.24 2.16-1.73 3.06-.14 3.99.5 4.4 1.53 3.1.12 1.5.92 1.47-1.1 1.04 1.47 3.56-.3 1.57.6.25-3.18 1.22-1.4 3.39-.38z" fill="#fff" stroke="#2A8086" stroke-width="1.45"/>
  <path d="M795.73 657.28l-4.33-.05-1.39.47-2.36 1.21-.95-.4.03-2.95.92-1.5.22-3.15.83-1.82 1.5-2.05 1.52-1.04 1.27-1.39-1.58-.53.24-4.6 1.63-1.06 2.5.88 3.18-.92h2.78l2.43-1.8 1.87 2.73.46 1.97 1.74 4.5-1.44 2.86-1.94 2.6-1.13 1.58.04 4.16-8.04.3zM154.78 394.84l-2.17-2.58-3.48-2.2-1.12-6.14-5.09-5.81-2.12-6.95-3.8-.49-6.27-.18-4.62-2.16-8.16-7.94-3.78-1.48-6.9-2.8-5.47.67-7.76-3.65-4.7-3.43-4.37 1.71.81 5.53-2.18.5-4.57 1.64-3.47 2.62-4.38 1.64-.56-4.57 1.78-7.79 4.19-2.49-1.08-2.05-5.03 4.53-2.7 5.3-5.69 5.56 2.9 3.73-3.74 5.42-4.24 3.1-3.95 2.25-.98 3.22-6.16 3.7-1.24 3.33-4.62 3-2.71-.54-3.68 1.93-4 2.35-3.3 2.3-6.76 1.93-.62-1.14 4.31-3.19 3.87-2.13 4.2-3.81 4.9-.8 1.95-2.9 5.47-4.3.88-1.45 2.91-2.58.68-5.63 2-4.47-4.54 2.3-1.27-1.3-2.14 2.75-2.58-3.85-1.06 2.73-1.48-3.8-3.94 3.06-2.43-.01-.34-4.55.72-2.84-2.55-2.8-5.13 1.51-3.33-3.7-2.7-1.91-.01-4.58-3.05-3.5 1.53-4.79 3.22-4.74 1.4-4.44 3.2-.63 2.7 1.4 3.2-4.24 2.86.76 3-2.75-.73-4.1-2.2-1.64 2.92-3.55-2.43.1-4.19 2.01-1.2 2.02-3.11-2.01-5.58 1.02-5.78-2.2-1.66-3.73-5-5.5 5.55-4.04 8.8-4.8h3.25l-.54 4.91 8.33-.38-3.2-6.1-4.86-3.84-2.8-5.12-3.79-4.45-5.42-3.36 2.2-5.67 7-.36L26 269.4l.94-5.52 4.03-5.5 3.84-1.35 7.48-5.29 3.63.8 6.08-6.48 5.97 2.58 2.85 5.44 1.76-2.32 6.67.73-.24 2.74 6.04 2.01 4.02-1.18 8.32 3.71 7.59 1.1 3.04 1.5 5.25-1.88 5.99 3.46 4.28 1.6-.02 38.92-.02 49.87 3.88.23 3.85 2.2 2.75 3.42 3.51 5.06 3.84-4.3 3.96-2.52 2.1 4.02 2.66 3.14 3.6 3.41 2.48 5.34 4.03 8.28 6.71 4.5.11 4.4-2.2 3.32zm247.63 48.47l-1.75-1.67-2.65.99-1.3-1.53-3.02 4.36-1.2 4.43-1.4 2.56-1.68.87-1.26.28-.4 1.38h-7.27l-6 .04-1.78 1.02-4.04 3.85.4.76.24 2.12-2.96 1.79-3.23-.45-3.1-.2-1.87.62.35 1.62v0l.07.53-3.4 3.18-2.97 1.54-2.03.7-2.34 1.47-2.86.7-1.97-.27-2.43-1.1 1.35-2.03.87-1.86 1.86-2.94-.2-2.21-.71-3.16-1.46-.55-2.45 2.4-.78-.04-.2-1.37 2.17-2.2.36-2.5-.33-2.53-2.92-2.19-3.35-1.12-.55 2.13-.87.57-.7 2.75-.37-1.86-1.57 1.33-.99 1.86-1.03 2.7-.2 2.31 1.31 3.35-.1 3.53-1.6 2.58-.8.73-1.07.58-1.34.03-.37-.36-1.06-2.77-.03-1.39.1-1.32-.49-2.63.75-3.07.9-3.82 2.04-4.27-.6.02-2.9 3.58-.53-.65 1.55-2 2.35-3.63 2.69-.5 3.07-1.14 3.1.6.14.03 3.48-.51-1.97-2.27-1.06-.17-1.2-.24-.83-1.6-3.88.5-3.5 1.27-2.78-2.18-2.24-.73 1.27-3.06-3.48 1.93-3.17 1.86-3.05 1.46-2.41-1.97-3.96 1.2.01-.84 2.68-2.44 2.8-2.33 4.03-1.93-4.85-1.53-3.2.76-3.83-1.83-4.03-.95-2.75-.36-1.23-1.02-.7-3.3-1.34.03-.01 2.32H185.16l1.34 4.88.63 4.8-.98 1.53-2.1-5.5-5.71-2.01-.48 1.15 1.15 2.73 1.25 4.96.71 7.62-.48 5.06-.48 4.97-1.54 5.1 1.26 4.07.14 4.5-.87 4.3 2.1 2.81.55 4.15 3.05 4.2 1.75 1.65-.15 1.15 3.3 6.83 3.82 4.86.48 2.63 1 .76 3.67.47 1.42 1.29 2.2.24.44 1.36 1.84.56 2.56 2.7.66 2.39 4.49-.36 5.01-.5-.37.9 5.96 2.26 9 3.26 7.85-.04h3.13l.01-1.9h6.84l1.43 1.64 2.02 1.45 2.35 2.01 1.3 2.38.99 2.49 2.04 1.36 3.28 1.35 2.48-3.56 3.23-.09 2.78 1.8 1.98 3.08 1.36 2.61 2.33 2.53.87 3.1 1.1 2.06 3.08 1.35 2.8.96 1.55-.13-.75-1.48-.2-2.1.04-3.05.9-2 2.16-2.12 3.92-1.92 3.6-3.34 3.32-1.05 2.45-.32 2.87 1.05 3.44-.57 2.95 2.39 2.86.14 1.49-.86 1.46.67.75-.6-.84-.88.07-1.84-.71-1.2 1.63-.71 3-.31 3.51.5 4.46-.57 2.48 1.12 1.91 2.12.7.22 3.99-2.05 1.54.7 3.08 3.77 1.1 2.46-.81 2.96.6 1.73 1.83 3.38 2.09 3.76 1.5 1 .62 1.91 1.94.53 1.18-.55.99-2.66.17-1.7.12-2.96-1.87-5.13-.02-1.92-1.75-3.17-1.32-3.87-.7-3.16.61-3.26 1.86-2.74 2.23-2.2 4.33-3.04.56-1.58 2-1.73 1.97-.3 2.6-2.8 4.08-1.41 2.5-3.57-.55-4.86-.4-1.7-1.14-.34-.17-4.7-2.72-1.61 2.61.78-.84-3.18.76-2.19.46 4.19 2.02 1.9-1.22 3.38.36.2 2.22-3.96 1.26-1.95-.06-1.9-.98-.9-.81-2.73 1.29 1.27.87.27.29 1.3 2.87-3.91.85-3.7-1.16-.23 1.2-1.44-.11.64 2.51-.01 5.52-1.56-1.16-.99-5.8.99 3.29-1.51 2.3-.26 1.71-.26 2.92-.92 1.9.1 2.66-.85.32-1.5-1.19-1.18.42 1.93-1.64-.13-1.3-2.8.03-2.84.67-1.21 2.1-3.22 4.16-1.6 4.06-1.9 4.21-2.68-.68-1.82-2.58-3.17.01-7.78zm-337.2-71l-2.1 1.12-3.59 2.62.62 3.4 2.01 1.86 3.95-2.75 3.41-3.47-1.67-2.29-2.62-.5zM1 332.1l2.87-1.77.33-.95-3.2-.96v3.68zm11.97 21.62l-3.9 1.36 2.4 2.15 2.58 1.47 2.43-1.22-.38-3.04-3.13-.72zm137.02 45.75l-3.8.54-1.85-.88-.23 2.14.73 2.92 1.99 2.05 1.46 3 2.38 2.95 1.57.01-3.44-5.2 1.19-7.53zM53.26 569.34l-1.4-.4-.38.36.03.27.45.34.68.88 1.33-.3.33-.5-1.03-.65zm-4.21-.75l2.11.12.13-.46-1.95-.18-.3.51zm8.29 4.62l-.7-.36-1.51-.7-.3-.08-.23.39.27.82-.69.68-.2.46.66 1.52-.11 1.16.98.6.57-.7 1.27-.65 1.54-.88.1-.24-1.01-1.46-.64-.56zm-11.05-7.24l-1.06.59.16.17.5.95 1.37.15.28.05.22-.24-1.14-1.4-.33-.26zm-6.2-2.2l-.6.42-.2.31 1.32.77.47-.41-.08-1-.91-.08zM442.53 777.7l2.56-.5 3.96 3.53 1.47-.13 4.06 2.94 3.1 2.55 2.28 3.17-1.74 2.22 1.1 2.67-1.72 2.98-4.45 2.65-2.92-.95-2.13.5-3.65-2.04-2.68.15-2.4-2.63.3-3.04.86-1.05-.04-4.64 1.06-4.74.98-3.65zM932.49 495l.1-3.04-5.25-2.14-4.12-2.47-2.58-2.38-4.51-3.53-1.94-5.34-1.33-.95-4.26.24-1.51-1.07-.43-4.21-5.31-2.82-3.33 3.1-3.37 1.82.65 2.65-4.45.07-.16-19.88 10.16-3.3.74.48 6.12 4 3.22 2.08 3.77 4.93 4.63-.8 6.77-.42 4.73 3.95-.3 5.35 1.92.04.8 4.3 5.02.17 1.09 2.47 1.47-.04 1.72-3.72 5.21-3.68 2.26-.98 1.18.52-3.32 3.42 2.92 1.98 2.8-1.31 4.68 2.75-5.05 3.72-3-.5-1.63.13-.57-1.43.83-2.4-5.28 1.2-1.26 3.31-1.87 2.83-3.3-.24-1.02 2.24 2.9 1.2.85 3.75-2.22 5.02-2.98-1.04-2.2-.03zM388.44 606.76l-.12.94-2.31.47 1.29 1.81-.05 2.09-1.74 2.31 1.5 3.16 1.7-.26.88-2.87-1.22-1.4-.2-3.02 4.91-1.63-.55-1.89 1.39-1.26 1.41 2.81 2.77.07 2.57 2.23.15 1.32 3.54.03 4.22-.4 2.26 1.78 3.02.5 2.21-1.25.05-1 4.89-.25 4.73-.05-3.36 1.17 1.35 1.89 3.16.3 3 1.95.62 3.18 2.06-.09 1.54.94-3.12 2.32-.35 1.44 1.35 1.47-.98.74-2.43.63.08 1.82-1.07 1.09 2.67 2.99.53 1.11-1.45 1.5-4.41 1.47-2.84.61-1.14.93-3.14-.98-2.92-.5-.74.36 1.77 1.02-.16 2.63.55 2.47 3.34.34.21.82-2.82 1.12-.45 1.66-1.63.64-2.93.92-.77 1.2-3.07.25-2.17-2.07-1.2-3.91-1.05-1.37-1.43-.87 2-1.95-.14-.88-1.12-1.17-.8-2.61.31-2.82.89-1.33.7-2.12-1.39-.67-2.25.45-2.84-.22-1.6.43-2.78-3.4-2.29-.5-5.07.38-.94-1.38-.97-.33-.14-.83.47-1.46-.32-1.6-.87-.87-.5-1.82-2.04-.27 1.1-2.32.48-2.85 1.14-1.48 1.53-1.14 1-2 2.54-.67zM1096.4 566.67l-5.27 3.6-3.29 3.95-.87 2.89 3.02 4.36 3.69 5.37 3.58 2.52 2.4 3.27 1.81 7.5-.54 7.06-3.29 2.64-4.52 2.57-3.21 3.32-4.93 3.7-1.43-2.55 1.11-2.7-2.93-2.26 3.42-1.6 4.14-.3-1.73-2.42 6.63-3.08.49-4.83-.92-2.69.72-4.05-.99-2.88-2.99-2.84-2.49-3.62-3.28-4.87-4.73-2.48 1.14-1.5 2.52-1.1-1.53-3.64-4.86-.03-1.77-3.83-2.31-3.34 2.12-1.04 3.15.02 3.83-.49 3.37-2.27 1.9 1.6 3.61.78-.63 2.45 1.88 1.72 3.98 1.1zM1332.39 718.73l-1.31.53-1.32-1.79.15-1.1 2.48 2.36zm-2.91-6.25l.64 3.28-1.06-.51-.83.22-.56-1.12-.08-3.12 1.89 1.25zM879.56 587.03l-2.85 1.1-.77 1.8-.1 1.4-3.92 1.71-6.3 1.9-3.54 2.86-1.74.22-1.18-.24-2.3 1.68-2.52.77-3.32.21-1 .23-.86 1.06-1.03.3-.61 1.02-1.96-.09-1.26.55-2.73-.2-1.03-2.36.12-2.2-.65-1.2-.77-2.99-1.13-1.67.79-.2-.4-1.86.47-.78-.18-1.78 1.74-1.3-.4-1.74 1.04-2.02 1.62 1.07 1.07-.37 4.55-.1.73.42 3.81.4 1.51-.2 1 1.37 1.83-.68 2.83-4.33 3.69-1.85 11.38-1.6 3.08 6.82 1.29 2.87zM794.36 773.36l-.77.64-1.67 2.3-1.1 2.33-2.24 3.28-4.46 4.76-2.79 2.8-2.98 2.12-4.12 1.83-2.01.25-.51 1.3-2.4-.7-1.96.9-4.27-.9-2.4.57-1.63-.24-4.07 1.87-3.37.75-2.44 1.8-1.8.12-1.66-1.7-1.34-.09-1.7-2.12-.18.66-.53-1.27.02-2.77-1.28-3.14 1.27-.85-.1-3.55-2.58-4.3-1.99-3.85v-.02l-2.83-5.84 1.89-2.2 1.55 1.21.67 1.92 1.77.32 2.48.85 2.12-.33 3.52-2.29v-16.22l1.07.65 2.34 4.13-.36 2.66.88 1.55 2.83-.45 1.97-1.96 1.87-1.32.97-2.08 1.92-1.01 1.66.53 1.89 1.22 3.21.21 2.53-1.01.4-1.36.69-2.07 2.15-.34 1.18-1.62 1.32-2.86 3.54-3.2 5.59-3.12 1.6.05 1.91.72 1.33-.51 2.1.42 1.89 6 1.03 3.05-.7 4.83.33 1.56-2-.8-1.13.31-.38 1.27-1.08 1.64.04 1.52 2.36 2.4 2.3-.48.8-1.96 3 .04-.99 3.2-.46 3.7-1.02 2.01-2.69 2.27zM784.33 772l-1.73-1.38-1.84.91-2.14 1.76-2.1 2.86 2.96 3.5 1.4-.46.73-1.45 2.2-.71.68-1.48 1.2-2.2-1.36-1.35zM799.25 689.6l1.86 1.77 1 3.38-.67 1.09-.79 3.24.76 3.32-1.24 1.4-1.2 3.74 2.07 1.05-11.97 3.33.37 2.9-2.99.55-2.25 1.63-.48 1.41-1.4.32-3.44 3.38-2.18 2.66-1.34.1-1.28-.48-4.41-.45-.71-.3-.03-.35-1.56-.93-2.56-.23-3.23.93-2.57-2.57-2.67-3.34.18-12.9 8.22.06-.33-1.39.59-1.5-.7-1.88.45-1.94-.42-1.24 1.37.1.22 1.24 1.85-.1 2.5.37 1.32 1.82 3.16.56 2.42-1.27.88 2.1 3.03.56 1.45 1.71 1.62 2.22 3.02.03-.33-4.33-1.08.73-2.76-1.56-1.07-.72.5-4.01.7-4.72-.89-1.75 1.13-2.53 1.05-.48 5.3-.67 1.56.4 1.65 1.02 1.57.66 2.5.67 2.25 1.2z" fill="#fff" stroke="#2A8086" stroke-width="1.45"/>
  <path d="M793.06 742.8l-2.1-.43-1.33.51-1.9-.72-1.61-.04-2.52-1.91-3.05-.65-1.16-2.67-.01-1.48-1.7-.45-4.46-4.58-1.24-2.4-.8-.74-1.51-3.3 4.4.45 1.3.48 1.33-.1 2.18-2.66 3.43-3.38 1.41-.32.48-1.41 2.25-1.63 3-.55.25 1.51 3.29-.08 1.83.87.85 1 1.88.3 2.05 1.32v5.2l-.76 2.86-.17 3.1.63 1.24-.44 2.45-.6.39-1.04 3.02-4.16 4.8zM833.96 473.74l.59-2.25-.99-3.63-2.28-1.97-2.19-.62-1.44-1.66.48-.64 3.34.93 5.8.87 5.38 2.58.7 1 2.38-.85 3.68 1.12 1.21 2.19 2.48 1.22-1.02.73 1.94 2.84-.53.6-2.13-.3-2.94-1.5-.97.85-5.48.81-3.8-2.57-4.21.25zM462.54 643.43l-1.52 1.5-1.88.27-.54-1.1-.89-.17-1.22 1.07-1.72-.81 1-1.68.34-1.78.69-1.69-1.54-2.32-.3-2.69 2.04-3.38 1.34.43 2.91.93 4.18 3.33.65 1.6-2.33 3.6-1.21 2.9zM1074.83 605.11l-3.55-1.84-3.37.07.58-3.16-3.48.02-.31 4.43-2.13 5.84-1.28 3.53.27 2.87 2.57.13 1.6 3.62.71 3.42 2.2 2.27 2.39.46 2.05 2.05-1.29 1.61-2.61.48-.31-2.03-3.22-1.73-.69.7-1.56-1.5-.67-1.97-2.1-2.23-1.91-1.88-.65 2.33-.75-2.2.43-2.47 1.17-3.81 1.91-4.1 2.17-3.73-1.55-3.66.07-1.87-.46-2.25-2.63-3.22-.94-2.03 1.36-.75 1.45-3.55-1.62-2.7-2.5-3-1.91-3.62 1.66-.75 1.8-4.49 2.79-.18 2.3-1.82 2.26-.96 1.71 1.29.23 2.5 2.66.2-.97 4.36.1 3.7 4.16-2.46 1.18.73 2.31-.12.79-1.43 2.99.28 3 3.35.25 4.04 3.19 3.56-.17 3.44-1.29 1.82-3.7-.58-5.1.78-2.53 3.35.94 4.86zM950.23 480.46l-1.45 1.58-4.3-.86-.37 2.95 4.28-.4 4.88 1.66 7.46-.77 1 4.68 1.3-.5 2.4 1.14-.14 1.94.59 2.83h-4.07l-2.72-.37-2.46 2.21-1.75.49-1.38 1.03-1.56-1.6.37-4.17-1.2-.24.44-1.52-2.14-1.14-1.7 1.74-.42 2.01-.6.73-2.36-.1-1.28 2.26-1.33-.95-2.85 1.58-1.21-.6 2.22-5.02-.85-3.75-2.9-1.2 1.02-2.24 3.3.24 1.87-2.83 1.26-3.31 5.28-1.2-.83 2.4.57 1.43 1.63-.13zM977.16 504.12l4.24 5.62-.4 3.86 1.57 2.4-.13 2.39-2.83-.63 1.1 5.11 3.88 2.9 5.49 3.2-2.5 2.05-1.54 4.21 3.82 1.7 3.73 2.18 5.14 2.49 5.41.57 2.28 2.24 3.05.42 4.75 1.02 3.28-.07.45-1.74-.51-2.8.3-1.91 2.41-.94.33 3.5.08.88 3.59 1.67 2.48-.69 3.33.3 3.22-.13.28-2.71-1.61-1.42 3.19-.55 3.59-3.32 4.55-2.86 3.31 1.1 2.81-1.89 1.85 2.8-1.33 1.88 4.26.66.29 1.69-1.38.81.32 2.72-2.82-.8-5.11 3.05.12 2.5-2.17 3.65-.2 2.11-1.76 3.55-3.09-.98-.15 4.44-.89 1.45.41 1.8-1.94 1-2.08-6.75-1.09.01-.65 2.73-2.16-2.2 1.22-2.45 1.77-.25 1.82-3.65-2.28-.74-3.66.06-3.75-.6-.35-3.02-1.89-.21-3.12-1.9-1.4 2.97 2.85 2.3-2.47 1.62-.87 1.57 2.43 1.16-.67 2.59 1.36 3.2.62 3.5-.57 1.55-2.68-.06-4.87.88.23 3.16-2.11 2.48-5.68 2.8-4.41 4.89-2.97 2.6-3.93 2.69-.01 1.88-1.97 1.01-3.55 1.46-1.85.22-1.18 3.1.82 5.27.21 3.35-1.67 3.81-.02 6.8-2.04.19-1.8 3.03 1.2 1.32-3.6 1.12-1.32 2.7-1.59 1.13-3.73-3.7-1.83-5.57-1.51-4.02-1.39-1.9-2.1-3.85-.97-5.04-.69-2.53-3.59-5.58-1.63-7.95-1.18-5.3.01-5.05-.76-3.93-5.75 2.51-2.78-.5-5.15-5.1 1.9-1.54-1.17-1.67-4.63-3.63 2.63-2.86h8.68l-.78-3.7-2.22-2.2-.45-3.37-2.58-1.98 4.35-4.63 4.58.33 4.13-4.68 2.47-4.57 3.84-4.58-.07-3.27 3.37-2.68-3.19-2.3-1.37-3.18-1.4-4.14 1.94-2.06 5.99 1.17 4.4-.71 3.8-4.04zM849.22 501.78l2.59 1.46.3 2.81-2 1.65-.9 3.72 2.73 4.48 4.83 2.56 2.03 3.52-.64 3.33h1.26l.04 2.43 2.18 2.4-2.34-.23-2.65-.38-2.9 4.34-7.34-.36-11.13-9.14-5.88-3.23-4.75-1.25-1.59-5.69 8.74-4.93 1.49-5.8-.37-3.54 2.16-1.21 2.02-3.07 1.7-.77 4.58.64 1.39 1.26 1.9-.83 2.55 5.83z" fill="#fff" stroke="#2A8086" stroke-width="1.45"/>
  <path d="M1105.43 578.68l-3.41 1.99-3.24-1.28-.11-3.57 1.95-1.89 4.31-1.17 2.27.1.88 1.6-1.74 1.82-.91 2.4zm68.35-151.34l6.87 1.94 4.67 4.27 1.6 5.55h6l3.42-2.3 6.52-1.75-2.07 5.3-1.53 2.12-1.36 6.28-2.65 5.47-4.79-.99-3.39 1.97 1.04 4.73-.57 6.4-2.01.15.02 2.72-2.55-3.16-1.57 3-6.09 2.28.62 2.79-3.42-.2-1.87-1.65-2.71 3.73-4.35 2.79-3.21 3.3-5.52 1.49-2.91 2.38-4.25 1.38 2.1-2.35-.83-1.99 3.13-3.45-2.09-2.72-3.44 1.84-4.45 3.58-2.43 3.29-3.87.24-2.02 2.36 2.08 3.4 3.23.81.14 2.23 3.12 1.44 4.42-3.53 3.51 1.93 2.55.13.64 2.59-5.59 1.37-1.85 2.63-3.83 2.43-2.03 3.37 4.25 2.63 1.55 4.65 2.4 4.29 2.68 3.56-.06 3.41-2.48 1.25.95 2.43 2.32 1.4-.61 3.68-1 3.54-2.21.4-2.88 4.8-3.19 5.75-3.67 5.17-5.43 3.97-5.49 3.6-4.44.48-2.42 1.89-1.36-1.38-2.23 2.11-5.52 2.12-4.18.64-1.34 4.44-2.19.24-1.03-3.04.93-1.63-5.3-1.35-1.86.69-3.97-1.1-1.88-1.72.62-2.44-3.61-.78-1.9-1.6-3.36 2.27-3.84.5-3.15-.03-2.12 1.04-2.04.62.59 4.83-2.1-.11-.35-1-.12-1.74-2.9 1.23-1.71-.78-2.93-1.58 1.15-3.53-2.5-.83-.94-3.94-4.17.71.48-5.12 3.73-3.63.16-3.6-.11-3.38-1.73-1.06-1.32-2.62-2.3.33-4.26-.66 1.33-1.88-1.85-2.8-2.81 1.9-3.31-1.1-4.55 2.85-3.59 3.31-3.19.56-1.73-1.2-2.08-.1-2.82-1.03-2.13 1.13-2.61 3.3-.33-3.5-2.41.94-4.6-.44-4.47-1.02-3.2-1.96-3.07-.88-1.32-2.16-2.22-.65-3.98-2.95-3.17-1.4-1.63 1.1-5.49-3.2-3.87-2.9-1.11-5.1 2.83.62.13-2.39-1.57-2.4.4-3.86-4.24-5.62-6.5-1.95-1.16-3.75-2.91-2.29-.7-1.42-.6-2.83.14-1.94-2.4-1.15-1.3.51-1-4.68 1.13-1.17-.55-1.2 3.77-2.42 2.73-1.01 4.18.69 1.49-3.31 5.06-.62 1.4-2.08 6.23-2.86.55-1.2-.31-3.05 2.7-1.4-3.55-9.5 7.82-2.23 2.02-1.25 2.85-10.22 7.83 1.9 2.2-2.62.19-5.89 3.27-.56 3.01-3.98 1.54-.5 1.04 4.19 3.31 3.13 5.63 2.2 2.73 4.68-1.52 6.65 1.42 2.44 4.69.95 5.31.78 4.77 3.44 2.44.61 1.8 5.03 2.32 3.19 4.35-.12 8.14 1.2 5.25-.75 3.9.8 5.84 3.22h4.77l1.75 1.64 4.59-2.84 6.38-1.84 5.91-.2 4.61-1.89 2.84-2.89 2.76-1.82-.64-1.8-1.26-2.11 2.07-3.58 2.22.5 4.06 1.13 3.93-2.95 6.02-2.18 2.89-3.75 2.78-1.62 5.73-.77 3.12.65.43-2.04-3.58-4.07-3.16-1.88-3.04 2.17-3.89-.91-2.23.74-1.02-2.4 2.79-5.95 1.92-4.57 4.73 2.3 5.57-3.86-.04-2.71 3.56-6.65 2.2-2.05-.05-3.55-2.17-1.54 3.26-3.25 4.91-1.2 5.23-.17 5.91 1.96 3.46 2.41 2.44 6.49 1.48 2.73 1.38 3.84 1.45 6.04zM372.49 653.85l-1.7-.93-1.93-1.3-1.12.63-3.35-.55-.96-1.68-.74.06-3.95-2.24-.53-1.22 1.47-.3-.17-1.96.92-1.42 1.96-.26 1.66-2.47 1.51-2.06-1.45-.93.74-2.29-.89-3.6.85-1.03-.62-3.34-1.6-2.1.5-1.92 1.27.28.75-1.17-.92-2.34.48-.58 2.04.13 2.96-2.77 1.63-.43.04-1.31.72-3.37 2.27-1.85 2.48-.08.32-.83 3.09.33 3.1-2.02 1.54-.9 1.91-1.93 1.4.25 1.03 1.06-.76 1.35-2.54.67-1 2-1.53 1.14-1.14 1.48-.49 2.85-1.09 2.32 2.04.27.5 1.82.87.87.32 1.6-.47 1.46.13.83.98.33.94 1.38 5.07-.38 2.3.5 2.77 3.4 1.6-.43 2.84.22 2.25-.45 1.4.67-.71 2.13-.89 1.32-.3 2.82.79 2.61 1.12 1.17.14.88-2 1.95 1.43.87 1.05 1.37 1.2 3.91-.74.48-.77-2.3-1.1-1.25-1.3 1.35-7.7-.09.05 2.46 2.32.4-.14 1.5-.78-.4-2.23.64-.02 2.85 1.75 1.43.62 2.25-.1 1.7-1.77 10.76-1.97-2.09-1.18-.1 2.55-3.99-3.03-1.84-2.37.34-1.42-.68-2.18 1.04-2.93-.5-2.33-4.1-1.83-1.01-1.26-1.85-2.62-1.86-1.05.37z" fill="#fff" stroke="#2A8086" stroke-width="1.45"/>
  <path d="M1016.28 430.14l4.16-1.04 7.54-5.27 6-2.91 3.43 1.9 4.12.1 2.64 2.87 3.93.22 5.71 1.54 3.84-4.27-1.61-3.66 4.09-6.56 4.42 2.63 3.59.74 4.64 1.63.75 4.67 5.6 2.6 3.74-1.15 4.99-.8 3.95.8 3.87 2.95 2.39 3.1 3.66-.06 4.97.98 3.63-1.5 5.2-1 5.78-4.3 2.37.66 2.06 2.05 4.71-.5-1.92 4.56-2.79 5.95 1.02 2.4 2.23-.74 3.89.91 3.04-2.16 3.16 1.87 3.58 4.07-.43 2.04-3.11-.64-5.74.76-2.77 1.62-2.9 3.75-6.01 2.18-3.94 2.95-4.05-1.12-2.22-.5-2.08 3.57 1.26 2.1.64 1.8-2.76 1.83-2.83 2.9-4.61 1.87-5.92.2-6.37 1.85-4.6 2.84-1.75-1.64h-4.77l-5.84-3.22-3.9-.8-5.25.75-8.14-1.2-4.35.12-2.32-3.2-1.8-5.02-2.44-.6-4.76-3.45-5.32-.78-4.69-.95-1.42-2.44 1.52-6.65-2.72-4.67-5.63-2.2-3.32-3.15-1.04-4.18zM621.92 595.31l-2.6-2.79-2.39-3-2.62-1.07-1.88-1.2-2.2.04-1.93.89-1.96-.35-1.36 1.3-.34-2.2 1.1-2.02.5-3.87-.44-4.1-.48-2.06.4-2.08-1.02-1.99-2.08-1.81.86-1.4 15.45.02-.75-6.11.97-2.2 3.7-.38-.13-11.05 12.95.23.01-6.65 14.85 10.59-6.04.08 1.9 18.38 1.9 17.85.7.5-.89 2.86-15.83.06-.6.9-1.52-.26-2.23.8-2.75-1.13-1.25.09-.67 2.4-1.33.73zM485.4 34.65l13.25-19.15L512.5 17l5.03-12.6L531.48 1 563 5.43l24.69 26.16-7.29 11.7-15.1 1.3-21.24 2.86 1.99 5.13 13.97-3.16 11.89 9.73 7.66-8.62 3.28 10.07-4.33 15.43 10.04-9.74 19.17-10.63 11.83 5.37 2.22 11.41-16.1 17.83-2.22 5.48-12.62 4.04 9.14 1.1-4.61 16.2-3.18 13.51.12 21.48 4.74 11.73-6.16.72-6.5 5.46 7.29 8.87.93 13.55-4.22 1.43 5.11 12.88-8.77 1.05 4.58 5.83-1.3 4.94-5.56 2.13-5.5.04 4.95 9.12.05 5.81-7.8-5.4-2.04 3.51 5.33 3.23 5.17 7.7 1.5 9.8-7.04 2.28-3.04-4.6-4.88-7 1.35 8.26-4.59 6.21 10.4.5 5.45.63-10.58 9.9-10.73 8.61-11.55 3.69-4.35.04-4.08 4.05-5.5 10.74-8.48 6.88-2.73.4-5.25 2.37-5.68 2.23-3.38 5.8-.05 6.41-2 5.87-6.43 6.96 1.58 6.63-1.77 6.82-2.02 7.84-5.56.48-5.83-6.53-7.89-.04-3.83-4.47-2.63-8.17-6.84-10.8-2-5.85-.54-8.3-5.47-8.82 1.43-7.27-2.64-3.56 3.9-12.19 5.94-4 1.56-4.6.83-8.8-4.51 4.03-2.15 1.67-3.54 1.6-4.85-3.67-.26-7.81 1.54-6.3 3.66-.18 8.06 3.17-6.79-7.65-3.53-4.22-3.93 1.74-3.3-3.09 4.42-11.97-2.4-4.96-3.14-9.49-4.75-15.35-5.02-5.88.04-6.51-10.59-9.42-8.38-1.2-10.54.66-9.63 1.21-4.59-5.27-6.85-10.78 10.36-5.6 7.94-.94-16.88-4.75-8.9-7.64.54-7.52 14.94-9.67 14.46-10.08 1.53-7.93-10.65-8.11 3.44-9.35 13.66-17.36 5.74-2.79-1.64-12.06 9.35-7.38 12.13-4.52 12.13-.25 4.3 8.87 10.47-15.94 9.42 10.96 5.55 2.24 8.2 9.02-9.4-15.16.55-12.8zM603.5 601.23l.5-1.78 4.3-.12.88-.96 1.26-.06 1.55 1 1.23.01 1.3-.68.8 1.17-1.71.9-1.72-.07-1.69-.85-1.46.93-.7.03-.96.57-3.59-.09zM281 136.46l-.3-8.31 5.1.81 2.3 1.35 4.72 6.93-1.07 7-5.84 3.9-3.22-4.4-1.69-7.28zm18.6 17.8l.47-2.1-2.76-3.45-7.95-.27 1.05 5.17 7.4 1.16 1.8-.52zm51.17 66.09l4.34 7.18 1.14.8 4.32-1.79 4.25.29 4.2.38-.35-3.72-6.8-7.57-9.04-1.52-1.9.94-.16 5zm-92.1-88.26l-3.8 5.9 8.78.72 6.5 6.25 6.44 2.1-1.53-7.99-3.02-9.46-10.68-7.54-7.74-2.88.28 8 4.78 4.9zm36.46-14.4l7.22-.17-3.12 5.63-.06 7.46 4.24 8.1 8.18 2.49 6.98-1.4 7.29-15.1 5.42-6.26-4.76-7-3.12-14.98-6.47-4.49-6.64-5.18-5.04-13.46-9.18 1.32 1.73 5.84-4.05 1.75-2.74 7.5-2.73 10.5 2.5 10.21 4.35 7.23zm-89.73 75.13l5.51 2.74 17.83-1.82-8.2 6.71.5 4.83 6-.33 9.97-6.45 13.36-2.35 2.4-7.35-.7-7.84-4.13-.7-3.51 2.71-1.55-5.81-1.33-8.03-4.07-1.99-3.62 6.21 5.64 15.55-6.89-1.2-7.01-9.55-11.1-5.63-3.72 4.68-5.38 15.62zm31.75-59.22l-5.13-4.07-2.12-.93-4.04 6.03-.07 2.82 6.56.02 4.8-3.87zM235.1 151l1.31-5.61-5.57-3-5.76 1.96-3.2 6 5.86 5.92 7.36-5.27zm40.96 46.78l6.5-1.55 1.8-11.62-.12-8.37-3.02-7.82-.3 2.25-5.55-.99-5.95 5.75-4.24-.52.25 12.56 6.47-1.22-.08 9.1 4.24 2.44zm-4.63 64.2l-7.12-5.53-6.63-5.93-1.22-8.7-2.48-12.56-4.42-5.4-3.92-2.18-3.48 2 2.8 13.49-1.97 5.25-3.23-12.64-3.61-4.37-4.46 6.78-5.49-6.7-8.78 4.03 1.97-6.28-4.03-2.64-10.57 8.22-2.75 5.22-3.31 9.53 6.89 3.27 6.09-.18-9.16 4.88 2.09 4.4 5.6.24 8.43-.94 7.63 2.75-5.15 2.04-5.57-.52-6.09 1.98-2.63 1.23 4.87 8.94 3.5-1.24 5.39 3.02 2.14 5.14 7.02-1.02 10-1.63 7.4-3.73 4.6-.67 6.79 2.98 7.14 1.71 1.33-4.02-2.52-4.3 6.48-.9.43-5.02zm10.9-1.39l-2.75 4.99-3.48 3.5 5.4 4.98 3.2-1.2 5.32 3.32 2.46-3.85-2.4-4.26-1.2-2.15-2.36-2.06-4.19-3.27zm-24.79-41.44l-3-3.06-5.29.56-1.34 1.95 6.16 9.5 3.47-8.95zm40.38 18.54l4.23-9.75 4.71-2.6 5.9-12.3-7.54-3.48-8.22-.5-3.92 3.9-2.06 5.95-.06 6.78 2.46 11.52 4.5.48zm24.15-32.38l8.1-.26 11.32-2.27 5.05 1.8 5.89-3.19 2.46-4-.88-6.36-4.23-5.95-6.41-1.13-8.04 1.37-6.27 3.43-5.76-1.32-5.32-.7-2.5-3.8-4.54-3.68.9-6.24-3.4-5.6-7.77.03-4.39-5.6-8.13-1.13-1.49 7.17 4.58 5.27 8.16 2.05 3.97 7.17.48 7.88 1.36 8.44 10.5 4.8 6.36 1.82zm-125.3-25.72l7.33-7.1 3.7-.83 3.03-5.95.54-13.76-5.41 2.7-6.05-.25-8.1 11.52-6.7 12.64 5.34 3.53 6.32-2.5zm101.6 22.77l2.14-5.83-1.44-4.87-3.45-5.51-5.67 4.25-2.1 6.93 4.78 3.92 5.73 1.1zm-11.7 16.1l-1.03-4.06-7.04 1.78-4.7-2.96-4.68 6.76 4.35 8.84-8.06-1.65-.07 4.24 9.8 9.91 2.73 4.76 3.8 1.03 6.48-4.8.7-11.56-5.97-5.74 3.69-6.55zM182.5 434.86l-1.63-3.3-3.94-2.5-1.95-2.88-1.35-2.12-3.7-.65-2.43-.94-4.14-1.36-.34 1.44 1.52 3.35 4.06 1.1.71 1.73 3.53 2.12 1.19 2.13 6.48 2.7 1.99-.82zm171.3-109.27l-2.81-2.97-2.9.7-.35-4.31-4.53-2.86-4.32-3.2-2.3-2.46-2.01 1.45-.73-4.17L331 307l-1.34 8.63-.5 7.2-3.44 4.4 5.35-.84 1.36 5.13 5.61-4.53 3.92-4.76 2.21 4.03 6.14 2.13 3.5-2.8zm-169.65-73.96l10.38-5.88v-5.46l4.9-9.02 9.68-9.41 4.96-3.47-4.24-5.91-3.83-4.16-10.08-.8-5.64-3.04-13.34 2.29 3.86 8.76-3.42 9.05-2.74 9.66-1.69 5.44 9.11 6.6 2.09 5.35zm188.95 38.43l.44-1.42-.04-4.47-3.08-2.93-3.62 1.47-1.68 5.87.99 5 4.42-.5 2.57-3.02zm33.52 10.62l6.2 9.3 4.86 4.01 6.93-11.08 1.23-6.94-6.2-.67-5.68-9.42-6.27-2.31-9.3-7 7.25-5.1-3.73-10.63-3.44-4.72-9.52-4.72-4.12-7.8-7.32 2.8-.52-5.44-5.43-6.08-8.76-6.64-3.73 5.23-7.81 3.75.59-8.54-6.77-14.15-10 5.72-3.65 10.84-3.11-8.34 2.9-8.97-10.19 3.74-4.06 5.61-3.03 11.86 1.25 12.74 5.6.05-4.12 5.52 3.28 4.17 6.4 1.77 8.35 3.4 14.36 2.56 7.16-1.47 2.11-3.4 3.11 3.92 3.48.65 4.18 6.99-2.53 2.78 8 3.7 6.04 5.18 1.52 3.59 1.09 4.56-5.1 9.74-1.38 4.85 1.31 3.41-8.12 1.21-7.42.17-2.6 6.85 3.34 3.13 11.41-1.45-.06-2.66 5.75 4.44 5.89 4.6-1.38 2.5 4.78 4.25 8.47 4.98 10.7 3.36-.64-2.94-4.1-5.16-5.59-7.57 9.9 7.04 4.98 2.33 1.36-6.24-2.57-8.87-1.63-2.43-5.35-4.27-4.15-5.5.5-5.56 5.1-1.23zM313.97 73.26l3.29 10.27 6.98 8.27 13.8-1.53 8.9 2.77-6.17 8.52-3.11-2.5-10.79-1 1.68 11.7 5.57 8.5-1.12 7.32-7 4.87-3.2 7.7 6.4 3.73 5.39 12.03-10.55-8.02-2.41 1.32 1.94 13.2-7.3 3.99.5 8.23 7.46.88 5.88 2.03 11.59-2.6 10.31 4.6 10.55-10.12-.09-4.25-6.74.68-.55-4 5.51-5.39 1.87-7.25 6.1-5.39 3.75-6.7-3.27-10 2.73-3.73-5.44-2.66 11.95-2.29 2.52-4.43 8.14-3.66 6.75-18.97 6.43-6.95 9.31-15.66-8.59.14 3.57-6.06 9.55-5.62 9.63-12.53.17-8.07-7.22-8.5-8.48-4.13-10.55-2.56-8.54-2.1-8.55-2.11-11.4 5.6-2.1-3.56-12.06 1.37-7.07 3.62-5.21 5.14-3 16.53-4.27-8.42-4.9-1.6-5.8 11.21-7.74 4.71-4.6.94-5.87 5.4.86 9.35 4.61 7.74zM418.7 446.28l-1.39-2.8-1.49 1.78.99 1.92 5 2.41 1.47-.37 1.94-2.33-3.66.16-2.86-.77zm-80.24-109.6l.87 2.3 2.78.19 4.62-4.7.09-1.67-5.42-.09-2.94 3.97zm87.45 93.52l-4.03-2.53-5.2-1.54-1.36.52 3.67 2.87 5.12 1.89 1.92-.1-.12-1.11zm35.04 6.75l-.5-3.15-2.76 1.02 1.22-4.38-3.94-1.86-1.82 1.47-3.5-1.66 1.38-2.12-2.65-1.32-2.57 2.07 2.6-5.38 2.12-3.94.76-1.72-1.83-.27-3.43 2.17-2.44 3.56-4.08 9.74-3.31 3.6 1.71 1.61-2.46 2.07.6 1.74 7.67.17 4.24-.35 3.79 1.42-2.8 2.72 2.36.2 4.58-5.04 1.1.75-.85 4.74 2.6 1.08 1.78-.21 1.66-5.09-1.23-3.64zm-29.84 6.7l-3.95 6.42-6.52.82-5.13-2.83-1.29-4.32-1.25-6.28 3.73-3.98-3.5-2.94-5.9.6-8.28 4.96-6.33 7.68-3.36.94 4.55-5.35 5.69-7.85 5.03-2.67 3.3-4.38 4.1-.43 5.92.05 8.44 1.29 6.67-1 4.97-5.1 6.5-2.23 2.83-2.23 2.87-2.4-.3-7.3-1.58-2.5-3.07-.88-1.56-5.7-2.54-2.17-6.3-1.78-3.54-3.97-5.25-3.98 1.59-4.5-4.37-8.81-5.14-9.7-3.07-7.02-2.61 3.68-3.78 8.51-5.71 4.19-2.86-4.44-3.6-1.2-1.32-9.83.12-6.75-7.04-.62-1.2-3.2-4.86-4.83-3.67-2.87-3.27 2.23-4.06-.82-6.76-2.32-2.75 1.97 1.32 12.92 1.72 7.2-4.66 8.1 4.8 5.65 2.67 6.25.32 4.82-2.18 4.93-4.47 4.87-6.32 3.21 2.78 3.56 2.06 10.42-2.13 6.58-3.04 2.06-5.87-6.03-2.86-7.28-1.23-6.7.64-5.9-4.29-.67-6.52-.4-4.18-2.92-4.94-1.94-2.83-3.35-3.94-2.72-7.34-3.14-5.52 1.44-1.84-5.56-1.78-7.02-5.8-1.27.22-9.03 1.53-6.3 4.28-9.3 4.83-6.9 4.59-1.08.26-5.7 3.12-3.77 5.65-.6 4.57-6.18 1.16-4.08 3.8-8.06 1.18-4.92 4.08 2.96 5.49-1.51 7.72-6.99.5-4.98-2.78-5.6 2.94-5.71-.24-5.44-5.3-5.57-5.83-1.67-5.6-.88-.22 12.26-2.88 9.23-4.12 7.47-3.82-6.96 1.17-7.9-4.71-7.06-5.28 8.57.02-11.25-7.34-2.28 3.5-5.65-5.36-13.5-4-5.5-5.2-2.02-4.66 9.05-.32 13.15 4.6 4.63 4.23 6.9-1.78 10.86-3.17-.29-2.52 8.29.03-9.86-6.12-3.64-3.5 1.88.45 6.57-5.76-.25-6.13 1.66-6.97-4.72-4.4.84-3.97-5.8-3.19-2.58-3.16 1.09-4.8.5-2.55 3.67 4.03 4.49-4.3 5.24-4.2-6.22-3.36 1.83-10.66 1.23-7.13-2.24 5.55-5.26-5.32-5.49-3.87.7-5.43-1.86-9.23-4.07-6.04-4.74-4.78-.66-1.5 3.31-4.84 1.85-.53-8.66-5.26 7.75-6.67-10.3-2.73-1.26-.88 5.5-2.95 2.68-2.7-4.78-6.47 2.88-5.9 5-5.87-1.38-4.78 3.51-3.47 4.62-4.11-1.01-6.21-5.35-7.37-2.73-.02 38.92-.02 49.87 3.88.24 3.85 2.19 2.75 3.43 3.51 5.06 3.84-4.3 3.96-2.53 2.1 4.02 2.66 3.14 3.6 3.41 2.48 5.34 4.03 8.28 6.71 4.51.11 4.4-2.2 3.31.09 3.5 4.77 4.85.7 5.3 5.05 2.75-.57 3.93 2.2 5.57 7.15 2.57 2.82 2.66 7.64 5.95.53.01H294.4v-2.31l1.34-.03.7 3.3 1.23 1.01 2.76.37 4.03.94 3.83 1.84 3.2-.77 4.85 1.53 1.6-2.33 2.24-.94.88-1.45.89-.78 3.67 1.2 2.71.15.95.8 1.32 3.35 4.43.88-.7 1.67 1.56 1.7-.67 2.2 1.66.72-.83 1.93 1.06.18.74-.84.77 1.26 2.96.7 3 .06 3.2.58 3.54 1.1 1.28 1.77 2.56 4.27-1.27 1.83-3.21-.76-2-3.43.5 3.5-1.87 3.05.2 2.59-.32 1.5-2.56 1.8-1.85 2.94-.87 1.86 2.17.33 2.93-1.7 1.72-1.48 1.17-.25 2.17.54 1.05-.83 1.93-.68 3.44-.66v0l-.35-1.62-.2.06-1.2.28-1.57-.5 1.18-1.86 1.2-.64 2.79-.8 3.34-.74 1.75 1.03 1.1-1.2 1.25-.76.84.4.04.1 4.04-3.85 1.78-1.02 6-.04h7.27l.4-1.38 1.26-.28 1.68-.87 1.4-2.56 1.2-4.43 3.01-4.36 1.31 1.52 2.65-.98 1.75 1.67v7.77l2.58 3.17 4.38-.68 6.32-.18-6.85 4.59.15 4.63 3 .4 4.4-3.93 3.92-2.23 8.74-3.31 4.89-3.68-2.55-2.06-.28-4.15zm-75.53-100.08l1.54-4.4-1-1.74-1.62-.18-1.52 2.54-.18.58 1.03 2.5 1.75.7zm-200.8 51.27l2.2-3.31-2.2 3.31zM791.65 639.49l-.24 4.59 1.58.53-1.27 1.4-1.51 1.04-1.51 2.04-.83 1.82-.22 3.15-.92 1.5-.03 2.95-1.14 1.1-.14 2.33-.54.3-.37 2.15 1 1.78.24 4.74.71 3.62-.39 2.05.79 2.3 2.29 2.2 2.13 4.99-1.55-.4-5.3.66-1.06.48-1.13 2.53.88 1.75-.7 4.72-.49 4.01 1.07.72 2.76 1.56 1.08-.73.33 4.33-3.02-.03-1.62-2.22-1.45-1.7-3.03-.57-.88-2.1-2.41 1.27-3.17-.56-1.32-1.82-2.5-.37-1.85.1-.22-1.24-1.37-.1-1.8-.24-2.44.6-1.72-.1-.97.37.21-4.75-1.32-1.48-.29-2.44.59-2.39-.8-1.53-.08-2.48-4.79.03.35-1.42-2.02.01-.2.69-2.46.15-.99 2.3-.59 1-2.18-.56-1.3.55-2.61.32-1.51-2.07-.91-1.28-1.13-2.36-.98-2.94-11.64-.06-1.39.48-1.14-.08-1.63.53-.55-1.22 1-.41.13-1.72.64-1.01 1.44-.83 1.03.4 1.36-1.5 2.14.03.26 1.12 1.47.7 2.32-2.47 2.3-1.92 1-1.26-.13-3.23 1.71-3.81 1.81-2.02 2.6-1.89.45-1.25.1-1.44.65-1.36-.21-2.22.49-3.48.77-2.44 1.18-2.1.24-2.37.35-2.74 1.54-2 2.11-1.26 3.25 1.33 2.51 1.45 2.89.39 2.94.77 1.19-2.38.54-.3 1.8.4 4.39-1.97 1.56.83 1.27-.12.6-.95 1.46-.34 2.97.41 2.53.1 1.3-.42 2.4 3.25 1.77.47 1.06-.66 1.82.26 2.2-.83.93 1.68 3.48 2.6zM950.02 469.88l-2.26.98-5.2 3.68-1.73 3.72-1.47.04-1.08-2.47-5.02-.17-.8-4.3-1.93-.04.3-5.35-4.73-3.95-6.77.43-4.63.79-3.77-4.93-3.22-2.09-6.12-3.99-.74-.49-10.16 3.3.16 19.9-2.03.25-2.76-4.13-2.67-1.49-4.48 1.1-1.74 1.77-.22-1.29.97-2.21-.76-1.87-4.57-1.83-1.78-4.87-2.18-1.39-.13-1.8 3.84.53.15-4.06 3.36-.9 3.44.83.72-5.5-.7-3.54-3.96.28-3.35-1.4-4.57 2.52-3.69 1.2-2-.92.4-2.96-2.51-3.89-2.93.17-3.35-4 2.27-4.52-1.15-1.23 3.15-6.72 4.06 3.57.5-4.5 8.14-6.82 6.16-.17 8.7 4.37 4.68 2.52 4.18-2.63 6.26-.12 5.05 3.22 1.14-1.84 5.55.27.99-2.97-6.4-4.36 3.79-3.13-.74-1.76 3.79-1.7-2.85-4.51 1.8-2.28 14.78-2.34 1.92-1.67 9.88-2.53 3.55-2.86 7.1 1.5 1.23 7.05 4.12-1.64 5.07 2.3-.32 3.63 3.78-.38 9.9-6.32-1.45 2.11 5.03 5.16 8.82 16.29 2.1-3.28 5.44 3.6 5.67-1.6 2.18 1.13 1.9 3.58 2.76 1.2 1.68 2.59 5.09-.82 2.09 3.71-3 3.99-3.28.55-.19 5.9-2.2 2.61-7.83-1.9L995.4 452l-2.02 1.24-7.82 2.23 3.55 9.5-2.7 1.4.3 3.06-2.42-.79-1.98-1.92-5.86-.56-6.54-.15-1.44.6-5.62-2.27-2.24 1.12-.61 3.16-6.5-1.84-2.6.75-.88 2.34zM1085.22 596.7l1.29-1.82.17-3.44-3.19-3.56-.25-4.04-3-3.35-2.98-.28-.8 1.43-2.31.12-1.18-.73-4.16 2.46-.1-3.7.97-4.36-2.66-.2-.23-2.5-1.71-1.3.84-1.53 3.36-2.74.36.99 2.1.11-.59-4.83 2.04-.62 2.31 3.34 1.77 3.83 4.86.03 1.53 3.65-2.52 1.09-1.14 1.5 4.73 2.48 3.28 4.87 2.49 3.62 2.99 2.84.99 2.88-.72 4.05-3.49-1.49-1.79 2.79-3.26-1.59z" fill="#fff" stroke="#2A8086" stroke-width="1.45"/>
  <path d="M1420.22 304.7l-3.91 4.18-6.47.98-.1 9.1-1.58 1.9-3.69-.28-3.01-3.19-5.25-2.7-.88-4.06-4.01-1.55-4.49 1.23-2.14-3.34.85-3.59-4.72 2.3 1.78 4.5-2.24 3.99-.03.05-5.07 4.06-5.12-.67 3.56 4.84 2.35 7.32 1.82 2.35.46 3.56-1.02 2.26-7.35-1.86-11.04 6.35-3.5.97-6.04 5.77-5.73 4.93-1.45 3.6-5.65-5.5-10.28 6.23-1.8-2.93-3.8 3.37-5.28-1.07-1.27 5.1-4.73 7.35.14 3.01 4.49 1.65-.53 10.5-3.66.26-1.69 5.85 1.64 2.96-6.9 3.47-1.37 7.61-5.88 1.6-1.19 6.56-5.69 5.89-1.45-4.34-1.69-9.42-2.21-14.99 1.9-9.79 3.33-4.32.21-3.44 6.13-1.66 7.05-9.54 6.79-8.06 7.1-6.44 3.17-11.77-4.79.72-2.38 6.93-10.01 8.95-3.23-10.05-10.19 2.81-9.88 13.46 3.26 4.75-8.81 2-6.1.79.29-5.56-6.14-1.18-4.89 3.8-12.06-1.32-12.99 2.28-12.78 14.54-15.12 16.58 6.21.86 1.94 4.22 3.84 1.49 2.52-3.35 4.33.44 5.7 7.3.13 5.53-3.08 6.35-.33 7.41-1.78 9.64-5.95 8.46-1.32 3.97-5.36 6.56-5.32 6.37-2.55 3.22-5.26 3.16-2.49.07-2.47-2.62-5.3 3.93-.62 1.77-.55-.93-.03-2.71 2.02-.15.57-6.4-1.04-4.74 3.39-1.96 4.78.99 2.66-5.48 1.35-6.28 1.53-2.12 2.08-5.3-6.52 1.75-3.43 2.31h-5.99l-1.6-5.56-4.67-4.27-6.87-1.94-1.46-6.03-1.38-3.84-1.48-2.73-2.44-6.49-3.46-2.4-5.91-1.97-5.23.18-4.91 1.19-3.26 3.25 2.17 1.54.05 3.55-2.2 2.05-3.56 6.65.04 2.71-5.57 3.86-4.73-2.3-4.71.5-2.07-2.04-2.37-.67-5.78 4.3-5.19 1.01-3.63 1.5-4.97-.99-3.66.07-2.4-3.1-3.86-2.95-3.96-.81-4.99.8-3.73 1.14-5.61-2.59-.75-4.67-4.64-1.62-3.58-.74-4.42-2.64-4.09 6.56 1.6 3.66-3.83 4.27-5.71-1.53-3.94-.22-2.64-2.88-4.11-.09-3.44-1.9-6 2.91-7.53 5.26-4.16 1.05-1.55.5-2.09-3.71-5.08.81-1.68-2.6-2.76-1.19-1.9-3.58-2.18-1.12-5.67 1.6-5.44-3.6-2.1 3.28-8.82-16.3-5.03-5.15 1.44-2.12-9.9 6.33-3.78.38.33-3.64-5.07-2.3-4.12 1.65-1.24-7.06-7.1-1.49-3.54 2.86-9.88 2.52-1.93 1.68-14.77 2.34-1.8 2.28 2.84 4.51-3.79 1.7.74 1.76-3.78 3.13 6.4 4.36-1 2.97-5.54-.27-1.14 1.84-5.05-3.23-6.26.13-4.19 2.63-4.67-2.52-8.7-4.37-6.16.17-8.15 6.82-.5 4.5-4.05-3.57-3.15 6.72 1.15 1.23-2.27 4.52 3.35 4 2.92-.17 2.52 3.89-.4 2.95 2 .93-1.8 3.36-3.82.93-3.92 5.76 3.58 5.2-.38 3.64 4.3 6.27-2.35 2.12-.68 1.33-1.75-.36-2.7-3.19-1.12-.17-2.48-1.23-1.2-2.18-3.69-1.12-2.39.84-.7-1-5.37-2.57-5.8-.87-3.34-.93-.48.64-5.03-4.6-4.5-2.09-3.42-3.26 2.88-.9 3.27-4.72-2.2-2.26 5.81-2.34-.1-1.27-3.55.93.13-2.57 2.03-1.64 3.82-.43.62-1.96-.87-3.28 1.6-3.14-.05-1.78-5.81-1.98-2.31.07-2.44-2.88-3.02.98-5.02-2.17.09-1.23-1.4-2.7-3.15-.31-.33-1.96.99-1.29-2.52-3.62-4.1.62-1.2-.32-1 1.46-1.47-.26-.97-4.13-.92-2.17.76-.61 3.18.22 1.54-1.43-1.14-1.77-2.66-1.17.24-1.2-1.6-1.23-2.48-4.44.84-1.85-.38-3.25-3.86-1.66-2.07.83-.56-1.74-4.16-1.76-1.27-4.21-.33-3.51-1.9-1.68 1.69-2.33-1.17-6.99 2.8-4.41-.59-1.35 4.49-4.32-4.14-3.78 8.45-10.42 3.66-4.86 1.49-4.37-5.84-6 1.61-5.83-3.55-6.83 2.66-8.11-4.6-11.2 3.65-7.71-6.05-7.03.58-7.6 3.19-1.02 6.71-4.5 4.08-3.95 6.48 6.84 10.8 2.64 14.92 12.17 3.03 4.94.26 6.75-4.38 5.2-6.45 2.6-17.62-7.48-2.9 1.27 6.44 7.17.25 4.44.26 9.5 5.08 2.77 3.08 2.34.51-4.38-2.37-3.94 2.5-3.53 9.55 5.77 3.32-2.24-2.65-6.86 9.2-9.5 3.64.57 3.68 3.43 2.3-6.78-3.29-6.02 1.93-6.2-2.9-6.61 11.04 3.44 2.26 5.88-5 1.28.03 5.69 3.1 3.43 6.1-2.17.97-6.5 8.24-4.95 13.77-9.21 2.98.53-3.9 6.53 4.9 1.11 2.83-3.64 7.4-.3 5.86-4.49 4.5 6.5 4.48-7.15-4.13-6.45 2.05-3.75 11.66 3.44 5.46 3.5 14.3 12.4 2.64-5.6-4.01-5.8-.12-2.35-4.75-1.1 1.3-5.39-2.11-9.13-.12-3.86 7.28-11.25 2.6-11.84 2.93-2.65 10.45 3.54.82 7.3-3.74 10.25 2.45 3.9 1.27 8.37-.9 15.58 4.36 6.66L959 287l-7.72 14.36 4.5 1.44 1.58-3.54 4.34-2.56 1.05-5 3.41-4.9-2.3-6 1.85-7.16-4.32-.9-.95-6.23 3.15-11.65-5.13-9.9 7.07-8.5-.92-9.32 1.97-.3 2.08 7.3-1.56 12.2 4.22 2.24-1.8-8.97 6.6-5.04 8.2-.68 7.3 7.29-3.52-10.73-.39-14.47 6.86-2.85 9.5.63 8.55-1.86-3.21-7.58 4.57-9.87 4.53-.42 7.68-7.77 10.42-2.13 1.31-4.43 10.37-1.53 3.23 3.67 8.85-8.78 7.25.28 1.09-7.37 3.77-7.5 9.32-7.49 6.77 5.93-5.37 4.4 8.94 2.7 1.06 8.5 3.61-4.15 11.54.23 8.89 8.23 3.17 6.12-.98 8.24-4.37 4.56-10.37 8.33-2.96 4.34 4.89 2.02 5.84 3.59 3.55-2.7 2.01 9 1.74-3.6 6.31-2.21 12.66 2.31.96 6.45 16.5 2 .23-10.51 8.37 2.45 6.3-.07 6.38 7.23 1.81 8.5-2.33 5.4 4.95 9.82 6.21 4.92 3.81-12.92 6.33 5.63 6.73-3.35 7.64 3.83 2.9-3.49 6.46 1.75-2.85-11.82 5.21-5.72 35.64 8.53 3.36 7.53 10.34 9.37 15.93-2.29 7.86 2 3.29 4.92-.48 8.47 4.86 3.21 5.28-2.3 7-.3 7.45 2.21 7.48-1.25 6.87 9.85 4.9-3.5-3.2-7.14 1.76-5.09 12.59 3.22 8.21-.69 11.35 5.41 5.53 4.85 9.67 8.24 10.34 10.33-.33 6.25 2.66 2.46-.92-7.25 10.72 1.5 7.72 9.23zm-179.36 127.37l-3.97-10.81-1.63-6.35.1-6.33-1.36-6.33-1.03-4.44-1.76.95 1.57 3.1-3.65 3.05-.35 8.86 2.31 6.21-.17 8.24-.91 4.55.45 6.4-.44 5.64.73 4.79 2.59-4.41 2.99 3.44.11-4-3.85-5.95 2.43-8.6 5.84 2zM758.03 393.4l-4.13-1.2-5.45 2.22-.9 3 4.86.76 7.26-.1-.31-1.73.42-1.87-1.75-1.08zm622.33-140.93l5.15-.73 4.07-2.9.34-1.68-5.71-3.54-3.35-.03-.5.53-5.03 5.13.7 3.83 4.33-.6zm-154.67-38.13l-3.74 5.51.69.73 8.09 1.53 5.98-.1-.47-3.61-5.61-5.37-4.94 1.31zm34.59-13.4l4.57-5.99-9.91-4.04-7.35-2.37-.95 5.04 7.34 6.01 6.3 1.34zm-35.37-2.4l14.55.42 3.11-11.46-14.27-8.55-10.42-.72-5.21 3.07-2.12 10.91 7.82 9.87 6.54-3.53zm-347.84 36.53l-4.03 2.75.58 6.8 7.14 3.31 1.05 5.38 12.9 1.55 2.32-1.05-7.55-10-.8-10.58 6.19-12.87 5.88-13.82 12.26-14.31 12.05-7.52 13.99-8.08 2.65-5.21-2.74-6.8-7.69 2.26-6.75 6.32-13.14 3.13-13.03 10.43-8.83 8.23 1.07 6.86-9.45 12.7 3.63 1.72-7.83 11.65.13 7.15zm207.59-95.64l1.17-8.05-10.01-11.75-2.96-1.38-3.24 2.39-7.21 26.18 22.25-7.4zM853.49 98.16l4.27 5.45 4.62-3.79.55-3.82 3.55-1.8 5.3-3.14 1.52-3.7-5.85-5.4-3.72 4.08-2.27 5.8-.8-6.54-6 .3-7.7 4.43 8.78.74-2.25 7.39zm184.74 18.36l6.55 8.07 11 5.91 8.61-2.54.97-19.17-9.09-22.58-7.66-12.7-8.54 5.78-10.25 16.66 5.38 4.6 3.03 15.97zM790.01 657.7l1.57 2.22-.23 2.3-1.14.5-2.1-.26-1.2 2.24-2.4-.31.37-2.15.54-.3.14-2.33 1.14-1.1.95.4 2.36-1.2z" fill="#fff" stroke="#2A8086" stroke-width="1.45"/>
</svg>