<svg width="52" height="56" fill="none" xmlns="http://www.w3.org/2000/svg">
    <path opacity=".8" d="M2 29h6v19H2V29z" fill="#216E7A"/>
    <path d="M50.4 36.8a4 4 0 00-3.4-.5l-15.3 4.2A4 4 0 0028 35h-9.4c-.6-1-2.3-4-4.6-4h-4v-1a3 3 0 00-3-3H3a3 3 0 00-3 3v17a3 3 0 003 3h4a3 3 0 003-3v-.8l12.1 8.3a9 9 0 009.9.2L50 43.6a4 4 0 001.9-3.4V40c0-1.2-.6-2.3-1.6-3zM8 47c0 .6-.4 1-1 1H6v-4H4v4H3a1 1 0 01-1-1V30c0-.6.4-1 1-1h4c.6 0 1 .4 1 1v17zm42-6.8a2 2 0 01-1 1.7l-18 11a7 7 0 01-7.7-.1l-13.3-9V33h4c1 0 2.5 2 3 3.4l.4.6H28a2 2 0 110 4H18v2h12l17.5-4.8a2 2 0 011.7.2c.5.4.8 1 .8 1.5v.3z" fill="#216E7A"/>
    <path opacity=".8" d="M32.5 17.2a2.9 2.9 0 100 5.8 2.9 2.9 0 000-5.8z" fill="#216E7A"/>
    <path d="M43.2 10.6c-1.6-1.3-3.7-1.8-6.2-1.3-1.6.4-2.7.9-3.4 1.4l-.5-.3V8.6 8l1.4-.1h2.6a4 4 0 004-4V1H36a4 4 0 00-3.5 2A4 4 0 0029 1h-5.2v3a4 4 0 004 4h2.7l1.3.1.1.5v1.8l-.5.3c-.8-.5-1.9-1-3.4-1.3-2.5-.5-4.6-.1-6.2 1.2-3.1 2.6-3.2 7.7-3.2 7.9 0 4.5 3 9.2 7 10.9 1 .4 2 .6 2.8.6 1.5 0 2.9-.6 4.1-1.6 2 1.7 4.4 2 6.9 1 4-1.7 7-6.4 7-11 0-.1 0-5.3-3.2-7.8zM36 2.2h4v1.7c0 1.6-1.3 3-2.9 3h-4c0-1 .8-1.8 1.7-1.8h1.7V3.9h-1.7c-.6 0-1.2.2-1.7.6A2.9 2.9 0 0136 2.2zm-5.2 4.6h-2.9a2.9 2.9 0 01-3-2.9V2.2H29c1.4 0 2.6 1 2.9 2.3-.5-.4-1-.6-1.7-.6h-1.7v1.2h1.7c1 0 1.7.8 1.7 1.7V7h-1.1zm8.1 21.5c-2.2 1-4.3.5-6-1.1l-.4-.4-.4.4a5.2 5.2 0 01-6 1.1 11.2 11.2 0 01-6.3-9.8s0-4.8 2.7-7c1-.8 2.2-1.2 3.5-1.2.6 0 1.1 0 1.8.2 3.4.8 4.1 2.3 4.1 3v.3h1.2v-.4c0-.8.8-2.2 4.1-3 2.2-.4 4 0 5.3 1 2.7 2.3 2.7 7 2.7 7 0 4.1-2.8 8.4-6.3 9.9z" fill="#216E7A"/>
</svg>