<svg width="50" height="50" viewBox="0 0 50 50" fill="none" xmlns="http://www.w3.org/2000/svg">
    <path d="M14 5a5.88 5.88 0 00-5.84 4.88l-.13.62.1-.44c-.04.15-.08.3-.1.44-.3.21-.6.44-.84.69a8.81 8.81 0 00-2.03 3.9v.04C3.86 19.1 1.54 28.55 1 30.71.67 32.04 0 33.46 0 35a10 10 0 0019.97.38A8.28 8.28 0 0025 37c2.26 0 3.9-.79 5.03-1.63A10 10 0 0050 35c0-.76-.18-2.2-.53-3.22a585.3 585.3 0 00-4.4-16.66v-.03a9.64 9.64 0 00-2.13-3.9 5.9 5.9 0 00-1-.81l-.1-.5.1.5c0-.1-.1-.5-.1-.5A5.99 5.99 0 0030 11c0 .72.12 1.44.34 2.08-.46.54-.85 1.03-1.12 1.29-.11.1-.12.1-.16.12a6.76 6.76 0 00-3.97-1.4 6.5 6.5 0 00-4 1.4c-.04-.02-.04-.02-.15-.13-.3-.27-.74-.8-1.25-1.4.2-.62.31-1.28.31-1.97 0-3.32-2.68-6-6-6zm0 2c2.28 0 4 1.72 4 4 0 .09-.03.16-.03.25a7.63 7.63 0 00-5.06-2.06c-.97 0-1.84.1-2.6.28A3.9 3.9 0 0114 7zm22 0c1.7 0 3.1 1 3.66 2.44-.7-.16-1.47-.25-2.35-.25a7.93 7.93 0 00-5.28 2.19L32 11c0-2.28 1.72-4 4-4zm-23.1 4.19c2 0 3.38 1.07 4.54 2.28.9.97.42.4.9.97.43.5.84.98 1.25 1.37.29.27.58.52 1.04.66.45.14 1.1.03 1.5-.28l.03-.03c.66-.6 1.9-1.07 2.93-1.07 1.05 0 2.14.43 2.97 1.1v-.03h.03c.39.31 1.03.45 1.47.3.46-.13.72-.38 1-.65.42-.4.84-.9 1.28-1.4l.7-.75c1.2-1.29 2.67-2.47 4.77-2.47 1.32 0 2.26.2 2.97.53.53.28 0 0 .44.25l.1.03c.26.18.5.38.71.6.79.8 1.24 1.92 1.63 3.09v.03c.77 2.55 2.05 7.4 3.09 11.47a10.03 10.03 0 00-15.84 5 .91.91 0 00-.2.22S28.94 35 25 35c-3.93 0-5.22-2.6-5.22-2.6-.05-.09-.11-.17-.19-.24A10.04 10.04 0 0010 25c-2.27 0-4.35.76-6.03 2.03C5 22.97 6.26 18.2 7.07 15.72v-.03c.33-1.17.73-2.3 1.52-3.1.8-.8 2-1.4 4.32-1.4zM25 25c-2.2 0-4 1.8-4 4s1.8 4 4 4 4-1.8 4-4-1.8-4-4-4zm-15 2c4.43 0 8 3.57 8 8s-3.57 8-8 8a7.99 7.99 0 01-7.81-9.75c.31-1.25.64-1.66.69-1.9A8 8 0 0110 27zm15 0c1.12 0 2 .88 2 2s-.88 2-2 2-2-.88-2-2 .88-2 2-2zm15 0a7.98 7.98 0 017.53 5.31l.1.35c.02.1.37 1.34.37 1.84v.5c0 4.43-3.57 8-8 8s-8-3.57-8-8 3.57-8 8-8zM4.9 33.97l-.12.03A1 1 0 004 35c0 3.32 2.68 6 6 6a1 1 0 00.88-.5 1 1 0 000-1A1 1 0 0010 39c-2.28 0-4-1.72-4-4a1 1 0 00-1.1-1.03zm31 0l-.12.03a1 1 0 00-.78 1c0 3.32 2.68 6 6 6a1 1 0 00.88-.5 1 1 0 000-1A1 1 0 0041 39c-2.28 0-4-1.72-4-4a1 1 0 00-1.1-1.03z" fill="#216E7A"/><path opacity=".8" d="M18.5 35c0 4.42-4.08 8.5-8.5 8.5S1.5 39.42 1.5 35s4.08-8.5 8.5-8.5 8.5 4.08 8.5 8.5zM48.5 35c0 4.42-4.08 8.5-8.5 8.5s-8.5-4.08-8.5-8.5 4.08-8.5 8.5-8.5 8.5 4.08 8.5 8.5z" fill="#216E7A"/><path d="M5.98 34.81a1 1 0 00-1.96.38l1.96-.38zM9.88 41a1 1 0 00.24-1.98l-.24 1.98zm-5.86-5.8c.34 1.77.82 3.18 1.8 4.17 1 1 2.35 1.43 4.06 1.63l.24-1.98c-1.56-.19-2.36-.53-2.88-1.06-.54-.54-.93-1.44-1.26-3.14l-1.96.38zM35.98 34.81a1 1 0 10-1.96.38l1.96-.38zm3.9 6.18a1 1 0 00.24-1.98l-.24 1.98zm-5.86-5.8c.34 1.77.82 3.18 1.8 4.17 1 1 2.35 1.43 4.06 1.63l.24-1.98c-1.56-.19-2.36-.53-2.88-1.06-.54-.54-.93-1.44-1.26-3.14l-1.96.38z" fill="#fff"/>
</svg>