<svg width="54" height="49" viewBox="0 0 54 49" fill="none" xmlns="http://www.w3.org/2000/svg">
    <path opacity=".8" d="M28.42 25.46a1.93 1.93 0 00-2.84 0l-5.23 5.68A2.9 2.9 0 0022.48 36h9.04c2.52 0 3.84-3 2.13-4.86l-5.23-5.68zM36 27a3 3 0 100-6 3 3 0 000 6zM18 27a3 3 0 100-6 3 3 0 000 6zM27 23a3 3 0 100-6 3 3 0 000 6z" fill="#216E7A"/><path d="M40 .1c-5.8 0-10.92 3.86-13 9.4C24.92 3.96 19.8.1 14 .1 6.28.1 0 6.78 0 14.98 0 31 13.42 41.75 21.42 46.73a10.54 10.54 0 0011.16 0C40.58 41.75 54 31 54 14.98 54 6.78 47.72.1 40 .1zm-8.47 44.93a8.51 8.51 0 01-9.06 0C14.83 40.27 2 30.03 2 14.98 2 7.88 7.38 2.1 14 2.1c5.92 0 11.02 4.75 11.86 11.03l.12.87h2.04l.12-.87C28.98 6.85 34.08 2.1 40 2.1c6.62 0 12 5.78 12 12.88 0 15.05-12.83 25.29-20.47 30.05z" fill="#216E7A"/><path d="M41 5v2a6 6 0 016 6h2a8 8 0 00-8-8z" fill="#216E7A"/><path d="M41 9v2a2 2 0 012 2h2a4 4 0 00-4-4z" fill="#216E7A"/>
</svg>