<svg width="52" height="44" fill="none" xmlns="http://www.w3.org/2000/svg">
    <path opacity=".8" d="M29 32a5 5 0 10-2 7.6L24 35l5-3z" fill="#216E7A"/>
    <path d="M49 3h-4a3 3 0 00-3 3v2H31.2L13.6.3a4 4 0 00-5.2 1.8c-.5 1-.5 2-.2 2.9.4 1 1.1 1.7 2.1 2.2l1.9.8H4a4 4 0 000 8h16.2c-3.7 3-6.2 6.4-6.2 11 0 2.5.7 5 2 7a9 9 0 0017.3 4.4A13 13 0 0040 27v-2h2.2c.4 1 1.5 2 2.8 2h4a3 3 0 003-3V6a3 3 0 00-3-3zM11.1 5.3c-.5-.2-.8-.6-1-1-.2-.4-.1-.9 0-1.3.5-.9 1.7-1.3 2.7-.8L26.2 8h-9L11 5.3zM2 12c0-1.1.9-2 2-2h.6c-.4 1-.6 1.3-.6 2s.2 2 .6 2H4a2 2 0 01-2-2zm23 30a7 7 0 115.4-11.4A5 5 0 0127 32a4 4 0 000 8 13 13 0 003.3-.4A7 7 0 0125 42zm6.6-13a9 9 0 00-9.6-2.5 5 5 0 119.6 2.4zm6.4-6v4c0 6-5 11-11 11a2 2 0 010-4 7 7 0 10-7-7v.6a9 9 0 00-3.2 3.6A11 11 0 0127 16v-2H8a2 2 0 010-4h34v13h-4zm12 1c0 .5-.4 1-1 1h-1v-6h-2v6h-1a1 1 0 01-1-1V6c0-.6.4-1 1-1h4c.6 0 1 .4 1 1v18z" fill="#216E7A"/>
</svg>