<svg width="52" height="50" fill="none" xmlns="http://www.w3.org/2000/svg">
    <path d="M19 25a2 2 0 100-4 2 2 0 000 4zM33 25a2 2 0 100-4 2 2 0 000 4zM23.5 33c1.4 0 2.5-.7 2.5-1.5S24.9 30 23.5 30s-2.5.7-2.5 1.5 1.1 1.5 2.5 1.5z" fill="#216E7A"/>
    <path opacity=".8" d="M46 23h-4v-6h4a2 2 0 012 2v2a2 2 0 01-2 2z" fill="#216E7A"/>
    <path d="M28.5 33c1.4 0 2.5-.7 2.5-1.5S29.9 30 28.5 30s-2.5.7-2.5 1.5 1.1 1.5 2.5 1.5z" fill="#216E7A"/>
    <path opacity=".8" d="M6 23h4v-6H6a2 2 0 00-2 2v2c0 1.1.9 2 2 2zM42 16.4A10 10 0 0032 7a6 6 0 00-4.2 1.8A6 6 0 0026 13a6 6 0 00-1.8-4.2A6 6 0 0020 7a10 10 0 00-10 9.4A16 16 0 0137.3 5.7 16 16 0 0142 16.4z" fill="#216E7A"/>
    <path d="M47 13h-4.5A17 17 0 0026.1 0H26A16.8 16.8 0 009.5 13H5a5 5 0 00-5 5v4a5 5 0 005 5h2.5A11 11 0 004 35v5a10 10 0 0010 10h24a10 10 0 0010-10v-5c0-3-1.3-6-3.5-8H47a5 5 0 005-5v-4a5 5 0 00-5-5zM15.4 6.4A14.8 14.8 0 0126 2V1v1a14.7 14.7 0 0111.7 5.6A11 11 0 0032 6a7 7 0 00-6 3.4A7 7 0 0020 6c-2 0-4 .6-5.7 1.6l1-1.2zM5 25a3 3 0 01-3-3v-4a3 3 0 013-3h4v10H5zm41 10v5a8 8 0 01-8 8H14a8 8 0 01-8-8v-5a9 9 0 014.5-7.8l.4-.2h.1V17c0-5 4-9 9-9a5 5 0 015 5v1h2v-1a5 5 0 015-5c5 0 9 4 9 9v10h.1l.4.2A9 9 0 0146 35zm4-13a3 3 0 01-3 3h-4V15h4a3 3 0 013 3v4zm-31 7a6 6 0 100-12 6 6 0 000 12zm0-10a4 4 0 110 8 4 4 0 010-8zm20 17h2v3a4 4 0 01-4 4H15a4 4 0 01-4-4v-3h2v3c0 1.1.9 2 2 2h22a2 2 0 002-2v-3zm-6-7a6 6 0 100-12 6 6 0 000 12zm0-10a4 4 0 110 8 4 4 0 010-8z" fill="#216E7A"/>
</svg>