<svg width="52" height="48" viewBox="0 0 52 48" fill="none" xmlns="http://www.w3.org/2000/svg">
    <path opacity=".8" d="M2 21h6v19H2V21z" fill="#216E7A"/>
    <path d="M50.43 28.82c-.94-.7-2.2-.9-3.44-.55L31.7 32.48A3.99 3.99 0 0028 27h-9.38c-.66-1-2.36-4-4.62-4h-4v-1a3 3 0 00-3-3H3a3 3 0 00-3 3v17a3 3 0 003 3h4a3 3 0 003-3v-.75l12.14 8.2a9.05 9.05 0 009.82.22l18.17-11.1A3.93 3.93 0 0052 32.23v-.3c0-1.24-.57-2.37-1.57-3.11zM8 39a1 1 0 01-1 1H6v-4H4v4H3a1 1 0 01-1-1V22a1 1 0 011-1h4a1 1 0 011 1v17zm42-6.77c0 .67-.35 1.29-.91 1.63L30.9 44.96a7.1 7.1 0 01-7.65-.17L10 35.84V25h4c1.06 0 2.47 2.03 3.09 3.4l.26.6H28a2 2 0 110 4H18v2h12l17.52-4.8c.64-.18 1.28-.1 1.71.22.5.36.77.91.77 1.5v.31zM33 22c2.63 0 13-6.56 13-15a7 7 0 00-13-3.6A7 7 0 0020 7c0 8.44 10.37 15 13 15zM27 2c2.76 0 5 2 5 5h2c0-3 2.24-5 5-5a5 5 0 015 5c0 7.56-9.68 13-11 13-1.32 0-11-5.44-11-13a5 5 0 015-5z" fill="#216E7A"/>
</svg>