<svg height="512" width="512" xmlns="http://www.w3.org/2000/svg"><path d="M110.885 315.364h198.037v126.561H110.885z" fill="#ffb357"/><path d="M408.063 418.983 269.154 48.561h-82.338V227.92l23.087 23.087 79.656 212.416c9.527 25.405 33.639 41.08 59.261 41.077a63.172 63.172 0 0 0 22.211-4.045c32.723-12.273 49.303-48.748 37.032-81.472z" fill="#ffce71"/><path d="M269.154 48.561C259.892 23.863 236.281 7.5 209.902 7.5s-49.99 16.363-59.252 41.061L11.743 418.984c-12.271 32.723 4.309 69.198 37.032 81.47 32.721 12.268 69.2-4.308 81.472-37.033l79.656-212.416.001.002v-58.121a205.396 205.396 0 0 1 59.25-144.325z" fill="#ffb357"/><g fill="#ff8e9e"><ellipse cx="130.346" cy="226.92" rx="29.355" ry="23.377"/><ellipse cx="289.46" cy="226.92" rx="29.355" ry="23.377"/></g><g><path d="M399.792 176.657h-18.734c-7.76 0-14.051 6.291-14.051 14.051V397.23a16.344 16.344 0 0 0 16.344 16.344h14.147c9.021 0 16.344-7.319 16.344-16.344V190.707c0-7.76-6.29-14.05-14.05-14.05z" fill="#c77464"/><path d="m484.193 237.719 19.892 19.892a149.418 149.418 0 0 1-1.336 19.997 149.148 149.148 0 0 1-8.767 34.005c-3.649 9.393-13.816 14.505-23.552 11.909-9.084-2.422-17.077-4.605-25.738-6.499v-79.306h39.501z" fill="#d4d4ff"/><path d="M444.692 244.599v-43.36c7.892-2.131 16.631-5.518 24.956-8.293 11.754-3.358 21.427 2.862 24.823 11.847a149.188 149.188 0 0 1 9.615 52.819 92.704 92.704 0 0 0-59.394-13.013z" fill="#9ea2e3"/><g><path d="M370.874 309.086h-3.76c-11.64 0-21.076-9.436-21.076-21.076v-30.443l-28.846-28.846c-6.639-6.639-1.937-17.989 7.451-17.989h42.47c28.476 0 51.968-2.577 77.578-9.493 8.381 13.196 14.152 27.485 16.311 42.868a96.72 96.72 0 0 1 .955 13.46c0 8.792-.934 17.422-2.837 25.747-2.748 12.018-7.518 23.4-14.429 33.711-22.741-4.973-45.863-7.94-73.817-7.939z" fill="#ff8e9e"/><path d="M423.024 249.866a92.711 92.711 0 0 0-55.91 59.22c-11.64 0-21.076-9.436-21.076-21.076v-30.443l-28.846-28.846c-6.639-6.639-1.937-17.989 7.451-17.989h42.47c28.476 0 51.968-2.577 77.578-9.493 8.381 13.196 14.152 27.485 16.311 42.868a92.642 92.642 0 0 0-37.978 5.759z" fill="#ea5b70"/></g></g><g><path d="M154.955 204.417v-12a7.5 7.5 0 0 0-15 0v12a7.5 7.5 0 0 0 15 0zM279.852 204.417v-12a7.5 7.5 0 0 0-15 0v12a7.5 7.5 0 0 0 15 0zM232.021 208.986a7.5 7.5 0 0 0-11.309-9.855c-5.727 6.571-15.899 6.564-21.62 0a7.5 7.5 0 0 0-11.309 9.855c11.706 13.431 32.547 13.418 44.238 0zM179.902 307.864a7.5 7.5 0 0 0 0 15h60a7.5 7.5 0 0 0 0-15h-.668l-22.31-59.492a7.5 7.5 0 0 0-14.044 0l-22.309 59.492zm30.001-35.498 13.312 35.498H196.59z"/><path d="M501.486 202.141c-5.242-13.865-20.401-20.87-34.211-16.31-10.309 3.438-24.004 9.131-45.933 13.058v-8.182c0-11.883-9.668-21.55-21.551-21.55h-18.734c-11.883 0-21.551 9.667-21.551 21.55v12.524h-24.341l-58.99-157.305C265.875 18.457 239.241 0 209.902 0s-55.972 18.457-66.274 45.927l-36.267 96.713a7.5 7.5 0 0 0 14.045 5.267l36.267-96.712C165.792 29.545 186.781 15 209.902 15c23.122 0 44.111 14.545 52.229 36.194l57.301 152.803c-12.936 3.882-17.254 20.317-7.544 30.027l26.648 26.649v27.337c0 13.085 8.89 24.174 20.969 27.528v81.692c0 13.147 10.696 23.844 23.845 23.844h14.146c1.104 0 2.189-.082 3.253-.228 14.34 38.233-13.876 76.154-51.93 76.154h-.006c-23.118 0-44.109-14.552-52.231-36.21l-4.395-11.721a7.5 7.5 0 0 0-2.284-14.643h-160a7.5 7.5 0 0 0-2.284 14.643l-4.395 11.719c-10.798 28.796-43.01 43.439-71.812 32.646a.008.008 0 0 1-.004-.002c-21.659-8.123-36.211-29.116-36.211-52.239a55.588 55.588 0 0 1 3.568-19.575l92.106-245.621a7.5 7.5 0 0 0-14.045-5.267L4.721 416.351C1.719 424.355 0 432.713 0 441.193c0 38.549 31.975 70.793 70.917 70.793 28.669 0 55.709-17.548 66.353-45.931l6.236-16.629h132.796l6.237 16.631C292.843 493.539 319.476 512 348.813 512h.008c47.18 0 84.65-46.62 65.445-97.836 4.367-4.324 7.077-10.318 7.077-16.934v-26.339c0-4.142-3.357-7.5-7.5-7.5s-7.5 3.358-7.5 7.5v26.339c0 4.876-3.968 8.844-8.845 8.844h-14.146c-4.877 0-8.845-3.967-8.845-8.844v-80.594c11.771.163 22.098.729 31.836 1.723v22.532c0 4.142 3.357 7.5 7.5 7.5s7.5-3.358 7.5-7.5v-20.604c14.934 2.321 29.5 5.774 47.155 10.483 13.482 3.596 27.44-3.479 32.476-16.44 7.033-18.105 11.019-37.187 11.026-56.714.009-19.061-3.805-37.725-10.514-55.475zm-120.428-17.984h18.734a6.558 6.558 0 0 1 6.551 6.55v10.388c-9.302 1.093-19.835 1.842-31.836 2.063v-12.451a6.557 6.557 0 0 1 6.551-6.55zm-27.52 103.853v-30.443a7.5 7.5 0 0 0-2.196-5.303l-28.846-28.846c-1.926-1.926-.578-5.186 2.148-5.186h42.47c33.166 0 56.794-3.919 74.043-8.335 19.218 33.547 16.033 71.617-.068 98.76-22.909-4.828-43.792-7.063-73.806-7.071a6.866 6.866 0 0 0-.238-.005c-7.448-.039-13.507-6.126-13.507-13.571zm133.453 20.887c-2.264 5.827-8.553 8.998-14.628 7.378a833.09 833.09 0 0 0-16.033-4.124c16.349-30.644 18.929-70.509-.406-106.557 6.464-2.103 11.609-4.033 15.928-5.479 8.019-2.221 13.611 2.065 15.602 7.328 6.065 16.047 9.138 32.925 9.13 50.164-.006 17.666-3.234 34.922-9.593 51.29z"/></g></svg>