<svg height="512" width="512" xmlns="http://www.w3.org/2000/svg"><path d="M287.573 7.513H247.56c-51.136 0-92.589 41.454-92.589 92.589V374.79h94.29c5.828-17.992 8.988-37.162 8.988-57.052V134.072h28.382c34.777 0 63.766-27.664 64.217-62.439.458-35.333-28.045-64.12-63.275-64.12z" fill="#70dcba"/><path d="M194.971 291.024V100.103c0-50.795 40.899-92.03 91.561-92.589h-183.22c-34.777 0-63.766 27.664-64.218 62.438-.459 35.333 28.044 64.121 63.274 64.121h29.322v183.666c0 33.229-27.189 60.45-60.417 60.198-35.395-.268-64.128 28.522-63.769 63.936.355 35.085 30.266 63.001 65.351 62.616 81.24-.893 151.953-54.214 176.406-129.699-33.028-14.777-54.29-47.583-54.29-83.766z" fill="#18c08b"/><path d="M348.795 165.82a21.43 21.43 0 0 0-11.8-16.128L204.397 88.186a21.286 21.286 0 0 0-16.377-1.01 21.293 21.293 0 0 0-12.291 10.866c-2.512 5.144-2.871 10.96-1.01 16.375s5.721 9.78 10.866 12.293l122.45 56.55 13.713 72.196 21.145 13.88 22.081-14.631z" fill="#ea5b70"/><path d="M483.531 217.971h-59.429c-22.389 0-40.538 18.15-40.538 40.538v205.452c0 22.389 18.15 40.538 40.538 40.538h41.618c10.97 0 20.085-8.455 20.909-19.394l17.811-244.593c.916-12.165-8.709-22.541-20.909-22.541z" fill="#b9f0ff"/><path d="M397.542 476.753V245.928c0-15.44 12.517-27.958 27.958-27.958H311.553c-12.201 0-21.825 10.376-20.909 22.542l17.811 244.593c.824 10.939 9.939 19.394 20.909 19.394h92.759c-13.848-1.667-24.581-13.449-24.581-27.746z" fill="#7ce3ff"/><g fill="#ff8e9e"><ellipse cx="115.414" cy="91.116" rx="29.355" ry="23.377"/><ellipse cx="274.528" cy="91.116" rx="29.355" ry="23.377"/></g><g fill="#fff"><path d="M241.703 69.214c0-17.239 13.975-31.214 31.213-31.214s31.214 13.975 31.214 31.214-13.975 11.214-31.214 11.214-31.213 6.024-31.213-11.214zM148.239 69.214c0-17.239-13.975-31.214-31.213-31.214-17.239 0-31.214 13.975-31.214 31.214s13.975 11.214 31.214 11.214c17.238-.001 31.213 6.024 31.213-11.214z"/></g><g><path d="M470.815 289.612h-73.273l-13.979 13.052v146.885l13.979 10.998h42.175c10.487 0 19.193-8.1 19.948-18.559z" fill="#fce3a0"/><path d="M397.542 289.612h-73.274l11.15 152.375c.755 10.459 9.461 18.559 19.948 18.559h42.175V289.612z" fill="#ffce71"/></g><g><path d="M123.718 59.96a7.251 7.251 0 1 0 14.502 0 7.251 7.251 0 0 0-14.502 0z"/><path d="M483.53 210.471H364.546l-8.352-45.881a28.933 28.933 0 0 0-15.908-21.638l-.135-.064-20.287-9.41c22.946-11.875 38.141-35.403 38.482-61.748.5-38.371-29.827-71.73-71.814-71.73H102.368C63.34 0 31.589 31.766 31.589 70.793s31.751 70.779 70.779 70.779h21.822v22.5c0 4.143 3.358 7.5 7.5 7.5s7.5-3.357 7.5-7.5v-22.5h2.5c4.142 0 7.5-3.357 7.5-7.5s-3.358-7.5-7.5-7.5h-39.322c-30.757 0-55.779-25.022-55.779-55.779s25.022-55.779 55.779-55.779h184.164c33.385 0 57.208 26.269 56.816 56.521-.325 25.009-17.71 46.815-42.333 53.2l-93.398-43.322c-14.177-6.883-31.501-1.259-38.627 13.339-6.935 14.2-1.31 31.56 13.304 38.697.048.023.097.047.146.069l68.308 31.546v152.673c0 18.662-2.901 37.079-8.623 54.74-23.85 73.622-91.908 123.659-169.394 124.511-32.025.209-57.424-24.981-57.729-55.2l-.002-.57c0-30.759 25.023-55.783 55.781-55.783l.947.004c37.199 0 67.462-30.37 67.462-67.7V194.072c0-4.143-3.358-7.5-7.5-7.5s-7.5 3.357-7.5 7.5v123.666c0 29.059-23.534 52.7-52.462 52.7l-.947-.004C31.752 370.435 0 402.188 0 441.218l.004.731C.405 481.638 34.333 512 72.937 512c41.239 0 80.616-13.727 113.879-38.361 32.971-24.418 57.031-57.801 69.58-96.537 6.206-19.156 9.353-39.129 9.353-59.363V171.992l35.639 16.459 4.298 22.63c-13.623 2.863-23.606 15.444-22.522 29.978l17.812 244.604C302.087 500.427 314.557 512 329.363 512H465.72c14.806 0 27.275-11.573 28.39-26.356l2.892-39.707a7.5 7.5 0 0 0-6.936-8.025c-4.115-.298-7.725 2.805-8.025 6.936l-2.89 39.688c-.526 6.985-6.426 12.458-13.431 12.458H329.363c-7.005 0-12.904-5.472-13.429-12.439-.125-1.718-17.851-244.853-17.851-245.642 0-7.412 6.042-13.441 13.469-13.441H483.53c7.726 0 14.029 6.546 13.429 14.498l-12.74 174.957a7.5 7.5 0 1 0 14.961 1.089l12.739-174.945c.054-.725.081-1.45.081-2.158 0-15.684-12.771-28.442-28.47-28.442zm-162.693 0-5.434-28.61a7.495 7.495 0 0 0-4.224-5.409l-122.368-56.513c-7.005-3.464-9.671-11.79-6.343-18.605 3.448-7.063 11.81-9.742 18.635-6.408l.137.065 132.523 61.47a13.937 13.937 0 0 1 7.611 10.458c.012.082.025.164.04.245l7.884 43.308h-28.461z"/><path d="M266.223 59.96a7.251 7.251 0 1 0-14.502 0 7.251 7.251 0 0 0 14.502 0zM324.268 282.111c-4.356 0-7.794 3.702-7.48 8.04l11.15 154.37c1.034 14.31 13.082 25.519 27.429 25.519h84.351c14.347 0 26.395-11.209 27.429-25.52l11.15-154.369c.315-4.346-3.133-8.04-7.48-8.04zm127.917 161.328c-.47 6.505-5.946 11.601-12.468 11.601h-84.351c-6.521 0-11.998-5.096-12.468-11.6l-10.569-146.329h130.425z"/></g></svg>