<svg height="512" width="512" xmlns="http://www.w3.org/2000/svg"><path d="M463.423 11.551c-32.731-12.272-69.198 4.308-81.469 37.033l-124.351 331.6 57.693 83.251h46.253L500.453 93.02c12.272-32.724-4.307-69.199-37.03-81.469z" fill="#70dcba"/><path d="M302.299 315.06v-54.064L222.641 48.582c-12.269-32.723-48.747-49.306-81.469-37.031-32.722 12.272-49.302 48.747-37.03 81.47L243.05 463.437c9.26 24.697 32.873 41.06 59.25 41.06 26.38 0 49.989-16.363 59.25-41.061a215.406 215.406 0 0 1-59.251-148.376z" fill="#30cd9c"/><path d="M237.5 419.526c0-32.516-14.645-61.608-37.697-81.048-8.171-6.891-8.73-19.297-1.172-26.855 8.827-8.827 2.612-23.956-9.871-23.956h-59.852l-52.217 55.211v161.619h98.536c14.923 0 29.155-6.593 38.569-18.172 14.82-18.229 23.704-41.475 23.704-66.799z" fill="#e8b5b1"/><path d="M87.189 421.33c-.552-33.212 14.177-62.998 37.616-82.798 8.191-6.919 8.818-19.329 1.236-26.911-8.827-8.827-2.61-23.954 9.873-23.954H56.24c-12.483 0-18.7 15.127-9.873 23.954 7.582 7.582 6.955 19.992-1.236 26.911-23.439 19.8-38.169 49.586-37.616 82.798.411 24.724 9.371 47.39 24.005 65.222 9.401 11.456 23.559 17.945 38.378 17.945h60.089c-4.289-3.198-8.728-6.713-12.487-10.509-18.565-18.745-29.84-44.353-30.311-72.658z" fill="#d6948c"/><g><path d="M441.21 0c-29.339 0-55.975 18.469-66.278 45.95l-72.633 193.686-72.636-193.687C219.359 18.468 192.724 0 163.382 0c-49.11 0-83.625 49.362-66.264 95.655l69.193 184.512H56.24c-18.978 0-28.786 23.155-15.177 36.758 4.475 4.473 4.068 11.79-.772 15.878C14.686 354.434 0 386.044 0 419.528c0 13.697 2.432 27.477 7.628 40.854a7.5 7.5 0 0 0 13.982-5.432c-4.382-11.281-6.61-23.2-6.61-35.422 0-29.059 12.746-56.492 34.971-75.267a25.883 25.883 0 0 0 9.194-19.095h21.203c4.143 0 7.5-3.357 7.5-7.5s-3.357-7.5-7.5-7.5H54.842a26.022 26.022 0 0 0-3.173-3.851c-4.157-4.154-1.167-11.149 4.571-11.149h132.52c5.719 0 8.742 6.982 4.568 11.152a25.985 25.985 0 0 0-3.171 3.848h-25.528c-4.143 0-7.5 3.357-7.5 7.5s3.357 7.5 7.5 7.5h21.19a25.735 25.735 0 0 0 9.148 19.044c41.298 34.83 46.654 96.001 13.01 137.382-7.959 9.79-19.896 15.404-32.749 15.404H69.898c-12.777 0-24.652-5.541-32.585-15.208-.707-.86-1.4-1.735-2.08-2.622a7.5 7.5 0 0 0-11.909 9.121 111.448 111.448 0 0 0 2.396 3.021C36.511 504.457 52.613 512 69.898 512h105.33c29.68 0 48.533-20.104 60.318-47.209C246.904 495.068 274.15 512 302.299 512c29.34 0 55.973-18.46 66.272-45.931l124.047-330.796a7.5 7.5 0 0 0-14.045-5.267L354.526 460.803c-8.117 21.648-29.105 36.194-52.228 36.194-23.121 0-44.11-14.545-52.228-36.193l-7.245-19.321c8.028-40.572-6.581-82.083-38.188-108.739-4.773-4.026-5.192-11.33-.702-15.817 13.624-13.627 3.779-36.76-15.176-36.76h-6.428L111.163 90.388c-13.714-36.568 13.619-75.384 52.219-75.384 23.123 0 44.115 14.552 52.236 36.212l79.181 211.141v3.026c0 4.143 3.357 7.5 7.5 7.5s7.5-3.357 7.5-7.5v-3.026l79.178-211.14c8.121-21.66 29.112-36.213 52.233-36.213 38.649 0 65.924 38.843 52.221 75.382l-4.324 11.53a7.5 7.5 0 0 0 14.045 5.267l4.324-11.53A70.525 70.525 0 0 0 512 70.808C512 32.502 480.806 0 441.21 0z"/><path d="M253.086 286.259c-4.393 5.04-12.196 5.035-16.584 0a7.498 7.498 0 0 0-10.581-.728 7.5 7.5 0 0 0-.728 10.581c10.369 11.901 28.842 11.89 39.201 0 2.722-3.123 2.396-7.86-.728-10.581s-7.859-2.397-10.58.728zM368.093 286.258c-4.391 5.041-12.197 5.037-16.585 0a7.501 7.501 0 0 0-11.309 9.855c10.371 11.899 28.839 11.89 39.202 0a7.5 7.5 0 1 0-11.308-9.855zM313.859 294.422c-6.166 7.075-17.121 7.067-23.279 0a7.501 7.501 0 0 0-11.309 9.855c12.144 13.935 33.765 13.92 45.896 0a7.5 7.5 0 1 0-11.308-9.855z"/></g></svg>