<svg height="512" width="512" xmlns="http://www.w3.org/2000/svg"><path d="M159.507 141.16c-19.385-29.078-58.673-36.936-87.751-17.55s-36.936 58.673-17.55 87.751l64.971 97.457-64.972 97.458c-19.541 29.311-11.4 68.995 18.253 88.212 29.184 18.913 68.281 10.139 87.572-18.797l35.198-52.796V194.742z" fill="#30cd9c"/><path d="m271.279 308.818 64.971-97.457c19.385-29.078 11.528-68.365-17.55-87.751-29.078-19.385-68.365-11.528-87.751 17.55l-35.721 53.582c-46.053 69.079-46.053 159.073 0 228.152l35.198 52.796c19.291 28.937 58.388 37.71 87.572 18.797 29.653-19.217 37.793-58.901 18.253-88.212z" fill="#70dcba"/><g fill="#ff8e9e"><ellipse cx="135.169" cy="264.081" rx="24.941" ry="19.5"/><ellipse cx="255.288" cy="264.081" rx="24.941" ry="19.5"/></g><path d="M437.432 110.092c-19.883-46.98-56.495-82.645-99.894-96.395h-58.586v99.885H367.388l30 24.523c19.72 18.347 50.542-3.209 40.044-28.013z" fill="#ff8e9e"/><path d="M298.701 7.5c-43.92 0-87.303 43.731-87.303 106.083h67.555c0-15.032 3.26-29.354 7.958-42.31 9.69-26.717 27.628-47.692 50.627-57.576C323.837 9.356 309.26 7.5 298.701 7.5z" fill="#ea5b70"/><circle cx="423.222" cy="140.743" fill="#d4d4ff" transform="rotate(-50.64 423.448 140.765)" r="45.259"/><g><path d="M401.137 152.596c-20.505-47.859-64.022-79.144-112.467-85.884l-33.382 20.394v40.897l32.651 20.264c17.276 5.408 32.057 18.081 39.663 35.834 8.705 20.316 32.224 29.71 52.521 21.015 20.305-8.7 29.714-32.215 21.014-52.52z" fill="#efedff"/><path d="M288.67 66.711c-20.923-2.911-42.763-1.25-64.068 5.641-21.019 6.8-32.546 29.351-25.747 50.37 6.799 21.017 29.341 32.546 50.37 25.747 13.054-4.224 26.506-4.024 38.714-.203-21.349-22.632-21.184-59.178.731-81.555z" fill="#d4d4ff"/></g><g><path d="M435.835 89.531c-4.429-8.18-9.403-16.001-14.821-23.289a7.497 7.497 0 0 0-10.493-1.544 7.499 7.499 0 0 0-1.544 10.493 176.247 176.247 0 0 1 8.82 13.08c-11.264 1.189-21.817 6.035-30.09 13.548-6.175-26.706-22.63-48.856-23.484-49.993a7.496 7.496 0 0 0-10.494-1.489c-3.312 2.484-3.981 7.185-1.5 10.498.167.221 12.18 16.456 18.695 36.601-36.513-33.177-88.935-48.163-140.463-34.609C244.879 34.041 271.275 15 298.701 15c32.443 0 64.857 13.76 91.271 38.744a7.5 7.5 0 1 0 10.309-10.897C371.069 15.217 334.995 0 298.701 0c-18.563 0-37.538 7.184-53.432 20.228-15.525 12.742-27.346 30.132-34.331 50.41-13.353 8.712-21.537 23.684-21.537 39.767a47.489 47.489 0 0 0 25.118 41.877l-19.292 28.939-29.48-44.222c-21.684-32.526-65.625-41.316-98.152-19.631-32.69 21.793-41.216 65.772-19.63 98.151l62.198 93.297-27.445 41.168a7.5 7.5 0 0 0 2.08 10.4 7.498 7.498 0 0 0 10.4-2.08l27.991-41.987h1.987c4.143 0 7.5-3.357 7.5-7.5s-3.357-7.5-7.5-7.5h-1.986l-62.746-94.118c-16.99-25.486-10.325-60.154 15.47-77.351 25.685-17.124 60.297-10.11 77.352 15.471l34.461 51.692v3.73c0 4.143 3.357 7.5 7.5 7.5s7.5-3.357 7.5-7.5v-3.73l26.485-39.729a47.61 47.61 0 0 0 22.319-1.677c27.755-8.981 57.681 4.625 69.175 31.45a47.373 47.373 0 0 0 11.606 16.34c-1.644 2.964 2.802-3.854-65.049 97.922h-1.986c-4.143 0-7.5 3.357-7.5 7.5s3.357 7.5 7.5 7.5h1.987l62.745 94.117c24.497 36.749-1.699 86.564-45.908 86.564-19.07 0-36.804-9.521-47.437-25.471l-33.938-50.906v-3.729c0-4.143-3.357-7.5-7.5-7.5s-7.5 3.357-7.5 7.5v3.729l-33.938 50.906C143.158 487.478 125.426 497 106.355 497c-44.137 0-70.458-49.739-45.909-86.565l18.112-27.168a7.5 7.5 0 1 0-12.48-8.32l-18.112 27.168C16.803 448.858 50.228 512 106.355 512c24.098 0 46.496-12.02 59.916-32.151l28.957-43.436 28.957 43.436c13.421 20.132 35.819 32.15 59.917 32.15 56.257 0 89.47-63.258 58.389-109.885l-62.198-93.298c67.756-101.634 62.754-94.002 64.575-97.165a47.368 47.368 0 0 0 38.207.358c10.002-4.284 18.151-11.862 23.2-21.342 34.476 11.715 69.706-14.155 69.706-49.925a52.593 52.593 0 0 0-40.146-51.211zM377.17 198.222c-16.648 7.128-35.674-.737-42.675-17.074-14.569-34.004-52.501-51.163-87.577-39.814-21 6.791-42.516-8.946-42.516-30.929 0-13.807 8.818-26.489 22.507-30.916 66.709-21.571 139.495 11.087 167.334 76.062v.001c7.09 16.538-.66 35.639-17.073 42.67zm33.983-21.719a47.089 47.089 0 0 0-3.123-26.862 152.198 152.198 0 0 0-16.567-29.247c20.437-31.676 69.518-17.333 69.518 20.347 0 25.779-25.447 44.069-49.828 35.762z"/><path d="M155.279 248.454v-12c0-4.143-3.357-7.5-7.5-7.5s-7.5 3.357-7.5 7.5v12c0 4.143 3.357 7.5 7.5 7.5s7.5-3.357 7.5-7.5zM242.677 255.954c4.143 0 7.5-3.357 7.5-7.5v-12c0-4.143-3.357-7.5-7.5-7.5s-7.5 3.357-7.5 7.5v12c0 4.143 3.357 7.5 7.5 7.5zM213.383 253.928c2.722-3.123 2.396-7.86-.727-10.582s-7.86-2.396-10.582.727c-3.629 4.164-10.067 4.159-13.691 0a7.501 7.501 0 0 0-11.309 9.855c9.607 11.023 26.711 11.012 36.309 0z"/></g></svg>