<svg height="512" width="512" xmlns="http://www.w3.org/2000/svg"><path d="M302.548 326.096 266.5 312.681l-77.77 85.922c-5.334 5.893-4.714 14.442.45 19.605l10.628 10.628 7.184 7.184v-.01.01l3.445 3.445c5.158 5.158 13.707 5.79 19.606.45l85.922-77.77z" fill="#4c5699"/><path d="M442.375 7.5c-25.222 0-46.917 15.039-56.65 36.631C347.94 20.911 303.509 7.5 256 7.5L134.065 86.103V256c0-67.234 54.7-121.935 121.935-121.935S377.935 188.766 377.935 256c0 45.453-24.999 85.177-61.97 106.145-17.717 10.048-38.183 15.789-59.965 15.789-67.235 0-121.935-54.7-121.935-121.935v165.233L256 504.5c47.509 0 91.94-13.411 129.725-36.631 9.732 21.592 31.427 36.631 56.65 36.631 34.311 0 62.125-27.813 62.125-62.125V69.625c0-34.312-27.814-62.125-62.125-62.125z" fill="#55dafe"/><path d="M134.065 256c0-97.239 45.025-188.999 121.935-248.5C118.977 7.5 7.5 118.978 7.5 256S118.977 504.5 256 504.5C179.09 444.999 134.065 353.239 134.065 256z" fill="#1cbbea"/><g fill="#ff8e9e"><path d="M176.023 72.009c-16.308-.036-29.552 10.463-29.58 23.451-.028 12.987 13.169 23.544 29.477 23.58s29.552-10.463 29.58-23.45c.029-12.988-13.168-23.545-29.477-23.581zM336.079 72.359c-16.308-.036-29.552 10.464-29.58 23.451-.029 12.987 13.169 23.544 29.477 23.58s29.552-10.463 29.58-23.45c.029-12.988-13.168-23.545-29.477-23.581z"/></g><path d="M345.712 252.502v-39.514a49.94 49.94 0 0 1 17.428-16.883l33.59-19.482c8.879-5.15 13.901-14.397 14.061-23.963a8.031 8.031 0 0 1 5.395-7.446c3.799-1.322 7.975.373 9.816 3.949 23.702 46.011 27.624 79.431 16.653 103.338h-96.943z" fill="#1cbbea"/><path d="M413.482 282.904c-23.969 13.901-54.669 5.74-68.57-18.229-9.632-16.607-8.669-36.444.801-51.687a59.066 59.066 0 0 1 60.455-9.33c20.045 8.267 34.193 27.317 36.488 48.844-5.789 12.615-15.724 22.582-29.089 30.351l-.085.051z" fill="#ffce71"/><path d="m374.323 288.052-12.963-12.963h-.001l-20.764-20.765a10.484 10.484 0 0 0-13.838-.869c-30.302 23.507-35.126 24.626-60.704 49.815a6.29 6.29 0 0 0-.034 8.929l33.726 33.727 16.703 16.703a6.293 6.293 0 0 0 8.932-.037c25.186-25.576 26.306-30.4 49.812-60.701a10.488 10.488 0 0 0-.869-13.839z" fill="#d4d4ff"/><g><path d="M442.375 0c-24.523 0-47.107 12.974-59.607 33.658C344.236 11.614 300.582 0 256 0 114.841 0 0 114.841 0 256c0 70.691 28.918 137.259 79.887 185.636a7.498 7.498 0 0 0 10.603-.276 7.499 7.499 0 0 0-.276-10.603C41.711 384.721 15 322.658 15 256 15 123.112 123.112 15 256 15c43.09 0 85.256 11.525 122.225 33.367v3.264c0 4.143 3.357 7.5 7.5 7.5s7.5-3.357 7.5-7.5v-5.818C402.332 27.046 421.453 15 442.375 15 472.495 15 497 39.505 497 69.625v372.75c0 30.12-24.505 54.625-54.625 54.625-20.922 0-40.043-12.046-49.15-30.813v-5.818c0-4.143-3.357-7.5-7.5-7.5s-7.5 3.357-7.5 7.5v3.264C341.256 485.475 299.09 497 256 497c-52.109 0-101.745-16.434-143.539-47.524a7.5 7.5 0 1 0-8.953 12.035C147.909 494.541 200.641 512 256 512c44.582 0 88.236-11.614 126.768-33.658 12.5 20.685 35.084 33.658 59.607 33.658C480.767 512 512 480.767 512 442.375V69.625C512 31.233 480.767 0 442.375 0z"/><path d="M126.565 256.013c.006 71.366 58.076 129.422 129.435 129.422 20.78 0 41.302-5.034 59.646-14.587 5.416 2.303 11.219.921 15.076-2.995 25.643-26.042 26.868-31.042 50.395-61.366a18.084 18.084 0 0 0 3.701-9.449c30.176 1.745 71.173-23.905 71.173-73.118 0-22.148-7.629-47.725-23.321-78.188-7.412-14.396-29.106-9.303-29.378 6.804-.123 7.343-3.982 13.923-10.324 17.601-12.526 7.265-21.131 12.039-28.007 16.119-13.005-20.198-31.69-36.774-53.335-47.117a7.5 7.5 0 1 0-6.467 13.535c19.187 9.167 35.747 23.875 47.255 41.796-13.84 10.594-23.154 29.203-21.606 49.463-6.582.882-7.09 2.717-29.311 19.234-14.222 10.57-22.056 16.393-40.708 34.761-3.653 3.597-5.035 8.786-3.486 13.739l-45.246 49.99c-41.348-17.263-70.487-58.118-70.491-105.666.007-71.711 65.81-126.454 136.966-112.198a7.5 7.5 0 0 0 8.827-5.88 7.498 7.498 0 0 0-5.88-8.827c-80.509-16.136-154.907 45.818-154.914 126.927zm273.928-72.903c10.769-6.246 17.588-17.865 17.797-30.324.01-.544.759-.74 1.045-.188 10.966 21.287 21.801 48.006 21.644 71.872a66.813 66.813 0 0 0-1.734-2.771 7.498 7.498 0 0 0-10.396-2.104 7.498 7.498 0 0 0-2.104 10.396 52.537 52.537 0 0 1 8.172 21.265c-8.949 17.361-32.167 36.003-57.253 29.53-17.603-17.602-26.367-26.376-30.685-30.671-2.8-10.883-1.171-22.406 4.523-32.155 9.332-7.441 21.049-11.457 32.997-11.257 4.111.075 7.56-3.222 7.634-7.364a7.498 7.498 0 0 0-6.685-7.587c4.37-2.496 9.343-5.334 15.045-8.642zm-69.14 76.271a2.973 2.973 0 0 1 3.814.145c1.456 1.422 17.375 17.353 33.852 33.83l.002.001c.758.758.871 1.646.871 2.109 0 .465-.108 1.159-.626 1.826-23.208 29.913-24.464 34.8-48.378 59.168l-48.703-48.702c24.361-23.907 29.239-25.16 59.168-48.377zm-64.582 64.178 36.592 36.59c-23.016 10.486-49.768 13.385-75.785 6.711zM200.965 78.009v-12c0-4.143-3.357-7.5-7.5-7.5s-7.5 3.357-7.5 7.5v12c0 4.143 3.357 7.5 7.5 7.5s7.5-3.358 7.5-7.5zM318.362 85.509c4.143 0 7.5-3.357 7.5-7.5v-12c0-4.143-3.357-7.5-7.5-7.5s-7.5 3.357-7.5 7.5v12a7.5 7.5 0 0 0 7.5 7.5zM256.096 101.669c14.124 12.385 36.411 2.337 36.411-16.505 0-4.143-3.357-7.5-7.5-7.5s-7.5 3.357-7.5 7.5a6.963 6.963 0 0 1-6.955 6.956 6.963 6.963 0 0 1-6.956-6.956c0-4.143-3.357-7.5-7.5-7.5s-7.5 3.357-7.5 7.5a6.963 6.963 0 0 1-6.955 6.956 6.963 6.963 0 0 1-6.956-6.956c0-4.143-3.357-7.5-7.5-7.5s-7.5 3.357-7.5 7.5c0 18.831 22.278 28.9 36.411 16.505z"/></g></svg>