<svg height="512" width="512" xmlns="http://www.w3.org/2000/svg"><path d="m256 7.5-85.733 62.125L256 131.75c45.895 0 86.055 25.016 107.57 62.125h-60.852l-10 8.694h-73.437l-10-8.694H69.625v124.25h372.75c34.311 0 62.125-27.813 62.125-62.125C504.5 118.976 393.024 7.5 256 7.5z" fill="#ff8e9e"/><path d="M256 7.5C118.976 7.5 7.5 118.976 7.5 256S118.976 504.5 256 504.5c53.064 0 103.705-16.502 146.449-47.722 27.705-20.236 33.762-59.104 13.523-86.811-20.23-27.699-59.094-33.759-86.811-13.523C307.839 372.017 282.54 380.25 256 380.25c-68.51 0-124.25-55.74-124.25-124.25S187.49 131.75 256 131.75c-16.802-16.802-25.722-38.713-25.722-60.735 0-25.976 8.213-46.006 25.722-63.515z" fill="#ea5b70"/><ellipse cx="116.444" cy="269.171" fill="#ffdbe0" rx="29.355" ry="23.377"/><ellipse cx="395.557" cy="269.171" fill="#ffdbe0" rx="29.355" ry="23.377"/><path d="M290.965 211.27c-6.451-13.111-19.691-21.805-34.965-21.927-15.249.122-28.503 8.796-34.965 21.927l-6.622 13.459 26.918 13.244 6.622-13.459c1.522-3.094 4.602-5.245 8.047-5.245s6.524 2.151 8.047 5.245l6.622 13.459 26.918-13.244z" fill="#ffb357"/><g><path d="M214.951 180.425c-22.398-9.479-61.502-8.352-80.889 11.256-10.066 10.182-14.555 25.118-12.313 40.979 2.429 17.187 11.966 31.974 25.509 39.553 18.036 10.097 47.014 9.293 63.996 1.517 15.515-7.103 25.687-21.996 30.076-35.755 8.165-25.589-6.041-48.942-26.379-57.55z" fill="#ffb357"/><path d="M203.259 208.053c-12.972-5.49-38.681-4.565-47.862 4.719-8.18 8.273-3.602 27.601 6.516 33.263 9.107 5.098 28.049 4.448 36.854.416 8.344-3.82 14.008-14.724 14.91-22.007.766-6.169-3.861-13.616-10.418-16.391z" fill="#4c5699"/><g><path d="M300.742 273.727c-15.518-7.104-25.686-21.991-30.073-35.753-8.188-25.687 6.173-48.996 26.38-57.549 22.437-9.495 61.511-8.343 80.888 11.255 10.067 10.183 14.556 25.119 12.313 40.979-2.429 17.187-11.966 31.974-25.511 39.555-18.07 10.115-47.047 9.275-63.997 1.513z" fill="#ffce71"/><path d="M308.742 208.053c12.972-5.49 38.681-4.565 47.862 4.719 8.18 8.273 3.602 27.601-6.516 33.263-9.107 5.098-28.049 4.448-36.854.416-8.344-3.82-14.008-14.724-14.91-22.007-.766-6.169 3.86-13.616 10.418-16.391z" fill="#676fb2"/></g></g><g><path d="M252.032 0C120.01 0-.158 111.291 0 256.285c.068 62.479 22.985 122.664 64.527 169.47a7.5 7.5 0 0 0 11.219-9.957C36.638 371.735 15.065 315.08 15 256.27 14.858 125.744 120.869 17.531 251.317 15.045 386.27 12.417 497.285 121.374 497 256.517c-.063 29.835-24.567 54.108-54.624 54.108H142.568c-4.143 0-7.5 3.357-7.5 7.5s3.357 7.5 7.5 7.5h1.625c40.285 64.45 127.338 82.202 189.391 36.876 24.327-17.763 58.57-12.431 76.332 11.89 17.807 24.377 12.492 58.521-11.89 76.33C356.574 480.997 307.463 497 256 497c-58.856.001-115.567-21.537-159.687-60.646a7.499 7.499 0 0 0-10.587.638 7.499 7.499 0 0 0 .638 10.587C133.23 489.123 193.474 512.001 256 512c54.665 0 106.836-17.001 150.873-49.166 31.073-22.699 37.856-66.214 15.155-97.291-22.639-30.996-66.281-37.795-97.292-15.156-51.475 37.601-123.954 26.728-162.387-24.762h280.025c38.311 0 69.544-30.988 69.624-69.077C512.292 118.374 401.919 0 252.032 0z"/><path d="M293.257 145.346a7.5 7.5 0 0 0 4.801-14.211c-49.565-16.74-106.589-2.831-142.724 39.983-58.003 17.729-49.333 86.599-11.739 107.638 19.84 11.106 51.251 10.735 70.782 1.792 15.395-7.048 28.014-21.85 33.882-39.667 6.702-13.621 6.645-14.112 7.741-14.112 1.099 0 1.047.507 7.744 14.118 5.863 17.813 18.48 32.61 33.876 39.658 19.471 8.916 50.89 9.347 70.782-1.787 37.587-21.037 46.271-89.934-11.768-107.656-8.633-10.221-18.69-19.057-29.963-26.25a7.499 7.499 0 0 0-10.356 2.288 7.498 7.498 0 0 0 2.288 10.356 117.543 117.543 0 0 1 13.06 9.694c-20.657-.563-41.706 4.125-55.921 19.138-12.18-5.747-26.382-6.177-39.475-.004-14.316-15.111-35.477-19.688-55.974-19.128 31.805-27.205 74.922-34.699 112.964-21.85zm6.715 41.986c13.194-5.584 33.143-7.033 49.969-2.566.316.108.64.189.967.254 46.542 13.085 36.752 65.771 10.169 80.648-15.746 8.814-42.186 8.119-57.212 1.238-16.589-7.593-28.036-27.288-28.036-43.646-.001-16.107 10.278-30.06 24.143-35.928zm-33.166 11.497a52.84 52.84 0 0 0-4.957 14.083c-3.814-1.521-7.87-1.525-11.691-.002a52.81 52.81 0 0 0-4.953-14.084c6.811-2.532 14.316-2.707 21.601.003zm-54.777-11.497c13.784 5.834 24.146 19.688 24.146 35.918 0 16.148-11.263 35.977-28.042 43.659-15.037 6.885-41.473 7.568-57.211-1.242-26.622-14.898-36.372-67.559 10.168-80.641.325-.065.646-.146.961-.253 16.882-4.483 36.837-3.002 49.978 2.559z"/><path d="M143.686 224.717c0 11.605 5.989 23.063 14.563 27.862 11.211 6.277 32.619 5.739 43.64.691 12.167-5.57 19.372-21.171 19.372-30.188 0-9.014-6.342-18.239-15.079-21.937-16.509-6.986-62.496-7.974-62.496 23.572zm17.044-6.671c6.414-6.488 28.684-7.709 39.606-3.086 3.734 1.58 6.22 6.01 5.898 8.563-.618 4.985-4.946 13.525-10.591 16.11-6.934 3.175-23.36 3.611-30.067-.142-6.185-3.462-9.178-17.064-4.846-21.445zM310.111 253.27c10.98 5.03 32.391 5.608 43.64-.689 8.575-4.801 14.564-16.258 14.564-27.863 0-31.455-45.894-30.597-62.496-23.571-8.737 3.697-15.079 12.923-15.079 21.937 0 8.984 7.18 24.605 19.371 30.186zm1.553-38.31c11.097-4.697 33.288-3.306 39.605 3.085 4.339 4.388 1.329 17.99-4.847 21.446-6.695 3.747-23.118 3.324-30.067.141-6.3-2.885-10.616-12.945-10.616-16.55.001-2.656 2.433-6.644 5.925-8.122zM266.81 278.384c-5.724 6.568-15.9 6.562-21.619 0a7.5 7.5 0 1 0-11.309 9.853c11.7 13.429 32.545 13.418 44.236 0a7.498 7.498 0 0 0-.728-10.581 7.497 7.497 0 0 0-10.58.728z"/></g></svg>