<svg height="512" width="512" xmlns="http://www.w3.org/2000/svg"><path d="M137.959 215.029c-43.381 46.446-33.179 82.272-23.236 99.494l46.019-26.569c-9.263-16.043 25.892-53.681 78.519-84.065v-60.072c-38.5 18.56-76.63 44.798-101.302 71.212z" fill="#ffb357"/><path d="M299.558 121.73c-18.856 4.37-39.63 12.125-60.296 22.088v60.072c52.627-30.384 102.799-42.01 112.062-25.967l46.019-26.569c-9.944-17.222-35.87-43.971-97.785-29.624z" fill="#ffce71"/><path d="M337.851 380.25h-18.637V69.628A62.122 62.122 0 0 0 298.256 23.1h-71.167v428.784l70.012 52.372h46.089c31.809-2.71 56.786-29.37 56.786-61.881 0-34.311-27.814-62.125-62.125-62.125z" fill="#b28ae4"/><path d="M257.089 411.884V100.102c0-32.109 16.347-60.393 41.167-77.002a62.004 62.004 0 0 0-17.755-11.016c-23.415-9.528-50.255-3.919-67.891 14.175l-80.762 82.831c-23.955 24.565-23.458 63.896 1.11 87.851 16.941 16.523 40.912 21.413 62.006 14.794V380.25h-18.638c-34.311 0-62.125 27.813-62.125 62.125 0 34.311 27.813 62.125 62.125 62.125H337.85c1.8 0 3.578-.094 5.339-.244-48.108-3.338-86.1-43.415-86.1-92.372z" fill="#976bcf"/><g fill="#ff8e9e"><path d="M155.647 135.957c-13.011 0-23.558 8.399-23.558 18.761 0 10.361 10.547 18.761 23.558 18.761s23.559-8.399 23.559-18.761-10.548-18.761-23.559-18.761zM278.53 135.957c-13.011 0-23.558 8.399-23.558 18.761 0 10.361 10.547 18.761 23.558 18.761s23.559-8.399 23.559-18.761-10.547-18.761-23.559-18.761z"/></g><g><path d="M257.089 270.55c-46.561 23.874-88.013 31.839-96.347 17.404h-46.019v26.569c9.943 17.222 35.869 43.971 97.783 29.625 14.074-3.261 29.215-8.405 44.583-14.946-15.457-16.495-15.457-42.156 0-58.652z" fill="#ffb357"/><path d="M397.342 151.354h-46.019v26.569c9.263 16.043-25.892 53.681-78.519 84.065a359.672 359.672 0 0 1-15.715 8.563c-15.458 16.495-15.458 42.157 0 58.652 43.583-18.55 88.985-48.343 117.017-78.353 43.381-46.448 33.179-82.274 23.236-99.496z" fill="#ffce71"/></g><g><ellipse cx="217.54" cy="155.344" fill="#4c5699" rx="16.423" ry="18.377"/></g><g><path d="M217.361 181.22c13.19 0 23.922-11.608 23.922-25.877s-10.731-25.876-23.922-25.876-23.923 11.608-23.923 25.876 10.732 25.877 23.923 25.877zm0-36.753c4.92 0 8.922 4.879 8.922 10.876 0 5.998-4.002 10.877-8.922 10.877s-8.923-4.879-8.923-10.877c0-5.997 4.003-10.876 8.923-10.876zM148.48 151.849a7.5 7.5 0 0 0 7.5-7.5 6.272 6.272 0 0 1 6.265-6.265 6.273 6.273 0 0 1 6.266 6.265c0 4.142 3.357 7.5 7.5 7.5s7.5-3.358 7.5-7.5c0-11.726-9.54-21.265-21.266-21.265s-21.265 9.54-21.265 21.265a7.5 7.5 0 0 0 7.5 7.5zM265.025 144.349a6.272 6.272 0 0 1 6.265-6.265 6.273 6.273 0 0 1 6.266 6.265c0 4.142 3.357 7.5 7.5 7.5s7.5-3.358 7.5-7.5c0-11.726-9.54-21.265-21.266-21.265s-21.265 9.54-21.265 21.265c0 4.142 3.357 7.5 7.5 7.5s7.5-3.358 7.5-7.5z"/><path d="M403.658 147.604c-8.786-15.216-30.265-39.426-77.123-37.305v-40.67C326.535 31.127 295.257 0 256.919 0c-18.663 0-36.837 7.663-49.858 21.023L149.24 80.326a7.5 7.5 0 0 0 10.74 10.472l57.822-59.304C228.018 21.012 242.275 15 256.919 15c30.158 0 54.616 24.485 54.616 54.628v156.604c-29.632 24.41-73.621 48.728-109.249 57.936v-69.326l1.804-1.804a7.5 7.5 0 0 0-10.607-10.606l-2.646 2.647c-18.16 5.057-38.365.591-52.82-13.507-20.062-19.561-24.257-53.374 1.02-79.293a7.499 7.499 0 0 0-.133-10.606 7.499 7.499 0 0 0-10.605.133c-33.5 34.352-25.885 82.067 5.841 106.164-30.486 31.779-48.195 72.016-26.088 110.303 14.332 24.825 38.564 37.352 70.753 37.35 2.768 0 5.599-.099 8.483-.285v17.412H176.15c-38.392 0-69.625 31.233-69.625 69.625S137.756 512 176.148 512h161.523c16.51 0 32.736-5.79 45.782-17.18a7.501 7.501 0 0 0-9.865-11.3c-10.224 8.926-22.952 13.48-35.917 13.48H176.148c-30.12 0-54.625-24.504-54.625-54.625s24.505-54.625 54.625-54.625h15.531l1.803 1.803a7.5 7.5 0 0 0 10.607-10.606l-1.804-1.804v-23.526c36.911-5.971 77.444-24.839 109.249-44.222v67.748l-1.804 1.804a7.5 7.5 0 0 0 10.607 10.606l1.803-1.803h15.53c30.12 0 54.625 24.504 54.625 54.625 0 6.827-1.241 13.48-3.689 19.776a7.5 7.5 0 0 0 13.98 5.436c3.125-8.036 4.709-16.519 4.709-25.212 0-38.391-31.233-69.625-69.625-69.625h-11.137v-72.949c55.278-37.087 110.569-94.272 77.125-152.197zm-77.123 30.91c12.001-1.158 17.031 1.283 18.114 3.159 2.035 3.524-1.742 14.508-18.114 30.989zM167.058 284.205c-2.296-3.977 2.986-16.224 20.228-33.051v35.979c-13.479 1.673-19.055-.898-20.228-2.928zm-46.018 26.568c-8.906-15.425-17.861-47.709 22.221-90.624a194.36 194.36 0 0 1 4.115-4.265c12.621 5.733 26.555 7.468 39.911 5.311v9.68c-18.264 15.589-43.99 42.174-33.218 60.831 27.264 47.216 230.857-70.271 203.571-117.532-4.854-8.404-15.309-11.979-31.104-10.707V125.31c37.439-1.936 55.512 14.862 64.133 29.795 29.048 50.314-27.473 102.893-75.826 134.457-58.145 38.129-159.168 81.206-193.803 21.211zM441.51 163.044c-2.25-10.453-6.244-20.695-11.872-30.441-3.734-6.468-10.381-16.119-20.836-25.362a7.501 7.501 0 0 0-9.936 11.238c8.941 7.904 14.604 16.122 17.781 21.624 4.846 8.393 8.277 17.174 10.198 26.099a7.503 7.503 0 0 0 8.91 5.754 7.501 7.501 0 0 0 5.755-8.912z"/><path d="M113.109 358.232a7.5 7.5 0 0 0-.538-10.593c-6.778-6.123-12.671-13.48-17.513-21.868-3.196-5.535-7.507-14.573-9.891-26.196a7.5 7.5 0 0 0-14.694 3.014c2.787 13.591 7.843 24.187 11.594 30.683 5.626 9.745 12.506 18.324 20.448 25.498a7.5 7.5 0 0 0 10.594-.538z"/></g></svg>