<svg height="512" width="512" xmlns="http://www.w3.org/2000/svg"><path d="M437.826 204.982a12.91 12.91 0 0 0 0-14.414c-9.262-13.747-24.971-22.793-42.801-22.793-4.797 0-9.44.655-13.845 1.879-11.971 3.328-22.186 10.865-28.956 20.914a12.91 12.91 0 0 0 0 14.414c9.262 13.747 24.971 22.793 42.801 22.793s33.539-9.046 42.801-22.793z" fill="#ff8f71"/><path d="m267.854 112.508 80.874 80.874a13.563 13.563 0 0 0 1.696 1.442c6.298 4.512 14.969 2.251 20.436-3.215l6.146-6.146c30.719-30.719 39.946-74.924 23.941-113.266l-52.661-52.661-81.11 81.11z" fill="#ffb39d"/><path d="m280.646 101.396 6.146-6.146c30.723-30.723 76.148-38.725 114.155-23.052-5.135-12.3-12.859-23.998-23.313-34.452-40.904-40.906-107.137-39.952-147.717.628l-6.146 6.146c-5.976 5.976-8.121 15.783-1.772 22.132l56.876 56.876c-6.35-6.349-4.205-16.156 1.771-22.132z" fill="#ff8f71"/><path d="M294.78 393.125H127.718V504.5h167.063c30.756 0 55.688-24.932 55.688-55.688-.001-30.755-24.933-55.687-55.689-55.687z" fill="#1cbbea"/><path d="M322.665 281.704c18.188-24.249 27.803-53.118 27.803-83.485C350.468 121.453 288.015 59 211.249 59l-85.412 56.15 87.427 55.294c14.733 1.012 25.915 13.178 25.829 27.946a27.543 27.543 0 0 1-5.525 16.485L83.168 415.4a55.691 55.691 0 0 0-5.259 58.317 55.69 55.69 0 0 0 49.809 30.783h111.378c-34.418 0-54.064-39.293-33.413-66.827z" fill="#55dafe"/><path d="M188.583 115.15A77.43 77.43 0 0 1 211.249 59c-49.531 0-95.724 26.65-120.546 69.55-15.404 26.62-6.311 60.685 20.309 76.089 26.615 15.404 60.685 6.314 76.089-20.309 5.393-9.316 15.3-14.631 26.163-13.885a77.43 77.43 0 0 1-24.681-55.295z" fill="#1cbbea"/><path d="M350.424 288.805a14.173 14.173 0 0 0 15.825 0c15.092-10.169 25.024-27.415 25.024-46.99s-9.932-36.822-25.024-46.99a14.173 14.173 0 0 0-15.825 0c-15.092 10.169-25.024 27.415-25.024 46.99s9.931 36.822 25.024 46.99z" fill="#ffb39d"/><g><ellipse cx="293.263" cy="163.506" fill="#ff8e9e" rx="29.756" ry="23.696"/><ellipse cx="131.978" cy="163.646" fill="#ff8e9e" rx="29.756" ry="23.696"/></g><g><path d="M339.307 483.086a7.5 7.5 0 0 0-10.606-.047c-9.083 9.002-21.13 13.96-33.92 13.96H127.718c-39.228 0-62.47-45.206-38.55-77.1l150.399-200.523c4.605-6.14 7.04-13.42 7.04-21.052 0-36.537-48.012-48.82-65.998-17.751-13.115 22.664-42.493 31.087-65.841 17.574-22.651-13.107-31.093-42.484-17.574-65.842a131.299 131.299 0 0 1 20.024-26.284c2.905-2.953 2.866-7.702-.087-10.606s-7.701-2.867-10.606.087a146.266 146.266 0 0 0-22.313 29.29c-17.713 30.609-6.673 69.142 23.043 86.337 30.606 17.715 69.143 6.673 86.337-23.042 10.244-17.694 38.016-11.169 38.016 10.237 0 4.361-1.396 8.528-4.04 12.052L77.168 410.9C45.987 452.474 75.727 512 127.718 512H294.78c16.772 0 32.568-6.501 44.479-18.307a7.5 7.5 0 0 0 .048-10.607z"/><path d="M142.29 121.308h-.006a7.5 7.5 0 0 0-7.494 7.505l.009 11.876a7.5 7.5 0 0 0 7.5 7.495h.006a7.5 7.5 0 0 0 7.494-7.505l-.009-11.876a7.5 7.5 0 0 0-7.5-7.495zM294.939 124.835a7.501 7.501 0 0 0-10.988-10.202c-2.283.906-10.136.011-16.487-1.903a7.5 7.5 0 0 0-5.748 13.774 7.479 7.479 0 0 0-.324 2.186l.01 11.876a7.5 7.5 0 0 0 7.5 7.494h.006a7.5 7.5 0 0 0 7.494-7.506l-.009-10.765c1.333.123 2.684.197 4.027.197 5.63-.001 11.117-1.249 14.519-5.151zM166.293 115.19a7.499 7.499 0 0 0-1.873-10.439c-7.561-5.262-24.465-11.675-34.322 1.709a7.5 7.5 0 0 0 12.078 8.894c3.626-4.92 13.534 1.613 13.703 1.727a7.499 7.499 0 0 0 10.414-1.891zM196.3 151.87h.131c7.67 0 23.414-.028 35.519-4.976a7.499 7.499 0 0 0 4.104-9.78 7.499 7.499 0 0 0-9.78-4.104c-9.445 3.862-23.842 3.9-29.973 3.861h-.118c-4.143 0-7.5 3.358-7.5 7.5s3.357 7.5 7.5 7.5h.117z"/><path d="M444.045 186.377c-9.317-13.829-23.869-22.94-40.05-25.418 21.102-41.556 15.117-92.34-21.056-128.516C361.472 10.976 332.9 0 304.984 0c-29.026 0-58.184 10.884-80.372 33.071-6.107 6.107-11.104 10.086-13.213 18.431-28.522-.035-56.368 8.252-80.471 24.014a7.501 7.501 0 0 0 8.209 12.554c86.125-56.321 198.288 3.994 203.631 103.044-23.346 18.082-31.219 49.576-19.49 76.409-4.374 7.044 1.305-.87-99.84 133.976a7.5 7.5 0 0 0 12 9l7.407-9.875h51.935c31.249 0 54.522 29.549 46.685 60.182-1.212 4.732 2.361 9.362 7.271 9.362a7.503 7.503 0 0 0 7.261-5.642c10.284-40.161-20.25-78.901-61.216-78.901h-40.684c81.139-108.182 75.253-100.252 77.771-103.884a64.454 64.454 0 0 0 14.365 13.284c7.352 4.954 16.853 4.955 24.206 0 19.58-13.191 30.449-36.056 27.986-59.851 18.378-1.053 35.246-10.602 45.621-26.001a20.313 20.313 0 0 0-.001-22.796zM227.133 52.361c1.085-1.858 1.46-2.058 8.086-8.684 37.976-37.976 99.483-38.257 137.111-.628 40.031 40.033 36.945 99.544-.629 137.111l-6.031 6.031a21.522 21.522 0 0 0-8.31-1.266C351.103 115.3 296.13 59.793 227.133 52.361zm134.924 230.224a6.632 6.632 0 0 1-7.442 0c-12.997-8.756-21.715-23.699-21.715-40.77 0-25.463 19.769-41.916 25.449-41.916 1.472 0 2.708.455 3.862 1.252h-.001c28.868 19.611 28.651 62.028-.153 81.434zm69.549-81.794c-8.214 12.192-21.877 19.473-36.552 19.483a64.053 64.053 0 0 0-16.8-25.452c4.879-4.879 10.493-10.199 17.095-19.537a44.053 44.053 0 0 1 36.257 19.474 5.377 5.377 0 0 1 0 6.032z"/></g></svg>