<svg height="512" width="512" xmlns="http://www.w3.org/2000/svg"><path d="M388.411 206.807c0-31.259-10.66-60.076-28.538-83.01C335.08 91.992 296.406 71.5 253.035 71.5l1.301 100.305c23.45-.304 38.662 23.631 30.169 44.773l-28.663 71.35 28.815 72.912c7.914 20.027-5.328 42.821-27.293 44.47l1.284 99.047c71.997-2.955 129.659-62.454 129.659-135.182 0-30.412-10.085-58.51-27.082-81.131 17.06-22.638 27.186-50.777 27.186-81.237z" fill="#70dcba"/><path d="M258.511 287.991c56.121-62.106 53.713-157.302-5.476-216.491-29.427 0-57.421 9.284-80.957 26.85-23.956 17.878-28.882 51.789-11.004 75.745s51.795 28.885 75.746 11.004a26.91 26.91 0 0 1 16.216-5.354c14.96 0 27.13 12.141 27.13 27.061 0 14.921-12.169 27.061-27.13 27.061-29.892 0-54.123 24.231-54.123 54.123s24.231 54.123 54.123 54.123c14.902 0 27.027 12.141 27.027 27.061s-12.125 27.061-27.027 27.061c-9.765 0-18.528-5.069-23.441-13.562-14.963-25.872-48.066-34.725-73.949-19.752-25.875 14.963-34.717 48.071-19.751 73.948 24.12 41.705 69.007 67.611 117.141 67.611 1.881 0 3.751-.049 5.613-.125 59.647-59.796 59.603-156.624-.138-216.364z" fill="#18c08b"/><path d="M343.645 58.65c-4.859-19.742-19.677-35.491-39.053-41.507l-7.734-2.401h-53.92v72.883c4.452-.21 8.98-.294 13.591-.244 36.605-.4 80.151 19.35 103.345 36.417-2.003-8.132-14.902-59.756-16.229-65.148z" fill="#ff8e9e"/><path d="M273.369 10.092c-5.808-1.15-11.51-2.617-17.362-2.592a57.693 57.693 0 0 0-17.362 2.592l-30.18 7.051c-19.376 6.016-34.194 21.765-39.053 41.507l-16.037 65.147c24.729-18.453 57.301-34.65 89.563-36.172l7.132-28.974c4.858-19.742 19.677-35.491 39.053-41.507l7.734-2.401z" fill="#ea5b70"/><path d="M168.728 44.534c-59.514 5.048-55.384 63.914-15.353 79.263 31.889-17.484 65.888-25.798 103.345-25.419 37.47-.364 71.263 7.935 103.153 25.419C326.497 88.8 244.647 38.095 168.728 44.534z" fill="#676fb2"/><g><path d="M227.562 279.5v12c0 4.142 3.357 7.5 7.5 7.5s7.5-3.358 7.5-7.5v-12c0-4.142-3.357-7.5-7.5-7.5s-7.5 3.358-7.5 7.5zM335.459 291.5v-12c0-4.142-3.357-7.5-7.5-7.5s-7.5 3.358-7.5 7.5v12c0 4.142 3.357 7.5 7.5 7.5s7.5-3.358 7.5-7.5zM302.902 285.488a7.5 7.5 0 0 0-10.581.727c-2.729 3.132-6.669 4.928-10.81 4.928s-8.081-1.796-10.81-4.928a7.5 7.5 0 0 0-11.309 9.855c5.578 6.402 13.64 10.073 22.118 10.073s16.54-3.671 22.118-10.073a7.499 7.499 0 0 0-.726-10.582z"/><path d="M366.78 120.486c-1.277-5.161-4.302-17.291-7.381-29.635a7.497 7.497 0 0 0-9.093-5.461 7.5 7.5 0 0 0-5.462 9.092l1.759 7.051c-35.799-29.189-95.926-62.402-157.101-64.9 5.814-6.138 12.941-10.411 20.641-12.18.422-.097 30.835-7.07 31.246-7.198 9.712-3.014 20.555-3.018 30.277 0l30.7 9.532c17.952 5.574 30.025 17.527 33.998 33.664l1.204 4.851a7.502 7.502 0 0 0 7.272 5.691 7.5 7.5 0 0 0 7.284-9.313l-1.198-4.822c-5.275-21.435-20.941-37.202-44.112-44.396l-30.7-9.532A65.15 65.15 0 0 0 256.774 0c-6.542 0-12.84.792-19.554 2.844l-30.435 6.99c-14.681 3.371-27.707 13.154-36.299 27.084-30.223 2.475-50.25 17.026-53.891 39.443-3.265 20.106 8.45 41.199 27.806 51.562-12.773 55.608 50.995 97.454 96.902 63.188 12.759-9.518 31.361-.478 31.361 15.696 0 10.786-8.806 19.561-19.63 19.561-33.979 0-61.624 27.644-61.624 61.623s27.645 61.623 61.624 61.623c10.767 0 19.526 8.775 19.526 19.562 0 19.936-26.471 27.04-36.476 9.744-13.913-24.057-42.536-35.979-69.509-28.625a7.5 7.5 0 1 0 3.945 14.471c20.475-5.582 42.1 3.544 52.579 21.664 17.626 30.472 64.46 18.01 64.46-17.254 0-19.057-15.488-34.562-34.526-34.562-25.709 0-46.624-20.915-46.624-46.623s20.915-46.623 46.624-46.623c19.095 0 34.63-15.504 34.63-34.561 0-28.46-32.68-44.613-55.332-27.718-35.865 26.77-84.779-7.603-72.725-50.104 29.969-15.885 61.766-23.448 97.035-23.108h.149c35.708-.338 67.787 7.441 98.085 23.762 34.055 44.755 34.574 105.78 2.514 150.909a7.498 7.498 0 0 0-.007 14.994c58.899 83.16.672 201.441-104.351 201.441-45.468 0-87.865-24.472-110.649-63.866-10.279-17.771-7.747-40.175 6.273-55.175a7.501 7.501 0 0 0-10.959-10.244c-18.602 19.903-21.835 49.525-8.299 72.928C154.856 484.64 202.23 512 253.035 512c38.722 0 75.623-15.575 102.847-43.869 47.499-49.366 52.999-124.709 14.598-180.08 34.908-50.188 34.172-117.857-3.7-167.565zm-213.773-5.007c-14.776-7.085-23.938-22.345-21.604-36.714 6.969-42.922 104.981-34.762 185.794 19.636-46.792-12.772-109.968-11.522-164.19 17.078z"/></g></svg>