<svg height="512" width="512" xmlns="http://www.w3.org/2000/svg"><path d="M393.468 57.115C361.297 25.12 318.467 7.5 272.868 7.5l-78.121 24.833v126.258l18.546 18.546c.281-51.746 64.23-78.587 101.807-41.218 21.74 21.621 56.89 21.602 78.589-.217 21.605-21.728 21.506-56.982-.221-78.587zM393.687 219.259c-21.704-21.824-56.851-21.834-78.587-.219-36.849 36.645-99.414 11.568-101.741-38.666l-18.612 18.613v103.321l85.044 45.044c41.32-1.657 82.15-18.151 113.677-49.504 21.778-21.658 21.88-56.809.219-78.589z" fill="#70dcba"/><path d="m213.312 178.872-.007-.35c-.006-.341-.02-.679-.02-1.022 0-.122.006-.241.007-.363-.862-60.02 18.911-120.361 59.576-169.637-95.588 0-170.761 77.213-170.75 170 .009 74.888 48.925 139.559 118.192 161.789l-2.646 15.994c-35.806 5.363-63.826 36.215-63.826 74.193 0 41.902 34.102 75.027 74.879 75.025a75.477 75.477 0 0 0 23.04-3.617c15.778-5.056 24.471-21.945 19.416-37.723-5.056-15.779-21.947-24.47-37.723-19.416-9.856 3.155-19.611-4.223-19.611-14.27 0-10.155 9.883-17.387 19.611-14.27 17.799 5.704 36.122-6.077 39.154-24.4l7.189-43.454c-42.616-47.555-64.828-107.004-66.432-166.978-.025-.497-.037-.999-.049-1.501z" fill="#18c08b"/><g fill="#ff8e9e"><ellipse cx="183.045" cy="103.68" rx="30.834" ry="24.555"/><ellipse cx="350.175" cy="103.68" rx="30.834" ry="24.555"/></g><g><path d="M161.338 429.475c0-33.164 24.692-61.872 57.437-66.775a7.5 7.5 0 0 0 6.289-6.193l1.267-7.66a7.49 7.49 0 0 0 1.584.186 7.5 7.5 0 0 0 1.947-14.743c-70.902-19.104-120.236-82.948-120.244-156.79 0-89.603 73.234-162.5 163.25-162.5 22.6 0 44.415 4.454 64.839 13.237a7.498 7.498 0 0 0 9.853-3.927 7.5 7.5 0 0 0-3.927-9.853C321.326 4.864 297.517 0 272.868 0 173.4 0 94.618 80.147 94.618 177.501c.009 76.32 48.465 141.999 117.256 166.83l-.75 4.536c-37.204 8.176-64.785 41.236-64.785 80.608 0 13.703 3.415 27.259 9.875 39.203a7.5 7.5 0 0 0 10.165 3.028 7.499 7.499 0 0 0 3.029-10.165c-5.28-9.759-8.07-20.847-8.07-32.066z"/><path d="M231.161 422.347c21.927 7.027 44.992-7.05 48.841-30.318l6.211-37.545c42.522-3.152 82.288-21.23 112.543-51.319 24.792-24.652 24.795-64.511.249-89.195-24.653-24.786-64.508-24.796-89.193-.249-32.244 32.065-89.006 10.307-89.006-35.199 0-47.406 55.62-70.487 89.005-37.286 24.688 24.553 64.549 24.537 89.195-.247 24.502-24.641 24.485-64.6-.25-89.194a179.49 179.49 0 0 0-27.591-22.476 7.5 7.5 0 0 0-10.391 2.125 7.5 7.5 0 0 0 2.125 10.392 164.565 164.565 0 0 1 25.28 20.596c18.852 18.746 18.85 49.216.189 67.98-18.834 18.94-49.205 18.863-67.981.188-42.46-42.227-114.582-13.373-114.582 47.921 0 58.524 72.772 87.413 114.583 45.835 18.821-18.716 49.189-18.704 67.98.19 18.717 18.82 18.704 49.193-.19 67.981-31.087 30.916-73.102 47.949-117.174 47.446h-.092a7.501 7.501 0 1 0 .015 15.001l-5.725 34.606c-2.208 13.346-15.711 22.889-29.467 18.481-14.595-4.671-29.398 6.22-29.398 21.413 0 15.052 14.631 26.142 29.4 21.412 14.601-4.678 29.373 6.241 29.373 21.435 0 9.814-6.286 18.422-15.643 21.419a67.93 67.93 0 0 1-20.751 3.259c-15.227 0-30.185-5.278-42.118-14.862a7.5 7.5 0 0 0-9.393 11.695C191.793 505.548 210.087 512 228.717 512a82.897 82.897 0 0 0 25.328-3.975c15.59-4.996 26.065-19.344 26.065-35.704 0-25.386-24.685-43.493-48.949-35.72-5.061 1.623-9.824-2.177-9.824-7.126.001-5.186 5.041-8.658 9.824-7.128zM193.515 67.741v12a7.5 7.5 0 0 0 15 0v-12a7.5 7.5 0 0 0-15 0z"/><path d="M278.249 74.74c-6.164 7.074-17.119 7.068-23.279 0a7.501 7.501 0 0 0-11.309 9.855c12.145 13.934 33.766 13.921 45.896 0a7.5 7.5 0 0 0-11.308-9.855zM313.116 79.406a7.5 7.5 0 0 0 15 0c0-3.532 2.874-6.406 6.406-6.406s6.405 2.874 6.405 6.406c0 4.142 3.357 7.5 7.5 7.5s7.5-3.358 7.5-7.5c0-11.803-9.603-21.406-21.405-21.406-11.803 0-21.406 9.603-21.406 21.406z"/></g></svg>