<svg height="512" width="512" xmlns="http://www.w3.org/2000/svg"><path d="m256 7.5-85.733 62.125L256 131.751c34.254 0 62.121 27.868 62.121 62.125v124.248c0 34.257-27.866 62.125-62.121 62.125l-85.733 62.125L256 504.5c102.76 0 186.362-83.608 186.362-186.376V193.876C442.362 91.108 358.76 7.5 256 7.5z" fill="#ff8e9e"/><path d="M256 380.249c-34.254 0-62.121-27.868-62.121-62.125V193.876c0-34.257 27.866-62.125 62.121-62.125-34.311-34.312-34.311-89.94 0-124.251-102.76 0-186.362 83.608-186.362 186.376v124.248C69.638 420.892 153.24 504.5 256 504.5c-34.311-34.311-34.311-89.939 0-124.251z" fill="#ea5b70"/><ellipse cx="176.443" cy="117.258" fill="#ffdbe0" rx="29.355" ry="23.377"/><ellipse cx="335.557" cy="117.258" fill="#ffdbe0" rx="29.355" ry="23.377"/><g fill="#4c5699"><path d="M207.705 57.082h-24.568c-10.321 0-18.015 9.518-15.851 19.61l1.361 6.346c2.287 10.665 11.713 18.285 22.621 18.285h8.307c10.908 0 20.334-7.619 22.621-18.285l1.361-6.346c2.162-10.093-5.531-19.61-15.852-19.61zM306.964 57.082h24.568c10.322 0 18.015 9.518 15.851 19.61l-1.361 6.346c-2.287 10.665-11.713 18.285-22.621 18.285h-8.307c-10.908 0-20.334-7.619-22.621-18.285l-1.361-6.346c-2.163-10.093 5.53-19.61 15.852-19.61z"/></g><g><path d="M448.385 169.884C436.376 73.034 353.669 0 256 0c-42.303 0-82.526 13.44-116.324 38.868-3.311 2.49-3.975 7.192-1.484 10.502s7.192 3.976 10.502 1.484C179.871 27.398 216.977 15 256 15c90.112 0 166.42 67.379 177.498 156.724v.006a180.701 180.701 0 0 1 1.363 22.146v124.248C434.861 416.757 354.624 497 256 497S77.139 416.757 77.139 318.124V193.876c-.001-46.405 17.763-90.424 50.02-123.947a7.5 7.5 0 0 0-10.808-10.4c-34.96 36.331-54.213 84.043-54.212 134.347v124.248C62.139 425.027 149.104 512 256 512s193.861-86.973 193.861-193.876V193.876c0-8.017-.497-16.089-1.476-23.992z"/><path d="M301.212 348.74a7.501 7.501 0 0 0 12.406 8.432c7.853-11.556 12.003-25.059 12.003-39.048V193.876c0-38.392-31.231-69.625-69.621-69.625s-69.621 31.233-69.621 69.625v124.248c0 38.392 31.231 69.625 69.62 69.625h.007c11.47 0 22.852-2.864 32.912-8.283a7.502 7.502 0 0 0 3.047-10.16 7.502 7.502 0 0 0-10.16-3.047c-7.883 4.246-16.804 6.49-25.8 6.49H256c-30.118 0-54.621-24.505-54.621-54.625V193.876c0-30.12 24.503-54.625 54.621-54.625s54.621 24.505 54.621 54.625v124.248c0 10.971-3.254 21.558-9.409 30.616zM278.118 99.324c2.722-3.122 2.396-7.86-.728-10.581s-7.86-2.396-10.581.728c-5.726 6.57-15.899 6.563-21.62-.001a7.5 7.5 0 0 0-11.309 9.855c11.729 13.454 32.57 13.391 44.238-.001z"/><path d="m353.355 84.609 1.36-6.346c3.169-14.777-8.103-28.682-23.184-28.682h-24.568a23.597 23.597 0 0 0-14.646 5.057c-23.708-3.008-46.207-3.015-69.967 0a23.603 23.603 0 0 0-14.646-5.057h-24.569c-15.113 0-26.346 13.936-23.184 28.683l1.361 6.345c3.007 14.029 15.604 24.212 29.953 24.212h8.308c14.348 0 26.945-10.183 29.953-24.211l1.361-6.347a23.69 23.69 0 0 0 .091-9.519c7.328-.756 16.097-1.36 26.354-1.36s19.027.604 26.355 1.36a23.726 23.726 0 0 0 .091 9.519l1.36 6.346c3.008 14.029 15.605 24.212 29.954 24.212h8.307c14.351 0 26.949-10.182 29.956-24.212zm-137.132-9.491-1.361 6.347c-1.536 7.16-7.965 12.356-15.287 12.356h-8.308c-7.323 0-13.752-5.196-15.287-12.357l-1.361-6.345c-1.163-5.429 2.977-10.537 8.518-10.537h24.569c5.542 0 9.673 5.137 8.517 10.536zm123.827.001-1.36 6.346c-1.536 7.16-7.965 12.356-15.288 12.356h-8.307c-7.323 0-13.752-5.196-15.288-12.356l-1.36-6.346c-1.154-5.39 2.962-10.537 8.518-10.537h24.568c5.55 0 9.678 5.118 8.517 10.537z"/></g></svg>