<svg height="512" width="512" xmlns="http://www.w3.org/2000/svg"><path d="M504.5 256c0-33.331-27.02-60.351-60.35-60.351h-42.451l30.017-30.017c23.568-23.568 23.569-61.78 0-85.348-23.568-23.568-61.78-23.568-85.348 0l-30.017 30.017L170.652 256l145.699 145.699 30.017 30.018c23.568 23.568 61.78 23.568 85.348 0 23.569-23.568 23.568-61.78 0-85.348l-30.018-30.017h42.451C477.48 316.351 504.5 289.33 504.5 256z" fill="#ff8f71"/><path d="M316.351 110.301v-42.45C316.351 34.52 289.331 7.5 256 7.5c-33.33 0-60.351 27.02-60.351 60.351v42.451l-30.017-30.017c-23.568-23.568-61.78-23.569-85.348 0-23.568 23.568-23.568 61.78 0 85.348l30.017 30.017H67.85C34.52 195.649 7.5 222.669 7.5 256c0 33.33 27.02 60.351 60.35 60.351h42.451l-30.017 30.017c-23.568 23.568-23.568 61.78 0 85.348 23.569 23.569 61.78 23.568 85.348 0l30.017-30.018v42.451c0 33.331 27.021 60.35 60.351 60.35 33.331 0 60.351-27.02 60.351-60.35v-42.451c-80.468-80.467-80.468-210.929 0-291.397z" fill="#ff6f4d"/><g fill="#ffdbe0"><ellipse cx="175.192" cy="267.461" rx="29.816" ry="23.744"/><ellipse cx="336.807" cy="267.461" rx="29.816" ry="23.744"/></g><g><path d="M512 256c0-37.413-30.438-67.851-67.85-67.851h-24.345l17.214-17.213c26.516-26.516 26.521-69.436 0-95.955-26.519-26.519-69.435-26.521-95.957.001L323.85 92.194V67.851C323.851 30.438 293.413 0 256 0s-67.851 30.438-67.851 67.851v24.343L170.937 74.98c-22.557-22.556-56.629-25.718-82.434-10.489a7.5 7.5 0 0 0-2.647 10.271 7.497 7.497 0 0 0 10.271 2.647c20.068-11.841 46.618-9.406 64.203 8.179l28.963 28.963 2.365 5.709a7.5 7.5 0 0 0 9.799 4.059 7.499 7.499 0 0 0 4.059-9.799l-2.365-5.71V67.851C203.149 38.709 226.858 15 256 15s52.851 23.709 52.851 52.851v40.959l-2.365 5.71a7.5 7.5 0 0 0 13.858 5.74l2.365-5.709 28.963-28.963c20.654-20.656 54.085-20.657 74.742 0 20.655 20.653 20.656 54.086-.001 74.741l-28.963 28.963-5.709 2.365a7.499 7.499 0 0 0-4.059 9.799 7.5 7.5 0 0 0 9.799 4.059l5.71-2.365h40.96c29.142 0 52.85 23.709 52.85 52.851s-23.708 52.851-52.85 52.851h-40.96l-5.71-2.365a7.499 7.499 0 0 0-9.799 4.059 7.498 7.498 0 0 0 4.059 9.799l5.709 2.365 28.964 28.962c17.681 17.682 20.065 44.463 7.943 64.597a7.5 7.5 0 0 0 12.852 7.736c15.525-25.788 12.585-60.164-10.188-82.939l-17.213-17.213h24.343C481.563 323.851 512 293.413 512 256zM415.885 434.585c-20.068 11.85-46.631 9.411-64.214-8.171l-28.962-28.963-2.366-5.711c-1.585-3.827-5.972-5.649-9.799-4.059a7.499 7.499 0 0 0-4.059 9.799l2.365 5.71v40.96c0 29.142-23.709 52.85-52.851 52.85s-52.851-23.708-52.851-52.85v-40.96l2.365-5.71a7.498 7.498 0 0 0-4.059-9.799 7.5 7.5 0 0 0-9.799 4.059l-2.366 5.711-28.961 28.962c-20.608 20.608-54.137 20.605-74.743-.001-20.655-20.655-20.656-54.086.001-74.741l28.962-28.963 5.711-2.365a7.499 7.499 0 0 0 4.059-9.799 7.496 7.496 0 0 0-9.799-4.059l-5.71 2.365H67.851C38.709 308.851 15 285.142 15 256s23.709-52.851 52.851-52.851h40.959l5.71 2.365a7.5 7.5 0 0 0 5.74-13.858l-5.709-2.365-28.963-28.963c-17.741-17.741-20.028-44.536-7.938-64.605a7.5 7.5 0 0 0-2.556-10.294c-3.546-2.139-8.156-.993-10.294 2.556-15.528 25.78-12.604 60.165 10.183 82.952l17.211 17.212H67.851C30.437 188.149 0 218.587 0 256s30.437 67.851 67.851 67.851h24.344L74.98 341.063c-26.518 26.52-26.519 69.436 0 95.955 26.465 26.465 69.511 26.446 95.956.001l17.213-17.213v24.344c0 37.412 30.438 67.85 67.851 67.85s67.851-30.438 67.851-67.85v-24.344l17.214 17.214c22.618 22.616 56.708 25.68 82.447 10.48a7.5 7.5 0 1 0-7.627-12.915z"/><path d="M256 262.88c14.123 12.385 36.412 2.337 36.412-16.505 0-4.143-3.357-7.5-7.5-7.5s-7.5 3.357-7.5 7.5a6.963 6.963 0 0 1-6.956 6.956 6.963 6.963 0 0 1-6.955-6.956c0-4.143-3.357-7.5-7.5-7.5s-7.5 3.357-7.5 7.5a6.963 6.963 0 0 1-6.956 6.956 6.963 6.963 0 0 1-6.955-6.956c0-4.143-3.357-7.5-7.5-7.5s-7.5 3.357-7.5 7.5c-.001 18.832 22.277 28.899 36.41 16.505zM188.213 234.56c0-3.454 2.811-6.265 6.265-6.265s6.265 2.811 6.265 6.265c0 4.143 3.357 7.5 7.5 7.5s7.5-3.357 7.5-7.5c0-11.726-9.539-21.265-21.265-21.265s-21.265 9.539-21.265 21.265c0 4.143 3.357 7.5 7.5 7.5s7.5-3.358 7.5-7.5zM311.258 234.56c0-3.454 2.811-6.265 6.265-6.265s6.265 2.811 6.265 6.265c0 4.143 3.357 7.5 7.5 7.5s7.5-3.357 7.5-7.5c0-11.726-9.539-21.265-21.265-21.265s-21.265 9.539-21.265 21.265c0 4.143 3.357 7.5 7.5 7.5s7.5-3.358 7.5-7.5z"/></g></svg>