<svg height="512" width="512" xmlns="http://www.w3.org/2000/svg"><path d="M411.673 7.5c-34.951 0-63.283 28.333-63.283 63.283v121.935H164.716v126.566h183.675v121.934c0 34.95 28.331 63.283 63.283 63.283 34.951 0 63.283-28.333 63.283-63.283V70.783C474.956 35.833 446.625 7.5 411.673 7.5z" fill="#e8b5b1"/><path d="M164.716 504.5c-34.951 0-63.283-28.333-63.283-63.283V100.783c0-34.95 28.331-63.283 63.283-63.283s63.283 28.333 63.283 63.283v340.434c0 34.95-28.332 63.283-63.283 63.283z" fill="#d6948c"/><g fill="#ffdbe0"><path d="M208.218 251.481c-16.308-.036-29.552 10.463-29.58 23.45s13.169 23.544 29.477 23.58 29.552-10.463 29.58-23.451c.029-12.986-13.169-23.544-29.477-23.579z"/><ellipse cx="368.223" cy="275.346" rx="23.515" ry="29.529" transform="rotate(-89.89 368.163 275.354)"/></g><g><path d="M247.172 52.853a204.18 204.18 0 0 0-28.742-4.876c-25.493-2.474-51.748-.271-77.275 6.561l-10.394 18.003 19.727 73.622 32.73 8.363c29.651-10.086 56.581-26.244 78.536-47.25 20.235-19.361 12.623-47.774-14.582-54.423z" fill="#676fb2"/><path d="m141.155 54.538-.05.013-.011.003c-25.482 6.828-49.303 18.048-70.141 32.94A204.187 204.187 0 0 0 48.5 106.087c-20.235 19.361-12.623 47.774 14.583 54.423 34.117 8.338 70.795 7.751 106.067-1.698l.011-.003a222.404 222.404 0 0 0 14.058-4.283 51.806 51.806 0 0 1-23.616-31.142z" fill="#4c5699"/><path d="m218.43 47.977-8.606-15.636C192.548.952 146.095-1.712 134.638 30.216v.001-.001l-10.394 18.003 12.732 47.516 87.937-23.563z" fill="#676fb2"/><path d="M132.752 56.99a41.158 41.158 0 0 1 1.886-26.775c-25.859-21.899-64.784 3.607-64.051 39.433l.365 17.844 6.483 24.194 65.285-17.493z" fill="#4c5699"/><g><path d="m218.43 47.977-7.002 6.699c-17.603 16.842-37.699 28.569-69.763 35.578l-3.957 8.213 4.992 18.63 16.903 6.287c31.552-8.086 56.275-22.589 76.989-42.408L218.43 47.977z" fill="#d4d4ff"/><path d="m144.06 99.194-2.395-8.94c-32.709 7.151-51.293 1.985-70.713-2.761l.771 37.659c27.849 6.807 56.51 7.006 87.879-1.768a47.235 47.235 0 0 1-15.542-24.19z" fill="#9ea2e3"/></g></g><g><path d="M411.674 0c-39.03 0-70.783 31.753-70.783 70.783v114.435H235.499c0-48.361.232-45.391-.582-47.333 11.503-7.403 22.24-15.832 32.022-25.19 24.519-23.462 14.937-59.082-17.988-67.129a212.52 212.52 0 0 0-25.836-4.629l-6.72-12.211-.001-.001C206.08 9.985 185.174-1.491 164.374.157c-14.035 1.115-25.718 8.061-32.682 19.069-11.532-6.045-25.12-6.214-37.834-.162-18.842 8.97-31.207 29.359-30.769 50.737l.285 13.938a212.25 212.25 0 0 0-20.06 16.928c-24.519 23.46-14.937 59.082 17.987 67.128 10.679 2.61 21.594 4.364 32.632 5.29v22.995c0 4.143 3.358 7.5 7.5 7.5s7.5-3.357 7.5-7.5v-22.267c38.065.57 76.79-8.605 111.566-27.429v53.334a7.5 7.5 0 0 0 7.5 7.5c3.973 0 7.216-3.092 7.475-7h105.442c.258 3.908 3.501 7 7.475 7 4.143 0 7.5-3.357 7.5-7.5V70.784c0-30.759 25.024-55.783 55.783-55.783s55.782 25.024 55.782 55.783V379.04c0 4.143 3.357 7.5 7.5 7.5s7.5-3.357 7.5-7.5V70.784C482.456 31.753 450.703 0 411.674 0zm-184.48 79.457c-22.32 19.997-43.794 29.465-69.612 36.704-26.73 7.475-52.41 8.451-78.48 2.977l-.452-22.064c21.198 4.938 39.135 6.079 64.616.507 31.017-6.781 52.941-17.98 73.297-37.44l10.631 19.316zM100.305 32.608c10.394-4.949 21.142-3.734 29.486 3.331 3.991 3.379 10.139 1.732 11.906-3.19 3.696-10.299 12.395-16.728 23.866-17.64 12.504-.979 29.006 5.067 37.691 20.848l6.307 11.459a7.464 7.464 0 0 0-3.317 1.842c-18.233 17.445-38.026 27.516-66.18 33.67-27.915 6.102-44.75 2.772-61.73-1.348l-.247-12.083c-.37-18.002 10.893-31.499 22.218-36.889zM64.862 153.225c-21.478-5.25-27.151-26.436-11.178-41.72a196.202 196.202 0 0 1 10.074-8.979l.359 17.538a14.16 14.16 0 0 0 11.239 13.613c55.627 11.894 119.177-4.535 162.351-43.501a14.16 14.16 0 0 0 2.928-17.407l-8.462-15.375c4.447.767 8.864 1.68 13.218 2.744 21.479 5.252 27.152 26.436 11.178 41.72-49.672 47.524-124.922 67.686-191.707 51.367z"/><path d="M474.956 401.54a7.499 7.499 0 0 0-7.5 7.5v32.177c0 30.759-25.023 55.783-55.782 55.783s-55.783-25.024-55.783-55.783V312.284c0-4.143-3.357-7.5-7.5-7.5-3.974 0-7.216 3.092-7.475 7H235.474c-.259-3.908-3.501-7-7.475-7a7.5 7.5 0 0 0-7.5 7.5v128.934c0 30.759-25.024 55.783-55.783 55.783s-55.783-25.024-55.783-55.783V226.079c0-4.143-3.358-7.5-7.5-7.5s-7.5 3.357-7.5 7.5v215.138c0 39.03 31.753 70.783 70.783 70.783s70.783-31.753 70.783-70.783V326.784h105.392v114.434c0 39.03 31.753 70.783 70.783 70.783 39.029 0 70.782-31.753 70.782-70.783V409.04a7.5 7.5 0 0 0-7.5-7.5z"/><path d="M233.16 257.481v-12c0-4.143-3.358-7.5-7.5-7.5s-7.5 3.357-7.5 7.5v12a7.5 7.5 0 0 0 15 0zM350.557 264.981c4.143 0 7.5-3.357 7.5-7.5v-12c0-4.143-3.357-7.5-7.5-7.5s-7.5 3.357-7.5 7.5v12a7.5 7.5 0 0 0 7.5 7.5zM288.29 281.14c14.123 12.386 36.411 2.337 36.411-16.505 0-4.143-3.358-7.5-7.5-7.5s-7.5 3.357-7.5 7.5c0 3.836-3.12 6.956-6.956 6.956s-6.956-3.12-6.956-6.956c0-4.143-3.358-7.5-7.5-7.5s-7.5 3.357-7.5 7.5c0 3.836-3.12 6.956-6.956 6.956s-6.956-3.12-6.956-6.956c0-4.143-3.358-7.5-7.5-7.5s-7.5 3.357-7.5 7.5c.002 18.831 22.28 28.9 36.413 16.505z"/></g></svg>