<svg height="512" viewBox="0 0 497 497" width="512" xmlns="http://www.w3.org/2000/svg"><path d="M220.464 56.061 254 33.582a69.792 69.792 0 0 1 48.592-11.135l23.801 3.354a27.878 27.878 0 0 1 23.724 23.772l5.634 40.584a27.878 27.878 0 0 1-16.66 29.47l-80.188 38.937z" fill="#fe646f"/><path d="m355.751 90.157-5.634-40.584a27.878 27.878 0 0 0-23.724-23.772l-23.801-3.354a69.754 69.754 0 0 0-19.744.051l23.442 3.303a27.879 27.879 0 0 1 23.724 23.772l5.634 40.584a27.878 27.878 0 0 1-16.66 29.47l-63.182 30.679 3.097 8.258 80.188-38.937a27.877 27.877 0 0 0 16.66-29.47z" fill="#fd4755"/><path d="M314.896 102.528a7.497 7.497 0 0 1-6.608-3.942l-1.26-2.337a33.888 33.888 0 0 0-21.29-16.684l-29.876-7.668a7.5 7.5 0 1 1 3.752-14.523l29.876 7.668c13.111 3.388 24.316 12.168 30.742 24.09l1.259 2.336a7.5 7.5 0 0 1-6.595 11.06z" fill="#fd4755"/><path d="M250.052 334.811a7.462 7.462 0 0 1-4.131-1.246l-26.553-17.836a7.5 7.5 0 1 1 8.275-12.511l26.553 17.836a7.499 7.499 0 0 1 2.117 10.393 7.49 7.49 0 0 1-6.261 3.364z" fill="#3ec3a4"/><path d="M233.443 463.646a7.498 7.498 0 0 1-6.542-3.821 7.5 7.5 0 0 1 2.854-10.215l24.969-13.767a7.5 7.5 0 0 1 7.362 13.069l-24.969 13.767a7.457 7.457 0 0 1-3.674.967z" fill="#6fd7a3"/><path d="m136.446 119.251-7.694-35.446c-4.516-20.319 5.31-41.115 23.875-50.528L212.614 2.86a26.45 26.45 0 0 1 29.201 3.53l26.196 22.511a12.465 12.465 0 0 1 2.419 16.102L201.915 153.63z" fill="#fe646f"/><path d="M256.064 88.744c.3 15.426-1.414 30.888-5.41 45.785-10.934 45.74-78.832 42.18-85.596-4.202-6.98-27.587-11.443-73.127 28.148-74.266 26.725-.727 61.178-3.614 62.858 32.683z" fill="#fd4755"/><path d="M241.816 6.39a26.45 26.45 0 0 0-27.305-4.396 26.43 26.43 0 0 1 7.203 4.396l26.196 22.511a12.465 12.465 0 0 1 2.419 16.102L186.814 145.7l15.101 7.93 68.516-108.627a12.462 12.462 0 0 0-2.419-16.102z" fill="#fd4755"/><path d="M232.188 497h-16.04a6.84 6.84 0 0 1-6.839-6.839v-52.019a107.41 107.41 0 0 1 18.959-60.939l1.572-2.282a77.664 77.664 0 0 0 13.707-44.059v-80.351h29.719v80.342c0 21.76-6.609 43.006-18.952 60.927l-1.577 2.29a77.7 77.7 0 0 0-13.709 44.073v52.019a6.84 6.84 0 0 1-6.84 6.838z" fill="#6fd7a3"/><path d="M257.149 250.511v80.34c0 21.761-6.61 43.01-18.953 60.931l-1.577 2.29a77.686 77.686 0 0 0-13.707 44.066v49.884a9.34 9.34 0 0 1-6.764 8.978h16.04a6.84 6.84 0 0 0 6.839-6.839v-52.019a77.7 77.7 0 0 1 13.709-44.072l1.577-2.29a107.418 107.418 0 0 0 18.952-60.93v-80.34h-16.116z" fill="#3ec3a4"/><path d="m283.227 351.968-7.988-9.699a9.225 9.225 0 0 1 0-11.728l7.988-9.699a31.112 31.112 0 0 1 24.016-11.334h7.025a31.11 31.11 0 0 1 24.016 11.334l5.891 7.153a13.23 13.23 0 0 1 0 16.82l-5.891 7.153a31.112 31.112 0 0 1-24.016 11.334h-7.025a31.11 31.11 0 0 1-24.016-11.334z" fill="#6fd7a3"/><path d="m344.176 327.995-5.891-7.153a31.112 31.112 0 0 0-24.016-11.334h-7.025c-2.219 0-4.408.244-6.539.702a31.1 31.1 0 0 1 17.477 10.632l5.891 7.153a13.23 13.23 0 0 1 0 16.82l-5.891 7.153a31.105 31.105 0 0 1-17.477 10.632c2.131.458 4.32.702 6.539.702h7.025a31.11 31.11 0 0 0 24.016-11.334l5.891-7.153a13.232 13.232 0 0 0 0-16.82z" fill="#3ec3a4"/><path d="m199.797 441.958 7.988-9.699a9.225 9.225 0 0 0 0-11.728l-7.988-9.699a31.112 31.112 0 0 0-24.016-11.334h-7.025a31.11 31.11 0 0 0-24.016 11.334l-5.891 7.153a13.23 13.23 0 0 0 0 16.82l5.891 7.153a31.112 31.112 0 0 0 24.016 11.334h7.025a31.11 31.11 0 0 0 24.016-11.334z" fill="#6fd7a3"/><path d="M199.797 410.832a31.112 31.112 0 0 0-24.016-11.334h-7.026c-2.219 0-4.408.244-6.539.702a31.1 31.1 0 0 1 17.477 10.632l7.988 9.699a9.225 9.225 0 0 1 0 11.728l-7.988 9.699a31.105 31.105 0 0 1-17.477 10.632c2.131.458 4.32.702 6.539.702h7.025a31.11 31.11 0 0 0 24.016-11.334l7.988-9.699a9.225 9.225 0 0 0 0-11.728z" fill="#3ec3a4"/><path d="M276.169 88.74v4.65c0 8.56-.69 17.1-2.07 25.53-.41 2.51-.88 5.01-1.41 7.5-.38 1.75-.78 3.5-1.21 5.24l-.57 2.26-.15.61c-4.84 19.42-22.28 33.05-42.29 33.05-20.08 0-37.56-13.72-42.33-33.23l-.98-4.02a157.49 157.49 0 0 1-4.18-27.29c-.24-3.43-.35-6.87-.35-10.32v-3.98c0-2.16.21-4.28.61-6.32 2.85-14.51 15.29-25.58 30.46-26.32.53-.03 1.07-.04 1.61-.04h30.18c18.05 0 32.68 14.64 32.68 32.68z" fill="#fc8b96"/><path d="M243.492 56.061h-23.53c18.693 1.453 34.961 8.025 36.102 32.684.3 15.426-1.414 30.888-5.41 45.785-4.391 18.368-17.969 28.778-33.083 31.666 3.5.903 7.156 1.382 10.902 1.382 20.01 0 37.448-13.628 42.284-33.048l.718-2.873c.436-1.736.836-3.482 1.209-5.237a158.043 158.043 0 0 0 3.482-33.029v-4.646c.001-18.047-14.627-32.684-32.674-32.684z" fill="#fe646f"/><path d="m373.349 127.22-22.23 41.06a84.834 84.834 0 0 0-7.33 18.35l-7.4 27.41c-8.72 32.34-38.05 54.81-71.55 54.81h-32.61c-33.48 0-62.8-22.45-71.54-54.77l-7.17-26.53a85.136 85.136 0 0 0-8.25-19.99l-21.52-37.69c-3.74-6.56 2.4-14.34 9.65-12.22l62.66 32.91a76.419 76.419 0 0 0 32.61 8.71 76.4 76.4 0 0 0 30.53-5.09c.96-.36 1.91-.75 2.86-1.16l77.03-33.39 25.36-4.66c6.93-1.28 12.26 6.05 8.9 12.25z" fill="#fe646f"/><path d="m364.446 114.967-12.653 2.326c2.445 2.463 3.377 6.379 1.453 9.932l-22.232 41.058c-6.3 10.914-11.302 33.507-14.723 45.763-9.874 36.904-38.718 51.503-71.391 54.803h19.943c33.494 0 62.825-22.466 71.551-54.803l7.397-27.415a85.073 85.073 0 0 1 7.326-18.347l22.233-41.058c3.357-6.205-1.966-13.534-8.904-12.259z" fill="#fd4755"/><path d="M274.099 118.92c-.41 2.51-.88 5.01-1.41 7.5-.38 1.75-.78 3.5-1.21 5.24l-.57 2.26h-22.82c-3.96 0-7.98-.29-11.94-.85a84.718 84.718 0 0 1-44.3-20.43l-10.87-9.6c-.24-3.43-.35-6.87-.35-10.32v-3.98c0-2.16.21-4.28.61-6.32l6.89 6.91 13.65 12.07c10.28 9.08 22.9 14.89 36.48 16.82 3.26.46 6.57.7 9.83.7z" fill="#fe646f"/><g fill="#fd4755"><path d="M274.099 118.92c-.41 2.51-.88 5.01-1.41 7.5-.38 1.75-.78 3.5-1.21 5.24l-.57 2.26h-20.09c1.31-4.95 2.36-9.96 3.17-15zM236.959 97.89c-4.05.83-8.02-1.79-8.84-5.84a78.288 78.288 0 0 0-9.61-24.68l-6.81-11.27c.53-.03 1.07-.04 1.61-.04h16.01l4.27 7.5c4.3 8 7.4 16.55 9.22 25.48a7.5 7.5 0 0 1-5.85 8.85zM259.199 154.18c-10 5.62-35.63 23.43-44.38 61.93a7.498 7.498 0 0 1-7.3 5.84c-.55 0-1.11-.06-1.67-.18a7.502 7.502 0 0 1-5.65-8.98c5.56-24.51 17.15-41.81 28.47-53.52a76.4 76.4 0 0 0 30.53-5.09z"/></g></svg>