<svg height="512" viewBox="0 0 496.999 496.999" width="512" xmlns="http://www.w3.org/2000/svg"><path d="m294.645 251.633-46.146-12.179-46.146 12.179a136.582 136.582 0 0 0-27.424 82.092v1.962c0 21.768 5.203 43.221 15.175 62.57l40.832 79.227c7.357 14.275 27.768 14.275 35.125 0l40.832-79.227a136.583 136.583 0 0 0 15.175-62.57v-1.962a136.572 136.572 0 0 0-27.423-82.092z" fill="#ffd15b"/><path d="m294.645 251.633-11.88-3.135-7.849 3.135a136.582 136.582 0 0 1 27.424 82.092v1.962c0 21.768-5.203 43.221-15.176 62.57l-40.832 79.227c-1.867 3.622-4.576 6.321-7.698 8.105 9.179 5.246 21.937 2.547 27.427-8.105l40.832-79.227a136.584 136.584 0 0 0 15.176-62.57v-1.962a136.58 136.58 0 0 0-27.424-82.092zM248.498 330.613a7.5 7.5 0 0 1-7.5-7.5v-71.48c0-4.142 3.357-7.5 7.5-7.5s7.5 3.358 7.5 7.5v71.48a7.5 7.5 0 0 1-7.5 7.5z" fill="#ffc344"/><path d="M248.498 385.366a7.5 7.5 0 0 1-7.5-7.5v-20c0-4.142 3.357-7.5 7.5-7.5s7.5 3.358 7.5 7.5v20a7.5 7.5 0 0 1-7.5 7.5z" fill="#ffc344"/><path d="M202.349 192.598v59.04l-69.39 23.79a109.92 109.92 0 0 1-73.65-.85l-51.97-19.15c-9.26-3.41-9.92-16.27-1.05-20.61l72.58-35.53c8.99-4.4 18.87-6.69 28.88-6.69z" fill="#ffd15b"/><path d="M202.353 192.594h-19.729v.003h-30.375l1.1 8.64a54.273 54.273 0 0 0 10.71 26.07l8.576 11.236c4.915 6.439 2.077 15.8-5.585 18.427l-53.82 18.452a109.88 109.88 0 0 1-25.839 5.478 109.895 109.895 0 0 0 45.568-5.478l69.381-23.785h.01v-.003l.004-.001-.001-59.039z" fill="#ffc344"/><path d="M82.048 246.4a7.5 7.5 0 0 1-1.177-14.906l91.774-15.34a7.5 7.5 0 0 1 2.373 14.811l-91.774 15.34a7.607 7.607 0 0 1-1.196.095z" fill="#ffc344"/><path d="M202.349 150.768v100.87l-40.25-27.07-5.5-3.7a187.773 187.773 0 0 1-58.45-63.04l-38.97-68.6c-2.81-4.95 1.19-11.01 6.85-10.36l30.89 3.52a99.01 99.01 0 0 1 43.25 15.69c3.62 2.37 7.09 5 10.39 7.85z" fill="#ffd15b"/><path d="M202.349 150.768v100.87l-40.25-27.07a54.274 54.274 0 0 1-8.75-23.33l-13.18-103.16c3.62 2.37 7.09 5 10.39 7.85z" fill="#ffc344"/><path d="m294.645 251.633 69.395 23.79a109.904 109.904 0 0 0 73.649-.841l51.967-19.153c9.266-3.415 9.923-16.27 1.054-20.612l-72.581-35.531a65.692 65.692 0 0 0-28.883-6.69h-94.6v59.037z" fill="#ffd15b"/><path d="m490.709 234.816-72.581-35.531a65.692 65.692 0 0 0-28.883-6.69h-19.729a65.689 65.689 0 0 1 28.883 6.69l72.581 35.531c8.87 4.342 8.213 17.197-1.054 20.612l-51.967 19.153a109.853 109.853 0 0 1-28.082 6.32 109.88 109.88 0 0 0 47.81-6.32l51.967-19.153c9.268-3.415 9.925-16.27 1.055-20.612z" fill="#ffc344"/><path d="M414.95 246.4c-.394 0-.793-.031-1.195-.095l-96.155-15.34a7.5 7.5 0 0 1-6.219-8.592 7.494 7.494 0 0 1 8.592-6.219l96.155 15.34a7.5 7.5 0 0 1-1.178 14.906z" fill="#ffc344"/><path d="m294.645 251.633 45.751-30.768a187.676 187.676 0 0 0 58.451-63.036l38.97-68.602c2.814-4.953-1.185-11.006-6.845-10.36l-30.897 3.522a99.105 99.105 0 0 0-53.64 23.539l-51.791 44.838v100.867z" fill="#ffd15b"/><path d="M178.211 187.883a7.467 7.467 0 0 1-5.069-1.975l-47.184-42.575a7.5 7.5 0 0 1-.454-10.597 7.499 7.499 0 0 1 10.597-.454l47.184 42.575a7.5 7.5 0 0 1-5.074 13.026zM316.571 189.997a7.5 7.5 0 0 1-5.073-13.026l49.4-44.69a7.5 7.5 0 1 1 10.143 11.051l-49.4 44.69a7.476 7.476 0 0 1-5.07 1.975z" fill="#ffc344"/><path d="m430.972 78.867-14.395 1.641c2.349 2.043 3.284 5.598 1.511 8.719l-38.97 68.602a187.685 187.685 0 0 1-58.451 63.036l-26.022 17.5v13.268l45.751-30.768a187.667 187.667 0 0 0 58.451-63.036l38.97-68.602c2.814-4.953-1.185-11.005-6.845-10.36z" fill="#ffc344"/><path d="m342.979 52.018-19.06 149.22a54.273 54.273 0 0 1-10.71 26.07l-18.56 24.33-46.151-12.183-46.149 12.183-18.57-24.33a54.258 54.258 0 0 1-10.7-26.07l-19.06-149.22a29.588 29.588 0 0 1 14.33-29.25l16.74-9.86c.34-.2.68-.39 1.02-.57 4.53-2.44 9.56-3.62 14.59-3.52 4.1.08 8.2 1.01 12.02 2.81l23.17 10.9a29.604 29.604 0 0 0 25.22 0l23.16-10.9c3.82-1.8 7.92-2.73 12.03-2.81 5.02-.1 10.05 1.08 14.59 3.52.34.18.68.37 1.02.57l16.74 9.86a29.588 29.588 0 0 1 14.33 29.25z" fill="#fea95c"/><path d="m192.995 11.624 23.169 10.907a29.594 29.594 0 0 0 22.471 1.119 29.688 29.688 0 0 1-2.742-1.119l-23.169-10.907a29.597 29.597 0 0 0-22.481-1.117c.929.329 1.85.692 2.752 1.117z" fill="#fea95c"/><path d="m328.65 22.769-16.744-9.866a29.59 29.59 0 0 0-24.88-2.396c1.773.628 3.5 1.422 5.151 2.396l16.744 9.866a29.597 29.597 0 0 1 14.333 29.251L304.19 201.238a54.308 54.308 0 0 1-10.704 26.073l-15.262 19.99 16.422 4.332 18.569-24.322a54.304 54.304 0 0 0 10.704-26.073L342.983 52.02a29.597 29.597 0 0 0-14.333-29.251z" fill="#fe9738"/><path d="M294.645 251.633h-92.292v-55.426c0-8.646 9.83-13.62 16.796-8.5l18.551 13.635a18.235 18.235 0 0 0 21.598 0l18.551-13.635c6.966-5.12 16.796-.146 16.796 8.5z" fill="#ffead9"/><path d="m277.849 187.707-4.345 3.194a10.455 10.455 0 0 1 1.413 5.306v55.426h19.729v-55.426c-.001-8.646-9.831-13.62-16.797-8.5z" fill="#fedba6"/><g><path d="M213.739 112.548c-.49.1-.99.15-1.47.15-3.51 0-6.64-2.47-7.35-6.04l-18.81-94.32c4.53-2.44 9.56-3.62 14.59-3.52l18.93 94.91c.81 4.06-1.83 8.01-5.89 8.82zM310.889 12.338l-18.81 94.32a7.501 7.501 0 0 1-7.35 6.04c-.48 0-.98-.05-1.47-.15-4.06-.81-6.7-4.76-5.89-8.82l18.93-94.91c5.02-.1 10.05 1.08 14.59 3.52z" fill="#fe9738"/></g></svg>