<svg height="512" viewBox="0 0 496.996 496.996" width="512" xmlns="http://www.w3.org/2000/svg"><path d="m225.338 214.228-17.45 42.12-76.77-28.02-34.41-12.56-25.24-9.22a97.025 97.025 0 0 1-34.58-21.77l-14.43-14.11c-10.16-9.91-3.02-27.14 11.17-26.98l20.18.24c13.78.15 27.36 3.25 39.85 9.05l12.65 5.89 12.49 5.81 11.03 5.13 6.05 2.82z" fill="#c8effe"/><path d="M135.876 172.628c.13.38.27.75.43 1.13l6.64 15.51c5.65 14.17 16.58 25.66 28 35.47-14.57-1.64-27.21-.17-39.83 3.59l76.77 28.02 17.45-42.12z" fill="#99e6fc"/><path d="m463.367 353.308-20.18-.24a97.136 97.136 0 0 1-39.85-9.05l-12.28-5.71-12.09-5.62-10.49-4.88-96.82-45.04 17.45-42.12 110.37 40.29 26.04 9.51a97.152 97.152 0 0 1 34.59 21.77l14.43 14.11c10.15 9.91 3.021 27.14-11.17 26.98z" fill="#c8effe"/><path d="m474.54 326.323-14.436-14.102a97.009 97.009 0 0 0-34.581-21.777l-26.041-9.504-110.377-40.294-2.652 6.401c35.398 12.923 105.46 38.5 118.882 43.397 19.259 6.216 35.113 21.738 49.017 35.879 9.465 9.244 3.899 24.841-8.396 26.777l17.407.204c14.191.168 21.329-17.065 11.177-26.981z" fill="#99e6fc"/><path d="m353.308 33.628-.24 20.18a96.987 96.987 0 0 1-9.06 39.85l-6.13 13.18-5.56 11.96-3.16 6.8-46.39 99.74-42.12-17.45 40.58-111.18 9.22-25.24a96.887 96.887 0 0 1 21.77-34.58l14.1-14.43c9.919-10.16 27.149-3.02 26.99 11.17z" fill="#c8effe"/><path d="M327.885 21.055c3.619 2.793 6.084 7.17 6.02 12.575.167 19.831-.067 42.017-9.29 60.031-6.711 14.42-44.932 96.594-58.116 124.937l16.264 6.737 49.556-106.54 11.693-25.134a97.013 97.013 0 0 0 9.054-39.851l.237-20.179c.158-13.472-15.361-20.576-25.418-12.576z" fill="#99e6fc"/><path d="m256.347 289.108-40.29 110.38-9.51 26.04a97.025 97.025 0 0 1-21.77 34.58l-14.11 14.43c-9.91 10.16-27.14 3.02-26.98-11.17l.24-20.18a96.976 96.976 0 0 1 9.05-39.85l5.69-12.24 5.64-12.13 4.85-10.42 45.07-96.89z" fill="#c8effe"/><path d="m214.229 271.661-3.261 7.011 25.193 10.435c-6.843 18.745-43.806 119.993-49.798 136.417-6.215 19.259-21.738 35.113-35.879 49.017-.379.388-.772.742-1.171 1.081 5.871 4.838 15.079 5.348 21.358-1.081l14.102-14.436a97.009 97.009 0 0 0 21.777-34.581l9.504-26.041 40.294-110.377z" fill="#99e6fc"/><path d="m225.338 282.768-89.46 41.62-17.85 8.3-24.37 11.33a97.136 97.136 0 0 1-39.85 9.05l-20.18.24c-14.19.16-21.33-17.07-11.17-26.98l14.43-14.11a97.025 97.025 0 0 1 34.58-21.77l12.98-4.74 13.06-4.77 11.2-4.09 22.11-8.07 77.07-28.13z" fill="#c8effe"/><path d="M136.306 323.238c-.16.38-.31.77-.43 1.15l89.46-41.62-17.45-42.12-77.07 28.13c12.78 4.3 26.79 4.49 40.13 3.48-17.8 14.27-26.72 29.95-34.64 50.98z" fill="#99e6fc"/><path d="m474.538 170.668-14.43 14.11a97.152 97.152 0 0 1-34.59 21.77l-13.62 4.98-11.61 4.24-12.44 4.54-98.74 36.04-17.45-42.12 106.54-49.55 25.14-11.7c12.49-5.8 26.07-8.9 39.85-9.05l20.18-.24c14.19-.16 21.319 17.07 11.17 26.98z" fill="#c8effe"/><path d="m463.364 143.692-17.407.204c12.295 1.936 17.861 17.533 8.396 26.777 0 0-14.436 14.102-14.437 14.101-14.965 16.081-39.656 23.788-59.82 30.994l-93.643 34.181 2.651 6.401 111.178-40.582 25.239-9.216a97.022 97.022 0 0 0 34.581-21.777l14.436-14.102c10.154-9.916 3.016-27.149-11.174-26.981z" fill="#99e6fc"/><path d="m256.347 207.888-42.12 17.45-49.92-107.31-11.33-24.37a96.976 96.976 0 0 1-9.05-39.85l-.24-20.18c-.16-14.19 17.07-21.33 26.98-11.17l14.11 14.43a97.025 97.025 0 0 1 21.77 34.58l4.99 13.65 4.52 12.39 2.57 7.05h.01z" fill="#c8effe"/><path d="m216.054 97.513-9.504-26.041a97.022 97.022 0 0 0-21.777-34.581l-14.102-14.436c-6.279-6.429-15.487-5.918-21.358-1.081.399.338.792.693 1.171 1.081 14.141 13.904 29.663 29.758 35.879 49.017 5.992 16.424 42.955 117.672 49.798 136.417l-25.193 10.435 3.261 7.011 42.119-17.446z" fill="#99e6fc"/><path d="M353.308 463.368c.16 14.19-17.07 21.33-26.99 11.17l-14.1-14.43a96.887 96.887 0 0 1-21.77-34.58l-4.26-11.67-4.96-13.57-3.31-9.08-37.27-102.1 42.12-17.45 49.55 106.54 11.69 25.14a96.987 96.987 0 0 1 9.06 39.85z" fill="#c8effe"/><path d="M353.066 443.186a97.01 97.01 0 0 0-9.054-39.851l-11.693-25.134-49.556-106.54-16.926 7.011c13.303 28.601 51.3 110.291 57.988 124.663 9.223 18.013 9.458 40.2 9.29 60.031.061 5.205-2.223 9.455-5.623 12.257 10.04 8.507 25.971 1.391 25.81-12.257z" fill="#99e6fc"/><path d="m277.487 68.898-.62 14.52-.56 13.17-.32 7.49-4.7 109.91h-45.59l-5.05-118.25-1.14-26.84a97.073 97.073 0 0 1 6.88-40.29l7.51-18.73c5.27-13.17 23.93-13.17 29.2 0l7.5 18.73a96.904 96.904 0 0 1 6.89 40.29z" fill="#eaf6ff"/><path d="m270.602 28.613-7.504-18.734c-4.23-10.564-17.057-12.648-24.696-6.271 1.888 1.576 3.463 3.66 4.509 6.271 7.744 18.257 16.017 38.845 14.39 59.016-.749 17.467-5.346 125.153-6.197 145.09h20.187l5.013-117.395 1.185-27.695a97.033 97.033 0 0 0-6.887-40.282z" fill="#c8effe"/><path d="m270.597 468.388-7.5 18.73c-5.27 13.17-23.93 13.17-29.2 0l-7.51-18.73a97.073 97.073 0 0 1-6.88-40.29l.6-14.17.54-12.67.54-12.69 4.51-105.56h45.59l5.02 117.4 1.18 27.69a96.904 96.904 0 0 1-6.89 40.29z" fill="#eaf6ff"/><path d="m277.488 428.101-1.185-27.695-5.013-117.395h-20.187c.852 19.937 5.448 127.623 6.197 145.09 1.628 20.172-6.646 40.759-14.39 59.016-1.045 2.61-2.621 4.695-4.509 6.271 7.639 6.378 20.465 4.293 24.696-6.271l7.504-18.734a97 97 0 0 0 6.887-40.282z" fill="#c8effe"/><path d="m487.117 263.098-18.74 7.51a97.027 97.027 0 0 1-40.28 6.88l-16.29-.69-11.4-.49-16.35-.7-101.05-4.32v-45.58l118.25-5.06 26.84-1.14a97.027 97.027 0 0 1 40.28 6.88l18.74 7.51c13.171 5.27 13.171 23.93 0 29.2z" fill="#eaf6ff"/><path d="m487.116 233.896-18.734-7.504a97.022 97.022 0 0 0-40.282-6.886l-9.101.388c10.28.647 20.31 2.438 29.196 6.499l18.734 7.503c13.174 5.276 13.174 23.929 0 29.204-14.168 6.009-29.739 12.334-45.43 14.107l6.601.282a97.016 97.016 0 0 0 40.282-6.886l18.734-7.504c13.174-5.275 13.174-23.927 0-29.203z" fill="#c8effe"/><path d="M213.987 225.708v45.58l-44.16 1.89-73.24 3.13-27.69 1.18c-13.76.59-27.5-1.75-40.29-6.88l-18.73-7.51c-13.17-5.27-13.17-23.93 0-29.2l18.73-7.51a97.073 97.073 0 0 1 40.29-6.88l13 .55 13.84.59 10.69.46 63.47 2.71z" fill="#eaf6ff"/><path d="M169.896 223.818c.35.31.7.62 1.05.92-22.43-2.53-40.3 2.33-60.54 11.55-11.02 4.41-11.02 20.01 0 24.42l15.66 6.27c14.01 6.03 29.87 6.42 44.88 5.28-.38.3-.75.61-1.12.92l44.16-1.89v-45.58z" fill="#c8effe"/><path d="m240.208 207.978-32.23 32.23-71.21-65.37-15.98-14.67-19.79-18.17a96.88 96.88 0 0 1-23.61-33.35l-7.94-18.55c-5.59-13.05 7.6-26.24 20.65-20.65l18.55 7.94a96.627 96.627 0 0 1 23.38 14.19c3.54 2.89 6.86 6.03 9.97 9.42l9.83 10.7 8.92 9.72 5.07 5.52 38.63 42.09 29.09 31.68z" fill="#eaf6ff"/><path d="m233.536 200.708-29.09-31.68c-.64 7.37-.45 14.83.1 22.1-14.27-17.8-29.95-26.72-50.98-34.63-10.9-4.67-21.93 6.35-17.26 17.26l.46 1.08 71.21 65.37 32.23-32.23z" fill="#c8effe"/><path d="m236.156 207.888-42.11 17.45-49.92-107.31c-3.92-8.29-8.36-17.22-12.1-26.45 3.54 2.89 6.86 6.03 9.97 9.42l18.75 20.42 72.79 79.29c1.1 3.01 1.99 5.45 2.62 7.18z" fill="#c8effe"/><path d="m406.897 427.548-18.55-7.94a96.88 96.88 0 0 1-33.35-23.61l-7.78-8.46-10.4-11.33-5.44-5.93-74.6-81.26 32.24-32.23 86.56 79.46 20.42 18.75a97.013 97.013 0 0 1 23.61 33.35l7.94 18.55c5.591 13.05-7.6 26.24-20.65 20.65z" fill="#eaf6ff"/><path d="m427.551 406.902-7.941-18.553a97.017 97.017 0 0 0-23.615-33.353l-20.422-18.746-86.555-79.466-9.662 9.662c26.472 24.304 85.5 78.499 96.452 88.55 15.414 13.112 24.121 33.52 31.556 51.906 3.127 7.305.366 14.653-4.958 18.727l4.495 1.924c13.045 5.585 26.235-7.605 20.65-20.651z" fill="#c8effe"/><path d="m427.548 90.098-7.94 18.55a97.013 97.013 0 0 1-23.61 33.35l-11.43 10.5-8.99 8.25-11.02 10.12-75.54 69.34-32.24-32.23 80.04-87.19 18.18-19.79a96.88 96.88 0 0 1 33.35-23.61l18.55-7.94c13.049-5.59 26.24 7.6 20.65 20.65z" fill="#eaf6ff"/><path d="m406.9 69.443-4.495 1.924c5.325 4.074 8.086 11.422 4.958 18.727-7.434 18.385-16.141 38.793-31.556 51.906-10.952 10.051-69.98 64.246-96.452 88.55l9.662 9.662 86.555-79.466L395.995 142a97.017 97.017 0 0 0 23.615-33.353l7.941-18.553c5.585-13.046-7.605-26.236-20.651-20.651z" fill="#c8effe"/><path d="m240.208 289.018-6.67 7.27-29.06 31.65-43.73 47.64-18.75 20.42a95.323 95.323 0 0 1-9.97 9.42 96.627 96.627 0 0 1-23.38 14.19l-18.55 7.94c-13.05 5.59-26.24-7.6-20.65-20.65l7.94-18.55a96.88 96.88 0 0 1 23.61-33.35l10.64-9.77 9.15-8.4 9.68-8.89 6.23-5.71 71.28-65.44z" fill="#eaf6ff"/><path d="m207.976 256.788-71.28 65.44c-.13.33-.26.67-.39 1.01-4.67 10.91 6.36 21.93 17.26 17.26l15.52-6.63c14.16-5.65 25.66-16.59 35.46-28-.88 7.81-.86 15.07-.07 22.07l29.06-31.65 6.67-7.27z" fill="#c8effe"/><path d="M236.156 289.108c-.63 1.73-1.52 4.17-2.62 7.18l-72.79 79.29-18.75 20.42a95.323 95.323 0 0 1-9.97 9.42c3.74-9.23 8.18-18.16 12.1-26.45l49.92-107.31z" fill="#c8effe"/><path d="m366.406 236.288-15.67-6.27a80.993 80.993 0 0 0-33.68-5.76l-3.233.139c-2.71.116-4.09-3.212-2.092-5.047l2.385-2.191a81.219 81.219 0 0 0 19.75-27.89l6.63-15.51c4.67-10.91-6.35-21.93-17.26-17.26l-15.51 6.63a81.219 81.219 0 0 0-27.89 19.75l-2.189 2.384c-1.834 1.999-5.166.621-5.05-2.09l.139-3.235a80.993 80.993 0 0 0-5.76-33.68l-6.27-15.67c-3.68-9.19-15.17-10.71-21.42-4.55-1.24 1.22-2.27 2.73-3 4.55l-6.27 15.67a80.993 80.993 0 0 0-5.76 33.68l.139 3.232c.116 2.71-3.212 4.09-5.047 2.092l-2.191-2.385a81.219 81.219 0 0 0-27.89-19.75l-15.51-6.63c-10.91-4.67-21.93 6.35-17.26 17.26l6.63 15.51a81.219 81.219 0 0 0 19.75 27.89l2.385 2.191c1.997 1.835.617 5.164-2.092 5.047l-3.232-.139a80.993 80.993 0 0 0-33.68 5.76l-15.67 6.27c-11.01 4.41-11.01 20.01 0 24.42l15.67 6.27a80.993 80.993 0 0 0 33.68 5.76l3.232-.139c2.71-.116 4.09 3.212 2.092 5.047l-2.385 2.191a81.219 81.219 0 0 0-19.75 27.89l-6.63 15.51c-4.67 10.91 6.35 21.93 17.26 17.26l15.51-6.63a81.219 81.219 0 0 0 27.89-19.75l2.191-2.385c1.835-1.997 5.164-.617 5.047 2.092l-.139 3.232a80.993 80.993 0 0 0 5.76 33.68l6.27 15.67c.54 1.36 1.27 2.55 2.13 3.57l-.01.01c.11.14.23.28.36.42l.38.41c.04.04.09.08.13.13 6.25 6.17 17.75 4.66 21.43-4.54l6.27-15.67a80.993 80.993 0 0 0 5.76-33.68l-.139-3.235c-.116-2.711 3.214-4.09 5.049-2.091l2.19 2.386a81.219 81.219 0 0 0 27.89 19.75l15.51 6.63c10.91 4.67 21.93-6.35 17.26-17.26l-6.63-15.51a81.219 81.219 0 0 0-19.75-27.89l-2.385-2.191c-1.997-1.835-.617-5.164 2.092-5.047l3.233.139c11.51.49 22.99-1.46 33.68-5.76l15.67-6.27c11.01-4.407 11.01-20.007 0-24.417z" fill="#8ac9fe"/><path d="M262.518 314.118c-.45-.49-1.26-1.37-2.19-2.39-1.83-1.99-5.16-.62-5.05 2.09l.14 3.24a80.993 80.993 0 0 1-5.76 33.68l-6.27 15.67c-.83 2.08-2.07 3.77-3.55 5.06 6.35 5.56 17.3 3.87 20.87-5.06l6.27-15.67c3.5-8.69 5.44-17.91 5.77-27.24a81.678 81.678 0 0 1-10.23-9.38zm4.459-167.86-6.27-15.67c-3.57-8.93-14.52-10.62-20.87-5.06 1.48 1.29 2.72 2.98 3.55 5.06l6.27 15.67a80.993 80.993 0 0 1 5.76 33.68l-.14 3.23c-.11 2.72 3.22 4.09 5.05 2.09.91-.98 1.7-1.85 2.19-2.38 3.15-3.42 6.57-6.56 10.23-9.38a80.523 80.523 0 0 0-5.77-27.24zm99.43 90.03-15.67-6.27a80.993 80.993 0 0 0-33.68-5.76l-3.23.14c-2.71.11-4.09-3.21-2.1-5.05l2.39-2.19a81.219 81.219 0 0 0 19.75-27.89l6.63-15.51c4.67-10.91-6.35-21.93-17.26-17.26l-4.04 1.73c4.35 3.42 6.56 9.49 3.98 15.53l-6.63 15.51a81.219 81.219 0 0 1-19.75 27.89l-2.38 2.19c-2 1.84-.62 5.16 2.09 5.05l3.23-.14a80.993 80.993 0 0 1 33.68 5.76l15.67 6.27c11.01 4.41 11.01 20.01 0 24.42l-15.67 6.27a80.993 80.993 0 0 1-33.68 5.76l-3.23-.14c-2.71-.11-4.09 3.21-2.09 5.05l2.38 2.19a81.219 81.219 0 0 1 19.75 27.89l6.63 15.51c2.58 6.04.37 12.11-3.98 15.53l4.04 1.73c10.91 4.67 21.93-6.35 17.26-17.26l-6.63-15.51a81.219 81.219 0 0 0-19.75-27.89l-2.39-2.19c-1.99-1.84-.61-5.16 2.1-5.05l3.23.14c11.51.49 22.99-1.46 33.68-5.76l15.67-6.27c11.01-4.41 11.01-20.01 0-24.42z" fill="#60b7ff"/><path d="M242.889 225.532c-1.365-2.153-4.702-.939-4.363 1.588.647 4.826-3.95 8.683-8.59 7.208-2.43-.772-4.205 2.303-2.321 4.021 3.598 3.281 2.556 9.191-1.947 11.043-2.358.97-1.741 4.467.806 4.572 4.865.201 7.866 5.398 5.607 9.711-1.183 2.259 1.538 4.541 3.557 2.984 3.856-2.973 9.495-.921 10.537 3.835.546 2.49 4.097 2.49 4.643 0 1.043-4.756 6.681-6.809 10.537-3.835 2.019 1.557 4.739-.726 3.557-2.984-2.259-4.314.742-9.511 5.607-9.711 2.547-.105 3.164-3.602.806-4.572-4.503-1.853-5.545-7.762-1.947-11.043 1.884-1.718.108-4.793-2.321-4.021-4.64 1.475-9.237-2.382-8.59-7.208.339-2.527-2.998-3.741-4.363-1.588-2.607 4.113-8.608 4.113-11.215 0z" fill="#978ecb"/><g fill="#c8effe"><path d="m276.867 83.418-.56 13.17-.32 7.49a7.482 7.482 0 0 1-6.03-3.49l-20.6-32.72c-2.21-3.5-1.15-8.13 2.35-10.34 3.51-2.21 8.14-1.16 10.34 2.35zM246.278 439.548a7.487 7.487 0 0 1-10.4-2.06l-15.77-23.56.54-12.67.54-12.69 27.15 40.57c2.31 3.44 1.379 8.1-2.06 10.41zM437.117 262.058l-25.31 14.74-11.4-.49-16.35-.7 45.07-26.25c3.5-2.2 8.13-1.15 10.34 2.35 2.21 3.51 1.15 8.14-2.35 10.35zM106.427 221.108l-38.57 27.23a7.5 7.5 0 1 1-8.35-12.46l22.39-15.82 13.84.59zM165.817 126.938a7.493 7.493 0 0 1-5.07 1.98c-.55 0-1.11-.06-1.67-.18l-37.7-8.57c-4.03-.92-6.56-4.94-5.65-8.98a7.502 7.502 0 0 1 8.98-5.65l27.12 6.16 8.92 9.72zM382.018 385.158a7.501 7.501 0 0 1-7.35 6.04c-.48 0-.97-.04-1.46-.14l-25.99-3.52-10.4-11.33-5.44-5.93 44.74 6.06a7.497 7.497 0 0 1 5.9 8.82zM391.457 124.708l-6.89 27.79-8.99 8.25-11.02 10.12 12.27-49.48a7.502 7.502 0 0 1 8.98-5.65c4.04.91 6.57 4.93 5.65 8.97zM130.467 327.938l-9.82 48.18c-.7 3.57-3.84 6.05-7.34 6.05-.49 0-.98-.05-1.47-.15-4.06-.8-6.7-4.75-5.9-8.81l5.7-27.98 9.15-8.4z"/></g><path d="m129.827 169.808-47.88 8.77c-.43.07-.85.11-1.27.11-3.59 0-6.76-2.58-7.39-6.24-.69-4.08 2.05-7.96 6.13-8.66l26.89-4.92 12.49 5.81zM418.268 332.478l-27.21 5.83-12.09-5.62-10.49-4.88 46.85-10.04c4.07-.81 8.01 1.83 8.83 5.89a7.503 7.503 0 0 1-5.89 8.82zM337.877 106.838l-5.56 11.96-3.16 6.8a7.46 7.46 0 0 1-4.23-5.54l-6.51-38.11c-.7-4.08 2.05-7.96 6.13-8.65 4.08-.71 7.96 2.04 8.65 6.13zM173.338 424.158c-.5.1-.99.14-1.48.14a7.49 7.49 0 0 1-7.34-6.03l-5.85-27.17 5.64-12.13 4.85-10.42 10.07 46.78c.809 4.06-1.83 8.01-5.89 8.83zM108.708 276.848l-27.42 39.98a7.5 7.5 0 0 1-6.13 3.16c-1.5 0-3.01-.45-4.33-1.38a7.487 7.487 0 0 1-1.78-10.45l15.4-22.45 13.06-4.77zM427.927 187.838l-16.03 23.69-11.61 4.24-12.44 4.54 27.6-40.79c2.3-3.45 6.96-4.38 10.4-2.08a7.493 7.493 0 0 1 2.08 10.4zM218.627 104.558c-.83.3-1.71.46-2.58.46-1.5 0-3.01-.45-4.33-1.39l-31.55-22.34a7.487 7.487 0 0 1-1.78-10.45 7.498 7.498 0 0 1 10.45-1.79l22.7 16.07 4.52 12.39zM319.558 425.848a7.472 7.472 0 0 1-6.24 3.34c-1.43 0-2.88-.41-4.16-1.26l-22.97-14.07-4.96-13.57-3.31-9.08 39.56 24.24c3.449 2.3 4.379 6.96 2.08 10.4z" fill="#99e6fc"/></svg>