<svg height="512" viewBox="0 0 493.441 493.441" width="512" xmlns="http://www.w3.org/2000/svg"><path d="m254.535 1.633-.004-.002a19.52 19.52 0 0 0-15.62 0l-.004.002c-22.84 9.972-49.659 39.633-62.29 56.424-10.542 14.013-11.513 33.081-4.854 49.303l23.555 57.379c8.559 20.85 28.865 34.464 51.403 34.464s42.844-13.614 51.403-34.464l23.555-57.379c6.66-16.222 5.688-35.289-4.854-49.303-12.631-16.791-39.45-46.452-62.29-56.424z" fill="#ffd15b"/><path d="M316.825 58.057c-12.631-16.791-39.45-46.452-62.29-56.424l-.004-.002a19.52 19.52 0 0 0-15.62 0l-.004.002a63.073 63.073 0 0 0-3.334 1.59c22.063 11.227 46.935 38.853 58.957 54.834 10.542 14.013 11.513 33.081 4.854 49.303l-23.555 57.379c-7.118 17.339-22.362 29.665-40.255 33.327a55.533 55.533 0 0 0 11.148 1.136c22.538 0 42.844-13.614 51.403-34.464l23.555-57.379c6.658-16.222 5.687-35.289-4.855-49.302z" fill="#ffc344"/><path d="m254.535 491.809-.004.002a19.52 19.52 0 0 1-15.62 0l-.004-.002c-22.84-9.972-49.659-39.633-62.29-56.424-10.542-14.013-11.513-33.081-4.854-49.303l23.555-57.379c8.559-20.85 28.865-34.464 51.403-34.464s42.844 13.614 51.403 34.464l23.555 57.379c6.66 16.222 5.688 35.289-4.854 49.303-12.631 16.791-39.45 46.452-62.29 56.424z" fill="#ffd15b"/><path d="m321.679 386.082-23.555-57.379c-8.559-20.849-28.865-34.464-51.403-34.464-3.795 0-7.525.395-11.148 1.136 17.893 3.663 33.137 15.989 40.255 33.327l23.555 57.379c6.66 16.222 5.688 35.289-4.854 49.303-12.022 15.981-36.893 43.607-58.957 54.834a62.7 62.7 0 0 0 3.334 1.59l.004.002a19.52 19.52 0 0 0 15.62 0l.004-.002c22.84-9.972 49.659-39.633 62.29-56.424 10.543-14.013 11.514-33.08 4.855-49.302z" fill="#ffc344"/><path d="m491.809 254.535.002-.004a19.52 19.52 0 0 0 0-15.62l-.002-.004c-9.972-22.84-39.633-49.659-56.424-62.29-14.013-10.542-33.081-11.513-49.303-4.854l-57.379 23.555c-20.85 8.559-34.464 28.865-34.464 51.403s13.614 42.844 34.464 51.403l57.379 23.555c16.222 6.66 35.289 5.688 49.303-4.854 16.791-12.631 46.452-39.45 56.424-62.29z" fill="#ffd15b"/><path d="M491.809 238.906c-9.972-22.84-39.633-49.659-56.424-62.29-11.274-8.481-25.818-10.757-39.52-7.859 6.166 1.379 12.042 3.961 17.224 7.859 16.791 12.631 46.452 39.45 56.424 62.29l1.143 2.617a12.986 12.986 0 0 1 0 10.394l-1.143 2.617c-9.972 22.84-39.633 49.659-56.424 62.29-5.183 3.899-11.059 6.481-17.224 7.859 13.703 2.898 28.246.622 39.52-7.859 16.791-12.631 46.452-39.45 56.424-62.29l.002-.004a19.52 19.52 0 0 0 0-15.62z" fill="#ffc344"/><path d="M199.201 246.721c0 11.27-3.4 21.98-9.41 30.94a55.536 55.536 0 0 1-18.98 17.52c-1.94 1.1-3.97 2.08-6.07 2.94l-57.38 23.56c-16.22 6.66-35.29 5.69-49.3-4.86-16.8-12.63-46.46-39.45-56.43-62.29a19.52 19.52 0 0 1 0-15.62c9.97-22.84 39.63-49.66 56.43-62.29 14.01-10.55 33.08-11.52 49.3-4.86l57.38 23.56c2.1.86 4.13 1.84 6.07 2.94a55.545 55.545 0 0 1 28.39 48.46z" fill="#ffd15b"/><path d="M199.201 246.721c0 11.27-3.4 21.98-9.41 30.94a55.536 55.536 0 0 1-18.98 17.52c-8.05-9.25-12.92-21.33-12.92-34.55v-27.82c0-13.22 4.87-25.3 12.92-34.55a55.545 55.545 0 0 1 28.39 48.46z" fill="#ffc344"/><path d="M260.635 313.258h-27.828c-29.063 0-52.624-23.56-52.624-52.624v-27.828c0-29.063 23.56-52.624 52.624-52.624h27.828c29.063 0 52.624 23.56 52.624 52.624v27.828c-.001 29.064-23.561 52.624-52.624 52.624z" fill="#fea95c"/><path d="M260.635 180.183h-22.296c29.063 0 52.624 23.56 52.624 52.624v27.828c0 29.063-23.561 52.624-52.624 52.624h22.296c29.063 0 52.624-23.56 52.624-52.624v-27.828c-.001-29.064-23.561-52.624-52.624-52.624z" fill="#fe9738"/><path d="M200.595 83.588a7.5 7.5 0 0 1-5.989-12.007c2.898-3.855 6.147-7.863 9.657-11.912a7.5 7.5 0 0 1 11.334 9.826c-3.283 3.786-6.312 7.521-9.001 11.1a7.49 7.49 0 0 1-6.001 2.993zM292.862 83.608a7.49 7.49 0 0 1-6.001-2.993c-11.812-15.713-28.284-32.202-40.145-40.424-2.177 1.505-4.528 3.303-7.029 5.374a7.501 7.501 0 0 1-9.567-11.555c4.654-3.854 8.966-6.948 12.813-9.198a7.505 7.505 0 0 1 7.572 0c15.427 9.021 35.998 30.366 48.345 46.789a7.501 7.501 0 0 1-5.988 12.007zM246.721 469.654a7.502 7.502 0 0 1-3.786-1.025c-15.427-9.021-35.998-30.366-48.345-46.789a7.501 7.501 0 0 1 11.99-9.014c11.812 15.712 28.281 32.199 40.141 40.422 11.86-8.224 28.323-24.702 40.125-40.401a7.5 7.5 0 0 1 11.99 9.014c-12.337 16.41-32.899 37.744-48.329 46.769a7.501 7.501 0 0 1-3.786 1.024zM417.339 300.356a7.501 7.501 0 0 1-4.513-13.495c15.712-11.812 32.199-28.281 40.422-40.141-8.224-11.86-24.702-28.323-40.401-40.125a7.5 7.5 0 0 1 9.014-11.99c16.41 12.337 37.744 32.899 46.769 48.329a7.503 7.503 0 0 1 0 7.572c-9.021 15.427-30.366 35.998-46.789 48.345a7.475 7.475 0 0 1-4.502 1.505zM76.082 300.341a7.464 7.464 0 0 1-4.501-1.505c-16.41-12.337-37.744-32.899-46.769-48.329a7.503 7.503 0 0 1 0-7.572c9.021-15.427 30.366-35.998 46.789-48.345a7.501 7.501 0 0 1 9.014 11.99c-15.712 11.812-32.199 28.281-40.422 40.141 8.224 11.86 24.702 28.323 40.401 40.125a7.5 7.5 0 0 1-4.512 13.495z" fill="#ffc344"/><path d="M244.803 252.834a7.499 7.499 0 0 1-7.5-7.5c0-45.789 7.055-91.95 11.26-115.391.73-4.077 4.63-6.795 8.706-6.058a7.5 7.5 0 0 1 6.058 8.706c-4.116 22.95-11.023 68.114-11.023 112.742a7.501 7.501 0 0 1-7.501 7.501zM212.969 254.223a7.5 7.5 0 0 1-6.677-4.074c-.287-.558-29.249-56.364-78.911-107.63a7.5 7.5 0 0 1 .168-10.605 7.499 7.499 0 0 1 10.605.168c51.282 52.938 80.271 108.859 81.48 111.214a7.501 7.501 0 0 1-6.665 10.927zM276.7 252.819c-.251 0-.504-.013-.76-.039-4.109-.415-7.11-4.06-6.712-8.17.097-.998 2.604-24.742 23.132-52.146a7.5 7.5 0 0 1 12.006 8.992c-17.844 23.821-20.189 44.426-20.211 44.631-.405 3.853-3.662 6.732-7.455 6.732z" fill="#eaf6ff"/><circle cx="331.546" cy="161.025" fill="#fea95c" r="7.697"/><g fill="#fe9738"><circle cx="246.803" cy="281.567" r="7.697"/><circle cx="276.694" cy="275.801" r="7.697"/><circle cx="216.521" cy="275.801" r="7.697"/></g><circle cx="262.196" cy="98.711" fill="#fea95c" r="7.697"/><circle cx="108.653" cy="112.185" fill="#fea95c" r="7.697"/></svg>