<svg height="512" viewBox="0 0 497.002 497.002" width="512" xmlns="http://www.w3.org/2000/svg"><path d="m172.361 173.75-6.23 14.34-29.48 67.88-49.07-12.54a136.442 136.442 0 0 0-50.28-.72l-14.97 2.59c-3.82.66-5.88-4.3-2.74-6.55l24.66-17.57c2.96-2.11 2.1-6.73-1.42-7.63l-40.11-10.34c-3.75-.97-3.58-6.38.24-7.09l38.2-7.22c3.88-.73 4.78-5.88 1.39-7.89l-29.35-17.4c-3.39-2.01-1.63-7.21 2.28-6.74l29.76 3.63c3.88.47 6.31-4.06 3.78-7.03l-19.48-22.79c-2.56-3 .8-7.36 4.35-5.64l30.73 14.83c3.55 1.73 7.34-1.87 5.81-5.51l-15.11-35.82c-1.52-3.58 2.89-6.71 5.78-4.11l30.79 27.7c2.7 2.43 7.02.59 7.14-3.04l.16-4.87.85-25.38c.14-3.87 5.41-4.89 6.97-1.35l6.13 13.91c6.8 15.47 16.43 29.54 28.39 41.51zM224.071 364.84l-23.97 52.58a136.23 136.23 0 0 0-10.5 49.17l-.37 15.19c-.09 3.87-5.37 4.93-6.95 1.41l-12.39-27.49-.05-.11c-1.49-3.32-6.19-3.38-7.76-.09l-17.95 37.31c-1.68 3.51-6.96 2.27-6.92-1.61l.37-38.87c.04-3.95-4.84-5.84-7.47-2.9l-22.79 25.4c-2.62 2.93-7.39.19-6.16-3.56l9.35-28.48c1.22-3.7-2.75-6.98-6.16-5.07l-26.15 14.66c-3.43 1.93-7.05-2.21-4.68-5.36l20.54-27.25c2.38-3.16-.42-7.57-4.28-6.77l-38.07 7.84c-3.81.78-6.03-4.15-2.91-6.47l33.16-24.8c2.92-2.19 1.96-6.78-1.59-7.6l-29.48-6.89c-3.76-.88-3.73-6.26.04-7.1l14.84-3.29a136.484 136.484 0 0 0 46.23-19.76l40.56-31.74 56.2 40.59zM338.051 52.28l-9.37 11.97a136.768 136.768 0 0 0-23.14 44.65l-12.08 44.34h-89.92l-12.08-44.34a136.768 136.768 0 0 0-23.14-44.65l-9.37-11.97c-2.38-3.04 1.01-7.21 4.48-5.5l27.13 13.41c3.27 1.61 6.92-1.32 6.07-4.85l-9.86-40.23c-.92-3.77 3.93-6.17 6.37-3.15l24.41 30.25c2.48 3.07 7.44 1.44 7.61-2.5l1.45-34.1c.17-3.94 5.6-4.83 7.03-1.16l10.87 27.93c1.42 3.63 6.56 3.63 7.98 0l10.87-27.93c1.43-3.67 6.86-2.78 7.03 1.16l1.45 34.1c.17 3.94 5.13 5.57 7.61 2.5l24.41-30.25c2.44-3.02 7.29-.62 6.37 3.15l-9.86 40.23c-.85 3.53 2.8 6.46 6.07 4.85l7.71-3.81 19.42-9.6c3.47-1.71 6.86 2.46 4.48 5.5zM445.291 420.84l-16.2-3.34-21.87-4.5c-3.86-.8-6.66 3.61-4.28 6.77l20.54 27.25c2.37 3.15-1.25 7.29-4.68 5.36l-26.15-14.66c-3.41-1.91-7.38 1.37-6.16 5.07l9.35 28.48c1.23 3.75-3.54 6.49-6.16 3.56l-22.79-25.4c-2.63-2.94-7.51-1.05-7.47 2.9l.37 38.87c.04 3.88-5.24 5.12-6.92 1.61l-17.95-37.31c-1.57-3.29-6.27-3.23-7.76.09l-12.44 27.6c-1.58 3.52-6.86 2.46-6.95-1.41l-.37-15.19a136.23 136.23 0 0 0-10.5-49.17l-23.97-52.58 60.58-43.62 10.78-7.77 40.71 31.48a136.484 136.484 0 0 0 46.23 19.76l14.84 3.29c3.77.84 3.8 6.22.04 7.1l-29.48 6.89c-3.55.82-4.51 5.41-1.59 7.6l33.16 24.8c3.12 2.32.9 7.25-2.91 6.47zM494.281 203.21l-40.11 10.34c-3.52.9-4.38 5.52-1.42 7.63l24.66 17.57c3.14 2.25 1.08 7.21-2.74 6.55l-14.97-2.59a136.72 136.72 0 0 0-34.39-1.53h-.01c-5.32.43-10.62 1.18-15.88 2.25l-49.08 12.78-2.08-4.82-33.62-77.64 30.83-30.84a136.378 136.378 0 0 0 28.39-41.51l6.13-13.91c1.56-3.54 6.83-2.52 6.97 1.35l1.01 30.25c.12 3.63 4.44 5.47 7.14 3.04l30.79-27.7c2.89-2.6 7.3.53 5.78 4.11l-15.11 35.82c-1.53 3.64 2.26 7.24 5.81 5.51l30.73-14.83c3.55-1.72 6.91 2.64 4.35 5.64l-19.48 22.79c-2.53 2.97-.1 7.5 3.78 7.03l29.76-3.63c3.91-.47 5.67 4.73 2.28 6.74l-29.35 17.4c-3.39 2.01-2.49 7.16 1.39 7.89l38.2 7.22c3.82.71 3.99 6.12.24 7.09z" fill="#c365af"/><g fill="#b2529f"><path d="m172.361 173.75-6.23 14.34c-16.27-16.28-34.46-34.47-45.17-45.19-8.71-8.37-15.79-18.19-21.77-28.68l.85-25.38c.14-3.87 5.41-4.89 6.97-1.35l6.13 13.91c6.8 15.47 16.43 29.54 28.39 41.51zM338.051 52.28l-9.37 11.97a136.768 136.768 0 0 0-23.14 44.65l-12.08 44.34h-20.55c4.61-16.95 9.08-33.36 12.06-44.34 5.47-19.45 16.59-36.82 29.18-52.52l19.42-9.6c3.47-1.71 6.86 2.46 4.48 5.5zM447.667 158.587c-.962-1.479-1.044-3.523.318-5.12l19.472-22.789c2.562-3-.796-7.358-4.347-5.644l-19.546 9.439c-23.285 26.565-23.807 27.72 4.103 24.114zM279.808 55.343c-.857 3.531 2.796 6.46 6.062 4.848l15.151-7.487 9.211-37.59c.919-3.776-3.929-6.174-6.368-3.154l-19.28 23.89-4.776 19.493zM406.008 134.363c-1.531 3.633 2.255 7.236 5.807 5.511l15.615-7.541 14.248-33.791c1.521-3.582-2.888-6.715-5.776-4.113l-21.034 18.922-8.86 21.012zM377.402 119.085c.122 3.633 4.439 5.47 7.144 3.041l13.13-11.811-.717-21.479c-.133-3.868-5.409-4.888-6.97-1.347l-6.123 13.91a136.127 136.127 0 0 1-6.617 13.065l.153 4.621zM314.354 455.495c-1.553-3.248-6.151-3.22-7.697-.017.394 3.687.647 7.393.74 11.11l.378 15.196c.092 3.868 5.368 4.929 6.95 1.408l6.266-13.905c-3.094-6.427-6.637-13.792-6.637-13.792zM387.698 446.474l-15.613-8.757c-3.409-1.908-7.378 1.368-6.164 5.072l2.883 8.773 20.878 23.271c2.623 2.929 7.389.184 6.164-3.562zM402.939 419.766c-.86-1.14-1.036-2.442-.737-3.605-24.116-5.425-28.415-6.191-4.34 24.478l20.936 11.743c3.429 1.929 7.052-2.215 4.684-5.358zM346.327 449.433c-2.633-2.939-7.511-1.051-7.47 2.898l.109 11.574 13.905 28.901c1.684 3.51 6.96 2.276 6.919-1.602l-.256-27.049-13.207-14.722zM360.341 256.21l-2.08-4.82c11.77-3.06 22.5-5.85 30.59-7.96 11.97-2.66 24.23-3.12 36.45-2.25-5.32.43-10.62 1.18-15.88 2.25zM445.291 420.84l-16.2-3.34c.09-1.12-.33-2.29-1.46-3.13l-33.15-24.8c-2.92-2.19-1.96-6.78 1.59-7.6l29.47-6.89c3.77-.88 3.74-6.26-.04-7.1-40.04-5.89-63.34-23.94-91.99-46.76l10.78-7.77 40.71 31.48a136.484 136.484 0 0 0 46.23 19.76l14.84 3.29c3.77.84 3.8 6.22.04 7.1l-29.48 6.89c-3.55.82-4.51 5.41-1.59 7.6l33.16 24.8c3.12 2.32.9 7.25-2.91 6.47zM224.071 364.84l-23.97 52.58a136.23 136.23 0 0 0-10.5 49.17l-.37 15.19c-.09 3.87-5.37 4.93-6.95 1.41l-12.39-27.49c4.2-33.83 22.91-69.14 38.87-101.92zM494.042 196.115l-38.199-7.215c-3.878-.735-4.786-5.878-1.388-7.889l29.351-17.4c3.388-2.01 1.623-7.215-2.286-6.746l-16.851 2.057c.724 1.557.416 3.594-1.429 4.688l-29.351 17.4c-3.398 2.01-2.49 7.154 1.388 7.889l38.199 7.215c3.817.715 3.99 6.123.235 7.093l-40.107 10.338c-3.521.908-4.378 5.521-1.419 7.634l24.656 17.574c1.349.964 1.734 2.426 1.439 3.731.474.077.948.147 1.421.229l14.971 2.582c3.817.663 5.878-4.296 2.735-6.542l-24.656-17.574c-2.96-2.113-2.102-6.725 1.419-7.634l40.107-10.338c3.755-.968 3.582-6.377-.235-7.092z"/></g><path d="m299.921 279.14 44.37 34.31c-15.54 25.71-41.14 44.67-71.36 51.39l-20.49-44.93c-.77-1.69-2.36-2.53-3.94-2.53s-3.17.84-3.94 2.53l-20.49 44.93a110.825 110.825 0 0 1-17.99-5.65c-22.42-9.18-41.19-25.45-53.52-46l44.26-34.64c2.83-2.21 1.89-6.71-1.6-7.61l-58.57-14.97v-.3c0-27.12 9.66-51.98 25.72-71.34.1-.13.21-.26.32-.39 3.01-3.6 6.24-7 9.67-10.19l38.97 38.98c.84.84 1.84 1.24 2.81 1.28.59.03 1.18-.06 1.73-.27.03-.01.04-.01.04-.01 1.92-.74 3.33-2.77 2.67-5.2l-15.04-55.29c10.77-4.75 22.44-7.84 34.68-8.94.01 0 .03 0 .04-.01 3.37-.31 6.79-.47 10.24-.47 15.99 0 31.21 3.36 44.96 9.42l-15.04 55.29c-.68 2.51.85 4.6 2.87 5.27 1.41.47 3.08.23 4.38-1.07l38.97-38.98c21.96 20.42 35.71 49.56 35.71 81.92 0 .18 0 .36-.01.54l-58.85 15.31c-3.49.9-4.41 5.41-1.57 7.62z" fill="#ffceec"/><g fill="#ffbee6"><path d="M281.291 213.8c-1.24-.05-24.57-1.1-23.43-5.27l12.269-45.105c1.635-6.012-1.747-12.241-7.674-14.162a111.553 111.553 0 0 0-24.235-4.963c.01 0 .03 0 .04-.01 3.37-.31 6.79-.47 10.24-.47 15.99 0 31.21 3.36 44.96 9.42l-15.04 55.29c-.68 2.51.85 4.6 2.87 5.27zM214.141 214.01c-3.001.453-10.186.363-15.409.22a15.2 15.2 0 0 1-10.217-4.325l-26.144-25.575v-.005a112.214 112.214 0 0 1 9.99-10.575l38.97 38.98c.84.84 1.84 1.24 2.81 1.28zM248.501 317.37v.01c-1.58 0-3.17.84-3.94 2.53l-20.49 44.93a110.825 110.825 0 0 1-17.99-5.65l17.91-39.28c1.55-3.38 24.51-2.54 24.51-2.54zM301.487 271.523l58.854-15.318.009-.012c.148-32.568-13.628-61.918-35.707-82.448l-10.577 10.58c14.252 17.185 23.465 38.702 25.357 62.288.439 5.47-3.078 10.477-8.388 11.86l-50.114 13.05c-3.49.898-4.409 5.409-1.561 7.613l37.414 28.936c4.031 3.117 4.882 8.878 1.899 13.009-12.143 16.822-28.856 30.126-48.318 38.106l2.578 5.653c30.218-6.725 55.823-25.677 71.356-51.394l-44.363-34.31c-2.848-2.204-1.929-6.715 1.561-7.613z"/></g><path d="M231.129 287.731a7.501 7.501 0 0 1-6.223-11.677l11.638-17.356-33.249-9.562a7.5 7.5 0 1 1 4.146-14.416l43.132 12.405a7.499 7.499 0 0 1 4.157 11.385l-17.365 25.898a7.494 7.494 0 0 1-6.236 3.323z" fill="#ffbee6"/><path d="M265.872 287.731a7.492 7.492 0 0 1-6.236-3.324l-17.365-25.898a7.5 7.5 0 0 1 4.157-11.385l43.132-12.405c3.983-1.148 8.136 1.154 9.281 5.135s-1.154 8.136-5.135 9.281l-33.249 9.562 11.638 17.356a7.5 7.5 0 0 1-2.053 10.406 7.464 7.464 0 0 1-4.17 1.272z" fill="#ffbee6"/><path d="M248.501 261.832a7.5 7.5 0 0 1-7.5-7.5v-35.388c0-4.143 3.358-7.5 7.5-7.5s7.5 3.357 7.5 7.5v35.388a7.5 7.5 0 0 1-7.5 7.5z" fill="#ffbee6"/><path d="M338.258 414.943a7.496 7.496 0 0 1-6.507-3.76l-14.883-25.863a7.5 7.5 0 1 1 13.001-7.482l14.883 25.863a7.5 7.5 0 0 1-6.494 11.242zM371.02 389.887a7.468 7.468 0 0 1-4.666-1.632l-23.347-18.583a7.5 7.5 0 1 1 9.342-11.736l23.347 18.583a7.5 7.5 0 0 1-4.676 13.368zM158.805 414.943a7.46 7.46 0 0 1-3.734-1.001 7.5 7.5 0 0 1-2.76-10.241l14.884-25.863a7.498 7.498 0 0 1 10.241-2.759 7.5 7.5 0 0 1 2.76 10.241l-14.884 25.863a7.498 7.498 0 0 1-6.507 3.76zM126.042 389.887a7.5 7.5 0 0 1-4.676-13.368l23.347-18.583a7.5 7.5 0 1 1 9.342 11.736l-23.347 18.583a7.466 7.466 0 0 1-4.666 1.632zM110.833 215.051a7.581 7.581 0 0 1-1.675-.189l-28.301-6.458a7.5 7.5 0 0 1 3.336-14.625l28.301 6.458a7.5 7.5 0 0 1-1.661 14.814zM122.42 186.698a7.468 7.468 0 0 1-4.277-1.345l-21.845-15.198a7.5 7.5 0 1 1 8.566-12.312l21.845 15.198a7.5 7.5 0 0 1-4.289 13.657zM384.62 216.051a7.504 7.504 0 0 1-7.248-5.591 7.5 7.5 0 0 1 5.341-9.163l28.301-7.458c4.004-1.059 8.108 1.335 9.164 5.341a7.5 7.5 0 0 1-5.341 9.163l-28.301 7.458c-.64.169-1.283.25-1.916.25zM372.031 188.697a7.5 7.5 0 0 1-4.517-13.492l22.845-17.198a7.5 7.5 0 0 1 9.021 11.984l-22.845 17.198a7.463 7.463 0 0 1-4.504 1.508zM233.127 119.985a7.5 7.5 0 0 1-7.409-6.398l-4.202-28.278a7.5 7.5 0 1 1 14.837-2.205l4.202 28.278a7.5 7.5 0 0 1-7.428 8.603zM265.788 119.985a7.5 7.5 0 0 1-7.427-8.603l4.201-28.278a7.5 7.5 0 0 1 14.837 2.205l-4.201 28.278a7.503 7.503 0 0 1-7.41 6.398z" fill="#b2529f"/></svg>