<svg height="512" viewBox="0 0 497 497" width="512" xmlns="http://www.w3.org/2000/svg"><circle cx="253.556" cy="261.102" fill="#6fd7a3" r="7.654"/><path d="M191.791 326.796a7.5 7.5 0 0 1-5.304-12.803l35.001-35.002a7.5 7.5 0 0 1 10.607 10.607L197.094 324.6a7.485 7.485 0 0 1-5.303 2.196z" fill="#9be69d"/><circle cx="70.336" cy="261.102" fill="#6fd7a3" r="7.654"/><path d="M132.102 326.796a7.481 7.481 0 0 1-5.304-2.196l-35.002-35.002a7.5 7.5 0 0 1 10.607-10.607l35.002 35.002a7.5 7.5 0 0 1-5.303 12.803z" fill="#9be69d"/><circle cx="253.556" cy="437.177" fill="#6fd7a3" r="7.654"/><path d="M226.792 421.485a7.481 7.481 0 0 1-5.304-2.196l-35.001-35.001a7.5 7.5 0 0 1 10.607-10.607l35.001 35.001a7.5 7.5 0 0 1-5.303 12.803z" fill="#9be69d"/><circle cx="70.336" cy="437.177" fill="#6fd7a3" r="7.654"/><path d="M97.1 421.485a7.5 7.5 0 0 1-5.304-12.803l35.002-35.001a7.5 7.5 0 0 1 10.607 10.607l-35.002 35.001a7.477 7.477 0 0 1-5.303 2.196z" fill="#9be69d"/><path d="M165.981 201.279h-8.07c-19.241 0-34.367 16.454-32.752 35.627l6.942 82.389 29.844 9.112 29.844-9.112 6.942-82.389c1.617-19.173-13.509-35.627-32.75-35.627z" fill="#eaf6ff"/><path d="M165.981 201.279h-8.07c-2.342 0-4.622.248-6.819.711 15.855 3.34 27.351 18.078 25.932 34.917l-6.942 82.389 7.218 4.424 14.49-4.424 6.942-82.389c1.616-19.174-13.51-35.628-32.751-35.628z" fill="#c8effe"/><path d="M165.981 497h-8.07c-19.241 0-34.367-16.454-32.752-35.627l6.942-82.389 29.844-7.499 29.844 7.499 6.942 82.389c1.617 19.173-13.509 35.627-32.75 35.627z" fill="#eaf6ff"/><path d="m198.732 461.373-6.942-82.389-14.205-3.569-7.503 3.569 6.942 82.389c1.419 16.839-10.078 31.577-25.932 34.917a33.04 33.04 0 0 0 6.819.711h8.07c19.241-.001 34.367-16.455 32.751-35.628z" fill="#c8effe"/><path d="M309.806 353.174v-8.07c0-19.241-16.454-34.367-35.627-32.752l-82.389 6.942-8.6 29.844 8.6 29.844 82.389 6.942c19.173 1.618 35.627-13.509 35.627-32.75z" fill="#eaf6ff"/><path d="m274.179 312.353-10.792.909c14.103 3.61 24.711 16.396 24.711 31.842v8.07c0 15.447-10.608 28.233-24.711 31.842l10.792.909c19.173 1.616 35.627-13.511 35.627-32.752v-8.07c.001-19.239-16.454-34.365-35.627-32.75z" fill="#c8effe"/><path d="M14.086 353.174v-8.07c0-19.241 16.454-34.367 35.627-32.752l82.389 6.942 8.291 29.844-8.291 29.844-82.389 6.942c-19.173 1.618-35.627-13.509-35.627-32.75z" fill="#eaf6ff"/><path d="M97.793 316.409c7.124.6 12.601 6.558 12.601 13.707v38.047c0 7.149-5.477 13.107-12.601 13.707l34.309-2.89 8.291-29.844-8.291-29.844z" fill="#c8effe"/><path d="M132.102 319.295h59.688v59.688h-59.688z" fill="#6fd7a3"/><path d="M170.082 319.295h21.708v59.688h-21.708z" fill="#3ec3a4"/><circle cx="161.946" cy="349.14" fill="#9be69d" r="7.654"/><g><circle cx="426.664" cy="59.823" fill="#6fd7a3" r="7.654"/><path d="M364.898 125.517a7.5 7.5 0 0 1-5.304-12.803l35.001-35.002a7.5 7.5 0 0 1 10.607 10.607l-35.001 35.002a7.481 7.481 0 0 1-5.303 2.196z" fill="#9be69d"/><circle cx="243.444" cy="59.823" fill="#6fd7a3" r="7.654"/><path d="M305.21 125.517a7.481 7.481 0 0 1-5.304-2.196l-35.002-35.002a7.5 7.5 0 0 1 10.607-10.607l35.002 35.002a7.5 7.5 0 0 1-5.303 12.803z" fill="#9be69d"/><circle cx="426.664" cy="235.898" fill="#6fd7a3" r="7.654"/><path d="M399.899 220.206a7.481 7.481 0 0 1-5.304-2.196l-35.001-35.001a7.5 7.5 0 0 1 10.607-10.607l35.001 35.001a7.5 7.5 0 0 1-5.303 12.803z" fill="#9be69d"/><circle cx="243.444" cy="235.898" fill="#6fd7a3" r="7.654"/><path d="M270.208 220.206a7.5 7.5 0 0 1-5.304-12.803l35.002-35.001a7.5 7.5 0 0 1 10.607 10.607l-35.002 35.001a7.477 7.477 0 0 1-5.303 2.196z" fill="#9be69d"/><path d="M339.089 0h-8.07c-19.241 0-34.367 16.454-32.752 35.627l6.942 82.389 29.844 9.112 29.844-9.112 6.942-82.389C373.456 16.454 358.33 0 339.089 0z" fill="#eaf6ff"/><path d="M339.089 0h-8.07c-2.342 0-4.622.248-6.819.711 15.855 3.34 27.351 18.078 25.932 34.917l-6.942 82.389 7.218 4.424 14.49-4.424 6.942-82.389C373.456 16.454 358.33 0 339.089 0z" fill="#c8effe"/><path d="M339.089 295.721h-8.07c-19.241 0-34.367-16.454-32.752-35.627l6.942-82.389 29.844-7.499 29.844 7.499 6.942 82.389c1.617 19.173-13.509 35.627-32.75 35.627z" fill="#eaf6ff"/><path d="m371.84 260.094-6.942-82.389-14.205-3.569-7.503 3.569 6.942 82.389c1.419 16.839-10.078 31.577-25.932 34.917a33.04 33.04 0 0 0 6.819.711h8.07c19.241-.001 34.367-16.455 32.751-35.628z" fill="#c8effe"/><path d="M482.914 151.895v-8.07c0-19.241-16.454-34.367-35.627-32.752l-82.389 6.942-8.6 29.844 8.6 29.844 82.389 6.942c19.173 1.617 35.627-13.509 35.627-32.75z" fill="#eaf6ff"/><path d="m447.287 111.074-10.792.909c14.103 3.61 24.711 16.396 24.711 31.842v8.07c0 15.447-10.608 28.233-24.711 31.842l10.792.909c19.173 1.616 35.627-13.511 35.627-32.752v-8.07c.001-19.239-16.454-34.366-35.627-32.75z" fill="#c8effe"/><path d="M187.193 151.895v-8.07c0-19.241 16.454-34.367 35.627-32.752l82.389 6.942 8.291 29.844-8.291 29.844-82.389 6.942c-19.172 1.617-35.627-13.509-35.627-32.75z" fill="#eaf6ff"/><path d="M270.901 115.134c7.124.6 12.601 6.558 12.601 13.707v38.047c0 7.149-5.477 13.107-12.601 13.707l34.309-2.89 8.291-29.844-8.291-29.844z" fill="#c8effe"/><path d="M305.21 118.016h59.688v59.688H305.21z" fill="#6fd7a3"/><path d="M343.19 118.016h21.708v59.688H343.19z" fill="#3ec3a4"/><circle cx="335.054" cy="147.86" fill="#9be69d" r="7.654"/></g><g><path d="m393.602 439.575-4.106 4.712c-3.545 4.068-9.867 4.068-13.412 0l-4.106-4.712a77.996 77.996 0 0 1-19.193-51.239c0-15.632 12.672-28.304 28.304-28.304h3.402c15.632 0 28.304 12.672 28.304 28.304a77.998 77.998 0 0 1-19.193 51.239z" fill="#9be69d"/><path d="M384.491 360.031h-3.403c-3.204 0-6.281.54-9.153 1.522 11.138 3.806 19.151 14.355 19.151 26.782a77.993 77.993 0 0 1-19.151 51.189l.042.05 4.106 4.712c3.545 4.068 9.867 4.068 13.412 0l4.106-4.712a77.996 77.996 0 0 0 19.193-51.239c.001-15.632-12.671-28.304-28.303-28.304z" fill="#6fd7a3"/><path d="m456.174 402.799.428 6.235c.37 5.384-4.1 9.854-9.484 9.484l-6.235-.428a77.99 77.99 0 0 1-49.803-22.66c-11.053-11.053-11.053-28.974 0-40.028l2.406-2.406c11.053-11.053 28.974-11.053 40.028 0a78.003 78.003 0 0 1 22.66 49.803z" fill="#9be69d"/><path d="m456.602 409.035-.428-6.235a77.99 77.99 0 0 0-22.66-49.803c-8.345-8.345-20.604-10.386-30.868-6.129a28.213 28.213 0 0 1 9.16 6.129 77.99 77.99 0 0 1 22.66 49.803l.428 6.235c.219 3.187-1.266 6.044-3.624 7.776a77.986 77.986 0 0 0 9.613 1.279l6.235.428c5.384.37 9.854-4.1 9.484-9.483z" fill="#6fd7a3"/><g><path d="m105.398 57.425 4.106-4.712c3.545-4.068 9.867-4.068 13.412 0l4.106 4.712a77.996 77.996 0 0 1 19.193 51.239c0 15.632-12.672 28.304-28.304 28.304h-3.402c-15.632 0-28.304-12.672-28.304-28.304a77.998 77.998 0 0 1 19.193-51.239z" fill="#9be69d"/><path d="m127.022 57.425-4.106-4.712c-3.545-4.068-9.867-4.068-13.412 0l-4.106 4.712-.042.05a77.993 77.993 0 0 1 19.151 51.189c0 12.427-8.013 22.976-19.151 26.782a28.258 28.258 0 0 0 9.153 1.522h3.402c15.632 0 28.304-12.672 28.304-28.304a77.993 77.993 0 0 0-19.193-51.239z" fill="#6fd7a3"/><path d="m42.826 94.201-.428-6.235c-.37-5.384 4.1-9.854 9.484-9.484l6.235.428a77.99 77.99 0 0 1 49.803 22.66c11.053 11.053 11.053 28.974 0 40.028l-2.406 2.406c-11.053 11.053-28.974 11.053-40.028 0a78.003 78.003 0 0 1-22.66-49.803z" fill="#9be69d"/><path d="M107.92 101.57a77.99 77.99 0 0 0-49.803-22.66l-6.235-.428a8.822 8.822 0 0 0-5.86 1.708 77.99 77.99 0 0 1 40.19 21.381c11.053 11.053 11.053 28.974 0 40.028l-2.406 2.406a28.203 28.203 0 0 1-9.16 6.129c10.264 4.256 22.522 2.216 30.868-6.129l2.406-2.406c11.054-11.054 11.054-28.975 0-40.029z" fill="#6fd7a3"/></g></g></svg>