<svg height="512" viewBox="0 0 496.999 496.999" width="512" xmlns="http://www.w3.org/2000/svg"><path d="m255.679 269.528-30.78 124.84-14.72 16.09-31.96 34.92c-9.09 11.74-22.47 17.57-35.82 17.57-13.96 0-27.89-6.37-36.9-19a45.34 45.34 0 0 0-21.46-16.29l-22.65-8.21a45.313 45.313 0 0 1-28.87-33.1l-5.06-23.55a45.53 45.53 0 0 0-4.82-12.74 45.587 45.587 0 0 0-8.4-10.73c-22.1-20.83-17.86-57.07 8.45-72.24l58.09-38.99 16.67-11.19 87.13-2.13 22.85-.56 24.12 27.65 6.68 7.66z" fill="#ffd15b"/><path d="m184.963 213.986-.388.793-87.125 2.13-16.67 11.19a25.29 25.29 0 0 0 3.99 5.17l7.473 7.467a8.12 8.12 0 0 1 .792 10.569l-14.486 19.612c-9.44 12.78-3.746 31.05 11.282 36.205l18.212 6.247a23.509 23.509 0 0 1 15.761 19.859l1.935 19.026c1.705 16.762 19.97 26.342 34.729 18.215l30.769-16.944 7.94-81.884z" fill="#ffc344"/><path d="m226.181 389.166 29.498-119.64-17.45-20-6.678-7.656-24.124-27.655-19.676.481 23.705 27.174 13.324 15.274-2.67 1.512-22.93 12.98-7.94 81.89 8.426 25.365a27.766 27.766 0 0 1-5.867 27.498l-35.679 38.986c-6.796 8.773-15.984 14.229-25.765 16.434 16.371 3.682 34.47-1.729 45.861-16.434l31.963-34.925.002.005 14.72-16.09v-.002z" fill="#ffc344"/><path d="m186.249 176.326-10.43 24.19-.12.27-10.31 23.93-78.39 10.78-21.7 2.99-37.79-9.43c-15.68-3.39-25.69-17.2-25.69-31.85 0-5.27 1.29-10.65 4.08-15.69a32.529 32.529 0 0 0 3.9-18.94l-1.71-17.21a32.524 32.524 0 0 1 12.49-28.96l13.68-10.57a32.548 32.548 0 0 0 11.1-15.84c6.64-20.76 31.42-29.25 49.4-16.91l32.73 21.62 23.1 15.27z" fill="#fea95c"/><path d="m186.25 176.327-35.66-66.354-11-7.268-12.101-8 .001.004-32.732-21.626C85.939 67.03 75.483 66 66.333 68.964a32.65 32.65 0 0 1 8.33 4.119l47.321 31.266a24.377 24.377 0 0 1 10.48 15.631l5.246 26.656h-17.25c-14.15 0-25.54 11.64-25.23 25.79l.08 3.83c0 .18.01.35.01.53 0 7.44-3.29 14.51-8.98 19.31-9.663 8.144-11.606 21.845-5.455 32.188 1.381 2.322-.043 5.297-2.719 5.665l-20.008 2.753 7.142 1.782 46.352-6.378 53.737-7.39 5.406-12.547 5.023-11.65 10.432-24.192z" fill="#fe9738"/><path d="m490.014 207.84 4.484-23.665a45.316 45.316 0 0 0-13.764-41.714l-17.687-16.35a45.313 45.313 0 0 1-13.453-23.342c-6.658-29.629-40.003-44.453-66.461-29.546l-70.896 36.654-68.745 95.346 11.499 34.85 11.499 34.85 99.45 36.97 91.326-13.992c30.134-3.765 48.109-35.522 35.828-63.296a45.308 45.308 0 0 1-3.08-26.765z" fill="#ffd15b"/><path d="M493.093 234.604a45.314 45.314 0 0 1-3.079-26.765l4.484-23.665a45.316 45.316 0 0 0-13.764-41.714l-17.687-16.35a45.313 45.313 0 0 1-13.453-23.342c-5.669-25.224-30.678-39.704-54.314-34.257 16.241 3.708 30.169 16.235 34.219 34.257a45.324 45.324 0 0 0 13.453 23.342l17.687 16.35a45.317 45.317 0 0 1 13.764 41.714l-4.484 23.665a45.316 45.316 0 0 0 3.079 26.765c12.282 27.774-5.694 59.531-35.828 63.296l-77.095 11.812 5.865 2.18 91.326-13.992c30.133-3.765 48.109-35.522 35.827-63.296z" fill="#ffc344"/><path d="m262.297 46.507-15.125-8.38a32.534 32.534 0 0 0-31.535 0l-15.125 8.38a32.533 32.533 0 0 1-18.939 3.921c-21.697-2.126-39.304 17.273-35.093 38.664l11.33 57.547 47.249 67.346h52.692L305 146.639l11.33-57.547c4.212-21.391-13.396-40.789-35.093-38.664a32.524 32.524 0 0 1-18.94-3.921z" fill="#ffd15b"/><path d="M281.236 50.429a32.535 32.535 0 0 1-18.94-3.921l-15.125-8.38a32.533 32.533 0 0 0-25.815-2.486 32.563 32.563 0 0 1 5.72 2.486l15.125 8.38a32.533 32.533 0 0 0 18.939 3.921c21.697-2.126 39.304 17.273 35.093 38.664l-9.107 46.257a54.335 54.335 0 0 1-8.832 20.71l-40.64 57.926h20.095l47.249-67.346 11.33-57.547c4.213-21.391-13.394-40.79-35.092-38.664zM345.73 210.362a7.5 7.5 0 0 1-2.403-14.607l68.034-23.021a7.5 7.5 0 0 1 4.807 14.209l-68.034 23.021a7.474 7.474 0 0 1-2.404.398z" fill="#ffc344"/><path d="m297.822 419.623 17.291-.158a32.534 32.534 0 0 0 27.443-15.535l9.034-14.744a32.538 32.538 0 0 1 14.55-12.743c19.929-8.839 25.695-34.395 11.492-50.935l-38.21-44.498-74.295-35.33-22.927 12.979-22.927 12.979-7.94 81.884 18.49 55.661c6.873 20.69 31.752 28.897 49.586 16.358a32.544 32.544 0 0 1 18.413-5.918z" fill="#ffd15b"/><path d="m377.632 325.508-38.21-44.498-74.295-35.33-9.174 5.193 56.307 26.776a36.955 36.955 0 0 1 12.166 9.298l33.112 38.561c14.203 16.54 8.437 42.095-11.492 50.935a32.526 32.526 0 0 0-14.55 12.743l-9.034 14.744a32.532 32.532 0 0 1-27.443 15.535l-17.291.158a32.53 32.53 0 0 0-18.414 5.918 32.673 32.673 0 0 1-8.628 4.335c9.266 2.998 19.863 1.894 28.724-4.335a32.529 32.529 0 0 1 18.413-5.918l17.291-.158a32.534 32.534 0 0 0 27.443-15.535l9.034-14.744a32.538 32.538 0 0 1 14.55-12.743c19.928-8.84 25.694-34.395 11.491-50.935z" fill="#ffc344"/><path d="m257.75 213.986 7.377 31.695 74.295 35.33 25.634-26.166c7.086-7.233 7.341-18.725.583-26.266l-15.526-17.323a19.212 19.212 0 0 1-4.432-17.061l4.524-19.994c2.468-10.91-4.869-21.613-15.934-23.245L305 146.639z" fill="#fea95c"/><path d="M88.145 370.589a7.501 7.501 0 0 1-4.461-13.533l52.846-39.03a7.5 7.5 0 0 1 8.911 12.066l-52.846 39.03a7.459 7.459 0 0 1-4.45 1.467z" fill="#ffc344"/><path d="m365.638 228.579-15.526-17.323a19.213 19.213 0 0 1-4.432-17.062l4.524-19.994c2.468-10.91-4.869-21.613-15.934-23.245l-29.271-4.317-1.884 2.686 11.06 1.631c11.066 1.632 18.403 12.335 15.934 23.245l-4.524 19.994a19.21 19.21 0 0 0 4.432 17.062l15.526 17.323c6.758 7.541 6.504 19.032-.583 26.266l-19.247 19.647 13.709 6.519 25.633-26.166c7.087-7.234 7.342-18.726.583-26.266z" fill="#fe9738"/><path d="m219.269 271.636-2.17 22.42-5.77 59.47-30.77 16.94c-14.75 8.13-33.02-1.45-34.72-18.21l-1.94-19.03a23.512 23.512 0 0 0-15.76-19.86l-18.21-6.25c-15.03-5.15-20.73-23.42-11.29-36.2l18.64-25.24h72.25l15.53-31.69z" fill="#fea95c"/><g fill="#fe9738"><path d="m219.269 271.636-2.17 22.42-5.01-3.67a14.54 14.54 0 0 0-17.17 0l-9.06 6.64c-10.2 7.46-24.4-.74-23.04-13.3l1.22-11.17c.68-6.3-2.79-12.31-8.59-14.87l-10.28-4.53c-3.64-1.61-6.14-4.34-7.48-7.48h51.84l15.53-31.69z"/><path d="m205.058 213.986-13.368 27.287 7.487 30.366-6.835 70.483a21.714 21.714 0 0 1-11.139 16.926l-20.736 11.419c-.425.234-.854.45-1.285.655 6.467 3.061 14.322 3.231 21.38-.655l30.769-16.944 7.94-81.884zM113.989 192.628a7.455 7.455 0 0 1-3.214-.729L66.05 170.642a7.5 7.5 0 1 1 6.44-13.547l44.724 21.258a7.5 7.5 0 0 1-3.225 14.275z"/></g><path d="M231.404 199.626a7.5 7.5 0 0 1-7.5-7.5v-26.258c0-4.143 3.358-7.5 7.5-7.5s7.5 3.357 7.5 7.5v26.258a7.5 7.5 0 0 1-7.5 7.5zM231.404 137.973a7.5 7.5 0 0 1-7.5-7.5v-29.85c0-4.143 3.358-7.5 7.5-7.5s7.5 3.357 7.5 7.5v29.85a7.5 7.5 0 0 1-7.5 7.5z" fill="#ffc344"/><path d="m205.059 213.986-15.53 31.69h-72.25l-12.42-12.41c-10.47-10.46-9.74-27.63 1.57-37.17 5.7-4.79 8.98-11.85 8.98-19.28 0-.19-.01-.37-.01-.56l-.08-3.83c-.3-14.15 11.09-25.79 25.24-25.79h17.25l23.75 33.86z" fill="#ffead9"/><path d="M290.917 355.084a7.498 7.498 0 0 1-6.669-4.059l-28.84-55.8a7.5 7.5 0 1 1 13.325-6.886l28.84 55.8a7.5 7.5 0 0 1-6.656 10.945z" fill="#ffc344"/><path d="m205.059 213.986-3.342-4.762-43.908-62.585h-17.25c-.926 0-1.84.052-2.74.15l22.914 32.66c2.428 3.46 3.159 7.768 2.297 11.906a14.784 14.784 0 0 0-.211 4.631l1.22 11.17a14.55 14.55 0 0 1-8.59 14.87l-10.28 4.53c-7.92 3.49-10.41 12.29-7.48 19.12h31.749l-.002.004h20.095l12.954-26.442z" fill="#fedba6"/><path d="m239.989 189.32 9.067-6.637c10.195-7.463 24.4.738 23.034 13.299l-1.215 11.17a14.535 14.535 0 0 0 8.585 14.87l10.281 4.533c11.561 5.097 11.561 21.5 0 26.598l-10.281 4.533a14.533 14.533 0 0 0-8.585 14.87l1.215 11.17c1.366 12.56-12.84 20.762-23.034 13.299l-9.067-6.637a14.534 14.534 0 0 0-17.17 0l-9.067 6.637c-10.195 7.463-24.4-.738-23.034-13.299l1.215-11.17a14.535 14.535 0 0 0-8.585-14.87l-10.281-4.533c-11.561-5.097-11.561-21.5 0-26.598l10.281-4.533a14.533 14.533 0 0 0 8.585-14.87l-1.215-11.17c-1.366-12.56 12.84-20.762 23.034-13.299l9.067 6.637a14.534 14.534 0 0 0 17.17 0z" fill="#fe646f"/><path d="m289.742 226.555-10.281-4.533a14.533 14.533 0 0 1-8.585-14.87l1.215-11.17c1.366-12.56-12.84-20.762-23.034-13.299l-6.513 4.768c1.338 2.441 1.997 5.344 1.65 8.531l-1.215 11.17a14.535 14.535 0 0 0 8.585 14.87l10.281 4.533c11.561 5.097 11.561 21.5 0 26.598l-10.281 4.533a14.533 14.533 0 0 0-8.585 14.87l1.215 11.17c.346 3.186-.312 6.09-1.65 8.531l6.513 4.768c10.195 7.463 24.4-.738 23.034-13.299l-1.215-11.17a14.535 14.535 0 0 1 8.585-14.87l10.281-4.533c11.56-5.098 11.56-21.501 0-26.598z" fill="#fd4755"/><circle cx="231.404" cy="237.406" fill="#fd4755" r="7.654"/></svg>