<svg height="512" viewBox="0 0 497 497" width="512" xmlns="http://www.w3.org/2000/svg"><path d="M172.49 497a7.499 7.499 0 0 1-7.5-7.5v-39.69c0-14.468-5.633-28.064-15.861-38.284l-10.192-10.191a7.5 7.5 0 0 1 10.607-10.607l10.189 10.189c13.062 13.052 20.257 30.416 20.257 48.894v39.69a7.499 7.499 0 0 1-7.5 7.499zM324.51 497c4.143 0 7.5-3.357 7.5-7.5v-39.69c0-14.468 5.633-28.064 15.861-38.284l10.192-10.191a7.5 7.5 0 0 0-10.607-10.607l-10.189 10.189c-13.062 13.052-20.257 30.416-20.257 48.894v39.69a7.499 7.499 0 0 0 7.5 7.499z" fill="#6fd7a3"/><path d="M220.9 137.32v169.03l-24.13-23.3-65.55-63.32a61.007 61.007 0 0 0-28.58-15.54l-49.52-11.51v-55.36l41.515-7.268 71.053 7.264z" fill="#d691c6"/><path d="M220.9 137.32v169.03l-24.13-23.3a144.012 144.012 0 0 0-13.34-41.18l-30.95-61.83a85.341 85.341 0 0 1-9.02-38.18v-4.54l5.422-1.722 16.807 1.718z" fill="#cd7cbb"/><path d="M77.496 160.939v54.269c0 8.874-10.609 13.451-17.064 7.362l-16.637-15.693a47.973 47.973 0 0 1-15.055-34.896v-30.77c0-23.577 22.947-40.333 45.404-33.155l91.544 29.26h-64.57c-13.046 0-23.622 10.576-23.622 23.623z" fill="#ffceec"/><g fill="#ffbee6"><path d="M55.266 160.939v54.269c0 .789-.087 1.542-.245 2.258l5.41 5.104c6.456 6.089 17.064 1.512 17.064-7.362v-54.269c0-13.046 10.576-23.623 23.623-23.623h-22.23c-13.046 0-23.622 10.577-23.622 23.623zM74.144 108.056c-7.472-2.388-14.994-2.115-21.711.166l91.025 29.094h22.23z"/></g><path d="M443.88 137.32v55.36l-2.89.67-43.72 10.16-2.91.68a61.007 61.007 0 0 0-28.58 15.54l-89.68 86.62V137.32l55.212-.004 73.418-7.752z" fill="#d691c6"/><path d="M219.22 239.88a7.52 7.52 0 0 1-5.83 2.77c-1.66 0-3.33-.55-4.72-1.69l-42.82-34.21-33.61-26.85c-3.21-2.61-3.7-7.34-1.08-10.55 2.61-3.21 7.34-3.69 10.55-1.08l8.48 6.77 67.94 54.29a7.498 7.498 0 0 1 1.09 10.55z" fill="#ffceec"/><path d="M219.22 239.88a7.52 7.52 0 0 1-5.83 2.77c-1.66 0-3.33-.55-4.72-1.69l-42.82-34.21-13.37-26.71a77.62 77.62 0 0 1-2.29-5l67.94 54.29a7.498 7.498 0 0 1 1.09 10.55z" fill="#ffbee6"/><path d="M283.605 242.647a7.482 7.482 0 0 1-5.821-2.766 7.5 7.5 0 0 1 1.082-10.551l76.421-61.061a7.5 7.5 0 0 1 9.469 11.633l-76.421 61.061a7.46 7.46 0 0 1-4.73 1.684z" fill="#ffceec"/><path d="M443.88 137.32v48.84c-.76 2.48-1.73 4.88-2.89 7.19l-43.72 10.16v-42.57c0-13.05-10.57-23.62-23.62-23.62l31.08-7.756z" fill="#cd7cbb"/><path d="M419.504 160.939v54.269c0 8.874 10.609 13.451 17.064 7.362l16.637-15.693a47.973 47.973 0 0 0 15.055-34.896v-30.77c0-23.577-22.947-40.333-45.404-33.155l-91.544 29.26h64.57c13.046 0 23.622 10.576 23.622 23.623z" fill="#ffceec"/><path d="m422.856 108.056-.519.166c13.471 4.574 23.693 17.257 23.693 32.989v30.77a47.968 47.968 0 0 1-15.055 34.896l-11.227 10.59c1.612 7.344 10.938 10.652 16.82 5.104l16.637-15.693a47.97 47.97 0 0 0 15.055-34.896v-30.77c0-23.578-22.947-40.334-45.404-33.156z" fill="#ffbee6"/><path d="M258.475 497h-19.949a6.647 6.647 0 0 1-6.647-6.647V337.716h33.243v152.637a6.648 6.648 0 0 1-6.647 6.647z" fill="#6fd7a3"/><path d="M172.938 116.595a7.5 7.5 0 0 1-6.995-4.793l-29.795-75.38a7.499 7.499 0 0 1 4.284-9.702 7.495 7.495 0 0 1 9.702 4.284l29.795 75.38a7.499 7.499 0 0 1-4.284 9.702 7.464 7.464 0 0 1-2.707.509zM174.32 154.746a7.486 7.486 0 0 1-5.762-2.694L111.76 84.405a7.5 7.5 0 0 1 .952-10.563 7.498 7.498 0 0 1 10.563.952l56.799 67.647a7.5 7.5 0 0 1-5.754 12.305z" fill="#ffead9"/><path d="M246.5 337.716v152.088c0 3.29-2.13 6.201-5.266 7.196h17.24a6.647 6.647 0 0 0 6.647-6.647V337.716z" fill="#3ec3a4"/><path d="M331.31 91.92v49.94c0 13.25-3.09 26.33-9.02 38.18l-30.95 61.83a144.048 144.048 0 0 0-15.24 64.48v52.47c0 13.13-10.65 23.78-23.78 23.78h-7.64c-2.54 0-4.99-.4-7.29-1.14-9.57-3.08-16.49-12.05-16.49-22.64v-52.47c0-22.39-5.22-44.46-15.24-64.48l-30.95-61.83a85.341 85.341 0 0 1-9.02-38.18V91.92l82.75-15.32 60.46 11.18z" fill="#c365af"/><path d="M323.86 121.701c-.9 0-1.816-.163-2.707-.509a7.499 7.499 0 0 1-4.284-9.702l29.795-80.485a7.498 7.498 0 0 1 9.702-4.284 7.499 7.499 0 0 1 4.284 9.702l-29.795 80.485a7.5 7.5 0 0 1-6.995 4.793zM319.752 158.363a7.5 7.5 0 0 1-5.754-12.305l59.523-71.264a7.5 7.5 0 1 1 11.515 9.611l-59.523 71.264a7.48 7.48 0 0 1-5.761 2.694z" fill="#ffead9"/><path d="M331.31 91.92v49.94c0 13.25-3.09 26.33-9.02 38.18l-30.95 61.83a144.048 144.048 0 0 0-15.24 64.48v52.47c0 13.13-10.65 23.78-23.78 23.78h-7.64c-2.54 0-4.99-.4-7.29-1.14 9.56-3.09 16.48-12.05 16.48-22.64v-52.48c0-22.38 5.22-44.45 15.24-64.47l30.95-61.83a85.341 85.341 0 0 0 9.02-38.18V91.92c0-1.39-.06-2.78-.18-4.14z" fill="#b2529f"/><path d="m331.311 91.921-49.232 16.189a16.985 16.985 0 0 1-18.187-5.065l-1.328-1.546c-6.967-8.108-19.603-7.84-26.221.556a16.984 16.984 0 0 1-18.265 5.741l-52.389-15.875c0-26.338 21.347-47.685 47.685-47.685h70.252c26.338 0 47.685 21.347 47.685 47.685z" fill="#ffceec"/><path d="M283.626 44.236h-22.23c23.133 0 42.416 16.468 46.766 38.321 1.035 5.201-2.061 10.344-7.099 12l-34.159 11.233a16.978 16.978 0 0 0 15.174 2.32l49.232-16.189c.001-26.338-21.346-47.685-47.684-47.685z" fill="#ffbee6"/><path d="m148.94 391.33-11.1 11.1c-5.47 5.46-14.33 5.46-19.8 0l-5.08-5.08a23.276 23.276 0 0 0-7.84-5.15c-2.97-1.18-6.23-2.33-9.68-3.52-22-7.6-51.08-16.4-53.47-39.35-4.99-19.97-3.88-30.13 9.02-43.11 1.51-1.52 3.19-3.08 5.03-4.7 1.92-2.11 4.04-3.76 6.31-5.03 9.9-5.55 22.65-3.83 33.51-1.03 26.49 2.69 34.23 41.34 42.9 63.19 1.16 2.93 2.9 5.58 5.13 7.81l5.07 5.07c5.47 5.47 5.47 14.33 0 19.8z" fill="#c365af"/><path d="m148.94 391.33-11.1 11.1c-5.21 5.2-13.5 5.45-19 .73.27-.23.53-.47.79-.73l11.1-11.1c5.47-5.47 5.47-14.33 0-19.8l-5.07-5.07a23.15 23.15 0 0 1-5.13-7.81c-8.67-21.85-16.41-60.5-42.9-63.19-2.59-.67-5.28-1.27-8.01-1.73 8.42-1.93 17.88-.42 26.22 1.73 26.49 2.69 34.23 41.34 42.9 63.19 1.16 2.93 2.9 5.58 5.13 7.81l5.07 5.07c5.47 5.47 5.47 14.33 0 19.8z" fill="#b2529f"/><path d="M455.03 349.33c-2.34 22.38-30.05 31.31-51.82 38.78-2.18.75-4.29 1.48-6.32 2.21a42.98 42.98 0 0 0-10.62 5.6c-1.9 1.36-3.69 2.88-5.35 4.54l-1.96 1.97c-5.47 5.46-14.33 5.46-19.8 0l-11.1-11.1c-5.47-5.47-5.47-14.33 0-19.8l1.96-1.96a43.31 43.31 0 0 0 10.14-15.97c8.01-22.27 16.45-55.64 41-58.14 10.77-2.77 23.4-4.49 33.26.89 2.37 1.29 4.57 2.98 6.56 5.17 1.78 1.56 3.4 3.06 4.86 4.54 13.06 13.05 14.2 23.21 9.19 43.27z" fill="#c365af"/><path d="M455.03 349.33c-2.57 24.62-35.84 32.96-58.14 40.99a43.391 43.391 0 0 0-15.97 10.14l-1.96 1.97c-5.36 5.35-13.98 5.46-19.47.31.11-.1.21-.2.32-.31l1.97-1.97c4.51-4.51 9.96-7.98 15.96-10.14 22.31-8.03 55.57-16.37 58.14-40.99 5.57-22.31 3.54-32.38-14.04-47.81-3.75-4.13-8.29-6.51-13.2-7.7 11.54-2.03 23.94-1.56 32.34 7.7 17.59 15.43 19.62 25.5 14.05 47.81z" fill="#b2529f"/><g fill="#fea95c"><circle cx="94.906" cy="52.89" r="7.596"/><circle cx="213.3" cy="9.842" r="7.596"/><circle cx="401.891" cy="52.89" r="7.596"/><circle cx="283.497" cy="9.842" r="7.596"/></g><path d="M248.5 260.393a7.499 7.499 0 0 1-7.5-7.5v-87.029c0-4.143 3.357-7.5 7.5-7.5s7.5 3.357 7.5 7.5v87.029a7.5 7.5 0 0 1-7.5 7.5zM112.96 397.35a23.276 23.276 0 0 0-7.84-5.15c-2.97-1.18-6.23-2.33-9.68-3.52-10.64-36.49-37.35-73.2-44.45-82.46 1.51-1.52 3.19-3.08 5.03-4.7 1.92-2.11 4.04-3.76 6.31-5.03 10.04 12.72 42.42 57.51 50.63 100.86zM445.84 306.06c-4.18 5.59-10.91 15.07-17.95 26.74-9.54 15.82-19.64 35.66-24.68 55.31-2.18.75-4.29 1.48-6.32 2.21a42.98 42.98 0 0 0-10.62 5.6c6.56-41.04 35.73-83.35 48.15-99.57 2.37 1.29 4.57 2.98 6.56 5.17 1.78 1.56 3.4 3.06 4.86 4.54z" fill="#b2529f"/><circle cx="136.976" cy="17.438" fill="#fea95c" r="17.438"/><path d="M136.976 0c-2.989 0-5.801.754-8.26 2.08 5.464 2.945 9.178 8.717 9.178 15.359s-3.715 12.414-9.178 15.359a17.36 17.36 0 0 0 8.26 2.08c9.631 0 17.438-7.807 17.438-17.438S146.607 0 136.976 0z" fill="#fe9738"/><circle cx="359.821" cy="17.438" fill="#fea95c" r="17.438"/><path d="M359.821 0c-2.989 0-5.801.754-8.26 2.08 5.464 2.945 9.178 8.717 9.178 15.359s-3.715 12.414-9.178 15.359a17.36 17.36 0 0 0 8.26 2.08c9.631 0 17.438-7.807 17.438-17.438S369.452 0 359.821 0z" fill="#fe9738"/></svg>