<svg height="512" viewBox="0 0 497 497" width="512" xmlns="http://www.w3.org/2000/svg"><path d="M290.835 279.32 248.5 248.501l-42.335 30.819c-24.924 18.145-36.138 49.739-28.23 79.536L205.9 464.231c11.595 43.693 73.605 43.693 85.201 0l27.965-105.374c7.907-29.798-3.307-61.392-28.231-79.537z" fill="#fe646f"/><path d="M290.835 279.32 248.5 248.501l-10.493 7.639 31.842 23.18c24.924 18.145 36.138 49.739 28.23 79.537L270.114 464.23c-4.686 17.658-17.608 28.176-32.107 31.562 21.377 4.991 46.184-5.527 53.094-31.562l27.965-105.374c7.907-29.797-3.307-61.391-28.231-79.536z" fill="#fd4755"/><path d="M248.5 467c-4.043 0-11.188-1.359-13.604-10.465l-27.965-105.374c-4.695-17.69 2.093-36.814 16.891-47.587l24.678-55.073 24.678 55.073c14.798 10.772 21.585 29.896 16.891 47.587l-27.964 105.374C259.688 465.641 252.543 467 248.5 467z" fill="#ffead9"/><path d="M273.178 303.574 248.5 248.501l-10.493 23.417 14.185 31.656c14.798 10.772 21.585 29.896 16.891 47.587l-27.964 105.374c-.701 2.641-1.806 4.614-3.111 6.107 3.195 3.656 7.622 4.358 10.493 4.358 4.043 0 11.188-1.359 13.605-10.465l27.964-105.374c4.694-17.69-2.094-36.814-16.892-47.587z" fill="#fedba6"/><path d="m396.618 86.995-101.777 39.087c-24.03 9.222-41.253 29.993-46.342 54.54V248.5l48.061 15.672c29.308 9.57 61.477.139 80.986-23.732l69.001-84.405c28.602-35.001-7.731-85.249-49.929-69.04z" fill="#fe646f"/><path d="M402.379 85.18c28.443 7.308 45.393 43.675 23.182 70.855L356.56 240.44c-12.12 14.831-29.128 24.083-47.3 26.672 25.547 3.626 51.566-6.213 68.286-26.672l69.001-84.405c27.291-33.397-4.537-80.671-44.168-70.855z" fill="#fd4755"/><path d="M319.725 237.864c-4.702 0-9.362-.743-13.851-2.209L248.5 248.501l30-64.408c3.712-13.754 13.678-24.854 27.091-30.003l101.783-39.089c1.968-.756 3.854-1.139 5.606-1.139 6.116 0 10.481 4.628 12.361 8.592 2.414 5.089 1.732 10.001-2.024 14.6l-68.997 84.399c-8.524 10.431-21.133 16.411-34.593 16.411h-.002z" fill="#ffead9"/><path d="M425.341 122.454c-1.88-3.964-6.245-8.592-12.361-8.592-1.753 0-3.639.383-5.606 1.139l-6.615 2.54a16.73 16.73 0 0 1 3.596 4.913c2.414 5.089 1.732 10.001-2.024 14.6l-68.997 84.399c-6.256 7.656-14.716 12.901-24.095 15.157a44.45 44.45 0 0 0 10.486 1.254h.002c13.46 0 26.069-5.98 34.593-16.411l68.997-84.399c3.757-4.599 4.438-9.511 2.024-14.6z" fill="#fedba6"/><path d="M248.5 180.62v67.88l-48.06 15.67c-29.31 9.57-61.48.14-80.99-23.73l-69-84.4c-28.6-35.01 7.73-85.25 49.93-69.04l63.65 24.44 38.13 14.64c24.03 9.22 41.25 30 46.34 54.54z" fill="#fe646f"/><path d="M248.5 180.62v52.6l-20.99 15.28-42.33-30.82c-24.93-18.14-36.14-49.74-28.23-79.54l7.08-26.7 38.13 14.64c24.03 9.22 41.25 30 46.34 54.54z" fill="#fd4755"/><path d="m248.5 248.5-16.05-3.6-14.27-3.19-27.04-6.06a44.55 44.55 0 0 1-13.86 2.21c-13.47 0-26.08-5.98-34.6-16.4l-69-84.41c-3.75-4.59-4.43-9.51-2.02-14.6 1.88-3.96 6.24-8.59 12.36-8.59 1.75 0 3.64.39 5.6 1.14l66.72 25.62 35.06 13.47c13.42 5.15 23.39 16.25 27.1 30l24.69 53z" fill="#ffead9"/><path d="m243.19 237.09-10.74 7.81-4.94 3.6-9.33-6.79-33-24.03c-24.24-17.64-35.51-48-28.84-77.06l35.06 13.47c13.42 5.15 23.39 16.25 27.1 30z" fill="#fedba6"/><path d="M290.835 217.68 248.5 248.499l-42.335-30.819c-24.924-18.144-36.138-49.739-28.23-79.536L205.9 32.769c11.595-43.693 73.605-43.693 85.201 0l27.965 105.374c7.907 29.798-3.307 61.392-28.231 79.537z" fill="#fe646f"/><path d="M319.065 138.143 291.1 32.77c-6.909-26.034-31.717-36.552-53.094-31.562 14.499 3.385 27.421 13.903 32.107 31.562l27.965 105.374c7.908 29.798-3.306 61.392-28.23 79.537l-31.842 23.18 10.493 7.639 42.335-30.819c24.925-18.146 36.139-49.74 28.231-79.538z" fill="#fd4755"/><path d="M223.822 193.426c-14.798-10.772-21.585-29.896-16.891-47.587l27.964-105.374C237.312 31.359 244.457 30 248.5 30s11.188 1.359 13.604 10.465l27.965 105.374c4.695 17.69-2.093 36.814-16.891 47.587L248.5 211.392z" fill="#ffead9"/><path d="M248.5 172.812a7.5 7.5 0 0 1-7.5-7.5V124.25c0-4.143 3.358-7.5 7.5-7.5s7.5 3.357 7.5 7.5v41.062a7.5 7.5 0 0 1-7.5 7.5z" fill="#fedba6"/><path d="M290.069 145.839 262.104 40.465C259.688 31.359 252.543 30 248.5 30c-2.871 0-7.298.701-10.494 4.358 1.305 1.493 2.41 3.466 3.111 6.107l27.965 105.374c4.695 17.69-2.093 36.814-16.891 47.587l-14.185 10.327 10.493 7.639 24.678-17.966c14.799-10.773 21.587-29.897 16.892-47.587z" fill="#fedba6"/><path d="M262.103 248.499h-27.206v-82.703c0-7.513 6.09-13.603 13.603-13.603s13.603 6.09 13.603 13.603z" fill="#fea95c"/><path d="M289.308 248.499h-27.206v-65.834c0-7.513 6.09-13.603 13.603-13.603s13.603 6.09 13.603 13.603zM234.897 248.499h-27.206v-65.834c0-7.513 6.09-13.603 13.603-13.603s13.603 6.09 13.603 13.603z" fill="#ffd15b"/><path d="m396.62 410-101.78-39.08c-24.03-9.22-41.25-30-46.34-54.54V248.5l8.81-2.87 39.25-12.8c29.31-9.57 61.48-.14 80.99 23.73l69 84.4c28.6 35.01-7.73 85.25-49.93 69.04z" fill="#fe646f"/><path d="M346.96 319.71c-2.42 3.36-7.11 4.11-10.47 1.69l-62.38-45.05-25.61-18.58v-9.27l8.81-2.87 25.6 18.57 62.36 45.04a7.492 7.492 0 0 1 1.69 10.47zM446.547 340.964l-69.001-84.405c-16.72-20.459-42.739-30.298-68.286-26.672 18.172 2.59 35.179 11.841 47.3 26.672l69.001 84.405c22.211 27.181 5.261 63.547-23.182 70.855 39.631 9.817 71.459-37.457 44.168-70.855z" fill="#fd4755"/><path d="M425.34 374.55c-1.88 3.96-6.24 8.59-12.36 8.59-1.75 0-3.64-.39-5.6-1.14L305.6 342.91c-13.42-5.15-23.39-16.25-27.1-30v-33.39a12.81 12.81 0 0 1 8.83-12.13h.01l18.52-6.04a44.55 44.55 0 0 1 13.86-2.21c13.47 0 26.08 5.98 34.6 16.4l69 84.41c3.75 4.59 4.43 9.51 2.02 14.6z" fill="#ffead9"/><path d="M346.96 319.71c-2.42 3.36-7.11 4.11-10.47 1.69l-57.99-41.88a12.81 12.81 0 0 1 8.83-12.13l57.94 41.85a7.492 7.492 0 0 1 1.69 10.47zM423.321 359.951l-69.003-84.407c-8.522-10.428-21.132-16.408-34.595-16.408-3.534 0-7.046.421-10.484 1.254 9.379 2.256 17.838 7.501 24.093 15.154l69.003 84.407c3.753 4.594 4.434 9.506 2.021 14.595a16.73 16.73 0 0 1-3.596 4.913l6.617 2.541c1.966.755 3.852 1.138 5.604 1.138 6.116 0 10.481-4.628 12.361-8.592 2.413-5.089 1.732-10.001-2.021-14.595z" fill="#fedba6"/><path d="M248.5 248.5v67.88c-5.09 24.54-22.31 45.32-46.34 54.54L100.38 410c-42.2 16.21-78.53-34.03-49.93-69.04l69-84.4c19.51-23.87 51.68-33.3 80.99-23.73l39.25 12.8z" fill="#fe646f"/><path d="M248.5 248.5v9.27l-25.59 18.57-63.5 45.09a7.44 7.44 0 0 1-4.34 1.39c-2.34 0-4.65-1.1-6.12-3.16-2.4-3.38-1.6-8.06 1.78-10.46l63.43-45.04 25.53-18.53z" fill="#fd4755"/><path d="M200.439 232.827a74.508 74.508 0 0 0-33.686-2.939 74.732 74.732 0 0 1 12.7 2.939l37.518 12.235a15.28 15.28 0 0 1 10.543 14.527v56.788c-5.088 24.547-22.311 45.318-46.342 54.54L79.395 410.005a48.602 48.602 0 0 1-5.761 1.815c8.185 2.103 17.318 1.807 26.747-1.815l101.777-39.087c24.03-9.222 41.253-29.993 46.342-54.54V248.5z" fill="#fd4755"/><path d="M218.5 279.47v33.44c-3.71 13.75-13.68 24.85-27.09 30L89.63 382c-1.97.75-3.86 1.14-5.61 1.14-6.12 0-10.48-4.63-12.36-8.6-2.41-5.08-1.73-10 2.02-14.59l69-84.4c8.52-10.43 21.13-16.41 34.6-16.41 4.7 0 9.36.74 13.85 2.2l18.5 6.04.03.01c5.24 1.71 8.8 6.57 8.84 12.08z" fill="#ffead9"/><g fill="#fedba6"><path d="m218.5 279.47-59.09 41.96a7.44 7.44 0 0 1-4.34 1.39c-2.34 0-4.65-1.1-6.12-3.16-2.4-3.38-1.6-8.06 1.78-10.46l58.9-41.82.03.01c5.24 1.71 8.8 6.57 8.84 12.08z"/><path d="M191.126 261.345a44.552 44.552 0 0 0-24.352-.955 44.93 44.93 0 0 1 3.365.955l19.557 6.378a11.328 11.328 0 0 1 7.816 10.771v34.414c-3.712 13.754-13.678 24.854-27.091 30.003l-95.168 36.548c2.231 2.1 5.198 3.679 8.767 3.679 1.751 0 3.637-.383 5.604-1.139l101.783-39.089c13.413-5.148 23.378-16.249 27.091-30.003v-33.339a12.81 12.81 0 0 0-8.839-12.179z"/></g></svg>