<svg height="512" viewBox="0 0 497 497" width="512" xmlns="http://www.w3.org/2000/svg"><path d="m193.739 443.521 27.452 23.627a58.122 58.122 0 0 0 37.916 14.07h42.021c9.344 0 18.55-2.253 26.838-6.567l18.222-9.486c6.985-3.636 7.198-13.553.375-17.485l-20.522-11.827a46.182 46.182 0 0 0-23.029-6.168l-53.785-.03a46.184 46.184 0 0 0-12.582 1.74z" fill="#9be69d"/><path d="m346.19 465.161-18.22 9.49a58.206 58.206 0 0 1-26.84 6.57h-27.41c9.34 0 18.55-2.26 26.83-6.57l18.23-9.49c6.98-3.63 7.19-13.55.37-17.48l-20.52-12.83a46.394 46.394 0 0 0-13.58-5.18l17.96.01c8.09.01 16.03 2.14 23.03 6.17l20.52 11.83c6.83 3.93 6.61 13.85-.37 17.48z" fill="#6fd7a3"/><path d="m193.74 443.52-16.57 7.5-59.01 26.71a39.138 39.138 0 0 1-16.15 3.49H68.56c-7.72 0-15.26-2.28-21.68-6.55L11.8 451.36c-5.88-3.9-6.32-12.37-.88-16.86l29.47-24.36a48.128 48.128 0 0 1 30.64-11.02h28.43c7.98 0 15.85 1.99 22.87 5.79l57.54 31.11z" fill="#9be69d"/><path d="M122.331 404.912a48.099 48.099 0 0 0-22.873-5.788H72.044a48.084 48.084 0 0 1 22.873 5.788l64.615 34.935c2.786 1.506 2.643 5.552-.242 6.858l-68.544 31.027a39.16 39.16 0 0 1-16.15 3.485h27.413a39.16 39.16 0 0 0 16.15-3.485l75.58-34.212z" fill="#6fd7a3"/><path d="m193.74 443.52-16.57 7.5h-72.71c-4.14 0-7.5-3.36-7.5-7.5s3.36-7.5 7.5-7.5h75.41z" fill="#6fd7a3"/><path d="m193.74 443.52-16.57 7.5h-27.4l9.52-4.31c2.89-1.31 3.03-5.36.24-6.86l-7.08-3.83h27.42z" fill="#3ec3a4"/><path d="M193.74 451.021a7.499 7.499 0 0 1-6.312-3.448l-56.506-87.975c-8.344-12.992-13.731-27.322-16.01-42.594l-12.861-91.226a7.5 7.5 0 1 1 14.836-2.214l12.861 91.226c1.964 13.159 6.605 25.507 13.795 36.701l39.473 61.456-11.762-112.997a109.201 109.201 0 0 1 9.463-57.053l32.282-69.294a7.5 7.5 0 1 1 13.619 6.286l-32.282 69.294a94.194 94.194 0 0 0-8.163 49.213l15.026 144.346a7.5 7.5 0 0 1-7.459 8.279z" fill="#3ec3a4"/><path d="M409.65 178.007a7.5 7.5 0 0 0-7.5 7.5V310.48c0 20.812-8.481 41.151-23.266 55.8l-9.802 9.701a78.725 78.725 0 0 1-33.902 19.772l-128.146 36.216 43.467-98.502a80.91 80.91 0 0 1 13.687-21.267l56.76-63.699a7.501 7.501 0 0 0-11.199-9.979l-56.755 63.694a95.845 95.845 0 0 0-16.217 25.197l-49.9 113.08a7.5 7.5 0 0 0 8.901 10.246l143.48-40.55a93.766 93.766 0 0 0 40.375-23.547l9.803-9.703c17.611-17.449 27.711-41.672 27.711-66.458V185.506a7.495 7.495 0 0 0-7.497-7.499z" fill="#6fd7a3"/><path d="m107.46 174.568-22.404-9.912a42.153 42.153 0 0 0-30.853-1.281l-20.787 7.202a39.518 39.518 0 0 1-23.285.799l-5.475-1.485c-3.64-.987-6.228 3.494-3.553 6.153L17.055 191.9a36.315 36.315 0 0 0 25.603 10.56h5.593a36.32 36.32 0 0 0 17.768-4.643z" fill="#fe646f"/><path d="M10.705 171.509c-.191-.049-.385-.081-.575-.133l-5.475-1.485c-2.255-.612-4.102.876-4.549 2.728 3.542.029 7.081-.394 10.599-1.11z" fill="#fe646f"/><path d="M85.056 164.656a42.149 42.149 0 0 0-26.882-2.439c8.712 2.004 17.382 6.096 25.226 9.721 2.307 1.066 2.429 4.287.214 5.533-12.502 7.032-33.802 21.225-47.332 24.413a36.29 36.29 0 0 0 6.375.574h5.593a36.32 36.32 0 0 0 17.768-4.643l41.442-23.248z" fill="#fd4755"/><path d="m107.46 174.568-24.378 38.518a34.33 34.33 0 0 0-4.277 9.954l-10.288 40.756c-.811 3.214 2.712 5.775 5.518 4.011l37.591-23.629a25.125 25.125 0 0 0 10.251-29.835z" fill="#fe646f"/><path d="m121.877 214.343-14.417-39.775-11.369 17.962c15.477 41.13 12.063 43.36-26.442 66.78l-1.132 4.485c-.811 3.214 2.712 5.775 5.518 4.01l37.591-23.628a25.122 25.122 0 0 0 10.251-29.834z" fill="#fd4755"/><path d="m99.576 150.036 7.884 24.532 36.833-49.168a43.77 43.77 0 0 0 7.632-36.026l-3.997-17.428c-.788-3.436-5.493-3.898-6.935-.682l-7.147 15.943a43.78 43.78 0 0 1-9.345 13.396l-16.728 16.351a32.4 32.4 0 0 0-8.197 33.082z" fill="#fe646f"/><path d="m151.924 89.374-3.997-17.428c-.788-3.436-5.493-3.898-6.935-.682l-7.147 15.943c-.144.322-.303.635-.454.953l.278 1.214c7.18 21.285-15.081 47.566-31.702 68.105l5.492 17.088 36.833-49.168a43.76 43.76 0 0 0 7.632-36.025z" fill="#fd4755"/><path d="m242.815 113.874 27.637-12.227a27.608 27.608 0 0 1 20.213-.839l29.664 10.278a27.608 27.608 0 0 0 16.271.558l9.02-2.447c3.64-.987 6.228 3.494 3.553 6.153l-18.449 18.338a27.78 27.78 0 0 1-19.585 8.078h-11.345c-4.76 0-9.44-1.223-13.592-3.552z" fill="#fe646f"/><path d="m345.62 109.196-9.02 2.447a27.537 27.537 0 0 1-4.599.823c.087.988-.224 2.029-1.083 2.883l-18.449 18.338c-4.397 4.905-10.463 6.959-16.827 7.753 1.37.207 2.757.325 4.152.325h11.345a27.78 27.78 0 0 0 19.585-8.078l18.449-18.338c2.675-2.659.087-7.14-3.553-6.153z" fill="#fd4755"/><path d="m242.815 113.874-24.378 38.518a34.33 34.33 0 0 0-4.277 9.954l-10.288 40.756c-.811 3.214 2.712 5.775 5.518 4.011l37.591-23.629a25.12 25.12 0 0 0 10.25-29.835z" fill="#fe646f"/><path d="m257.232 153.648-14.417-39.775-11.607 18.34 7.77 21.435a25.125 25.125 0 0 1-10.251 29.835l-23.656 14.869-1.199 4.749c-.811 3.214 2.712 5.775 5.518 4.01l37.591-23.629a25.12 25.12 0 0 0 9.759-11.46 25.117 25.117 0 0 0 .492-18.374z" fill="#fd4755"/><path d="m315.35 243.507 22.404-9.912a42.153 42.153 0 0 1 30.853-1.281l20.787 7.202a39.518 39.518 0 0 0 23.285.799l5.475-1.485c3.64-.988 6.228 3.494 3.553 6.153l-15.952 15.856a36.315 36.315 0 0 1-25.603 10.56h-5.593a36.32 36.32 0 0 1-17.768-4.643z" fill="#fe646f"/><path d="m418.155 238.829-5.475 1.485a39.457 39.457 0 0 1-8.214 1.304c.25 1.122-.014 2.37-1.013 3.363l-15.951 15.856c-5.324 5.503-12.202 8.646-19.515 9.95 2.161.398 4.36.61 6.574.61h5.593a36.317 36.317 0 0 0 25.603-10.56l15.951-15.856c2.675-2.658.087-7.139-3.553-6.152z" fill="#fd4755"/><path d="m315.351 243.506-23.448-10.374a23.427 23.427 0 0 0-17.149-.712l-25.168 8.72a23.426 23.426 0 0 1-13.805.474l-7.652-2.076c-3.088-.838-5.284 2.964-3.014 5.22l15.652 15.558a23.568 23.568 0 0 0 16.616 6.853h9.625c4.038 0 8.009-1.038 11.531-3.013z" fill="#fe646f"/><path d="m232.561 240.74-4.432-1.203c-2.005-.544-3.625.87-3.9 2.545 2.832-.143 5.595-.632 8.332-1.342z" fill="#fe646f"/><path d="M291.901 233.132a23.429 23.429 0 0 0-17.148-.712l-1.714.594c6.274 2.075 12.701 5.441 18.149 7.991 2.275 1.065 2.405 4.251.226 5.502-10.361 5.95-28.691 17.7-38.522 20.229 1.469.285 2.972.434 4.49.434h9.626c4.038 0 8.009-1.038 11.531-3.013l36.811-20.65z" fill="#fd4755"/><path d="m315.35 243.507 24.378 38.518a34.33 34.33 0 0 1 4.277 9.954l10.288 40.756c.811 3.214-2.712 5.775-5.518 4.011l-37.591-23.629a25.125 25.125 0 0 1-10.251-29.835z" fill="#fe646f"/><path d="m354.293 332.735-10.288-40.756a34.307 34.307 0 0 0-4.277-9.954l-24.378-38.518-6.618 18.258c7.726 11.871 16.387 25.562 17.019 30.215l9.089 36.006 13.935 8.759c2.806 1.764 6.329-.797 5.518-4.01z" fill="#fd4755"/><path d="m409.65 142.232 18.211-8.057a34.261 34.261 0 0 1 25.079-1.041l16.897 5.854a32.126 32.126 0 0 0 18.928.65l4.451-1.207c2.959-.803 5.062 2.84 2.888 5.001l-12.966 12.888a29.52 29.52 0 0 1-20.811 8.584h-4.546a29.53 29.53 0 0 1-14.443-3.774z" fill="#fe646f"/><path d="m493.216 138.43-4.451 1.207a32.073 32.073 0 0 1-10.093 1.06c.203.912-.011 1.926-.823 2.734l-12.966 12.888c-4.32 4.147-8.845 6.635-13.486 7.87 2.089.463 4.226.713 6.383.713h4.546c7.799 0 15.28-3.086 20.812-8.584l12.966-12.888c2.174-2.16.071-5.803-2.888-5z" fill="#fd4755"/><path d="m409.65 142.232-22.465-9.939a22.445 22.445 0 0 0-16.43-.682l-24.113 8.354a22.449 22.449 0 0 1-13.226.454l-7.332-1.989c-2.959-.803-5.062 2.84-2.888 5.001l14.996 14.906a22.58 22.58 0 0 0 15.92 6.566h9.222c3.869 0 7.673-.994 11.048-2.887z" fill="#fe646f"/><path d="M387.185 132.293a22.444 22.444 0 0 0-16.43-.682l-2.024.701c5.803 1.967 11.719 5.043 16.779 7.419 2.275 1.068 2.401 4.249.223 5.503-9.838 5.666-26.898 16.569-36.328 19.161 1.537.328 3.112.509 4.708.509h9.222c3.869 0 7.673-.994 11.048-2.887l35.268-19.784z" fill="#fd4755"/><path d="m409.65 142.232 19.816 31.31a27.884 27.884 0 0 1 3.476 8.092l8.363 33.129c.659 2.612-2.205 4.694-4.486 3.26l-30.556-19.207a20.426 20.426 0 0 1-8.333-24.252z" fill="#fe646f"/><path d="m441.305 214.762-8.363-33.129a27.907 27.907 0 0 0-3.476-8.092l-19.816-31.31-6.605 18.223c5.626 8.735 11.189 17.832 11.643 21.179l6.744 26.716 15.388 9.672c2.281 1.435 5.145-.646 4.485-3.259z" fill="#fd4755"/><path d="m107.46 174.568 26.689-12.227a25.817 25.817 0 0 1 19.52-.839l28.647 10.278a25.792 25.792 0 0 0 15.713.558l8.71-2.447c3.515-.988 6.014 3.494 3.431 6.153l-17.816 18.338c-5.026 5.174-11.826 8.078-18.913 8.078h-10.956a26.11 26.11 0 0 1-13.125-3.552z" fill="#fe646f"/><path d="m206.739 169.891-8.71 2.447a25.87 25.87 0 0 1-5.061.873c.07.973-.237 1.994-1.053 2.833l-17.816 18.338c-4.167 4.807-9.863 6.882-15.88 7.71 1.406.235 2.831.368 4.266.368h10.956c7.087 0 13.886-2.904 18.913-8.078l17.816-18.338c2.583-2.659.084-7.141-3.431-6.153z" fill="#fd4755"/><path d="m242.814 113.874-19.148-8.842c-8.335-3.849-17.757-4.257-26.369-1.143l-17.766 6.425a32.427 32.427 0 0 1-19.901.713l-4.68-1.325c-3.111-.881-5.322 3.117-3.036 5.489l13.633 14.144c5.815 6.033 13.682 9.42 21.881 9.42h4.78a30.032 30.032 0 0 0 15.186-4.142z" fill="#fe646f"/><path d="m155.394 109.827-.443-.125c-1.372-.389-2.568.173-3.281 1.125a71.867 71.867 0 0 0 3.724-1z" fill="#fe646f"/><path d="M223.666 105.031c-8.335-3.849-17.757-4.257-26.369-1.143l-1.313.475c5.532 1.891 10.951 4.528 15.974 6.952 2.24 1.081 2.363 4.211.221 5.475-11.105 6.556-23.486 15.46-36.003 19.749a29.88 29.88 0 0 0 11.253 2.214h4.78a30.026 30.026 0 0 0 15.185-4.142l35.419-20.738z" fill="#fd4755"/><path d="M242.815 121.374a7.5 7.5 0 0 1-7.16-5.267L217.02 56.364a7.5 7.5 0 0 1 14.319-4.467l11.424 36.624 6.651-21.633a7.5 7.5 0 0 1 14.338 4.408l-13.768 44.781a7.5 7.5 0 0 1-7.153 5.296l-.016.001zM315.352 251.007a7.5 7.5 0 0 1-7.039-4.907l-13.656-37.048a7.5 7.5 0 0 1 14.074-5.188l7.774 21.092 8.555-16.528a7.5 7.5 0 0 1 13.321 6.895l-16.371 31.63a7.497 7.497 0 0 1-6.658 4.054zM409.651 149.732l-.198-.002a7.5 7.5 0 0 1-6.938-5.182l-13.941-42.947a7.501 7.501 0 0 1 14.267-4.632l7.396 22.785 8.498-22.155a7.498 7.498 0 0 1 9.688-4.316 7.499 7.499 0 0 1 4.316 9.688l-16.089 41.947a7.494 7.494 0 0 1-6.999 4.814z" fill="#fd4755"/><g fill="#fe646f"><circle cx="385.359" cy="68.925" r="7.697"/><circle cx="266.433" cy="38.931" r="7.697"/><circle cx="435.897" cy="73.925" r="7.697"/><circle cx="213.919" cy="23.476" r="7.697"/><circle cx="290.732" cy="178.219" r="7.697"/></g></svg>