<svg height="512" viewBox="0 0 497 497" width="512" xmlns="http://www.w3.org/2000/svg"><path d="M312.883 302.841H184.046v64.245a96.28 96.28 0 0 0 30.129 69.956l5.434 5.138a26.563 26.563 0 0 1 8.313 19.302v28.494a7.024 7.024 0 0 0 7.024 7.024h27.037a7.024 7.024 0 0 0 7.024-7.024v-28.494a26.567 26.567 0 0 1 8.313-19.302l5.434-5.138a96.28 96.28 0 0 0 30.129-69.956z" fill="#6fd7a3"/><path d="M294.033 302.841v64.245a96.276 96.276 0 0 1-30.129 69.955l-5.434 5.138a26.563 26.563 0 0 0-8.313 19.302v26.331a9.922 9.922 0 0 1-6.175 9.187h18.001a7.024 7.024 0 0 0 7.024-7.024v-28.494a26.567 26.567 0 0 1 8.313-19.302l5.434-5.138a96.28 96.28 0 0 0 30.129-69.956V302.84h-18.85z" fill="#3ec3a4"/><path d="m216.08 149.26-41.83 31.13H42.17c-16.64 0-27.81-17.06-21.15-32.31l7.4-16.96a72.466 72.466 0 0 1 51.36-41.9l11.25-2.39a72.416 72.416 0 0 1 33.88.91l15.31 4.12 61.51 16.54 5.06 1.36z" fill="#8379c1"/><path d="m206.79 109.76 9.29 39.5h-18.85l-57.01-57.4z" fill="#6e61b6"/><path d="m280.919 149.262 9.292-39.498 81.881-22.026a72.467 72.467 0 0 1 33.883-.906l11.243 2.388a72.47 72.47 0 0 1 51.362 41.9l7.403 16.963c6.653 15.243-4.517 32.306-21.149 32.306H322.755z" fill="#8379c1"/><path d="m475.983 148.083-7.403-16.963a72.468 72.468 0 0 0-51.362-41.9l-11.243-2.388a72.477 72.477 0 0 0-24.48-.959 72.08 72.08 0 0 1 5.63.959l11.243 2.388a72.47 72.47 0 0 1 51.362 41.9l7.403 16.963c6.653 15.243-4.517 32.306-21.149 32.306h18.85c16.632 0 27.802-17.063 21.149-32.306z" fill="#6e61b6"/><path d="m227.18 48.45-11.1 100.81-25.66-25.83-37.34-37.6A46.975 46.975 0 0 1 143 34.72a46.937 46.937 0 0 1 10.19-15.24l10.9-10.91 5.2-5.2c4.62-4.62 12.15-4.47 16.58.33z" fill="#978ecb"/><path d="m227.18 48.45-11.1 100.81-25.66-25.83-6.89-29.31c-4.21-17.5-.71-36.9 8.73-51.94 2.42-3.85 1.85-8.88-1.27-12.2l-16.76-17.85c-2.69-2.91-6.51-4.09-10.14-3.56l5.2-5.2c4.62-4.62 12.15-4.47 16.58.33z" fill="#8379c1"/><path d="m280.918 149.262 63.003-63.43a47 47 0 0 0-.11-66.355l-16.106-16.11c-4.616-4.617-12.145-4.467-16.574.33l-41.314 44.751z" fill="#978ecb"/><path d="M343.811 19.476 327.705 3.367c-4.616-4.617-12.145-4.467-16.574.33l-.934 1.012 14.764 14.767a47 47 0 0 1 .11 66.356l-46.034 46.346 1.881 17.084 63.003-63.43a47 47 0 0 0-.11-66.356z" fill="#8379c1"/><path d="m216.08 149.26-22.43 127.76-60.38 14.93-20.49 5.06a7.08 7.08 0 0 0-3.88 2.51 7.152 7.152 0 0 0-1.5 4.37c0 6.97-2.83 13.29-7.4 17.86-4.664 4.664-11.141 7.516-18.292 7.396-13.876-.232-24.828-11.948-24.828-25.826v-6.852c0-2.846-.839-5.614-2.338-8.033A74.786 74.786 0 0 1 43.33 249.05V229.9c0-19.1 7.31-37.48 20.44-51.36l29.45-31.14a56.15 56.15 0 0 1 54.93-15.77z" fill="#978ecb"/><path d="m216.08 149.26-22.43 127.76-60.38 14.93c-.89-5.1-1.33-10.26-1.33-15.4 0-7.7.98-15.39 2.94-22.89l20.52-78.69c3.94-15.14 17.61-25.71 33.26-25.71z" fill="#8379c1"/><path d="m174.246 174.973-19.079-4.624a36.137 36.137 0 0 0-39.244 16.11l-20.085 32.469c-3.867 6.252-2.116 14.442 3.97 18.565a13.711 13.711 0 0 0 15.244.092l51.778-34.178 11.32-12.165z" fill="#ffd15b"/><path d="M155.167 170.349a36.059 36.059 0 0 0-17.902.23l11.218 2.719a6.992 6.992 0 0 1 5.118 8.558l-3.948 15.14a17.277 17.277 0 0 1-7.201 10.061l-44.208 29.181c.488.447 1.001.874 1.565 1.255a13.711 13.711 0 0 0 15.244.092l51.778-34.178 11.32-12.165-3.904-16.269z" fill="#ffc344"/><path d="m280.919 149.262 67.932-17.636a56.173 56.173 0 0 1 54.93 15.774l29.452 31.143a74.745 74.745 0 0 1 20.439 51.36v19.149c.137 13.126-4.081 27.888-11.384 39.65-1.445 2.326-2.169 5.027-2.169 7.766v7.419c0 13.95-11.309 25.259-25.259 25.259-13.95 0-25.259-11.309-25.259-25.259a7.081 7.081 0 0 0-5.383-6.875l-80.867-19.987z" fill="#978ecb"/><path d="M453.67 229.9v19.15c.14 13.13-4.08 27.89-11.38 39.65-1.45 2.33-2.17 5.03-2.17 7.77v7.42c0 13.95-11.31 25.26-25.26 25.26-3.34 0-6.53-.65-9.44-1.83 9.28-3.73 15.83-12.82 15.83-23.43v-7.42c0-2.74.73-5.44 2.17-7.77 7.31-11.76 11.52-26.52 11.39-39.65V229.9c0-19.1-7.32-37.48-20.44-51.36l-29.45-31.14c-8.51-9-19.57-14.77-31.37-16.78a56.13 56.13 0 0 1 50.23 16.78l29.45 31.14a74.735 74.735 0 0 1 20.44 51.36z" fill="#8379c1"/><path d="m322.755 174.973 19.079-4.624a36.137 36.137 0 0 1 39.244 16.11l20.085 32.469c3.867 6.252 2.116 14.442-3.97 18.565a13.711 13.711 0 0 1-15.244.092l-51.778-34.178-11.864-13.01z" fill="#ffd15b"/><path d="m401.163 218.928-20.085-32.469a36.137 36.137 0 0 0-39.244-16.11l-.948.23a36.113 36.113 0 0 1 21.342 15.88l20.085 32.469c3.509 5.673 2.379 12.932-2.405 17.31l2.041 1.347a13.711 13.711 0 0 0 15.244-.092c6.086-4.123 7.837-12.313 3.97-18.565z" fill="#ffc344"/><path d="m280.919 149.262-32.418 6.973-32.418-6.973-12.973-55.145a67.913 67.913 0 0 1 12.066-56.682l24.178-31.77c4.6-6.044 13.693-6.044 18.293 0l24.178 31.77a67.913 67.913 0 0 1 12.066 56.682z" fill="#aca6d6"/><path d="M248.5 156.76a7.5 7.5 0 0 1-7.5-7.5V85.249a7.5 7.5 0 0 1 15 0v64.011a7.5 7.5 0 0 1-7.5 7.5z" fill="#978ecb"/><path d="m281.825 37.435-24.178-31.77c-4.6-6.044-13.693-6.044-18.293 0l-.278.366 23.899 31.404a67.913 67.913 0 0 1 12.066 56.682l-12.972 55.145 4.145 3.163 14.705-3.163 12.972-55.145a67.917 67.917 0 0 0-12.066-56.682z" fill="#8379c1"/><path d="m344.442 293.097-.204 1.037a90.721 90.721 0 0 1-43.824 61.181l-16.612 9.546a12.466 12.466 0 0 0-4.6 4.59 12.48 12.48 0 0 0-1.686 6.276c0 8.022-3.26 15.293-8.52 20.553s-12.52 8.509-20.542 8.509c-8.032 0-15.293-3.249-20.553-8.509s-8.509-12.531-8.509-20.553c0-4.488-2.396-8.631-6.286-10.865l-16.792-9.649a90.725 90.725 0 0 1-42.588-101.557l20.519-78.683c3.94-15.14 17.618-25.711 33.266-25.711l8.57-.019 32.418 6.992 32.426-6.975 8.531.002c15.618 0 29.275 10.53 33.256 25.63l20.438 77.625a90.697 90.697 0 0 1 1.292 40.58z" fill="#c2bce0"/><path d="m343.152 252.516-20.438-77.625c-3.981-15.1-17.638-25.63-33.256-25.63h-8.542l-3.322.715c12.575 2.606 22.897 12.12 26.27 24.915l20.438 77.625a90.73 90.73 0 0 1 1.29 40.581l-.204 1.037a90.721 90.721 0 0 1-43.824 61.181l-16.612 9.546a12.466 12.466 0 0 0-4.6 4.59 12.48 12.48 0 0 0-1.686 6.275c0 8.022-3.26 15.293-8.52 20.553a29.053 29.053 0 0 1-11.121 6.939 29.033 29.033 0 0 0 9.429 1.57c8.022 0 15.282-3.249 20.542-8.509s8.52-12.531 8.52-20.553c0-2.244.599-4.407 1.686-6.275a12.466 12.466 0 0 1 4.6-4.59l16.612-9.546a90.729 90.729 0 0 0 43.824-61.181l.204-1.037a90.716 90.716 0 0 0-1.29-40.581z" fill="#aca6d6"/><path d="m280.919 149.262-9.271 72.889c-1.483 11.708-11.444 20.482-23.244 20.482a23.406 23.406 0 0 1-15.516-5.869 23.367 23.367 0 0 1-7.748-14.673l-9.058-72.828h64.837z" fill="#ffd15b"/><path d="m262.069 149.261-9.271 72.889c-1.062 8.391-6.491 15.253-13.818 18.481a23.347 23.347 0 0 0 9.425 2.001c11.799 0 21.761-8.774 23.244-20.482l9.271-72.889z" fill="#ffc344"/></svg>