<svg height="512" viewBox="0 0 497.001 497.001" width="512" xmlns="http://www.w3.org/2000/svg"><path d="m230.031 171.689-1.38-29.724a42.565 42.565 0 0 1 3.209-18.3l16.683-40.184a84.37 84.37 0 0 0 6.414-34.75l-1.193-41.894c-.176-6.172-8.103-8.574-11.675-3.538l-52.687 74.283-8.499 63.828 14.999 43.187h20.223z" fill="#fea95c"/><path d="m254.956 48.731-1.193-41.894c-.176-6.172-8.103-8.574-11.675-3.538l-7.466 10.526.994 34.906a84.37 84.37 0 0 1-6.414 34.75l-16.683 40.184a42.57 42.57 0 0 0-3.208 18.3l.873 18.804a15.063 15.063 0 0 1-9.717 14.786l-6.806 2.591 2.24 6.45h20.223l13.907-12.908-1.38-29.724a42.58 42.58 0 0 1 3.208-18.3l16.683-40.184a84.359 84.359 0 0 0 6.414-34.749z" fill="#fe9738"/><path d="m189.403 77.581-8.5 63.83-8.38 2.83-23.81 8.02-18.63 1.49-9.7-61.22 8.28-74.49 1.37-12.31c.67-6.03 8.55-7.87 11.82-2.75z" fill="#fea95c"/><path d="m189.403 77.581-8.5 63.83-8.38 2.83-3.26-53.54a51.964 51.964 0 0 0-7.72-24.28l-28.19-45.46c-1.15-1.81-2.9-2.74-4.69-2.92l1.37-12.31c.67-6.03 8.55-7.87 11.82-2.75z" fill="#fe9738"/><path d="M130.083 153.74v.01l-15.59 27.33-3.9-1.05a67.405 67.405 0 0 1-39.65-29.52l-39.73-63.98c-.59-.95-.89-1.95-.97-2.94-.29-3.94 3.23-7.62 7.64-6.78l82.5 15.72z" fill="#fea95c"/><path d="m130.083 153.74-25.57-53.88c-2.18-4.61-6.43-7.9-11.43-8.88L37.232 80.1c-3.11-.59-5.78 1.07-6.98 3.49h-.01c-.29-3.94 3.23-7.62 7.64-6.78l82.5 15.72z" fill="#fe9738"/><path d="m195.903 184.6-6.5 12.734-19.951-1.364-16.756-16.835-3.984-26.874 21.861-40.12 18.83-34.56z" fill="#ffd15b"/><path d="m195.903 184.6-6.5 12.734-19.95-1.364-4.265-4.285.725-3.185a14.038 14.038 0 0 0 8.462-13.746l-3.802-62.614 18.83-34.56z" fill="#ffc344"/><path d="m169.455 195.971-54.96-14.888 5.883-88.55z" fill="#ffd15b"/><path d="m147.264 189.959 22.191 6.012-49.077-103.439-2.376 35.755z" fill="#ffc344"/><path d="M302.173 117.789c-19.199 0-30.679-6.334-31.309-6.69a7.5 7.5 0 0 1 7.345-13.078c.74.401 16.271 8.586 42.043 2.632a7.5 7.5 0 0 1 3.377 14.616c-7.918 1.827-15.11 2.52-21.456 2.52z" fill="#8ac9fe"/><path d="M266.687 197.334a7.461 7.461 0 0 1-3.749-1.01 7.5 7.5 0 0 1-2.736-10.248l30.622-52.946c12.639-21.847 32.504-39.044 55.938-48.424l43.979-17.603a7.5 7.5 0 0 1 5.574 13.926l-43.979 17.603c-20.329 8.137-37.563 23.057-48.527 42.009l-30.622 52.946a7.496 7.496 0 0 1-6.5 3.747z" fill="#60b7ff"/><path d="m274.563 176.22-6.069 32.135-20.191 25.776-20.361 10.889-22.07-3.729-36.42-45.321 26.451-11.37 34.13-12.91 26.149 2.66 1.321.13z" fill="#ffead9"/><path d="m274.563 176.22-24.66 54.38-1.6 3.531-12.05 6.444-8.311-3.004 28.24-63.221z" fill="#fedba6"/><path d="m248.304 234.131 26.255-57.907 19.951-14.418a197.938 197.938 0 0 1 66.607-31.262l59.536-15.321c5.237-1.348 8.923 5.058 5.125 8.908l-37.103 37.615a67.015 67.015 0 0 1-26.264 16.43l-29.682 10.027a67.016 67.016 0 0 0-35.68 28.453l-6.325 10.312-21.666 9.792z" fill="#fea95c"/><path d="m420.653 115.224-13.001 3.346c.663 1.781.419 3.907-1.214 5.563l-37.103 37.615c-31.78 29.922-68.681 15.648-94.045 58.042-2.782 4.649-7.521 7.79-12.863 8.692l-12.52 2.114-1.603 3.536 20.753 2.63 21.666-9.792 6.325-10.312a67.019 67.019 0 0 1 35.681-28.454l29.681-10.026a67.008 67.008 0 0 0 26.264-16.43l37.103-37.615c3.799-3.851.114-10.257-5.124-8.909z" fill="#fe9738"/><path d="m141.303 259.291-1.2 76.77-32.79 155.69c-4.23 5.05-10.01 5.25-10.01 5.25h-36.95c-5.74 0-10.15-5.08-9.34-10.76l14.76-103.78a156.184 156.184 0 0 1 46.78-95.42l20.8-20.08z" fill="#6fd7a3"/><path d="m141.303 259.291-1.2 76.77-32.79 155.69c-4.23 5.05-10.01 5.25-10.01 5.25h-18.77c3.05-.42 5.83-1.75 8.04-3.71s3.85-4.56 4.64-7.54l13.23-50.06v-.01l28.91-109.39v-59.33z" fill="#3ec3a4"/><path d="m319.175 263.979-166.479 62.31-6.587-19.513 6.587-22.565 53.172-42.916 162.161-27.377z" fill="#8ac9fe"/><path d="m463.837 210.62-75.948 51.61a162.032 162.032 0 0 1-55.88 24.141l-179.313 39.917 146.622-68.897 68.711-43.474 90.959-15.353c7.051-1.188 10.753 8.045 4.849 12.056z" fill="#6fd7a3"/><path d="m458.989 198.566-13.161 2.221c2.297 2.766 2.366 7.322-1.329 9.833l-75.948 51.61a162.032 162.032 0 0 1-55.88 24.141l-142.564 31.736-17.41 8.181 179.313-39.917a162.023 162.023 0 0 0 55.88-24.141l75.948-51.61c5.903-4.011 2.201-13.244-4.849-12.054z" fill="#3ec3a4"/><path d="M152.692 264.131v62.16l-41.88 158.47c-.8 3.01-2.05 5.28-3.5 6.99l-2.87-56.06v-.01l-1.57-30.71a172.042 172.042 0 0 1 10.07-67.41l20.41-56.33v-.01l7.95-21.93c4.271-4.121 11.39-1.091 11.39 4.84z" fill="#bbf49b"/><path d="M152.692 264.131v62.16l-41.88 158.47c-.8 3.01-2.05 5.28-3.5 6.99l-2.87-56.06v-.01l26.678-100.943a67.26 67.26 0 0 0 2.232-17.185V281.22l7.95-21.93c4.271-4.12 11.39-1.09 11.39 4.841z" fill="#9be69d"/></svg>