<svg width="117" height="207" fill="none" xmlns="http://www.w3.org/2000/svg">
    <g clip-path="url(#clip0)" fill="#216E7A">
        <path d="M16.72 24.47H8.43L12 59.2l.78 27.63h9.48L18.3 59.2l-1.58-34.73zM21.1 91.57h-6.66c-.47 0-.83.4-.79.87l3.47 33.86.76 26.86c.02.43.37.77.8.77h7.79c.48 0 .85-.43.78-.9l-3.82-26.73-1.54-33.98a.79.79 0 00-.8-.75zM37.23 115.25h-7.6c-.46 0-.83.4-.78.86l1.63 17.97v16.2c0 .48.4.84.88.8l8.09-.87a.79.79 0 00.7-.91l-2.5-15.43a.8.8 0 010-.14l.37-17.67a.79.79 0 00-.8-.81zM26.23 158.66h-6.66c-.47 0-.83.4-.79.88l3.46 33.8v.12l-.73 11.33c-.03.46.33.84.79.84h7.67c.5 0 .87-.45.78-.94l-2.18-11.24a.79.79 0 01-.01-.11l-1.54-33.92a.79.79 0 00-.8-.75zM3.85 173.18c4.6-2.74 11.18-11.92 11.66-18.86.03-.43-.32-.7-.68-.47-2.87 1.88-11.72 11.66-11.96 18.75-.01.53.53.85.98.58zM.8 146.97c1.68 4.9 8.22 5.7 12.77 5.5.3 0 .58-.2.56-.49-.11-2.31-7.67-5.5-12.63-5.9a.67.67 0 00-.7.89zM26.43 105.38c5.73-1.23 15.47-8.3 17.76-14.96.15-.41-.12-.78-.54-.67-3.52.9-15.98 7.93-18 14.8-.13.5.28.94.78.83zM105.49 126.54c-3.45 4.73-13.88 10.74-20.89 10.14-.43-.04-.66-.44-.4-.78 2.27-2.84 13.76-11.37 20.86-10.4.5.06.73.62.43 1.04zM115.46 44.15c-6.16 5.53-22.74 10.6-31.7 7.14-.41-.16-.55-.6-.22-.9 3.5-3.04 22.87-11.56 31.76-7.38.46.21.53.8.16 1.14zM89.93 26.26c.4 6.48-4.2 18.83-10.46 22.82-.37.23-.8.07-.81-.37-.11-3.9 3.68-19.33 10.28-23 .44-.24.95.05.99.55zM101.62 69.4c-2.96-6.26-12.72-15.08-19.38-15.13-.44 0-.72.38-.52.77 1.84 3.61 12.64 15.8 19.38 15.3.47-.03.72-.52.52-.95zM54.42 23.37l-8.27-.48 1.55 34.88-.8 27.63 9.46.54-2.35-27.8.41-34.77zM78.65 1.34L70.47 0l-2.1 34.85-3.7 27.4 9.35 1.52.57-27.9 4.06-34.53zM88.07 74.62l-10.69-2-2.88 34.82-4.91 27.21 12.2 2.28.85-27.97 5.43-34.34zM54.95 90.6l-6.65-.38a.79.79 0 00-.84.83l1.52 34-.78 26.86c0 .43.32.79.75.81l7.78.45c.48.03.87-.38.83-.85l-2.28-26.9.4-34.02a.79.79 0 00-.73-.8zM72.12 68.26l-6.57-1.07a.79.79 0 00-.91.73l-2.06 33.97L59 128.53c-.06.42.23.81.65.88l7.7 1.26c.47.08.9-.28.91-.76l.55-27 3.97-33.78a.79.79 0 00-.66-.87zM79.54 141.33l-9.07-1.7a.82.82 0 00-.96.74l-2.8 33.92-4.86 28.68c-.07.44.24.84.7.88l10.16.92c.46.04.86-.32.88-.77l1.26-28.19 5.3-33.6a.76.76 0 00-.6-.88zM56.23 157.89l-6.66-.39a.79.79 0 00-.83.83l1.13 26.33a.8.8 0 010 .11l-1.89 18.5c-.04.43.28.82.71.86l10.11 1c.5.04.93-.4.86-.9l-2.61-20.05-.07-25.5a.79.79 0 00-.75-.8zM34.35 68.1c-2.08 6.18 4.38 12.98 9.37 16.92.23.18.55.23.74.01 1.86-2.11-3.94-12.37-8.97-17.2a.69.69 0 00-1.14.26zM96.13 157.12c-5.98-.42-9.9-8.51-11.79-14.31-.09-.27-.03-.6.24-.69 2.45-.82 9.54 7.87 12.21 14.03.2.48-.13 1-.66.97zM39.1 154.3h-7.6c-.47 0-.83.39-.8.85l1.64 17.97v31.24c0 .47.41.83.88.78l8.15-.87a.79.79 0 00.7-.85l-2.57-30.58.38-17.74c.01-.44-.35-.8-.79-.8z"/>
    </g>
    <defs>
        <clipPath id="clip0">
            <path fill="#fff" d="M0 0h116.18v206.44H0z"/>
        </clipPath>
    </defs>
</svg>