<svg width="169" height="155" fill="none" xmlns="http://www.w3.org/2000/svg">
    <path d="M168.508 79.5c1.241-18.343-15.086-45.506-20.5-46.5 0 0-30 46.5-44 74.5.44 4.344 2.262 6.642 2 11-.271 4.5-5.655 7.041-3.5 11 2.364 4.342 12.5 2 12.5 2 14-2.5 15-23 16.5-23.5 2.5 3.5 5.143 14.5 4 18.5-1 3.5-4.137 5.232-3 8.5 1.265 3.637 5 5 8.5 5 8.5.5 15.5-6 20-12 8.5-13 8.5-35.5 7.5-48.5z" fill="#0A5D69"/>
    <rect x="40" y="17" width="123" height="92" rx="46" fill="#F3F6F7"/>
    <path d="M87.424 107.5c9.5-28 3.5-76-19-86.5-8.335.336-21 8-21 8s-28.975 34.921-32 62c.5 10.5 6.5 27.5 4.5 42-2.5 2.39-3 3-4.5 5.5-2 4 3.5 6.5 7.5 6.5 5 0 11.376-1.841 16.5-6.5 6.629-6.027 6-14 8-21.5 3.5 4.5 3 21.5.5 25.5-3.5 6-3 8-.5 10.5 7 3.833 20.5 0 26.5-8 8.5-13.5 9.216-22 13.5-37.5z" fill="#0A5D69"/>
    <circle cx="13.5" cy="19.5" r="13.5" fill="#0A5D69"/>
    <circle cx="54.5" cy="13.5" r="13.5" fill="#0A5D69"/>
    <rect y="9" width="79" height="71" rx="35.5" fill="#F3F6F7"/>
    <ellipse cx="54.63" cy="38.602" rx="8.859" ry="11.603" transform="rotate(-31.876 54.63 38.602)" fill="#0A5D69"/>
    <ellipse rx="8.859" ry="11.603" transform="scale(-1 1) rotate(-11.832 221.925 125.659)" fill="#0A5D69"/>
    <path d="M33.5 57c.733 3.72 7.5 5.5 8.5 5.5s7.484-5.611 5.5-9.5c-2-3.5-14.5-.5-14 4z" fill="#0A5D69"/>
    <ellipse cx="23.5" cy="46" rx="2.5" ry="3" fill="#F3F6F7"/>
    <ellipse cx="50.5" cy="38" rx="2.5" ry="3" fill="#F3F6F7"/>
</svg>