<svg height="512" width="512" xmlns="http://www.w3.org/2000/svg"><path d="M409.415 169.996c-33.294-33.294-87.274-33.294-120.569 0l-33.541 33.541v74.679l22.898 22.898 26.517 5.303c5.657-5.657 12.657-7.775 19.564-6.981 25.391 2.917 51.823-5.363 71.299-24.838 28.327-28.326 32.896-71.431 13.832-104.602z" fill="#fce3a0"/><path d="M279.877 254.986c-2.884-25.223 5.281-51.47 24.494-70.9 28.203-28.52 71.728-33.203 105.044-14.091a86.896 86.896 0 0 0-13.832-18.08c-33.907-33.779-89.379-33.68-123.033.351-19.213 19.43-27.378 45.676-24.494 70.9.792 6.927-1.308 13.944-6.976 19.612l10.607 53.033 26.517 5.303-5.303-26.517c5.668-5.667 7.768-12.684 6.976-19.611z" fill="#ffce71"/><path d="M203.958 311.721c-5.858 5.858-5.858 15.355 0 21.213l10.607 10.607c5.858 5.858 15.355 5.858 21.213 0l10.607-10.607-5.303-26.516-26.516-5.303z" fill="#676fb2"/><g><path d="M304.721 327.631c5.842-5.842 5.874-15.339 0-21.213l-31.82-31.82-45.962-3.536 10.607 53.033 17.678 17.678c5.858 5.858 15.355 5.858 21.213 0s5.858-15.355 0-21.213l7.071 7.071c5.87 5.871 15.367 5.846 21.213 0z" fill="#d4d4ff"/><path d="M258.759 302.883c-6.891-6.891-6.246-18.43 1.614-24.191a21.121 21.121 0 0 1 12.528-4.093l-31.82-31.82c-5.858-5.858-15.355-5.858-21.213 0-5.858 5.858-5.858 15.355 0 21.213l7.071 7.071c-5.858-5.858-15.355-5.858-21.213 0-5.858 5.858-5.858 15.355 0 21.213l31.82 31.82c0-11.716 9.497-21.213 21.213-21.213z" fill="#9ea2e3"/></g><g><path d="M169.565 377.935V70.783c0-34.95-28.331-63.283-63.283-63.283-34.951 0-63.283 28.333-63.283 63.283v370.435c0 34.95 28.331 63.283 63.283 63.283h126.566z" fill="#ff6f4d"/><path d="M294.587 377.935H169.565v63.283c0 34.95 28.331 63.283 63.283 63.283h61.739c34.951 0 63.283-28.333 63.283-63.283-.001-34.951-28.332-63.283-63.283-63.283z" fill="#ff8f71"/><g fill="#ffdbe0"><path d="M120.878 424.423c-16.212 0-29.355 10.466-29.355 23.377s13.143 23.376 29.355 23.376 29.355-10.466 29.355-23.376-13.143-23.377-29.355-23.377zM279.991 424.423c-16.212 0-29.355 10.466-29.355 23.377s13.143 23.376 29.355 23.376 29.355-10.466 29.355-23.376-13.143-23.377-29.355-23.377z"/></g></g><g><path d="M329.147 485.009c-9.926 7.845-21.876 11.991-34.56 11.991H106.282c-30.759 0-55.783-25.024-55.783-55.783V134.742c0-4.143-3.358-7.5-7.5-7.5s-7.5 3.357-7.5 7.5v306.475c0 39.03 31.753 70.783 70.783 70.783h188.305c16.094 0 31.261-5.264 43.861-15.224a7.5 7.5 0 0 0-9.301-11.767z"/><path d="M294.587 370.435H177.065V70.783C177.065 31.753 145.312 0 106.282 0S35.499 31.753 35.499 70.783v33.959c0 4.143 3.358 7.5 7.5 7.5s7.5-3.357 7.5-7.5V70.783C50.499 40.024 75.523 15 106.282 15s55.783 25.024 55.783 55.783v304.044l-1.801 1.801a7.5 7.5 0 0 0 10.606 10.607l1.801-1.802h121.916c30.759 0 55.783 25.023 55.783 55.782 0 8.094-1.692 15.896-5.031 23.188a7.5 7.5 0 0 0 3.697 9.941 7.499 7.499 0 0 0 9.941-3.697c4.242-9.267 6.393-19.169 6.393-29.433 0-39.026-31.753-70.779-70.783-70.779zM145.485 425.297v-12c0-4.143-3.358-7.5-7.5-7.5s-7.5 3.357-7.5 7.5v12a7.5 7.5 0 0 0 15 0z"/><path d="M270.383 425.297v-12c0-4.143-3.358-7.5-7.5-7.5s-7.5 3.357-7.5 7.5v12a7.5 7.5 0 0 0 15 0zM222.553 429.867a7.5 7.5 0 0 0-11.309-9.855c-5.724 6.569-15.901 6.564-21.62 0a7.5 7.5 0 0 0-11.309 9.855c11.703 13.429 32.546 13.416 44.238 0zM267.219 146.993c-20.177 20.403-29.877 48.478-26.613 77.024.269 2.35.125 5.438-1.384 8.631-8.064-3.402-17.891-1.939-24.657 4.827-6.182 6.183-8.007 15.098-5.476 22.894-15.65 5.295-20.518 25.357-8.667 37.209l3.536 3.537-5.304 5.303c-8.772 8.772-8.772 23.047 0 31.82l10.606 10.606c8.773 8.772 23.047 8.771 31.82 0l5.304-5.303 3.536 3.536c11.799 11.799 31.899 7.007 37.218-8.648 7.529 2.445 16.508.883 22.886-5.494 6.68-6.68 8.276-16.482 4.828-24.655 2.642-1.256 5.535-1.743 8.577-1.392 28.772 3.311 57.005-6.531 77.459-26.986 36.693-36.693 36.696-96.482-.011-133.3-36.838-36.699-97.054-36.625-133.658.391zm-36.745 191.244c-2.924 2.926-7.682 2.926-10.607 0l-10.606-10.605c-2.924-2.925-2.924-7.684-.001-10.607l5.304-5.303 21.213 21.213zm68.943-15.909c-2.879 2.88-7.63 2.977-10.606-.001l-7.049-7.048-.022-.022a7.5 7.5 0 0 0-10.606 10.607l.012.013a7.493 7.493 0 0 1-.013 10.593c-2.923 2.925-7.682 2.925-10.608-.001l-40.657-40.656-8.839-8.841c-4.705-4.704-1.364-12.799 5.303-12.799 1.92 0 3.841.731 5.303 2.193a7.5 7.5 0 0 0 10.607-10.607l-7.07-7.069c-2.924-2.925-2.924-7.684 0-10.608a7.496 7.496 0 0 1 10.606.001l63.639 63.639a7.493 7.493 0 0 1 0 10.606zm90.855-165.118c30.858 30.951 30.862 81.231.008 112.085-17.199 17.198-40.94 25.473-65.139 22.69-7.084-.81-13.914.749-19.819 4.428l-54.238-54.238c3.678-5.908 5.237-12.752 4.425-19.861-2.745-24.009 5.411-47.618 22.376-64.774 30.71-31.057 81.407-31.192 112.387-.33zM398.788 310.773a7.5 7.5 0 0 0-12.99 7.5l14.996 25.975a7.5 7.5 0 0 0 12.99-7.5z"/><path d="M326.69 330.023v18c0 4.143 3.357 7.5 7.5 7.5s7.5-3.357 7.5-7.5v-18c0-4.143-3.357-7.5-7.5-7.5s-7.5 3.358-7.5 7.5zM469.001 206.389h-18c-4.143 0-7.5 3.357-7.5 7.5s3.357 7.5 7.5 7.5h18c4.143 0 7.5-3.357 7.5-7.5s-3.358-7.5-7.5-7.5zM464.759 280.612l-25.975-14.997a7.5 7.5 0 0 0-7.5 12.99l25.975 14.997a7.5 7.5 0 0 0 7.5-12.99zM334.19 103.886c4.143 0 7.5-3.357 7.5-7.5v-18c0-4.143-3.357-7.5-7.5-7.5s-7.5 3.357-7.5 7.5v18a7.5 7.5 0 0 0 7.5 7.5zM269.005 115.984a7.5 7.5 0 1 0 12.99-7.5l-14.997-25.976a7.5 7.5 0 0 0-12.99 7.5zM203.023 146.819 229 161.816a7.5 7.5 0 0 0 7.5-12.99l-25.977-14.997a7.5 7.5 0 0 0-10.245 2.745 7.5 7.5 0 0 0 2.745 10.245zM199.38 221.389h17.728c2.053 0 4.081-.721 5.541-2.163a7.404 7.404 0 0 0 1.98-3.417c1.256-4.794-2.641-9.419-7.597-9.419h-17.338c-4.107 0-7.688 3.165-7.811 7.271a7.501 7.501 0 0 0 7.497 7.728z"/></g></svg>