<svg height="512" width="512" xmlns="http://www.w3.org/2000/svg"><path d="M256 7.5 134.065 86.103V256c0-67.234 54.7-121.935 121.935-121.935S377.935 188.766 377.935 256 323.235 377.935 256 377.935 134.065 323.234 134.065 256v165.233L256 504.5c137.023 0 248.5-111.478 248.5-248.5S393.023 7.5 256 7.5z" fill="#ff8f71"/><path d="M134.065 256c0-97.239 45.025-188.999 121.935-248.5C118.977 7.5 7.5 118.978 7.5 256S118.977 504.5 256 504.5C179.09 444.999 134.065 353.239 134.065 256z" fill="#ff6f4d"/><g fill="#ffdbe0"><path d="M146.443 97.483c-16.212 0-29.355 10.466-29.355 23.376 0 12.911 13.143 23.377 29.355 23.377s29.355-10.466 29.355-23.377c0-12.91-13.142-23.376-29.355-23.376zM365.557 97.483c-16.212 0-29.355 10.466-29.355 23.376 0 12.911 13.143 23.377 29.355 23.377s29.355-10.466 29.355-23.377c-.001-12.91-13.143-23.376-29.355-23.376z"/></g><path d="M323.529 124.875c-9.714 0-18.822-4.167-25.68-11.045-5.098-5.113-12.147-8.277-19.938-8.277-8.852 0-16.746 4.085-21.91 10.471-5.164-6.386-13.058-10.471-21.91-10.471-7.791 0-14.841 3.164-19.938 8.277-6.858 6.878-15.967 11.045-25.68 11.045-4.372 0-7.631 4.008-6.777 8.296 3.855 19.364 20.944 33.959 41.441 33.959 13.278 0 25.119-6.129 32.865-15.707 7.746 9.578 19.588 15.707 32.865 15.707 20.497 0 37.586-14.595 41.441-33.959.852-4.288-2.407-8.296-6.779-8.296z" fill="#4c5699"/><g><path d="M181.051 106.356v-12c0-4.143-3.358-7.5-7.5-7.5s-7.5 3.357-7.5 7.5v12c0 4.143 3.358 7.5 7.5 7.5s7.5-3.357 7.5-7.5zM345.948 106.356v-12c0-4.143-3.357-7.5-7.5-7.5s-7.5 3.357-7.5 7.5v12c0 4.143 3.357 7.5 7.5 7.5s7.5-3.357 7.5-7.5z"/><path d="M256 0C114.841 0 0 114.841 0 256s114.841 256 256 256c63.31 0 124.119-23.384 171.228-65.845a7.503 7.503 0 0 0 .55-10.593 7.503 7.503 0 0 0-10.593-.55C372.837 474.986 315.593 497 256 497 123.112 497 15 388.888 15 256S123.112 15 256 15s241 108.112 241 241c0 58.177-21.102 114.391-59.418 158.288a7.5 7.5 0 0 0 .719 10.582 7.496 7.496 0 0 0 10.582-.719C489.585 377.521 512 317.805 512 256 512 114.841 397.159 0 256 0z"/><path d="M148.841 197.384a7.499 7.499 0 0 0-9.983 3.584c-8.157 17.292-12.293 35.808-12.293 55.032 0 71.37 58.064 129.435 129.435 129.435 71.37 0 129.435-58.064 129.435-129.435 0-42.098-20.091-80.857-54.127-105.21 3.039-4.969 5.215-10.434 6.354-16.155 1.781-8.951-5.056-17.26-14.132-17.26-7.451 0-14.685-3.14-20.369-8.84-13.103-13.144-33.421-13.693-47.16-2.966-13.742-10.73-34.06-10.175-47.16 2.965-5.684 5.701-12.918 8.841-20.369 8.841-9.109 0-15.909 8.341-14.133 17.261 1.141 5.729 3.321 11.202 6.368 16.177a130.121 130.121 0 0 0-24.877 23.31 7.5 7.5 0 0 0 11.604 9.504 115.227 115.227 0 0 1 22.969-21.312c18.799 16.434 46.888 16.428 65.598-.084 18.664 16.472 46.753 16.563 65.604.079 30.68 21.492 48.831 56.085 48.831 93.69 0 63.1-51.335 114.435-114.435 114.435S141.565 319.1 141.565 256c0-16.995 3.654-33.357 10.859-48.634a7.498 7.498 0 0 0-3.583-9.982zm112.991-50.678c-2.998-3.706-8.661-3.711-11.663 0-13.706 16.948-39.103 17.15-53.2 1.035a34.704 34.704 0 0 1-7.78-15.372c11.207-.192 21.933-4.878 30.275-13.244 8.685-8.712 22.971-7.949 30.706 1.614 3.003 3.714 8.667 3.706 11.663 0 7.739-9.569 22.025-10.323 30.706-1.613 8.341 8.365 19.067 13.051 30.274 13.243a34.71 34.71 0 0 1-7.78 15.371c-14.113 16.135-39.512 15.894-53.201-1.034z"/></g></svg>