<svg height="512" width="512" xmlns="http://www.w3.org/2000/svg"><path d="M283.899 336.429c49.138-32 81.67-87.229 81.67-149.882 0-98.72-80.751-179.034-180.008-179.034-48.715 0-82.106 49.095-64.207 94.402l12.705 32.157h51.502c29.472 0 53.449 23.54 53.449 52.476s-23.977 52.476-53.449 52.476h-51.502l-7.792 16.443a63.85 63.85 0 0 0-6.879 5.95l.93 6.605-16.259 34.313 30 63.247 120.383 120.383c12.357 12.357 28.554 18.535 44.749 18.535s32.392-6.178 44.749-18.535c24.711-24.714 24.711-64.781 0-89.495z" fill="#ff8e9e"/><path d="M134.059 134.071v-75.07c0-28.442 23.06-51.496 51.502-51.489H70.78C35.83 7.513 7.5 35.844 7.5 70.792v370.416c0 34.948 28.33 63.292 63.28 63.292 34.949 0 63.279-28.344 63.279-63.292V239.023z" fill="#ea5b70"/><g fill="#ffdbe0"><ellipse cx="87.464" cy="95.954" rx="29.355" ry="23.377"/><ellipse cx="246.577" cy="95.954" rx="29.355" ry="23.377"/></g><path d="m498.519 226.493-18.108-18.108h-46.792L318.435 323.568v43.894h67.994l11.365-11.365V345.49h10.607l11.365-11.365v-10.607h10.607l11.365-11.365v-10.607h10.607l11.365-11.365v-10.607h10.607l11.365-11.365v-10.607h10.607l2.232-2.232a20.41 20.41 0 0 0 5.978-14.436 20.418 20.418 0 0 0-5.98-14.441z" fill="#fce3a0"/><path d="M447.898 221.852a45.979 45.979 0 0 1 32.512-13.467l-37.154-37.153a20.422 20.422 0 0 0-14.439-5.981h-.001a20.416 20.416 0 0 0-14.439 5.981L267.481 318.129a20.416 20.416 0 0 0-5.981 14.439v.002c0 5.416 2.151 10.61 5.981 14.439l55.261 55.261a20.418 20.418 0 0 0 14.439 5.981h.003a20.404 20.404 0 0 0 14.433-5.976l2.234-2.234v-10.606h10.606l15.715-15.715-23.138-23.139c-10.456-10.456-10.456-27.408 0-37.863z" fill="#ffce71"/><g><path d="M119.559 239.022a7.5 7.5 0 0 0 7.5 7.5h58.502c33.607 0 60.949-26.905 60.949-59.976s-27.342-59.976-60.949-59.976h-58.502a7.5 7.5 0 0 0-7.5 7.5c0 3.973 3.092 7.216 7 7.475v90.001c-3.909.26-7 3.503-7 7.476zm111.951-52.475c0 24.8-20.612 44.976-45.949 44.976h-44.002v-89.951h44.002c25.336-.001 45.949 20.175 45.949 44.975zM112.073 80.451v-12c0-4.142-3.357-7.5-7.5-7.5s-7.5 3.358-7.5 7.5v12c0 4.142 3.357 7.5 7.5 7.5s7.5-3.358 7.5-7.5zM236.969 80.451v-12c0-4.142-3.357-7.5-7.5-7.5s-7.5 3.358-7.5 7.5v12c0 4.142 3.357 7.5 7.5 7.5s7.5-3.358 7.5-7.5zM189.139 85.021a7.5 7.5 0 0 0-11.309-9.855c-5.727 6.57-15.898 6.563-21.619 0a7.5 7.5 0 0 0-11.309 9.855c11.705 13.43 32.544 13.418 44.237 0z"/><path d="m503.819 221.186-7.109-7.109a7.5 7.5 0 0 0-10.606 0 7.498 7.498 0 0 0-.001 10.606c7.138 7.138 10.897 9.677 10.897 16.25 0 3.451-1.343 6.694-3.782 9.134l-2.231 2.231-24.136-24.135a7.5 7.5 0 0 0-10.607 10.606l24.136 24.136-11.365 11.366-14.139-14.138a7.5 7.5 0 1 0-10.601 10.611l14.134 14.134-11.365 11.365-14.136-14.136a7.5 7.5 0 0 0-10.607 10.606l14.136 14.136-11.365 11.365-24.13-24.13a7.5 7.5 0 0 0-10.619 10.594l24.142 24.143-11.365 11.365-14.136-14.136a7.5 7.5 0 0 0-10.607 10.606l14.136 14.136-11.365 11.365-14.143-14.142a7.497 7.497 0 0 0-10.605.013 7.5 7.5 0 0 0 .012 10.606l14.13 14.13-11.365 11.365-23.879-23.88-.257-.257a7.5 7.5 0 0 0-10.607 10.606l.257.257 23.88 23.88-2.233 2.233c-5.034 5.034-13.209 5.056-18.268-.004l-55.262-55.26a12.842 12.842 0 0 1-3.784-9.139c0-3.451 1.344-6.696 3.784-9.136l94.009-94.009.046-.046 52.843-52.843c5.043-5.045 13.22-5.053 18.269-.003l26.881 26.88a7.498 7.498 0 0 0 10.606 0c2.707-2.708 3.259-7.337-.331-10.938l-26.546-26.545c-10.911-10.912-28.573-10.914-39.486 0l-36.712 36.712c.462-5.347.708-10.719.708-16.094C373.069 83.685 288.953 0 185.561 0H70.779C31.752 0 0 31.757 0 70.792v319.99c0 4.142 3.357 7.5 7.5 7.5s7.5-3.358 7.5-7.5V70.792C15 40.028 40.022 15 70.779 15H185.56c95.122 0 172.509 76.956 172.509 171.547a171.29 171.29 0 0 1-3.369 33.755l-92.524 92.524C256.904 318.099 254 325.11 254 332.57c0 7.457 2.904 14.468 8.177 19.742l55.262 55.26c8.297 8.298 20.347 10.179 30.297 6.12 4.752 8.34 7.237 17.728 7.237 27.498 0 14.917-5.802 28.935-16.335 39.47-10.537 10.537-24.546 16.34-39.447 16.34s-28.91-5.802-39.445-16.338L139.362 360.278a7.5 7.5 0 0 0-12.804 5.303v75.626c0 30.757-25.022 55.779-55.779 55.779S15 471.965 15 441.208v-20.426c0-4.142-3.357-7.5-7.5-7.5s-7.5 3.358-7.5 7.5v20.426c0 39.028 31.752 70.779 70.779 70.779 39.028 0 70.779-31.751 70.779-70.779v-57.52l107.58 107.58C262.508 504.637 280.283 512 299.191 512c18.907 0 36.683-7.363 50.053-20.732 13.367-13.369 20.729-31.153 20.729-50.077 0-13.033-3.499-25.527-10.151-36.515l144.003-144.003c5.272-5.271 8.176-12.282 8.176-19.74-.001-7.456-2.904-14.468-8.182-19.747z"/></g></svg>