<svg height="512" width="512" xmlns="http://www.w3.org/2000/svg"><path d="M401.4 270.595c-27.987-48.363-79.248-63.858-116.674-75.174-9.366-2.83-24.237-7.326-34.159-11.654-10.668-4.654-14.599-14.716-13.202-24.577h-50.26v105.585l95.132 63.442c23.033 10.039 14.776 45.236-10.872 49.322l-60.289 57.273 55.339 69.687c85.958 0 155.891-69.933 155.891-155.891.001-27.401-7.228-54.377-20.906-78.013zM261.542 134.448c12.505-1.961 24.178 3.722 30.314 14.321 17.506 30.25 56.219 40.58 86.468 23.077 30.251-17.504 40.583-56.218 23.077-86.468-13.328-23.031-32.165-41.864-54.268-55.246H238.858v123.141c3.347-9.131 11.307-17.041 22.684-18.825z" fill="#9ea2e3"/><g fill="#8288cb"><path d="M237.365 159.19a29.051 29.051 0 0 1 1.493-5.917c14.976-55.458 54.868-101.068 108.275-123.141C323.135 15.602 295.286 7.5 266.415 7.5c-85.958 0-155.891 69.933-155.891 155.891 0 27.392 7.226 54.362 20.897 77.995 27.985 48.374 79.248 63.87 116.68 75.186 9.359 2.83 24.212 7.32 34.135 11.645-41.448-44.479-59.324-107.525-44.871-169.027zM271.365 377.539c-12.53 1.996-24.238-3.688-30.387-14.308-17.5-30.249-56.207-40.586-86.468-23.08-30.249 17.504-40.583 56.218-23.077 86.468 27.798 48.039 79.519 77.881 134.982 77.881-24.429-38.654-19.479-88.307 4.95-126.961z"/></g><path d="m155.031 88.499-19.395-2.834-8.674-17.675c-6.701-13.655-26.138-13.732-32.876 0l-8.674 17.675-19.395 2.834c-15.036 2.198-21.039 20.78-10.16 31.446l14.034 13.758-3.313 19.427c-2.568 15.06 13.149 26.545 26.597 19.434l17.347-9.172 17.347 9.172c13.448 7.111 29.166-4.374 26.597-19.434l-3.313-19.427 14.035-13.758c10.882-10.666 4.878-29.249-10.157-31.446z" fill="#ffce71"/><path d="M441.612 411.991a58.306 58.306 0 0 0-15.911-6.741 58.326 58.326 0 0 0-6.742-15.911c-3.636-5.941-12.149-5.941-15.784 0a58.339 58.339 0 0 0-6.742 15.911 58.35 58.35 0 0 0-15.911 6.741c-5.941 3.635-5.941 12.148 0 15.784a58.368 58.368 0 0 0 15.914 6.752 58.263 58.263 0 0 0 6.739 15.9c3.635 5.941 12.148 5.941 15.784 0a58.294 58.294 0 0 0 6.739-15.9 58.362 58.362 0 0 0 15.913-6.752c5.941-3.636 5.942-12.148.001-15.784z" fill="#fce3a0"/><g><path d="M137.925 422.862c-15.667-27.072-5.843-61.067 20.341-76.219 27.085-15.668 61.072-5.841 76.222 20.345 7.802 13.474 22.602 20.417 38.058 17.958 32.784-5.222 42.768-50.495 12.688-63.604-10.326-4.5-25.149-8.982-34.961-11.948-36.233-10.953-85.857-25.954-112.358-71.762-10.883-18.813-17.456-39.853-19.321-61.49l5.773 3.053c18.907 9.995 41.131-6.011 37.497-27.326l-2.654-15.557 11.233-11.011c15.208-14.91 7.005-41.105-14.327-44.222h.001l-11.913-1.741C172.006 38.918 217.141 15 266.415 15c27.1 0 53.765 7.509 77.113 21.717a7.5 7.5 0 0 0 7.797-12.815C325.627 8.265 296.266 0 266.415 0c-28.334 0-56.27 7.401-80.787 21.403-19.928 11.381-37.312 26.934-50.896 45.394l-1.036-2.112c-9.444-19.244-36.865-19.313-46.343 0l-6.934 14.129-15.486 2.263c-21.345 3.119-29.524 29.32-14.325 44.223l11.231 11.01-2.652 15.555c-3.63 21.241 18.525 37.354 37.496 27.328l6.815-3.603c1.832 24.47 9.136 48.299 21.431 69.552 29.471 50.94 82.374 66.932 121.004 78.61 8.897 2.69 23.789 7.192 33.308 11.34 16.06 7 9.235 32.127-9.055 35.04-9.621 1.534-18.229-2.908-22.715-10.658-19.227-33.232-62.358-45.691-96.718-25.815-33.284 19.262-45.658 62.426-25.811 96.715a162.712 162.712 0 0 0 31.409 38.926 7.473 7.473 0 0 0 5.044 1.951 7.5 7.5 0 0 0 5.048-13.049 147.683 147.683 0 0 1-28.518-35.34zM89.672 165.933c-7.947 4.199-17.229-2.613-15.699-11.543l3.313-19.427a7.501 7.501 0 0 0-2.144-6.617l-14.033-13.757c-6.507-6.38-2.835-17.379 5.993-18.669l19.396-2.834a7.502 7.502 0 0 0 5.648-4.117l8.674-17.675c3.987-8.126 15.432-8.107 19.409 0l8.674 17.675a7.503 7.503 0 0 0 5.648 4.117l19.395 2.834h.001c8.821 1.289 12.503 12.287 5.994 18.668l-14.035 13.758a7.5 7.5 0 0 0-2.144 6.617l3.314 19.429c1.518 8.907-7.743 15.747-15.699 11.541-17.967-9.5-17.422-9.206-17.422-9.206-2.274-1.172-4.956-1.061-7.019.078z"/><path d="M205.209 252.218v12c0 4.142 3.357 7.5 7.5 7.5s7.5-3.358 7.5-7.5v-12c0-4.142-3.357-7.5-7.5-7.5s-7.5 3.358-7.5 7.5zM291.252 269.072a7.5 7.5 0 0 0-11.309-9.855c-6.165 7.074-17.121 7.067-23.279 0a7.501 7.501 0 0 0-11.309 9.855c12.143 13.934 33.766 13.92 45.897 0zM319.81 263.883c0-3.532 2.874-6.406 6.406-6.406s6.406 2.874 6.406 6.406c0 4.142 3.357 7.5 7.5 7.5s7.5-3.358 7.5-7.5c0-11.803-9.603-21.406-21.406-21.406s-21.406 9.603-21.406 21.406c0 4.142 3.357 7.5 7.5 7.5s7.5-3.358 7.5-7.5z"/><path d="M445.527 405.594a65.814 65.814 0 0 0-13.785-6.386 65.901 65.901 0 0 0-6.204-13.469c9.412-40.342 3.133-82.992-17.647-118.901-29.469-50.924-82.363-66.917-120.995-78.597-8.902-2.69-23.802-7.192-33.33-11.35-7.808-3.405-8.974-10.166-8.974-13.892 0-10.034 7.959-21.436 21.822-21.436 7.892 0 14.976 4.098 18.949 10.96 19.261 33.285 62.419 45.656 96.715 25.812 33.285-19.259 45.66-62.425 25.813-96.716a162.572 162.572 0 0 0-31.432-38.926 7.5 7.5 0 1 0-10.088 11.1 147.6 147.6 0 0 1 28.537 35.339c15.667 27.072 5.844 61.068-20.342 76.219-27.023 15.637-61.036 5.898-76.221-20.343-6.688-11.55-18.624-18.446-31.932-18.446-22.257 0-36.822 18.327-36.822 36.436 0 12.398 6.72 22.731 17.976 27.641 10.34 4.511 25.174 8.993 34.997 11.961 36.228 10.953 85.843 25.954 112.344 71.749 17.506 30.254 24.226 66.83 17.077 103.061-6.262-.338-11.986 2.744-15.208 8.011a65.919 65.919 0 0 0-6.386 13.785 65.845 65.845 0 0 0-13.783 6.385c-10.733 6.568-10.712 22.025-.001 28.579a66.184 66.184 0 0 0 7.948 4.128C356.495 475.226 313.02 497 266.415 497c-27.126 0-53.799-7.507-77.135-21.711a7.5 7.5 0 1 0-7.799 12.813C207.168 503.737 236.537 512 266.415 512c50.178 0 97.049-22.921 127.984-61.934a66.223 66.223 0 0 0 2.38 4.277c6.57 10.732 22.027 10.709 28.578-.001a65.889 65.889 0 0 0 6.382-13.775 65.92 65.92 0 0 0 13.789-6.396c10.731-6.568 10.71-22.023-.001-28.577zm-7.83 15.784a50.861 50.861 0 0 1-13.869 5.886 7.498 7.498 0 0 0-5.393 5.393 50.825 50.825 0 0 1-5.873 13.856c-.715 1.168-2.274 1.167-2.99-.001a50.769 50.769 0 0 1-5.872-13.855 7.54 7.54 0 0 0-5.394-5.393 50.811 50.811 0 0 1-13.868-5.886c-1.162-.711-1.175-2.271 0-2.989a50.762 50.762 0 0 1 13.864-5.875 7.502 7.502 0 0 0 5.394-5.392 50.856 50.856 0 0 1 5.878-13.87c.712-1.166 2.274-1.165 2.988.001a50.802 50.802 0 0 1 5.875 13.867 7.502 7.502 0 0 0 5.395 5.394 50.755 50.755 0 0 1 13.866 5.876c1.166.712 1.169 2.271-.001 2.988zM461.698 197.859h-6a7.5 7.5 0 0 0 0 15h6a7.5 7.5 0 0 0 0-15z"/><path d="M414.198 205.359a7.5 7.5 0 0 0 7.5 7.5h6a7.5 7.5 0 0 0 0-15h-6a7.5 7.5 0 0 0-7.5 7.5zM434.198 219.359v6a7.5 7.5 0 0 0 15 0v-6a7.5 7.5 0 0 0-15 0zM441.698 198.859a7.5 7.5 0 0 0 7.5-7.5v-6a7.5 7.5 0 0 0-15 0v6a7.5 7.5 0 0 0 7.5 7.5zM121.698 312.859a7.5 7.5 0 0 0 0-15h-6a7.5 7.5 0 0 0 0 15zM87.698 297.859h-6a7.5 7.5 0 0 0 0 15h6a7.5 7.5 0 0 0 0-15zM101.698 311.859a7.5 7.5 0 0 0-7.5 7.5v6a7.5 7.5 0 0 0 15 0v-6a7.5 7.5 0 0 0-7.5-7.5zM101.698 298.859a7.5 7.5 0 0 0 7.5-7.5v-6a7.5 7.5 0 0 0-15 0v6a7.5 7.5 0 0 0 7.5 7.5z"/></g></svg>