<svg height="512" width="512" xmlns="http://www.w3.org/2000/svg"><path d="M398 7.5h-60.438C286.899 8.059 246 49.308 246 100.103v388.95h51.405c13.394-11.604 21.877-28.723 21.877-47.835V134.065H398c34.951 0 63.283-28.333 63.283-63.282C461.283 35.833 432.952 7.5 398 7.5z" fill="#7ce3ff"/><path d="M256 411.884V100.103C256 49.308 296.899 8.06 347.562 7.5H114c-34.951 0-63.283 28.333-63.283 63.283S79.048 134.065 114 134.065h78.717v307.152c0 34.95 28.331 63.283 63.283 63.283 15.839 0 30.306-5.832 41.405-15.448C272.451 472.463 256 444.097 256 411.884z" fill="#2ed0fc"/><path d="M394.997 251.542a59.404 59.404 0 0 0-10.551 1.03c-28.557 5.359-49.192 30.445-49.932 59.491l-.117 4.6 37.697 5.768v-20.065c0-4.281.807-8.553 2.618-12.432 3.654-7.826 10.446-12.983 20.658-12.983 7.143 0 12.92-5.8 12.806-12.911-.113-7.009-6.113-12.544-13.179-12.498z" fill="#00b27a"/><path d="m378.531 311.739-10.361 4.925-3.844-10.808c-4.365-12.273-21.722-12.273-26.087 0l-3.844 10.808-10.361-4.925c-11.765-5.592-24.039 6.681-18.446 18.445l4.441 9.342 41.253 21.73 41.253-21.73 4.441-9.342c5.593-11.764-6.68-24.037-18.445-18.445z" fill="#00ce8e"/><path d="M390.454 336.291c-14.483-.016-27.937 4.975-39.171 13.539h-31.456v136.227l65.836 14.114c52.827-13.792 75.561-59.262 75.621-91.994.038-40.863-35.272-71.96-70.83-71.886z" fill="#ff8e9e"/><path d="M330.795 441.189a93.498 93.498 0 0 1 20.488-91.359c-11.233-8.563-24.687-13.555-39.171-13.539-35.418-.074-70.869 30.866-70.829 71.886.035 19.654 7.746 39.628 20.385 56.26 5.522 7.197 11.986 13.755 19.162 19.047 18.998 14.011 44.726 21.016 70.453 21.016 11.67 0 23.338-1.446 34.379-4.329-26.011-10.272-46.346-31.803-54.867-58.982z" fill="#ea5b70"/><g fill="#ff8e9e"><ellipse cx="176.444" cy="92.86" rx="29.355" ry="23.377"/><ellipse cx="335.557" cy="92.86" rx="29.355" ry="23.377"/></g><g><path d="M201.051 70.356v-12c0-4.142-3.357-7.5-7.5-7.5s-7.5 3.358-7.5 7.5v12c0 4.142 3.357 7.5 7.5 7.5s7.5-3.357 7.5-7.5zM325.949 70.356v-12c0-4.142-3.357-7.5-7.5-7.5s-7.5 3.358-7.5 7.5v12c0 4.142 3.357 7.5 7.5 7.5s7.5-3.357 7.5-7.5zM278.119 74.927a7.5 7.5 0 0 0-11.309-9.855c-5.727 6.57-15.899 6.563-21.619 0a7.5 7.5 0 0 0-11.309 9.855c11.704 13.43 32.544 13.417 44.237 0z"/><path d="M404.95 330.295c4.748-15.639-9.677-30.65-25.357-26.849 0-10.836 4.854-18.995 15.776-18.995 11.197 0 20.307-9.063 20.307-20.204l-.001-.207-.001-.121c-.177-10.96-9.412-19.877-20.589-19.877h-.138c-34.428.227-63.2 26.841-67.417 61.053-.675-.321-.18-.086-.748-.34v-163.19H398c39.029 0 70.782-31.753 70.782-70.783S437.03 0 398 0H155.606c-4.143 0-7.5 3.358-7.5 7.5s3.357 7.5 7.5 7.5H398c30.759 0 55.782 25.024 55.782 55.783S428.759 126.565 398 126.565h-88.718c-4.143 0-7.5 3.358-7.5 7.5s3.357 7.5 7.5 7.5h2.5v162.259c-10.496 3.337-17.736 14.733-14.167 26.472-34.491 7.177-63.834 38.645-63.834 77.812l.001.131c.075 31.945 18.458 64.625 45.907 83.478C272.336 495.191 264.31 497 256 497c-30.759 0-55.783-25.024-55.783-55.783V141.565h2.5c4.143 0 7.5-3.358 7.5-7.5s-3.357-7.5-7.5-7.5H114c-30.759 0-55.783-25.024-55.783-55.783S83.242 15 114 15h11.605c4.143 0 7.5-3.358 7.5-7.5s-3.357-7.5-7.5-7.5H114C74.97 0 43.217 31.753 43.217 70.783S74.97 141.565 114 141.565h71.217v299.652C185.217 480.247 216.97 512 256 512c13.99 0 27.344-4.038 38.914-11.698C311.664 507.96 331.043 512 351.282 512c25.842 0 48.872-6.259 68.452-18.604a7.5 7.5 0 1 0-8-12.688C394.587 491.519 374.249 497 351.283 497c-67.855 0-102.426-47.998-102.5-88.837l-.001-.105c.04-48.09 56.526-83.843 97.954-52.263a7.501 7.501 0 0 0 9.094 0c41.679-31.775 97.953 4.405 97.953 52.369-.036 19.429-7.518 38.791-21.067 54.521a7.5 7.5 0 0 0 11.365 9.79c15.887-18.443 24.659-41.273 24.702-64.365 0-39.145-29.36-70.645-63.833-77.815zm-9.865-71.253c3.027 0 5.528 2.281 5.59 5.09l.001.115c0 2.87-2.381 5.204-5.307 5.204-16.537 0-27.08 10.949-29.981 24.98-4.748-4.191-11.207-6.082-17.8-4.961 8.799-18.02 26.887-30.294 47.497-30.428zm-4.882 67.923-.877 1.846c-13.448.203-26.48 4.262-38.047 11.84-11.211-7.323-24.177-11.609-38.039-11.843l-.876-1.843c-2.243-4.713 1.724-9.114 5.674-9.114 1.692 0 2.705.627 5.138 1.784 8.333 3.959 18.2-.212 21.257-8.807l.874-2.458c2.001-5.629 9.953-5.627 11.954-.001.915 2.574 2.424 8.455 9.281 11.461 6.765 2.966 12.101.161 15.201-1.312 5.429-2.582 11.039 3.023 8.46 8.447z"/></g></svg>