<svg height="512" width="512" xmlns="http://www.w3.org/2000/svg"><path d="M160.569 464.502 264.823 75.423c7.711-28.779-9.367-58.36-38.146-66.071-28.779-7.711-58.36 9.367-66.071 38.146L56.352 436.577c-7.711 28.779 9.368 58.36 38.146 66.071 28.779 7.712 58.36-9.367 66.071-38.146zM351.395 464.502 455.648 75.423c7.711-28.779-9.367-58.36-38.146-66.071-28.779-7.711-58.36 9.367-66.071 38.146L247.177 436.577c-7.711 28.779 9.368 58.36 38.146 66.071 28.78 7.712 58.36-9.367 66.072-38.146z" fill="#b28ae4"/><path d="M450.553 98.812H285.871l-62.344 53.458 62.344 54.436h164.682c29.794 0 53.947-24.153 53.947-53.947 0-29.795-24.153-53.947-53.947-53.947z" fill="#c9aaf2"/><path d="M285.871 98.812H110.64c-29.794 0-53.947 24.152-53.947 53.947 0 29.793 24.153 53.947 53.947 53.947h175.231c-29.794-29.794-29.794-78.101 0-107.894z" fill="#b28ae4"/><path d="M401.36 305.295H226.678l-62.346 53.947 62.346 53.947H401.36c29.794 0 53.947-24.153 53.947-53.947 0-29.795-24.153-53.947-53.947-53.947z" fill="#c9aaf2"/><path d="M226.678 305.294H61.447c-29.794 0-53.947 24.152-53.947 53.947 0 29.794 24.153 53.947 53.947 53.947h165.231c-29.794-29.793-29.794-78.1 0-107.894z" fill="#b28ae4"/><g><ellipse cx="198.704" cy="170.626" fill="#ff8e9e" rx="29.355" ry="23.377"/><ellipse cx="357.817" cy="170.626" fill="#ff8e9e" rx="29.355" ry="23.377"/></g><g><path d="M355.817 447.997a7.497 7.497 0 0 0-9.186 5.303l-2.481 9.261C338.716 482.838 320.281 497 299.319 497c-30.367 0-52.843-28.834-44.896-58.483l5.607-20.928 1.98-1.52a7.5 7.5 0 0 0-9.131-11.901l-1.98 1.52h-72.882l-1.748-2.278a7.5 7.5 0 0 0-11.901 9.131l1.749 2.279-12.792 47.741C147.891 482.838 129.456 497 108.494 497c-30.345 0-52.844-28.816-44.898-58.48l5.959-22.239 1.606-1.298a7.501 7.501 0 0 0-9.428-11.668l-2.847 2.3C34.462 404.281 15 383.993 15 359.241c0-25.61 20.836-46.446 46.447-46.446h26.384l1.748 2.278a7.501 7.501 0 0 0 11.901-9.131l-1.749-2.279 24.799-92.558 2.981-2.288a7.502 7.502 0 0 0-9.133-11.901l-2.98 2.287h-4.759c-25.61 0-46.446-20.836-46.446-46.447s20.836-46.447 46.447-46.447h32.292l2.762 3.979a7.498 7.498 0 0 0 10.438 1.883 7.5 7.5 0 0 0 1.883-10.438L155 97.392l3.106-11.593a7.5 7.5 0 0 0-5.303-9.186c-4.001-1.077-8.113 1.302-9.186 5.303l-2.518 9.395h-30.46c-33.882 0-61.447 27.565-61.447 61.447 0 33.059 26.244 60.104 58.991 61.398l-22.41 83.639H61.447C27.565 297.795 0 325.359 0 359.241c0 31.016 23.102 56.738 53 60.869l-3.893 14.526C38.626 473.752 68.235 512 108.494 512c27.738 0 52.132-18.733 59.319-45.557l12.26-45.755h63.597l-3.736 13.948C229.42 473.858 259.175 512 299.319 512c27.738 0 52.132-18.733 59.319-45.557l2.481-9.261a7.498 7.498 0 0 0-5.302-9.185z"/><path d="M192.791 297.795c-4.143 0-7.5 3.357-7.5 7.5s3.357 7.5 7.5 7.5h100c4.143 0 7.5-3.357 7.5-7.5s-3.357-7.5-7.5-7.5h-.662l22.397-83.59h4.683c4.143 0 7.5-3.357 7.5-7.5s-3.357-7.5-7.5-7.5h-100a7.499 7.499 0 0 0-7.5 7.5c0 3.766 2.757 7.5 8.162 7.5l-22.397 83.59zm42.609-83.59h63.597l-22.397 83.59h-63.597z"/><path d="M450.553 214.205c33.882 0 61.447-27.565 61.447-61.447 0-31.016-23.102-56.737-53-60.868l3.893-14.526C473.41 38.113 443.622 0 403.507 0c-27.739 0-52.133 18.733-59.32 45.557l-12.26 45.755H268.33l3.736-13.948C282.588 38.112 252.797 0 212.682 0c-27.739 0-52.133 18.733-59.321 45.56l-1.976 7.37a7.5 7.5 0 0 0 5.302 9.187 7.506 7.506 0 0 0 9.187-5.302l1.977-7.375C173.284 29.162 191.72 15 212.682 15c30.35 0 52.843 28.819 44.896 58.481l-5.607 20.929-2.981 2.288a7.502 7.502 0 0 0 9.133 11.901l2.98-2.287h72.881l1.748 2.278a7.501 7.501 0 0 0 11.901-9.131l-1.749-2.279 12.792-47.741C364.109 29.162 382.545 15 403.507 15c30.351 0 52.841 28.819 44.897 58.481l-5.959 22.238-1.606 1.298a7.501 7.501 0 0 0 9.428 11.668l2.847-2.3C477.538 107.719 497 128.007 497 152.758c0 25.611-20.836 46.447-46.447 46.447h-26.384l-1.748-2.278a7.5 7.5 0 0 0-11.901 9.131l1.749 2.279-24.8 92.558-1.98 1.52a7.5 7.5 0 0 0 9.131 11.901l1.98-1.52h4.76c25.61 0 46.446 20.836 46.446 46.447S426.97 405.69 401.36 405.69h-32.293l-2.762-3.979a7.498 7.498 0 0 0-10.438-1.883 7.5 7.5 0 0 0-1.883 10.438l3.016 4.343-2.603 9.713a7.5 7.5 0 0 0 14.488 3.883l2.014-7.516h30.461c33.882 0 61.446-27.565 61.446-61.447 0-33.06-26.247-60.092-58.995-61.385l22.414-83.652z"/><path d="M223.312 148.123v-12c0-4.143-3.357-7.5-7.5-7.5s-7.5 3.357-7.5 7.5v12c0 4.143 3.357 7.5 7.5 7.5s7.5-3.357 7.5-7.5zM348.209 148.123v-12c0-4.143-3.357-7.5-7.5-7.5s-7.5 3.357-7.5 7.5v12c0 4.143 3.357 7.5 7.5 7.5s7.5-3.357 7.5-7.5zM300.379 152.692a7.498 7.498 0 0 0-.728-10.581 7.498 7.498 0 0 0-10.581.728c-5.726 6.57-15.899 6.563-21.62-.001a7.5 7.5 0 0 0-11.309 9.855c11.729 13.454 32.57 13.391 44.238-.001z"/></g></svg>