<svg height="512" width="512" xmlns="http://www.w3.org/2000/svg"><path d="M319.64 350.856c-15.962-15.963-36.428-24.677-57.307-26.141L166 414.5l96.333 89.785c20.879-1.464 41.345-10.177 57.307-26.141C337.213 460.569 346 437.535 346 414.5s-8.787-46.069-26.36-63.644z" fill="#e8b5b1"/><path d="M223.273 414.5c0-33.08 13.284-65.737 39.06-89.785A90.432 90.432 0 0 0 256 324.5c-49.686 0-90 40.249-90 90 0 49.686 40.247 90 90 90 2.112 0 4.225-.067 6.333-.215-25.018-23.341-39.06-55.664-39.06-89.785z" fill="#d6948c"/><path d="M291 15.53h-57.511v266H291c9.241-7.942 15.754-18.968 17.933-31.485l25.88-148.736C341.17 64.784 321.846 30.569 291 15.53z" fill="#e8b5b1"/><path d="m273.067 250.045-25.88-148.736C240.824 64.746 260.168 30.559 291 15.53c-10.515-5.127-22.367-8.03-35-8.03-49.646 0-87.347 44.772-78.813 93.809l25.88 148.736C207.462 275.299 229.489 294.5 256 294.5c13.371 0 25.597-4.889 35-12.97-9.241-7.942-15.754-18.967-17.933-31.485z" fill="#d6948c"/><g fill="#ffdbe0"><ellipse cx="201.591" cy="419.977" rx="22.5" ry="17.918"/><ellipse cx="310.409" cy="419.977" rx="22.5" ry="17.918"/></g><ellipse cx="256" cy="415.767" fill="#4c5699" rx="16.423" ry="18.377"/><g><path d="M256 317c-53.762 0-97.5 43.738-97.5 97.5S202.238 512 256 512a98.58 98.58 0 0 0 6.857-.233c22.021-1.544 43.08-10.646 59.297-25.63a7.502 7.502 0 0 0 .419-10.599 7.502 7.502 0 0 0-10.599-.419c-13.72 12.677-31.536 20.378-50.165 21.685-1.865.13-3.819.196-5.81.196-45.49 0-82.5-37.01-82.5-82.5S210.51 332 256 332s82.5 37.01 82.5 82.5c0 13.601-3.376 27.079-9.765 38.979a7.5 7.5 0 1 0 13.217 7.093c7.555-14.074 11.548-30.006 11.548-46.073C353.5 360.738 309.762 317 256 317zM195.679 251.331C200.787 280.69 226.156 302 256 302s55.213-21.31 60.321-50.669l25.88-148.737C351.627 48.432 309.748 0 256 0c-22.236 0-43.411 8.331-59.623 23.459a7.5 7.5 0 0 0-.367 10.6 7.5 7.5 0 0 0 10.6.367C220.035 21.899 237.576 15 256 15c44.6 0 79.229 40.166 71.424 85.022l-25.88 148.737C297.688 270.917 278.534 287 256 287s-41.688-16.083-45.544-38.24l-25.88-148.736c-2.548-14.657-.724-29.8 6.008-43.809a7.5 7.5 0 0 0-3.513-10.008 7.498 7.498 0 0 0-10.008 3.512c-8.138 16.937-10.332 35.256-7.265 52.876z"/><path d="M199.825 392.966v12c0 4.143 3.357 7.5 7.5 7.5s7.5-3.357 7.5-7.5v-12c0-4.143-3.357-7.5-7.5-7.5s-7.5 3.357-7.5 7.5zM232.077 415.767c0 14.269 10.731 25.877 23.923 25.877s23.923-11.608 23.923-25.877S269.191 389.89 256 389.89s-23.923 11.608-23.923 25.877zm32.846 0c0 5.998-4.003 10.877-8.923 10.877s-8.923-4.879-8.923-10.877S251.08 404.89 256 404.89s8.923 4.879 8.923 10.877zM297.175 392.966v12c0 4.143 3.357 7.5 7.5 7.5s7.5-3.357 7.5-7.5v-12c0-4.143-3.357-7.5-7.5-7.5s-7.5 3.357-7.5 7.5z"/></g></svg>