<svg height="512" width="512" xmlns="http://www.w3.org/2000/svg"><path d="m173.301 7.5-69.242 39.244v87.321h69.242c66.87 0 121.271 54.7 121.271 121.935S240.17 377.934 173.301 377.934h-69.242v64.344l30 62.222h39.242c136.654 0 247.83-111.476 247.83-248.499S309.955 7.5 173.301 7.5z" fill="#676fb2"/><path d="M134.059 102.244A133.992 133.992 0 0 1 173.301 7.5H70.78C35.831 7.5 7.5 35.833 7.5 70.783v370.434c0 34.95 28.331 63.283 63.279 63.283H173.3a133.993 133.993 0 0 1-39.242-94.744l.001-307.512z" fill="#4c5699"/><g fill="#ff8e9e"><ellipse cx="94.956" cy="102.563" rx="29.355" ry="23.377"/><ellipse cx="254.07" cy="102.563" rx="29.355" ry="23.377"/></g><path d="m492.569 377.354-6.615-6.615a53.133 53.133 0 0 0-42.814-15.303l-27.381 2.715-57.607 57.607-2.715 27.381a53.133 53.133 0 0 0 15.303 42.814l6.615 6.615c15.908 15.908 41.7 15.908 57.607 0l57.607-57.607c15.908-15.907 15.908-41.699 0-57.607z" fill="#ff8e9e"/><path d="m377.354 434.962 57.607-57.607c15.882-15.882 41.725-15.882 57.607 0l-57.607-57.607c-15.882-15.882-41.725-15.882-57.607 0l-57.607 57.607c-15.882 15.882-15.882 41.725 0 57.607l57.607 57.607c-15.882-15.882-15.882-41.725 0-57.607z" fill="#ea5b70"/><g><path d="M119.367 80.06v-12a7.5 7.5 0 0 0-15 0v12a7.5 7.5 0 0 0 15 0zM244.264 80.06v-12a7.5 7.5 0 0 0-15 0v12a7.5 7.5 0 0 0 15 0zM196.434 84.63a7.5 7.5 0 0 0-11.309-9.855c-5.726 6.571-15.898 6.565-21.62 0a7.5 7.5 0 0 0-11.309 9.855c11.705 13.431 32.545 13.418 44.238 0zM126.559 141.572v228.855c0 8.271 6.729 15 15 15h31.742c71.005 0 128.771-58.061 128.771-129.427 0-71.367-57.767-129.429-128.771-129.429h-31.742c-8.271.001-15 6.73-15 15.001zm160.513 114.429c0 63.095-51.038 114.427-113.771 114.427h-31.742V141.572h31.742c62.734 0 113.771 51.333 113.771 114.429z"/><path d="m497.872 372.051-14.143-14.142c-2.928-2.93-7.677-2.929-10.606 0s-2.929 7.678.001 10.606l14.142 14.142c12.987 12.989 12.989 34.012 0 47.001l-57.606 57.607c-12.99 12.988-34.011 12.991-47.002 0l-57.607-57.607c-12.965-12.965-12.965-34.037 0-47.001l57.608-57.608c13.06-13.062 34.149-12.852 47 0l22.252 22.252a7.5 7.5 0 0 0 10.607-10.606l-22.253-22.252a48.028 48.028 0 0 0-16.098-10.646C453.946 146.21 333.134 0 173.301 0H76.242c-4.142 0-7.5 3.372-7.5 7.514s3.358 7.5 7.5 7.5h97.059c149.537 0 263.998 136.56 236.223 285.449-14.281-.975-27.677 4.184-37.473 13.98l-57.607 57.607c-18.828 18.828-18.827 49.387 0 68.214l6.073 6.073c-42.005 32.711-93.954 50.649-147.215 50.649H70.779C40.022 496.987 15 471.964 15 441.208V70.793c0-22.758 13.609-43.032 34.672-51.649a7.5 7.5 0 0 0-5.679-13.883C17.268 16.194 0 41.917 0 70.793v370.415C0 480.235 31.751 512 70.779 512H173.3c57.22 0 113.015-19.49 157.901-54.976l40.849 40.849c9.11 9.11 21.224 14.127 34.107 14.127s24.996-5.017 34.107-14.127l57.607-57.607c9.109-9.109 14.127-21.223 14.127-34.107.002-12.846-5.016-24.997-14.126-34.108z"/><path d="M413.359 398.957c-3.977-3.977-10.425-3.977-14.402 0s-3.977 10.425 0 14.402 10.425 3.977 14.402 0 3.977-10.425 0-14.402zM413.359 341.35c-3.977-3.977-10.425-3.977-14.402 0s-3.977 10.425 0 14.402 10.425 3.977 14.402 0c3.977-3.978 3.977-10.426 0-14.402zM341.349 398.957c-3.977 3.977-3.977 10.425 0 14.402s10.425 3.977 14.402 0 3.977-10.425 0-14.402-10.425-3.977-14.402 0z"/><circle cx="463.765" cy="406.158" r="10.184"/><path d="M398.957 456.564c-3.977 3.977-3.977 10.425 0 14.402s10.425 3.977 14.402 0 3.977-10.425 0-14.402-10.425-3.977-14.402 0z"/></g></svg>