<svg height="512" width="512" xmlns="http://www.w3.org/2000/svg"><path d="M255.998 134.065h55.322c34.952 0 63.283-28.333 63.283-63.283S346.272 7.499 311.321 7.499h-55.322l-155.89 71.723v214.446h39.919c-25.66-78.816 33.523-159.603 115.97-159.603zM441.217 192.718H334.249c-34.952 0-63.283 28.333-63.283 63.283s28.331 63.283 63.283 63.283h26.034a122.859 122.859 0 0 1-18.061 22.938c-23.032 23.03-53.654 35.712-86.224 35.712-47.49 0-88.72-27.292-108.843-67.013V471.4h220.089l64.472-39.683.004-.004C478.652 384.772 504.499 322.37 504.499 256c.001-34.949-28.33-63.282-63.282-63.282z" fill="#70dcba"/><path d="M147.155 310.922a121.132 121.132 0 0 1-7.128-17.254C99.5 183.197 149.092 59.097 255.998 7.499 118.975 7.499 7.5 118.977 7.5 256.001c0 137.023 111.475 248.5 248.499 248.5 66.377 0 128.779-25.846 175.719-72.783-112.237 39.165-235.242-13.722-284.563-120.796z" fill="#30cd9c"/><g fill="#4c5699"><path d="M207.705 407.555h-24.568c-10.322 0-18.015 9.518-15.851 19.61l1.361 6.346c2.287 10.665 11.713 18.284 22.621 18.284h8.307c10.908 0 20.334-7.619 22.621-18.284l1.361-6.346c2.162-10.092-5.531-19.61-15.852-19.61zM331.532 407.555h-24.568c-10.322 0-18.015 9.518-15.851 19.61l1.361 6.346c2.287 10.665 11.713 18.284 22.621 18.284h8.307c10.908 0 20.334-7.619 22.621-18.284l1.361-6.346c2.163-10.092-5.53-19.61-15.852-19.61z"/></g><g><path d="M422.783 429.991c-45.073 43.212-104.305 67.01-166.785 67.01-132.887 0-240.998-108.112-240.998-241 0-65.993 26.259-127.625 73.941-173.543a7.5 7.5 0 0 0-10.405-10.804C29.963 118.43 0 183.813 0 256.001 0 397.16 114.84 512 255.999 512c66.368 0 129.287-25.278 177.166-71.181a7.5 7.5 0 1 0-10.382-10.828z"/><path d="M441.217 185.218H334.249c-39.03 0-70.783 31.753-70.783 70.783 0 39.029 31.753 70.782 70.783 70.782h11.685c-21.54 27.26-54.051 43.651-89.936 43.651-64.153 0-114.478-52.508-114.478-114.765 0-62.917 51.354-114.104 114.478-114.104h55.322c39.03 0 70.783-31.753 70.783-70.783S350.351 0 311.321 0h-55.322c-56.031 0-109.277 17.844-153.981 51.604a7.5 7.5 0 0 0 9.04 11.971c42.08-31.779 92.2-48.576 144.941-48.576h55.322c30.758 0 55.783 25.024 55.783 55.783s-25.024 55.783-55.783 55.783h-55.322c-73.549 0-129.478 60.419-129.478 129.104 0 69.887 56.383 129.765 129.478 129.765 44.538 0 84.663-22.449 108.408-58.651h15.877c4.143 0 7.5-3.357 7.5-7.5s-3.357-7.5-7.5-7.5H334.25c-30.759 0-55.783-25.023-55.783-55.782s25.024-55.783 55.783-55.783h106.968c30.759 0 55.783 25.024 55.783 55.783 0 55.564-19.346 109.776-54.475 152.647a7.501 7.501 0 0 0 11.604 9.508C491.447 372.61 512 315.022 512 256.001c0-39.03-31.753-70.783-70.783-70.783zM266.81 439.943c-5.724 6.57-15.9 6.566-21.62 0a7.5 7.5 0 0 0-11.309 9.855c11.706 13.431 32.544 13.416 44.237 0a7.5 7.5 0 0 0-11.308-9.855z"/><path d="m283.78 428.737 1.36 6.346c3.009 14.029 15.606 24.212 29.955 24.212h8.307c14.348 0 26.946-10.183 29.955-24.212l1.36-6.346c1.508-7.035-.22-14.28-4.744-19.876s-11.245-8.806-18.44-8.806h-24.568a23.597 23.597 0 0 0-14.646 5.057c-23.709-3.008-46.206-3.015-69.967 0a23.603 23.603 0 0 0-14.646-5.057h-24.568a23.609 23.609 0 0 0-18.441 8.807 23.606 23.606 0 0 0-4.743 19.875l1.36 6.346c3.009 14.029 15.606 24.212 29.954 24.212h8.307c14.348 0 26.946-10.183 29.955-24.212l1.36-6.346a23.69 23.69 0 0 0 .091-9.519 255.739 255.739 0 0 1 52.71 0 23.654 23.654 0 0 0 .089 9.519zm23.184-13.681h24.568c2.644 0 5.113 1.179 6.775 3.235s2.296 4.717 1.742 7.302l-1.36 6.346c-1.535 7.16-7.965 12.356-15.288 12.356h-8.307c-7.323 0-13.752-5.196-15.288-12.356l-1.36-6.346c-1.155-5.389 2.961-10.537 8.518-10.537zm-90.742 10.537-1.36 6.346c-1.535 7.16-7.965 12.356-15.288 12.356h-8.307c-7.323 0-13.752-5.196-15.287-12.356l-1.361-6.347c-.554-2.584.081-5.245 1.743-7.301s4.131-3.235 6.775-3.235h24.568c5.542 0 9.674 5.138 8.517 10.537z"/></g></svg>