<svg height="512" viewBox="0 0 496.996 496.996" width="512" xmlns="http://www.w3.org/2000/svg"><path d="M442.548 295.12a16.672 16.672 0 0 0-.32 18.71 16.504 16.504 0 0 1 2.71 9.09c0 5.48-2.69 10.86-7.65 14.04l-32.43 20.8a63.313 63.313 0 0 1-34.23 10.04c-9.98 0-19.67-2.35-28.36-6.7a63.254 63.254 0 0 1-22.36-18.67l-7.83-10.45-20.33-34.18v-78.85l160.58-26 26.36 29.06c5.26 5.8 5.77 14.49 1.21 20.87l-37.28 52.15c-.011.01-.03.04-.07.09z" fill="#ffceec"/><path d="M479.899 242.876a16.653 16.653 0 0 0-1.213-20.871l-26.36-29.06-20.312 3.29 23.376 25.771a16.651 16.651 0 0 1 1.213 20.871l-37.281 52.156a16.65 16.65 0 0 0-.39 18.796c5.063 7.744 2.843 18.13-4.944 23.127l-32.423 20.808a63.376 63.376 0 0 1-22.564 8.95 63.333 63.333 0 0 0 11.628 1.089 63.37 63.37 0 0 0 34.232-10.04l32.423-20.808c7.787-4.997 10.007-15.383 4.944-23.127a16.65 16.65 0 0 1 .39-18.796z" fill="#ffbee6"/><path d="M443.098 315.32c-10.17 8.11-26.73 17.68-48.32 17.68-.32 0-.64 0-.96-.01a7.49 7.49 0 0 1-7.4-7.6c.05-4.14 3.47-7.47 7.6-7.4 29 .39 47.26-21.31 48.53-22.87a16.672 16.672 0 0 0-.32 18.71c.32.49.61.99.87 1.49z" fill="#ffbee6"/><path d="m138.788 386.52-28.59 28.58a71.719 71.719 0 0 1-55.27 20.87l-24.61-1.56-.34-.03a13.54 13.54 0 0 1-11.73-9.47c-.32-1.01-.52-2.06-.59-3.16l-1.57-24.61a71.777 71.777 0 0 1 20.87-55.28l28.59-28.58a71.721 71.721 0 0 1 62.81-19.99l16.52 2.82c5.67.97 10.11 5.41 11.07 11.07l2.83 16.53a71.73 71.73 0 0 1-19.99 62.81z" fill="#bbf49b"/><path d="m158.775 323.706-2.823-16.523a13.547 13.547 0 0 0-11.072-11.072l-16.523-2.823a71.689 71.689 0 0 0-23.739-.069c.148.024.295.044.443.069l16.523 2.823a13.547 13.547 0 0 1 11.072 11.072l2.823 16.523a71.742 71.742 0 0 1-19.988 62.811l-28.585 28.585a71.726 71.726 0 0 1-40.813 20.307l8.832.561a71.743 71.743 0 0 0 55.276-20.868l28.585-28.585a71.74 71.74 0 0 0 19.989-62.811z" fill="#9be69d"/><path d="M250.698 383.05v40.43c0 20.61-8.86 40.22-24.33 53.84l-18.51 16.3c-.46.41-.95.78-1.45 1.11a13.55 13.55 0 0 1-15 0c-.5-.33-.99-.7-1.45-1.11l-18.51-16.3a71.76 71.76 0 0 1-24.33-53.84v-40.43c0-23.27 11.29-45.1 30.28-58.54l13.68-9.69a13.556 13.556 0 0 1 15.66 0l13.68 9.69a71.723 71.723 0 0 1 30.28 58.54z" fill="#bbf49b"/><g fill="#9be69d"><path d="m220.418 324.505-13.68-9.688a13.546 13.546 0 0 0-15.658 0l-3.819 2.704 9.861 6.983a71.741 71.741 0 0 1 30.28 58.547v40.425a71.744 71.744 0 0 1-24.33 53.843l-15.811 13.923 2.695 2.373a13.545 13.545 0 0 0 17.905 0l18.506-16.296a71.742 71.742 0 0 0 24.33-53.843v-40.425a71.736 71.736 0 0 0-30.279-58.546zM107.818 353.97l-77.84 80.41a13.54 13.54 0 0 1-11.73-9.47l78.76-81.34a7.513 7.513 0 0 1 10.61-.2 7.5 7.5 0 0 1 .2 10.6z"/><path d="M206.407 335.73c0-4.142-3.357-7.5-7.5-7.5s-7.5 3.358-7.5 7.5l.001 159a13.55 13.55 0 0 0 15 0z"/></g><path d="M205.248 218.95v78.85l-20.33 34.18-7.83 10.45a63.254 63.254 0 0 1-22.36 18.67 63.332 63.332 0 0 1-28.36 6.7 63.37 63.37 0 0 1-34.24-10.04l-32.42-20.8c-4.96-3.18-7.66-8.56-7.66-14.04 0-2.87.74-5.77 2.29-8.4.14-.23.28-.46.43-.69 3.76-5.75 3.6-13.21-.39-18.8l-37.28-52.15a16.653 16.653 0 0 1 1.21-20.87l26.36-29.06 87.85 14.22z" fill="#ffceec"/><path d="m176.558 214.3.005.004-44.046-7.134c-5.51 4.43-9.04 11.22-9.04 18.85v9.497c0 9.324-7.418 17.302-16.741 17.213-5.685-.054-9.469 4.581-9.469 9.42 0 2.26.83 4.56 2.67 6.46l52.573 54.013a15.27 15.27 0 0 1 1.278 19.807 63.254 63.254 0 0 1-22.36 18.67 63.428 63.428 0 0 1-16.71 5.62c3.83.72 7.72 1.08 11.65 1.08 9.98 0 19.67-2.35 28.36-6.7a63.254 63.254 0 0 0 22.36-18.67l7.83-10.45 20.33-34.18v-78.85z" fill="#ffbee6"/><path d="m213.408 130.11-8.34 25.24-5.31 16.07-10.05 30.44-9.94 30.09-56.63 7.33-31.91 4.13c-22.85 2.96-44.6-10.69-51.87-32.55l-16.69-50.15c-.06-.2-.13-.39-.18-.59a28.086 28.086 0 0 1-.27-15.26c1.19-4.59 3.55-8.88 6.96-12.42l3.97-4.11a28.25 28.25 0 0 0 7.89-19.58v-8.57c0-.12 0-.23.01-.35.06-5.19 1.55-10.17 4.18-14.45 2.4-3.9 5.75-7.23 9.84-9.6l31.1-18.08a28.189 28.189 0 0 1 27.82-.31c4.63 2.55 10 5.51 15.46 8.51 15.72 8.61 32.22 17.53 34.07 18.04z" fill="#ffbee6"/><path d="m213.407 130.11-49.89-46.17c-1.85-.51-18.35-9.43-34.07-18.04-.89 3.58-1.35 7.3-1.35 11.08v35.3c0 13.52 5.94 26.36 16.24 35.13l12.83 10.92c3.078 2.62 4.056 7.038 2.182 10.619a25.198 25.198 0 0 0-2.871 11.721v12.36a8.81 8.81 0 0 1-8.81 8.81c-13.36 0-24.19 10.83-24.19 24.19v9.86c0 1.16-.12 2.3-.34 3.39l56.63-7.33 9.94-30.09h-.003l10.053-30.44 5.31-16.07z" fill="#feaee1"/><path d="m184.912 331.981 36.59 50.326a53.979 53.979 0 0 0 21.945 17.676L257 405.938a53.977 53.977 0 0 0 44.957-.7l29.291-13.973c9.932-4.738 13.42-17.139 7.415-26.36l-21.443-32.924-58.398-11.691z" fill="#ffceec"/><path d="m338.662 364.906-21.443-32.924-14.019-2.807-9.276 2.807 21.443 32.924c6.006 9.221 2.518 21.622-7.415 26.36l-29.291 13.973a53.934 53.934 0 0 1-11.583 3.973 53.962 53.962 0 0 0 34.878-3.973l29.291-13.973c9.933-4.739 13.421-17.139 7.415-26.36zM474.888 158.74c-.16.66-.35 1.32-.56 1.97l-18.66 55.24c-7.69 22.76-30.99 36.37-54.59 31.9l-83.85-15.9-33.65-101.84 49.9-46.17c2.5-.69 31.6-16.65 49.53-26.55 8.69-4.8 19.25-4.68 27.82.31l31.09 18.08c1.73 1 3.32 2.18 4.77 3.48 3.96 3.59 6.81 8.22 8.23 13.34.68 2.44 1.04 4.98 1.04 7.58v8.57c0 7.3 2.83 14.32 7.89 19.58l3.96 4.11c3.07 3.18 5.28 6.97 6.57 11.03 1.55 4.88 1.77 10.16.51 15.27z" fill="#ffbee6"/><path d="m467.812 132.443-3.965-4.117a28.22 28.22 0 0 1-7.892-19.574v-8.576a28.22 28.22 0 0 0-14.034-24.395L410.83 57.7a28.204 28.204 0 0 0-25.841-1.296c.863.391 1.716.814 2.545 1.296l31.092 18.08a28.22 28.22 0 0 1 14.034 24.395v8.576c0 7.3 2.829 14.316 7.893 19.574l3.964 4.117a28.218 28.218 0 0 1 6.519 28.271L432.37 215.95c-5.422 16.044-18.598 27.529-34.168 31.351l2.876.545c23.605 4.474 46.896-9.135 54.588-31.896l18.666-55.236a28.22 28.22 0 0 0-6.52-28.271z" fill="#feaee1"/><path d="M350.008 77.56v34.8c0 15.06-7.36 29.18-19.71 37.81l-30.42 21.25h-104.03l-28.22-24.01a46.136 46.136 0 0 1-16.23-35.13v-35.3a46.14 46.14 0 0 1 23.97-40.46l28.44-15.58 13.15-7.21 19.16-10.49a26.314 26.314 0 0 1 24.87-.23l7.67 4.02 13.31 6.97 43.32 22.7a46.137 46.137 0 0 1 24.72 40.86z" fill="#d691c6"/><path d="M325.283 36.696 260.991 3.008a26.325 26.325 0 0 0-23.871-.279c.191.094.386.18.575.279l64.292 33.688a46.13 46.13 0 0 1 24.72 40.861v34.798a46.132 46.132 0 0 1-19.708 37.814l-30.417 21.254h23.296l30.417-21.254a46.129 46.129 0 0 0 19.708-37.814V77.557a46.133 46.133 0 0 0-24.72-40.861z" fill="#cd7cbb"/><path d="m394.039 398.583-8.747 1.494a7.17 7.17 0 0 0-5.861 5.861l-1.494 8.747a37.976 37.976 0 0 0 10.581 33.249l15.132 15.132a37.979 37.979 0 0 0 29.261 11.047l13.027-.827a7.172 7.172 0 0 0 6.702-6.702l.827-13.027a37.975 37.975 0 0 0-11.047-29.261l-15.132-15.132a37.976 37.976 0 0 0-33.249-10.581z" fill="#bbf49b"/><path d="m442.42 424.295-15.132-15.131a37.978 37.978 0 0 0-33.249-10.581l-6.097 1.042a37.945 37.945 0 0 1 16.051 9.539l15.131 15.131a37.979 37.979 0 0 1 11.047 29.261l-.827 13.027a7.171 7.171 0 0 1-6.702 6.702l-.256.016a37.922 37.922 0 0 0 10.525.811l13.027-.827a7.171 7.171 0 0 0 6.702-6.702l.827-13.027a37.979 37.979 0 0 0-11.047-29.261z" fill="#9be69d"/><path d="M317.219 231.952H179.767v-51.285c0-13.985 11.337-25.321 25.321-25.321h86.81c13.985 0 25.321 11.337 25.321 25.321z" fill="#b2529f"/><path d="M291.898 155.346h-23.296c13.984 0 25.321 11.337 25.321 25.321v51.285h23.296v-51.285c0-13.985-11.336-25.321-25.321-25.321z" fill="#9a4588"/><path d="M384.668 222.54v8.12c0 21.69-8.61 42.49-23.95 57.82l-43.5 43.5h-132.31l-61.68-63.37c-1.84-1.89-2.67-4.2-2.67-6.46 0-4.81 3.75-9.42 9.38-9.42 9.3 0 16.84-7.54 16.84-16.84v-9.87c0-13.36 10.83-24.18 24.18-24.18h40.15c2.51 0 5.02.07 7.52.22 10.04.59 19.98 2.36 29.63 5.27l17.06 5.16.61.18c4.3 1.3 8.94.95 13.01-.97l1.85-.88 10.33-4.9a128.47 128.47 0 0 1 54.98-12.36h9.59c16.01 0 28.98 12.97 28.98 28.98z" fill="#d691c6"/><path d="M355.689 193.557h-9.592c-3.086 0-6.165.123-9.232.344 13.883 2.15 24.51 14.152 24.51 28.638v8.12a81.769 81.769 0 0 1-23.951 57.822l-43.5 43.501h23.295l43.501-43.501a81.775 81.775 0 0 0 23.951-57.822v-8.12c0-16.007-12.976-28.982-28.982-28.982zM281.968 14c-1.56 3.98-10.64 28.38-11.2 60.49-.08 4.1-3.42 7.37-7.5 7.37h-.13a7.497 7.497 0 0 1-7.37-7.63c.66-38.04 12.13-65.5 12.62-66.65.08-.19.17-.37.27-.55zM236.798 102.5c0 4.14-3.36 7.5-7.5 7.5s-7.5-3.36-7.5-7.5c0-42.28-16.29-77.94-17.99-81.56l13.15-7.21c.06.1.11.2.16.3.8 1.64 19.68 40.63 19.68 88.47z" fill="#cd7cbb"/><g fill="#feaee1"><path d="M454.918 92.6c-6.2 1.15-14.07 5.01-22.26 10.08-16.94 10.48-35.24 26.11-42.79 33.36a7.48 7.48 0 0 1-5.2 2.09 7.492 7.492 0 0 1-5.19-12.9c.44-.43 10.91-10.45 24.7-21.21 9.2-7.18 17.6-12.9 25.14-17.15 6.42-3.61 12.22-6.16 17.37-7.61 3.96 3.59 6.81 8.22 8.23 13.34zM474.888 158.74c-.17-.02-.35-.04-.53-.08-6.39-1.16-14.44-1.55-22.41-1.56-16.49-.02-32.62 1.62-32.86 1.64a7.48 7.48 0 0 1-8.23-6.68 7.5 7.5 0 0 1 6.68-8.24c.98-.1 16.41-1.67 33.06-1.72 8.14-.02 16.59.32 23.78 1.37 1.55 4.88 1.77 10.16.51 15.27z"/></g><path d="M98.968 119.5a7.488 7.488 0 0 1-6.04 3.04c-1.55 0-3.11-.48-4.45-1.47-.34-.25-22.15-16.13-47.43-21.24.06-5.19 1.55-10.17 4.18-14.45 28.16 6.02 51.19 22.9 52.17 23.63a7.504 7.504 0 0 1 1.57 10.49zM83.488 174.73c-1.3 2.65-3.97 4.19-6.74 4.19-1.11 0-2.23-.24-3.3-.77-.29-.14-28.26-13.79-50.96-18.03a28.086 28.086 0 0 1-.27-15.26l.25.03c25.33 4.03 56.3 19.16 57.6 19.8a7.495 7.495 0 0 1 3.42 10.04z" fill="#feaee1"/><path d="M280.788 210.82c-.54 3.27-1.24 7.76-2.01 13.24-1.69 12.1-3.7 29.04-4.97 48.49a7.5 7.5 0 0 1-7.48 7.01c-.17 0-.33 0-.5-.01-4.13-.27-7.26-3.84-6.99-7.98 1.68-25.75 4.58-46.96 6.48-59.08l.61.18c4.3 1.3 8.94.95 13.01-.97zM224.418 273.2c-.83.3-1.69.44-2.53.44-3.07 0-5.96-1.91-7.06-4.97-.38-1.07-9.39-26.61-11.21-66.49-.01-.12-.01-.22-.01-.34h7.5c2.51 0 5.02.07 7.52.22 1.78 37.32 10.24 61.31 10.32 61.55 1.4 3.9-.63 8.19-4.53 9.59z" fill="#cd7cbb"/><path d="M112.278 321.9c0 4.14-3.36 7.5-7.5 7.5-23.53 0-40.34-8-50.44-14.88.14-.23.28-.46.43-.69 3.76-5.75 3.6-13.21-.39-18.8.71.81 17.27 19.37 50.4 19.37 4.14 0 7.5 3.36 7.5 7.5z" fill="#ffbee6"/></svg>