<svg height="512" viewBox="0 0 496.996 496.996" width="512" xmlns="http://www.w3.org/2000/svg"><path d="m260.533 481.276-2.2 5.618c-3.504 8.946-16.164 8.946-19.668 0l-2.2-5.618a437.815 437.815 0 0 1-30.153-159.667h84.376a437.85 437.85 0 0 1-30.155 159.667z" fill="#bbf49b"/><path d="M268.946 321.609c0 54.638-5.181 93.647-25.107 144.521l-2.2 5.618c-1.258 3.212-3.702 5.251-6.473 6.156.43 1.125.859 2.25 1.298 3.372l2.2 5.618c3.504 8.946 16.164 8.946 19.668 0l2.2-5.618a437.816 437.816 0 0 0 30.154-159.667z" fill="#9be69d"/><path d="m260.533 15.719-2.2-5.618c-3.504-8.946-16.164-8.946-19.668 0l-2.2 5.618a437.815 437.815 0 0 0-30.153 159.667h84.376a437.85 437.85 0 0 0-30.155-159.667z" fill="#bbf49b"/><path d="m260.533 15.719-2.2-5.618c-3.504-8.946-16.164-8.946-19.668 0l-2.2 5.618c-.214.546-.42 1.094-.631 1.64 2.417 1.025 4.501 2.965 5.63 5.847l2.2 5.618c19.926 50.875 25.284 91.924 25.284 146.562h21.74a437.85 437.85 0 0 0-30.155-159.667z" fill="#9be69d"/><path d="M175.389 206.308v84.38c-10.47 0-20.93-.38-31.35-1.13a437.65 437.65 0 0 1-128.32-29.03l-5.62-2.2c-8.94-3.5-8.94-16.16 0-19.66l5.62-2.2a437.65 437.65 0 0 1 128.32-29.03 436.711 436.711 0 0 1 31.35-1.13z" fill="#bbf49b"/><path d="M175.389 206.308v84.38c-10.47 0-20.93-.38-31.35-1.13l-25.05-25.05c-8.84-8.84-8.84-23.18 0-32.02l25.05-25.05a436.711 436.711 0 0 1 31.35-1.13z" fill="#9be69d"/><path d="m481.277 260.532 5.618-2.2c8.946-3.504 8.946-16.164 0-19.668l-5.618-2.2a437.815 437.815 0 0 0-159.667-30.153v84.376a437.85 437.85 0 0 0 159.667-30.155z" fill="#bbf49b"/><path d="m486.895 238.663-5.617-2.2a437.815 437.815 0 0 0-159.667-30.153v.546a437.788 437.788 0 0 1 137.927 29.608l5.617 2.2c8.947 3.504 8.947 16.164 0 19.668l-5.617 2.2a437.815 437.815 0 0 1-137.927 29.608v.546a437.791 437.791 0 0 0 159.667-30.154l5.617-2.2c8.947-3.504 8.947-16.165 0-19.669z" fill="#9be69d"/><path d="m356.269 264.508-7.41 7.41-84.35 84.35a22.436 22.436 0 0 1-10.29 5.89c-5.53 1.44-11.49.76-16.6-2.05-1.84-1-3.57-2.28-5.13-3.84l-91.76-91.76c-8.84-8.84-8.84-23.18 0-32.02l91.76-91.76c1.56-1.56 3.3-2.85 5.14-3.85 5.11-2.8 11.06-3.48 16.59-2.04 3.77.97 7.34 2.94 10.29 5.89l91.76 91.76c8.839 8.839 8.839 23.18 0 32.02z" fill="#8379c1"/><path d="m356.269 264.508-7.41 7.41-84.35 84.35a22.436 22.436 0 0 1-10.29 5.89c-5.53 1.44-11.49.76-16.6-2.05l.01-.01c1.84-1 3.58-2.27 5.14-3.83l.502-.502c5.322-5.322 8.532-12.331 9.39-19.808 1.904-16.58 9.271-32.483 21.658-44.87 13.639-13.639 31.541-21.193 49.909-22.067 3.876-.185 7.552-1.77 10.299-4.511l.002-.002c8.84-8.84 8.84-23.18 0-32.02-2.761-2.755-6.46-4.335-10.356-4.515a75.44 75.44 0 0 1-49.854-22.065c-12.387-12.387-19.754-28.29-21.658-44.87-.858-7.477-4.069-14.486-9.39-19.808l-.502-.502c-1.56-1.56-3.3-2.83-5.14-3.83v-.02c5.11-2.8 11.06-3.48 16.59-2.04 3.77.97 7.34 2.94 10.29 5.89l91.76 91.76c8.839 8.839 8.839 23.18 0 32.02z" fill="#6e61b6"/><path d="M205.529 405.837c-16.31 26.12-40.88 46.34-70.16 56.48-1.21.42-104.68 33.52-104.68 33.52-6.29 2.02-12.47 1.28-17.61-1.31h-.01c-9.7-4.88-15.72-16.34-11.91-28.22 0 0 33.1-103.47 33.52-104.68 10.14-29.28 30.36-53.85 56.48-70.16l100.37 100.37z" fill="#ffceec"/><path d="M69.83 434.666a7.5 7.5 0 0 1-5.304-12.803l100.74-100.74a7.5 7.5 0 0 1 10.607 10.606L75.133 432.47a7.479 7.479 0 0 1-5.303 2.196zM205.529 405.837c-16.31 26.12-40.88 46.34-70.16 56.48-1.21.42-104.68 33.52-104.68 33.52-6.29 2.02-12.47 1.28-17.61-1.31 19.25-6.16 99.49-31.84 100.55-32.21 29.28-10.14 53.85-30.36 70.16-56.48 2.19-3.51 4.25-7.12 6.13-10.84l1.61-3.16z" fill="#ffbee6"/><path d="m219.868 378.848-8.21 16.15a138.58 138.58 0 0 1-6.13 10.84c-21.14-1.64-41.83-10.53-58.01-26.7l-29.66-29.66c-16.17-16.18-25.06-36.87-26.7-58.01 3.51-2.19 7.12-4.25 10.84-6.13l16.15-8.21c29.19-14.83 64.61-9.2 87.76 13.96 23.161 23.15 28.79 58.57 13.96 87.76z" fill="#fe646f"/><path d="m175.879 331.728-37.89 37.88-10.6-10.6 37.88-37.88a7.502 7.502 0 0 1 10.61 0c2.92 2.92 2.92 7.67 0 10.6z" fill="#fd4755"/><path d="M205.911 291.085c-17.221-17.221-41.222-24.741-64.403-21.37 15.779 2.285 30.824 9.531 42.663 21.37 23.155 23.155 28.79 58.571 13.96 87.766l-8.214 16.145a134.33 134.33 0 0 1-3.928 7.189 92.436 92.436 0 0 0 19.538 3.655 137.022 137.022 0 0 0 6.13-10.844l8.214-16.145c14.83-29.195 9.195-64.611-13.96-87.766z" fill="#fd4755"/><path d="M495.839 30.688s-33.1 103.47-33.52 104.68c-10.14 29.28-30.36 53.85-56.48 70.16l-8.99-8.99-105.38-105.38c16.31-26.12 40.88-46.34 70.16-56.48 1.06-.37 81.34-26.05 100.57-32.2 2.62-.84 4.11-1.32 4.11-1.32 18.179-5.831 35.359 11.35 29.53 29.53z" fill="#ffceec"/><path d="M326.428 178.068a7.5 7.5 0 0 1-5.304-12.803l100.739-100.74a7.5 7.5 0 0 1 10.607 10.606l-100.739 100.74a7.474 7.474 0 0 1-5.303 2.197zM495.839 30.688s-33.1 103.47-33.52 104.68c-10.14 29.28-30.36 53.85-56.48 70.16l-8.99-8.99c19.93-15.78 35.31-36.85 43.73-61.17.42-1.21 33.52-104.68 33.52-104.68 3.81-11.88-2.21-23.32-11.9-28.21 2.62-.84 4.11-1.32 4.11-1.32 18.179-5.831 35.359 11.35 29.53 29.53z" fill="#ffbee6"/><path d="M405.839 205.528a138.58 138.58 0 0 1-10.84 6.13l-16.15 8.21a75.556 75.556 0 0 1-44.76 7.47 75.44 75.44 0 0 1-43-21.43c-23.16-23.15-28.79-58.57-13.96-87.76l8.21-16.15c1.88-3.72 3.94-7.33 6.13-10.84 21.14 1.64 41.83 10.53 58.01 26.7l20.13 20.13 9.53 9.53c12.41 12.42 20.53 27.5 24.37 43.39a91.22 91.22 0 0 1 2.33 14.62z" fill="#fe646f"/><path d="m369.608 137.988-37.88 37.88c-1.46 1.47-3.38 2.2-5.3 2.2s-3.84-.73-5.3-2.2c-2.93-2.92-2.93-7.67 0-10.6l37.88-37.88zM405.839 205.528a138.58 138.58 0 0 1-10.84 6.13l-16.15 8.21a75.556 75.556 0 0 1-44.76 7.47c-.12-.02-.23-.04-.34-.06a75.457 75.457 0 0 0 23.36-7.41l16.15-8.21c3.72-1.88 7.33-3.94 10.84-6.13 6.91-4.31 13.41-9.21 19.41-14.62a91.22 91.22 0 0 1 2.33 14.62z" fill="#fd4755"/><path d="m205.529 91.158-13.68 13.68-100.69 100.69c-26.12-16.31-46.34-40.88-56.48-70.16-.42-1.21-33.52-104.68-33.52-104.68-3.57-11.12 1.48-21.87 10.09-27.19 5.47-3.4 12.38-4.6 19.44-2.34 0 0 103.47 33.1 104.68 33.52 29.28 10.14 53.849 30.36 70.16 56.48z" fill="#ffceec"/><path d="M170.57 178.068a7.478 7.478 0 0 1-5.304-2.197L64.526 75.132a7.5 7.5 0 0 1 10.607-10.606l100.74 100.74a7.5 7.5 0 0 1-5.303 12.802zM205.529 91.158l-13.68 13.68-.019-.028c-1.147-1.729-2.181-3.534-3.008-5.436C161.299 36.053 77.353 24.485 20.598 4.548a23.606 23.606 0 0 0-9.35-1.05c5.47-3.4 12.38-4.6 19.44-2.34 0 0 103.47 33.1 104.68 33.52 29.281 10.14 53.85 30.36 70.161 56.48z" fill="#ffbee6"/><path d="M205.908 205.908c-23.15 23.16-58.57 28.79-87.76 13.96l-16.15-8.21a138.58 138.58 0 0 1-10.84-6.13c1.64-21.14 10.53-41.83 26.7-58.01l9.53-9.53 20.13-20.13c16.18-16.17 36.87-25.06 58.01-26.7 2.19 3.51 4.25 7.12 6.13 10.84l8.21 16.15c14.83 29.19 9.201 64.61-13.96 87.76z" fill="#fe646f"/><path d="M175.879 175.868c-1.47 1.47-3.39 2.2-5.31 2.2s-3.84-.73-5.3-2.2l-37.88-37.88 10.6-10.6 37.89 37.88c2.92 2.93 2.92 7.68 0 10.6z" fill="#fd4755"/><path d="m219.871 118.144-8.214-16.145a137.16 137.16 0 0 0-6.13-10.844 92.419 92.419 0 0 0-18.933 3.487 102.441 102.441 0 0 1 2.132 4.534 35.293 35.293 0 0 0 2.806 5.204c34.737 52.702 2.665 115.583-49.365 122.988 22.976 3.135 46.686-4.4 63.744-21.458 23.155-23.155 28.79-58.571 13.96-87.766z" fill="#fd4755"/><path d="M466.309 495.837s-1.49-.48-4.11-1.32c-19.23-6.15-99.51-31.83-100.57-32.2-29.28-10.14-53.85-30.36-70.16-56.48l106.01-106.01 8.36-8.36c26.12 16.31 46.34 40.88 56.48 70.16.42 1.21 33.52 104.68 33.52 104.68 5.829 18.181-11.351 35.361-29.53 29.53z" fill="#ffceec"/><path d="M427.167 434.666a7.476 7.476 0 0 1-5.304-2.197L321.124 331.73a7.5 7.5 0 0 1 0-10.606 7.5 7.5 0 0 1 10.607 0l100.739 100.74a7.5 7.5 0 0 1-5.303 12.802zM466.309 495.837s-1.49-.48-4.11-1.32c9.69-4.89 15.71-16.33 11.9-28.21-17.45-49.66-31.01-128.83-76.62-166.48l8.36-8.36c26.12 16.31 46.34 40.88 56.48 70.16.42 1.21 33.52 104.68 33.52 104.68 5.829 18.181-11.351 35.361-29.53 29.53z" fill="#ffbee6"/><path d="M405.839 291.467c-1.64 21.14-10.53 41.83-26.7 58.01l-29.66 29.66c-16.18 16.17-36.87 25.06-58.01 26.7a138.58 138.58 0 0 1-6.13-10.84l-8.21-16.15c-14.83-29.19-9.2-64.61 13.96-87.76 23.15-23.16 58.57-28.79 87.76-13.96l16.15 8.21c3.719 1.88 7.33 3.94 10.84 6.13z" fill="#fe646f"/><path d="m369.608 359.008-10.6 10.6-37.88-37.88c-2.93-2.93-2.93-7.68 0-10.6a7.49 7.49 0 0 1 10.6 0zM375.415 286.242c10.713 4.629 20.041 11.183 28.252 19.142a92.577 92.577 0 0 0 2.174-13.915 137.022 137.022 0 0 0-10.844-6.13l-16.145-8.214c-14.381-7.305-30.27-9.634-45.462-7.36 12.65 1.473 25.576 6.014 37.931 14.254a25.796 25.796 0 0 0 4.094 2.223z" fill="#fd4755"/><g fill="#fe646f"><circle cx="248.499" cy="248.498" r="24.076"/><path d="M248.499 224.421c-3.913 0-7.604.939-10.87 2.595 7.834 3.972 13.206 12.096 13.206 21.481 0 9.384-5.372 17.508-13.206 21.481a23.964 23.964 0 0 0 10.87 2.595c13.297 0 24.076-10.779 24.076-24.076-.001-13.296-10.78-24.076-24.076-24.076z"/></g></svg>