<svg height="512" width="512" xmlns="http://www.w3.org/2000/svg"><g fill="#ffd15b"><path d="M256 64.684a7.499 7.499 0 0 1-7.5-7.5V7.5c0-4.143 3.357-7.5 7.5-7.5s7.5 3.357 7.5 7.5v49.684a7.5 7.5 0 0 1-7.5 7.5zM291.324 102.112a7.5 7.5 0 0 1-7.414-8.69l11.062-68.926a7.5 7.5 0 0 1 14.811 2.377L298.721 95.8a7.502 7.502 0 0 1-7.397 6.312zM219.001 102.112a7.5 7.5 0 0 1-7.396-6.312l-11.062-68.926a7.5 7.5 0 0 1 14.811-2.377l11.062 68.926a7.5 7.5 0 0 1-7.415 8.689z"/></g><path d="M358.691 258.756a7.499 7.499 0 0 1-4.808-13.259l30.154-24.99a7.499 7.499 0 0 1 10.563.956 7.499 7.499 0 0 1-.956 10.563l-30.154 24.99a7.464 7.464 0 0 1-4.799 1.74zM350.062 459.466a7.491 7.491 0 0 1-6.32-3.453 7.498 7.498 0 0 1 2.266-10.361l36.179-23.601a7.497 7.497 0 0 1 10.361 2.266 7.498 7.498 0 0 1-2.266 10.361l-36.179 23.601a7.468 7.468 0 0 1-4.041 1.187z" fill="#9be69d"/><path d="M144.454 300.607a7.472 7.472 0 0 1-4.724-1.678l-32.66-27.724a7.502 7.502 0 0 1 9.457-11.645l32.66 27.724a7.502 7.502 0 0 1-4.733 13.323z" fill="#6fd7a3"/><path d="M256 116.31v52.05l-41.83 14.12-37.57-48.93a68.458 68.458 0 0 1-21.94-50.22V69.71c0-6.85 7.51-11.05 13.35-7.47l35.57 21.86z" fill="#fe646f"/><path d="m203.58 84.1-.001.001-35.574-21.858c-5.836-3.586-13.344.613-13.344 7.463v3.321c2.662-1.689 6.198-1.98 9.278-.087l31.91 19.496c2.156 1.317 3.319 3.814 2.881 6.302a51.794 51.794 0 0 0-.791 8.992v23.64c0 20.415 16.552 36.981 36.974 36.99l-25.08 8.468 4.339 5.65L256 168.355V116.31z" fill="#fd4755"/><path d="M256 116.311v52.045l41.827 14.123 37.575-48.929a68.458 68.458 0 0 0 21.937-50.223V69.706c0-6.85-7.508-11.049-13.344-7.463z" fill="#fe646f"/><path d="m343.994 62.244-11.388 6.997c2.167 1.546 3.659 4.064 3.659 7.113v6.971a68.458 68.458 0 0 1-21.937 50.223l-33.236 43.279 16.734 5.65 37.575-48.929a68.458 68.458 0 0 0 21.937-50.223V69.706c.001-6.849-7.508-11.048-13.344-7.462z" fill="#fd4755"/><path d="M353.262 504.5H158.738l-18.697-160.26a292.46 292.46 0 0 1 2.55-85.115l6.438-36.192c5.617-31.576 33.071-54.578 65.143-54.578h83.654c32.072 0 59.526 23.001 65.143 54.578l6.438 36.192a292.46 292.46 0 0 1 2.55 85.115z" fill="#9be69d"/><path d="m369.408 259.125-6.438-36.192c-5.617-31.576-33.071-54.578-65.143-54.578h-21.073c32.072 0 59.526 23.001 65.143 54.578l6.438 36.192a292.46 292.46 0 0 1 2.55 85.115L332.189 504.5h21.073l18.697-160.26a292.494 292.494 0 0 0-2.551-85.115z" fill="#6fd7a3"/><path d="M222.62 450.68a7.478 7.478 0 0 1-5.165-2.062l-34.904-32.046a7.501 7.501 0 0 1 10.333-10.875l34.904 32.046a7.501 7.501 0 0 1-5.168 12.937z" fill="#3ec3a4"/><path d="M291.321 361.367a7.5 7.5 0 0 1-4.908-13.174l36.374-32.184a7.5 7.5 0 1 1 9.81 11.348l-36.374 32.184a7.471 7.471 0 0 1-4.902 1.826z" fill="#6fd7a3"/><path d="M294.25 504.5h-76.5l-7.353-160.26c-1.3-28.344-.963-57.02 1.003-85.115l2.532-36.192c2.209-31.576 13.006-54.578 25.619-54.578h32.899c12.613 0 23.41 23.001 25.619 54.578l2.532 36.192c1.965 28.095 2.303 56.771 1.003 85.115z" fill="#6fd7a3"/><path d="m300.6 259.125-2.532-36.192c-2.209-31.576-13.006-54.578-25.619-54.578h-21.073c12.613 0 23.41 23.001 25.619 54.578l2.532 36.192c1.965 28.095 2.303 56.771 1.003 85.115l-7.353 160.26h21.073l7.353-160.26c1.3-28.344.962-57.02-1.003-85.115z" fill="#3ec3a4"/><path d="M292.99 107.73v23.64c0 17.85-12.66 32.76-29.49 36.23-2.42.5-4.93.76-7.5.76s-5.08-.26-7.5-.76c-16.83-3.47-29.49-18.38-29.49-36.23v-23.64c0-10.41 3.11-20.59 8.92-29.23l21.3-31.66c3.24-4.8 10.3-4.8 13.54 0l21.3 31.66a52.396 52.396 0 0 1 8.92 29.23z" fill="#fe646f"/><path d="M284.071 78.499 262.767 46.84c-3.233-4.804-10.302-4.804-13.535 0l-6.559 9.747c2.802-.239 5.706.941 7.47 3.562l12.854 18.35a52.357 52.357 0 0 1 8.919 29.23v23.637c0 16.767-11.159 30.92-26.453 35.458a36.982 36.982 0 0 0 10.536 1.531c20.429 0 36.99-16.561 36.99-36.99v-23.637a52.342 52.342 0 0 0-8.918-29.229z" fill="#fd4755"/><path d="M263.5 116.31v51.29c-2.42.5-4.93.76-7.5.76s-5.08-.26-7.5-.76v-51.29c0-4.14 3.36-7.5 7.5-7.5s7.5 3.36 7.5 7.5z" fill="#fd4755"/><path d="M210.649 278.941a7.499 7.499 0 0 1-5.208-12.897l26.278-25.351a7.5 7.5 0 0 1 10.414 10.794l-26.278 25.351a7.47 7.47 0 0 1-5.206 2.103z" fill="#3ec3a4"/><path d="M158.735 512a7.465 7.465 0 0 1-4.925-1.847l-32.199-28.066a7.5 7.5 0 0 1-.726-10.581 7.497 7.497 0 0 1 10.581-.726l32.199 28.066a7.5 7.5 0 0 1 .726 10.581 7.479 7.479 0 0 1-5.656 2.573z" fill="#6fd7a3"/><path d="M412.449 512H99.551c-4.143 0-7.5-3.357-7.5-7.5s3.357-7.5 7.5-7.5h312.898c4.143 0 7.5 3.357 7.5 7.5s-3.357 7.5-7.5 7.5z" fill="#3ec3a4"/></svg>