<svg height="512" viewBox="0 0 496.997 496.997" width="512" xmlns="http://www.w3.org/2000/svg"><path d="M156.773 409.169c-25.027 0-54.437-4.39-76.828-20.829a7.501 7.501 0 0 1 8.877-12.091c41.357 30.363 115.143 12.791 115.883 12.611a7.501 7.501 0 0 1 9.067 5.499 7.497 7.497 0 0 1-5.493 9.068c-1.727.425-23.963 5.742-51.506 5.742zM340.224 409.17c25.027 0 54.437-4.39 76.828-20.829a7.501 7.501 0 0 0-8.877-12.091c-41.357 30.363-115.143 12.791-115.883 12.611a7.501 7.501 0 0 0-9.067 5.499 7.497 7.497 0 0 0 5.493 9.068c1.727.425 23.963 5.742 51.506 5.742z" fill="#feaee1"/><path d="m217.277 349.938-30.43 31.67-47.01-36.48-122.5-95.07a44.768 44.768 0 0 1-17.22-38.61 44.694 44.694 0 0 1 12.38-27.82 44.744 44.744 0 0 1 32.32-13.76 44.76 44.76 0 0 1 34.25 15.94l99.28 117.9z" fill="#eaf6ff"/><path d="M217.28 349.939 82.68 190.098c-9.241-10.973-28.538-19.952-42.884-19.952a44.999 44.999 0 0 0-6.667 1.273 44.792 44.792 0 0 1 22.6 14.39l106.629 126.625c4.542 5.394 4.247 13.326-.624 18.426a56.992 56.992 0 0 1-21.898 14.268l47.01 36.48.001-.001.002.002z" fill="#c8effe"/><path d="m279.714 349.938 30.431 31.671 169.517-131.547a44.801 44.801 0 0 0 17.219-38.616c-1.552-21.528-18.233-38.89-39.683-41.3a44.801 44.801 0 0 0-39.273 15.664z" fill="#eaf6ff"/><path d="M496.881 211.446c-1.552-21.529-18.234-38.89-39.683-41.3a44.753 44.753 0 0 0-16.673 1.274c18.156 4.887 31.629 20.788 33.016 40.027a44.804 44.804 0 0 1-17.219 38.616L300.175 371.234l9.969 10.376 169.517-131.547a44.803 44.803 0 0 0 17.22-38.617z" fill="#c8effe"/><path d="m256.862 361.858-56.211-13.868-77.888-267.898a58.251 58.251 0 0 1 11.378-53.785C152.218 4.84 183.032-.686 207.442 13.161a58.253 58.253 0 0 1 29.36 46.48z" fill="#eaf6ff"/><path d="M184.102 13.16a58.252 58.252 0 0 1 29.36 46.479l19.672 296.364 23.729 5.854L236.801 59.64a58.254 58.254 0 0 0-29.359-46.479c-12.629-7.164-26.97-9.13-40.376-6.398a58.154 58.154 0 0 1 17.036 6.397z" fill="#c8effe"/><path d="m248.497 354.148 47.846-6.159 77.889-267.898a58.251 58.251 0 0 0-11.378-53.785C344.776 4.839 313.962-.687 289.552 13.16a58.253 58.253 0 0 0-29.36 46.48l-11.695 176.179z" fill="#eaf6ff"/><path d="M362.853 26.306c-14.055-16.69-35.808-23.739-56.265-19.544 12.506 2.549 24.2 9.183 32.925 19.544a58.253 58.253 0 0 1 11.378 53.786L273.002 347.99l-24.506 3.154v3.004l47.846-6.159 77.889-267.898a58.252 58.252 0 0 0-11.378-53.785z" fill="#c8effe"/><path d="M248.501 361.638a7.5 7.5 0 0 1-7.5-7.786c.142-3.691 4.005-91.087 50.445-149.893a7.5 7.5 0 0 1 11.772 9.297c-43.364 54.911-47.194 140.318-47.228 141.175a7.5 7.5 0 0 1-7.489 7.207z" fill="#feaee1"/><g><path d="m282.69 399.52-37.57-37.57 9.013-20.852a118.332 118.332 0 0 1 24.946-36.723c6.32-6.32 17.086-3.739 19.853 4.76a57.029 57.029 0 0 0 36.572 36.572c8.499 2.767 11.08 13.533 4.76 19.853a118.332 118.332 0 0 1-36.723 24.946z" fill="#ffceec"/><path d="M335.505 345.708a57.027 57.027 0 0 1-36.572-36.572c-2.767-8.499-13.533-11.08-19.853-4.76a117.83 117.83 0 0 0-3.798 3.981c.104.26.223.508.312.779a57.031 57.031 0 0 0 36.572 36.572c8.499 2.767 11.08 13.533 4.76 19.853a118.332 118.332 0 0 1-36.723 24.946l-4.556 1.969 7.044 7.044 20.852-9.013a118.332 118.332 0 0 0 36.723-24.946c6.319-6.32 3.738-17.086-4.761-19.853z" fill="#ffbee6"/><path d="m251.873 430.337-37.57-37.57-20.852 9.013a118.332 118.332 0 0 0-36.723 24.946c-6.32 6.32-3.739 17.086 4.76 19.853a57.029 57.029 0 0 1 36.572 36.572c2.767 8.499 13.533 11.08 19.853 4.76a118.332 118.332 0 0 0 24.946-36.723z" fill="#ffceec"/><path d="m214.304 392.767-16.296 7.044 20.833 20.833a20.18 20.18 0 0 1 4.254 22.276l-3.574 8.269a118.335 118.335 0 0 1-21.148 32.742c3.161 7.858 13.423 10.099 19.542 3.981a118.332 118.332 0 0 0 24.946-36.723l9.013-20.852z" fill="#ffbee6"/></g><g><path d="m245.12 430.337 37.57-37.57 20.852 9.013a118.332 118.332 0 0 1 36.723 24.946c6.32 6.32 3.739 17.086-4.76 19.853a57.029 57.029 0 0 0-36.572 36.572c-2.767 8.499-13.533 11.08-19.853 4.76a118.332 118.332 0 0 1-24.946-36.723z" fill="#ffceec"/><path d="M340.265 426.726a118.332 118.332 0 0 0-36.723-24.946l-20.852-9.013-7.044 7.044 4.556 1.969a118.349 118.349 0 0 1 36.723 24.946c6.32 6.32 3.739 17.086-4.76 19.853a57.029 57.029 0 0 0-36.572 36.572c-.088.272-.207.52-.312.779 1.234 1.355 2.5 2.682 3.798 3.981 6.32 6.32 17.086 3.739 19.853-4.76a57.029 57.029 0 0 1 36.572-36.572c8.5-2.766 11.081-13.532 4.761-19.853z" fill="#ffbee6"/><path d="m214.304 399.52 37.57-37.57-9.013-20.852a118.332 118.332 0 0 0-24.946-36.723c-6.32-6.32-17.086-3.739-19.853 4.76a57.029 57.029 0 0 1-36.572 36.572c-8.499 2.767-11.08 13.533-4.76 19.853a118.332 118.332 0 0 0 36.723 24.946z" fill="#ffceec"/><path d="M242.86 341.099a118.332 118.332 0 0 0-24.946-36.723c-6.118-6.118-16.38-3.877-19.542 3.981a118.35 118.35 0 0 1 21.148 32.742l9.013 20.852-30.526 30.526 16.296 7.044 37.57-37.57z" fill="#ffbee6"/></g><g><path d="m226.154 418.486-15.52-15.52c-6.554-6.554-6.554-17.181 0-23.736l20.949-20.949c6.554-6.554 17.181-6.554 23.736 0l15.52 15.52z" fill="#bbf49b"/><path d="M255.32 358.281c-6.554-6.554-17.181-6.554-23.736 0l-5.663 5.663c5.566-1.44 11.724.002 16.084 4.362l5.495 5.495-33.015 33.015 11.67 11.67 44.685-44.685z" fill="#9be69d"/><path d="m241.674 434.006-15.52-15.52 44.685-44.685 15.52 15.52c6.554 6.554 6.554 17.181 0 23.736l-20.949 20.949c-6.555 6.554-17.181 6.554-23.736 0z" fill="#bbf49b"/><path d="m286.359 389.321-15.52-15.52-11.67 11.67 3.85 3.85c6.554 6.554 6.554 17.181 0 23.736l-20.949 20.949c-.064.064-.133.116-.198.179 6.568 6.365 17.047 6.312 23.538-.179l20.949-20.949c6.554-6.555 6.554-17.182 0-23.736z" fill="#9be69d"/></g></svg>