<svg height="512" viewBox="0 0 497.002 497.002" width="512" xmlns="http://www.w3.org/2000/svg"><path d="m496.761 379.58-56.17-73.57-27.8 3.96-88.42 12.6-17.61 118.6 72.82 55.59c2.67 1.04 5.35-1.47 4.48-4.19l-5.77-18.08c-2.13-6.69 3.81-13.17 10.66-11.61l25.74 5.85c2.71.62 4.97-2.11 3.87-4.66l-5.97-13.78c-3.14-7.26 3.85-14.78 11.32-12.18l15.17 5.3c2.68.93 5.26-1.65 4.33-4.33l-5.3-15.17c-2.6-7.47 4.92-14.46 12.18-11.32l13.78 5.97c2.55 1.09 5.28-1.17 4.66-3.87l-5.85-25.74c-.77-3.39.42-6.55 2.64-8.63 2.26-2.13 5.59-3.11 8.97-2.03l18.08 5.77c2.72.87 5.23-1.81 4.19-4.48z" fill="#ffead9"/><g fill="#fedba6"><path d="M381.164 450.29c-3.14-7.26 3.85-14.78 11.32-12.18 22.866 8.319 22.601 8.813 14.2-14.2-2.6-7.47 4.92-14.46 12.18-11.32l13.78 5.97c2.55 1.09 5.28-1.17 4.66-3.87l-5.85-25.74c-1.56-6.85 4.92-12.8 11.61-10.66l18.08 5.77a3.347 3.347 0 0 0 1.951.042 9 9 0 0 0-.213 4.848l5.85 25.74c.62 2.7-2.11 4.96-4.66 3.87l-13.78-5.97c-7.26-3.14-14.78 3.85-12.18 11.32l5.3 15.17c.93 2.68-1.65 5.26-4.33 4.33l-15.17-5.3c-7.47-2.6-14.46 4.92-11.32 12.18l5.97 13.78c1.1 2.55-1.16 5.28-3.87 4.66l-25.74-5.85a9.242 9.242 0 0 0-2.429-.222zM357.523 462.88l21.283 4.837a8.944 8.944 0 0 0-.515 6.773l5.77 18.08c.87 2.72-1.81 5.23-4.48 4.19l-33.134-25.294c.146-5.456 5.275-9.907 11.076-8.586zM496.761 379.58l-56.17-73.57-27.8 3.96c13.46 16.43 27.87 38.24 52.54 69.61.1.25.16.49.19.74 2.26-2.13 5.59-3.11 8.97-2.03l18.08 5.77c2.72.87 5.23-1.81 4.19-4.48z"/></g><path d="m440.591 306.01-1.04-1.38a105.5 105.5 0 0 0-52.54-36.71l-62.64-19.42-54.377 26.017-21.493 49.853 19.42 62.64a105.5 105.5 0 0 0 36.71 52.54l2.13 1.62c1.17-3.91 4.81-7.02 9.53-6.85l37.54 1.34c8.18.29 13.88-8.05 10.63-15.57l-6.61-15.26c-3.31-7.65 4.06-15.58 11.93-12.84l12.31 4.29c8.81 3.08 17.27-5.38 14.19-14.19l-4.29-12.31c-2.74-7.87 5.19-15.24 12.84-11.93l15.06 6.52c7.57 3.27 15.95-2.52 15.56-10.76l-1.79-37.94c-.24-4.8 2.94-8.5 6.93-9.66z" fill="#fe646f"/><path d="m433.661 315.67 1.103 23.372c-35.044-47.85-45.545-62.924-117.179-83.756v-3.539l6.786-3.247 62.64 19.42a105.5 105.5 0 0 1 52.54 36.71l1.04 1.38c-3.99 1.16-7.17 4.86-6.93 9.66z" fill="#fd4755"/><path d="m190.242 441.172-1.64-34.29-4.58-95.95-127.61-4.92-56.17 73.57c-1.04 2.67 1.47 5.35 4.19 4.48l18.08-5.77c6.69-2.14 13.17 3.81 11.61 10.66l-5.85 25.74c-.62 2.7 2.11 4.96 4.66 3.87l13.78-5.97c7.26-3.14 14.78 3.85 12.18 11.32l-5.3 15.17c-.93 2.68 1.65 5.26 4.33 4.33l15.17-5.3c7.47-2.6 14.46 4.92 11.32 12.18l-5.97 13.78c-1.1 2.55 1.16 5.28 3.87 4.66l25.74-5.85c5.8-1.32 10.95 3.12 11.09 8.58.02.53-.01 1.08-.1 1.62-.07.47-.18.94-.33 1.41l-5.77 18.08c-.87 2.72 1.81 5.23 4.48 4.19z" fill="#ffead9"/><path d="m190.242 441.172-1.64-34.29c-7.04 13.48-15.89 25.12-27.66 32.67l-2.13 1.62-39.67 30.29-.01.01c.01.53-.02 1.07-.09 1.61-.07.47-.18.94-.33 1.41l-5.77 18.08c-.87 2.72 1.81 5.23 4.48 4.19z" fill="#fedba6"/><path d="m248.502 324.372-20.835-52.012-55.035-23.858-62.64 19.42a105.5 105.5 0 0 0-52.54 36.71l-1.04 1.38c3.99 1.16 7.17 4.86 6.93 9.66l-1.79 37.94c-.39 8.24 7.99 14.03 15.56 10.76l15.06-6.52c7.65-3.31 15.58 4.06 12.84 11.93l-4.29 12.31c-3.08 8.81 5.38 17.27 14.19 14.19l12.31-4.29c7.87-2.74 15.24 5.19 11.93 12.84l-6.61 15.26c-3.25 7.52 2.45 15.86 10.63 15.57l37.54-1.34c4.72-.17 8.36 2.94 9.53 6.85l2.13-1.62a105.5 105.5 0 0 0 36.71-52.54z" fill="#fe646f"/><path d="M229.082 387.012a105.5 105.5 0 0 1-36.71 52.54l-2.13 1.62c-1.17-3.91-4.81-7.02-9.53-6.85l-13.354.477c26-21.94 36.031-65.51 45.9-98.391a21.303 21.303 0 0 0-5.34-21.193l-59.276-59.276 23.99-7.438 55.035 23.858 20.835 52.012z" fill="#fd4755"/><path d="m496.761 117.42-56.17 73.57-27.8-3.96-88.42-12.6-17.61-118.6L379.581.24c2.67-1.04 5.35 1.47 4.48 4.19l-5.77 18.08c-2.13 6.69 3.81 13.17 10.66 11.61l25.74-5.85c2.71-.62 4.97 2.11 3.87 4.66l-5.97 13.78c-3.14 7.26 3.85 14.78 11.32 12.18l15.17-5.3c2.68-.93 5.26 1.65 4.33 4.33l-5.3 15.17c-2.6 7.47 4.92 14.46 12.18 11.32l13.78-5.97c2.55-1.09 5.28 1.17 4.66 3.87l-5.85 25.74c-.77 3.39.42 6.55 2.64 8.63 2.26 2.13 5.59 3.11 8.97 2.03l18.08-5.77c2.72-.87 5.23 1.81 4.19 4.48z" fill="#ffead9"/><g fill="#fedba6"><path d="M381.164 46.71c-3.14 7.26 3.85 14.78 11.32 12.18 22.866-8.319 22.601-8.813 14.2 14.2-2.6 7.47 4.92 14.46 12.18 11.32l13.78-5.97c2.55-1.09 5.28 1.17 4.66 3.87l-5.85 25.74c-1.56 6.85 4.92 12.8 11.61 10.66l18.08-5.77a3.347 3.347 0 0 1 1.951-.042 9 9 0 0 1-.213-4.848l5.85-25.74c.62-2.7-2.11-4.96-4.66-3.87l-13.78 5.97c-7.26 3.14-14.78-3.85-12.18-11.32l5.3-15.17c.93-2.68-1.65-5.26-4.33-4.33l-15.17 5.3c-7.47 2.6-14.46-4.92-11.32-12.18l5.97-13.78c1.1-2.55-1.16-5.28-3.87-4.66l-25.74 5.85a9.242 9.242 0 0 1-2.429.222zM357.523 34.12l21.283-4.837a8.944 8.944 0 0 1-.515-6.773l5.77-18.08c.87-2.72-1.81-5.23-4.48-4.19l-33.134 25.294c.146 5.457 5.275 9.907 11.076 8.586zM496.761 117.42l-56.17 73.57-27.8-3.96c13.46-16.43 27.87-38.24 52.54-69.61.1-.25.16-.49.19-.74 2.26 2.13 5.59 3.11 8.97 2.03l18.08-5.77c2.72-.87 5.23 1.81 4.19 4.48z"/></g><path d="m440.591 190.99-1.04 1.38a105.5 105.5 0 0 1-52.54 36.71l-62.64 19.42-54.377-26.017-21.493-49.853 19.42-62.64a105.5 105.5 0 0 1 36.71-52.54l2.13-1.62c1.17 3.91 4.81 7.02 9.53 6.85l37.54-1.34c8.18-.29 13.88 8.05 10.63 15.57l-6.61 15.26c-3.31 7.65 4.06 15.58 11.93 12.84l12.31-4.29c8.81-3.08 17.27 5.38 14.19 14.19l-4.29 12.31c-2.74 7.87 5.19 15.24 12.84 11.93l15.06-6.52c7.57-3.27 15.95 2.52 15.56 10.76l-1.79 37.94c-.24 4.8 2.94 8.5 6.93 9.66z" fill="#fe646f"/><path d="m433.661 181.33 1.103-23.372c-35.044 47.85-45.545 62.924-117.179 83.756v3.539l6.786 3.247 62.64-19.42a105.5 105.5 0 0 0 52.54-36.71l1.04-1.38c-3.99-1.16-7.17-4.86-6.93-9.66z" fill="#fd4755"/><path d="m190.241 55.83-1.64 34.29-4.58 95.95-127.61 4.92-56.17-73.57c-1.04-2.67 1.47-5.35 4.19-4.48l18.08 5.77c6.69 2.14 13.17-3.81 11.61-10.66l-5.85-25.74c-.62-2.7 2.11-4.96 4.66-3.87l13.78 5.97c7.26 3.14 14.78-3.85 12.18-11.32l-5.3-15.17c-.93-2.68 1.65-5.26 4.33-4.33l15.17 5.3c7.47 2.6 14.46-4.92 11.32-12.18l-5.97-13.78c-1.1-2.55 1.16-5.28 3.87-4.66l25.74 5.85c5.8 1.32 10.95-3.12 11.09-8.58.02-.53-.01-1.08-.1-1.62-.07-.47-.18-.94-.33-1.41l-5.77-18.08c-.87-2.72 1.81-5.23 4.48-4.19z" fill="#ffead9"/><path d="m190.241 55.83-1.64 34.29c-7.04-13.48-15.89-25.12-27.66-32.67l-2.13-1.62-39.67-30.29-.01-.01c.01-.53-.02-1.07-.09-1.61-.07-.47-.18-.94-.33-1.41l-5.77-18.08c-.87-2.72 1.81-5.23 4.48-4.19z" fill="#fedba6"/><path d="m248.501 172.63-20.835 52.012-55.035 23.858-62.64-19.42a105.5 105.5 0 0 1-52.54-36.71l-1.04-1.38c3.99-1.16 7.17-4.86 6.93-9.66l-1.79-37.94c-.39-8.24 7.99-14.03 15.56-10.76l15.06 6.52c7.65 3.31 15.58-4.06 12.84-11.93l-4.29-12.31c-3.08-8.81 5.38-17.27 14.19-14.19l12.31 4.29c7.87 2.74 15.24-5.19 11.93-12.84l-6.61-15.26c-3.25-7.52 2.45-15.86 10.63-15.57l37.54 1.34c4.72.17 8.36-2.94 9.53-6.85l2.13 1.62a105.5 105.5 0 0 1 36.71 52.54z" fill="#fe646f"/><path d="M229.081 109.99a105.5 105.5 0 0 0-36.71-52.54l-2.13-1.62c-1.17 3.91-4.81 7.02-9.53 6.85l-13.354-.477c26 21.94 36.031 65.51 45.9 98.391a21.303 21.303 0 0 1-5.34 21.193l-59.276 59.276 23.99 7.438 55.035-23.858 20.835-52.012z" fill="#fd4755"/><path d="M299.831 231.46a7.5 7.5 0 0 1-5.304-12.803l30.77-30.77a7.5 7.5 0 0 1 10.607 10.607l-30.77 30.77a7.477 7.477 0 0 1-5.303 2.196zM273.982 205.611a7.501 7.501 0 0 1-5.305-12.802l30.76-30.771a7.5 7.5 0 0 1 10.609 10.605l-30.76 30.771a7.48 7.48 0 0 1-5.304 2.197zM229.261 305.13l-36.13 36.13c-1.46 1.47-3.38 2.2-5.3 2.2s-3.84-.73-5.3-2.2a7.49 7.49 0 0 1 0-10.6l20.42-20.41 15.71-15.72c2.93-2.93 7.67-2.93 10.6 0s2.93 7.67 0 10.6zM203.411 279.28l-15.72 15.71-20.41 20.41c-1.46 1.47-3.38 2.2-5.3 2.2s-3.84-.73-5.3-2.2c-2.93-2.93-2.93-7.68 0-10.6l20.41-20.41 15.72-15.71c2.93-2.93 7.68-2.93 10.6 0 2.93 2.93 2.93 7.68 0 10.6z" fill="#fe99a0"/><g fill="#fe646f"><path d="m203.411 279.28-15.72 15.71-10.6-10.6 15.72-15.71c2.93-2.93 7.68-2.93 10.6 0 2.93 2.93 2.93 7.68 0 10.6zM229.261 305.13l-16.81 16.81a21.087 21.087 0 0 0-4.53-6.72l-4.97-4.97 15.71-15.72c2.93-2.93 7.67-2.93 10.6 0s2.93 7.67 0 10.6z"/></g><path d="M202.261 229.47c-1.46 1.47-3.38 2.2-5.3 2.2s-3.84-.73-5.3-2.2l-32.98-32.98c-2.93-2.93-2.93-7.67 0-10.6s7.67-2.93 10.6 0l32.98 32.98a7.49 7.49 0 0 1 0 10.6z" fill="#fe99a0"/><path d="M202.261 229.47c-1.46 1.47-3.38 2.2-5.3 2.2s-3.84-.73-5.3-2.2l-15.71-15.71 10.6-10.6 15.71 15.71a7.49 7.49 0 0 1 0 10.6z" fill="#fe646f"/><path d="M306.741 341.46c-1.92 0-3.84-.732-5.304-2.197l-33.91-33.92a7.5 7.5 0 0 1 .001-10.606 7.5 7.5 0 0 1 10.606.001l33.91 33.92a7.5 7.5 0 0 1-5.303 12.802zM198.154 181.163a7.481 7.481 0 0 1-5.304-2.196l-8.323-8.323a7.5 7.5 0 0 1 10.607-10.607l8.323 8.323a7.5 7.5 0 0 1-5.303 12.803zM332.601 315.6a7.474 7.474 0 0 1-5.303-2.196l-33.92-33.909a7.5 7.5 0 0 1-.001-10.606 7.496 7.496 0 0 1 10.606-.001l33.92 33.909a7.5 7.5 0 0 1-5.302 12.803z" fill="#fe99a0"/><path d="m172.59 248.5 75.858-75.859 75.86 75.86-75.86 75.858z" fill="#fe99a0"/><path d="m248.501 172.63-15.714 15.714 60.156 60.156-60.156 60.157 15.714 15.714 75.87-75.871z" fill="#fe646f"/><g><path d="M248.501 286.117a7.499 7.499 0 0 1-7.5-7.5v-62.855c0-4.143 3.357-7.5 7.5-7.5s7.5 3.357 7.5 7.5v62.855a7.5 7.5 0 0 1-7.5 7.5z" fill="#fe646f"/></g><g><path d="M279.929 254.689h-62.855c-4.143 0-7.5-3.357-7.5-7.5s3.357-7.5 7.5-7.5h62.855c4.143 0 7.5 3.357 7.5 7.5s-3.358 7.5-7.5 7.5z" fill="#fe646f"/></g></svg>