<svg height="512" viewBox="0 0 497 497" width="512" xmlns="http://www.w3.org/2000/svg"><path d="m208.69 173.92-34.72 34.71-28.39-23.42-46.37-38.24a62.4 62.4 0 0 1-10.79-11.47l-18.55-25.55c-8.3-11.42-7.06-27.18 2.92-37.16 5.56-5.56 12.91-8.4 20.3-8.4 5.91 0 11.85 1.82 16.93 5.53l26.55 19.42c4.23 3.08 8.04 6.69 11.37 10.73l42.66 51.86z" fill="#fea95c"/><path d="m190.6 151.93-42.66-51.86a62.159 62.159 0 0 0-11.37-10.73l-26.55-19.42a28.644 28.644 0 0 0-16.93-5.53c-3.505 0-6.998.647-10.298 1.911a28.73 28.73 0 0 1 6.684 3.619l26.55 19.42c4.23 3.08 8.04 6.69 11.37 10.73l42.66 51.86c2.975 3.617 2.225 9.001-1.626 11.666a103.589 103.589 0 0 0-22.85 21.614l17.134 14.135 11.256 9.286 34.72-34.71z" fill="#fe9738"/><path d="m323.104 288.334-34.714 34.714 61.655 74.759a62.41 62.41 0 0 0 11.476 10.791l25.548 18.555c11.42 8.294 27.176 7.053 37.157-2.927 10.005-10.005 11.225-25.81 2.873-37.232l-19.414-26.549a62.43 62.43 0 0 0-10.732-11.362z" fill="#fea95c"/><path d="m427.098 386.994-19.414-26.549a62.4 62.4 0 0 0-10.733-11.362l-73.848-60.749-9.217 9.217 62.643 51.532a62.43 62.43 0 0 1 10.732 11.362l19.414 26.549c8.352 11.422 7.133 27.227-2.873 37.232a28.579 28.579 0 0 1-10.102 6.515c10.353 3.954 22.367 1.642 30.524-6.515 10.006-10.005 11.226-25.81 2.874-37.232z" fill="#fe9738"/><path d="m250.71 163.96-13.19 3.63-34.14 9.4-34.53-90.55a62.488 62.488 0 0 1-3.71-15.31l-3.5-31.38c-1.57-14.02 7.29-27.11 20.9-30.85 2.54-.7 5.1-1.04 7.63-1.04 4.88 0 9.64 1.26 13.83 3.58 5.3 2.9 9.7 7.5 12.33 13.36l13.49 30c2.14 4.77 3.68 9.79 4.57 14.94z" fill="#fea95c"/><path d="m250.71 163.96-13.19 3.63h-35.09l-9.27-96.46c-.5-5.24-.34-10.53.49-15.74l4.94-31.19c.76-4.77 2.66-9.11 5.41-12.76 5.3 2.9 9.7 7.5 12.33 13.36l13.49 30c2.14 4.77 3.68 9.79 4.57 14.94z" fill="#fe9738"/><path d="m293.681 319.936-47.334 13.025 16.658 95.461a62.434 62.434 0 0 0 4.644 15.052l13.041 28.756c5.83 12.854 20.141 19.561 33.75 15.817 13.643-3.754 22.513-16.892 20.896-30.949l-3.758-32.674a62.434 62.434 0 0 0-3.716-15.182z" fill="#fea95c"/><path d="m335.336 457.098-3.758-32.674a62.434 62.434 0 0 0-3.716-15.182l-34.181-89.306-18.476 5.084 32.235 84.222a62.423 62.423 0 0 1 3.716 15.182l3.758 32.674c1.511 13.141-6.143 25.477-18.293 30.096a28.613 28.613 0 0 0 17.819.853c13.643-3.754 22.513-16.892 20.896-30.949z" fill="#fe9738"/><g><path d="m323.066 208.666-34.714-34.714 61.655-74.759a62.41 62.41 0 0 1 11.476-10.791l25.548-18.555c11.42-8.295 27.176-7.053 37.157 2.927 10.005 10.005 11.225 25.81 2.873 37.232l-19.414 26.549a62.43 62.43 0 0 1-10.732 11.362z" fill="#fea95c"/><path d="M424.187 72.774c-8.157-8.157-20.171-10.469-30.524-6.515a28.593 28.593 0 0 1 10.102 6.515c10.005 10.005 11.225 25.81 2.873 37.232l-19.414 26.549a62.43 62.43 0 0 1-10.732 11.362l-62.643 51.532 9.217 9.217 73.848-60.749a62.43 62.43 0 0 0 10.732-11.362l19.414-26.549c8.352-11.422 7.132-27.227-2.873-37.232z" fill="#fe9738"/><path d="m208.65 323.08-4.44 5.4-13.64 16.58-42.67 51.87a62.101 62.101 0 0 1-11.36 10.73l-26.55 19.42a28.644 28.644 0 0 1-16.93 5.53c-.78 0-1.55-.03-2.33-.1-6.59-.53-13-3.32-17.98-8.3-9.98-9.98-11.22-25.74-2.92-37.16l18.55-25.55a62.74 62.74 0 0 1 10.79-11.47l46.39-38.26 28.37-23.4z" fill="#fea95c"/><path d="m208.65 323.08-34.72-34.71-28.37 23.4a103.779 103.779 0 0 0 4.938 5.892c2.517 2.787 2.8 6.93.641 10.003L110.16 385.97a62.105 62.105 0 0 0-7.36 13.93l-11.12 29.55c-.38 1.01-.7 2.03-.95 3.06.78.07 1.55.1 2.33.1 5.91 0 11.85-1.82 16.93-5.53l26.55-19.42c4.22-3.08 8.04-6.69 11.36-10.73l42.67-51.87 13.64-16.58-.001-.001z" fill="#fe9738"/><g><path d="m333.02 250.693-13.025-47.334 90.544-34.526a62.468 62.468 0 0 1 15.309-3.711l31.38-3.507c14.027-1.568 27.112 7.298 30.857 20.906 3.754 13.643-2.996 27.985-15.901 33.788l-29.997 13.487a62.391 62.391 0 0 1-14.945 4.574z" fill="#fea95c"/><path d="M488.084 182.523c-3.745-13.609-16.829-22.474-30.857-20.906l-9.052 1.011c9.248 2.755 16.789 10.095 19.486 19.895 3.754 13.643-2.996 27.985-15.901 33.788l-29.997 13.487a62.391 62.391 0 0 1-14.945 4.574l-74.728 12.944.929 3.377 94.221-16.321a62.468 62.468 0 0 0 14.945-4.574l29.997-13.487c12.906-5.803 19.656-20.146 15.902-33.788z" fill="#fe9738"/><path d="m177.04 293.66-34.93 13.37-54.37 20.81a62.643 62.643 0 0 1-15.18 3.72l-32.68 3.76c-1.1.13-2.2.19-3.29.19-12.76 0-24.2-8.52-27.66-21.09-3.74-13.61 2.97-27.92 15.82-33.75l28.76-13.04c4.8-2.18 9.86-3.74 15.05-4.64l55.46-9.68 40-6.98z" fill="#fea95c"/><path d="m177.04 293.66-34.93 13.37a102.59 102.59 0 0 1-18.09-53.72l40-6.98z" fill="#fe9738"/></g></g><g><path d="M273.073 167.594H223.98l-9.266-96.459a62.457 62.457 0 0 1 .484-15.745l4.944-31.185C222.352 10.264 234.371 0 248.486 0c14.15 0 26.188 10.313 28.358 24.296l5.045 32.5a62.425 62.425 0 0 1 .445 15.623z" fill="#ffd15b"/><path d="m281.889 56.796-5.045-32.5C274.674 10.313 262.635 0 248.486 0c-3.759 0-7.366.734-10.681 2.065 9.165 3.679 16.083 11.962 17.677 22.23l5.045 32.5a62.424 62.424 0 0 1 .445 15.623l-9.262 95.174h21.363l9.262-95.174a62.42 62.42 0 0 0-.446-15.622z" fill="#ffc344"/><path d="M273.073 329.406H223.98l-9.266 96.459a62.457 62.457 0 0 0 .484 15.745l4.944 31.185c2.21 13.94 14.229 24.204 28.344 24.204 14.15 0 26.188-10.313 28.358-24.296l5.045-32.5a62.425 62.425 0 0 0 .445-15.623z" fill="#ffd15b"/><path d="m282.335 424.581-9.262-95.174H251.71l9.262 95.174a62.424 62.424 0 0 1-.445 15.623l-5.045 32.5c-1.594 10.268-8.512 18.551-17.677 22.23a28.623 28.623 0 0 0 10.681 2.065c14.15 0 26.188-10.313 28.358-24.296l5.045-32.5a62.417 62.417 0 0 0 .446-15.622z" fill="#ffc344"/><g><path d="m309.828 190.273-42.68-24.26 39.611-88.438a62.434 62.434 0 0 1 8.202-13.449l19.709-24.668c8.81-11.027 24.331-14.011 36.602-7.036 12.301 6.992 17.67 21.907 12.648 35.135l-11.674 30.748a62.457 62.457 0 0 1-7.333 13.803z" fill="#ffd15b"/><path d="M371.272 32.422c-7.825-4.448-16.97-4.84-24.855-1.685a28.836 28.836 0 0 1 3.492 1.685c12.301 6.992 17.67 21.907 12.648 35.135l-11.674 30.748a62.428 62.428 0 0 1-7.333 13.802l-48.974 69.495 15.253 8.67 55.084-78.165a62.409 62.409 0 0 0 7.333-13.802l11.674-30.748c5.022-13.228-.347-28.143-12.648-35.135z" fill="#ffc344"/><path d="m229.921 330.948-42.68-24.26-55.722 79.28a62.428 62.428 0 0 0-7.36 13.928l-11.112 29.555c-4.967 13.212.41 28.074 12.681 35.049 12.301 6.992 27.863 3.975 36.66-7.108l20.447-25.762a62.416 62.416 0 0 0 8.108-13.362z" fill="#ffd15b"/><path d="m187.241 306.688-6.098 8.677 27.416 15.583-38.979 87.319a62.391 62.391 0 0 1-8.108 13.362l-20.447 25.762a28.603 28.603 0 0 1-11.804 8.793c11.632 4.678 25.185 1.264 33.167-8.793l20.447-25.762a62.416 62.416 0 0 0 8.108-13.362l38.979-87.319z" fill="#ffc344"/></g></g><g><path d="M329.406 273.073V223.98l96.459-9.266a62.457 62.457 0 0 1 15.745.484l31.185 4.944c13.94 2.21 24.204 14.229 24.204 28.344 0 14.15-10.313 26.188-24.296 28.358l-32.5 5.045a62.425 62.425 0 0 1-15.623.445z" fill="#ffd15b"/><path d="m472.796 220.142-31.185-4.944a62.41 62.41 0 0 0-15.745-.484l-5.399.519 30.967 4.91c13.94 2.21 24.204 14.229 24.204 28.344 0 14.15-10.313 26.188-24.296 28.358l-32.052 4.976 5.292.515a62.424 62.424 0 0 0 15.623-.445l32.5-5.045c13.982-2.172 24.295-14.211 24.295-28.36 0-14.115-10.264-26.134-24.204-28.344z" fill="#ffc344"/><path d="M167.59 223.98v49.09l-39.72 3.86-55.45 5.4c-5.21.51-10.46.36-15.62-.44l-32.5-5.05A28.673 28.673 0 0 1 0 248.49c0-14.12 10.26-26.14 24.2-28.35l31.19-4.94c5.21-.83 10.5-.99 15.74-.49l56.71 5.45z" fill="#ffd15b"/><path d="M167.59 223.98v49.09l-39.72 3.86c-2.58-9.03-3.96-18.57-3.96-28.43 0-9.83 1.37-19.33 3.93-28.34z" fill="#ffc344"/><g><path d="m306.727 309.828 24.26-42.68 88.438 39.611a62.434 62.434 0 0 1 13.449 8.202l24.668 19.709c11.027 8.81 14.011 24.331 7.036 36.602-6.992 12.301-21.907 17.67-35.135 12.648l-30.748-11.674a62.457 62.457 0 0 1-13.803-7.333z" fill="#ffd15b"/><path d="m457.542 334.67-24.668-19.709a62.434 62.434 0 0 0-13.449-8.202l-88.438-39.611-4.335 7.627 71.41 31.984a62.434 62.434 0 0 1 13.449 8.202l24.668 19.709c11.027 8.81 14.011 24.331 7.036 36.602a28.626 28.626 0 0 1-14.28 12.455l.507.193c13.228 5.022 28.143-.346 35.135-12.648 6.976-12.271 3.992-27.792-7.035-36.602z" fill="#ffc344"/><path d="m190.31 187.24-24.26 42.68-36.15-16.14-51.17-22.84a62.228 62.228 0 0 1-13.36-8.11l-25.76-20.44a28.703 28.703 0 0 1-10.86-22.5c0-4.83 1.22-9.71 3.75-14.16 6.98-12.27 21.84-17.65 35.05-12.68l29.55 11.11c4.94 1.85 9.62 4.33 13.93 7.36l51.68 36.32z" fill="#ffd15b"/><path d="m190.31 187.24-24.26 42.68-36.15-16.14c6.5-18.23 17.99-34.09 32.81-45.94z" fill="#ffc344"/></g></g><circle cx="248.5" cy="248.5" fill="#fe646f" r="103.23"/><g fill="#fd4755"><path d="M248.5 145.27c-3.607 0-7.17.187-10.681.547 51.993 5.345 92.549 49.277 92.549 102.683s-40.555 97.338-92.549 102.683c3.511.361 7.075.547 10.681.547 57.012 0 103.23-46.218 103.23-103.23S305.512 145.27 248.5 145.27z"/><circle cx="212.259" cy="302.834" r="7.697"/><circle cx="248.5" cy="302.834" r="7.697"/><circle cx="284.741" cy="302.834" r="7.697"/><circle cx="178.018" cy="266.611" r="7.697"/><circle cx="212.259" cy="266.611" r="7.697"/><circle cx="248.5" cy="266.611" r="7.697"/><circle cx="284.741" cy="266.611" r="7.697"/><circle cx="318.982" cy="266.611" r="7.697"/><g><circle cx="178.018" cy="230.389" r="7.697"/><circle cx="212.259" cy="230.389" r="7.697"/><circle cx="248.5" cy="230.389" r="7.697"/><circle cx="284.741" cy="230.389" r="7.697"/><circle cx="318.982" cy="230.389" r="7.697"/></g><g><circle cx="212.259" cy="194.166" r="7.697"/><circle cx="248.5" cy="194.166" r="7.697"/><circle cx="284.741" cy="194.166" r="7.697"/></g></g></svg>