<svg height="512" viewBox="0 0 504.5 504.5" width="512" xmlns="http://www.w3.org/2000/svg"><path d="M252.089 56.494a7.499 7.499 0 0 1-7.5-7.5V7.5c0-4.143 3.357-7.5 7.5-7.5s7.5 3.357 7.5 7.5v41.494a7.5 7.5 0 0 1-7.5 7.5z" fill="#978ecb"/><path d="M218.285 86.56a7.476 7.476 0 0 1-5.304-2.197l-24.223-24.224a7.498 7.498 0 0 1 .001-10.606 7.5 7.5 0 0 1 10.606.001l24.223 24.224a7.498 7.498 0 0 1-5.303 12.802zM288.284 84.37a7.498 7.498 0 0 1-5.304-12.802l22.033-22.034a7.5 7.5 0 0 1 10.606-.001 7.498 7.498 0 0 1 .001 10.606l-22.033 22.034a7.474 7.474 0 0 1-5.303 2.197z" fill="#8379c1"/><path d="M146.41 341.874H83.84c-4.143 0-7.5-3.357-7.5-7.5s3.357-7.5 7.5-7.5h62.57c4.143 0 7.5 3.357 7.5 7.5s-3.357 7.5-7.5 7.5zM420.66 341.868h-65.525c-4.143 0-7.5-3.357-7.5-7.5s3.357-7.5 7.5-7.5h65.525c4.143 0 7.5 3.357 7.5 7.5s-3.357 7.5-7.5 7.5z" fill="#978ecb"/><path d="M267.253 504.5h-30.126a7.108 7.108 0 0 1-7.108-7.108v-142.58h44.343v142.58a7.109 7.109 0 0 1-7.109 7.108z" fill="#6fd7a3"/><path d="M254.01 354.811v137.101c0 5.582-3.44 10.587-8.651 12.587h21.893a7.108 7.108 0 0 0 7.108-7.108v-142.58z" fill="#3ec3a4"/><path d="m265.892 80.22-13.803 7.538-13.602-7.538-4.906-8.914a17.92 17.92 0 0 1 4.109-22.308l7.947-6.739a10.063 10.063 0 0 1 13.067.043l7.916 6.803a17.92 17.92 0 0 1 4.123 22.039z" fill="#c2bce0"/><path d="m266.621 49.106-7.916-6.803a10.063 10.063 0 0 0-13.067-.043l-.345.293 7.626 6.554a17.918 17.918 0 0 1 4.123 22.039l-4.852 9.075 7.399 3.442 6.303-3.442 4.852-9.075a17.92 17.92 0 0 0-4.123-22.04z" fill="#aca6d6"/><path d="m274.361 106.284-10.278-12.381 1.809-13.683 6.962-7.421a17.92 17.92 0 0 1 22.486-2.985l8.865 5.476a10.063 10.063 0 0 1 3.997 12.441l-4.024 9.631a17.919 17.919 0 0 1-19.686 10.732z" fill="#c2bce0"/><path d="m304.204 75.29-8.865-5.476a17.912 17.912 0 0 0-16.274-1.306c.879.364 1.74.793 2.571 1.306l8.865 5.476a10.063 10.063 0 0 1 3.997 12.441l-4.024 9.631a17.898 17.898 0 0 1-10.442 9.935l4.458.797a17.92 17.92 0 0 0 19.687-10.732l4.024-9.631a10.062 10.062 0 0 0-3.997-12.441z" fill="#aca6d6"/><path d="m230.019 106.284 10.273-11.489-1.804-14.575-6.962-7.421a17.92 17.92 0 0 0-22.486-2.985l-8.865 5.476a10.063 10.063 0 0 0-3.997 12.441l4.024 9.631a17.919 17.919 0 0 0 19.686 10.732z" fill="#c2bce0"/><path d="M231.526 72.799c-5.163-5.504-13.124-7.104-19.914-4.291a17.865 17.865 0 0 1 6.212 4.291l4.469 4.764a6.165 6.165 0 0 1 1.367 6.121l-6.202 19.087a6.164 6.164 0 0 1-4.777 4.162l-2.036.364a17.867 17.867 0 0 0 9.245.797l10.13-1.81 10.273-11.489-1.804-14.575z" fill="#aca6d6"/><path d="m252.19 122.392 7.66-14.019 14.511-2.089 9.209 4.328a17.918 17.918 0 0 1 9.787 20.463l-2.468 10.123a10.064 10.064 0 0 1-10.597 7.646l-10.403-.851a17.919 17.919 0 0 1-16.29-15.407z" fill="#c2bce0"/><path d="m283.57 110.612-9.209-4.328-4.541.654-.841 3.257.888.417a17.919 17.919 0 0 1 9.787 20.463l-2.468 10.123a10.053 10.053 0 0 1-5.93 6.907l9.036.739a10.064 10.064 0 0 0 10.597-7.646l2.469-10.123a17.92 17.92 0 0 0-9.788-20.463z" fill="#aca6d6"/><path d="m252.19 122.392-6.852-14.017-15.319-2.091-9.209 4.328a17.918 17.918 0 0 0-9.787 20.463l2.468 10.123a10.064 10.064 0 0 0 10.597 7.646l10.403-.851a17.919 17.919 0 0 0 16.29-15.407z" fill="#c2bce0"/><path d="m230.019 106.284-8.32 3.91 13.46 9.779a6.869 6.869 0 0 1 2.766 6.495l-.845 6.118a17.918 17.918 0 0 1-16.29 15.406l-1.368.112c1.438.596 3.026.873 4.667.739l10.403-.851a17.92 17.92 0 0 0 16.29-15.407l1.409-10.193-6.852-14.017z" fill="#aca6d6"/><path d="m252.19 122.392-22.172-16.108 8.469-26.064h27.405l8.469 26.064z" fill="#eaf6ff"/><path d="M265.892 80.22H252.19l6.582 20.257a8.405 8.405 0 0 1-3.053 9.397l-10.38 7.542 6.851 4.978 22.172-16.109z" fill="#c8effe"/><g><path d="m272.598 184.874-20.509 7.998-20.189-7.998-7.286-13.238c-6.103-11.089-3.551-24.942 6.103-33.129l11.802-10.007a14.945 14.945 0 0 1 19.406.064l11.756 10.103c9.458 8.128 12.003 21.733 6.123 32.73z" fill="#978ecb"/><path d="m273.68 138.667-11.756-10.103a14.945 14.945 0 0 0-19.406-.064l-.513.435 11.325 9.732c9.458 8.128 12.003 21.733 6.123 32.73l-7.205 13.477 8.926 4.455 11.425-4.455 7.205-13.477c5.879-10.997 3.334-24.602-6.124-32.73z" fill="#8379c1"/><path d="m285.174 223.581-13.536-17.852.96-20.855 10.339-11.02c8.66-9.231 22.624-11.085 33.393-4.433l13.165 8.132a14.945 14.945 0 0 1 5.936 18.476l-5.976 14.303c-4.807 11.506-16.96 18.131-29.236 15.938z" fill="#978ecb"/><path d="m329.494 177.552-13.165-8.132c-7.466-4.611-16.464-5.127-24.169-1.939a26.607 26.607 0 0 1 3.818 1.939l13.165 8.132a14.945 14.945 0 0 1 5.936 18.476l-5.976 14.303c-2.953 7.069-8.684 12.283-15.507 14.754l6.622 1.183c12.276 2.194 24.428-4.431 29.236-15.938l5.976-14.303a14.944 14.944 0 0 0-5.936-18.475z" fill="#8379c1"/><path d="m219.323 223.581 12.577-16.913v-21.794l-10.339-11.02c-8.66-9.231-22.624-11.085-33.393-4.433l-13.165 8.132a14.945 14.945 0 0 0-5.936 18.476l5.976 14.303c4.807 11.506 16.96 18.131 29.236 15.938z" fill="#978ecb"/><path d="M221.561 173.854c-7.668-8.174-19.491-10.55-29.575-6.372a26.54 26.54 0 0 1 9.224 6.372l4.565 4.866a14.277 14.277 0 0 1 3.166 14.179l-7.325 22.545a14.278 14.278 0 0 1-11.066 9.642 26.522 26.522 0 0 0 13.729 1.183l15.044-2.688 12.577-16.913v-21.794z" fill="#8379c1"/><path d="m252.249 247.503 11.375-18.874 21.551-5.048 13.676 6.427c11.456 5.384 17.534 18.091 14.535 30.389l-3.666 15.033a14.946 14.946 0 0 1-15.737 11.355l-15.45-1.263c-12.429-1.016-22.485-10.527-24.192-22.88z" fill="#978ecb"/><path d="m298.85 230.008-13.676-6.427-6.846 1.604-1.147 4.204 1.319.62c11.456 5.384 17.534 18.091 14.535 30.389l-3.666 15.033c-1.162 4.764-4.524 8.481-8.806 10.257l13.419 1.097a14.943 14.943 0 0 0 15.737-11.354l3.666-15.033c2.999-12.298-3.079-25.006-14.535-30.39z" fill="#8379c1"/><path d="m252.249 247.503-11.395-18.311-21.531-5.612-13.676 6.427c-11.456 5.384-17.534 18.091-14.535 30.389l3.666 15.033a14.946 14.946 0 0 0 15.737 11.355l15.45-1.263c12.429-1.016 22.485-10.527 24.192-22.88z" fill="#978ecb"/><path d="m219.323 223.581-12.357 5.807 19.586 14.23a11.028 11.028 0 0 1 4.442 10.432l-1.187 8.592c-1.707 12.353-11.763 21.863-24.192 22.88l-2.03.166a14.877 14.877 0 0 0 6.931 1.097l15.45-1.263c12.429-1.016 22.485-10.527 24.192-22.88l2.092-15.138-11.395-18.311z" fill="#8379c1"/><path d="m252.248 247.503-32.926-23.922 12.577-38.707h40.699l12.577 38.707z" fill="#eaf6ff"/><path d="M272.598 184.874h-20.351l10.679 32.865a8.454 8.454 0 0 1-3.071 9.452l-17.782 12.919 10.175 7.393 32.926-23.922z" fill="#c8effe"/></g><g><path d="m279.975 319.175-27.725 11.003-27.729-11.003-9.928-18.038c-8.316-15.109-4.839-33.985 8.315-45.139l16.081-13.636c7.637-6.476 18.848-6.438 26.442.087l16.019 13.766c12.886 11.074 16.355 29.612 8.343 44.596z" fill="#c2bce0"/><path d="m281.45 256.216-16.019-13.766c-6.653-5.717-16.081-6.453-23.451-2.194a20.452 20.452 0 0 1 3.1 2.194l16.019 13.766c12.887 11.074 16.355 29.612 8.343 44.596l-9.818 18.363 6.701 5.417 13.65-5.417 9.818-18.363c8.012-14.983 4.544-33.521-8.343-44.596z" fill="#aca6d6"/><path d="m297.112 371.916-18.341-23.342 1.204-29.398 14.087-15.016c11.8-12.578 30.827-15.104 45.5-6.04L357.5 309.2c8.518 5.262 11.948 15.936 8.088 25.174l-8.142 19.489c-6.55 15.678-23.109 24.705-39.835 21.716z" fill="#c2bce0"/><path d="m357.5 309.2-17.938-11.08c-8.994-5.555-19.621-6.749-29.22-3.95a36.256 36.256 0 0 1 8.869 3.95l17.938 11.08c8.519 5.262 11.948 15.936 8.088 25.174l-8.142 19.489c-4.398 10.526-13.31 18.047-23.753 20.953l4.268.763c16.727 2.989 33.285-6.038 39.835-21.716l8.143-19.489c3.859-9.239.43-19.912-8.088-25.174z" fill="#aca6d6"/><path d="m207.385 371.916 18.64-24.656-1.504-28.084-14.087-15.016c-11.8-12.578-30.827-15.104-45.5-6.04l-17.938 11.08c-8.518 5.262-11.948 15.936-8.088 25.174l8.142 19.489c6.55 15.678 23.109 24.705 39.835 21.716z" fill="#c2bce0"/><path d="M210.435 304.16c-9.53-10.158-23.773-13.756-36.631-9.991a36.142 36.142 0 0 1 16.28 9.991l9.528 10.156a11.272 11.272 0 0 1 2.5 11.196l-12.99 39.978a11.272 11.272 0 0 1-8.738 7.613l-9.579 1.712a36.16 36.16 0 0 0 16.082.763l20.498-3.663 18.64-24.656-1.504-28.084z" fill="#aca6d6"/><path d="m252.249 404.511 16.199-23.652 28.665-8.944 18.634 8.757c15.609 7.336 23.891 24.65 19.805 41.406l-4.995 20.484c-2.372 9.728-11.464 16.287-21.443 15.471l-21.051-1.722c-16.935-1.385-30.637-14.344-32.963-31.175z" fill="#c2bce0"/><path d="m315.746 380.673-18.634-8.757-6.217 1.94-1.777 3.868 6.276 2.95c15.609 7.336 23.891 24.651 19.805 41.406l-4.995 20.484c-1.701 6.976-6.866 12.305-13.328 14.47l12.235 1.001c9.979.816 19.071-5.744 21.443-15.471l4.995-20.484c4.087-16.756-4.195-34.071-19.803-41.407z" fill="#aca6d6"/><path d="M252.249 404.511 237.1 381.422l-29.714-9.507-18.634 8.757c-15.609 7.336-23.891 24.65-19.805 41.406l4.995 20.484c2.372 9.728 11.464 16.287 21.443 15.471l21.051-1.722c16.935-1.385 30.637-14.344 32.963-31.175z" fill="#c2bce0"/><path d="m207.386 371.916-12.357 5.808 32.192 23.389a9.645 9.645 0 0 1 3.886 9.126l-2.059 14.899c-2.326 16.831-16.028 29.79-32.963 31.175l-8.816.721a20.295 20.295 0 0 0 8.115 1.001l21.051-1.722c16.935-1.385 30.637-14.344 32.962-31.175l2.85-20.626-15.147-23.09z" fill="#aca6d6"/><path d="m252.248 404.511-44.864-32.595 17.137-52.741h55.454l17.137 52.741z" fill="#eaf6ff"/><path d="M279.976 319.175h-20.351l13.441 41.368a16.458 16.458 0 0 1-5.979 18.401l-25.014 18.174 10.175 7.393 44.864-32.595z" fill="#c8effe"/></g><g><path d="M180.113 141.331a13.732 13.732 0 0 1-18.059 1.192l-13.517-10.351a23.068 23.068 0 0 1-9.035-17.708l-.182-6.901a6.847 6.847 0 0 1 7.025-7.025l6.901.182a23.068 23.068 0 0 1 17.708 9.035l10.351 13.517a13.732 13.732 0 0 1-1.192 18.059z" fill="#978ecb"/><path d="m181.305 123.272-10.351-13.517a23.071 23.071 0 0 0-17.708-9.035l-6.901-.182a6.811 6.811 0 0 0-4.019 1.177 23.057 23.057 0 0 1 11.605 8.04l10.351 13.517a13.732 13.732 0 0 1-1.192 18.059c-.384.384-.791.731-1.208 1.061l.172.132a13.73 13.73 0 0 0 18.059-1.193 13.732 13.732 0 0 0 1.192-18.059z" fill="#8379c1"/><path d="M133.126 393.956a13.732 13.732 0 0 0-18.059-1.192l-13.517 10.351a23.068 23.068 0 0 0-9.035 17.708l-.182 6.901a6.847 6.847 0 0 0 7.025 7.025l6.901-.182a23.071 23.071 0 0 0 17.708-9.035l10.351-13.517a13.732 13.732 0 0 0-1.192-18.059z" fill="#978ecb"/><path d="M133.125 393.956a13.733 13.733 0 0 0-18.059-1.193l-.172.132c.417.33.824.677 1.208 1.061a13.732 13.732 0 0 1 1.192 18.059l-10.351 13.517a23.06 23.06 0 0 1-11.606 8.04 6.811 6.811 0 0 0 4.019 1.177l6.901-.182a23.068 23.068 0 0 0 17.708-9.035l10.351-13.517a13.728 13.728 0 0 0-1.191-18.059z" fill="#8379c1"/><path d="M152.602 267.737c-6.721 6.721-17.379 7.424-24.925 1.646l-18.657-14.287a31.839 31.839 0 0 1-12.47-24.44l-.251-9.525c-.143-5.413 4.283-9.839 9.696-9.696l9.525.251a31.84 31.84 0 0 1 24.44 12.47l14.287 18.657c5.779 7.545 5.075 18.204-1.645 24.924z" fill="#c2bce0"/><path d="m154.248 242.812-14.287-18.657a31.839 31.839 0 0 0-24.44-12.47l-9.526-.251a9.39 9.39 0 0 0-4.58 1.05 31.833 31.833 0 0 1 18.195 11.671l14.287 18.657c5.779 7.546 5.075 18.205-1.646 24.925a18.967 18.967 0 0 1-3.236 2.576c7.427 4.742 17.254 3.757 23.587-2.576 6.72-6.72 7.424-17.379 1.646-24.925z" fill="#aca6d6"/></g><g><path d="M324.387 141.325a13.732 13.732 0 0 0 18.059 1.192l13.517-10.351a23.068 23.068 0 0 0 9.035-17.708l.182-6.901a6.847 6.847 0 0 0-7.025-7.025l-6.901.182a23.068 23.068 0 0 0-17.708 9.035l-10.351 13.517a13.732 13.732 0 0 0 1.192 18.059z" fill="#978ecb"/><path d="m358.155 100.532-6.902.182a23.06 23.06 0 0 0-6.102.995 6.836 6.836 0 0 1 3.006 5.848l-.182 6.901a23.068 23.068 0 0 1-9.035 17.708l-13.345 10.22c4.871 3.85 11.814 3.988 16.85.132l13.517-10.351a23.067 23.067 0 0 0 9.035-17.708l.182-6.901a6.847 6.847 0 0 0-7.024-7.026z" fill="#8379c1"/><path d="M371.374 393.951a13.732 13.732 0 0 1 18.059-1.192l13.517 10.351a23.068 23.068 0 0 1 9.035 17.708l.182 6.901a6.847 6.847 0 0 1-7.025 7.025l-6.901-.182a23.071 23.071 0 0 1-17.708-9.035l-10.351-13.517a13.732 13.732 0 0 1 1.192-18.059z" fill="#978ecb"/><path d="M411.985 420.817a23.068 23.068 0 0 0-9.035-17.708l-13.517-10.351c-5.036-3.856-11.98-3.718-16.85.132l13.345 10.22a23.068 23.068 0 0 1 9.035 17.708l.182 6.901a6.836 6.836 0 0 1-3.006 5.848c1.961.596 4.01.94 6.102.995l6.901.182a6.847 6.847 0 0 0 7.025-7.025z" fill="#8379c1"/><path d="M351.898 267.732c6.721 6.721 17.379 7.424 24.925 1.646l18.657-14.287a31.839 31.839 0 0 0 12.47-24.44l.251-9.525c.143-5.413-4.283-9.839-9.696-9.696l-9.526.251a31.84 31.84 0 0 0-24.44 12.47l-14.287 18.657c-5.778 7.544-5.074 18.203 1.646 24.924z" fill="#c2bce0"/><path d="m398.505 211.428-9.525.251a31.84 31.84 0 0 0-6.245.799c3.108 1.607 5.215 4.886 5.116 8.646l-.251 9.525a31.838 31.838 0 0 1-12.471 24.44l-18.657 14.287c-.435.333-.883.64-1.338.93 6.586 4.194 15.262 3.991 21.689-.93l18.657-14.287a31.839 31.839 0 0 0 12.47-24.44l.251-9.525c.143-5.413-4.283-9.838-9.696-9.696z" fill="#aca6d6"/></g></svg>