<svg height="512" viewBox="0 0 497 497" width="512" xmlns="http://www.w3.org/2000/svg"><path d="M79.189 355.77a54.378 54.378 0 0 0-3.27 18.59c0 21.99 13.23 41.82 33.54 50.25l77.89 32.34a47.086 47.086 0 0 1 26.72 28.93c.29.88.42 1.77.42 2.64 0 4.52-3.66 8.48-8.5 8.48h-10.98c-2.15 0-4.29-.19-6.4-.57h-.01c-2.11-.38-4.18-.95-6.19-1.69l-118.33-43.89c-27.89-10.35-46.4-36.95-46.4-66.7v-43.58c0-11.57 2.82-22.96 8.21-33.19l84.39-158.76 104.99-8.8 120.89-10.13 10.46 121.88-45.51 45.42h-175.95l-18.45 21.42-18.09 21.01a54.54 54.54 0 0 0-9.43 16.35z" fill="#ffd15b"/><path d="m88.619 339.42 18.09-21.01 18.45-21.42h121.229l.58-45.9a58.12 58.12 0 0 0-16.89-41.71l-10.19-10.26c-18.34-18.46-46.72-22.48-69.48-9.84l-37.29 20.71a36.334 36.334 0 0 0-18.25 37.42l5.239 33.248a36.179 36.179 0 0 1-8.324 29.241L66.359 339.42c-4.1 4.9-7.28 10.44-9.43 16.35s-3.27 12.2-3.27 18.59c0 21.99 13.23 41.82 33.54 50.25l77.89 32.34a47.086 47.086 0 0 1 26.72 28.93l.54 1.61c1.2 3.57-.51 7.37-3.74 8.94 2.11.38 4.25.57 6.4.57h10.98c4.84 0 8.5-3.96 8.5-8.48 0-.87-.13-1.76-.42-2.64a47.086 47.086 0 0 0-26.72-28.93l-77.89-32.34c-20.31-8.43-33.54-28.26-33.54-50.25 0-6.39 1.12-12.68 3.27-18.59s5.33-11.45 9.43-16.35z" fill="#ffc344"/><path d="m346.618 251.57-10.42 10.4-35.09 35.02h-98.92V181.97l13.08-42.15 95.6-8.01 25.29-2.12z" fill="#fe646f"/><path d="m346.618 251.57-10.42 10.4-28.37-24.36a58.154 58.154 0 0 1-20.13-40.25l-.97-14.42c-1.36-20.44 8.1-39.63 24.14-51.13l25.29-2.12z" fill="#fd4755"/><path d="m242.361 199.125 10.19 10.256a58.142 58.142 0 0 1 16.892 41.71l-.78 61.971c-.203 16.172-11.072 30.263-26.662 34.567l-50.869 14.044a32.002 32.002 0 0 1-31.22-8.293l-23.449-23.601a32.003 32.003 0 0 1-8.91-17.573l-10.213-64.793a36.335 36.335 0 0 1 18.249-37.421l37.296-20.716c22.752-12.637 51.132-8.614 69.476 9.849z" fill="#fea95c"/><path d="m252.55 209.38-10.19-10.256c-13.98-14.071-33.786-19.743-52.49-16.058a58.032 58.032 0 0 1 30.019 16.058l10.19 10.256a58.144 58.144 0 0 1 16.892 41.71l-.779 61.971c-.203 16.172-11.072 30.263-26.662 34.567l-47.919 13.229a31.97 31.97 0 0 0 19.521.815L242 347.628c15.59-4.304 26.458-18.395 26.662-34.567l.779-61.971a58.139 58.139 0 0 0-16.891-41.71z" fill="#fe9738"/><path d="m308.995 182.94.962 14.425a58.143 58.143 0 0 0 20.138 40.243l47.022 40.372c12.271 10.536 30.029 11.692 43.562 2.837l44.16-28.894a32.004 32.004 0 0 0 14.41-28.91l-2.214-33.196a31.999 31.999 0 0 0-7.3-18.301L427.86 121.03a36.334 36.334 0 0 0-40.144-11.037l-40.196 14.298c-24.521 8.723-40.258 32.68-38.525 58.649z" fill="#fea95c"/><path d="m479.249 223.013-2.215-33.196a31.999 31.999 0 0 0-7.3-18.301l-41.875-50.486c-9.503-11.457-24.997-15.905-39.096-11.364 6.434 2.072 12.315 5.917 16.833 11.364l41.875 50.486a32.006 32.006 0 0 1 7.3 18.301l2.214 33.196a32.004 32.004 0 0 1-14.41 28.91l-44.16 28.894a36.29 36.29 0 0 1-8.765 4.179 36.328 36.328 0 0 0 31.028-4.179l44.16-28.894a32 32 0 0 0 14.411-28.91z" fill="#fe9738"/><path d="m225.159 155.435 97.229-20.768a53.87 53.87 0 0 0 40.528-37.824l5.171-18.023c5.026-17.516-3.104-36.132-19.368-44.351L288.584 4.081c-14.744-7.451-32.615-4.51-44.195 7.271l-19.23 19.565-8.06 60.279z" fill="#fea95c"/><path d="M348.72 34.469 288.584 4.081c-8.966-4.531-19.086-5.212-28.247-2.406a37.96 37.96 0 0 1 5.984 2.406l60.135 30.387c16.264 8.219 24.394 26.835 19.368 44.351l-5.171 18.023a53.868 53.868 0 0 1-40.528 37.824l-74.967 16.013v4.755l97.229-20.768a53.868 53.868 0 0 0 40.528-37.824l5.171-18.023c5.028-17.515-3.102-36.131-19.366-44.35z" fill="#fe9738"/><path d="m225.159 155.435-22.967 26.539-53.982-11.545a71.45 71.45 0 0 1-51.768-44.283l-4.878-12.718a42.333 42.333 0 0 1 7.278-42.588l36.248-42.623a42.336 42.336 0 0 1 46.148-12.563l43.922 15.264v124.517z" fill="#fea95c"/><path d="M181.238 15.654a42.299 42.299 0 0 0-25.037-.854 41.94 41.94 0 0 1 2.774.854l30.207 10.498a20.417 20.417 0 0 1 13.715 19.286v98.166a31.754 31.754 0 0 1-7.742 20.778l-11.747 13.575 18.786 4.018 22.967-26.539V30.918z" fill="#fe9738"/><path d="M307.83 237.201h14.457a58.142 58.142 0 0 1 41.494 17.415l43.412 44.231c11.329 11.543 13.665 29.184 5.73 43.277l-25.89 45.985a32.003 32.003 0 0 1-27.887 16.302h-33.27a32 32 0 0 1-18.746-6.065l-53.161-38.422a36.334 36.334 0 0 1-13.684-39.32l11.591-41.058c7.072-25.048 29.928-42.345 55.954-42.345z" fill="#fea95c"/><path d="m407.194 298.847-43.412-44.231a58.142 58.142 0 0 0-41.494-17.415H307.83c-1.323 0-2.636.056-3.941.145a58.132 58.132 0 0 1 37.63 17.27l43.412 44.231c11.329 11.543 13.665 29.184 5.73 43.277l-25.89 45.985a32.003 32.003 0 0 1-27.887 16.302h22.262a32.003 32.003 0 0 0 27.887-16.302l25.89-45.985c7.936-14.093 5.6-31.735-5.729-43.277z" fill="#fe9738"/><path d="M263.15 176.911a7.5 7.5 0 0 1-7.385-8.858l14.253-77.459c.75-4.073 4.665-6.772 8.733-6.019a7.5 7.5 0 0 1 6.019 8.733l-14.253 77.459a7.502 7.502 0 0 1-7.367 6.144zM277.403 201.219a7.499 7.499 0 0 1-6.689-4.096 7.499 7.499 0 0 1 3.272-10.085c1.954-.997 48.42-24.409 95.781-23.125 4.141.111 7.406 3.559 7.295 7.699s-3.521 7.406-7.699 7.295c-43.446-1.159-88.119 21.268-88.564 21.494a7.467 7.467 0 0 1-3.396.818zM365.393 220.292a7.515 7.515 0 0 1-1.962-.262c-17.951-4.853-42.18-1.383-49.177-.205a7.494 7.494 0 0 1-8.642-6.149 7.5 7.5 0 0 1 6.149-8.642c7.759-1.307 34.691-5.132 55.583.516a7.5 7.5 0 0 1 5.283 9.197 7.5 7.5 0 0 1-7.234 5.545z" fill="#ffd15b"/><g fill="#ffc344"><circle cx="284.987" cy="57.907" r="7.594"/><circle cx="405.686" cy="171.363" r="7.594"/><circle cx="401.687" cy="217.63" r="7.594"/><circle cx="320.602" cy="272.35" r="7.594"/></g></svg>