<svg height="512" viewBox="0 0 497 497" width="512" xmlns="http://www.w3.org/2000/svg"><path d="M248.088 194.95a7.5 7.5 0 0 1-7.5-7.5V45.052a7.5 7.5 0 0 1 15 0V187.45a7.5 7.5 0 0 1-7.5 7.5z" fill="#eaf6ff"/><path d="M205.188 222.84H44.019a7.5 7.5 0 0 0 0 15h161.17a7.5 7.5 0 1 0-.001-15zM443.398 237.84h-122.34c-4.143 0-7.5-3.358-7.5-7.5s3.357-7.5 7.5-7.5h122.34c4.143 0 7.5 3.358 7.5 7.5s-3.357 7.5-7.5 7.5zM220.165 170.414a7.502 7.502 0 0 1-6.932-4.632L163.067 44.685a7.501 7.501 0 0 1 13.859-5.741l50.165 121.097a7.501 7.501 0 0 1-6.926 10.373zM326.184 426.377a7.503 7.503 0 0 1-6.932-4.631l-50.165-121.097a7.5 7.5 0 0 1 4.059-9.8 7.499 7.499 0 0 1 9.799 4.059l50.165 121.097a7.5 7.5 0 0 1-6.926 10.372zM315.524 209.92a7.502 7.502 0 0 1-6.932-4.632 7.498 7.498 0 0 1 4.059-9.799l121.098-50.165a7.5 7.5 0 0 1 9.799 4.059 7.498 7.498 0 0 1-4.059 9.799l-121.098 50.165a7.472 7.472 0 0 1-2.867.573z" fill="#c8effe"/><path d="M77.129 308.817a7.5 7.5 0 0 1-2.873-14.43l103.533-43.045a7.5 7.5 0 0 1 5.741 13.858L79.996 308.244a7.472 7.472 0 0 1-2.867.573z" fill="#eaf6ff"/><path d="M180.653 209.92a7.477 7.477 0 0 1-2.868-.573L56.687 159.182a7.5 7.5 0 1 1 5.741-13.858l121.098 50.165a7.5 7.5 0 0 1-2.873 14.431zM439.489 301.507l-121.098-50.165a7.502 7.502 0 0 0-9.799 4.059 7.498 7.498 0 0 0 4.059 9.799l121.098 50.165a7.472 7.472 0 0 0 2.867.573 7.5 7.5 0 0 0 2.873-14.431zM276.013 170.414a7.5 7.5 0 0 1-6.926-10.373l50.165-121.097a7.5 7.5 0 1 1 13.858 5.741l-50.165 121.097a7.504 7.504 0 0 1-6.932 4.632z" fill="#c8effe"/><path d="M174.128 415.772a7.5 7.5 0 0 1-6.926-10.372l46.027-110.49a7.5 7.5 0 0 1 13.858 5.74L181.06 411.14a7.503 7.503 0 0 1-6.932 4.632z" fill="#eaf6ff"/><g fill="#c8effe"><path d="M348.437 87.191a7.5 7.5 0 0 1-6.279-11.592l17.664-27.138a7.501 7.501 0 0 1 12.572 8.183L354.73 83.782a7.495 7.495 0 0 1-6.293 3.409zM68.91 202.189c-.348 0-.7-.024-1.055-.074l-30.137-4.243a7.5 7.5 0 1 1 2.091-14.853l30.137 4.243a7.5 7.5 0 0 1-1.036 14.927z"/><circle cx="405.595" cy="200.018" r="7.697"/><circle cx="339.883" cy="451.591" r="7.697"/><circle cx="418.157" cy="61.829" r="7.697"/><circle cx="157.423" cy="8.697" r="7.697"/><circle cx="154.74" cy="368.281" r="7.697"/><circle cx="80.84" cy="400.618" r="7.697"/><circle cx="27.585" cy="138.431" r="7.697"/><circle cx="469.415" cy="321.305" r="7.697"/></g><path d="M256.377 497h-16.576a6.78 6.78 0 0 1-6.78-6.78V343.363c0-8.322 6.746-15.068 15.068-15.068s15.068 6.746 15.068 15.068V490.22a6.78 6.78 0 0 1-6.78 6.78z" fill="#6fd7a3"/><path d="M249.301 328.343a14.984 14.984 0 0 0-8.747 1.984c4.5 2.606 7.534 7.462 7.534 13.036v142.213c0 5.2-3.345 9.81-8.288 11.424h16.576a6.78 6.78 0 0 0 6.78-6.78V343.783c.001-7.929-5.951-14.812-13.855-15.44z" fill="#3ec3a4"/><circle cx="248.089" cy="230.345" fill="#bbf49b" r="42.899"/><path d="M248.089 187.446c-3.822 0-7.525.507-11.051 1.444 18.335 4.876 31.847 21.584 31.847 41.454s-13.512 36.578-31.847 41.454a42.934 42.934 0 0 0 11.051 1.444c23.692 0 42.899-19.206 42.899-42.899s-19.207-42.897-42.899-42.897z" fill="#9be69d"/><circle cx="248.089" cy="26.276" fill="#eaf6ff" r="26.276"/><path d="M248.089 0a26.18 26.18 0 0 0-10.39 2.138c9.343 4.027 15.886 13.317 15.886 24.138s-6.542 20.11-15.886 24.138a26.18 26.18 0 0 0 10.39 2.138c14.512 0 26.276-11.764 26.276-26.276S262.601 0 248.089 0z" fill="#c8effe"/><circle cx="59.558" cy="308.437" fill="#eaf6ff" r="26.276"/><path d="M59.558 282.161a26.18 26.18 0 0 0-10.39 2.138c9.343 4.027 15.886 13.317 15.886 24.138s-6.542 20.11-15.886 24.138a26.18 26.18 0 0 0 10.39 2.138c14.512 0 26.276-11.764 26.276-26.276s-11.764-26.276-26.276-26.276z" fill="#c8effe"/><circle cx="169.997" cy="418.875" fill="#c8effe" r="16.257"/><circle cx="452.157" cy="230.345" fill="#eaf6ff" r="16.257"/><circle cx="112.492" cy="230.345" fill="#eaf6ff" r="16.257"/><path d="M237.514 209.163 115.081 86.736a7.483 7.483 0 0 0-5.499-2.397 7.505 7.505 0 0 0-5.303 12.809L226.907 219.77c1.464 1.465 3.384 2.197 5.303 2.197s3.839-.732 5.303-2.197a7.5 7.5 0 0 0 .001-10.607zM397.692 80.748a7.498 7.498 0 0 0-10.606-.002L258.663 209.163a7.5 7.5 0 0 0 5.304 12.803 7.478 7.478 0 0 0 5.304-2.197l128.42-128.415a7.5 7.5 0 0 0 .001-10.606z" fill="#eaf6ff"/><path d="M269.271 240.92a7.5 7.5 0 0 0-10.607 10.606l111.634 111.628c1.465 1.464 3.384 2.196 5.303 2.196s3.839-.732 5.304-2.197a7.498 7.498 0 0 0-.001-10.606z" fill="#c8effe"/><path d="M237.514 240.92a7.5 7.5 0 0 0-10.606 0L98.49 369.336a7.5 7.5 0 0 0 0 10.606c1.464 1.465 3.384 2.197 5.303 2.197s3.839-.732 5.303-2.197l128.417-128.417a7.497 7.497 0 0 0 .001-10.605z" fill="#eaf6ff"/><circle cx="392.384" cy="374.64" fill="#eaf6ff" r="26.276"/><path d="M392.384 348.364a26.18 26.18 0 0 0-10.39 2.138c9.343 4.027 15.886 13.317 15.886 24.138s-6.542 20.11-15.886 24.138a26.18 26.18 0 0 0 10.39 2.138c14.512 0 26.276-11.764 26.276-26.276s-11.765-26.276-26.276-26.276z" fill="#c8effe"/><circle cx="348.443" cy="129.871" fill="#c8effe" r="16.257"/><circle cx="103.794" cy="86.05" fill="#c8effe" r="16.257"/></svg>