<svg height="512" viewBox="0 0 497 497" width="512" xmlns="http://www.w3.org/2000/svg"><path d="M149.51 448.03c-1.66 2.82-4.41 4.82-7.59 5.6-3.48.85-6.64 2.55-9.21 4.89s-4.56 5.32-5.73 8.71l-1.2 3.48c-.87 2.52-2.53 4.72-4.77 6.18a23.195 23.195 0 0 1-20.3 2.54l-3.04-1.05-26.74-9.24-10.61-10.61-10.29-29.78a23.205 23.205 0 0 1 2.41-20.11c1.54-2.39 3.93-4.1 6.65-4.92l.58-.18a23.631 23.631 0 0 0 15.75-15.57l.32-1.01c.82-2.64 2.5-4.96 4.82-6.48 1.74-1.13 3.62-2.02 5.59-2.64 2.9-.94 5.99-1.29 9.1-1.02l43 3.78 9.75.86.86 9.76 3.78 42.99c.43 4.87-.69 9.7-3.13 13.82z" fill="#6fd7a3"/><path d="M149.51 448.03c-1.66 2.82-4.41 4.82-7.59 5.6-3.48.85-6.64 2.55-9.21 4.89s-4.56 5.32-5.73 8.71l-1.2 3.48c-.87 2.52-2.53 4.72-4.77 6.18a23.195 23.195 0 0 1-20.3 2.54l-3.04-1.05c2.31-1.11 4.45-2.6 6.32-4.47l2.3-6.68c2.34-6.78 7.97-11.9 14.94-13.6l4.02-.98c4.85-4.85 7.3-11.6 6.7-18.44L128 389.36a9.447 9.447 0 0 0-8.59-8.59l-33.26-2.93c2.9-.94 5.99-1.29 9.1-1.02l52.75 4.64 4.64 52.75c.43 4.87-.69 9.7-3.13 13.82z" fill="#3ec3a4"/><path d="m189.55 350.53-40.69 40.69-77.93 77.92-2.36-.81c-3.49-1.2-6.24-3.95-7.44-7.44l-.81-2.36 77.93-77.93 40.69-40.68a7.502 7.502 0 1 1 10.61 10.61z" fill="#bbf49b"/><path d="M410.5 95.79c-1.54 2.39-3.93 4.11-6.65 4.92l-.58.18c-7.5 2.25-13.4 8.09-15.75 15.57l-.31 1c-.83 2.65-2.51 4.98-4.83 6.49-4.31 2.8-9.47 4.12-14.68 3.66l-11.59-1.02-31.42-2.76-9.74-.86-.86-9.75-3.79-43.01c-.43-4.86.69-9.69 3.12-13.81 1.67-2.82 4.42-4.83 7.6-5.6 3.48-.85 6.64-2.56 9.21-4.9s4.56-5.31 5.73-8.7l1.2-3.48c.88-2.53 2.54-4.72 4.77-6.18.85-.56 1.74-1.06 2.65-1.5A23.143 23.143 0 0 1 362.23 25l29.79 10.28 10.61 10.61 10.28 29.79c2.35 6.8 1.39 14.21-2.41 20.11z" fill="#6fd7a3"/><path d="M410.5 95.79c-1.54 2.39-3.93 4.11-6.65 4.92l-.58.18c-7.5 2.25-13.4 8.09-15.75 15.57l-.31 1c-.83 2.65-2.51 4.98-4.83 6.49-4.31 2.8-9.47 4.12-14.68 3.66l-11.59-1.02c3.48-1.11 6.69-3.04 9.33-5.68l1.39-4.45a23.611 23.611 0 0 1 15.75-15.57l4.12-1.24a23.177 23.177 0 0 0 5.52-23.97l-11.09-32.14a12.056 12.056 0 0 0-7.45-7.45l-29.1-10.04v-.01A23.143 23.143 0 0 1 362.23 25l29.79 10.28 10.61 10.61 10.28 29.79c2.35 6.8 1.39 14.21-2.41 20.11z" fill="#3ec3a4"/><path d="m402.63 45.89-77.94 77.94-33.48 33.47c-1.46 1.47-3.38 2.2-5.3 2.2s-3.84-.73-5.3-2.2c-2.93-2.92-2.93-7.67 0-10.6l101.2-101.2 10.21-10.22 2.35.81c3.5 1.21 6.24 3.96 7.45 7.45z" fill="#bbf49b"/><path d="m402.63 45.89-15.38 15.38-5.44-15.77 10.21-10.22 2.35.81c3.5 1.21 6.24 3.96 7.45 7.45z" fill="#9be69d"/><path d="M253.829 36.848v19.705a49.197 49.197 0 0 1-12.464 32.722l-65.646 16.239-65.646-16.239a49.197 49.197 0 0 1-12.464-32.722V36.848C97.608 16.497 114.105 0 134.456 0c3.558 0 7.077.514 10.456 1.518a36.82 36.82 0 0 1 9.607 4.422 38.858 38.858 0 0 0 21.199 6.275 38.861 38.861 0 0 0 21.2-6.275 36.77 36.77 0 0 1 9.607-4.422A36.695 36.695 0 0 1 216.98 0c10.175 0 19.386 4.126 26.058 10.79 6.664 6.673 10.791 15.883 10.791 26.058z" fill="#978ecb"/><path d="M124.221 1.518c10.244 3.633 19.413 11.609 30.807 10.696 3.618.271 7.009-.349 10.284-1.427a38.761 38.761 0 0 1-10.793-4.846 36.802 36.802 0 0 0-9.607-4.422A36.663 36.663 0 0 0 134.456 0a36.86 36.86 0 0 0-10.354 1.485c.04.013.08.021.119.033z" fill="#978ecb"/><path d="M243.038 10.791C236.366 4.126 227.156 0 216.98 0c-3.515 0-6.991.506-10.332 1.486 15.307 4.476 26.49 18.608 26.49 35.362.509 17.675 1 38.966-12.466 52.426l4.908 3.905 15.783-3.904a49.197 49.197 0 0 0 12.464-32.722V36.848c.001-10.175-4.125-19.385-10.789-26.057z" fill="#8379c1"/><path d="M241.364 89.275c-.093.109-.187.21-.28.311l-65.366 72.139-65.366-72.139c-.093-.101-.187-.202-.28-.311a36.718 36.718 0 0 1 24.384-9.218c3.558 0 7.077.514 10.456 1.518a36.82 36.82 0 0 1 9.607 4.422 38.858 38.858 0 0 0 21.199 6.283 38.861 38.861 0 0 0 21.2-6.283 36.77 36.77 0 0 1 9.607-4.422 36.697 36.697 0 0 1 10.456-1.518c9.35 0 17.882 3.48 24.383 9.218z" fill="#8379c1"/><path d="M226.642 81.344c-1.597 2.85-3.556 5.518-5.97 7.93-.155.223-36.853 40.674-55.304 61.029l10.35 11.422 65.366-72.139c.093-.101.187-.202.28-.311a36.765 36.765 0 0 0-14.722-7.931z" fill="#6e61b6"/><path d="M340.246 193.341c0 6.711-1.83 13.492-5.668 19.588a36.838 36.838 0 0 1-15.711 13.811c-13.78 6.384-22.593 20.187-22.593 35.345 0 .179.008.366.008.553v.522a36.844 36.844 0 0 1-5.652 19.619c-10.837 17.221-33.586 22.398-50.807 11.561l-16.684-10.495a49.21 49.21 0 0 1-21.176-28.37l-2.219-7.918 63.131-101.21 8.712-1.534a49.191 49.191 0 0 1 34.746 6.812l16.676 10.495c11.133 7.001 17.237 18.983 17.237 31.221z" fill="#978ecb"/><path d="m323.009 162.122-16.676-10.495a49.184 49.184 0 0 0-34.372-6.869c4.791 1.383 9.408 4.027 13.682 6.87 16.229 9.267 34.888 20.839 33.913 41.713-.147 38.492-44.911 29.29-43.963 69.819a36.847 36.847 0 0 1-5.653 19.619c-6.048 8.83-13.035 13.766-20.464 15.847 15.312 4.31 32.251-1.7 41.154-15.847a36.844 36.844 0 0 0 5.652-19.619v-.522c0-.187-.008-.374-.008-.553 0-15.158 8.813-28.961 22.593-35.345a36.838 36.838 0 0 0 15.711-13.811 36.642 36.642 0 0 0 5.668-19.588c0-12.238-6.104-24.22-17.237-31.219zM268.675 163.811c0 5.294-1.44 10.65-4.469 15.462a29.105 29.105 0 0 1-12.402 10.907 30.745 30.745 0 0 0-17.828 27.903v.841a29.104 29.104 0 0 1-4.461 15.493c-6.509 10.331-18.443 15.174-29.771 13.142l-24.026-85.833 87.157-15.376a29.155 29.155 0 0 1 5.8 17.461z" fill="#8379c1"/><path d="M11.19 193.341c0 6.711 1.83 13.492 5.668 19.588a36.838 36.838 0 0 0 15.711 13.811c13.78 6.384 22.593 20.187 22.593 35.345 0 .179-.008.366-.008.553v.522a36.844 36.844 0 0 0 5.652 19.619C71.643 300 94.392 305.177 111.613 294.34l16.684-10.495a49.21 49.21 0 0 0 21.176-28.37l2.219-7.918-63.131-101.21-8.712-1.534a49.191 49.191 0 0 0-34.746 6.812L28.427 162.12c-11.133 7.001-17.237 18.983-17.237 31.221z" fill="#978ecb"/><g fill="#8379c1"><path d="m91.12 150.45-23.25-4.1c-2.12-.51-4.27-.93-6.43-1.27a48.897 48.897 0 0 1 18.41-.26l8.71 1.53zM151.69 247.56l-2.22 7.92a49.207 49.207 0 0 1-21.17 28.37l-16.69 10.49c-9.61 6.05-20.95 7.11-30.98 3.86 9.24-2.55 18.5-7.87 26.98-14.36a49.154 49.154 0 0 0 21.17-28.36l2.22-7.92 6.41-22.9z"/><path d="m175.72 161.73-9.39 33.54-14.64 52.29c-11.33 2.03-23.26-2.81-29.77-13.14a29.109 29.109 0 0 1-4.46-15.5v-.84c0-11.96-6.94-22.86-17.83-27.9a29.49 29.49 0 0 1-6.99-4.55 28.723 28.723 0 0 1-5.41-6.36 28.897 28.897 0 0 1-4.47-15.46c0-6.24 2.01-12.4 5.8-17.46l30.82 5.44z"/></g><path d="m175.72 161.73-.003-.001.001-.004-87.157-15.376a28.697 28.697 0 0 0-2.101 3.279l26.326 4.644c3.282.579 4.062 5.043 1.105 6.581l-.071.036c-5.25 3.7-3.82 11.85 2.39 13.54 6.97.93 10.15 6.34 7.43 12.88-1.92 7.99 7.18 12.03 13.2 7.61a3.48 3.48 0 0 1 .089-.04c3.997-1.785 8.237 2.075 7.058 6.291l-12.012 42.913c5.927 3.424 12.927 4.693 19.718 3.475l14.636-52.287.002-.001z" fill="#6e61b6"/><path d="m181.074 122.136 2.078-2.064c4.563-4.532 12.342-1.701 12.924 4.704l.265 2.917a7.6 7.6 0 0 0 8.205 6.885l2.919-.245c6.409-.539 10.548 6.63 6.877 11.911l-1.672 2.405a7.6 7.6 0 0 0 1.86 10.548l2.393 1.688c5.256 3.707 3.818 11.859-2.388 13.545l-2.826.768a7.6 7.6 0 0 0-5.356 9.276l.748 2.832c1.643 6.218-4.698 11.539-10.536 8.841l-2.659-1.229a7.6 7.6 0 0 0-10.065 3.663l-1.247 2.65c-2.738 5.819-11.016 5.819-13.754 0l-1.247-2.65a7.599 7.599 0 0 0-10.065-3.663l-2.659 1.229c-5.838 2.698-12.179-2.623-10.536-8.841l.748-2.832a7.6 7.6 0 0 0-5.356-9.276l-2.826-.768c-6.206-1.686-7.644-9.838-2.388-13.545l2.393-1.688a7.6 7.6 0 0 0 1.86-10.548l-1.672-2.405c-3.671-5.281.468-12.45 6.877-11.911l2.919.245a7.6 7.6 0 0 0 8.205-6.885l.265-2.917c.582-6.405 8.361-9.236 12.924-4.704l2.078 2.064a7.603 7.603 0 0 0 10.714 0z" fill="#fea95c"/><path d="m216.924 160.885-2.393-1.688a7.6 7.6 0 0 1-1.86-10.548l1.672-2.405c3.671-5.281-.468-12.45-6.877-11.911l-2.919.245a7.6 7.6 0 0 1-8.205-6.885l-.265-2.917c-.582-6.405-8.361-9.236-12.924-4.704l-2.078 2.064a7.572 7.572 0 0 1-5.774 2.188c.025.154.068.293.087.453-.271 5.077 2.839 10.337 8.471 9.801 9.435-2.222 14.803 6.976 8.123 14.071-3.305 4.614-.253 9.929 4.254 12.236 6.58 4.885 2.267 13.834-5.216 14.312-5.497 1.411-6.576 7.444-4.606 12.108 1.643 6.218-4.698 11.539-10.536 8.841-3.844-2.454-7.646-2.407-10.438-.278a7.557 7.557 0 0 1 2.156 2.713l1.247 2.65c2.738 5.819 11.016 5.819 13.754 0l1.247-2.65a7.599 7.599 0 0 1 10.065-3.663l2.659 1.229c5.838 2.698 12.179-2.623 10.536-8.841l-.748-2.832a7.6 7.6 0 0 1 5.356-9.276l2.826-.768c6.204-1.685 7.641-9.838 2.386-13.545z" fill="#fe9738"/><path d="m475.014 296.152-13.933 13.933a49.194 49.194 0 0 1-31.951 14.324L376 286.923l-39.708-55.351a49.199 49.199 0 0 1 14.324-31.951l13.933-13.933c14.39-14.39 37.721-14.39 52.111 0a36.67 36.67 0 0 1 6.32 8.467 36.773 36.773 0 0 1 3.666 9.92 38.844 38.844 0 0 0 10.553 19.427 38.853 38.853 0 0 0 19.427 10.553 36.806 36.806 0 0 1 9.92 3.666 36.69 36.69 0 0 1 8.467 6.32c7.195 7.195 10.79 16.625 10.795 26.056-.004 9.429-3.599 18.86-10.794 26.055z" fill="#c2bce0"/><path d="M475.014 244.041a36.67 36.67 0 0 0-8.467-6.32 36.773 36.773 0 0 0-9.92-3.666c-7.52-1.596-14.209-5.334-19.427-10.553s-8.957-11.908-10.553-19.427a36.806 36.806 0 0 0-3.666-9.92 36.69 36.69 0 0 0-6.32-8.467c-12.164-12.164-30.714-14.044-44.854-5.644 12.327.695 24.301 7.332 30.484 19.112 4.675 9.813 5.518 21.936 14.221 29.347 9.836 11.432 27.738 9.269 37.813 20.54 14.39 14.391 14.39 37.72 0 52.111-7.352 7.788-15.649 16.507-25.278 22.172l-.921.377 1.004.709a49.199 49.199 0 0 0 31.951-14.324l13.933-13.933c7.195-7.195 10.79-16.625 10.795-26.055-.005-9.434-3.6-18.864-10.795-26.059z" fill="#aca6d6"/><path d="M429.129 324.409c-.143.011-.281.017-.418.022l-97.231 4.789 4.789-97.231c.005-.138.011-.275.022-.418a36.719 36.719 0 0 1 23.76 10.724 36.67 36.67 0 0 1 6.32 8.467 36.773 36.773 0 0 1 3.666 9.92c1.596 7.52 5.329 14.214 10.548 19.433s11.913 8.951 19.433 10.548a36.806 36.806 0 0 1 9.92 3.666 36.69 36.69 0 0 1 8.467 6.32 36.714 36.714 0 0 1 10.724 23.76z" fill="#8379c1"/><path d="M425.463 467.915a36.638 36.638 0 0 1-17.858 9.843 36.836 36.836 0 0 1-20.875-1.344c-14.258-5.23-30.25-1.701-40.969 9.017-.127.127-.253.264-.385.396l-.369.369a36.84 36.84 0 0 1-17.869 9.876c-19.84 4.514-39.587-7.911-44.101-27.751l-4.377-19.218a49.205 49.205 0 0 1 5.087-35.034l4.03-7.168 116.207-26.925 7.245 5.076a49.186 49.186 0 0 1 19.752 29.386l4.371 19.213c2.921 12.822-1.235 25.61-9.889 34.264z" fill="#c2bce0"/><path d="M324.316 486.198a36.857 36.857 0 0 1-15.716 9.305 36.668 36.668 0 0 0 18.537.571 36.848 36.848 0 0 0 17.87-9.876l.369-.369c.132-.132.259-.27.385-.396a38.873 38.873 0 0 1 16.223-9.713c-12.341-2.18-24.777-3.118-37.668 10.478z" fill="#c2bce0"/><path d="m435.35 433.652-4.371-19.213a49.195 49.195 0 0 0-19.752-29.386l-7.245-5.076h-20.69c12.828 7.837 23.947 19.294 26.996 34.462 4.923 18.028 9.934 39.405-5.516 53.476-5.222 5.208-10.388 7.996-15.525 9.323a36.817 36.817 0 0 0 18.356.52 36.638 36.638 0 0 0 17.858-9.843c8.656-8.654 12.812-21.442 9.889-34.263z" fill="#aca6d6"/><path d="M395.736 396.427a28.935 28.935 0 0 1-14.093 7.773 29.02 29.02 0 0 1-8.318.666 29.13 29.13 0 0 1-8.164-1.723 30.745 30.745 0 0 0-32.337 7.124l-.595.595a29.112 29.112 0 0 1-14.109 7.801c-11.908 2.703-23.771-2.312-30.344-11.759l43.705-77.682 72.502 50.757a29.173 29.173 0 0 1-8.247 16.448z" fill="#8379c1"/><path d="M383.292 379.977c5.734 3.503 11.12 7.736 15.603 12.694a29.09 29.09 0 0 0 5.087-12.694L331.48 329.22l-5.846 10.392 57.658 40.365z" fill="#6e61b6"/><path d="M192.786 235.238a36.638 36.638 0 0 0-9.843 17.858 36.836 36.836 0 0 0 1.344 20.875c5.23 14.258 1.701 30.25-9.017 40.969-.127.127-.264.253-.396.385l-.369.369a36.84 36.84 0 0 0-9.876 17.869c-4.514 19.84 7.911 39.587 27.751 44.101l19.218 4.377a49.21 49.21 0 0 0 35.034-5.087l7.168-4.03 26.925-116.207-5.076-7.245a49.186 49.186 0 0 0-29.386-19.752l-19.213-4.371c-12.822-2.921-25.61 1.235-34.264 9.889z" fill="#c2bce0"/><path d="m331.48 329.22-52.68 29.64-25 14.07c-9.45-6.58-14.46-18.44-11.76-30.35a29.16 29.16 0 0 1 7.8-14.11l.59-.59a30.743 30.743 0 0 0 7.13-32.34c-.97-2.63-1.54-5.38-1.72-8.16s.03-5.58.66-8.32a28.897 28.897 0 0 1 7.77-14.09 29.17 29.17 0 0 1 16.45-8.25l19.7 28.14z" fill="#8379c1"/><path d="m331.48 329.22-52.68 29.64c-1.54-2.63-1.69-6.24.19-9.32 1.41-3.93-.61-8.27-4.53-9.71-7.38-1.13-10.96-10.42-3.95-14.71 6.54-2.7 8.12-8.78 3.85-14.36-3.9-7.21 3.79-13.5 10.77-10.77 5.58 1.04 9.11-3.97 9.3-9.03.6-3.35 3.12-5.53 5.99-6.1z" fill="#6e61b6"/><path d="m363.261 305.014 2.929.01c6.431.022 9.93 7.524 5.813 12.465l-1.875 2.25a7.6 7.6 0 0 0 .934 10.67l2.237 1.89c4.913 4.151 2.77 12.147-3.56 13.285l-2.883.518a7.6 7.6 0 0 0-6.144 8.774l.499 2.886c1.095 6.337-5.686 11.085-11.266 7.889l-2.541-1.456a7.6 7.6 0 0 0-10.346 2.772l-1.473 2.531c-3.235 5.559-11.481 4.837-13.701-1.199l-1.011-2.749a7.6 7.6 0 0 0-9.708-4.527l-2.756.992c-6.051 2.179-11.904-3.674-9.725-9.725l.992-2.756a7.6 7.6 0 0 0-4.527-9.708l-2.749-1.011c-6.036-2.22-6.757-10.467-1.199-13.701l2.531-1.473a7.6 7.6 0 0 0 2.772-10.346l-1.456-2.541c-3.197-5.581 1.551-12.362 7.889-11.266l2.886.499a7.6 7.6 0 0 0 8.774-6.144l.518-2.883c1.138-6.33 9.134-8.472 13.285-3.56l1.89 2.237a7.6 7.6 0 0 0 10.67.934l2.25-1.875c4.941-4.117 12.443-.619 12.465 5.813l.01 2.929a7.603 7.603 0 0 0 7.576 7.576z" fill="#fea95c"/><path d="M322.522 288.698c1.785-1.416 3.656-1.934 5.395-1.79-4.257-4.234-11.704-2.042-12.801 4.055l-.229 1.274c2.593.175 5.295-.991 7.635-3.539z" fill="#fea95c"/><path d="m373.298 332.3-2.237-1.89a7.6 7.6 0 0 1-.934-10.67l1.875-2.25c4.117-4.941.619-12.443-5.813-12.465l-2.929-.01a7.6 7.6 0 0 1-7.574-7.574l-.01-2.929c-.022-6.431-7.524-9.93-12.465-5.813l-2.25 1.875a7.58 7.58 0 0 1-6.428 1.593c.627 1.584.838 3.4.462 5.274a7.602 7.602 0 0 0 7.575 7.574c7.324-1.46 13.861 6.041 8.741 12.476-3.781 3.398-5.302 9.317-.941 12.92 8.243 5.1 5.534 15.4-4.206 15.694-5.599.926-7.2 6.842-5.644 11.66 1.198 8.107-8.179 11.385-13.808 6.432-2.327-1.377-4.684-1.291-6.723-.328.354.514.656 1.073.881 1.685l1.011 2.749c2.22 6.036 10.467 6.757 13.701 1.199l1.473-2.531a7.6 7.6 0 0 1 10.346-2.772l2.541 1.456c5.581 3.197 12.362-1.551 11.266-7.889l-.499-2.886a7.6 7.6 0 0 1 6.144-8.774l2.883-.518c6.332-1.141 8.475-9.137 3.562-13.288z" fill="#fe9738"/><circle cx="331.48" cy="329.221" fill="#fe9738" r="7.697"/><circle cx="175.72" cy="161.725" fill="#fe9738" r="7.697"/></svg>