<svg height="512" viewBox="0 0 503.967 503.967" width="512" xmlns="http://www.w3.org/2000/svg"><path d="m281.063 233.778-29.08 31.018-29.08-31.018a107.525 107.525 0 0 1-29.083-73.543v-10.148c0-22.409 5.006-44.536 14.653-64.763l28.708-60.194c5.939-12.453 23.664-12.453 29.603 0l28.708 60.194a150.44 150.44 0 0 1 14.653 64.763v10.148a107.524 107.524 0 0 1-29.082 73.543z" fill="#d691c6"/><path d="M295.493 85.325 266.785 25.13c-4.783-10.029-17.207-11.974-24.966-5.849 1.875 1.48 3.481 3.426 4.637 5.849l28.708 60.194a150.44 150.44 0 0 1 14.653 64.763v10.148a107.525 107.525 0 0 1-29.083 73.543l-18.915 20.176 10.164 10.842 29.08-31.018a107.525 107.525 0 0 0 29.083-73.543v-10.148c0-22.409-5.007-44.535-14.653-64.762z" fill="#cd7cbb"/><path d="M263.305 132.473a7.5 7.5 0 0 1-7.352-9.019c11.783-57.034 45.055-98.641 46.285-99.942a7.501 7.501 0 0 1 10.898 10.308c-.059.062-6.919 7.432-15.032 21.225-7.461 12.686-21.787 43.977-27.461 71.445a7.505 7.505 0 0 1-7.338 5.983z" fill="#ffd15b"/><path d="m255.462 274.72-15.856 39.45-38.347-18.365a107.525 107.525 0 0 1-53.766-57.996l-2.099-5.396a169.708 169.708 0 0 1-11.081-74.077l4.61-62.161c1.02-13.758 17.539-20.184 27.589-10.732l48.578 45.691a150.443 150.443 0 0 1 37.135 55.045l3.679 9.457a107.53 107.53 0 0 1-.442 79.084z" fill="#ffceec"/><path d="m255.904 195.637-3.679-9.457a150.44 150.44 0 0 0-37.135-55.044l-48.578-45.691c-7.908-7.438-19.818-5.04-25.033 3.023 4.075-.142 8.272 1.231 11.712 4.466l41.571 38.202a150.448 150.448 0 0 1 37.135 55.044l3.679 9.457a107.527 107.527 0 0 1-.442 79.083l-12.575 31.286 17.047 8.164 15.856-39.45a107.527 107.527 0 0 0 .442-79.083z" fill="#ffbee6"/><path d="m248.505 274.72 15.856 39.45 38.347-18.365a107.53 107.53 0 0 0 53.767-57.996l2.099-5.396a169.708 169.708 0 0 0 11.081-74.077l-4.61-62.161c-1.02-13.758-17.539-20.184-27.589-10.732l-48.578 45.691a150.443 150.443 0 0 0-37.135 55.045l-3.679 9.457a107.525 107.525 0 0 0 .441 79.084z" fill="#ffceec"/><path d="m369.654 158.337-4.61-62.161c-.985-13.278-16.402-19.722-26.511-11.66 3.399 2.653 5.812 6.671 6.182 11.66l4.932 66.507a150.455 150.455 0 0 1-9.823 65.669l-3.679 9.458a107.529 107.529 0 0 1-53.766 57.996l-21.3 10.201 3.281 8.164 38.347-18.365a107.526 107.526 0 0 0 53.767-57.997l2.099-5.396a169.718 169.718 0 0 0 11.081-74.076z" fill="#ffbee6"/><path d="M240.661 131.088a7.502 7.502 0 0 1-7.337-5.984c-5.675-27.467-20-57.374-27.461-70.06-8.112-13.792-14.973-21.162-15.042-21.235-2.831-3.016-2.69-7.76.32-10.597 3.01-2.836 7.744-2.707 10.587.299 1.23 1.3 34.502 41.523 46.285 98.557a7.5 7.5 0 0 1-5.827 8.862 7.439 7.439 0 0 1-1.525.158z" fill="#ffd15b"/><path d="m432.211 151.671-52.027 13.436a19.279 19.279 0 0 0-13.38 12.332c-5.295 15.193-17.333 46.077-36.976 76.947-5.776 9.077-19.73 4.943-19.684-5.816l.001-.465v-10.148a150.44 150.44 0 0 0-14.653-64.763L266.785 113c-5.939-12.453-23.664-12.453-29.603 0l-28.708 60.194a150.44 150.44 0 0 0-14.653 64.762v10.148l.001.465c.047 10.758-13.908 14.892-19.684 5.816-19.643-30.87-31.681-61.754-36.976-76.947a19.275 19.275 0 0 0-13.38-12.332L71.755 151.67c-8.45-2.182-16.688 4.198-16.688 12.926a92.616 92.616 0 0 0 36.679 73.815l72.137 54.664a171.907 171.907 0 0 1 52.52 65.542 200.03 200.03 0 0 1 18.107 83.161v50.926l17.473 11.262 17.473-11.262v-50.926c0-28.698 6.175-57.061 18.107-83.161a171.91 171.91 0 0 1 52.521-65.542l72.137-54.664a92.614 92.614 0 0 0 36.679-73.815c-.001-8.727-8.239-15.108-16.689-12.925z" fill="#c365af"/><g fill="#b2529f"><path d="m246.456 113 28.708 60.194a150.44 150.44 0 0 1 14.653 64.763v10.148l-.001.465c-.047 10.758 13.908 14.892 19.684 5.816.428-.673.853-1.346 1.274-2.019a11.133 11.133 0 0 1-.629-3.796l.001-.465v-10.148c0-22.409-5.006-44.536-14.653-64.763L266.785 113c-4.783-10.029-17.207-11.974-24.966-5.849 1.875 1.48 3.481 3.425 4.637 5.849zM102.961 164.98a20.198 20.198 0 0 1 14.021 12.883c5.369 15.338 17.366 45.937 36.828 76.523 5.035 7.913 16.283 5.784 19.054-2.019-18.907-30.216-30.542-60.116-35.715-74.965a19.237 19.237 0 0 0-13.366-12.294l-52.027-13.436c-4.182-1.08-8.308-.058-11.413 2.303zM432.211 151.671l-8.916 2.303c3.169 2.41 5.275 6.214 5.275 10.623a92.616 92.616 0 0 1-36.679 73.815l-72.137 54.664a171.91 171.91 0 0 0-52.521 65.542 200.019 200.019 0 0 0-18.107 83.161v60.347l2.856 1.841 17.473-11.262v-50.926c0-28.698 6.175-57.061 18.107-83.161a171.91 171.91 0 0 1 52.521-65.542l72.137-54.664a92.616 92.616 0 0 0 36.679-73.815c0-8.728-8.238-15.109-16.688-12.926z"/></g><path d="m251.983 503.967-29.689-51.333a226.02 226.02 0 0 0-114.825-97.915l-26.172-10.022c-5.222-2-9.297 4.765-5.088 8.446l63.608 55.631a80.62 80.62 0 0 1 13.005 14.499l53.024 75.848a11.349 11.349 0 0 0 9.301 4.846z" fill="#bbf49b"/><path d="M222.295 452.634a226.02 226.02 0 0 0-114.825-97.915l-26.172-10.022c-4.259-1.631-7.751 2.568-6.612 6.169.961-.281 2.046-.283 3.193.158 87.123 26.134 113.773 74.876 153.776 152.943h20.329z" fill="#9be69d"/><path d="m251.983 503.967 29.689-51.333a226.02 226.02 0 0 1 114.825-97.915l26.172-10.022c5.222-2 9.297 4.765 5.088 8.446l-63.608 55.631a80.62 80.62 0 0 0-13.005 14.499l-53.023 75.848a11.349 11.349 0 0 1-9.301 4.846z" fill="#bbf49b"/><path d="m422.669 344.697-13.523 5.178c-.104 1.159-.63 2.316-1.718 3.268l-63.608 55.631c-10.504 7.107-60.647 84.051-69.417 95.193h14.415c3.706 0 7.178-1.809 9.301-4.846l53.024-75.848a80.614 80.614 0 0 1 13.005-14.498l63.608-55.631c4.21-3.682.135-10.447-5.087-8.447z" fill="#9be69d"/><g fill="#ffc344"><circle cx="336.304" cy="7.791" r="7.789"/><circle cx="251.983" cy="56.273" r="7.789"/><circle cx="167.663" cy="7.791" r="7.789"/></g><path d="M251.983 346.309a7.5 7.5 0 0 1-7.5-7.5V267.83a7.5 7.5 0 0 1 15 0v70.979a7.5 7.5 0 0 1-7.5 7.5zM251.983 239.299a7.5 7.5 0 0 1-7.5-7.5v-21.651a7.5 7.5 0 0 1 15 0v21.651a7.5 7.5 0 0 1-7.5 7.5z" fill="#b2529f"/></svg>