<svg height="512" viewBox="0 0 497 497" width="512" xmlns="http://www.w3.org/2000/svg"><path d="M237.736 422.246v12.19c0 6.04-5.62 10.5-11.5 9.14l-47.12-10.91-2.66-.62a68.138 68.138 0 0 0-30.73 0l-28.29 6.55-21.5 4.98c-5.88 1.36-11.5-3.1-11.5-9.14v-12.19a46.078 46.078 0 0 1 10.36-29.09 39.024 39.024 0 0 0 8.78-24.67v-24.81c0-16.6 12.06-30.39 27.9-33.08 1.84-.31 3.72-.47 5.65-.47h2.09l7.27-1.84 14.6-3.71 14.6 3.71 7.27 1.84h2.09c1.93 0 3.81.16 5.65.47 15.84 2.69 27.9 16.48 27.9 33.08v24.81c0 4.5.78 8.92 2.26 13.1 1.48 4.17 3.68 8.09 6.52 11.57a46.017 46.017 0 0 1 10.36 29.09z" fill="#8ac9fe"/><path d="m135.258 374.689-5.012 60.937-12.826 2.974 5.343-64.939a6.27 6.27 0 0 1 12.495 1.028zM227.379 393.157a39.028 39.028 0 0 1-8.784-24.667v-24.813c0-18.527-15.019-33.547-33.546-33.547h-2.092l-8.978-2.28-7.223 2.28c18.527 0 33.546 15.019 33.546 33.547v24.813a39.03 39.03 0 0 0 8.784 24.667 46.026 46.026 0 0 1 10.358 29.089v12.19a9.309 9.309 0 0 1-3.01 6.871l9.804 2.27c5.881 1.362 11.499-3.104 11.499-9.141v-12.19c0-10.6-3.659-20.875-10.358-29.089z" fill="#60b7ff"/><path d="m183.416 455.866-11.8 7.83a19.024 19.024 0 0 1-21.06 0l-11.8-7.83a19.612 19.612 0 0 1-8.7-17.95l.19-2.29 5.57-67.72h50.54l5.76 70.01c.59 7.12-2.75 14-8.7 17.95z" fill="#8ac9fe"/><path d="m192.117 437.916-5.142-62.523a8.153 8.153 0 0 0-8.126-7.485h-2.976c-4.204 0-7.511 3.59-7.166 7.78l5.117 62.229a19.613 19.613 0 0 1-8.702 17.95l-11.801 7.832c-.45.299-.912.571-1.381.828a19.035 19.035 0 0 0 19.674-.828l11.801-7.832a19.617 19.617 0 0 0 8.702-17.951zM146.985 310.131l-4.529 22.325c-.7 3.57-3.84 6.05-7.35 6.05-.48 0-.97-.05-1.46-.14-4.06-.8-6.7-4.75-5.9-8.81l3.73-18.96c1.84-.31 3.72-.47 5.65-.47h2.09l7.27-1.84.499 1.845zM188.526 338.366c-.49.09-.98.14-1.46.14-3.51 0-6.65-2.48-7.35-6.05l-4.12-20.87c-.22-1.13-.18-2.25.09-3.3l7.27 1.84h2.09c1.93 0 3.81.16 5.65.47l3.74 18.96c.8 4.06-1.85 8.01-5.91 8.81z" fill="#60b7ff"/><path d="M161.087 291.027a7.5 7.5 0 0 1-7.5-7.5v-38.989c0-14.204-11.56-25.759-25.769-25.759h-49.06a7.5 7.5 0 0 1 0-15h49.061c22.48 0 40.769 18.284 40.769 40.759v38.989a7.502 7.502 0 0 1-7.501 7.5z" fill="#6fd7a3"/><path d="M398.745 302.52v12.19c0 6.04-5.62 10.5-11.5 9.14l-47.12-10.91-2.66-.62a68.138 68.138 0 0 0-30.73 0l-28.29 6.55-21.5 4.98c-5.88 1.36-11.5-3.1-11.5-9.14v-12.19a46.078 46.078 0 0 1 10.36-29.09 39.024 39.024 0 0 0 8.78-24.67v-24.81c0-16.6 12.06-30.39 27.9-33.08 1.84-.31 3.72-.47 5.65-.47h2.09l7.27-1.84 14.6-3.71 14.6 3.71 7.27 1.84h2.09c1.93 0 3.81.16 5.65.47 15.84 2.69 27.9 16.48 27.9 33.08v24.81c0 4.5.78 8.92 2.26 13.1 1.48 4.17 3.68 8.09 6.52 11.57a46.017 46.017 0 0 1 10.36 29.09z" fill="#8ac9fe"/><path d="m296.267 254.963-5.012 60.937-12.826 2.974 5.343-64.939a6.27 6.27 0 0 1 12.495 1.028zM388.389 273.431a39.028 39.028 0 0 1-8.784-24.667v-24.813c0-18.527-15.019-33.547-33.546-33.547h-2.092l-8.978-2.28-7.223 2.28c18.527 0 33.546 15.019 33.546 33.547v24.813a39.03 39.03 0 0 0 8.784 24.667 46.026 46.026 0 0 1 10.358 29.089v12.19a9.309 9.309 0 0 1-3.01 6.871l9.804 2.27c5.881 1.362 11.499-3.104 11.499-9.141v-12.19c0-10.6-3.659-20.875-10.358-29.089z" fill="#60b7ff"/><path d="m344.425 336.14-11.8 7.83a19.024 19.024 0 0 1-21.06 0l-11.8-7.83a19.612 19.612 0 0 1-8.7-17.95l.19-2.29 5.57-67.72h50.54l5.76 70.01c.59 7.12-2.75 14-8.7 17.95z" fill="#8ac9fe"/><path d="m353.127 318.189-5.142-62.523a8.153 8.153 0 0 0-8.126-7.485h-2.976c-4.204 0-7.511 3.59-7.166 7.78l5.117 62.229a19.613 19.613 0 0 1-8.702 17.95l-11.801 7.832c-.45.299-.912.571-1.381.828a19.035 19.035 0 0 0 19.674-.828l11.801-7.832a19.62 19.62 0 0 0 8.702-17.951zM307.994 190.405l-4.529 22.325c-.7 3.57-3.84 6.05-7.35 6.05-.48 0-.97-.05-1.46-.14-4.06-.8-6.7-4.75-5.9-8.81l3.73-18.96c1.84-.31 3.72-.47 5.65-.47h2.09l7.27-1.84.499 1.845zM349.535 218.64c-.49.09-.98.14-1.46.14-3.51 0-6.65-2.48-7.35-6.05l-4.12-20.87c-.22-1.13-.18-2.25.09-3.3l7.27 1.84h2.09c1.93 0 3.81.16 5.65.47l3.74 18.96c.8 4.06-1.85 8.01-5.91 8.81zM382.412 134.083a7.5 7.5 0 0 1-3.689-14.035l25.136-14.379 1.909-.981a7.5 7.5 0 0 1 10.216 2.852 7.5 7.5 0 0 1-2.852 10.216l-27.046 15.36a7.465 7.465 0 0 1-3.674.967zM469.048 133.801a7.465 7.465 0 0 1-3.675-.968l-27.046-15.043a7.5 7.5 0 0 1 7.364-13.068l1.91.945 25.137 14.098a7.5 7.5 0 0 1-3.69 14.036z" fill="#60b7ff"/><path d="m447.601 105.668-21.871-7.89-21.871 7.89v61.855a76.709 76.709 0 0 0 9.681 37.303l6.4 11.499c2.526 4.538 9.054 4.538 11.58 0l6.4-11.499a76.706 76.706 0 0 0 9.681-37.303z" fill="#8ac9fe"/><path d="M428.745 105.669c0 31.715.226 70.383-7.905 84.736-1.976 3.317-4.631 9.729-8.043 13.033.246.464.488.929.744 1.389l6.4 11.499c2.526 4.538 9.054 4.538 11.58 0l6.4-11.499a76.705 76.705 0 0 0 9.681-37.302V105.67l-11.637-4.198z" fill="#60b7ff"/><path d="M322.093 168.621a7.5 7.5 0 0 1-7.5-7.5v-20.25c0-14.204-11.555-25.759-25.758-25.759H184.39a7.5 7.5 0 0 1 0-15h104.445c22.474 0 40.758 18.284 40.758 40.759v20.25a7.5 7.5 0 0 1-7.5 7.5z" fill="#6fd7a3"/><path d="M182.957 310.132h-43.741v-15.467c0-9.701 7.864-17.565 17.565-17.565h8.611c9.701 0 17.565 7.864 17.565 17.565z" fill="#bbf49b"/><path d="M165.392 277.099h-8.611c-1.783 0-3.501.27-5.122.764 7.201 2.193 12.443 8.883 12.443 16.801v15.467h18.856v-15.467c-.001-9.7-7.865-17.565-17.566-17.565z" fill="#9be69d"/><path d="M343.967 190.405h-43.741v-15.467c0-9.701 7.864-17.565 17.565-17.565h8.611c9.701 0 17.565 7.864 17.565 17.565z" fill="#bbf49b"/><path d="M326.402 157.372h-8.611c-1.783 0-3.501.27-5.122.764 7.201 2.193 12.443 8.883 12.443 16.801v15.467h18.856v-15.467c-.001-9.7-7.866-17.565-17.566-17.565z" fill="#9be69d"/><path d="M439.695 55.451v28.52h-29.927v-28.52c0-8.611-6.981-15.592-15.592-15.592l-9.88-4.587-11.075 4.587h-79.639a68.035 68.035 0 0 0-48.108 19.927l-47.987 47.987-15.351 5.773-15.873 25.451-86.478 86.478c-.01.02-16.843 6.889-16.843 6.889l-14.7 27.447c-6.344 10.494-9.736 22.555-9.736 35.134v195.418A6.637 6.637 0 0 1 31.869 497H15.218a6.637 6.637 0 0 1-6.637-6.637V294.937a97.95 97.95 0 0 1 28.69-69.263L224.323 38.622c18.505-18.505 43.105-28.69 69.26-28.69h100.594c25.139 0 45.518 20.379 45.518 45.519z" fill="#6fd7a3"/><g fill="#3ec3a4"><path d="m226.62 59.786-47.987 47.987L60.931 225.475c-.01.02-.02.03-.02.03l-21.338 21.328a68.379 68.379 0 0 0-10.185 12.978c-6.344 10.494-9.736 22.555-9.736 35.134v194.873c0 3.04-1.716 5.82-4.434 7.182H31.87a6.637 6.637 0 0 0 6.637-6.637V294.945c0-12.579 3.392-24.64 9.736-35.134l14.7-27.447 16.823-6.859s.01-.01.02-.03l86.478-86.478 15.873-25.451 15.351-5.773 47.993-47.993c12.849-12.849 29.937-19.921 48.102-19.921h-18.855a68.035 68.035 0 0 0-48.108 19.927zM394.177 9.932h-18.856c25.099 0 45.519 20.42 45.519 45.519v28.52h18.855v-28.52c0-25.099-20.42-45.519-45.518-45.519z"/></g><path d="M99.478 163.466c-5.526 35.433-19.163 61.021-19.692 62.008-.01.02-.02.03-.02.03l-21.338 21.328a68.379 68.379 0 0 0-10.185 12.978V214.7c14.683-14.683 33.637-65.053 43.507-93.384 1.765-5.065 9.21-4.069 9.595 1.281 1.037 14.425.096 28.268-1.867 40.869z" fill="#bbf49b"/><path d="M101.345 122.599c-.385-5.35-7.83-6.347-9.595-1.281a941.583 941.583 0 0 1-9.268 25.448 194.39 194.39 0 0 1-1.86 16.701c-3.396 22.003-10.298 40.956-14.968 51.938a52.049 52.049 0 0 1-11.104 16.457l-6.307 6.304v21.645a68.347 68.347 0 0 1 10.185-12.978l21.338-21.328s.01-.01.02-.03c.529-.988 14.165-26.575 19.692-62.008 1.963-12.602 2.904-26.445 1.867-40.868z" fill="#9be69d"/><path d="M447.601 105.668H403.86V90.201c0-9.701 7.864-17.565 17.565-17.565h8.611c9.701 0 17.565 7.864 17.565 17.565z" fill="#bbf49b"/><path d="M430.036 72.636h-8.611c-1.783 0-3.501.27-5.122.764 7.201 2.193 12.443 8.883 12.443 16.801v15.467h18.856V90.201c-.001-9.701-7.865-17.565-17.566-17.565z" fill="#9be69d"/><path d="m217.35 45.465-.03.16c-5.536 35.353-19.133 60.861-19.662 61.849-.01.02-.02.03-.02.03l-.15.269-31.224 31.224V96.68c14.684-14.684 33.488-65.041 43.354-93.371 1.766-5.058 9.207-4.07 9.597 1.287 1.038 14.424.1 28.26-1.865 40.869z" fill="#bbf49b"/><path d="M219.215 4.595c-.389-5.357-7.831-6.344-9.596-1.287a983.897 983.897 0 0 1-9.269 25.521 194.325 194.325 0 0 1-1.856 16.636c-3.577 22.747-10.581 41.778-15.251 52.619a50.902 50.902 0 0 1-10.771 15.849l-6.207 6.207v18.856l31.224-31.224.15-.269s.01-.01.02-.03c.529-.988 14.125-26.495 19.662-61.849l.03-.16c1.964-12.608 2.902-26.444 1.864-40.869z" fill="#9be69d"/><path d="M394.177 9.932h91.499c2.338 0 3.609 2.752 2.07 4.512-7.309 8.36-30.008 25.414-93.569 25.414h-20.954z" fill="#bbf49b"/><path d="M487.745 14.44c-7.31 8.36-30.01 25.42-93.57 25.42h-15.39c63.56 0 86.26-17.06 93.57-25.42 1.54-1.76.27-4.51-2.07-4.51h15.39c2.34 0 3.61 2.75 2.07 4.51z" fill="#9be69d"/></svg>