<svg height="512" viewBox="0 0 504.5 504.5" width="512" xmlns="http://www.w3.org/2000/svg"><path d="m441.559 479.28-5.68-1.18a73.573 73.573 0 0 1-25.63-10.65 73.309 73.309 0 0 1-11.52-9.39l-38.33-38.33 17.4-30.07 20.88-11.27 6.68-3.61 11.96 11.96 26.37 26.37a73.589 73.589 0 0 1 20.03 37.15l1.18 5.68c2.879 13.91-9.431 26.21-23.34 23.34z" fill="#fe646f"/><path d="m464.897 455.936-1.175-5.679a73.626 73.626 0 0 0-20.038-37.146l-38.331-38.331-13.267 7.165 31.283 31.166a73.626 73.626 0 0 1 20.038 37.146l1.175 5.679c1.932 9.338-2.984 17.946-10.63 21.731.64.15 1.279.302 1.924.435l5.679 1.175c13.912 2.878 26.22-9.431 23.342-23.341z" fill="#fd4755"/><path d="M423.628 474.43c-4.69-1.86-9.17-4.2-13.38-6.98 2.5-3.51 7.97-15.95.38-48.7-4.32-18.66-10.41-36.07-11.95-40.36l6.68-3.61 11.96 11.96c2.47 7.78 5.45 17.94 7.93 28.62 6.42 27.69 5.01 48.01-1.62 59.07z" fill="#fd4755"/><path d="M258.234 504.5a7.5 7.5 0 0 1-7.5-7.5V388.118c0-10.604 4.129-20.573 11.627-28.072l18.418-18.417c15.252-15.252 40.25-15.435 55.725-.412l20.234 19.869a7.499 7.499 0 0 1 .156 10.605 7.5 7.5 0 0 1-10.605.157l-20.234-19.869c-9.627-9.348-25.181-9.233-34.668.256l-18.418 18.417a24.538 24.538 0 0 0-7.234 17.465V497a7.502 7.502 0 0 1-7.501 7.5zM200.327 504.5a7.5 7.5 0 0 1-7.5-7.5V293.744c0-4.142 3.357-7.5 7.5-7.5s7.5 3.358 7.5 7.5V497a7.5 7.5 0 0 1-7.5 7.5zM141.267 504.5a7.5 7.5 0 0 1-7.5-7.5v-84.21c0-4.142 3.357-7.5 7.5-7.5s7.5 3.358 7.5 7.5V497a7.5 7.5 0 0 1-7.5 7.5z" fill="#3ec3a4"/><path d="m219.867 122.26-54.07 54.07-52.57-14.82a111.755 111.755 0 0 1-48.68-28.54c-8.58-8.58-12.87-19.82-12.87-31.07 0-11.24 4.29-22.48 12.87-31.06l49.83-49.83c17.15-17.16 44.97-17.16 62.13 0 6.76 6.76 12.6 14.33 17.39 22.51 4.8 8.18 8.55 16.97 11.15 26.17z" fill="#fe646f"/><path d="m219.867 122.26-23.93 23.93h-54.16l-26.69-47.65a111.77 111.77 0 0 1-14.25-54.61c0-3.69.45-7.27 1.31-10.69l12.23-12.23c17.15-17.16 44.97-17.16 62.13 0 6.76 6.76 12.6 14.33 17.39 22.51 4.8 8.18 8.55 16.97 11.15 26.17z" fill="#fd4755"/><path d="M279.498 43.93c0 9.57-1.23 19.05-3.62 28.22a111.97 111.97 0 0 1-10.63 26.39l-26.69 47.65h-76.47l-3.69-6.58-7.16-12.78-15.84-28.29a111.77 111.77 0 0 1-14.25-54.61c0-12.13 4.92-23.11 12.87-31.06S152.948 0 165.089 0h70.47c21.37 0 39.18 15.25 43.12 35.46.539 2.74.819 5.57.819 8.47z" fill="#fe646f"/><g fill="#fd4755"><path d="M220.178 146.19h-58.09l-3.69-6.58-7.16-12.78c7.47-7.17 17.61-11.58 28.78-11.58 19.28 0 35.48 13.13 40.16 30.94z"/><path d="M279.498 43.93c0 9.57-1.23 19.05-3.62 28.22a111.97 111.97 0 0 1-10.63 26.39l-26.69 47.65h-76.47l-3.69-6.58 44.98-66.22c5.6-7.75 12.15-14.71 19.47-20.75a111.86 111.86 0 0 1 24.07-15.15c10.38-4.81 21.66-5.23 31.76-2.03.54 2.74.82 5.57.82 8.47z"/><path d="M235.56 0h-20.314c24.265 0 43.935 19.67 43.935 43.935 0 19.121-4.906 37.922-14.25 54.605l-26.689 47.654h20.314l26.689-47.654a111.753 111.753 0 0 0 14.25-54.605C279.495 19.67 259.825 0 235.56 0z"/></g><path d="m206.798 195.93-32 44.26a111.836 111.836 0 0 1-43.54 35.9 43.69 43.69 0 0 1-18.46 4.09c-2.33 0-4.66-.19-6.94-.56-13.94-2.23-26.56-11.13-32.94-24.9l-29.65-63.94c-10.21-22.01-.64-48.13 21.37-58.34a111.82 111.82 0 0 1 47-10.37c2.84 0 5.69.11 8.53.33l33.19 2.54 21.27 1.62 18.93 40.82 10.72 23.12z" fill="#fe646f"/><path d="m206.798 195.93-32 44.26a111.836 111.836 0 0 1-43.54 35.9 43.69 43.69 0 0 1-18.46 4.09c-2.33 0-4.66-.19-6.94-.56a44.38 44.38 0 0 1-1.13-9.98c0-19.12 4.9-37.92 14.25-54.6l15.83-28.28 10.85-19.38h47.9l10.72 23.12z" fill="#fd4755"/><path d="M204.277 190.5a41.354 41.354 0 0 1-24.27 7.82c-22.94 0-41.53-18.59-41.53-41.53 0-12.8 5.78-24.24 14.88-31.85l21.27 1.62z" fill="#fd4755"/><path d="M279.497 269.64c0 3.69-.46 7.28-1.32 10.71-4.78 19.09-22.05 33.23-42.62 33.23h-70.47c-12.13 0-23.11-4.92-31.06-12.87s-12.87-18.94-12.87-31.07c0-19.12 4.9-37.92 14.25-54.6l15.83-28.28 10.85-19.38h76.47l26.69 47.66a112.07 112.07 0 0 1 10.63 26.38 112 112 0 0 1 3.62 28.22z" fill="#fe646f"/><path d="M220.177 167.38c-4.68 17.81-20.89 30.94-40.17 30.94-11.17 0-21.3-4.41-28.77-11.56l10.85-19.38z" fill="#fd4755"/><path d="M279.497 269.64c0 3.69-.46 7.28-1.32 10.71l-12.22 12.22c-8.58 8.58-19.82 12.87-31.07 12.87-11.24 0-22.48-4.29-31.06-12.87a111.788 111.788 0 0 1-28.54-48.69l-14.82-52.57 23.93-23.93h54.16l26.69 47.66a112.07 112.07 0 0 1 10.63 26.38 112 112 0 0 1 3.62 28.22z" fill="#fd4755"/><path d="m234.85 137.245-54.069 54.069 14.824 52.568a111.751 111.751 0 0 0 28.535 48.687c17.158 17.158 44.976 17.158 62.133 0l49.832-49.832c17.158-17.158 17.158-44.976 0-62.133a111.738 111.738 0 0 0-48.687-28.535z" fill="#fe646f"/><path d="M336.105 180.604a111.738 111.738 0 0 0-48.687-28.535l-52.568-14.824-4.469 4.469 36.722 10.356a111.751 111.751 0 0 1 48.687 28.535c17.158 17.158 17.158 44.976 0 62.133l-49.832 49.832a43.722 43.722 0 0 1-20.909 11.678c14.335 3.392 30.043-.496 41.224-11.678l49.832-49.832c17.158-17.158 17.158-44.976 0-62.134z" fill="#fd4755"/><path d="m193.85 117.646 32.17 69.368 54.46 4.164a111.736 111.736 0 0 0 55.532-10.046c22.013-10.208 31.582-36.329 21.373-58.341l-29.649-63.932c-10.208-22.013-36.329-31.582-58.341-21.373a111.748 111.748 0 0 0-43.542 35.9z" fill="#fe646f"/><path d="m357.385 122.791-29.649-63.932c-8.95-19.299-30.13-29.03-50.05-24.258 12.646 3.004 23.843 11.552 29.736 24.258l29.649 63.932c10.208 22.013.639 48.133-21.373 58.341a111.739 111.739 0 0 1-36.984 9.911l1.766.135a111.736 111.736 0 0 0 55.532-10.046c22.012-10.208 31.581-36.329 21.373-58.341z" fill="#fd4755"/><path d="m405.354 374.78-44.953 44.953-22.604-22.604c-8.944-8.944-8.944-23.445 0-32.389l12.564-12.564c8.944-8.944 23.445-8.944 32.389 0z" fill="#bbf49b"/><path d="M382.75 352.176c-7.131-7.131-17.788-8.557-26.352-4.317a22.827 22.827 0 0 1 6.037 4.317l16.371 16.371a8.816 8.816 0 0 1 0 12.466l-28.563 28.563 10.157 10.157 44.953-44.953z" fill="#9be69d"/><circle cx="200.324" cy="156.788" fill="#8379c1" r="41.537"/><path d="M200.324 115.251c-3.505 0-6.906.439-10.157 1.256 18.029 4.532 31.38 20.845 31.38 40.281 0 19.435-13.35 35.748-31.38 40.281a41.619 41.619 0 0 0 10.157 1.256c22.94 0 41.537-18.597 41.537-41.537s-18.597-41.537-41.537-41.537z" fill="#6e61b6"/><path d="M153.59 417.25h-22.75c-7.074 0-12.809-5.735-12.809-12.809v-20.612c0-13.356 10.828-24.184 24.184-24.184 13.356 0 24.184 10.828 24.184 24.184v20.612c0 7.075-5.735 12.809-12.809 12.809z" fill="#bbf49b"/><path d="M142.215 359.645c-3.629 0-7.068.805-10.157 2.237 8.281 3.839 14.027 12.22 14.027 21.947v20.612c0 7.074-5.735 12.809-12.809 12.809h20.315c7.074 0 12.809-5.735 12.809-12.809v-20.612c-.001-13.356-10.828-24.184-24.185-24.184z" fill="#9be69d"/></svg>