<svg height="512" viewBox="0 0 497 497" width="512" xmlns="http://www.w3.org/2000/svg"><path d="m330.785 229.154-24.638-42.463 78.783-56.423a62.412 62.412 0 0 1 13.862-7.483l29.455-11.374c13.167-5.084 28.076.161 35.16 12.369 7.101 12.239 4.222 27.827-6.783 36.721l-25.579 20.674a62.453 62.453 0 0 1-13.29 8.226z" fill="#eaf6ff"/><path d="M463.407 123.78c-7.038-12.131-21.802-17.381-34.907-12.46 5.427 1.828 10.305 5.664 14.227 12.462 15.471 26.494-15.556 43.272-32.363 57.394-4.512 5.276-56.301 28.042-83.952 40.442l4.373 7.536 86.969-39.752a62.413 62.413 0 0 0 13.29-8.226l25.579-20.674c11.006-8.895 13.885-24.483 6.784-36.722z" fill="#c8effe"/><path d="m190.87 310.39-27.25 19.57-50.42 36.2a62.385 62.385 0 0 1-13.74 7.46l-30.64 11.94a28.645 28.645 0 0 1-10.42 1.97c-9.98 0-19.57-5.23-24.83-14.3-7.08-12.21-4.23-27.76 6.71-36.66l24.5-19.93c4.09-3.33 8.58-6.12 13.37-8.32l52.07-23.88 36.02-16.52z" fill="#eaf6ff"/><path d="m190.87 310.39-27.25 19.57c-14.99-11.67-26.67-27.39-33.4-45.52l36.02-16.52zM320.396 293.009l12.605-47.447 95.605 15.811a62.451 62.451 0 0 1 15.093 4.51l28.87 12.785c12.906 5.715 19.739 19.967 16.115 33.608-3.633 13.675-16.691 22.662-30.762 21.17l-32.706-3.468a62.46 62.46 0 0 1-15.214-3.581z" fill="#c8effe"/><path d="m472.569 278.668-28.87-12.785a62.407 62.407 0 0 0-15.093-4.51l-95.605-15.811-.885 3.33c30.693 4.828 85.026 13.05 90.903 16.99 19.791 9.064 52.796 17.273 44.984 46.395-3.323 12.65-11.373 18.073-21.21 19.989l11.128 1.18c14.071 1.492 27.129-7.494 30.762-21.17 3.626-13.642-3.208-27.893-16.114-33.608z" fill="#99e6fc"/><path d="m176.63 204.07-12.61 47.45-40.17-6.59-54.19-8.9c-5.16-.85-10.2-2.34-14.99-4.44l-30.11-13.22C13.93 213.7 7.39 203.25 7.39 192.1c0-2.45.32-4.92.97-7.38 3.62-13.64 16.63-22.62 30.67-21.18l31.41 3.23c5.24.54 10.4 1.74 15.34 3.58l55.53 20.61z" fill="#c8effe"/><path d="m176.63 204.07-12.61 47.45-40.17-6.59c.68-19.95 7.01-38.45 17.46-53.97z" fill="#99e6fc"/><path d="m229.17 166.24-42.46 24.64-19.16-26.75-37.26-52.03a62.579 62.579 0 0 1-7.49-13.87l-11.37-29.45c-5.09-13.17.16-28.08 12.37-35.16 4.51-2.62 9.47-3.88 14.38-3.88 8.43 0 16.72 3.71 22.34 10.66l20.67 25.58c3.29 4.07 6.05 8.53 8.23 13.29l30.28 66.26z" fill="#eaf6ff"/><path d="m229.17 166.24-42.46 24.64-19.16-26.75a102.44 102.44 0 0 1 52.15-18.6z" fill="#c8effe"/><path d="M387.55 438.63c0 9.97-5.23 19.56-14.3 24.82-12.21 7.09-27.76 4.24-36.67-6.71l-19.92-24.49a61.866 61.866 0 0 1-8.32-13.38l-40.4-88.08 4.26-2.47 38.21-22.17 55.77 77.68a62.54 62.54 0 0 1 7.46 13.73l11.94 30.65c.56 1.45 1 2.91 1.32 4.39.44 2 .65 4.03.65 6.03z" fill="#eaf6ff"/><path d="M386.9 432.6c-16.34 1.28-32.83-14.64-46.06-24-7.41-3.62-52.9-61.27-68.64-80.28l38.21-22.17 55.77 77.68a62.54 62.54 0 0 1 7.46 13.73l11.94 30.65c.56 1.45 1 2.91 1.32 4.39z" fill="#c8effe"/><g><path d="M333.62 36.04c0 1.01-.05 2.03-.16 3.06l-3.47 32.71c-.55 5.2-1.75 10.31-3.58 15.21l-33.38 89.61-46.5-12.36-.95-.25 15.81-95.6a62.62 62.62 0 0 1 4.51-15.09l12.79-28.87c5.71-12.91 19.96-19.74 33.6-16.12a28.69 28.69 0 0 1 20.34 20.24c.65 2.4.99 4.9.99 7.46z" fill="#c8effe"/><path d="M333.62 36.04c0 1.01-.05 2.03-.16 3.06l-3.47 32.71c-.55 5.2-1.75 10.31-3.58 15.21l-33.38 89.61-46.5-12.36c7.42-15.63 40.27-94.24 46.95-100.14 10.51-12.81 22.48-33.16 39.15-35.55.65 2.4.99 4.9.99 7.46z" fill="#99e6fc"/><path d="m251.53 333-15.48 94.37a62.664 62.664 0 0 1-4.44 14.98l-13.22 30.12a28.575 28.575 0 0 1-13.28 14.04 28.61 28.61 0 0 1-13 3.12c-2.44 0-4.91-.31-7.37-.96-13.64-3.63-22.62-16.63-21.18-30.67l3.23-31.41a62.14 62.14 0 0 1 3.58-15.34l33.72-90.85 33.92 9.01z" fill="#c8effe"/><path d="m251.53 333-15.48 94.37a62.664 62.664 0 0 1-4.44 14.98l-13.22 30.12a28.575 28.575 0 0 1-13.28 14.04c-8.39-11.75-9-30.97-11.39-44.9-3.03-8.82 8.37-100.91 8.78-112.2h35.51z" fill="#99e6fc"/></g><g><path d="m208.69 173.92-34.72 34.71-28.46-23.47-46.3-38.19a62.4 62.4 0 0 1-10.79-11.47l-18.55-25.55c-8.3-11.42-7.06-27.18 2.92-37.16 5.56-5.56 12.91-8.4 20.3-8.4 5.91 0 11.85 1.82 16.93 5.53l26.55 19.42c4.23 3.08 8.04 6.69 11.37 10.73l42.63 51.83z" fill="#c8effe"/><path d="m208.69 173.92-34.72 34.71-28.46-23.47c11.57-14.88 27.12-26.5 45.06-33.26z" fill="#99e6fc"/><path d="m323.104 288.334-34.714 34.714 61.655 74.759a62.41 62.41 0 0 0 11.476 10.791l25.548 18.555c11.42 8.294 27.176 7.053 37.157-2.927 10.005-10.005 11.225-25.81 2.873-37.232l-19.414-26.549a62.43 62.43 0 0 0-10.732-11.362z" fill="#c8effe"/><path d="m427.098 386.994-19.414-26.549a62.43 62.43 0 0 0-10.732-11.362l-73.848-60.749-9.402 9.402c22.728 18.474 70.183 56.217 73.302 62.709 12.618 17.964 38.298 42.146 16.543 63.779-3.132 3.147-6.316 5.294-9.525 6.639 10.28 3.785 22.131 1.436 30.204-6.637 10.004-10.005 11.224-25.81 2.872-37.232z" fill="#99e6fc"/><g><path d="m250.71 163.96-13.19 3.63-34.14 9.4-9.96-26.12-24.57-64.43a62.488 62.488 0 0 1-3.71-15.31l-3.5-31.38c-1.57-14.02 7.29-27.11 20.9-30.85 2.54-.7 5.1-1.04 7.63-1.04 5.02 0 9.9 1.33 14.17 3.76 5.15 2.92 9.41 7.44 11.99 13.18l13.49 30c2.14 4.77 3.68 9.79 4.57 14.94l13.45 77.63z" fill="#c8effe"/><path d="m247.84 147.37-.004-.001L234.39 69.74a62.521 62.521 0 0 0-4.57-14.94l-13.49-30a28.564 28.564 0 0 0-11.99-13.18c-7.66 11.82-8.3 30.27-10.62 43.77-2.14 6.229 2.918 53.995 6.218 85.495.464 4.424-2.239 8.514-6.446 9.961l-.072.025 9.96 26.12 34.14-9.4 13.19-3.63z" fill="#99e6fc"/><path d="m293.681 319.936-47.334 13.025 16.658 95.461a62.434 62.434 0 0 0 4.644 15.052l13.041 28.756c5.83 12.854 20.141 19.561 33.75 15.817 13.643-3.754 22.513-16.892 20.896-30.949l-3.758-32.674a62.434 62.434 0 0 0-3.716-15.182z" fill="#c8effe"/><path d="m335.336 457.098-3.758-32.674a62.434 62.434 0 0 0-3.716-15.182l-34.181-89.306-18.819 5.179c8.052 21.363 36.593 91.244 36.035 99.309 2.024 21.134 11.792 53.359-14.345 62.744a28.613 28.613 0 0 0 17.888.88c13.643-3.755 22.513-16.893 20.896-30.95z" fill="#99e6fc"/></g></g><g><path d="m323.066 208.666-34.714-34.714 61.655-74.759a62.41 62.41 0 0 1 11.476-10.791l25.548-18.555c11.42-8.295 27.176-7.053 37.157 2.927 10.005 10.005 11.225 25.81 2.873 37.232l-19.414 26.549a62.43 62.43 0 0 1-10.732 11.362z" fill="#c8effe"/><path d="M424.187 72.774c-8.073-8.073-19.924-10.422-30.204-6.638 3.209 1.345 6.393 3.492 9.525 6.639 21.755 21.633-3.925 45.815-16.543 63.779-3.119 6.492-50.574 44.235-73.302 62.709l9.402 9.402 73.848-60.749a62.43 62.43 0 0 0 10.732-11.362l19.414-26.549c8.353-11.421 7.133-27.226-2.872-37.231z" fill="#99e6fc"/><path d="m208.65 323.08-4.48 5.44-13.63 16.57-42.64 51.84a62.101 62.101 0 0 1-11.36 10.73l-26.55 19.42a28.644 28.644 0 0 1-16.93 5.53c-.63 0-1.25-.02-1.88-.07a28.575 28.575 0 0 1-18.43-8.33c-9.98-9.98-11.22-25.74-2.92-37.16l18.55-25.55a62.74 62.74 0 0 1 10.79-11.47l46.33-38.21 28.43-23.45z" fill="#c8effe"/><path d="m173.93 288.37-28.43 23.45.087.111c5.139 6.596 5.441 15.743.575 22.544-18.207 25.444-42.348 59.418-43.481 65.415-3.51 9.72-9.26 21.44-11.5 32.65.63.05 1.25.07 1.88.07 5.91 0 11.85-1.82 16.93-5.53l26.55-19.42c4.22-3.08 8.04-6.69 11.36-10.73l56.27-68.41 4.48-5.44z" fill="#99e6fc"/><g><path d="m333.02 250.693-13.025-47.334 90.544-34.526a62.468 62.468 0 0 1 15.309-3.711l31.38-3.507c14.027-1.568 27.112 7.298 30.857 20.906 3.754 13.643-2.996 27.985-15.901 33.788l-29.997 13.487a62.391 62.391 0 0 1-14.945 4.574z" fill="#c8effe"/><path d="M488.084 182.523c-3.745-13.609-16.829-22.474-30.857-20.906l-10.743 1.201c9.627 1.914 17.532 7.279 20.92 19.707 8.223 29.558-26.052 37.891-45.899 47.273-5.579 3.867-59.118 12.406-89.443 17.418l.957 3.477 94.221-16.321a62.468 62.468 0 0 0 14.945-4.574l29.997-13.487c12.906-5.803 19.656-20.146 15.902-33.788z" fill="#99e6fc"/><path d="m177.04 293.66-35.02 13.41-54.28 20.77a62.643 62.643 0 0 1-15.18 3.72l-32.68 3.76c-1.1.13-2.2.19-3.29.19-12.76 0-24.2-8.52-27.66-21.09-3.74-13.61 2.97-27.92 15.82-33.75l28.76-13.04c4.8-2.18 9.86-3.74 15.05-4.64l55.34-9.66 40.12-7z" fill="#c8effe"/><path d="m177.04 293.66-35.02 13.41c-10.65-15.4-17.2-33.84-18.12-53.74l40.12-7z" fill="#99e6fc"/></g></g><g><path d="M273.073 167.594H223.98l-9.266-96.459a62.457 62.457 0 0 1 .484-15.745l4.944-31.185C222.352 10.264 234.371 0 248.486 0c14.15 0 26.188 10.313 28.358 24.296l5.045 32.5a62.425 62.425 0 0 1 .445 15.623z" fill="#eaf6ff"/><path d="m281.889 56.796-5.045-32.5C274.674 10.313 262.636 0 248.486 0c-3.636 0-7.132.686-10.358 1.936 19.343 7.621 19.035 36.269 22.285 54.861 2.974 8.474-8.438 100.053-8.816 110.797h21.476l9.262-95.174a62.433 62.433 0 0 0-.446-15.624z" fill="#c8effe"/><path d="M273.073 329.406H223.98l-9.266 96.459a62.457 62.457 0 0 0 .484 15.745l4.944 31.185c2.21 13.94 14.229 24.204 28.344 24.204 14.15 0 26.188-10.313 28.358-24.296l5.045-32.5a62.425 62.425 0 0 0 .445-15.623z" fill="#eaf6ff"/><path d="m282.335 424.581-9.262-95.174h-21.476c.377 10.743 11.79 102.323 8.816 110.797-3.25 18.592-2.942 47.241-22.285 54.861a28.623 28.623 0 0 0 10.358 1.936c14.15 0 26.188-10.313 28.358-24.296l5.045-32.5c.803-5.17.952-10.419.446-15.624z" fill="#c8effe"/><g><path d="m309.828 190.273-42.68-24.26 39.611-88.438a62.434 62.434 0 0 1 8.202-13.449l19.709-24.668c8.81-11.027 24.331-14.011 36.602-7.036 12.301 6.992 17.67 21.907 12.648 35.135l-11.674 30.748a62.457 62.457 0 0 1-7.333 13.803z" fill="#eaf6ff"/><path d="M371.272 32.422c-7.817-4.443-16.951-4.839-24.831-1.695a36.225 36.225 0 0 1 3.356 1.696c26.715 15.086 8.371 45.215.972 65.882-1.347 7.43-40.574 60.917-56.375 83.194l15.435 8.773 55.084-78.165a62.416 62.416 0 0 0 7.333-13.803l11.674-30.748c5.022-13.227-.347-28.142-12.648-35.134z" fill="#c8effe"/><path d="m229.921 330.948-42.68-24.26-55.722 79.28a62.428 62.428 0 0 0-7.36 13.928l-11.112 29.555c-4.967 13.212.41 28.074 12.681 35.049 12.301 6.992 27.863 3.975 36.66-7.108l20.447-25.762a62.416 62.416 0 0 0 8.108-13.362z" fill="#eaf6ff"/><path d="m187.241 306.688-6.13 8.722 27.335 15.538c-4.981 9.526-40.315 94.783-47.087 100.68-9.076 10.998-19.221 28.002-32.514 34.396 11.715 4.906 25.475 1.533 33.543-8.633l20.447-25.762a62.416 62.416 0 0 0 8.108-13.362l38.979-87.319z" fill="#c8effe"/></g></g><g><path d="M329.406 273.073V223.98l96.459-9.266a62.457 62.457 0 0 1 15.745.484l31.185 4.944c13.94 2.21 24.204 14.229 24.204 28.344 0 14.15-10.313 26.188-24.296 28.358l-32.5 5.045a62.425 62.425 0 0 1-15.623.445z" fill="#eaf6ff"/><path d="m472.796 220.142-31.185-4.944a62.41 62.41 0 0 0-15.745-.484l-5.471.526c21.468 3.632 55.201 3.216 55.129 33.248.085 30.462-34.666 29.637-56.327 33.324l5.384.524a62.424 62.424 0 0 0 15.623-.445l32.5-5.045c13.983-2.172 24.296-14.21 24.296-28.36 0-14.115-10.264-26.134-24.204-28.344z" fill="#c8effe"/><path d="M167.59 223.98v49.09l-39.83 3.87-55.34 5.39c-5.21.51-10.46.36-15.62-.44l-32.5-5.05A28.673 28.673 0 0 1 0 248.49c0-14.12 10.26-26.14 24.2-28.35l31.19-4.94c5.21-.83 10.5-.99 15.74-.49l56.61 5.44z" fill="#eaf6ff"/><path d="M167.59 223.98v49.09l-39.83 3.87c-2.59-9.04-3.97-18.58-3.97-28.44 0-9.83 1.37-19.34 3.95-28.35z" fill="#c8effe"/><g><path d="m306.727 309.828 24.26-42.68 88.438 39.611a62.434 62.434 0 0 1 13.449 8.202l24.668 19.709c11.027 8.81 14.011 24.331 7.036 36.602-6.992 12.301-21.907 17.67-35.135 12.648l-30.748-11.674a62.457 62.457 0 0 1-13.803-7.333z" fill="#eaf6ff"/><path d="m457.542 334.67-24.668-19.709a62.434 62.434 0 0 0-13.449-8.202l-88.438-39.611-4.391 7.725c28.208 12.38 80.054 34.705 84.802 40.087 16.834 13.801 46.665 30.135 31.702 56.312-3.821 6.766-8.607 10.638-13.959 12.533l.301.114c13.228 5.023 28.143-.346 35.135-12.648 6.976-12.27 3.992-27.791-7.035-36.601z" fill="#c8effe"/><path d="m190.31 187.24-24.26 42.68-36.26-16.18-51.06-22.8a62.228 62.228 0 0 1-13.36-8.11l-25.76-20.44a28.703 28.703 0 0 1-10.86-22.5c0-4.83 1.22-9.71 3.75-14.16 6.98-12.27 21.84-17.65 35.05-12.68l29.55 11.11c4.94 1.85 9.62 4.33 13.93 7.36l51.62 36.28z" fill="#eaf6ff"/><path d="m190.31 187.24-24.26 42.68-36.26-16.18c6.52-18.23 18.02-34.09 32.86-45.94z" fill="#c8effe"/></g></g><circle cx="248.5" cy="248.5" fill="#ffd15b" r="103.23"/><path d="M248.5 145.27c-3.626 0-7.208.189-10.738.554 51.966 5.371 92.492 49.29 92.492 102.676s-40.526 97.305-92.492 102.676c3.53.365 7.112.554 10.738.554 57.013 0 103.23-46.218 103.23-103.23 0-57.013-46.217-103.23-103.23-103.23z" fill="#ffc344"/><g><path d="M249.043 328.238a7.5 7.5 0 0 1-.055-15 65.447 65.447 0 0 0 10.796-.977 7.5 7.5 0 0 1 2.594 14.774 80.627 80.627 0 0 1-13.278 1.203h-.057zm-36.63-9.638a7.474 7.474 0 0 1-3.745-1.007 80.127 80.127 0 0 1-10.955-7.615 7.5 7.5 0 0 1-1.001-10.559 7.497 7.497 0 0 1 10.559-1.001 65.228 65.228 0 0 0 8.9 6.187 7.5 7.5 0 0 1-3.758 13.995zm82.928-7.599a7.48 7.48 0 0 1-5.711-2.635 7.5 7.5 0 0 1 .842-10.573 65.52 65.52 0 0 0 7.637-7.694 7.5 7.5 0 0 1 11.487 9.645 80.505 80.505 0 0 1-9.394 9.464 7.464 7.464 0 0 1-4.861 1.793zm-114.717-30.216a7.5 7.5 0 0 1-7.045-4.929 79.405 79.405 0 0 1-3.506-12.881 7.5 7.5 0 0 1 14.753-2.707 64.38 64.38 0 0 0 2.842 10.443 7.5 7.5 0 0 1-7.044 10.074zm139.126-12.74a7.5 7.5 0 0 1-7.405-8.742c.595-3.544.896-7.178.896-10.803v-.168a7.5 7.5 0 0 1 15 0v.102c0 4.52-.371 8.989-1.103 13.351a7.504 7.504 0 0 1-7.388 6.26zM180.568 231.37a7.5 7.5 0 0 1-7.05-10.06 79.679 79.679 0 0 1 5.593-12.124 7.5 7.5 0 0 1 10.225-2.82 7.499 7.499 0 0 1 2.82 10.225 64.623 64.623 0 0 0-4.537 9.835 7.504 7.504 0 0 1-7.051 4.944zm130.181-12.06a7.497 7.497 0 0 1-6.464-3.686 65.048 65.048 0 0 0-6.271-8.836 7.5 7.5 0 0 1 11.466-9.67 80.229 80.229 0 0 1 7.719 10.876 7.5 7.5 0 0 1-6.45 11.316zm-98.455-25.831a7.5 7.5 0 0 1-3.772-13.988 79.764 79.764 0 0 1 12.058-5.705 7.5 7.5 0 1 1 5.254 14.05 64.657 64.657 0 0 0-9.783 4.629 7.466 7.466 0 0 1-3.757 1.014zm60.319-5.595a7.488 7.488 0 0 1-2.503-.432 64.34 64.34 0 0 0-10.47-2.739 7.5 7.5 0 0 1 2.56-14.78 79.508 79.508 0 0 1 12.916 3.378 7.5 7.5 0 0 1 4.567 9.573 7.504 7.504 0 0 1-7.07 5z" fill="#ffc344"/></g><circle cx="248.5" cy="248.5" fill="#ffc344" r="7.697"/></svg>