<svg height="512" width="512" xmlns="http://www.w3.org/2000/svg"><path d="M266.662 33.116c-4.603 8.988-17.448 8.988-22.052 0a37.194 37.194 0 0 0-33.106-20.24c-20.543 0-37.196 16.653-37.196 37.196v49.523c0 27.786 7.27 55.088 21.087 79.194l27.485 47.954c14.505 25.307 51.007 25.307 65.512 0l27.485-47.954a159.257 159.257 0 0 0 21.087-79.194V50.071c0-20.543-16.653-37.196-37.196-37.196a37.195 37.195 0 0 0-33.106 20.241z" fill="#ffceec"/><path d="M299.768 12.875c-3.732 0-7.375.575-10.839 1.632 15.215 4.665 26.279 18.821 26.279 35.564v49.523c0 27.785-7.27 55.088-21.087 79.194l-27.485 47.954c-5.164 9.011-13.122 14.795-21.878 17.389 15.836 4.691 34.294-1.093 43.634-17.389l27.485-47.954a159.257 159.257 0 0 0 21.087-79.194V50.071c0-20.543-16.653-37.196-37.196-37.196z" fill="#ffbee6"/><path d="M478.285 194.526c-10.054-.948-14.81-12.88-8.165-20.484a37.196 37.196 0 0 0 6.543-38.248c-7.607-19.082-29.243-28.385-48.325-20.779l-46.003 18.338a159.249 159.249 0 0 0-65.756 48.912l-34.368 43.288c-18.137 22.845-4.621 56.753 24.259 60.856l54.722 7.775a159.258 159.258 0 0 0 81.373-9.737l46.003-18.338c19.082-7.607 28.385-29.243 20.779-48.325a37.2 37.2 0 0 0-31.062-23.258z" fill="#ffceec"/><path d="M509.345 217.784a37.195 37.195 0 0 0-31.061-23.258c-10.054-.948-14.81-12.88-8.165-20.484a37.198 37.198 0 0 0 6.543-38.248c-7.224-18.122-27.099-27.412-45.425-21.787 10.405 3.191 19.326 10.891 23.669 21.787a37.198 37.198 0 0 1-6.543 38.248c-6.645 7.604-1.888 19.536 8.165 20.484a37.198 37.198 0 0 1 31.061 23.258c7.607 19.082-1.696 40.718-20.779 48.325l-46.003 18.338a159.243 159.243 0 0 1-48.138 10.931 159.25 159.25 0 0 0 69.894-10.931l46.003-18.338c19.084-7.607 28.386-29.243 20.779-48.325z" fill="#ffbee6"/><path d="m205.531 286.41-31.843 4.522-22.88 3.255a159.286 159.286 0 0 1-81.374-9.745l-45.998-18.337c-19.089-7.603-28.392-29.237-20.779-48.326a37.057 37.057 0 0 1 12.259-15.999 37.083 37.083 0 0 1 18.801-7.252c10.055-.948 14.804-12.877 8.159-20.49a37.179 37.179 0 0 1-9.189-24.477c0-4.636.865-9.313 2.648-13.763 5.81-14.567 19.79-23.437 34.563-23.437 4.584 0 9.241.855 13.763 2.658l46.008 18.337a159.156 159.156 0 0 1 65.756 48.913l14.639 18.44 19.728 24.848c18.131 22.839 4.615 56.753-24.261 60.853z" fill="#ffceec"/><g fill="#ffbee6"><path d="M300.957 262.911c0 36.85-29.865 66.725-66.715 66.725-26.847 0-49.974-15.854-60.554-38.704l31.843-4.522c28.876-4.1 42.392-38.014 24.261-60.853l-19.728-24.848a66.575 66.575 0 0 1 24.178-4.512c36.85 0 66.715 29.875 66.715 66.714z"/><path d="m205.531 286.41-31.843 4.522c-3.956-8.52-6.16-18.008-6.16-28.021 0-28.309 17.637-52.519 42.536-62.202l19.728 24.848c18.131 22.839 4.615 56.753-24.261 60.853z"/><path d="m229.788 225.554-34.368-43.288a159.246 159.246 0 0 0-65.756-48.912l-46.003-18.338a37.032 37.032 0 0 0-24.655-1.01c.971.298 1.939.626 2.899 1.01l46.003 18.338a159.249 159.249 0 0 1 65.756 48.912l34.368 43.288c18.137 22.845 4.621 56.753-24.259 60.856l-54.722 7.775c-3.818.543-7.647.93-11.479 1.194a159.25 159.25 0 0 0 33.235-1.194l54.722-7.775c28.88-4.103 42.396-38.011 24.259-60.856z"/></g><path d="M393.059 454.341c-2.059-9.886 7.94-17.95 17.165-13.844a37.197 37.197 0 0 0 38.476-5.028c15.99-12.896 18.499-36.313 5.602-52.303l-31.089-38.548a159.247 159.247 0 0 0-66.129-48.407l-51.499-20.073c-27.178-10.593-55.592 12.322-50.995 41.127l8.71 54.581a159.251 159.251 0 0 0 33.303 74.882l31.089 38.548c12.896 15.99 36.313 18.499 52.303 5.602a37.192 37.192 0 0 0 13.064-36.537z" fill="#ffceec"/><path d="M396.481 443.01a37.16 37.16 0 0 1-8.012-2.512c-9.225-4.106-19.224 3.958-17.165 13.844a37.195 37.195 0 0 1-25.541 43.155c11.397 3.476 24.259 1.426 34.232-6.617a37.198 37.198 0 0 0 13.064-36.538c-.931-4.471.608-8.564 3.422-11.332z" fill="#ffceec"/><path d="m454.303 383.167-31.089-38.548a159.247 159.247 0 0 0-66.129-48.407l-51.499-20.073c-8.444-3.291-17.006-3.344-24.663-.994.969.294 1.939.617 2.906.994l51.499 20.073a159.264 159.264 0 0 1 66.129 48.407l31.089 38.548c12.896 15.99 10.387 39.408-5.602 52.303a37.136 37.136 0 0 1-12.48 6.597c11.707 3.587 24.554 1.21 34.236-6.597 15.991-12.897 18.498-36.314 5.603-52.303z" fill="#ffbee6"/><path d="m258.534 317.264-1.329 8.314-7.386 46.265a159.226 159.226 0 0 1-33.295 74.884l-31.091 38.549c-12.898 15.988-36.314 18.502-52.302 5.604a37.167 37.167 0 0 1-13.063-36.541c2.06-9.89-7.943-17.946-17.173-13.846a37.098 37.098 0 0 1-15.123 3.214 37.144 37.144 0 0 1-23.344-8.241c-9.117-7.345-13.856-18.111-13.856-28.969 0-8.2 2.699-16.452 8.252-23.334l31.081-38.549a159.417 159.417 0 0 1 66.138-48.408l17.029-6.634 34.47-13.434c27.174-10.589 55.587 12.322 50.992 41.126z" fill="#ffceec"/><path d="m258.534 317.264-1.329 8.314a66.54 66.54 0 0 1-22.963 4.059c-27.372 0-50.891-16.483-61.172-40.064l34.47-13.434c27.176-10.59 55.589 12.321 50.994 41.125z" fill="#ffbee6"/><path d="M210.443 275.144c16.984 5.213 29.5 22.265 26.332 42.121l-8.71 54.581a159.251 159.251 0 0 1-33.303 74.882l-31.089 38.548a37.014 37.014 0 0 1-18.07 12.22c14.095 4.303 30.008-.046 39.827-12.22l31.089-38.548a159.27 159.27 0 0 0 33.303-74.882l8.71-54.581c4.432-27.779-21.836-50.069-48.089-42.121zM238.693 212.805a7.953 7.953 0 0 1-1.102.072 7.721 7.721 0 0 1-7.634-6.645l-1.113-9.838-3.904-34.563c-.598-4.224 2.349-8.138 6.573-8.736s8.128 2.339 8.736 6.562l4.203 37.323.804 7.088c.597 4.224-2.339 8.129-6.563 8.737zM227.45 132.259a7.729 7.729 0 0 1-7.641-6.644l-2.589-18.267a7.726 7.726 0 0 1 6.566-8.734c4.224-.601 8.134 2.341 8.734 6.566l2.589 18.267a7.726 7.726 0 0 1-7.659 8.812zM294.776 107.345l-13.454 99.083a7.694 7.694 0 0 1-3.873 5.656 7.623 7.623 0 0 1-3.77.989c-.361 0-.731-.021-1.092-.072-4.224-.608-7.17-4.512-6.573-8.736v-.021l13.464-99.062c.597-4.224 4.512-7.16 8.736-6.573 4.224.608 7.16 4.512 6.562 8.736zM305.998 235.903a7.727 7.727 0 0 1-3.335-14.7l89.519-42.938a7.726 7.726 0 1 1 6.662 13.943l-89.519 42.938a7.713 7.713 0 0 1-3.327.757zM317.336 270.21a7.728 7.728 0 0 1-7.613-6.458 7.725 7.725 0 0 1 6.352-8.89l96.859-17.86c4.21-.699 8.19 2.143 8.892 6.352s-2.143 8.19-6.352 8.89l-96.859 17.86c-.43.072-.858.106-1.279.106zM377.987 374.18a7.702 7.702 0 0 1-5.368-2.17l-71.997-70.319a7.727 7.727 0 0 1 10.737-11.113l71.997 70.319a7.727 7.727 0 0 1-5.369 13.283zM332.718 411.413a7.738 7.738 0 0 1-3.843 1.03 7.727 7.727 0 0 1-6.706-3.884l-50.778-85.68a7.793 7.793 0 0 1-1.03-3.873c.01-2.668 1.401-5.264 3.874-6.676a7.665 7.665 0 0 1 5.687-.804 7.663 7.663 0 0 1 4.862 3.647l50.788 85.69c2.121 3.699.844 8.418-2.854 10.55zM212.186 231.616c-1.319 2.781-4.09 4.399-6.974 4.399a7.706 7.706 0 0 1-3.327-.752l-22.118-10.642-67.343-32.409c-3.843-1.844-5.481-6.459-3.637-10.302 1.834-3.853 6.449-5.481 10.302-3.647l71.35 34.336 18.111 8.715c3.853 1.844 5.48 6.459 3.636 10.302zM201.483 263.871a7.717 7.717 0 0 1-7.603 6.459c-.422 0-.855-.041-1.288-.113l-24.972-4.636-71.823-13.341a7.724 7.724 0 0 1-6.356-8.89c.701-4.203 4.687-7.046 8.89-6.346l70.567 13.104 26.239 4.873a7.708 7.708 0 0 1 6.346 8.89z" fill="#ffbee6"/><path d="m210.95 300.432-16.256 16.091-56.042 55.486a7.705 7.705 0 0 1-5.367 2.174 7.715 7.715 0 0 1-5.563-2.359c-2.967-3.07-2.874-7.963.185-10.93l55.465-54.909 16.843-16.668a7.73 7.73 0 0 1 10.93.185 7.738 7.738 0 0 1-.195 10.93zM240.187 321.612l-4.749 8.087L189.1 408.56a7.75 7.75 0 0 1-6.706 3.884 7.744 7.744 0 0 1-3.843-1.03c-3.698-2.133-4.976-6.851-2.854-10.549l42.907-73.009 8.19-13.938c2.122-3.709 6.851-4.976 10.549-2.854a7.73 7.73 0 0 1 2.844 10.548z" fill="#ffbee6"/><g fill="#feaee1"><path d="m192.592 270.216-24.972-4.636a66.35 66.35 0 0 1 1.277-15.473l26.239 4.873a7.71 7.71 0 0 1 6.346 8.89 7.717 7.717 0 0 1-7.603 6.459 7.67 7.67 0 0 1-1.287-.113zM211.146 289.501a7.739 7.739 0 0 1-.196 10.93l-16.256 16.091a68.629 68.629 0 0 1-11.322-10.539l16.843-16.668a7.732 7.732 0 0 1 10.931.186zM201.885 235.262l-22.118-10.642a67.157 67.157 0 0 1 10.673-12.022l18.111 8.715c3.853 1.844 5.481 6.459 3.637 10.302-1.319 2.781-4.09 4.399-6.974 4.399a7.694 7.694 0 0 1-3.329-.752zM240.187 321.612l-4.749 8.087a62.102 62.102 0 0 1-16.833-1.844l8.19-13.938c2.122-3.709 6.851-4.976 10.549-2.854a7.732 7.732 0 0 1 2.843 10.549zM245.255 204.069c.598 4.224-2.339 8.128-6.562 8.736a7.953 7.953 0 0 1-1.102.072 7.721 7.721 0 0 1-7.634-6.645l-1.113-9.838a71.66 71.66 0 0 1 5.398-.196c3.472 0 6.882.268 10.209.783z"/></g><circle cx="255.636" cy="262.917" fill="#ffd15b" r="66.717"/><path d="M255.636 196.2a67.22 67.22 0 0 0-10.696.864c31.759 5.12 56.02 32.647 56.02 65.852s-24.261 60.732-56.02 65.852a67.22 67.22 0 0 0 10.696.864c36.846 0 66.717-29.87 66.717-66.717s-29.87-66.715-66.717-66.715z" fill="#ffc344"/><circle cx="255.636" cy="262.917" fill="#ffead9" r="32.757"/><path d="M255.636 230.16c-3.747 0-7.343.638-10.696 1.796 12.836 4.435 22.06 16.617 22.06 30.96 0 14.344-9.223 26.526-22.06 30.96a32.704 32.704 0 0 0 10.696 1.796c18.091 0 32.756-14.666 32.756-32.757s-14.666-32.755-32.756-32.755z" fill="#fedba6"/></svg>