<svg height="512" viewBox="0 0 497.001 497.001" width="512" xmlns="http://www.w3.org/2000/svg"><path d="M350.196 151.939c11.053-4.53 22.093 6.509 17.563 17.562a26.728 26.728 0 0 0 5.832 29.035l9.269 9.269c23.72 23.72 62.177 23.72 85.896 0a96.427 96.427 0 0 0 26.639-85.7l-11.527-62.408A29.769 29.769 0 0 0 460 35.829l-62.408-11.527a96.427 96.427 0 0 0-85.7 26.639c-23.72 23.72-23.72 62.177 0 85.896l9.269 9.269a26.726 26.726 0 0 0 29.035 5.833z" fill="#6fd7a3"/><path d="m495.396 122.106-11.527-62.408A29.771 29.771 0 0 0 460 35.829l-62.408-11.527a96.355 96.355 0 0 0-28.429-.977c2.204.251 4.407.571 6.606.977l62.408 11.527a29.772 29.772 0 0 1 23.869 23.869l11.527 62.408a96.427 96.427 0 0 1-26.639 85.7 60.439 60.439 0 0 1-32.037 16.794c18.946 3.443 39.212-2.147 53.859-16.794a96.425 96.425 0 0 0 26.64-85.7z" fill="#3ec3a4"/><path d="m456.759 122.611-39.359-9.706 28.471-28.471a7.5 7.5 0 0 0-10.606-10.607l-28.471 28.472-9.706-39.359a7.5 7.5 0 0 0-14.564 3.592l11.877 48.161-27.567 27.567-24.891-49.093a7.5 7.5 0 0 0-13.379 6.783l27.126 53.501c-9.333 9.893-35.926 46.602-46.103 83.656a7.5 7.5 0 0 0 14.465 3.973c9.529-34.697 34.552-67.099 43.028-77.357l60.263 22.448a7.497 7.497 0 0 0 2.617.474 7.502 7.502 0 0 0 2.619-14.53l-54.198-20.188 26.625-26.625 48.161 11.877c.603.148 1.207.22 1.802.22a7.504 7.504 0 0 0 1.79-14.788zM360.986 484.349a7.502 7.502 0 0 1-6.817-4.364c-14.706-31.927-27.883-73.675-35.54-106.472a7.5 7.5 0 0 1 14.608-3.41c7.427 31.814 20.273 72.598 34.556 103.607a7.5 7.5 0 0 1-6.807 10.639zM302.253 484.35a7.503 7.503 0 0 1-7.112-5.124l-39.669-105.04a7.5 7.5 0 0 1 14.227-4.756l39.669 105.04a7.5 7.5 0 0 1-7.115 9.88z" fill="#bbf49b"/><path d="M207.544 208.368a39.885 39.885 0 0 0 27.778-31.944l2.823-17.907a234.878 234.878 0 0 1 15.952-55.541l10.451-24.514a41.886 41.886 0 0 0 1.539-28.628c-7.581-24.893-35.788-36.92-58.999-25.157l-35.19 17.834a82.4 82.4 0 0 1-27.208 8.286z" fill="#fc8b96"/><path d="M183.291 297.28a36.866 36.866 0 0 1-8.66 12.25l-46.6 43.46c-5.47 5.1-11.5 9.55-17.95 13.27a98.57 98.57 0 0 1-14.88 7.01l-17.23 6.41c-21.25 7.91-44.88-2.9-52.8-24.14l-22.58-60.66c-7.91-21.24 2.9-44.88 24.15-52.79l17.23-6.42a98.566 98.566 0 0 1 38.1-6.12l41.64 1.56h.13l21.9.83c14.86.56 27.93 10 33.11 23.94l5.18 13.89c.63 1.69 1.13 3.41 1.5 5.14 1.62 7.58.79 15.4-2.24 22.37zM218.461 269.765l5.172-13.89a36.809 36.809 0 0 1 33.115-23.94l63.672-2.391a98.59 98.59 0 0 1 38.098 6.127l17.231 6.416c21.247 7.911 32.058 31.548 24.147 52.795l-22.583 60.652c-7.911 21.247-31.548 32.058-52.795 24.147l-17.231-6.416a98.586 98.586 0 0 1-32.828-20.282l-46.604-43.451a36.807 36.807 0 0 1-9.394-39.767z" fill="#fe646f"/><path d="m375.749 242.086-17.231-6.416a98.59 98.59 0 0 0-38.098-6.127l-9.16.344a98.558 98.558 0 0 1 25.436 5.783l17.231 6.416c21.247 7.911 32.058 31.548 24.147 52.795l-22.583 60.652c-4.778 12.833-15.297 21.849-27.558 25.242 20.307 5.623 41.891-5.127 49.38-25.242l22.583-60.652c7.911-21.247-2.9-44.884-24.147-52.795zM183.291 297.28a36.866 36.866 0 0 1-8.66 12.25l-46.6 43.46c-5.47 5.1-11.5 9.55-17.95 13.27.98-3.33 2.14-6.61 3.48-9.83l24.46-58.84a36.465 36.465 0 0 1 3.883-7.048c1.778-2.523 1.507-5.978-.764-8.068-11.232-10.338-18.269-25.155-18.269-41.623 0-2.31.14-4.58.97-9.74l21.9.83c14.86.56 27.93 10 33.11 23.94l5.18 13.89c.63 1.69 1.13 3.41 1.5 5.14a36.817 36.817 0 0 1-2.24 22.369z" fill="#fd4755"/><path d="M266.087 49.835c-6.726-22.086-29.688-34.029-50.993-28.228 13.343 3.613 24.755 13.733 29.169 28.228 6.701 16.903-5.865 37.904-11.989 53.142a234.982 234.982 0 0 0-15.954 55.54c-1.253 14.058-4.307 28.858-13.111 38.985l4.335 10.867a39.885 39.885 0 0 0 27.778-31.944l2.823-17.907a234.878 234.878 0 0 1 15.952-55.541l10.451-24.514a41.88 41.88 0 0 0 1.539-28.628zM208.655 274.909h-14.822a36.81 36.81 0 0 0-33.99 22.68l-24.458 58.836a98.573 98.573 0 0 0-7.552 37.842v18.386c0 22.672 18.379 41.051 41.051 41.051h64.72c22.672 0 41.051-18.379 41.051-41.051v-18.386a98.6 98.6 0 0 0-7.552-37.842l-24.458-58.836a36.81 36.81 0 0 0-33.99-22.68z" fill="#fe646f"/><path d="m267.103 356.425-24.458-58.836a36.81 36.81 0 0 0-33.99-22.68h-14.822c-1.179 0-2.343.076-3.5.186 13.444 1.282 25.234 9.85 30.49 22.494l24.458 58.836a98.572 98.572 0 0 1 7.552 37.841v18.386c0 22.672-18.379 41.051-41.051 41.051h21.823c22.672 0 41.051-18.379 41.051-41.051v-18.386a98.592 98.592 0 0 0-7.553-37.841z" fill="#fd4755"/><path d="M91.426 62.924 54.529 76.89c-24.337 9.211-34.471 38.152-21.199 60.534a41.88 41.88 0 0 0 22.18 18.165l25.151 8.809a234.838 234.838 0 0 1 51.774 25.666l15.128 9.988a39.886 39.886 0 0 0 61.722-36.602l-1.508-18.065a234.89 234.89 0 0 1 2.314-57.74l4.335-26.294a41.88 41.88 0 0 0-5.3-28.175c-13.273-22.382-43.528-27.371-63.284-10.435L115.89 48.418a82.44 82.44 0 0 1-24.464 14.506z" fill="#fe646f"/><path d="M209.125 33.176c-9.727-16.402-28.571-23.448-45.722-19.386 7.646 2.781 15.571 8.836 23.898 19.387 10.579 14.798 3.219 38.257.967 54.468a234.89 234.89 0 0 0-2.314 57.74l1.507 18.064c2.322 19.901-11.842 36.364-29.22 41.555 10.473 3.093 21.952 1.816 31.641-3.93a39.884 39.884 0 0 0 19.402-37.624l-1.508-18.065a234.89 234.89 0 0 1 2.314-57.74l4.335-26.294a41.88 41.88 0 0 0-5.3-28.175z" fill="#fd4755"/><circle cx="201.244" cy="240.85" fill="#8379c1" r="56.554"/><path d="M201.244 184.296c-3.734 0-7.38.372-10.911 1.062 26.011 5.086 45.643 27.992 45.643 55.492s-19.632 50.406-45.643 55.492a56.763 56.763 0 0 0 10.911 1.062c31.234 0 56.554-25.32 56.554-56.554s-25.32-56.554-56.554-56.554z" fill="#6e61b6"/><path d="m203.743 222.376 1.802-.835c3.402-1.576 7.396.348 8.285 3.99l.471 1.929a5.953 5.953 0 0 0 3.12 3.912l1.776.888c3.353 1.677 4.339 5.999 2.046 8.965l-1.214 1.571a5.95 5.95 0 0 0-1.113 4.878l.413 1.942c.779 3.667-1.985 7.133-5.733 7.189l-1.985.03a5.95 5.95 0 0 0-4.508 2.171l-1.261 1.534c-2.381 2.896-6.814 2.896-9.195 0l-1.261-1.534a5.952 5.952 0 0 0-4.508-2.171l-1.985-.03c-3.749-.056-6.512-3.522-5.733-7.189l.413-1.942a5.956 5.956 0 0 0-1.113-4.878l-1.214-1.571c-2.293-2.966-1.307-7.288 2.046-8.965l1.776-.888a5.953 5.953 0 0 0 3.12-3.912l.471-1.929c.889-3.642 4.883-5.565 8.285-3.99l1.802.835a5.93 5.93 0 0 0 4.997 0z" fill="#c2bce0"/></svg>