<svg height="512" viewBox="0 0 497.003 497.003" width="512" xmlns="http://www.w3.org/2000/svg"><g fill="#9a4588"><path d="m330.107 116.053-39.118-17.207 9.321-45.172a46.892 46.892 0 0 1 17.61-27.902l27.305-20.683c6.773-5.131 16.548-.831 17.343 7.629l3.205 34.104a46.896 46.896 0 0 1-8.667 31.836zM206.017 398.156l-39.118-17.207-26.999 37.397a46.895 46.895 0 0 0-8.667 31.836l3.205 34.104c.795 8.46 10.57 12.759 17.343 7.629l27.305-20.683a46.892 46.892 0 0 0 17.61-27.902z"/><g><path d="m398.039 205.598-17.316-39.07 37.321-27.103a46.894 46.894 0 0 1 31.811-8.756l34.113 3.11c8.462.771 12.789 10.534 7.677 17.321l-20.607 27.362a46.893 46.893 0 0 1-27.853 17.688zM116.282 330.474l-17.316-39.07-45.146 9.447a46.891 46.891 0 0 0-27.853 17.688L5.36 345.902c-5.112 6.787-.785 16.55 7.677 17.321l34.113 3.11a46.889 46.889 0 0 0 31.811-8.756z"/></g></g><g fill="#9a4588"><path d="m115.713 167.454-17.043 39.19-45.211-9.132a46.893 46.893 0 0 1-27.976-17.493L4.686 152.802c-5.159-6.751-.901-16.544 7.556-17.374l34.09-3.348a46.894 46.894 0 0 1 31.872 8.533zM398.335 290.359l-17.043 39.19 37.51 26.841a46.887 46.887 0 0 0 31.872 8.533l34.09-3.348c8.456-.831 12.715-10.623 7.556-17.374l-20.798-27.218a46.896 46.896 0 0 0-27.976-17.493z"/><g><path d="m205.599 98.965-39.07 17.316-27.102-37.321a46.894 46.894 0 0 1-8.756-31.811l3.11-34.113c.771-8.462 10.534-12.789 17.321-7.677l27.362 20.607a46.893 46.893 0 0 1 17.688 27.853zM330.476 380.721l-39.07 17.316 9.447 45.146a46.891 46.891 0 0 0 17.688 27.853l27.362 20.607c6.787 5.112 16.55.785 17.321-7.677l3.11-34.113a46.889 46.889 0 0 0-8.756-31.811z"/></g></g><path d="m201.713 136.099-40.358 27.38-38.015-36.407a53.511 53.511 0 0 1-16.293-33.946l-3.435-38.94c-.852-9.659 9.232-16.501 17.892-12.139l34.912 17.585a53.508 53.508 0 0 1 25.519 27.686zM335.651 333.524l-40.358 27.38 19.778 48.78a53.516 53.516 0 0 0 25.519 27.686l34.912 17.585c8.66 4.362 18.745-2.48 17.892-12.139l-3.435-38.94a53.508 53.508 0 0 0-16.293-33.945z" fill="#ffceec"/><path d="m393.394 442.816-3.435-38.94a53.513 53.513 0 0 0-16.293-33.946l-38.015-36.407-10.542 7.152 30.548 29.255a53.511 53.511 0 0 1 16.293 33.946l3.435 38.94c.362 4.097-1.249 7.683-3.879 10.126l3.996 2.013c8.66 4.361 18.744-2.48 17.892-12.139z" fill="#fec0dd"/><g fill="#ffceec"><path d="m136.1 295.291 27.38 40.358-36.407 38.015a53.511 53.511 0 0 1-33.946 16.293l-38.94 3.435c-9.659.852-16.501-9.232-12.139-17.892l17.585-34.912a53.508 53.508 0 0 1 27.686-25.519zM333.525 161.353l27.38 40.358 48.78-19.778a53.516 53.516 0 0 0 27.686-25.519l17.585-34.912c4.362-8.66-2.48-18.745-12.139-17.892l-38.94 3.435a53.508 53.508 0 0 0-33.945 16.293z"/><path d="m333.525 161.353 27.38 40.358 48.78-19.778a53.516 53.516 0 0 0 27.686-25.519l17.585-34.912c4.362-8.66-2.48-18.745-12.139-17.892l-38.94 3.435a53.508 53.508 0 0 0-33.945 16.293z"/><path d="m333.525 161.353 27.38 40.358 48.78-19.778a53.516 53.516 0 0 0 27.686-25.519l17.585-34.912c4.362-8.66-2.48-18.745-12.139-17.892l-38.94 3.435a53.508 53.508 0 0 0-33.945 16.293z"/></g><path d="m442.817 103.61-11.811 1.042c6.042 2.746 9.283 10.214 5.94 16.85l-17.585 34.912a53.508 53.508 0 0 1-27.686 25.519l-34.656 14.051 3.885 5.727 48.78-19.778a53.512 53.512 0 0 0 27.686-25.519l17.585-34.912c4.363-8.66-2.479-18.745-12.138-17.892z" fill="#fec0dd"/><path d="m243.615 126.847-47.351 11.678-23.023-47.335a53.515 53.515 0 0 1-3.504-37.49l10.288-37.713c2.552-9.355 14.384-12.273 20.992-5.177l26.643 28.605a53.511 53.511 0 0 1 14.329 34.82z" fill="#ffceec"/><path d="M241.99 74.236a53.514 53.514 0 0 0-14.329-34.82l-26.643-28.605c-5.14-5.519-13.438-4.978-18.074-.065.021.022.044.042.065.065l26.643 28.605a53.511 53.511 0 0 1 14.329 34.82l1.626 52.612-31.271 7.712 1.929 3.966 47.351-11.678z" fill="#fec0dd"/><path d="m300.741 358.478-47.351 11.678 1.626 52.612a53.511 53.511 0 0 0 14.329 34.82l26.643 28.605c6.609 7.096 18.441 4.178 20.992-5.177l10.288-37.713a53.516 53.516 0 0 0-3.504-37.49z" fill="#ffceec"/><path d="m323.764 405.812-23.023-47.334-16.08 3.966 21.094 43.369a53.515 53.515 0 0 1 3.504 37.49l-10.288 37.713a12.29 12.29 0 0 1-2.919 5.242c6.621 7.01 18.384 4.083 20.928-5.242l10.288-37.713a53.517 53.517 0 0 0-3.504-37.491z" fill="#fec0dd"/><path d="m126.848 253.388 11.678 47.351-47.335 23.023a53.515 53.515 0 0 1-37.49 3.504l-37.713-10.288c-9.355-2.552-12.273-14.384-5.177-20.992l28.605-26.643a53.511 53.511 0 0 1 34.82-14.329zM358.479 196.263l11.678 47.351 52.612-1.626a53.511 53.511 0 0 0 34.82-14.329l28.605-26.643c7.096-6.609 4.178-18.441-5.177-20.992l-37.713-10.288a53.516 53.516 0 0 0-37.49 3.504z" fill="#ffceec"/><path d="m481.016 180.023-37.713-10.288a53.5 53.5 0 0 0-23.073-1.114c1.698.291 3.389.657 5.064 1.114l37.713 10.288c9.355 2.552 12.273 14.384 5.177 20.993l-28.605 26.643a53.511 53.511 0 0 1-34.82 14.329l-34.739 1.073.136.552 52.612-1.626a53.514 53.514 0 0 0 34.82-14.329l28.605-26.643c7.096-6.608 4.178-18.44-5.177-20.992z" fill="#fec0dd"/><g><path d="m138.173 197.012-11.355 47.429-52.621-1.268a53.514 53.514 0 0 1-34.917-14.092l-28.785-26.448c-7.14-6.561-4.303-18.412 5.034-21.027l37.642-10.544a53.513 53.513 0 0 1 37.513 3.249zM370.187 252.561l-11.355 47.429 47.49 22.701a53.513 53.513 0 0 0 37.513 3.249l37.642-10.544c9.337-2.615 12.175-14.467 5.034-21.027l-28.785-26.448a53.512 53.512 0 0 0-34.917-14.092z" fill="#ffceec"/><path d="m486.511 294.368-28.786-26.448a53.512 53.512 0 0 0-34.917-14.092l-52.621-1.268-.103.431 34.716.836a53.514 53.514 0 0 1 34.917 14.092l28.785 26.448c7.14 6.561 4.303 18.412-5.034 21.027l-37.642 10.544c-1.799.504-3.617.9-5.444 1.211a53.514 53.514 0 0 0 23.453-1.211l37.642-10.544c9.337-2.614 12.174-14.465 5.034-21.026z" fill="#fec0dd"/><g><path d="m197.014 358.83 47.429 11.355-1.268 52.621a53.514 53.514 0 0 1-14.092 34.917l-26.448 28.785c-6.561 7.14-18.412 4.303-21.027-5.034l-10.544-37.642a53.513 53.513 0 0 1 3.249-37.513z" fill="#ffceec"/><path d="m197.014 358.83-1.849 3.869 31.27 7.487-1.268 52.621a53.514 53.514 0 0 1-14.092 34.917l-26.448 28.786c-.041.044-.084.083-.125.127 4.658 4.94 13.01 5.45 18.134-.127l26.448-28.786a53.512 53.512 0 0 0 14.092-34.917l1.268-52.621z" fill="#fec0dd"/><path d="m252.562 126.817 47.429 11.355 22.701-47.49a53.513 53.513 0 0 0 3.249-37.513l-10.544-37.642c-2.615-9.337-14.467-12.175-21.027-5.034l-26.448 28.785a53.512 53.512 0 0 0-14.092 34.917z" fill="#ffceec"/><path d="m325.941 53.169-10.544-37.642c-2.599-9.28-14.318-12.135-20.902-5.161a12.306 12.306 0 0 1 2.893 5.161l10.544 37.642a53.513 53.513 0 0 1-3.249 37.513l-20.851 43.621 16.16 3.869 22.701-47.49a53.518 53.518 0 0 0 3.248-37.513z" fill="#fec0dd"/></g><g><path d="m162.889 161.933-27.105 40.544-48.913-19.445a53.514 53.514 0 0 1-27.859-25.331L41.19 122.909c-4.421-8.63 2.352-18.761 12.017-17.975l38.962 3.17a53.517 53.517 0 0 1 34.056 16.062zM361.221 294.525l-27.105 40.544 36.665 37.767a53.514 53.514 0 0 0 34.056 16.062l38.962 3.17c9.665.786 16.438-9.344 12.017-17.975l-17.822-34.792a53.514 53.514 0 0 0-27.859-25.331z" fill="#ffceec"/><path d="m455.815 374.093-17.822-34.792a53.514 53.514 0 0 0-27.859-25.331l-48.913-19.445-3.781 5.656 34.686 13.789a53.514 53.514 0 0 1 27.859 25.331l17.822 34.792c3.43 6.696.12 14.292-6.05 16.995l12.042.98c9.664.786 16.436-9.345 12.016-17.975z" fill="#fec0dd"/><g><path d="m161.935 334.114 40.544 27.105-19.445 48.913a53.514 53.514 0 0 1-25.331 27.859l-34.792 17.822c-8.63 4.421-18.761-2.352-17.975-12.017l3.17-38.962a53.517 53.517 0 0 1 16.062-34.056zM294.527 135.783l40.544 27.105 37.767-36.665A53.514 53.514 0 0 0 388.9 92.167l3.17-38.962c.786-9.665-9.344-16.437-17.975-12.017L339.303 59.01a53.514 53.514 0 0 0-25.331 27.859z" fill="#ffceec"/><path d="m374.094 41.189-3.897 1.996c2.597 2.424 4.193 5.965 3.863 10.021l-3.17 38.962a53.517 53.517 0 0 1-16.062 34.056l-30.422 29.535 10.665 7.13 37.767-36.665A53.514 53.514 0 0 0 388.9 92.168l3.17-38.962c.786-9.665-9.345-16.438-17.976-12.017z" fill="#fec0dd"/></g></g></g><g><path d="M272.887 129.216h-48.77l-11.019-51.47a53.514 53.514 0 0 1 5.575-37.238l19.019-34.152c4.718-8.472 16.904-8.472 21.621 0l19.019 34.152a53.515 53.515 0 0 1 5.575 37.238z" fill="#d691c6"/><path d="M278.332 40.507 259.313 6.355c-4.718-8.472-16.904-8.472-21.621 0l-.282.506 18.737 33.647a53.515 53.515 0 0 1 5.575 37.238l-11.019 51.47h22.185l11.019-51.47a53.517 53.517 0 0 0-5.575-37.239z" fill="#cd7cbb"/><path d="M272.887 367.787h-48.77l-11.019 51.47a53.514 53.514 0 0 0 5.575 37.238l19.019 34.152c4.718 8.472 16.904 8.472 21.621 0l19.019-34.152a53.515 53.515 0 0 0 5.575-37.238z" fill="#d691c6"/><path d="m283.907 419.257-11.019-51.47h-22.185l11.019 51.47a53.514 53.514 0 0 1-5.575 37.238l-18.737 33.647.282.506c4.718 8.472 16.904 8.472 21.621 0l19.019-34.152a53.518 53.518 0 0 0 5.575-37.239z" fill="#cd7cbb"/><g><path d="M129.213 224.121v48.76l-14.77 3.16-36.7 7.86a53.448 53.448 0 0 1-37.23-5.57l-34.16-19.02c-8.47-4.72-8.47-16.9 0-21.62l34.16-19.02a53.448 53.448 0 0 1 37.23-5.57l36.7 7.86z" fill="#d691c6"/><path d="M129.213 224.121v48.76l-14.77 3.16c-.92-.44-1.83-.9-2.72-1.4l-29.92-16.67c-7.43-4.13-7.43-14.81 0-18.94l29.92-16.67c.89-.5 1.8-.96 2.72-1.4z" fill="#cd7cbb"/><path d="M367.788 224.116v48.77l51.47 11.019a53.514 53.514 0 0 0 37.238-5.575l34.152-19.019c8.472-4.718 8.472-16.904 0-21.621l-34.152-19.019a53.515 53.515 0 0 0-37.238-5.575z" fill="#d691c6"/><path d="m490.649 237.69-34.152-19.019a53.51 53.51 0 0 0-37.152-5.591 53.467 53.467 0 0 1 14.967 5.591l34.152 19.019c8.472 4.718 8.472 16.904 0 21.622l-34.152 19.019a53.467 53.467 0 0 1-14.967 5.591 53.51 53.51 0 0 0 37.152-5.591l34.152-19.019c8.471-4.718 8.471-16.904 0-21.622z" fill="#cd7cbb"/></g></g><g><path d="m181.398 146.911-34.485 34.485-44.187-28.603a53.513 53.513 0 0 1-22.389-30.273L69.635 84.922c-2.654-9.326 5.962-17.943 15.289-15.289l37.598 10.701a53.51 53.51 0 0 1 30.273 22.389z" fill="#d691c6"/><path d="M152.794 102.724a53.513 53.513 0 0 0-30.273-22.389L84.924 69.634c-4.543-1.293-8.913.093-11.899 2.928l27.311 7.774a53.51 53.51 0 0 1 30.273 22.389l28.603 44.187-25.768 25.768 13.467 8.718 34.485-34.485z" fill="#cd7cbb"/><path d="m350.093 315.606-34.485 34.485 28.603 44.187a53.513 53.513 0 0 0 30.273 22.389l37.598 10.701c9.326 2.654 17.943-5.962 15.289-15.289l-10.701-37.598a53.51 53.51 0 0 0-22.389-30.273z" fill="#d691c6"/><path d="m427.37 412.08-10.701-37.597a53.51 53.51 0 0 0-22.389-30.273l-44.187-28.603-8.718 8.718 30.72 19.886a53.513 53.513 0 0 1 22.389 30.273l10.701 37.597c1.362 4.783-.246 9.376-3.39 12.361l10.286 2.928c9.327 2.653 17.944-5.964 15.289-15.29z" fill="#cd7cbb"/><g><path d="m146.912 315.606 34.485 34.485-28.603 44.187a53.513 53.513 0 0 1-30.273 22.389l-37.598 10.701c-9.326 2.654-17.943-5.962-15.289-15.289l10.701-37.598a53.51 53.51 0 0 1 22.389-30.273z" fill="#d691c6"/><path d="m146.912 315.606-13.467 8.718 25.768 25.768-28.603 44.187a53.513 53.513 0 0 1-30.273 22.389l-27.311 7.774c2.986 2.835 7.356 4.221 11.899 2.928l37.598-10.701a53.51 53.51 0 0 0 30.273-22.389l28.603-44.187z" fill="#cd7cbb"/><path d="m315.607 146.911 34.485 34.485 44.187-28.603a53.513 53.513 0 0 0 22.389-30.273l10.701-37.598c2.654-9.326-5.962-17.943-15.289-15.289l-37.598 10.701a53.51 53.51 0 0 0-30.273 22.389z" fill="#d691c6"/><path d="m412.081 69.634-10.286 2.928c3.144 2.985 4.751 7.578 3.39 12.361l-10.701 37.597a53.51 53.51 0 0 1-22.389 30.273l-30.72 19.886 8.718 8.718 44.187-28.603a53.513 53.513 0 0 0 22.389-30.273l10.701-37.597c2.655-9.328-5.962-17.945-15.289-15.29z" fill="#cd7cbb"/></g></g><g><path d="m239.595 165.095-47.344 21.183-33.053-45.179a56.907 56.907 0 0 1-10.762-38.571l3.629-41.414c.9-10.273 12.73-15.566 20.989-9.391l33.296 24.893a56.91 56.91 0 0 1 21.586 33.728z" fill="#c365af"/><path d="M227.936 110.344a56.91 56.91 0 0 0-21.586-33.728l-33.296-24.893c-6.176-4.618-14.348-2.821-18.454 2.674l29.719 22.219a56.913 56.913 0 0 1 21.586 33.728l10.049 47.193a9.557 9.557 0 0 1-5.445 10.715l-23.691 10.6 5.433 7.427 47.344-21.183z" fill="#b2529f"/><path d="m304.753 310.725-47.344 21.183 11.659 54.751a56.913 56.913 0 0 0 21.586 33.728l33.296 24.893c8.259 6.175 20.089.882 20.989-9.391l3.629-41.414a56.913 56.913 0 0 0-10.762-38.571z" fill="#c365af"/><path d="m337.806 355.904-33.053-45.179-16.598 7.427 27.62 37.753a56.907 56.907 0 0 1 10.762 38.571l-3.629 41.414c-.227 2.591-1.15 4.864-2.535 6.717l3.577 2.674c8.259 6.175 20.089.882 20.989-9.391l3.629-41.414a56.91 56.91 0 0 0-10.762-38.572z" fill="#b2529f"/><g><path d="m186.283 304.751-45.18 33.05a56.9 56.9 0 0 1-38.57 10.77l-3.72-.33-37.7-3.3c-10.27-.9-15.56-12.73-9.39-20.99l24.89-33.3a56.945 56.945 0 0 1 33.73-21.58l54.75-11.66 4.1 9.17zM310.726 192.25l21.183 47.344 54.751-11.659a56.913 56.913 0 0 0 33.728-21.586l24.893-33.296c6.175-8.259.882-20.089-9.391-20.989l-41.414-3.629a56.913 56.913 0 0 0-38.571 10.762z" fill="#c365af"/><path d="m435.89 152.064-41.414-3.629a56.845 56.845 0 0 0-14.743.639l34.126 2.99c10.273.9 15.566 12.73 9.391 20.989l-24.893 33.296a56.91 56.91 0 0 1-33.728 21.586l-34.636 7.375 1.916 4.283 54.751-11.659a56.913 56.913 0 0 0 33.728-21.586l24.893-33.296c6.175-8.258.882-20.088-9.391-20.988z" fill="#b2529f"/></g></g><g><path d="m304.252 185.828-47.512-20.802 11.219-54.843a56.909 56.909 0 0 1 21.314-33.9l33.095-25.16c8.209-6.241 20.081-1.043 21.064 9.222l3.961 41.384a56.91 56.91 0 0 1-10.452 38.656z" fill="#c365af"/><path d="m347.393 101.729-3.961-41.384c-.983-10.266-12.855-15.463-21.064-9.222l-3.472 2.639c1.353 1.822 2.262 4.047 2.505 6.583l3.961 41.384a56.91 56.91 0 0 1-10.452 38.656l-27.412 38.108 16.755 7.335 32.689-45.443a56.926 56.926 0 0 0 10.451-38.656z" fill="#b2529f"/><path d="m240.265 331.976-47.512-20.802-32.689 45.443a56.91 56.91 0 0 0-10.452 38.656l3.961 41.384c.983 10.265 12.855 15.463 21.064 9.222l33.095-25.16a56.909 56.909 0 0 0 21.314-33.9z" fill="#c365af"/><path d="m192.753 311.175-5.277 7.335 23.873 10.452a9.296 9.296 0 0 1 5.379 10.378l-9.712 47.48a56.909 56.909 0 0 1-21.314 33.9l-29.623 22.52c4.122 5.551 12.378 7.339 18.559 2.639l33.095-25.16a56.909 56.909 0 0 0 21.314-33.9l11.219-54.843z" fill="#b2529f"/><g><path d="m185.833 192.751-16.53 37.74-4.28 9.77-54.84-11.22a56.886 56.886 0 0 1-33.9-21.31l-25.16-33.09c-6.24-8.21-1.04-20.09 9.22-21.07l38.79-3.71 2.6-.25a56.928 56.928 0 0 1 38.65 10.45zM331.978 256.738l-20.802 47.512 45.443 32.689a56.91 56.91 0 0 0 38.656 10.452l41.384-3.961c10.265-.983 15.463-12.855 9.222-21.064l-25.16-33.095a56.909 56.909 0 0 0-33.9-21.314z" fill="#c365af"/><path d="m445.881 322.366-25.16-33.095a56.909 56.909 0 0 0-33.9-21.314l-54.843-11.219-1.811 4.136 34.623 7.082a56.909 56.909 0 0 1 33.9 21.314l25.16 33.095c6.241 8.209 1.043 20.081-9.222 21.064l-34.788 3.33a56.865 56.865 0 0 0 15.435.631l41.384-3.961c10.265-.981 15.463-12.853 9.222-21.063z" fill="#b2529f"/></g></g><g><path d="m235.073 198.401-.51.51-36.16 36.16-17.12-11.08-29.87-19.34a56.913 56.913 0 0 1-23.82-32.19l-11.38-39.99c-2.82-9.92 6.34-19.08 16.26-16.26l39.99 11.38a56.913 56.913 0 0 1 32.19 23.82z" fill="#b2529f"/><path d="m234.562 198.911-36.16 36.16-17.12-11.08c8.61-15.46 25.13-25.92 44.08-25.92 3.141 0 6.221.29 9.2.84z" fill="#9a4588"/><path d="M204.656 151.407a56.91 56.91 0 0 0-32.196-23.811l-39.985-11.381c-4.779-1.36-9.378.067-12.55 3.016l29.39 8.365a56.912 56.912 0 0 1 32.195 23.811l26.535 40.991a8.843 8.843 0 0 1-1.17 11.057L184.35 225.98l14.05 9.095 36.675-36.675z" fill="#9a4588"/><path d="m298.605 261.928-36.675 36.675 30.419 46.993a56.916 56.916 0 0 0 32.195 23.811l39.985 11.381c9.918 2.823 19.082-6.341 16.259-16.259l-11.381-39.985a56.91 56.91 0 0 0-23.811-32.195z" fill="#b2529f"/><path d="m380.789 364.528-11.381-39.985a56.91 56.91 0 0 0-23.811-32.195l-46.992-30.42-9.095 9.095 32.943 21.325a56.912 56.912 0 0 1 23.811 32.195l11.381 39.985c1.463 5.14-.298 10.073-3.71 13.244l10.595 3.016c9.918 2.823 19.082-6.341 16.259-16.26z" fill="#9a4588"/><g><path d="m298.605 235.074-36.675-36.675 30.419-46.992a56.916 56.916 0 0 1 32.195-23.811l39.985-11.381c9.918-2.823 19.082 6.341 16.259 16.259l-11.381 39.985a56.91 56.91 0 0 1-23.811 32.195z" fill="#b2529f"/><path d="m364.529 116.215-10.595 3.016c3.412 3.171 5.172 8.104 3.71 13.244l-11.381 39.985a56.91 56.91 0 0 1-23.811 32.195l-32.943 21.325 9.095 9.095 46.992-30.42a56.912 56.912 0 0 0 23.811-32.195l11.381-39.985c2.824-9.919-6.34-19.083-16.259-16.26z" fill="#9a4588"/><path d="m235.073 298.601-30.42 46.99a56.913 56.913 0 0 1-32.19 23.82l-39.99 11.38c-9.92 2.82-19.08-6.34-16.26-16.26l11.38-39.99a56.913 56.913 0 0 1 23.82-32.19l29.87-19.34 17.12-11.08 36.16 36.16z" fill="#b2529f"/><g fill="#9a4588"><path d="M234.562 298.091c-2.98.55-6.06.84-9.2.84-18.95 0-35.47-10.46-44.08-25.92l17.12-11.08z"/><path d="m198.4 261.928-14.05 9.095 21.718 21.718a10.253 10.253 0 0 1 1.357 12.822l-25.915 40.033a56.912 56.912 0 0 1-32.195 23.811l-29.39 8.365c3.172 2.949 7.771 4.376 12.55 3.016l39.985-11.381a56.912 56.912 0 0 0 32.195-23.811l30.42-46.993z"/></g></g></g><g><path d="M269.87 211.488h-42.735l-9.656-45.102a46.892 46.892 0 0 1 4.885-32.631l16.665-29.927c4.134-7.423 14.812-7.423 18.946 0l16.665 29.927a46.892 46.892 0 0 1 4.885 32.631z" fill="#b2529f"/><path d="m274.641 133.755-16.665-29.927c-4.134-7.423-14.812-7.423-18.946 0l-2.099 3.77 14.566 26.157a46.892 46.892 0 0 1 4.885 32.631l-9.656 45.102h23.145l9.656-45.102a46.898 46.898 0 0 0-4.886-32.631z" fill="#9a4588"/><path d="M269.87 285.515h-42.735l-9.656 45.102a46.893 46.893 0 0 0 4.885 32.631l16.665 29.927c4.134 7.423 14.812 7.423 18.946 0l16.665-29.927a46.892 46.892 0 0 0 4.885-32.631z" fill="#b2529f"/><path d="m279.526 330.617-9.656-45.102h-23.145l9.656 45.102a46.892 46.892 0 0 1-4.885 32.631l-14.566 26.157 2.099 3.77c4.134 7.423 14.812 7.423 18.946 0l16.665-29.927a46.888 46.888 0 0 0 4.886-32.631z" fill="#9a4588"/><g><path d="M285.516 269.869v-42.735l45.102-9.656a46.893 46.893 0 0 1 32.631 4.885l29.927 16.665c7.423 4.134 7.423 14.812 0 18.946l-29.927 16.665a46.892 46.892 0 0 1-32.631 4.885z" fill="#b2529f"/><path d="m393.175 239.028-29.927-16.665a46.898 46.898 0 0 0-32.631-4.885l-1.849.396a46.851 46.851 0 0 1 11.334 4.489l29.927 16.665c7.424 4.134 7.424 14.812 0 18.946l-29.927 16.665a46.867 46.867 0 0 1-11.334 4.489l1.849.396a46.892 46.892 0 0 0 32.631-4.885l29.927-16.665c7.424-4.134 7.424-14.812 0-18.946z" fill="#9a4588"/><path d="M211.492 227.131v42.74l-28.43 6.08-16.68 3.57c-11.11 2.38-22.7.65-32.63-4.88l-29.92-16.67c-7.43-4.13-7.43-14.81 0-18.94l29.92-16.67a46.869 46.869 0 0 1 32.63-4.88l16.68 3.57z" fill="#b2529f"/><path d="M211.492 227.131v42.74l-28.43 6.08c-5.14-7.9-8.13-17.33-8.13-27.45s2.99-19.55 8.13-27.45z" fill="#9a4588"/></g></g><circle cx="248.503" cy="248.501" fill="#fea95c" r="50.426"/><path d="M248.503 198.075c-3.984 0-7.855.476-11.572 1.35 22.269 5.232 38.854 25.211 38.854 49.076s-16.585 43.844-38.854 49.076a50.494 50.494 0 0 0 11.572 1.35c27.85 0 50.426-22.576 50.426-50.426s-22.577-50.426-50.426-50.426z" fill="#fe9738"/></svg>