<svg height="512" viewBox="0 0 497 497" width="512" xmlns="http://www.w3.org/2000/svg"><path d="M355.619 150.351v-43.376l87.996 12.033c11.234 1.536 11.234 17.775 0 19.311z" fill="#ffceec"/><path d="m443.615 119.007-87.996-12.032v2.446l70.111 9.587c11.234 1.536 11.234 17.775 0 19.311l-70.111 9.587v2.446l87.996-12.033c11.233-1.537 11.233-17.776 0-19.312z" fill="#ffbee6"/><path d="M301.992 96.421h43.376L333.335 8.425c-1.536-11.234-17.775-11.234-19.311 0z" fill="#ffceec"/><path d="M333.335 8.425c-1.536-11.234-17.775-11.234-19.311 0l-1.053 7.698c2.244 1.361 3.969 3.684 4.421 6.985l10.091 73.312h17.885z" fill="#ffbee6"/><path d="M345.091 160.873h-43.376l12.033 87.996c1.536 11.234 17.775 11.234 19.311 0z" fill="#ffceec"/><path d="m327.206 160.873-9.682 72.324c-.485 3.545-2.435 5.969-4.924 7.276l1.148 8.395c1.536 11.234 17.775 11.234 19.311 0l12.033-87.996h-17.886z" fill="#ffbee6"/><path d="M291.159 107.25v43.37l-22.74-3.11-65.25-8.92c-11.24-1.54-11.24-17.78 0-19.31l65.55-8.96z" fill="#ffceec"/><path d="M291.159 107.25v43.37l-22.74-3.11c-4.23-2.65-6.59-7.29-6.59-12.02 0-3.39 1.21-6.83 3.82-9.62 2.47-2.66 3.8-6.12 3.8-9.67 0-1.06-.12-2.13-.36-3.19-.21-.91-.33-1.81-.37-2.69z" fill="#ffbee6"/><path d="M272.903 380.502c-5.71-6.751-15.811-7.594-22.561-1.885l-45.855 38.786v-52.655a119.95 119.95 0 0 1 14.236-56.579l44.501-82.831-28.204-15.152-44.501 82.831c-6.502 12.103-11.306 25.064-14.319 38.433l-61.797-96.962-27.008 17.194 81.011 127.109c2.654 4.164 4.064 9 4.064 13.938v97.247a7.02 7.02 0 0 0 7.019 7.02h17.977a7.02 7.02 0 0 0 7.02-7.02v-22.415a17.736 17.736 0 0 1 6.282-13.541l60.25-50.96c6.751-5.707 7.595-15.808 1.885-22.558z" fill="#ffceec"/><path d="m245.339 225.339-44.501 82.831a119.938 119.938 0 0 0-14.236 56.579l-.061 61.791c-.002 1.656 1.879 2.612 3.216 1.634l14.73-10.771v-52.655a119.95 119.95 0 0 1 14.236-56.579l44.501-82.831-28.204-15.152-4.006 7.456zM273.137 380.785c-5.293-6.55-14.622-7.802-21.406-3.214 2.328 1.569 4.343 3.756 5.653 6.734 2.919 6.636.872 14.425-4.663 19.107l-59.837 50.611a17.736 17.736 0 0 0-6.282 13.541v20.159a9.604 9.604 0 0 1-7.112 9.275h17.977a7.02 7.02 0 0 0 7.02-7.02v-22.415a17.736 17.736 0 0 1 6.282-13.541l59.903-50.667c6.7-5.666 7.981-15.745 2.465-22.57z" fill="#ffbee6"/><path d="M176.2 331.451c.104-.265.177-.596.234-.961-.075.322-.162.64-.234.961z" fill="#ffceec"/><path d="M172.308 348.525c.992-5.803 1.657-11.409 3.891-17.073l-61.797-96.962-12.776 8.134L168.6 349.257c.987 1.569 3.396 1.095 3.708-.732z" fill="#ffbee6"/><path d="m355.604 130.088-33.667-33.667 47.937-58.752a82.91 82.91 0 0 1 48.387-28.966l12.818-2.497c8.751-1.705 16.446 5.99 14.741 14.741l-2.497 12.818a82.91 82.91 0 0 1-28.966 48.387z" fill="#8ac9fe"/><path d="m431.078 6.205-8.779 1.71c4.151 2.634 6.688 7.627 5.635 13.031l-2.497 12.818a82.91 82.91 0 0 1-28.966 48.387l-48.903 39.901 8.036 8.036 58.752-47.937a82.91 82.91 0 0 0 28.966-48.387l2.497-12.818c1.705-8.751-5.99-16.446-14.741-14.741z" fill="#60b7ff"/><path d="m324.826 160.866-33.667-33.667-58.752 47.937a82.91 82.91 0 0 0-28.966 48.387l-2.497 12.818c-1.705 8.751 5.99 16.446 14.741 14.741l12.818-2.497a82.91 82.91 0 0 0 48.387-28.966z" fill="#8ac9fe"/><path d="m291.159 127.198-9.849 8.036 25.632 25.631-47.937 58.752a82.91 82.91 0 0 1-48.387 28.966l-4.039.787a12.422 12.422 0 0 0 9.106 1.71l12.818-2.497a82.91 82.91 0 0 0 48.387-28.966l47.937-58.752z" fill="#60b7ff"/><g><path d="m321.937 160.866 33.667-33.667 58.752 47.937a82.91 82.91 0 0 1 28.966 48.387l2.497 12.818c1.705 8.751-5.99 16.446-14.741 14.741l-12.818-2.497a82.91 82.91 0 0 1-48.387-28.966z" fill="#8ac9fe"/><path d="m445.82 236.34-2.497-12.818a82.91 82.91 0 0 0-28.966-48.387l-58.752-47.937-8.036 8.036 48.903 39.901a82.91 82.91 0 0 1 28.966 48.387l2.497 12.818c1.053 5.404-1.484 10.397-5.635 13.031l8.779 1.71c8.75 1.705 16.445-5.99 14.741-14.741z" fill="#60b7ff"/><path d="m291.159 130.088 33.667-33.667-47.936-58.753a82.91 82.91 0 0 0-48.387-28.966l-12.818-2.497c-8.751-1.705-16.446 5.99-14.741 14.741l2.497 12.818a82.91 82.91 0 0 0 28.966 48.387z" fill="#8ac9fe"/><path d="M276.89 37.668a82.91 82.91 0 0 0-48.387-28.966l-12.818-2.497a12.427 12.427 0 0 0-9.106 1.71l4.039.787a82.91 82.91 0 0 1 48.387 28.966l47.937 58.752-25.632 25.631 9.849 8.036 33.667-33.667z" fill="#60b7ff"/></g><g><path d="M324.903 497h-17.977a7.02 7.02 0 0 1-7.019-7.02v-20.193a62.142 62.142 0 0 1 16.185-41.874l30.155-32.631 23.693 21.534-30.155 32.63a30.183 30.183 0 0 0-7.862 20.341v20.193a7.02 7.02 0 0 1-7.02 7.02z" fill="#ffceec"/></g><path d="m346.246 395.282-8.164 8.835 7.522 6.837a8.644 8.644 0 0 1 .535 12.264L321.9 449.446a30.183 30.183 0 0 0-7.862 20.341v19.668a7.782 7.782 0 0 1-5.868 7.543l16.732.002a7.02 7.02 0 0 0 7.02-7.02v-20.193a30.19 30.19 0 0 1 7.862-20.341l30.155-32.63z" fill="#ffbee6"/><path d="M353.229 108.206c10.017 3.059 13.365 15.555 6.22 23.213a14.163 14.163 0 0 0-3.444 12.855c2.359 10.204-6.789 19.352-16.993 16.993a14.17 14.17 0 0 0-12.855 3.444c-7.658 7.145-20.153 3.797-23.213-6.22a14.164 14.164 0 0 0-9.41-9.41c-10.017-3.059-13.365-15.555-6.22-23.213a14.163 14.163 0 0 0 3.444-12.855c-2.359-10.204 6.789-19.352 16.993-16.993a14.17 14.17 0 0 0 12.855-3.444c7.658-7.145 20.153-3.797 23.213 6.22a14.164 14.164 0 0 0 9.41 9.41z" fill="#c365af"/><path d="M353.229 108.206a14.164 14.164 0 0 1-9.41-9.41c-3.059-10.017-15.555-13.365-23.213-6.22-.412.384-.846.738-1.295 1.066a14.123 14.123 0 0 1 2.84 5.154 14.166 14.166 0 0 0 9.41 9.41c10.017 3.06 13.365 15.555 6.22 23.213a14.163 14.163 0 0 0-3.444 12.855c2.359 10.204-6.789 19.352-16.993 16.993a14.163 14.163 0 0 0-11.56 2.378c5.006 5.775 14.239 6.789 20.372 1.066a14.163 14.163 0 0 1 12.855-3.444c10.204 2.359 19.352-6.789 16.993-16.993a14.17 14.17 0 0 1 3.444-12.855c7.146-7.658 3.797-20.153-6.219-23.213z" fill="#b2529f"/><g><path d="m119.019 255.81-14.99 9.46c-6.85 4.33-15.18 4.43-21.91.99a21.952 21.952 0 0 1-8.65-7.9l-8.3-13.15-10.86-17.2a60.59 60.59 0 0 1-7.7-46.37l1.97-8.3c1.2-5.05 6.21-8.22 11.29-7.13l8.35 1.78a60.62 60.62 0 0 1 34.17 20.83c1.57 1.92 3.04 3.95 4.38 6.08l4.54 7.19 14.62 23.16c6.53 10.34 3.44 24.03-6.91 30.56z" fill="#c365af"/></g><path d="m125.931 225.246-19.159-30.349a60.583 60.583 0 0 0-38.553-26.902l-8.35-1.788a9.528 9.528 0 0 0-8.218 2.104 60.57 60.57 0 0 1 37.236 26.586l19.159 30.349c6.532 10.347 3.439 24.03-6.907 30.562l-14.989 9.463a22.122 22.122 0 0 1-2.915 1.522c6.523 2.882 14.316 2.571 20.8-1.522l14.989-9.463c10.346-6.533 13.439-20.216 6.907-30.562z" fill="#b2529f"/><g><path d="m413.839 386.84-12.96 15.66-9.92 11.99a21.991 21.991 0 0 1-8.75 6.42c-7.3 2.95-15.95 1.9-22.45-3.47l-13.65-11.31c-9.43-7.8-10.75-21.76-2.95-31.19l18.2-21.99 4.69-5.66c1.6-1.93 3.31-3.76 5.12-5.47a60.58 60.58 0 0 1 36.55-16.28l8.51-.71c5.18-.42 9.75 3.36 10.29 8.52l.9 8.49a60.6 60.6 0 0 1-13.58 45z" fill="#c365af"/></g><path d="m427.415 341.836-.894-8.484a9.551 9.551 0 0 0-10.287-8.517l-8.51.705a60.639 60.639 0 0 0-3.939.472 9.539 9.539 0 0 1 4.85 7.34l.894 8.484a60.582 60.582 0 0 1-13.575 45.008l-22.883 27.649a22.04 22.04 0 0 1-8.129 6.126c8.844 3.911 19.545 1.691 26.014-6.126l22.883-27.649a60.58 60.58 0 0 0 13.576-45.008z" fill="#b2529f"/><g><path d="M106.769 194.9a60.558 60.558 0 0 0-4.38-6.08l-.09.06c-1.6 1.18-34.12 25.71-37.13 56.33l8.3 13.15c2.2 3.49 5.22 6.16 8.65 7.9l-1.64-10.93c-3.92-20 14.47-39.94 24.55-49.15l6.28-4.09z" fill="#b2529f"/></g><g><path d="M371.249 341.89c-.03-.02-.05-.05-.08-.07a61.678 61.678 0 0 0-5.12 5.47l-4.69 5.66 4.97 5.76c8.82 10.42 24.51 32.55 18.06 51.88-.3 3.35-1.11 6.88-2.18 10.32 3.3-1.33 6.32-3.48 8.75-6.42l9.92-11.99c.91-30.75-28.2-59.23-29.63-60.61z" fill="#b2529f"/></g><circle cx="323.826" cy="127.199" fill="#b2529f" r="7.654"/></svg>