<svg height="512" viewBox="0 0 497.001 497.001" width="512" xmlns="http://www.w3.org/2000/svg"><path d="M101.245 340.204H51.927c-4.143 0-7.5-3.357-7.5-7.5s3.357-7.5 7.5-7.5h49.318c4.143 0 7.5 3.357 7.5 7.5s-3.357 7.5-7.5 7.5zM148.021 389.127H81.358c-4.143 0-7.5-3.357-7.5-7.5s3.357-7.5 7.5-7.5h66.663c4.143 0 7.5 3.357 7.5 7.5s-3.358 7.5-7.5 7.5zM189.637 430.743h-82.311c-4.143 0-7.5-3.357-7.5-7.5s3.357-7.5 7.5-7.5h82.311c4.143 0 7.5 3.357 7.5 7.5s-3.358 7.5-7.5 7.5zM112.518 327.746a7.499 7.499 0 0 1-7.5-7.5v-48.119c0-4.143 3.357-7.5 7.5-7.5s7.5 3.357 7.5 7.5v48.119c0 4.143-3.357 7.5-7.5 7.5zM161.441 374.521a7.499 7.499 0 0 1-7.5-7.5v-47.296c0-4.143 3.357-7.5 7.5-7.5s7.5 3.357 7.5 7.5v47.296a7.5 7.5 0 0 1-7.5 7.5zM445.074 361.745h-51.068c-4.143 0-7.5-3.357-7.5-7.5s3.357-7.5 7.5-7.5h51.068c4.143 0 7.5 3.357 7.5 7.5s-3.358 7.5-7.5 7.5zM415.643 410.668H347.23c-4.143 0-7.5-3.357-7.5-7.5s3.357-7.5 7.5-7.5h68.413c4.143 0 7.5 3.357 7.5 7.5s-3.357 7.5-7.5 7.5zM389.675 452.284h-84.061c-4.143 0-7.5-3.357-7.5-7.5s3.357-7.5 7.5-7.5h84.061c4.143 0 7.5 3.357 7.5 7.5s-3.357 7.5-7.5 7.5z" fill="#3ec3a4"/><path d="M384.483 349.453a7.499 7.499 0 0 1-7.5-7.5v-48.284c0-4.143 3.357-7.5 7.5-7.5s7.5 3.357 7.5 7.5v48.284a7.5 7.5 0 0 1-7.5 7.5zM338.56 393.256a7.499 7.499 0 0 1-7.5-7.5V332.27c0-4.143 3.357-7.5 7.5-7.5s7.5 3.357 7.5 7.5v53.485a7.5 7.5 0 0 1-7.5 7.501zM294.532 437.284a7.499 7.499 0 0 1-7.5-7.5v-71.615c0-4.143 3.357-7.5 7.5-7.5s7.5 3.357 7.5 7.5v71.615a7.5 7.5 0 0 1-7.5 7.5z" fill="#3ec3a4"/><path d="M349.75 145.441 304 237.551H193.36l-54.32-91.96c-.04-2.78.04-6.27.43-9.92h-.01l4.37-41.1a87.07 87.07 0 0 1 42.5-65.88l39.08-22.94a41.25 41.25 0 0 1 10.84-4.45 41.745 41.745 0 0 1 31.87 4.68l36.29 21.81a87.074 87.074 0 0 1 41.94 67.87l3.35 43.03c.12 2.45.11 4.77.05 6.75z" fill="#ffead9"/><path d="M349.75 145.441 304 237.551h-20.62l24.67-49.47 16.86-33.82a37.59 37.59 0 0 0 3.85-19.73l-3.02-38.87a87.085 87.085 0 0 0-41.95-67.87L247.5 5.981a41.564 41.564 0 0 0-11.25-4.67v-.01a41.745 41.745 0 0 1 31.87 4.68l36.29 21.81a87.074 87.074 0 0 1 41.94 67.87l3.35 43.03c.12 2.45.11 4.77.05 6.75z" fill="#fedba6"/><path d="m255.26 453.371-12.05 12.05-10.04 10.04-28.95-28.95-95.5-95.5a197.155 197.155 0 0 1-26.32-32.63l-21.17-32.88c-1.71-2.66 1.41-5.78 4.07-4.07l32.88 21.17a197.155 197.155 0 0 1 32.63 26.32z" fill="#6fd7a3"/><path d="M243.21 441.321v24.1l-10.04 10.04-28.95-28.95v-44.18z" fill="#3ec3a4"/><path d="m435.77 307.041-21.17 32.88a197.155 197.155 0 0 1-26.32 32.63l-116.5 116.5c-2.4 2.4-5.24 4.09-7.95 5.26-.65.29-1.29.54-1.92.77l-20.17-20.17 1.47-1.47 20.62-20.62 102.36-102.36c9.91-9.91 20.85-18.73 32.63-26.32l7.63-4.91 25.25-16.26c2.66-1.71 5.78 1.41 4.07 4.07z" fill="#6fd7a3"/><path d="m435.77 307.041-21.17 32.88a197.155 197.155 0 0 1-26.32 32.63l-116.5 116.5c-2.4 2.4-5.24 4.09-7.95 5.26-.65.29-1.29.54-1.92.77l-8.39-8.39 10.31-10.31 103.84-103.83a197.61 197.61 0 0 0 26.31-32.63l12.25-17.92c.61-.94.6-1.95.22-2.77l25.25-16.26c2.66-1.71 5.78 1.41 4.07 4.07z" fill="#3ec3a4"/><path d="M349.75 145.441c-.01.13-.01.26-.02.39-.09 2.8-.29 4.86-.37 5.58l-.03.27-8.6 68.34a126.042 126.042 0 0 1-33.12 70.48l-35.69 38.04a29.873 29.873 0 0 0-8.09 20.45v145.32c-.65.29-1.29.54-1.92.77-4.59 1.66-8.39 1.92-8.39 1.92h-18.94c-5.38 0-9.75-4.36-9.75-9.75v-138.26c0-7.6-2.89-14.91-8.08-20.45l-35.69-38.04a126.055 126.055 0 0 1-33.13-70.48l-5.84-46.44-2.76-21.9v-.01c-.02-.17-.23-2.44-.29-5.8v-.28l28.96 34.24v.01l4.28 5.06c4.98 5.89 14.57 3.45 16.13-4.11l3.36-16.22 2.46-11.91c1.38-6.65 10.56-7.43 13.04-1.11l4.68 11.9v.01l2.19 5.57c3.41 8.69 16.07 7.44 17.73-1.74l2.15-11.94v-.01l3.59-19.91c1.35-7.48 12.09-7.48 13.44 0l5.75 31.86c1.65 9.18 14.31 10.43 17.73 1.74l1.75-4.46 5.11-13.02c2.48-6.32 11.67-5.54 13.04 1.11l5.62 27.17.2.96c.86 4.18 4.17 6.79 7.8 7.29 2.95.42 6.11-.54 8.34-3.18l9.57-11.32z" fill="#6fd7a3"/><g fill="#3ec3a4"><path d="M236.179 167.289c1.656 9.183 14.32 10.427 17.731 1.741l2.193-5.584-5.052-28.014c-1.35-7.487-12.086-7.487-13.436 0l-3.59 19.91zM279.634 180.794c1.564 7.561 11.152 9.999 16.138 4.103l4.281-5.062-5.621-27.175c-1.375-6.648-10.557-7.431-13.039-1.112l-5.114 13.022zM168 179.831v.01l-.2.95c-.58 2.82-2.28 4.92-4.43 6.14-3.63 2.08-8.58 1.67-11.71-2.03l-9.57-11.32-2.76-21.9v-.01c-.02-.17-.23-2.44-.29-5.8v-.28zM193.523 169.03c3.411 8.686 16.075 7.442 17.731-1.741l.693-3.843-4.673-11.898c-2.481-6.319-11.663-5.536-13.039 1.112l-2.464 11.91zM349.75 145.441c-.01.13-.01.26-.02.39-.09 2.8-.29 4.86-.37 5.58l-.03.27-8.6 68.34a126.042 126.042 0 0 1-33.12 70.48l-35.69 38.04a29.873 29.873 0 0 0-8.09 20.45v145.32c-.65.29-1.29.54-1.92.77-4.59 1.66-8.39 1.92-8.39 1.92h-10.31v-148.01c0-7.6 2.9-14.91 8.09-20.45l35.69-38.04a125.976 125.976 0 0 0 33.12-70.48l2.49-19.78 3.36-26.66z"/></g><g fill="#fedba6"><circle cx="174.851" cy="119.284" r="7.697"/><circle cx="209.092" cy="101.173" r="7.697"/><circle cx="245.333" cy="101.173" r="7.697"/><circle cx="281.574" cy="101.173" r="7.697"/><circle cx="315.815" cy="119.284" r="7.697"/></g><g fill="#fedba6"><circle cx="174.851" cy="83.062" r="7.697"/><circle cx="209.092" cy="64.95" r="7.697"/><circle cx="245.333" cy="64.95" r="7.697"/><circle cx="281.574" cy="64.95" r="7.697"/><circle cx="315.815" cy="83.062" r="7.697"/></g><circle cx="245.333" cy="28.727" fill="#fedba6" r="7.697"/><path d="M246.5 260.393a7.499 7.499 0 0 1-7.5-7.5V213.42c0-4.143 3.357-7.5 7.5-7.5s7.5 3.357 7.5 7.5v39.473c0 4.143-3.357 7.5-7.5 7.5zM211.871 279.629a7.5 7.5 0 0 1-7.068-4.995l-17.837-50.295a7.498 7.498 0 0 1 4.562-9.575 7.499 7.499 0 0 1 9.575 4.562l17.837 50.295a7.498 7.498 0 0 1-7.069 10.008zM281.13 279.629c-.832 0-1.678-.14-2.507-.434a7.5 7.5 0 0 1-4.562-9.575l17.837-50.295a7.5 7.5 0 1 1 14.137 5.013l-17.837 50.295a7.5 7.5 0 0 1-7.068 4.996z" fill="#3ec3a4"/></svg>