<svg height="512" viewBox="0 0 497 497" width="512" xmlns="http://www.w3.org/2000/svg"><path d="m266.77 216.4-35 36.81-6.59 6.93-8.28-4.87-48.95-28.79a70.918 70.918 0 0 1-34.4-52.06l-4.83-37.3c-.68-5.26-.77-10.57-.26-15.85l8.33-87.32c.62-6.49 4.3-12.2 9.76-15.48a20.61 20.61 0 0 1 3.34-1.62l10.6-3.97 1.63-.61c8.57-3.21 18.23-.29 23.59 7.12l32.68 45.18a122.345 122.345 0 0 1 19.22 40.67z" fill="#fea95c"/><path d="m231.77 253.21-6.59 6.93-8.28-4.87-8.11-56.38c-.59-4.1 2.25-7.9 6.35-8.49 4.11-.59 7.91 2.25 8.5 6.35z" fill="#fe9738"/><path d="M237.61 105.244a122.375 122.375 0 0 0-19.217-40.675L185.712 19.39a20.319 20.319 0 0 0-23.592-7.118l-3.881 1.454a20.275 20.275 0 0 1 6.274 5.665l32.68 45.178c18.82 21.576 33.757 97.356 44.094 136.941a28.281 28.281 0 0 1-6.883 26.63l-22.818 24.003 13.599 7.997 41.582-43.743z" fill="#fe9738"/><path d="M264.08 286.878v200.308a6.592 6.592 0 0 1-6.592 6.592h-17.976a6.592 6.592 0 0 1-6.592-6.592V286.878z" fill="#6fd7a3"/><path d="M264.08 286.878h-.001v-.002H248.5v.002h-15.58v69.4l8.97 29.8a72.619 72.619 0 0 0 2.398 6.737c2.758 6.689 4.212 13.842 4.212 21.077v69.697c0 4.542-2.822 8.606-7.078 10.192h16.065a6.592 6.592 0 0 0 6.592-6.592z" fill="#3ec3a4"/><path d="m245.18 326.56-5.56 40.25c-1.22 8.88-3.78 17.47-7.53 25.5s-8.71 15.49-14.73 22.13a89.012 89.012 0 0 1-22.59 17.91l-88.91 49.45c-4.67 2.6-9.85 3.9-15.04 3.9-4.52 0-9.03-.99-13.23-2.98-.17-.07-.34-.16-.51-.24a30.621 30.621 0 0 1-11.09-9.29c-5.84-7.86-7.79-18.31-4.53-28.15l7.01-21.14 11.82-62.07a101.554 101.554 0 0 1 21.75-46.02l25.02-30a68.736 68.736 0 0 1 51.42-24.72l38.14-.78 8.56-.17 16.148 28.374z" fill="#fea95c"/><path d="m225.18 260.138-21.072.429 14.173 47.069c3.78 12.555 4.825 25.765 3.134 38.768-3.192 24.548-7.934 51.375-25.258 68.034-12.135 16.891-93.667 55.661-111.497 67.362a30.975 30.975 0 0 1-4.447 2.017 30.892 30.892 0 0 0 25.647-2.018l88.91-49.45a89.012 89.012 0 0 0 22.59-17.91c6.02-6.64 10.98-14.1 14.73-22.13s6.31-16.62 7.53-25.5l5.56-40.25-3.852-38.045z" fill="#fe9738"/><path d="M497 330.24c0 2.33-.4 4.64-1.18 6.83-1.2 3.41-3.33 6.52-6.32 8.95-1.13.92-2.33 1.7-3.6 2.35a20.45 20.45 0 0 1-9.22 2.2c-2.71 0-5.43-.54-8-1.64a88.413 88.413 0 0 0-28.9-6.94c-13.34-.88-34.2-1.5-50.06-1.87a89.766 89.766 0 0 1-41.69-11.37l-67.87-37.91-54.98-30.7 40.58-26.7 13.88-9.13 104.45-12.24 55.72 37.34a88.124 88.124 0 0 1 24.78 25.09l29.11 44.65c2.23 3.41 3.3 7.27 3.3 11.09z" fill="#fea95c"/><path d="m280.16 290.84-54.98-30.7 40.58-26.7-28.71 26.06zM493.701 319.152l-29.112-44.654a88.148 88.148 0 0 0-24.774-25.088l-55.721-37.336-18.046 2.114 52.565 35.222c20.688 11.74 40.381 50.988 53.886 69.742 5.68 8.712 3.865 20.306-4.206 26.867a21.205 21.205 0 0 1-2.551 1.725c.985.381 1.968.769 2.94 1.186a20.32 20.32 0 0 0 20.813-2.912c8.071-6.56 9.886-18.154 4.206-26.866z" fill="#fe9738"/><path d="m462.47 27.25-9.66 117.16a70.928 70.928 0 0 1-50.15 62.05l-160.74 48.62-16.74 5.06 7.24-16.69 40.91-94.34a122.055 122.055 0 0 1 52.34-57.94L364.5 69.4c11-6.16 20.78-14.28 28.85-23.97l29.09-34.9a20.31 20.31 0 0 1 21.83-6.33c.92.29 1.82.65 2.71 1.09l4.17 2.04c2.32 1.13 4.36 2.68 6.03 4.51 3.77 4.1 5.77 9.65 5.29 15.41z" fill="#ffd15b"/><path d="m451.145 7.326-4.169-2.039a20.32 20.32 0 0 0-19.307.785c8.323 3.785 14.578 11.591 13.598 21.178l-9.661 117.157a70.914 70.914 0 0 1-20.421 44.207c-10.793 17.407-128.271 47.723-182.543 63.552l-3.458 7.975 177.477-53.682a70.921 70.921 0 0 0 50.146-62.052l9.661-117.157a20.318 20.318 0 0 0-11.323-19.924z" fill="#ffc344"/><path d="m298.89 203.37-56.97 51.71-16.74 5.06 7.24-16.69 56.39-51.18a7.499 7.499 0 0 1 10.6.51 7.496 7.496 0 0 1-.52 10.59z" fill="#ffc344"/><path d="m228.27 270.4-54.22 103.37a95.237 95.237 0 0 1-14.49 20.51l-81.97 88.44c-.17-.07-.34-.16-.51-.24a30.621 30.621 0 0 1-11.09-9.29l82.57-89.11c4.81-5.19 8.92-11 12.21-17.27l55.85-106.5 8.56-.17z" fill="#fe9738"/><path d="M419.8 460.71a20.13 20.13 0 0 1-8.11 4.62l-5.96 1.76-4.71 1.39a20.334 20.334 0 0 1-13.71-.81l-82.78-35.3a73.306 73.306 0 0 1-41.43-46.3l-34.34-114.05-3.58-11.88 16.46 2.7 77.54 12.7a96.3 96.3 0 0 1 53.12 27.54 96.224 96.224 0 0 1 23.45 39.47l29.64 97.38c2.34 7.68-.09 15.66-5.59 20.78z" fill="#ffd15b"/><path d="m425.391 439.925-29.639-97.38a96.32 96.32 0 0 0-76.572-67.005l-93.995-15.399 1.176 3.907c59.021 8.718 128.314 10.598 148.189 78.498.001-.001 29.64 97.379 29.64 97.379 3.289 10.806-2.865 22.219-13.701 25.409-1.613.433-3.333.975-5.109 1.517l1.928.823a20.322 20.322 0 0 0 13.71.802l10.671-3.142c10.836-3.19 16.99-14.604 13.702-25.409z" fill="#ffc344"/><path d="M284.36 303.18a7.487 7.487 0 0 1-6.07 3.08c-1.53 0-3.07-.46-4.4-1.43l-45.13-32.81-3.58-11.88 16.46 2.7 41.07 29.86c3.35 2.43 4.09 7.13 1.65 10.48z" fill="#ffc344"/><path d="m225.18 260.14-58.99 35.53a86.827 86.827 0 0 1-44.84 12.46c-8.9 0-17.69-1.37-26.09-4.01a86.854 86.854 0 0 1-23.68-11.65l-62.9-43.94A20.32 20.32 0 0 1 0 231.87v-17.06c0-8.2 4.92-15.59 12.47-18.75l66.62-27.88a74.832 74.832 0 0 1 46.48-3.7 74.77 74.77 0 0 1 39.58 24.48z" fill="#ffd15b"/><path d="M165.151 188.958a74.799 74.799 0 0 0-39.579-24.477 74.776 74.776 0 0 0-27.218-1.469c42.982 7.71 70.893 58.511 100.421 91.523a6.275 6.275 0 0 1-1.42 9.558c-28.667 17.425-57.229 38.527-87.71 43.232a86.8 86.8 0 0 0 11.707.808 86.903 86.903 0 0 0 44.842-12.462l58.991-35.531z" fill="#ffc344"/><path d="M495.82 337.07c-1.2 3.41-3.33 6.52-6.32 8.95-1.13.92-2.33 1.7-3.6 2.35l-86.52-66.92c-11.05-8.54-23.55-14.45-37.15-17.58-4.04-.93-6.56-4.96-5.63-8.99a7.496 7.496 0 0 1 8.99-5.63c15.74 3.62 30.19 10.46 42.96 20.34zM190.91 127.19c-.63.16-1.26.24-1.88.24-3.34 0-6.38-2.25-7.26-5.63-.91-3.53-1.97-7.07-3.16-10.51l-32.06-92.82a20.61 20.61 0 0 1 3.34-1.62l10.6-3.97c.02.06.05.13.07.19l32.23 93.33c1.32 3.81 2.5 7.73 3.51 11.65a7.512 7.512 0 0 1-5.39 9.14z" fill="#fe9738"/><g fill="#ffc344"><path d="M159.71 240.41a7.496 7.496 0 0 1-7.17 5.34c-.72 0-1.45-.11-2.17-.32l-33.3-10.04a83.842 83.842 0 0 0-24.22-3.57H0v-15h92.85c9.68 0 19.28 1.41 28.55 4.21l33.3 10.03a7.495 7.495 0 0 1 5.01 9.35zM419.8 460.71a20.13 20.13 0 0 1-8.11 4.62l-5.96 1.76c-7.88-9.97-16.81-21.25-21.68-27.5-23.11-29.67-49.3-63.29-52-66.17-2.93-2.93-2.9-7.65.03-10.58s7.7-2.9 10.63.03c2.43 2.42 18.86 23.44 53.18 67.5 5.33 6.85 15.56 19.76 23.91 30.34zM457.18 11.84l-58.75 96.61c-9 14.79-20.17 28.07-33.22 39.45l-8.24 7.19a7.475 7.475 0 0 1-4.93 1.85 7.47 7.47 0 0 1-5.65-2.57c-2.72-3.12-2.4-7.86.72-10.58l8.24-7.19a153.577 153.577 0 0 0 30.26-35.94L444.27 4.2c.92.29 1.82.65 2.71 1.09l4.17 2.04c2.32 1.13 4.36 2.68 6.03 4.51z"/><circle cx="304.27" cy="323.326" r="7.697"/><circle cx="320.86" cy="175.049" r="7.697"/></g><circle cx="208.517" cy="162.38" fill="#fe9738" r="7.697"/></svg>