<svg width="534" height="534" fill="none" xmlns="http://www.w3.org/2000/svg"><circle cx="267" cy="267" r="267" fill="#fff"/><path d="M354.928 159.4c-45.302-43.886-46.037-96.809-46.037-97.325A7.077 7.077 0 00301.816 55a7.077 7.077 0 00-7.075 7.075v295.308c-21.367-21.671-63.336-25.945-102.462-8.179-27.062 12.297-48.16 33.162-56.445 55.823-5.406 14.795-5.087 29.277.906 41.885 9.99 21.006 34.222 32.482 62.494 32.482 15.799 0 32.864-3.587 49.399-11.095 27.062-12.296 48.167-33.161 56.446-55.822 3.41-9.34 3.82-18.785 3.82-28.57v-15.911-22.726-27.14-29.149-28.753-25.952-20.751-13.146-3.424c7.45 16.301 18.756 34.215 36.196 51.11 35.921 34.795 41.1 55.08 41.658 62.191a7.07 7.07 0 007.047 6.516c.092 0 .184 0 .283-.007a7.066 7.066 0 006.792-7.068v-70.312c.586-5.497 1.025-34.484-45.947-79.985z" fill="#1F1F1F"/></svg>