<svg width="45" height="92" fill="none" xmlns="http://www.w3.org/2000/svg">
    <path fill="white"
        d="M26.82 79.66v9.35c0 1.76-1.58 2.64-4.73 2.64-3.08 0-4.62-.88-4.62-2.64v-9.35c0-1.76 1.54-2.64 4.62-2.64 3.15 0 4.73.88 4.73 2.64zm-1.1-19.25c0 1.61-1.21 2.42-3.63 2.42s-3.63-.8-3.63-2.42l-.66-19.69 7.37-1.98c3.66-1.03 6.27-2.09 7.8-3.19 1.62-1.17 2.43-2.97 2.43-5.39V16.63a6.9 6.9 0 00-3.85-6.49c-2.5-1.4-5.61-2.09-9.35-2.09-3.74 0-6.82.7-9.24 2.09-2.42 1.32-3.63 3.48-3.63 6.49v5.94c0 1.69-1.47 2.53-4.4 2.53-2.94 0-4.4-.84-4.4-2.53v-4.84c0-5.94 2.09-10.3 6.27-13.09C11.05 1.78 16.18.35 22.2.35c8.36 0 14.55 2.42 18.59 7.26 2.27 2.71 3.4 6.09 3.4 10.12v11.55c0 4.4-1.13 8-3.4 10.78a13.34 13.34 0 01-4.18 2.97c-1.91.88-3.49 1.5-4.73 1.87-1.25.37-3.2.92-5.83 1.65l-.33 13.86z" />
</svg>