<svg width="137" height="153" fill="none" xmlns="http://www.w3.org/2000/svg">
    <rect width="137" height="153" rx="10"/>
    <path fill="white"
        d="M68.5 0a39.8 39.8 0 00-39.7 39.7 39.8 39.8 0 0039.7 39.7 39.8 39.8 0 0039.7-39.7A39.8 39.8 0 0068.5 0zM136.7 111.2a49.4 49.4 0 00-38.2-28.8c-1.7-.2-3.6.2-5 1.2a41.8 41.8 0 01-50 0 6.5 6.5 0 00-5-1.2A49 49 0 00.3 111.2c-.5 1-.3 2.2.2 3.3a69.3 69.3 0 0012.7 16c2.4 2.4 5.2 4.6 8 6.9a78.6 78.6 0 00102.3-7 80 80 0 0012.7-16c.8-1 1-2.2.5-3.2z" />
</svg>