<svg width="108" height="84" fill="none" xmlns="http://www.w3.org/2000/svg"><path fill-rule="evenodd" clip-rule="evenodd" d="M29.61 58.38v-8.86h15.63c.32 0 .64.02.96.04h.11l-2.26 4.39h-9.97v4.43c0 6.12 5 11.09 11.16 11.09H56.4v-4.43c0-4.85-3.17-8.94-7.54-10.44l-2.47-5.03c8.08.6 14.47 7.3 14.47 15.47v4.43c0 2.44-2 4.43-4.46 4.43H45.24A15.6 15.6 0 0129.6 58.38zm54.64-8.8l.04-.06.04.05.11-.01c.32-.02.64-.04.97-.04h15.62v8.86A15.6 15.6 0 0185.41 73.9H74.25a4.45 4.45 0 01-4.46-4.43v-4.43c0-8.17 6.39-14.88 14.46-15.47zm12.32 4.37h-9.98c.59 1.59 1.05 3.5 1.05 5.54 0 5.51-3.35 9.98-3.35 9.98s-3.34-4.47-3.34-9.98c0-1.78.36-3.44.84-4.89a11.07 11.07 0 00-7.54 10.44v4.43h11.16c6.15 0 11.16-4.97 11.16-11.09v-4.43z" fill="#C5E1E6"/><path d="M46.4 49.57c-.02 0-.05-.05-.05-.05l-.04.05-2.26 4.38A16.13 16.13 0 0043 59.49c0 5.51 3.35 9.98 3.35 9.98S49.7 65 49.7 59.49c0-1.78-.37-3.44-.84-4.89l-2.47-5.03z" fill="#C5E1E6"/><path d="M10.31 32.35c-2.72 0-4.82-.7-6.3-2.1-1.49-1.4-2.3-3.34-2.4-5.78l-.04-1.53.03-1.53c.12-2.42.93-4.33 2.44-5.75 1.51-1.42 3.6-2.12 6.27-2.12 2.67 0 4.76.7 6.27 2.12 1.51 1.42 2.33 3.33 2.44 5.75.03.28.04.79.04 1.53 0 .75-.01 1.26-.04 1.53-.11 2.44-.92 4.37-2.4 5.79-1.49 1.4-3.59 2.09-6.3 2.09zm0-3.45a3.6 3.6 0 002.86-1.15 5.6 5.6 0 001.11-3.45c.03-.23.04-.68.04-1.36 0-.67-.01-1.12-.04-1.36-.07-1.5-.44-2.64-1.11-3.41a3.55 3.55 0 00-2.86-1.19c-1.23 0-2.18.4-2.85 1.19-.68.77-1.05 1.9-1.12 3.41l-.03 1.36.03 1.36a5.6 5.6 0 001.12 3.45 3.6 3.6 0 002.85 1.15zM23.75 32a.8.8 0 01-.59-.24.8.8 0 01-.24-.6V14.72a.8.8 0 01.24-.6.8.8 0 01.6-.24h2.85a.8.8 0 01.6.25.8.8 0 01.24.59v1.43c1.37-1.74 3.3-2.61 5.81-2.61 2.14 0 3.84.7 5.09 2.12 1.25 1.4 1.88 3.3 1.88 5.71v9.8a.8.8 0 01-.24.59.74.74 0 01-.6.24h-3.06a.8.8 0 01-.6-.24.8.8 0 01-.24-.6v-9.58c0-1.37-.33-2.42-1-3.17-.66-.76-1.6-1.15-2.86-1.15-1.23 0-2.21.39-2.93 1.15a4.54 4.54 0 00-1.05 3.17v9.58a.8.8 0 01-.24.6.74.74 0 01-.6.24h-3.06zm21.78 0a.8.8 0 01-.6-.24.8.8 0 01-.24-.6V8.1c0-.25.08-.45.25-.6a.8.8 0 01.59-.24h2.89c.25 0 .45.09.6.25.15.14.24.34.24.6v23.05a.8.8 0 01-.25.6.74.74 0 01-.59.24h-2.9zm9.04-21.11a.8.8 0 01-.59-.25.8.8 0 01-.24-.59v-2.5a.8.8 0 01.24-.6.8.8 0 01.6-.24h3.16a.8.8 0 01.6.24c.18.16.27.36.27.6v2.5a.8.8 0 01-.24.6.85.85 0 01-.63.24h-3.17zM54.71 32a.8.8 0 01-.59-.24.8.8 0 01-.24-.6V14.72a.8.8 0 01.24-.6.8.8 0 01.6-.24h2.88c.26 0 .46.09.6.25.16.14.24.33.24.59v16.44a.8.8 0 01-.24.6.74.74 0 01-.6.24h-2.89zm9.19 0a.8.8 0 01-.6-.24.8.8 0 01-.24-.6V14.72a.8.8 0 01.25-.6.8.8 0 01.59-.24h2.86a.8.8 0 01.59.25.8.8 0 01.24.59v1.43c1.37-1.74 3.31-2.61 5.82-2.61 2.14 0 3.83.7 5.09 2.12 1.25 1.4 1.88 3.3 1.88 5.71v9.8a.8.8 0 01-.25.59.74.74 0 01-.59.24h-3.06a.8.8 0 01-.6-.24.8.8 0 01-.24-.6v-9.58c0-1.37-.34-2.42-1.01-3.17-.65-.76-1.6-1.15-2.86-1.15-1.23 0-2.2.39-2.92 1.15a4.54 4.54 0 00-1.05 3.17v9.58a.8.8 0 01-.24.6.74.74 0 01-.6.24H63.9zm28.7.35c-2.57 0-4.63-.74-6.16-2.23-1.5-1.51-2.31-3.62-2.4-6.34L84 22.9l.04-.87c.11-2.65.93-4.73 2.44-6.24 1.53-1.51 3.57-2.26 6.13-2.26 2.74 0 4.85.83 6.34 2.5 1.5 1.68 2.26 3.9 2.26 6.7v.72a.8.8 0 01-.24.6.85.85 0 01-.63.24H88.77v.28c.05 1.28.4 2.36 1.05 3.24a3.3 3.3 0 002.75 1.29 4 4 0 003.31-1.6c.21-.26.37-.42.49-.5.14-.06.34-.1.6-.1h2.99c.2 0 .38.07.52.21.16.12.24.27.24.46 0 .55-.33 1.21-1 1.98-.66.74-1.6 1.4-2.83 1.95a10.3 10.3 0 01-4.28.84zm3.87-10.98v-.1a5 5 0 00-1.04-3.31 3.42 3.42 0 00-2.82-1.25c-1.21 0-2.15.41-2.82 1.25a5.12 5.12 0 00-1.02 3.31v.1h7.7zM2.2 73.8a.85.85 0 01-.63-.24.93.93 0 01-.21-.62V70.5c0-.4.08-.7.24-.9l.28-.4 12.13-15.67H2.54a.8.8 0 01-.59-.24.8.8 0 01-.24-.6v-2.4c0-.26.07-.46.2-.63a.85.85 0 01.63-.24H19.2c.25 0 .46.08.62.24.17.17.25.37.25.63v2.4c0 .42-.15.83-.46 1.22L7.73 69.66h11.85c.25 0 .46.08.63.24.16.17.24.38.24.63v2.44c0 .26-.08.46-.24.63a.93.93 0 01-.63.2H2.19z" fill="#0D444D"/></svg>