<svg width="33" height="66" fill="none" xmlns="http://www.w3.org/2000/svg">
    <path d="M13.91 59.2c.25-1 .16-2.86.16-2.86l4.48-2.01s-.41 1.22-.31 2.01c.08.67.49.96.62 1.62.15.77-.18 1.25 0 2.01.12.54.54 1.32.54 1.32s.62-.15.93-.4c.43-.33.49-.71.7-1.23.53-1.37-.16-3.78 0-3.78.15 0 4.01 2.62 4.01 2.62s-.52 1.15-.62 1.94c-.15 1.2.03 2.02-.77 3.09-.33.27-1 .46-1 .46s-2.17 2.01-2.1 1.47c0-.7.16-1.78.16-1.78s-4.64 2.17-4.64 1.78c-.15-.62.55-1.47.55-1.47s-1.63 1-1.47.54c.1-.32.31-.68.5-.97a.48.48 0 01-.27.12c-.54.03-.46-1.31-.46-1.31s-2.55 1.62-3.71 1.62c-.27-.51-.16-1.47-.16-1.47s-1.85.62-2.7.54c.15-1 .88-1.28 1.62-1.93 1.29-1.13 3.17-1.54 3.94-1.93zM1 .39C.76.49.47.67.26.82c-.1.07-.07.23.05.26l.93.23c1.4.36 2.2.5 3.55 1 1.68.65 2.65 1.03 4.1 2.1.67.49 1.08.75 1.62 1.39.8.93 1.34 1.56 1.47 2.78.03.33 0 .85 0 .85s.81.5 1.39.7c1.55.54 7.19-1.78 7.19-4.26A7.02 7.02 0 0014.92.85c-.84-.13-1.32-.05-2.17 0-1.28.07-1.96.5-3.24.46C8.53 1.3 8 1.1 7.03.93 5.46.66 4.61.13 3.01.15 2.22.17 1.73.1 1.01.4z" fill="#0A5D69"/>
    <path d="M16.3 9.35c-1 .44-2.67.71-3.02.76-.02 0-.03.04-.01.06l1.5 1.27 2.85 2.16s1.97 1.72 2.7 3.17c.36.69.44 1.13.7 1.86.65 1.81 1.47 4.71 1.47 4.71s.56 2.02 1.31 3.1c.44.62.81.88 1.32 1.46.84.97 1.5 1.4 2.08 2.55.74 1.45.45 2.33.78 4.1.43 2.32 1.31 6.33 1.31 6.33v1.16c0 1.48.16 2.32 0 3.79-.15 1.44-.77 3.63-.77 3.63l-1.72 5.5c-.01.06.06.09.09.04.32-.62.94-1.78 1.32-2.6.54-1.47.7-2.9 1.24-4.72.23-.78.59-1.91.72-2.32.01-.04.08-.04.09 0l1.2 4.72s.61 1.7 1.23 1.78c.38-.32.23-1.24.23-1.24s-.73-2.29-1.08-3.79c-.35-1.49-.4-2.36-.7-3.86-.14-.73-.26-1.13-.38-1.86-.08-1.46-.15-3.9-.23-6.41-.07-2 .13-3.13-.16-5.1a32.16 32.16 0 00-2.24-7.57c-.67-1.67-1.24-2.52-1.93-4.18-.55-1.31-.7-2.12-1.31-3.4-.71-1.46-1.38-2.13-2.17-3.55-.54-.98-.88-1.52-1.31-2.55-.35-.84-.75-2.14-.84-2.42a.03.03 0 00-.05-.01c-.18.23-1 1.24-1.66 1.8a8.7 8.7 0 01-2.55 1.63z" fill="#0A5D69"/>
    <path d="M5.87 34c.37-1.45 1.24-3.63 1.24-3.63l2.7 16.23s-.46 2.17-1.85 1.78a4.7 4.7 0 01-2.24-2.01c-.38-.69-.39-1.16-.54-1.93-.24-1.22-.23-1.93-.23-3.17-.01-1.5.1-2.35.3-3.83v-.03c.18-1.34.29-2.1.62-3.4z" fill="#0A5D69" stroke="#0A5D69" stroke-width=".15"/>
    <path d="M12.78 10.25h0a17.66 17.66 0 001.58 1.41c.55.49 1.05.79 1.5 1.06l.14.08c.48.3.93.58 1.42 1.08 1.75 1.77 2.72 2.86 3.35 5.11.77 2.76 1.84 6.18 3.55 8.65l.03.04.03.03.65.63.06.05.74.71c.49.5.9.99 1.16 1.5.8 1.6 1.8 5.77 1.8 10.05 0 .8.05 1.44.1 2.05l.01.27c.05.68.09 1.34.05 2.2a45.12 45.12 0 01-1.76 7.54 37.77 37.77 0 01-2.58 5.65 9.37 9.37 0 01-2.7-.84l-.01-.06a3.8 3.8 0 01-.04-.2v-.04a8.52 8.52 0 00-.04-.24c-.07-.36-.22-.97-.82-1.25-.21-.1-.47-.16-.7-.2l-.42-.06-.38-.07c-.58-.1-1.2-.24-1.83-.57a.94.94 0 00-1.08.13c-.28.26-.7.63-1.15.93-.37.25-.7.41-.96.47a.92.92 0 01-.14-.38l-.02-.15c-.04-.25-.1-.61-.27-.95a7.95 7.95 0 00-.85-1.34l-.22-.28c-.21-.28-.43-.55-.66-.9-.26-.4-.5-.72-.7-1-.44-.62-.8-1.11-1.18-1.92a18.96 18.96 0 01-.63-3.7 111 111 0 01-.1-1c-.07-1-.16-2.06-.33-3.23a356.76 356.76 0 00-1.08-6.98c-.25-1.6-.5-3.08-.7-4.45a51.95 51.95 0 01-.22-6.53c0-1.9.01-3.3.45-5.12h0a20.16 20.16 0 013-6.9c.23-.34.44-.66.66-.96.18-.23.34-.4.47-.52.12-.1.18-.12.18-.12.21 0 .33.05.4.1.07.04.11.08.17.14l.07.08zm.36-.36h0z" fill="#fff" stroke="#0A5D69"/>
</svg>