<svg width="24" height="24" fill="none" xmlns="http://www.w3.org/2000/svg"><path fill="white" d="M12 2a5 5 0 000 10 5 5 0 000-10zm0 1.5c2 0 3.5 1.6 3.5 3.5 0 2-1.6 3.5-3.5 3.5-2 0-3.5-1.6-3.5-3.5 0-2 1.6-3.5 3.5-3.5zM6 14c-1.1 0-2 .9-2 2v.8c0 1.8 1.1 3.1 2.7 4C8.2 21.6 10 22 12 22c2 0 3.8-.4 5.3-1.2a4.8 4.8 0 002.6-3.3h.1V16c0-1.1-.9-2-2-2H6zm0 1.5h12c.3 0 .5.2.5.5v.8c0 1.1-.7 2-1.9 2.7-1.2.6-2.9 1-4.6 1a10 10 0 01-4.6-1c-1.2-.7-1.9-1.6-1.9-2.8V16c0-.3.2-.5.5-.5z"/><path fill="white" d="M12 2a5 5 0 000 10 5 5 0 000-10zM6 14c-1.1 0-2 .9-2 2v.8c0 1.8 1.1 3.1 2.7 4C8.2 21.6 10 22 12 22c2 0 3.8-.4 5.3-1.2a4.8 4.8 0 002.6-3.3h.1V16c0-1.1-.9-2-2-2H6z"/></svg>