<svg xmlns="http://www.w3.org/2000/svg" viewBox="0 0 512 512" style="enable-background:new 0 0 512 512" xml:space="preserve"><path style="fill:#eda751" d="M56.658 440.642c-1.664 0-3.354-.278-5.011-.866-7.806-2.767-11.89-11.339-9.123-19.145 5.931-16.728 16.872-29.177 31.642-36.006 17.928-8.291 39.701-7.663 64.708 1.862 25.081 9.552 37.315-3.642 60.455-31.977l.853-1.045c5.24-6.413 14.687-7.368 21.1-2.126 6.414 5.24 7.366 14.687 2.126 21.1l-.85 1.042c-11.665 14.285-22.684 27.777-36.903 36.632-17.624 10.976-36.417 12.419-57.456 4.403-16.935-6.452-31.268-7.373-41.448-2.667-9.188 4.247-13.751 12.571-15.962 18.805-2.178 6.149-7.959 9.988-14.131 9.988z"/><path style="opacity:.2;fill:#a35f00;enable-background:new" d="M220.854 375.569v-24.546c-6.4-4.864-15.544-3.83-20.67 2.443l-.853 1.045c-23.14 28.334-35.373 41.529-60.455 31.977-.851-.324-1.69-.612-2.534-.916a1429.736 1429.736 0 0 0-.617 31.43c18.036 5.039 34.436 2.762 49.932-6.889 13.523-8.422 24.153-21.041 35.197-34.544z"/><path style="fill:#fcd79d" d="M47.152 410.268a71.347 71.347 0 0 0-4.628 10.365c-2.767 7.806 1.317 16.377 9.123 19.145 1.656.588 3.347.866 5.011.866 6.172 0 11.954-3.839 14.134-9.989a40.314 40.314 0 0 1 2.847-6.295c-6.791-7.392-19.341-11.991-26.487-14.092z"/><path style="fill:#eda751" d="M131.301 358.482c-9.641 0-19.024-1.502-27.858-4.551-20.939-7.229-36.619-22.507-44.152-43.026-4.567-12.439 1.815-26.225 14.254-30.791 12.435-4.568 26.225 1.814 30.791 14.255 2.541 6.92 7.509 11.699 14.765 14.204 12.716 4.387 29.821 1.125 45.756-8.736 11.268-6.971 26.054-3.491 33.028 7.777 6.973 11.268 3.491 26.055-7.777 33.028-19.02 11.767-39.429 17.84-58.807 17.84z"/><path style="fill:#82c7e6" d="M197.886 307.612c-6.974-11.268-21.76-14.748-33.028-7.777-15.934 9.861-33.04 13.124-45.756 8.736-3.534-1.22-6.521-2.984-8.953-5.267-10.562 13.99-27.896 23.585-40.211 26.882 8.388 10.828 19.811 19.017 33.505 23.743 8.835 3.05 18.218 4.551 27.858 4.551 19.378 0 39.787-6.072 58.808-17.843 11.268-6.97 14.75-21.758 7.777-33.025z"/><path style="fill:#eda751" d="M305.293 504.502c-.537 0-1.077-.018-1.621-.054-13.221-.883-23.224-12.317-22.342-25.538 2.478-37.123-1.575-59.113-5.41-71.024-4.062-12.614 2.87-26.131 15.483-30.193 12.617-4.064 26.131 2.869 30.193 15.483 7.448 23.126 10.01 53.048 7.615 88.931-.848 12.676-11.396 22.395-23.918 22.395zM222.892 504.502c-12.524 0-23.07-9.718-23.917-22.396-2.395-35.883.167-65.804 7.615-88.931 4.063-12.613 17.583-19.541 30.193-15.483 12.613 4.062 19.544 17.579 15.484 30.193-3.836 11.911-7.888 33.902-5.41 71.024.882 13.222-9.122 24.655-22.342 25.538a24.67 24.67 0 0 1-1.623.055zM382.214 351.428c-14.277 0-28.394-3.182-41.762-9.497-11.982-5.661-17.106-19.961-11.446-31.943 5.66-11.982 19.96-17.107 31.943-11.446 22.737 10.744 49.438 3.181 66.433-18.821 8.098-10.487 23.166-12.421 33.655-4.321 10.487 8.101 12.421 23.169 4.321 33.656-14.485 18.752-34.452 32.459-56.225 38.598-8.936 2.52-17.959 3.774-26.919 3.774z"/><path style="fill:#82c7e6" d="M418.065 289.551c-16.534 14.185-38.194 17.932-57.116 8.991-11.983-5.661-26.283-.535-31.943 11.446-5.66 11.982-.536 26.282 11.446 31.943 13.368 6.315 27.485 9.497 41.762 9.497 8.96 0 17.984-1.253 26.919-3.773 15.751-4.441 30.544-12.86 43.014-24.266-21.456-5.258-30.88-21.837-34.082-33.838z"/><path style="opacity:.2;fill:#a35f00;enable-background:new" d="M321.594 393.174c-4.062-12.614-17.577-19.547-30.193-15.484-12.613 4.062-19.544 17.58-15.483 30.193 2.888 8.97 5.898 23.657 6.152 46.215 17.096-2.231 33.138-7.593 47.45-15.454-1.079-17.216-3.725-32.425-7.926-45.47zM236.782 377.692c-12.611-4.058-26.13 2.87-30.193 15.484-4.201 13.045-6.846 28.252-7.926 45.472 14.312 7.86 30.354 13.223 47.45 15.454.253-22.557 3.263-37.246 6.152-46.215 4.062-12.617-2.87-26.133-15.483-30.195z"/><ellipse style="fill:#fcd690" cx="264.094" cy="333.023" rx="110.667" ry="102.827"/><path style="opacity:.15;fill:#c18f00;enable-background:new" d="M247.932 434.764c-50.571-33.202-34.898-101.25-26.313-131.01v-65.708c-40.038 15.478-68.191 52.172-68.191 94.981 0 51.691 41.047 94.468 94.504 101.737z"/><path style="opacity:.1;enable-background:new" d="M164.858 299.835c-10.491 6.493-21.482 10.103-31.402 10.575-1.354 14.245-2.4 30.457-3.11 48.054.319.003.637.019.957.019 19.378 0 39.787-6.072 58.807-17.843 11.268-6.973 14.75-21.76 7.777-33.028-6.975-11.268-21.761-14.748-33.029-7.777z"/><path style="fill:#82c7e6" d="M233.849 223.028v212.981c0 9.494-9.49 16.044-18.372 12.69-16.16-6.102-38.135-15.914-52.641-22.703a24.514 24.514 0 0 1-14.132-22.403c.345-43.917 2.97-145.456 22.935-165.546l62.21-15.019z"/><path style="opacity:.1;enable-background:new" d="M360.949 298.543c-11.983-5.661-26.283-.535-31.943 11.446-5.66 11.982-.536 26.282 11.446 31.943 13.368 6.315 27.485 9.497 41.762 9.497 5.076 0 10.171-.417 15.26-1.224-.694-14.572-1.624-28.091-2.78-40.17a583.83 583.83 0 0 0-.82-8.003c-10.915 2.539-22.348 1.509-32.925-3.489z"/><path style="fill:#82c7e6" d="M294.335 223.028v212.981c0 9.494 9.49 16.044 18.372 12.69 16.16-6.102 38.135-15.914 52.641-22.703a24.514 24.514 0 0 0 14.132-22.403c-.345-43.917-2.97-145.456-22.935-165.546l-62.21-15.019z"/><path style="fill:#fff" d="M346.197 343.905h-20.774a7.499 7.499 0 0 1-7.5-7.5c0-4.143 3.357-7.5 7.5-7.5h20.773c4.143 0 7.5 3.357 7.5 7.5s-3.357 7.5-7.499 7.5z"/><circle style="fill:#dee2e5" cx="233.845" cy="422.581" r="22.049"/><circle style="opacity:.1;enable-background:new" cx="233.845" cy="422.581" r="8.01"/><path style="fill:#eda751" d="M196.745 154.716c21.654-18.171 36.112-48.673 5.569-93.765C171.529 15.504 125.695 4.112 89.912 8.327c-8.822 1.039-16.224 7.251-18.78 15.758-10.365 34.507-7.105 81.624 32.306 119.833 39.103 37.91 71.653 28.968 93.307 10.798z"/><path style="fill:#ff91ab" d="M69.693 29.366C61.195 63.294 66 107.621 103.439 143.919c33.893 32.859 62.856 30.511 84.076 17.473-14.594-99.07-78.343-125.341-117.822-132.026z"/><path style="fill:#eda751" d="M331.438 154.716c-21.654-18.171-36.113-48.673-5.569-93.765 30.785-45.448 76.619-56.84 112.402-52.624 8.822 1.039 16.224 7.251 18.78 15.758 10.365 34.507 7.105 81.624-32.306 119.833-39.102 37.91-71.653 28.968-93.307 10.798z"/><path style="fill:#ff91ab" d="M458.492 29.366c8.498 33.928 3.693 78.255-33.746 114.553-33.893 32.859-62.856 30.511-84.076 17.473 14.593-99.07 78.343-125.341 117.822-132.026z"/><path style="fill:#ffdc9c" d="M452.497 182.141c0 86.144-84.352 123.874-188.405 123.874S75.688 268.285 75.688 182.141 160.039 26.164 264.093 26.164s188.404 69.833 188.404 155.977z"/><path style="opacity:.15;fill:#c18f00;enable-background:new" d="M163.493 50.246c-52.765 27.641-87.806 76.378-87.806 131.896 0 74.052 62.333 112.327 145.931 121.614-120.002-71.682-104.352-168.099-58.125-253.51z"/><path style="fill:#495059" d="M422.254 97.365c-10.698-13.651-23.901-25.828-39.075-36.088H145.006c-15.174 10.26-28.378 22.437-39.076 36.088h316.324z"/><ellipse style="fill:#ff91ab" cx="171.636" cy="185.777" rx="34.109" ry="27.169"/><ellipse style="fill:#ff91ab" cx="356.541" cy="185.777" rx="34.109" ry="27.169"/><circle style="fill:#dee2e5" cx="264.094" cy="65.58" r="47.69"/><circle style="opacity:.1;enable-background:new" cx="264.094" cy="65.58" r="18.666"/><path d="M350.622 203.685a7.5 7.5 0 0 0 5.324 9.174c8.623 2.289 26.973 11.469 33.387 16.203a7.47 7.47 0 0 0 4.448 1.467 7.5 7.5 0 0 0 4.46-13.535c-7.784-5.745-27.825-15.814-38.445-18.633a7.497 7.497 0 0 0-9.174 5.324zm-6.459-45.011v-12.047c0-4.143-3.357-7.5-7.5-7.5a7.499 7.499 0 0 0-7.5 7.5v12.047c0 4.143 3.357 7.5 7.5 7.5a7.5 7.5 0 0 0 7.5-7.5zm-80.071 16.751c9.5 0 18.535-4.114 24.787-11.289a7.5 7.5 0 0 0-.727-10.582 7.5 7.5 0 0 0-10.582.727c-3.403 3.905-8.316 6.145-13.479 6.145s-10.076-2.239-13.48-6.145a7.501 7.501 0 0 0-11.309 9.855 32.885 32.885 0 0 0 24.79 11.289zm101.686 12.198c8.848-1.172 29.309.326 37.042 2.26a7.555 7.555 0 0 0 1.825.226 7.5 7.5 0 0 0 1.813-14.779c-9.385-2.346-31.75-4.018-42.645-2.578a7.5 7.5 0 0 0-6.453 8.418c.544 4.109 4.329 6.993 8.418 6.453zm99.844 81.842c-6.658-5.142-14.921-7.381-23.263-6.314-8.344 1.071-15.771 5.328-20.91 11.985a59.489 59.489 0 0 1-7.957 8.47 7.648 7.648 0 0 0-.637.553c-9.319 7.886-20.443 12.024-31.701 11.689-.116-.931-.234-1.857-.354-2.778 7.228-3.078 14.019-6.493 20.338-10.237 38.506-22.814 58.858-57.634 58.858-100.693 0-18.915-3.928-37.511-11.418-55.024 20.777-30.983 26.504-69.069 15.655-105.189A29.817 29.817 0 0 0 439.15.879c-35.983-4.244-71.398 7.023-97.94 30.961-14.28-5.107-29.31-8.802-44.789-10.947-9.094-6.598-20.261-10.502-32.329-10.502s-23.235 3.905-32.329 10.502c-15.479 2.144-30.509 5.84-44.789 10.947C160.434 7.905 125.021-3.361 89.037.88A29.819 29.819 0 0 0 63.95 21.928c-10.849 36.12-5.122 74.205 15.655 105.188-7.49 17.513-11.418 36.109-11.418 55.025 0 32.451 11.221 59.829 33.35 81.372a7.476 7.476 0 0 0 5.23 2.126 7.499 7.499 0 0 0 5.232-12.874c-19.119-18.612-28.812-42.374-28.812-70.624 0-27.394 9.269-54.131 26.472-77.276h115.716c9.97 9.829 23.645 15.908 38.717 15.908 15.073 0 28.747-6.079 38.717-15.908h115.715c17.203 23.145 26.472 49.882 26.472 77.276 0 38.003-17.329 67.539-51.506 87.789-7.152 4.238-14.988 8.018-23.437 11.338-.037.013-.074.029-.111.043-18.974 7.441-41.071 12.537-65.656 15.153l-.1.011c-3.396.36-6.837.676-10.326.941-.138.009-.276.017-.413.033-9.462.708-19.258 1.068-29.356 1.068-10.131 0-19.958-.368-29.46-1.084l-.062-.005c-38.425-2.902-71.41-11.592-96.517-25.566a7.496 7.496 0 0 0-10.2 2.905 7.499 7.499 0 0 0 2.905 10.2c5.242 2.918 10.791 5.621 16.627 8.105-.31 2.372-.606 4.779-.887 7.218-9.321 3.132-18.058 3.57-24.948 1.193-5.094-1.758-8.422-4.931-10.172-9.698-2.899-7.898-8.7-14.194-16.336-17.728-7.636-3.534-16.188-3.883-24.082-.983-16.301 5.984-24.693 24.115-18.709 40.418 8.323 22.672 25.635 39.552 48.745 47.53 9.537 3.292 19.733 4.962 30.305 4.962 3.526 0 7.103-.195 10.7-.57-.167 4.79-.303 9.496-.414 14.082l-.043-.015c-26.97-10.272-50.7-10.831-70.525-1.66-16.646 7.696-28.942 21.634-35.562 40.308a22.344 22.344 0 0 0 .894 17.193 22.347 22.347 0 0 0 12.789 11.525 22.442 22.442 0 0 0 7.52 1.297c9.504 0 18.024-6.021 21.201-14.982 1.73-4.877 5.223-11.353 12.041-14.504 8.189-3.786 20.841-2.768 35.63 2.867 8.822 3.361 17.432 5.22 25.739 5.527a31.87 31.87 0 0 0 8.389 5.738 1072.82 1072.82 0 0 0 31.131 13.956c-.369 11.272-.136 23.306.702 35.861C192.593 499.088 206.385 512 222.891 512c.686 0 1.395-.023 2.122-.07 17.326-1.158 30.48-16.196 29.325-33.52-.823-12.332-.953-23.803-.404-34.178.417-.387.821-.788 1.215-1.198 2.993.21 5.987.324 8.943.324 3.373 0 6.733-.149 10.078-.413.633 10.718.534 22.596-.324 35.465-1.155 17.325 12 32.362 29.329 33.52.702.047 1.414.07 2.118.07 10.748 0 20.644-5.408 26.473-14.467a7.499 7.499 0 0 0-2.248-10.365 7.497 7.497 0 0 0-10.365 2.248c-3.26 5.065-8.973 7.955-14.983 7.547-9.074-.607-15.965-8.482-15.359-17.557.798-11.958.966-23.145.53-33.444a21.038 21.038 0 0 0 6.578 7.371 21.071 21.071 0 0 0 19.437 2.379c2.279-.861 4.69-1.804 7.177-2.799.044 3.199.045 6.451-.008 9.744a7.5 7.5 0 0 0 7.501 7.62 7.5 7.5 0 0 0 7.497-7.38c.088-5.506.046-10.92-.126-16.158a1074.056 1074.056 0 0 0 31.129-13.954c11.307-5.292 18.55-16.775 18.452-29.255-.104-13.178-.395-28.592-1.044-44.674 8.444-.304 16.915-1.64 25.233-3.987 23.311-6.573 44.664-21.215 60.125-41.231 10.616-13.739 8.072-33.557-5.67-44.173zM437.395 15.776a14.822 14.822 0 0 1 11.402 7.861c-18.35 4.129-41.615 12.754-62.565 30.675-9.182-6.108-18.986-11.504-29.281-16.132 22.58-17.726 51.295-25.841 80.444-22.404zm-346.605 0c29.144-3.435 57.863 4.68 80.442 22.404-10.296 4.628-20.098 10.024-29.28 16.132-20.95-17.922-44.216-26.546-62.566-30.675a14.824 14.824 0 0 1 11.404-7.861zm9.389 76.778c-.09.107-.171.22-.255.332a158.052 158.052 0 0 0-12.447 18.458C71.545 83.15 72.341 55.58 75.491 38.134c15.796 3.484 35.725 10.64 53.927 25.266a181.64 181.64 0 0 0-13.207 11.475 169.53 169.53 0 0 0-16.032 17.679zm22.245-2.689a157.455 157.455 0 0 1 4.17-4.164c6.388-6.127 13.336-11.777 20.75-16.925h61.658a54.77 54.77 0 0 0 5.545 21.088h-92.123zm87.764-36.088h-36.961c13.313-6.363 27.587-11.325 42.487-14.722a54.774 54.774 0 0 0-5.526 14.722zm53.904 51.996c-22.16 0-40.19-18.03-40.19-40.19s18.029-40.189 40.19-40.189c22.16 0 40.189 18.029 40.189 40.189.001 22.16-18.028 40.19-40.189 40.19zm90.865-51.996h-36.96a54.774 54.774 0 0 0-5.526-14.722c14.899 3.397 29.174 8.358 42.486 14.722zm-41.32 36.088a54.779 54.779 0 0 0 5.545-21.088h61.658c7.415 5.147 14.363 10.798 20.749 16.925a157.455 157.455 0 0 1 4.17 4.164h-92.122zm127.069 21.479a158.174 158.174 0 0 0-12.409-18.409c-.097-.132-.193-.264-.298-.389a169.705 169.705 0 0 0-16.026-17.671A181.64 181.64 0 0 0 398.766 63.4c18.202-14.627 38.13-21.782 53.926-25.266 3.151 17.446 3.948 45.016-11.986 73.21zM66.333 308.32c-3.135-8.538 1.261-18.033 9.799-21.167a16.38 16.38 0 0 1 12.611.515 16.39 16.39 0 0 1 8.556 9.285 31.742 31.742 0 0 0 3.107 6.273c-7.98 8.481-18.705 14.816-27.557 18.137a64.876 64.876 0 0 1-6.516-13.043zm64.537 99.187c-18.864-7.186-35.208-8.041-47.264-2.465-11.556 5.34-17.191 15.513-19.883 23.104a7.512 7.512 0 0 1-7.065 4.995 7.453 7.453 0 0 1-2.505-.435 7.447 7.447 0 0 1-4.262-3.84 7.443 7.443 0 0 1-.298-5.729c5.239-14.78 14.825-25.743 27.721-31.705 16.025-7.412 35.838-6.717 58.891 2.061a61.892 61.892 0 0 0 5.09 1.687c-.038 2.865-.068 5.659-.089 8.351-.02 2.479.262 4.915.796 7.275-3.631-.763-7.347-1.857-11.132-3.299zm11.759-57.266c-12.92 1.65-25.457.493-36.738-3.401-8.728-3.013-16.418-7.6-22.843-13.474 9.668-4.365 20.151-11.197 28.399-19.991a34.805 34.805 0 0 0 5.21 2.285c8.288 2.859 18.035 3.043 28.224.653-.977 11.15-1.709 22.633-2.252 33.928zm23.387 68.962a17.069 17.069 0 0 1-9.812-15.553c.215-27.481 1.245-64.778 4.695-97.168l.001-.008c.285-2.674.588-5.31.907-7.909 17.083 5.805 36.187 9.96 56.918 12.395a109.392 109.392 0 0 0 7.624 10.929v72.107c-12.675 3.328-22.052 14.881-22.052 28.585 0 5.621 1.578 10.88 4.314 15.358-14.069-5.714-30.48-13.065-42.595-18.736zm58.014 77.761c-9.125.582-16.971-6.349-17.572-15.358-.665-9.969-.929-19.57-.804-28.688 2.486.994 4.896 1.937 7.174 2.797a21.011 21.011 0 0 0 21.008-3.582h.014c1.639 0 3.246-.14 4.813-.398-.17 8.674.06 17.928.71 27.673.604 9.075-6.285 16.95-15.343 17.556zm9.819-59.83c-8.024 0-14.553-6.528-14.553-14.553 0-8.024 6.528-14.553 14.553-14.553 8.025 0 14.553 6.528 14.553 14.553-.001 8.025-6.529 14.553-14.553 14.553zm11.715-41.677a29.27 29.27 0 0 0-4.216-1.46v-56.33c6.147 5.429 11.669 9.267 15.2 11.516-.29 13.611-2.232 30.101-10.984 46.274zm41.272 30.573a111.242 111.242 0 0 1-24.004 2.323c.371-1.867.57-3.796.57-5.771a29.4 29.4 0 0 0-5.915-17.717c12.399-21.62 13.899-43.826 14.08-55.638 3.527-2.242 9.08-6.093 15.27-11.56l-.001 88.363zm0-109.592c-8.716 9.932-17.868 16.569-22.743 19.745-4.881-3.179-14.031-9.815-22.743-19.745v-3.544c7.416.408 14.998.62 22.743.62 7.75 0 15.332-.212 22.743-.619v3.543zm75.332 102.765c-14.984 7.014-36.542 16.602-52.11 22.479a6.003 6.003 0 0 1-5.608-.684 5.988 5.988 0 0 1-2.614-4.99V321.889a109.385 109.385 0 0 0 7.616-10.917c20.748-2.432 39.839-6.596 56.925-12.407 4.18 34.071 5.369 75.328 5.603 105.084a17.073 17.073 0 0 1-9.812 15.554zm44.929-78.767c-7.223 2.038-14.565 3.19-21.869 3.44-.601-11.079-1.393-22.239-2.428-33.003 11.129-.061 22.021-3.331 31.769-9.422 3.788 7.842 10.687 17.765 22.812 24.275-9.291 6.652-19.55 11.684-30.284 14.71zm52.326-35.963a105.92 105.92 0 0 1-9.312 10.505c-14.196-4.912-20.628-15.827-23.432-23.155a76.243 76.243 0 0 0 6.64-7.515 16.376 16.376 0 0 1 10.949-6.276 16.38 16.38 0 0 1 12.185 3.307c7.197 5.557 8.529 15.937 2.97 23.134zM164.371 172.752c-10.895-1.44-33.262.231-42.645 2.578a7.501 7.501 0 0 0 3.637 14.553c7.735-1.934 28.198-3.431 37.044-2.26a7.505 7.505 0 0 0 8.418-6.453 7.503 7.503 0 0 0-6.454-8.418zm34.65-14.078v-12.047c0-4.143-3.357-7.5-7.5-7.5s-7.5 3.357-7.5 7.5v12.047c0 4.143 3.357 7.5 7.5 7.5s7.5-3.357 7.5-7.5zm-30.632 39.687c-10.62 2.819-30.661 12.888-38.445 18.633a7.5 7.5 0 0 0 8.908 12.068c6.414-4.734 24.764-13.914 33.387-16.203a7.5 7.5 0 0 0-3.85-14.498zm95.703-158.944c-14.428 0-26.165 11.737-26.165 26.164s11.738 26.165 26.165 26.165c14.428 0 26.164-11.738 26.164-26.165 0-14.426-11.737-26.164-26.164-26.164zm0 37.33c-6.157 0-11.166-5.009-11.166-11.166 0-6.156 5.009-11.165 11.166-11.165 6.156 0 11.165 5.009 11.165 11.165-.001 6.159-5.008 11.166-11.165 11.166z"/></svg>