<svg xmlns="http://www.w3.org/2000/svg" viewBox="0 0 512 512" style="enable-background:new 0 0 512 512" xml:space="preserve"><path style="fill:#eda751" d="M221.238 471.59c-1.875 0-3.781-.251-5.676-.778-11.249-3.129-17.831-14.783-14.703-26.032l10.88-39.122c3.128-11.247 14.778-17.834 26.033-14.702 11.249 3.129 17.831 14.783 14.703 26.032l-10.88 39.122c-2.602 9.353-11.1 15.48-20.357 15.48zM367.448 425.468c-9.828 0-19.13-2.783-28.09-8.362-12.529-7.802-22.238-19.69-32.516-32.277l-.749-.918c-4.616-5.651-3.778-13.975 1.873-18.592 5.652-4.617 13.975-3.777 18.592 1.874l.751.921c20.389 24.965 31.169 36.598 53.268 28.176 44.068-16.786 72.578-17.05 98.403-.91 6.189 3.867 8.069 12.019 4.201 18.207-3.867 6.188-12.018 8.071-18.207 4.201-18.149-11.341-39.172-10.448-74.991 3.197-7.84 2.986-15.329 4.483-22.535 4.483z"/><path style="fill:#fcd79d" d="M478.981 395.379a82.63 82.63 0 0 0-9.674-5.207c-5.456 3.712-12.092 11.949-13.068 23.209a51.956 51.956 0 0 1 8.735 4.407c6.19 3.87 14.34 1.987 18.207-4.201 3.869-6.189 1.988-14.341-4.2-18.208z"/><path style="fill:#eda751" d="M312.334 504.5c-.33 0-.663-.007-.997-.023-11.663-.541-20.678-10.435-20.138-22.099.915-19.708-1.67-47.157-7.581-58.978-5.221-10.444-.989-23.142 9.454-28.364 10.445-5.221 23.142-.988 28.364 9.454 11.345 22.689 12.88 60.867 11.999 79.848-.525 11.331-9.877 20.162-21.101 20.162zM135.982 388.276c-15.188 0-29.954-5.129-44.118-15.356-9.466-6.835-11.599-20.05-4.764-29.516s20.049-11.599 29.516-4.764c20.027 14.46 35.207 6.843 63.787-16.97 8.968-7.473 22.3-6.262 29.775 2.711 7.474 8.97 6.26 22.301-2.711 29.775-14.275 11.893-29.745 24.018-48.063 30.152-7.9 2.647-15.715 3.968-23.422 3.968zM379.16 365.859c-16.159 0-31.543-3.441-42.525-9.279-10.309-5.481-14.224-18.281-8.742-28.591 5.481-10.308 18.278-14.225 28.591-8.742 13.7 7.285 47.476 5.908 56.586-8.271 6.311-9.823 19.391-12.668 29.214-6.358 9.823 6.312 12.669 19.392 6.358 29.214-14.692 22.864-43.116 32.027-69.482 32.027z"/><path style="opacity:.2;fill:#a35f00;enable-background:new" d="M237.772 390.956c-11.255-3.132-22.905 3.455-26.033 14.703l-9.222 33.16c11.648 7.816 24.88 13.67 39.143 17.055l10.814-38.886c3.129-11.249-3.454-22.903-14.702-26.032zM321.436 404.492c-5.221-10.442-17.918-14.676-28.364-9.455-10.443 5.221-14.676 17.92-9.454 28.364 3.636 7.271 6.011 20.456 7.09 34.115 14.788-2.466 28.621-7.561 40.942-14.744-1.776-13.784-4.93-27.712-10.214-38.28z"/><path style="opacity:.2;fill:#a35f00;enable-background:new" d="M374.985 398.045c-18.478 4.502-29.084-7.169-47.675-29.932l-.752-.921c-4.617-5.651-12.94-6.491-18.592-1.874s-6.49 12.942-1.874 18.592l.75.918c10.278 12.587 19.988 24.475 32.516 32.277 5.343 3.327 10.809 5.652 16.434 6.993 7.654-7.733 14.139-16.5 19.193-26.053zM383.915 323.384c-10.488.74-21.102-.771-27.432-4.137-10.312-5.482-23.109-1.566-28.591 8.742-5.481 10.309-1.567 23.109 8.742 28.591 10.982 5.839 26.366 9.279 42.525 9.279 2.221 0 4.457-.071 6.698-.204a103.955 103.955 0 0 0 1.311-16.473 103.652 103.652 0 0 0-3.253-25.798zM180.403 321.671c-10.4 8.665-19.021 15.173-26.751 19.266a104.723 104.723 0 0 0-.328 8.246 103.74 103.74 0 0 0 6.107 35.116c18.306-6.138 33.767-18.256 48.035-30.142 8.97-7.474 10.184-20.804 2.711-29.775-7.474-8.973-20.806-10.184-29.774-2.711z"/><ellipse style="fill:#fcd690" cx="270.249" cy="349.18" rx="97.51" ry="90.61"/><path style="opacity:.15;fill:#c17a00;enable-background:new" d="M256.008 438.826c-44.559-29.255-30.749-89.213-23.185-115.435v-57.897c-35.278 13.638-60.085 45.969-60.085 83.689 0 45.546 36.167 83.238 83.27 89.643z"/><path style="fill:#eda751" d="M210.907 192.07c19.08-16.01 31.82-42.887 4.907-82.618-27.125-40.045-67.511-50.083-99.04-46.368a19.717 19.717 0 0 0-16.547 13.884c-9.133 30.405-6.261 71.92 28.466 105.587 34.453 33.404 63.133 25.525 82.214 9.515z"/><path style="fill:#ff91ab" d="M98.957 81.621c-7.488 29.895-3.254 68.952 29.734 100.935 29.864 28.953 55.384 26.884 74.081 15.395-12.858-87.291-69.029-110.439-103.815-116.33z"/><path style="fill:#eda751" d="M329.587 192.07c-19.08-16.01-31.82-42.887-4.907-82.618 27.125-40.045 67.511-50.083 99.04-46.368a19.717 19.717 0 0 1 16.547 13.884c9.133 30.405 6.26 71.92-28.466 105.587-34.453 33.404-63.134 25.525-82.214 9.515z"/><path style="fill:#ff91ab" d="M441.536 81.621c7.487 29.895 3.254 68.952-29.735 100.935-29.863 28.953-55.384 26.884-74.081 15.395 12.86-87.291 69.03-110.439 103.816-116.33z"/><path style="fill:#ffdc9c" d="M436.254 216.235c0 75.903-74.324 109.148-166.007 109.148S104.24 292.138 104.24 216.235 178.564 78.8 270.247 78.8s166.007 61.532 166.007 137.435z"/><path style="opacity:.15;fill:#c17a00;enable-background:new" d="M181.607 100.019c-46.492 24.355-77.368 67.298-77.368 116.215 0 65.249 54.923 98.974 128.583 107.156-105.736-63.158-91.946-148.113-51.215-223.371z"/><ellipse style="fill:#ff91ab" cx="188.789" cy="219.44" rx="30.06" ry="23.936"/><ellipse style="fill:#ff91ab" cx="351.709" cy="219.44" rx="30.06" ry="23.936"/><path style="fill:#495059" d="M313.921 165.996a6.623 6.623 0 0 0-4.519 6.28v17.359c0 13.441 10.452 24.889 23.885 25.367 14.102.501 25.692-10.782 25.692-24.772v-17.953a6.623 6.623 0 0 0-4.519-6.28 63.797 63.797 0 0 0-40.539-.001zM218.445 122.214a38.537 38.537 0 0 1-34.34-21.047l-5.975-11.73c-5.797-11.379 4.614-24.252 16.954-20.963l10.331 2.753c7.446 1.984 14.74-3.727 14.537-11.43a54.672 54.672 0 0 1 .307-7.388 53.103 53.103 0 0 1 2.466-11.199c15.141-44.947 79.905-44.947 95.046 0a53.09 53.09 0 0 1 2.466 11.199c.272 2.497.371 4.963.307 7.388-.203 7.703 7.091 13.415 14.537 11.43l10.331-2.753c12.34-3.289 22.751 9.583 16.954 20.963l-5.975 11.73a38.54 38.54 0 0 1-34.34 21.047H218.445z"/><path style="fill:#fff" d="M255.933 85.238a7.5 7.5 0 0 1-5.304-12.803l28.627-28.627a7.5 7.5 0 0 1 10.607 10.607l-28.627 28.627a7.477 7.477 0 0 1-5.303 2.196z"/><path style="fill:#fff" d="M284.56 85.238a7.481 7.481 0 0 1-5.304-2.196l-28.627-28.627a7.5 7.5 0 0 1 10.607-10.607l28.627 28.627a7.5 7.5 0 0 1-5.303 12.803z"/><path style="fill:#b77866" d="m103.4 335.272-26.382 7.069 8.731 32.585c1.952 7.285 9.44 11.608 16.725 9.656 7.285-1.952 11.608-9.44 9.656-16.725l-8.73-32.585z"/><path style="fill:#dee2e5" d="M35.108 137.705a176.172 176.172 0 0 0 11.51 134.127l23.937 46.244 26.31-7.05-46.349-172.977c-2.077-7.751-12.987-7.995-15.408-.344z"/><path style="fill:#bd4568" d="M123.813 329.802 56.606 347.81a6.568 6.568 0 0 1-8.044-4.644l-3.1-11.566a6.567 6.567 0 0 1 4.644-8.044l67.207-18.008a6.568 6.568 0 0 1 8.044 4.644l3.099 11.566a6.566 6.566 0 0 1-4.643 8.044z"/><path d="M482.955 389.019c-28.068-17.541-58.502-17.469-105.048.262-4.972 1.894-9.055 2.574-12.841 2.037a93.175 93.175 0 0 0 7.016-18.172c2.365.141 4.731.215 7.079.215 33.185 0 61.517-13.261 75.79-35.472 8.537-13.285 4.674-31.039-8.613-39.579-13.286-8.534-31.042-4.673-39.578 8.613-4.622 7.193-21.812 10.296-35.369 8.721 7.167-2.945 13.874-6.25 20.065-9.918 34.214-20.272 52.299-51.217 52.299-89.49 0-14.382-2.56-28.63-7.513-42.257a7.377 7.377 0 0 0-.465-1.216 127.646 127.646 0 0 0-1.965-4.922c18.235-27.449 23.229-61.102 13.638-93.029a27.17 27.17 0 0 0-22.852-19.175c-20.939-2.468-42.381 1.109-61.068 10.055-5.494-4.668-12.847-6.383-20.052-4.464l-10.33 2.753c-1.72.457-2.983-.269-3.583-.741-.589-.465-1.571-1.506-1.525-3.246a62.456 62.456 0 0 0-.349-8.396 60.774 60.774 0 0 0-2.814-12.781C316.934 15.236 295.49 0 270.247 0s-46.688 15.236-54.63 38.816a60.659 60.659 0 0 0-2.814 12.779 62.486 62.486 0 0 0-.349 8.398c.046 1.739-.937 2.78-1.525 3.245-.6.473-1.864 1.199-3.583.741l-10.33-2.753c-7.204-1.919-14.559-.205-20.052 4.464-18.689-8.947-40.137-12.524-61.068-10.056A27.17 27.17 0 0 0 93.044 74.81c-9.591 31.926-4.596 65.579 13.638 93.028-6.534 15.459-9.942 31.836-9.942 48.395 0 30.77 11.303 56.336 33.595 75.988 11.167 9.844 24.836 17.965 40.864 24.307a93.694 93.694 0 0 0-1.469 4.178c-20.548 16.478-31.06 20.79-42.221 15.729a13.944 13.944 0 0 0 6.787-5.946 13.97 13.97 0 0 0 1.404-10.675l-3.098-11.564c-.973-3.63-3.301-6.664-6.555-8.543s-7.045-2.38-10.676-1.405l-13.205 3.538-44.405-165.733c-1.802-6.726-7.69-11.35-14.652-11.505-.121-.002-.24-.004-.36-.004-6.81 0-12.727 4.32-14.79 10.844-14.772 46.689-10.511 96.351 12 139.837l19.652 37.966-11.445 3.066a13.979 13.979 0 0 0-8.541 6.555 13.967 13.967 0 0 0-1.405 10.676l3.099 11.566c1.683 6.277 7.382 10.427 13.594 10.427a14.06 14.06 0 0 0 3.637-.48l13.168-3.528 6.79 25.341a21.015 21.015 0 0 0 9.857 12.846 21.032 21.032 0 0 0 16.054 2.114 21.417 21.417 0 0 0 3.749-1.398c9.078 3.548 18.417 5.348 27.816 5.348 8.495 0 17.177-1.466 25.803-4.357 3.819-1.278 7.613-2.829 11.458-4.679 5.955 13.375 14.986 25.264 26.27 34.889l-5.879 21.14c-3.537 12.714 2.126 25.847 12.962 32.292l-4.066 14.623a7.499 7.499 0 0 0 7.23 9.51 7.504 7.504 0 0 0 7.222-5.493l4.065-14.62c.064 0 .128.007.193.007 12.806 0 24.148-8.623 27.582-20.971l3.415-12.277a112.513 112.513 0 0 0 29.742.834c1.576 11.03 2.248 24.19 1.73 35.356-.732 15.776 11.507 29.206 27.301 29.939.444.02.888.029 1.326.029 10.66 0 20.37-5.868 25.341-15.315a7.5 7.5 0 0 0-13.276-6.984 13.604 13.604 0 0 1-12.714 7.284c-7.514-.349-13.342-6.745-12.993-14.259.574-12.367-.16-26.522-1.927-38.607a108.592 108.592 0 0 0 25.958-9.983c1.883 10.332 2.727 20.515 3.102 27.999a7.5 7.5 0 1 0 14.98-.748c-.469-9.4-1.646-22.825-4.539-35.972.348-.264.696-.527 1.04-.795 9.561 5.541 19.691 8.347 30.142 8.347 8.058 0 16.538-1.674 25.206-4.975 38.416-14.635 55.104-12.12 68.345-3.847 4.692 2.933 10.243 3.86 15.638 2.62a20.575 20.575 0 0 0 12.906-9.206c6.048-9.684 3.093-22.488-6.592-28.54zm-63.576-73.989c4.067-6.327 12.523-8.167 18.851-4.102 6.328 4.066 8.169 12.522 4.103 18.85-11.5 17.897-35.115 28.581-63.171 28.581-1.447 0-2.902-.042-4.358-.103a92.33 92.33 0 0 0-1.373-27.406c16.868 1.065 37.76-3.076 45.948-15.82zM53.278 268.385c-20.672-39.936-24.585-85.542-11.02-128.417.078-.244.15-.398.515-.368.396.009.433.145.499.391L87.68 305.725l-13.238 3.547-21.164-40.887zm50.994 106.085a6.115 6.115 0 0 1-3.738 2.868 6.12 6.12 0 0 1-4.671-.615 6.113 6.113 0 0 1-2.869-3.738l-6.79-25.34 11.893-3.187 6.79 25.341a6.11 6.11 0 0 1-.615 4.671zm-.397-47.089a7.33 7.33 0 0 0-.474.127l-28.319 7.588-.004.001-.004.001-19.508 5.227-2.616-9.767 19.354-5.186.009-.002 26.49-7.098.006-.001.006-.002 19.543-5.237 2.616 9.767-17.099 4.582zm53.145 49.816c-7.088 2.375-14.166 3.579-21.038 3.579-5.707 0-11.407-.855-17.031-2.513a21.01 21.01 0 0 0 .425-12.348l-5.344-19.944c7.776 5.194 15.127 7.39 22.246 7.39 10.019 0 19.576-4.344 29.2-10.768a93.634 93.634 0 0 0-.24 6.589 91.87 91.87 0 0 0 3.001 23.302c-3.803 1.911-7.511 3.472-11.219 4.713zm268.831-225.168a137.431 137.431 0 0 0-5.111-8.011c-8.237-11.96-18.512-22.874-30.4-32.399 15.327-12.048 31.961-18.135 45.372-21.195 2.561 14.975 2.986 37.967-9.861 61.605zm-56.804-59.188c2.304-4.522 2.976-9.465 2.096-14.162 15.878-7.338 33.995-10.23 51.7-8.146a12.176 12.176 0 0 1 8.776 5.442c-15.937 3.729-35.808 11.282-53.822 26.516a175.797 175.797 0 0 0-10.422-6.367l1.672-3.283zM185.636 78.172c.579-.716 2.476-2.72 5.534-2.72.614 0 1.275.081 1.982.27l10.33 2.753c5.873 1.565 11.973.302 16.741-3.463 4.751-3.751 7.385-9.368 7.225-15.411a47.384 47.384 0 0 1 .267-6.379 45.616 45.616 0 0 1 2.117-9.617C236.936 22.515 255.367 15 270.247 15c14.88 0 33.31 7.515 40.415 28.604a45.647 45.647 0 0 1 2.117 9.619c.232 2.123.321 4.27.267 6.377-.16 6.044 2.474 11.661 7.225 15.412 4.769 3.766 10.872 5.029 16.741 3.463l10.33-2.753c4.227-1.128 6.82 1.591 7.516 2.45.695.859 2.809 3.966.824 7.86l-5.975 11.73c-5.326 10.456-15.925 16.951-27.658 16.951H218.445c-11.733 0-22.331-6.495-27.657-16.951l-.983-1.93-.005-.012-.006-.01-4.982-9.779c-1.984-3.893.129-7 .824-7.859zm-5.401 31.154c8.485 12.69 22.667 20.388 38.21 20.388h103.604c15.543 0 29.725-7.699 38.211-20.389a161.676 161.676 0 0 1 13.45 8.491c.282.228.576.432.881.613 19.564 13.973 34.418 31.462 43.582 50.965.026.078.047.157.076.234-16.501 1.522-33.861 2.047-51.812 1.566a14.103 14.103 0 0 0-9.595-12.308c-14.604-4.894-30.694-4.894-45.303 0h-.001a14.101 14.101 0 0 0-8.028 6.85c-61.833-8.867-113.892-25.991-145.984-40.856a151.323 151.323 0 0 1 8.389-6.458c.295-.176.58-.374.853-.593a161.243 161.243 0 0 1 13.467-8.503zm171.244 63.585v17.317a17.15 17.15 0 0 1-5.285 12.442c-3.407 3.287-7.917 4.993-12.641 4.835-9.182-.326-16.651-8.344-16.651-17.871V172.91c11.176-3.6 23.403-3.6 34.577.001zM117.65 70.532c17.709-2.083 35.824.808 51.701 8.146-.88 4.698-.208 9.64 2.096 14.163l1.673 3.283a175.823 175.823 0 0 0-10.423 6.367c-18.013-15.234-37.885-22.787-53.821-26.516a12.172 12.172 0 0 1 8.774-5.443zm-12.868 19.892c13.411 3.06 30.045 9.147 45.372 21.195a161.829 161.829 0 0 0-10.668 9.346 7.513 7.513 0 0 0-.664.625c-7.176 6.944-13.576 14.453-19.069 22.427a136.382 136.382 0 0 0-5.111 8.011c-12.847-23.638-12.421-46.629-9.86-61.604zM234.369 454.1c-1.636 5.882-7.036 9.99-13.131 9.99-1.231 0-2.462-.169-3.66-.501l-.008-.003-.006-.001c-7.242-2.019-11.494-9.551-9.479-16.794l4.375-15.733a107.974 107.974 0 0 0 25.153 11.378l-3.244 11.664zm35.878-21.809c-49.631 0-90.009-37.282-90.009-83.108a76.956 76.956 0 0 1 3.122-21.781 77.937 77.937 0 0 1 2.007-5.938c8.722 2.68 18.01 4.922 27.89 6.686a7.502 7.502 0 0 0 2.637-14.766c-11.535-2.06-22.175-4.785-31.924-8.135a7.61 7.61 0 0 0-.844-.284c-17.216-6.014-31.572-14.034-42.872-23.996-18.921-16.679-28.515-38.459-28.515-64.735 0-15.755 3.419-31.033 9.849-45.27a7.455 7.455 0 0 0 .731-1.569c5.675-12.079 13.527-23.385 23.339-33.56 32.687 15.979 88.976 35.229 156.243 44.821v8.978c0 17.51 13.96 32.252 31.118 32.861.397.015.793.021 1.188.021 6.41 0 12.529-1.858 17.769-5.335 1.211 3.176 4.481 5.226 7.984 4.766 7.56-1 25.707.322 32.306 1.972a7.54 7.54 0 0 0 1.824.226 7.5 7.5 0 0 0 1.813-14.779c-7.325-1.83-23.547-3.196-33.949-2.637 2.947-4.934 4.524-10.584 4.524-16.502v-4.036c4.283.111 8.545.187 12.763.187 15.406 0 30.35-.742 44.658-2.219 3.184 10.333 4.854 21.087 4.854 32.073 0 33.148-15.122 58.915-44.945 76.586-8.021 4.752-17.021 8.85-26.887 12.281-.086.029-.172.056-.257.088-24.124 8.348-53.427 12.693-86.417 12.693-7.052 0-14.06-.204-20.828-.607-4.153-.273-7.687 2.906-7.933 7.04a7.499 7.499 0 0 0 7.04 7.933c7.065.421 14.373.635 21.721.635 31.767 0 60.458-3.904 84.875-11.429a78.009 78.009 0 0 1 1.008 2.796 76.882 76.882 0 0 1 4.125 24.932c.001 45.829-40.377 83.111-90.008 83.111zm206.575-22.68a5.672 5.672 0 0 1-3.56 2.539 5.654 5.654 0 0 1-4.313-.724c-20.428-12.766-43.319-12.048-81.635 2.549-6.957 2.649-13.641 3.992-19.867 3.992-6.348 0-12.394-1.345-18.331-4.089a100.13 100.13 0 0 0 7.68-9.207c8.084 2.823 16.648 2.362 26.451-1.375 41.593-15.844 68.178-16.296 91.758-1.558a5.72 5.72 0 0 1 1.817 7.873zM350.951 244.162c7.37 1.956 23.646 10.094 29.118 14.133a7.465 7.465 0 0 0 4.448 1.466 7.5 7.5 0 0 0 4.46-13.534c-6.918-5.106-24.733-14.056-34.177-16.563a7.5 7.5 0 0 0-9.174 5.324 7.501 7.501 0 0 0 5.325 9.174zm-165.258-14.498c-9.44 2.507-27.257 11.455-34.177 16.563a7.5 7.5 0 0 0 8.908 12.068c5.473-4.039 21.749-12.177 29.118-14.133a7.5 7.5 0 0 0 5.324-9.174 7.499 7.499 0 0 0-9.173-5.324zm84.554-18.455c8.63 0 16.835-3.737 22.513-10.254a7.498 7.498 0 0 0-.728-10.581 7.498 7.498 0 0 0-10.581.728 14.86 14.86 0 0 1-11.204 5.107 14.864 14.864 0 0 1-11.204-5.108 7.501 7.501 0 0 0-11.309 9.855 29.862 29.862 0 0 0 22.513 10.253zm-63.944-33.766a7.499 7.499 0 0 0-7.5 7.5v10.614c0 4.143 3.357 7.5 7.5 7.5s7.5-3.357 7.5-7.5v-10.614a7.5 7.5 0 0 0-7.5-7.5zm-25.771 44.506c4.096.538 7.875-2.346 8.418-6.453a7.501 7.501 0 0 0-6.453-8.418c-9.682-1.278-29.565.205-37.907 2.29a7.5 7.5 0 0 0 3.637 14.553c6.598-1.651 24.743-2.974 32.305-1.972z"/></svg>