<svg xmlns="http://www.w3.org/2000/svg" viewBox="0 0 512 512" style="enable-background:new 0 0 512 512" xml:space="preserve"><path style="fill:#495059" d="M241.924 494.103H76.477a6.814 6.814 0 0 1-6.814-6.814V365.487c0-7.255 5.881-13.136 13.136-13.136h145.989c7.255 0 13.136 5.881 13.136 13.136v128.616z"/><path style="fill:#7694e4" d="M241.924 405.274H69.662v82.014a6.814 6.814 0 0 0 6.814 6.814h165.447l.001-88.828z"/><g style="opacity:.1"><path d="M155.793 481.578a7.5 7.5 0 0 1-7.5-7.5v-48.78c0-4.143 3.358-7.5 7.5-7.5s7.5 3.357 7.5 7.5v48.78a7.5 7.5 0 0 1-7.5 7.5zM120.307 481.578a7.5 7.5 0 0 1-7.5-7.5v-48.78c0-4.143 3.358-7.5 7.5-7.5s7.5 3.357 7.5 7.5v48.78a7.5 7.5 0 0 1-7.5 7.5zM191.28 481.578a7.5 7.5 0 0 1-7.5-7.5v-48.78c0-4.143 3.358-7.5 7.5-7.5s7.5 3.357 7.5 7.5v48.78a7.5 7.5 0 0 1-7.5 7.5z"/></g><path style="fill:#eda751" d="M62.354 465.958c-2.982 0-5.98-1.015-8.434-3.093-5.505-4.663-6.189-12.904-1.528-18.409 16.244-19.187 45.612-23.447 87.284-12.665 18.045 4.67 27.776-7.874 44.083-39.679 5.342-10.421 10.388-20.263 16.573-27.834 4.564-5.586 12.793-6.415 18.38-1.852 5.587 4.565 6.416 12.793 1.852 18.38-4.433 5.427-8.865 14.072-13.558 23.225-6.757 13.18-14.416 28.119-25.032 38.947-13.878 14.154-30.313 18.899-48.842 14.105-30.258-7.829-51.852-6.316-60.804 4.254a13.03 13.03 0 0 1-9.974 4.621z"/><path style="fill:#fcd79d" d="M52.392 444.456c-4.661 5.505-3.978 13.746 1.528 18.409a13.009 13.009 0 0 0 8.434 3.093c3.708 0 7.392-1.571 9.975-4.622 1.17-1.382 2.562-2.604 4.155-3.676-2.668-11.786-12.113-18.215-17.524-19.585a47.075 47.075 0 0 0-6.568 6.381z"/><path style="fill:#eda751" d="M250.083 504.5c-10.691 0-19.806-8.16-20.79-19.013-2.337-25.78-11.09-55.06-20.361-68.11-6.685-9.41-4.476-22.456 4.933-29.141 9.409-6.683 22.456-4.476 29.141 4.934 15.746 22.165 25.366 60.442 27.914 88.543 1.042 11.495-7.431 21.658-18.926 22.7-.641.058-1.279.087-1.911.087zM127.771 407.389c-7.853 0-15.377-4.447-18.934-12.027-9.315-19.852-8.072-40.539 3.409-56.754 13.975-19.738 40.95-30.167 70.404-27.201 11.484 1.153 19.859 11.399 18.705 22.883-1.154 11.485-11.402 19.862-22.884 18.705-16.166-1.623-27.976 3.926-32.112 9.767-1.093 1.544-3.998 5.647.318 14.847 4.903 10.449.407 22.894-10.042 27.797a20.845 20.845 0 0 1-8.864 1.983z"/><path style="opacity:.2;fill:#a35f00;enable-background:new" d="M182.65 311.406c-12.541-1.263-24.627-.089-35.457 3.189a102.872 102.872 0 0 0-2.771 53.436c.201-2.801 1.338-4.424 1.937-5.271 4.136-5.841 15.947-11.389 32.112-9.767 11.482 1.157 21.73-7.22 22.884-18.705 1.154-11.483-7.221-21.728-18.705-22.882z"/><path style="fill:#eda751" d="M313.009 498.714a20.82 20.82 0 0 1-14.089-5.468c-8.522-7.784-9.121-21.003-1.337-29.526 4.208-4.607 5.974-9.604 5.556-15.723-.784-11.489-9.114-23.271-12.224-25.913-9.218-6.807-11.242-19.788-4.501-29.082 6.777-9.342 19.845-11.424 29.188-4.646 10.532 7.638 26.505 29.594 29.042 54.49 1.879 18.438-3.723 35.404-16.199 49.064a20.845 20.845 0 0 1-15.436 6.804zm-22.013-76.571.066.048-.066-.048zM372.961 378.854c-27.825 0-50.372-22.208-56.964-29.435-7.778-8.529-7.169-21.747 1.359-29.525 8.528-7.777 21.747-7.169 29.525 1.358 9.062 9.935 20.526 16.546 27.26 15.733 5.513-.671 10.257-7.421 13.266-12.966 5.505-10.144 18.193-13.906 28.337-8.399 10.144 5.505 13.905 18.193 8.399 28.337-13.952 25.708-32.147 32.962-44.954 34.52-2.1.256-4.18.377-6.228.377z"/><path style="opacity:.2;fill:#a35f00;enable-background:new" d="M218.712 362.426c-5.586-4.563-13.815-3.734-18.38 1.852-6.185 7.571-11.231 17.413-16.573 27.834-5.575 10.872-10.38 19.491-15.013 25.943a114.583 114.583 0 0 0 19.951 17.06c7.281-9.598 13.069-20.866 18.309-31.085 4.693-9.152 9.125-17.798 13.558-23.225 4.564-5.586 3.735-13.814-1.852-18.379z"/><path style="opacity:.2;fill:#a35f00;enable-background:new" d="M266.864 454.977c-4.676-22.466-12.736-46.154-23.856-61.807-6.685-9.41-19.733-11.617-29.141-4.934-9.41 6.685-11.618 19.732-4.933 29.141 5.169 7.276 10.176 19.601 14.001 33.549a122.133 122.133 0 0 0 33.066 4.534c3.663.001 7.285-.168 10.863-.483zM315.603 388.356c-9.343-6.778-22.411-4.696-29.188 4.646-6.741 9.294-4.717 22.275 4.501 29.082 2.938 2.496 10.529 13.154 12.019 24.014 13.783-5.773 26.155-14.006 36.482-24.105-6.215-15.684-16.371-28.239-23.814-33.637zM371.807 346.475c0-3.213-.157-6.391-.448-9.534-6.827-.879-16.568-7.016-24.479-15.69-7.778-8.527-20.996-9.135-29.525-1.358-8.528 7.778-9.137 20.996-1.359 29.525 6.091 6.677 25.805 26.129 50.714 29.052a102.654 102.654 0 0 0 5.097-31.995z"/><ellipse style="fill:#fcd690" cx="256" cy="346.48" rx="96.39" ry="89.57"/><path style="opacity:.15;fill:#c17a00;enable-background:new" d="M241.924 435.093c-44.049-28.92-30.397-88.193-22.92-114.114v-57.235c-34.875 13.482-59.397 45.443-59.397 82.732 0 45.025 35.753 82.286 82.317 88.617z"/><path style="fill:#eda751" d="M197.339 191.16c18.862-15.827 31.456-42.396 4.851-81.673-26.815-39.587-66.739-49.51-97.907-45.838a19.49 19.49 0 0 0-16.358 13.726c-9.029 30.057-6.189 71.098 28.14 104.379 34.059 33.021 62.412 25.233 81.274 9.406z"/><path style="fill:#ff91ab" d="M86.67 81.974c-7.402 29.553-3.217 68.164 29.394 99.78 29.522 28.622 54.751 26.576 73.234 15.219-12.712-86.292-68.24-109.175-102.628-114.999z"/><path style="fill:#eda751" d="M314.661 191.16c-18.862-15.827-31.456-42.396-4.851-81.673 26.815-39.587 66.739-49.51 97.907-45.838a19.49 19.49 0 0 1 16.358 13.726c9.029 30.057 6.189 71.098-28.14 104.379-34.059 33.021-62.412 25.233-81.274 9.406z"/><path style="fill:#ff91ab" d="M425.33 81.974c7.402 29.553 3.217 68.164-29.394 99.78-29.522 28.622-54.751 26.576-73.234 15.219 12.712-86.292 68.24-109.175 102.628-114.999z"/><path style="fill:#ffdc9c" d="M420.108 215.048c0 75.035-73.474 107.899-164.108 107.899S91.892 290.083 91.892 215.048 165.365 79.185 256 79.185s164.108 60.828 164.108 135.863z"/><path style="opacity:.15;fill:#c17a00;enable-background:new" d="M168.374 100.162c-45.96 24.077-76.483 66.528-76.483 114.886 0 64.503 54.295 97.842 127.112 105.931-104.526-62.437-90.894-146.421-50.629-220.817z"/><ellipse style="fill:#ff91ab" cx="175.47" cy="218.21" rx="29.714" ry="23.663"/><ellipse style="fill:#ff91ab" cx="336.53" cy="218.21" rx="29.714" ry="23.663"/><path style="fill:#495059" d="M106.211 110.714c-2.521 0-5.078-.59-7.469-1.835-7.934-4.133-11.015-13.914-6.882-21.848 13.952-26.783 37.058-47.39 68.677-61.249C187.824 13.822 220.835 7.5 256 7.5s68.175 6.322 95.463 18.282c31.619 13.859 54.726 34.466 68.677 61.249 4.133 7.934 1.052 17.715-6.882 21.848-7.933 4.132-17.715 1.051-21.847-6.882-10.454-20.067-28.269-35.728-52.952-46.546-23.22-10.178-51.734-15.557-82.459-15.557s-59.239 5.38-82.459 15.557c-24.683 10.818-42.499 26.479-52.952 46.546-2.887 5.542-8.532 8.717-14.378 8.717z"/><path style="fill:#7694e4" d="M87.809 181.975c-30.558-11.122-46.314-44.91-35.191-75.468l2.008-5.516c11.122-30.558 44.91-46.314 75.468-35.191 9.379 3.414 14.214 13.784 10.801 23.163l-29.923 82.213c-3.414 9.377-13.784 14.213-23.163 10.799zM424.191 181.975c30.558-11.122 46.314-44.91 35.191-75.468l-2.008-5.516c-11.122-30.558-44.91-46.314-75.468-35.191-9.379 3.414-14.214 13.784-10.801 23.163l29.923 82.213c3.414 9.377 13.784 14.213 23.163 10.799z"/><path d="M380.242 208.177c-8.254-2.064-27.927-3.534-37.508-2.266a7.5 7.5 0 0 0 1.967 14.871c7.464-.988 25.387.318 31.903 1.947.61.152 1.222.226 1.825.226a7.5 7.5 0 0 0 1.813-14.778zm86.188-104.236-2.008-5.517c-6.064-16.661-18.254-29.964-34.324-37.457a66.318 66.318 0 0 0-23.618-6.087c-13.731-14.756-31.206-26.851-52.007-35.969C326.243 6.54 292.191 0 256 0s-70.243 6.54-98.474 18.912c-20.801 9.118-38.276 21.213-52.006 35.969a66.318 66.318 0 0 0-23.618 6.087c-16.07 7.493-28.26 20.796-34.324 37.457l-2.008 5.517c-6.064 16.662-5.277 34.688 2.216 50.757 7.494 16.07 20.796 28.26 37.458 34.324.614.223 1.235.411 1.857.586a121.354 121.354 0 0 0-2.709 25.439c0 30.132 10.964 55.231 32.587 74.602 7.704 6.902 16.659 12.946 26.776 18.143-15.741 5.01-28.893 14.142-37.63 26.48a60.384 60.384 0 0 0-5.998 10.577H82.798c-11.379 0-20.636 9.257-20.636 20.636v61.462c-5.939 3.274-11.114 7.488-15.494 12.661-7.327 8.652-6.248 21.652 2.405 28.979a20.578 20.578 0 0 0 13.089 4.861v13.839c0 7.893 6.421 14.314 14.314 14.314h151.608c5.206 6.39 13.128 10.398 21.999 10.398.864 0 1.737-.04 2.588-.117 15.594-1.414 27.132-15.252 25.719-30.848-1.119-12.339-3.483-25.751-6.74-38.589a108.873 108.873 0 0 0 20.729-5.046c1.526 3.155 3.006 7.134 3.277 11.108.28 4.099-.767 7.04-3.611 10.154-5.116 5.602-7.745 12.859-7.401 20.438.343 7.578 3.617 14.569 9.217 19.685a28.33 28.33 0 0 0 19.147 7.43c7.961 0 15.606-3.37 20.975-9.246a77.063 77.063 0 0 0 3.614-4.26 7.5 7.5 0 0 0-1.255-10.532 7.499 7.499 0 0 0-10.532 1.255 62.186 62.186 0 0 1-2.902 3.421c-2.57 2.813-6.085 4.362-9.899 4.362a13.36 13.36 0 0 1-9.031-3.506 13.315 13.315 0 0 1-4.349-9.287 13.315 13.315 0 0 1 3.493-9.643c5.606-6.138 8.06-13.102 7.5-21.292-.405-5.934-2.343-11.523-4.459-16.029a104.32 104.32 0 0 0 22.229-15.427c3.755 7.018 7.677 16.635 8.792 27.576.553 5.421.378 10.748-.52 15.831a7.5 7.5 0 0 0 14.772 2.608c1.138-6.446 1.364-13.161.671-19.96-1.273-12.493-5.83-25.613-12.951-37.48 5.332-6.641 9.769-13.941 13.156-21.74 6.941 2.313 13.859 3.488 20.649 3.488 2.387 0 4.788-.144 7.135-.431 14.559-1.773 35.163-9.87 50.64-38.389 3.618-6.667 4.423-14.344 2.268-21.617-2.156-7.272-7.015-13.27-13.681-16.889-6.668-3.618-14.343-4.425-21.618-2.268-7.273 2.156-13.271 7.016-16.889 13.683-3.944 7.268-6.983 9.025-7.573 9.097-2.196.268-9.369-2.406-17.364-9.867a91.771 91.771 0 0 0-1.866-5.462c7.85-3.112 15.155-6.654 21.853-10.622 33.851-20.056 51.743-50.673 51.743-88.54 0-8.539-.913-17.061-2.709-25.439a26.241 26.241 0 0 0 1.857-.586c16.662-6.065 29.964-18.254 37.458-34.324 7.492-16.071 8.279-34.096 2.215-50.759zM359.712 340.763c5.169 2.678 10.507 4.252 15.334 3.668 6.975-.849 13.351-6.513 18.953-16.834a13.304 13.304 0 0 1 7.969-6.455 13.306 13.306 0 0 1 10.2 1.07 13.312 13.312 0 0 1 6.455 7.968 13.314 13.314 0 0 1-1.07 10.2c-12.426 22.897-28.213 29.308-39.269 30.652-6.786.826-13.888.026-21.132-2.368a90.934 90.934 0 0 0 2.56-27.901zM163.548 32.65C189.895 21.104 221.864 15 256 15c34.135 0 66.104 6.104 92.452 17.65 14.677 6.433 27.481 14.448 38.245 23.905a67.7 67.7 0 0 0-7.356 2.195 25.424 25.424 0 0 0-9.699 6.328c-.996-.768-2.015-1.52-3.046-2.264a7.604 7.604 0 0 0-.864-.624c-7.273-5.152-15.379-9.717-24.262-13.61-24.163-10.59-53.718-16.188-85.47-16.188-31.751 0-61.307 5.598-85.47 16.188-8.885 3.894-16.992 8.46-24.266 13.612-.3.183-.582.394-.855.617a118.261 118.261 0 0 0-3.051 2.268 25.417 25.417 0 0 0-9.699-6.328 67.258 67.258 0 0 0-7.356-2.195c10.763-9.455 23.568-17.47 38.245-23.904zm-14.383 46.16c.725-.595 1.476-1.173 2.225-1.753a91.477 91.477 0 0 1 21.777 12.292c-11.111 5.116-21.553 11.281-31.139 18.428l5.914-16.25a25.403 25.403 0 0 0 1.223-12.717zm17.146-11.453a131.83 131.83 0 0 1 10.24-5.038c22.28-9.765 49.753-14.926 79.449-14.926s57.168 5.161 79.449 14.926a132.007 132.007 0 0 1 10.24 5.038c-8.124 4.164-15.693 9.378-22.643 15.583-20.838-7.355-43.532-11.254-67.046-11.254s-46.208 3.9-67.045 11.255c-6.95-6.206-14.52-11.42-22.644-15.584zm194.299 9.7c.749.58 1.5 1.159 2.225 1.753a25.403 25.403 0 0 0 1.223 12.717l5.914 16.25c-9.587-7.147-20.028-13.313-31.139-18.428a91.442 91.442 0 0 1 21.777-12.292zM95.513 175.458c-.018.002-.035.006-.052.009-1.694.24-3.432.063-5.086-.54h-.001c-26.623-9.689-40.398-39.232-30.708-65.854l2.008-5.517c4.694-12.896 14.129-23.193 26.567-28.994a51.254 51.254 0 0 1 20.584-4.811c.038.001.076.005.114.005.113 0 .226-.012.339-.017.216-.003.431-.018.647-.018a51.406 51.406 0 0 1 17.603 3.126c5.478 1.994 8.312 8.072 6.318 13.549l-16.264 44.686-.017.047-13.641 37.479a10.502 10.502 0 0 1-5.466 5.966c-.948.442-1.939.736-2.945.884zm22.854 167.483c8.175-11.546 21.534-19.561 37.627-22.852a90.876 90.876 0 0 0-3.841 29.206c-5.17 2.298-9.3 5.439-11.915 9.13-4.33 6.111-4.448 13.638-.352 22.367 3.119 6.648.28 14.582-6.321 17.76-.065.032-.131.06-.195.094a13.284 13.284 0 0 1-5.601 1.242c-5.179 0-9.946-3.027-12.144-7.714-8.134-17.337-7.136-35.282 2.742-49.233zm35.099 31.481c-2.461-5.246-1.428-6.703-.987-7.326.342-.483.901-1.044 1.63-1.629 2.483 11.651 7.206 22.555 13.73 32.306h-14.044c3.124-7.218 3.267-15.688-.329-23.351zm-76.304-8.936a5.643 5.643 0 0 1 5.636-5.636h12.996c-1.832 12.232.112 25.236 5.903 37.923H77.162v-32.287zm0 47.287h39.936a28.256 28.256 0 0 0 10.673 2.115c3.703 0 7.304-.713 10.725-2.115h24.791c-8.53 12.251-14.259 13.69-21.731 11.757-25.771-6.669-47.285-7.794-64.393-3.427v-8.33h-.001zM66.605 456.49a5.596 5.596 0 0 1-.982.904 7.029 7.029 0 0 0-.31.21 5.562 5.562 0 0 1-2.959.854 5.491 5.491 0 0 1-3.587-1.316 5.568 5.568 0 0 1-.65-7.84c14.225-16.803 41.034-20.251 79.681-10.25 20.351 5.27 32.476-8.037 42.954-25.713a102.12 102.12 0 0 0 8.556 7.504c-4.329 7.09-8.431 12.543-12.687 16.884-12.031 12.271-25.642 16.228-41.608 12.095-33.678-8.715-57.333-6.408-68.408 6.668zm10.557 30.113v-19.44c.305-.317.604-.641.89-.979 6.789-8.017 26.677-8.703 53.201-1.841 21.015 5.439 40.406-.134 56.076-16.114 4.941-5.04 9.611-11.182 14.425-18.996a106.27 106.27 0 0 0 7.082 3.723c6.306 14.542 11.342 35.062 12.987 53.209.013.147.035.292.05.438H77.162zm174.15 10.341c-.405.037-.818.056-1.229.056a13.303 13.303 0 0 1-11.308-6.216 7.394 7.394 0 0 0-.481-.845 13.482 13.482 0 0 1-1.532-5.13c-1.338-14.762-4.79-31.045-9.359-45.003a110.445 110.445 0 0 0 28.596 3.741c.152 0 .304-.005.456-.005 3.414 12.849 5.871 26.442 6.996 38.848.668 7.358-4.776 13.886-12.139 14.554zm116.907-206.26c-7.931 4.699-16.831 8.75-26.588 12.141-.074.025-.148.048-.222.076-23.841 8.251-52.802 12.546-85.41 12.546-7.452 0-14.843-.23-21.969-.686-4.126-.274-7.699 2.872-7.963 7.006a7.5 7.5 0 0 0 7.007 7.963 360.9 360.9 0 0 0 22.925.717c31.379 0 59.724-3.853 83.853-11.279a76.51 76.51 0 0 1 2.184 6.594c.013.047.024.093.038.14a76.018 76.018 0 0 1 2.818 20.573c0 45.254-39.878 82.071-88.894 82.071s-88.894-36.817-88.894-82.071c0-9.407 1.691-18.56 5.035-27.292 7.991 2.452 16.467 4.53 25.442 6.207a7.502 7.502 0 0 0 8.75-5.994 7.5 7.5 0 0 0-5.995-8.75c-10.686-1.997-20.575-4.582-29.678-7.716a7.843 7.843 0 0 0-.407-.141c-17.457-6.058-31.957-14.181-43.266-24.312-18.311-16.403-27.596-37.744-27.596-63.43 0-8.739 1.092-17.463 3.236-25.993a26.245 26.245 0 0 0 2.169-.886c6.19-2.887 10.886-8.012 13.223-14.43l13.158-36.152c14.124-15.253 32.464-27.924 53.152-36.68 22.297-9.437 46.411-14.222 71.67-14.222s49.374 4.785 71.67 14.222c20.688 8.756 39.028 21.427 53.152 36.68l13.158 36.152c2.336 6.418 7.032 11.543 13.223 14.43.713.333 1.438.622 2.169.886a106.56 106.56 0 0 1 3.236 25.993c.003 32.737-14.931 58.184-44.386 75.637zm53.407-115.757c-.001 0-.001 0 0 0-1.65.601-3.382.779-5.072.542l-.102-.017c-.994-.15-1.973-.44-2.909-.878a10.495 10.495 0 0 1-5.466-5.966l-13.641-37.479-.017-.047-16.264-44.686c-1.994-5.477.841-11.555 6.318-13.549a51.152 51.152 0 0 1 17.523-3.102c20.993 0 40.747 12.969 48.333 33.811l2.008 5.517c9.687 26.621-4.088 56.164-30.711 65.854zm-220.558 4.302c-2.48 1.92-4.118 3.189-8.28 3.189s-5.8-1.269-8.28-3.189a7.5 7.5 0 0 0-10.521 1.34 7.5 7.5 0 0 0 1.339 10.521c3.254 2.52 8.173 6.327 17.463 6.327s14.208-3.808 17.462-6.327a7.5 7.5 0 0 0 1.339-10.521 7.5 7.5 0 0 0-10.522-1.34zm-28.676 49.012c-9.344 2.48-26.971 11.334-33.815 16.387a7.498 7.498 0 0 0 4.46 13.534 7.473 7.473 0 0 0 4.449-1.466c5.403-3.989 21.477-12.025 28.754-13.957a7.5 7.5 0 1 0-3.848-14.498zm-5.093-7.459a7.5 7.5 0 0 0 1.967-14.871c-9.583-1.267-29.253.202-37.508 2.266a7.5 7.5 0 0 0-5.457 9.096 7.504 7.504 0 0 0 7.27 5.683c.602 0 1.214-.073 1.825-.226 6.516-1.63 24.439-2.937 31.903-1.948zm170.715-40.214a7.501 7.501 0 0 0-10.522-1.34c-2.48 1.92-4.118 3.189-8.28 3.189s-5.8-1.269-8.28-3.189a7.5 7.5 0 0 0-9.183 11.861c3.254 2.52 8.173 6.327 17.462 6.327 9.29 0 14.208-3.808 17.463-6.327a7.498 7.498 0 0 0 1.34-10.521zm35.409 64.06c-6.844-5.053-24.472-13.907-33.815-16.387a7.5 7.5 0 1 0-3.848 14.498c7.277 1.932 23.351 9.968 28.754 13.957a7.468 7.468 0 0 0 4.449 1.466 7.5 7.5 0 0 0 4.46-13.534zm-95.83-55.209a7.5 7.5 0 0 0-10.582.727 14.609 14.609 0 0 1-11.012 5.02 14.607 14.607 0 0 1-11.012-5.02 7.5 7.5 0 1 0-11.308 9.855 29.604 29.604 0 0 0 22.319 10.164c8.555 0 16.69-3.705 22.319-10.164a7.498 7.498 0 0 0-.724-10.582z"/></svg>