<svg xmlns="http://www.w3.org/2000/svg" viewBox="0 0 512.001 512.001" style="enable-background:new 0 0 512.001 512.001" xml:space="preserve"><path style="fill:#eda751" d="M283.379 478.317c-2.716 0-5.579-.17-8.611-.533-16.89-2.023-30.895-12.027-41.623-29.731-8.271-13.652-13.746-30.252-18.576-44.9-1.304-3.952-2.535-7.685-3.778-11.248-2.522-7.222 1.288-15.119 8.508-17.641 7.223-2.521 15.12 1.29 17.641 8.509 1.323 3.791 2.591 7.635 3.933 11.706 9.988 30.29 19.069 53.631 37.19 55.803 16.456 1.971 21.396-4.544 30.364-16.374 8.403-11.082 18.862-24.875 40.422-29.493 7.482-1.609 14.84 3.163 16.442 10.641 1.602 7.479-3.163 14.841-10.641 16.442-11.504 2.464-17.086 9.825-24.151 19.144-8.988 11.854-20.987 27.675-47.12 27.675z"/><path style="fill:#fcd79d" d="M365.29 415.057c-1.602-7.478-8.961-12.25-16.442-10.641-5.95 1.274-11.05 3.25-15.499 5.672.06 7.376 2.695 19.283 11.936 25.124 2.687-1.664 5.729-2.934 9.364-3.713 7.479-1.601 12.244-8.962 10.641-16.442z"/><path style="fill:#eda751" d="M173.302 504.5c-8.222 0-16.119-4.595-19.95-12.487-9.188-18.928-8.701-40.852 1.334-60.151 9.949-19.131 28.008-32.506 48.31-35.779 12.087-1.946 23.456 6.267 25.403 18.349s-6.268 23.456-18.349 25.403c-6.534 1.053-12.532 5.716-16.045 12.473-1.659 3.19-5.055 11.557-.785 20.353 5.344 11.01.752 24.267-10.257 29.611a22.121 22.121 0 0 1-9.661 2.228z"/><path style="fill:#eda751" d="M173.302 504.5c-8.222 0-16.119-4.595-19.95-12.487-9.188-18.928-8.701-40.852 1.334-60.151 9.949-19.131 28.008-32.506 48.31-35.779 12.087-1.946 23.456 6.267 25.403 18.349s-6.268 23.456-18.349 25.403c-6.534 1.053-12.532 5.716-16.045 12.473-1.659 3.19-5.055 11.557-.785 20.353 5.344 11.01.752 24.267-10.257 29.611a22.121 22.121 0 0 1-9.661 2.228zM81.156 464.439l-.209-.001c-12.237-.112-22.066-10.125-21.953-22.362.414-44.973 33.57-71.166 54.37-77.113 11.767-3.366 24.032 3.448 27.395 15.214 3.364 11.766-3.448 24.031-15.214 27.395-3.615 1.033-22.019 11.259-22.237 34.913-.111 12.167-10.01 21.954-22.152 21.954z"/><path style="opacity:.2;fill:#a35f00;enable-background:new" d="M260.799 439.438c-7.876-10.047-13.727-26.162-19.925-44.958-1.342-4.07-2.61-7.914-3.933-11.706-2.521-7.22-10.418-11.03-17.641-8.509-7.221 2.522-11.031 10.419-8.509 17.641 1.243 3.563 2.474 7.296 3.778 11.248 4.83 14.647 10.305 31.248 18.576 44.9a88.518 88.518 0 0 0 2.801 4.306 117.63 117.63 0 0 0 23.031-11.677c.617-.406 1.214-.831 1.822-1.245z"/><path style="opacity:.2;fill:#a35f00;enable-background:new" d="M202.995 396.083c-20.302 3.273-38.362 16.648-48.31 35.779-3.367 6.475-5.653 13.246-6.866 20.099.332.124.661.253.995.375 13.817 5.028 28.148 7.64 42.62 7.784a26.118 26.118 0 0 1 2.57-7.812c3.513-6.757 9.512-11.42 16.045-12.473 12.081-1.948 20.296-13.321 18.349-25.403-1.948-12.083-13.317-20.296-25.403-18.349zM113.366 364.964c-10.468 2.992-24.062 11.118-35.04 24.179.47.983.951 1.964 1.451 2.939 6.756 13.2 15.824 24.949 26.718 34.833 5.479-12.705 16.361-18.573 19.052-19.342 11.766-3.364 18.578-15.629 15.214-27.395-3.363-11.766-15.628-18.58-27.395-15.214z"/><ellipse transform="rotate(-70.001 187.944 344.856)" style="fill:#fcd690" cx="187.944" cy="344.856" rx="94.969" ry="102.199"/><path style="opacity:.15;fill:#c17a00;enable-background:new" d="M141.776 428.037c-33.399-44.787 1.696-98.89 18.546-122.004l20.755-57.023c-39.635.785-75.657 23.737-89.178 60.886-16.328 44.86 5.781 94.948 49.877 118.141z"/><path style="fill:#eda751" d="M185.812 168.838c24.532-8.929 46.714-30.833 34.45-79.612-12.361-49.165-48.539-73.528-80.923-81.172a20.666 20.666 0 0 0-21.275 7.743c-19.896 26.673-31.949 68.591-9.815 114.199 21.96 45.249 53.032 47.771 77.563 38.842z"/><path style="fill:#ff91ab" d="M115.146 19.924c-18.091 26.76-27.923 66.745-6.897 110.071 19.034 39.222 44.912 46.333 67.444 41.719 18.627-90.583-28.398-133.518-60.547-151.79z"/><path style="fill:#eda751" d="M302.701 211.382c-13.053-22.609-15.966-53.646 24.784-83.13 41.072-29.717 84.445-25.126 114.167-10.165a20.664 20.664 0 0 1 11.32 19.607c-1.904 33.221-19.616 73.079-65.886 93.789-45.908 20.548-71.332 2.507-84.385-20.101z"/><path style="fill:#ff91ab" d="M452.555 142.731c-3.342 32.128-21.513 69.078-65.468 88.752-39.792 17.811-64.185 6.624-78.482-11.394 43.956-81.363 107.577-84.026 143.95-77.358z"/><path style="fill:#ffdc9c" d="M399.096 273.42c-27.21 74.757-112.329 80.857-202.629 47.991S44.883 229.157 72.093 154.4s122.47-108.717 212.769-75.851S426.306 198.662 399.096 273.42z"/><path style="opacity:.15;fill:#c17a00;enable-background:new" d="M189.953 67.673C135.432 74.995 89.628 106.22 72.093 154.4c-23.39 64.264 18.615 117.169 88.229 151.633-81.499-100.109-37.463-178.84 29.631-238.36z"/><ellipse transform="rotate(-70.001 154.221 187.853)" style="fill:#ff91ab" cx="154.221" cy="187.853" rx="25.09" ry="31.504"/><ellipse transform="rotate(109.999 314.677 246.267)" style="fill:#ff91ab" cx="314.677" cy="246.267" rx="25.09" ry="31.504"/><path style="fill:#ff91ab" d="m206.686 257.114.537.435a36.25 36.25 0 0 0 22.056 8.028l.691.012c13.266.186 25.168-8.137 29.705-20.604l9.515-26.143a9.477 9.477 0 0 0-4.183-11.459 147.848 147.848 0 0 0-47.747-17.378 9.478 9.478 0 0 0-10.57 6.09l-9.515 26.143c-4.539 12.465-.771 26.491 9.511 34.876z"/><path style="fill:#82c7e6" d="M101.889 137.841c17.368-3.003 27.431 1.375 34.145 7.001 4.887 4.095 12.386.001 11.62-6.329-3.557-29.413-28.119-48.295-53.495-43.851-13.088 2.292-21.42 15.747-16.923 28.866 3.476 10.141 14.089 16.14 24.653 14.313zM386.914 241.582c-11.374-13.464-21.897-16.579-30.656-16.585-6.376-.005-9.489-7.96-4.834-12.318 21.631-20.245 52.583-18.921 69.166.795 8.553 10.169 6.287 25.831-5.591 32.99-9.181 5.534-21.167 3.307-28.085-4.882z"/><path style="fill:#eda751" d="M238.449 432.593c-12.678 0-28.374-4.393-46.926-17.578-9.974-7.09-12.314-20.924-5.224-30.898 7.09-9.975 20.925-12.313 30.898-5.224 12.744 9.058 20.985 10.43 24.438 8.688 4.127-2.074 7.342-9.964 7.462-15.633.257-12.234 10.388-21.972 22.619-21.686 12.235.256 21.944 10.383 21.686 22.619-.405 19.254-10.413 43.509-31.858 54.292-6.007 3.022-13.727 5.42-23.095 5.42z"/><path style="opacity:.1;fill:#c18f00;enable-background:new" d="M238.449 432.593c-12.678 0-28.374-4.393-46.926-17.578-9.974-7.09-12.314-20.924-5.224-30.898 7.09-9.975 20.925-12.313 30.898-5.224 12.744 9.058 20.985 10.43 24.438 8.688 4.127-2.074 7.342-9.964 7.462-15.633.257-12.234 10.388-21.972 22.619-21.686 12.235.256 21.944 10.383 21.686 22.619-.405 19.254-10.413 43.509-31.858 54.292-6.007 3.022-13.727 5.42-23.095 5.42z"/><path style="fill:#eda751" d="M114.835 381.377c-1.252 0-2.52-.106-3.795-.326-17.651-3.047-32.794-14.928-40.507-31.781-8.16-17.829-6.989-38.523 3.132-55.354 6.307-10.49 19.924-13.877 30.408-7.57 10.487 6.307 13.877 19.921 7.57 30.408-2.579 4.29-2.884 9.551-.815 14.073.78 1.703 3.094 5.751 7.75 6.553 12.059 2.082 20.147 13.546 18.066 25.605-1.861 10.784-11.225 18.392-21.809 18.392z"/><path style="opacity:.15;fill:#c18f00;enable-background:new" d="M114.835 381.377c-1.252 0-2.52-.106-3.795-.326-17.651-3.047-32.794-14.928-40.507-31.781-8.16-17.829-6.989-38.523 3.132-55.354 6.307-10.49 19.924-13.877 30.408-7.57 10.487 6.307 13.877 19.921 7.57 30.408-2.579 4.29-2.884 9.551-.815 14.073.78 1.703 3.094 5.751 7.75 6.553 12.059 2.082 20.147 13.546 18.066 25.605-1.861 10.784-11.225 18.392-21.809 18.392z"/><path d="M268.744 200.88a154.932 154.932 0 0 0-50.168-18.26 16.95 16.95 0 0 0-18.935 10.908l-9.516 26.143c-5.643 15.504-.893 32.887 11.819 43.255l.001.001.567.459c7.515 6.061 16.968 9.502 26.637 9.689l.714.012c.18.003.358.004.538.004 16.188 0 30.738-10.208 36.319-25.542l9.516-26.144a16.947 16.947 0 0 0-7.492-20.525zm-6.603 15.396-9.516 26.143c-3.425 9.41-12.328 15.673-22.204 15.673-.108 0-.218 0-.326-.002l-.672-.012a28.884 28.884 0 0 1-17.488-6.364l-.511-.413c-7.77-6.338-10.665-16.987-7.203-26.499l9.516-26.144a1.974 1.974 0 0 1 2.206-1.271 139.977 139.977 0 0 1 45.325 16.496 1.976 1.976 0 0 1 .873 2.393zm-114.671-19.09c-10.166-.913-30.848 1.506-39.464 4.048a7.502 7.502 0 0 0 2.119 14.695 7.5 7.5 0 0 0 2.125-.309c6.864-2.024 25.892-4.205 33.878-3.495 4.123.377 7.771-2.672 8.141-6.799a7.499 7.499 0 0 0-6.799-8.14zm297.555-85.799c-29.942-15.071-64.284-16.527-94.96-4.2-18.098-14.955-39.302-27.192-62.638-35.686-23.337-8.494-47.447-12.749-70.923-12.926C200.93 29.414 173.685 8.455 141.061.754a28.114 28.114 0 0 0-29.01 10.559c-9.924 13.304-25.467 40.379-22.88 76.868a29.398 29.398 0 0 0-16.577 13.125c-4.386 7.424-5.28 16.411-2.454 24.654a28.29 28.29 0 0 0 3.569 7.021 128.469 128.469 0 0 0-8.666 18.854c-10.855 29.823-9.076 58.617 5.286 85.586 7.519 14.117 18.339 27.393 32.287 39.722l-.164.194c-5.412-1.907-11.265-2.2-16.961-.781-7.688 1.913-14.172 6.707-18.254 13.496-11.397 18.955-12.715 42.26-3.523 62.34 4.15 9.07 10.213 16.867 17.583 22.932-12.402 11.3-29.491 32.96-29.802 66.685-.073 7.921 2.943 15.397 8.493 21.051s12.97 8.807 20.855 8.879l.313.002c16.201 0 29.504-13.182 29.653-29.384.09-9.782 3.987-16.557 7.859-20.898a116.055 116.055 0 0 0 25.369 15.845c-7.038 19.059-6.198 39.729 2.567 57.785C151.533 505.44 162.011 512 173.301 512c4.507 0 8.86-1.004 12.936-2.983a29.456 29.456 0 0 0 13.104-12.512 7.498 7.498 0 0 0-3.013-10.169 7.496 7.496 0 0 0-10.169 3.013 14.55 14.55 0 0 1-6.474 6.174 14.507 14.507 0 0 1-6.385 1.478c-5.67 0-10.73-3.166-13.203-8.262-6.932-14.281-7.599-30.672-2.052-45.858 9.776 3.065 19.752 4.82 29.696 5.26-.13.236-.267.466-.391.706-1.397 2.689-3.737 8.205-3.7 14.949a7.499 7.499 0 0 0 7.499 7.459h.042a7.5 7.5 0 0 0 7.459-7.541c-.021-3.647 1.397-6.771 2.009-7.946 2.425-4.663 6.382-7.851 10.583-8.528a29.628 29.628 0 0 0 6.391-1.796c1.617-.371 3.224-.784 4.825-1.228a117.518 117.518 0 0 0 4.275 7.726c11.984 19.779 27.847 30.979 47.143 33.29 3.246.391 6.444.588 9.506.588 29.862 0 43.844-18.44 53.095-30.644 6.603-8.708 10.964-14.46 19.745-16.341 11.511-2.465 18.87-13.836 16.405-25.348a21.219 21.219 0 0 0-9.273-13.452c-4.791-3.102-10.503-4.151-16.074-2.952-24.282 5.201-36.155 20.86-44.829 32.299-8.688 11.458-11.314 14.913-23.494 13.456-3.232-.387-7.845-1.886-13.254-9.38 23.685-12.374 34.754-39.153 35.2-60.417.122-5.769-1.405-11.316-4.357-16.116.236-3.023.327-6.067.278-9.117 9.088-.236 17.781-1.116 26.005-2.662 40.834-7.676 69.644-31.592 83.318-69.161a128.396 128.396 0 0 0 5.481-20.012c2.51-.677 4.95-1.7 7.246-3.083 7.465-4.498 12.556-11.957 13.969-20.464a29.4 29.4 0 0 0-4.267-20.718c25.443-26.291 30.939-57.017 31.887-73.583a28.123 28.123 0 0 0-15.438-26.738zm-307.41-96.034c12.765 3.013 42.539 13.088 61.915 43.81a188.42 188.42 0 0 0-29.256 4.593c-12.377-21.75-29.485-36.42-43.954-45.807a13.114 13.114 0 0 1 11.295-2.596zm-20.042 14.801c12.311 7.895 26.845 20.071 37.784 37.858-14.611 4.89-28.304 11.671-40.638 20.266a50.007 50.007 0 0 0-10.621-1.688c-1.574-24.143 5.988-43.525 13.475-56.436zm-32.064 78.78a14.423 14.423 0 0 1 9.942-6.884 35.225 35.225 0 0 1 17.764 1.453c.163.065.327.126.493.179a37.567 37.567 0 0 1 9.489 5.133c9.194 6.825 15.167 17.325 16.887 29.65-7.616-6.092-16.695-9.107-27.528-9.107-3.765 0-7.744.365-11.945 1.091h.001a14.845 14.845 0 0 1-12.557-3.701l-.097-.088c-1.613-1.516-2.884-3.398-3.628-5.566-1.422-4.146-1.003-8.464 1.179-12.16zm-8.156 237.215c-7.129-15.577-6.104-33.659 2.74-48.369a14.566 14.566 0 0 1 9.021-6.67 14.549 14.549 0 0 1 11.093 1.663 14.56 14.56 0 0 1 6.67 9.021c.946 3.8.356 7.739-1.662 11.096-3.855 6.412-4.307 14.284-1.205 21.06 1.275 2.784 5.124 9.412 13.292 10.82 7.965 1.375 13.326 8.974 11.952 16.939a14.614 14.614 0 0 1-14.419 12.168c-.841 0-1.69-.073-2.521-.216-5.539-.956-10.787-2.939-15.553-5.765l-.064-.036c-8.293-4.935-15.106-12.45-19.344-21.711zm18.456 96.268c-.073 8.008-6.647 14.522-14.653 14.522l-.14-.001a14.552 14.552 0 0 1-10.324-4.389 14.56 14.56 0 0 1-4.197-10.403c.253-27.529 13.858-45.419 24.134-55.026a109.342 109.342 0 0 0 17.1 24.249c-5.827 6.396-11.785 16.481-11.92 31.048zm181.362 15.312c20.724 2.484 28.01-7.124 37.234-19.29 8.052-10.619 17.179-22.655 36.021-26.691a6.293 6.293 0 0 1 4.772.876 6.317 6.317 0 0 1 2.76 4.004c.733 3.424-1.455 6.806-4.878 7.538-14.228 3.048-21.189 12.228-28.558 21.946-8.78 11.58-18.732 24.706-41.143 24.706-2.466 0-5.061-.162-7.72-.482-14.482-1.733-26.629-10.539-36.1-26.169a98.426 98.426 0 0 1-2.348-4.104c.412.008.826.03 1.236.03 4.352 0 8.601-.472 12.732-1.372 7.288 11.556 15.83 17.791 25.992 19.008zm-18.996-37.256c-6.096 3.065-12.732 4.62-19.727 4.62-13.139 0-27.465-5.447-42.581-16.192a14.558 14.558 0 0 1-5.961-9.505 14.56 14.56 0 0 1 2.506-10.936 14.563 14.563 0 0 1 9.505-5.96 14.554 14.554 0 0 1 10.935 2.505c13.53 9.616 24.95 12.905 32.15 9.276 7.755-3.897 11.447-15.314 11.593-22.177a14.583 14.583 0 0 1 4.531-10.3c2.823-2.701 6.51-4.113 10.433-4.047a14.56 14.56 0 0 1 10.272 4.51 14.564 14.564 0 0 1 4.074 10.454c-.358 17.01-9.069 38.37-27.73 47.752zm133.873-149.619c-11.93 32.777-36.152 52.812-71.993 59.549-9.646 1.813-20.027 2.623-31.022 2.461-.06-.001-.12-.004-.18-.003-26.805-.422-57.277-6.653-89.821-18.499a363.027 363.027 0 0 1-24.068-9.725 7.5 7.5 0 1 0-6.127 13.691c7.987 3.575 16.421 6.982 25.064 10.129 22.736 8.275 44.6 13.923 65.114 16.912a29.714 29.714 0 0 0-8.258 5.598c-5.738 5.489-8.991 12.885-9.158 20.822-.071 3.353-1.94 7.639-3.208 8.938-1.264-.004-6.441-.551-16.849-7.947-6.457-4.589-14.314-6.392-22.126-5.068-7.811 1.32-14.641 5.604-19.23 12.06-4.59 6.457-6.391 14.315-5.069 22.127 1.32 7.812 5.604 14.641 12.061 19.23 6.38 4.535 12.7 8.251 18.94 11.166-15.859 2.211-32.332.488-48.099-5.251-20.701-7.535-37.998-21.27-49.416-38.821.387.075.773.152 1.162.22 1.672.287 3.378.434 5.069.434a29.584 29.584 0 0 0 29.2-24.616c2.781-16.115-8.066-31.489-24.183-34.271-1.223-.211-2.108-2.075-2.205-2.284a7.605 7.605 0 0 1 .423-7.086c4.082-6.789 5.276-14.762 3.362-22.449a29.694 29.694 0 0 0-3.998-9.151 249.222 249.222 0 0 0 19.731 12.99 7.496 7.496 0 0 0 10.277-2.621 7.5 7.5 0 0 0-2.621-10.277c-9.776-5.803-18.572-11.896-26.411-18.244a7.573 7.573 0 0 0-.329-.269c-15.314-12.458-26.889-25.915-34.511-40.228-12.277-23.054-13.769-47.751-4.431-73.404a113.302 113.302 0 0 1 6.295-14.155c5.384 2.528 11.555 3.49 17.732 2.422h.001c16.084-2.782 23.714 1.726 28.05 5.359a14.435 14.435 0 0 0 9.293 3.391c2.387 0 4.796-.591 7.014-1.794 5.324-2.887 8.297-8.608 7.575-14.575-2.038-16.859-10.192-31.363-22.961-40.842-.469-.348-.949-.674-1.425-1.005 41.895-25.335 98.744-29.402 151.584-10.17 52.838 19.231 93.774 58.889 109.582 105.227-.578-.053-1.155-.112-1.738-.146-15.867-.952-31.443 4.922-43.842 16.526-4.389 4.108-5.788 10.402-3.565 16.036 2.218 5.62 7.524 9.253 13.518 9.257 5.657.005 14.397 1.453 24.933 13.925 4.045 4.789 9.391 8.017 15.141 9.541a113.02 113.02 0 0 1-4.277 14.89zm25.994-40.887c-.703 4.232-3.158 7.811-6.914 10.073-1.945 1.173-4.108 1.798-6.299 1.93-.071.003-.142.003-.212.008a14.85 14.85 0 0 1-11.973-5.237c-10.664-12.623-22.248-18.923-35.392-19.233 9.237-8.335 20.563-12.54 31.996-11.857 3.752.224 7.357.981 10.734 2.224.106.04.209.083.317.118a35.233 35.233 0 0 1 14.552 10.308 14.427 14.427 0 0 1 3.191 11.666zm.117-29.072a49.937 49.937 0 0 0-9.215-5.529c-3.924-14.513-10.054-28.509-18.104-41.646 19.815-6.593 38.774-6.578 53.278-4.714-2.562 14.701-9.23 34.406-25.959 51.889zm-36.009-60.023a188.452 188.452 0 0 0-19.46-22.324c34.591-11.079 63.875.34 75.59 6.238a13.113 13.113 0 0 1 6.982 9.248c-17.117-2.11-39.652-1.867-63.112 6.838zm-68.299 116.872a7.5 7.5 0 0 0-8.576 12.306c6.585 4.588 19.751 18.492 23.707 24.454a7.49 7.49 0 0 0 6.256 3.354 7.463 7.463 0 0 0 4.14-1.252 7.5 7.5 0 0 0 2.103-10.396c-4.967-7.483-19.257-22.632-27.63-28.466zm47.765-5.251c-7.443-5.027-26.428-13.589-36.393-15.793a7.502 7.502 0 0 0-8.942 5.704 7.499 7.499 0 0 0 5.704 8.942c7.835 1.732 25.306 9.571 31.234 13.576a7.494 7.494 0 0 0 10.413-2.017 7.498 7.498 0 0 0-2.016-10.412zm-209.331-78.738c-9.054-4.717-29.099-10.361-38.029-11.293-4.128-.442-7.808 2.561-8.237 6.681a7.498 7.498 0 0 0 6.681 8.237c7.113.743 25.535 5.968 32.654 9.678a7.5 7.5 0 0 0 10.117-3.185 7.502 7.502 0 0 0-3.186-10.118zm45.024 3.093a20.03 20.03 0 0 0-.673-15.413 20.027 20.027 0 0 0-11.374-10.422c-10.445-3.799-22.032 1.603-25.836 12.046a7.502 7.502 0 0 0 4.481 9.614 7.504 7.504 0 0 0 9.614-4.481 5.163 5.163 0 0 1 6.609-3.083 5.121 5.121 0 0 1 2.91 2.666 5.117 5.117 0 0 1 .172 3.942 7.5 7.5 0 0 0 7.047 10.067 7.501 7.501 0 0 0 7.05-4.936zm108.197 35.499a5.114 5.114 0 0 1 3.941-.172 5.162 5.162 0 0 1 3.083 6.609 7.5 7.5 0 0 0 14.095 5.13c3.801-10.443-1.604-22.033-12.047-25.836a20.02 20.02 0 0 0-15.413.674 20.023 20.023 0 0 0-10.422 11.375 7.5 7.5 0 0 0 14.095 5.129 5.135 5.135 0 0 1 2.668-2.909z"/></svg>