<svg xmlns="http://www.w3.org/2000/svg" viewBox="0 0 512.004 512.004" style="enable-background:new 0 0 512.004 512.004" xml:space="preserve"><path style="fill:#eda751" d="M479.739 423.86a15.12 15.12 0 0 0 11.051-4.779c5.735-6.101 5.436-15.697-.666-21.43-29.189-27.431-67.676-31.509-117.662-12.47-25.356 9.659-37.727-3.684-61.12-32.331l-.861-1.054c-5.297-6.485-14.848-7.447-21.332-2.15-6.484 5.298-7.447 14.848-2.15 21.332l.858 1.049c11.794 14.443 22.934 28.084 37.31 37.037 17.821 11.096 36.822 12.554 58.091 4.452 39.11-14.898 65.665-12.977 86.104 6.23a15.09 15.09 0 0 0 10.377 4.114z"/><path style="opacity:.2;fill:#a35f00;enable-background:new" d="m311.341 352.85-.861-1.054c-5.297-6.485-14.848-7.447-21.332-2.15-6.484 5.298-7.447 14.849-2.15 21.332l.858 1.049c11.794 14.443 22.934 28.084 37.31 37.037 5.119 3.187 10.336 5.575 15.676 7.174 8.533-8.405 15.814-17.939 21.57-28.332-19.024 2.833-30.99-10.464-51.071-35.056z"/><path style="fill:#fcd79d" d="M490.123 397.651a95.46 95.46 0 0 0-10.41-8.495c-8.552 5.009-15.95 15.992-19.15 23.663a62.892 62.892 0 0 1 8.795 6.929 15.11 15.11 0 0 0 10.38 4.113 15.12 15.12 0 0 0 11.051-4.779c5.734-6.101 5.436-15.697-.666-21.431z"/><path style="fill:#eda751" d="M299.234 504.5a24.23 24.23 0 0 0 8.086-1.394c12.631-4.465 19.25-18.325 14.785-30.955-8.238-23.302-15.781-48.883-9.259-61.924 5.991-11.983 1.134-26.554-10.849-32.545-11.985-5.99-26.554-1.134-32.545 10.848-13.792 27.583-7.212 59.842 6.912 99.79 3.52 9.957 12.878 16.18 22.87 16.18zM175.036 495.24a24.23 24.23 0 0 0 8.086-1.394c12.631-4.465 19.251-18.325 14.785-30.955-7.871-22.263 9.079-34.977 11.77-36.001 12.752-4.108 19.721-17.762 15.614-30.513-4.108-12.753-17.816-19.743-30.564-15.64-15.624 5.033-30.709 19.026-39.369 36.518-6.664 13.461-12.627 35.11-3.19 61.804 3.518 9.958 12.878 16.181 22.868 16.181zM145.858 343.611c6.701 0 12.792-.569 18.015-1.799 13.04-3.074 21.118-16.136 18.045-29.176-3.073-13.039-16.137-21.111-29.175-18.045-14.595 3.437-66.029-7.003-99.448-25.868-11.667-6.588-26.462-2.467-33.048 9.199-6.586 11.667-2.467 26.462 9.199 33.048 30.902 17.447 81.777 32.641 116.412 32.641z"/><path style="opacity:.2;fill:#a35f00;enable-background:new" d="M301.997 377.682c-11.985-5.99-26.554-1.134-32.545 10.848-9.491 18.981-9.334 40.177-3.711 64.567 16.65-2.386 32.277-7.726 46.266-15.424-2.159-11.075-2.455-20.861.838-27.448 5.991-11.981 1.134-26.553-10.848-32.543zM194.725 380.736c-15.624 5.033-30.709 19.026-39.369 36.518a76.651 76.651 0 0 0-1.049 2.211c12.056 11.037 26.352 19.918 42.183 25.978 2.469-11.407 11.307-17.84 13.188-18.555 12.752-4.108 19.72-17.762 15.614-30.513-4.11-12.752-17.818-19.742-30.567-15.639zM152.742 294.592c-5.817 1.37-17.496.529-31.545-2.165a116.15 116.15 0 0 0-6.625 38.705c0 3.163.128 6.298.378 9.402 11.01 1.962 21.553 3.078 30.907 3.078 6.701 0 12.792-.569 18.015-1.799 13.04-3.074 21.118-16.136 18.045-29.176-3.073-13.038-16.136-21.112-29.175-18.045z"/><ellipse style="fill:#fcd690" cx="245.863" cy="331.132" rx="111.887" ry="103.967"/><path style="opacity:.15;fill:#c18f00;enable-background:new" d="M229.53 433.989c-51.127-33.567-35.307-102.857-9.644-126.976l-16.959-71.907c-40.478 15.648-68.941 52.746-68.941 96.026-.001 52.26 41.498 95.508 95.544 102.857z"/><path style="fill:#eda751" d="M290.483 420.149c19.395 0 36.539-7.904 48.11-19.43 23.847-23.756 24.804-60.06 2.327-88.286-8.344-10.481-23.605-12.211-34.086-3.865-10.48 8.346-12.21 23.606-3.864 34.087 10.048 12.618 4.315 20.772 1.384 23.692-9.573 9.535-25.09 4.788-36.222-4.149-10.448-8.385-25.715-6.715-34.101 3.735-8.386 10.447-6.715 25.715 3.734 34.101 17.824 14.309 36.098 20.114 52.718 20.115zM296.997 156.335c-21.892-18.371-36.51-49.209-5.63-94.797C322.492 15.591 368.83 4.073 405.006 8.335a22.624 22.624 0 0 1 18.987 15.932c10.48 34.887 7.184 82.522-32.662 121.152-39.533 38.326-72.441 29.286-94.334 10.916z"/><path style="fill:#ff91ab" d="M425.449 29.604c8.591 34.302 3.734 79.116-34.117 115.813-34.266 33.221-63.548 30.847-85.001 17.665C321.084 62.924 385.535 36.364 425.449 29.604z"/><path style="fill:#eda751" d="M160.822 156.335c21.892-18.371 36.51-49.209 5.63-94.797C135.328 15.591 88.989 4.073 52.812 8.335c-8.919 1.051-16.403 7.33-18.986 15.932-10.48 34.887-7.184 82.522 32.662 121.152 39.533 38.326 72.441 29.286 94.334 10.916z"/><path style="fill:#ff91ab" d="M32.37 29.604c-8.591 34.302-3.734 79.116 34.118 115.813 34.266 33.221 63.548 30.847 85.001 17.665C136.735 62.924 72.284 36.364 32.37 29.604z"/><path style="fill:#ffdc9c" d="M38.432 184.061c0 87.092 85.28 125.237 190.478 125.237s190.478-38.145 190.478-125.237S334.108 26.367 228.91 26.367 38.432 96.97 38.432 184.061z"/><path style="opacity:.15;fill:#c18f00;enable-background:new" d="M127.203 50.715C73.858 78.66 38.431 127.933 38.431 184.061c0 74.867 63.019 113.563 147.537 122.952C64.646 234.544 80.469 137.066 127.203 50.715z"/><circle style="fill:#ff91ab" cx="202.705" cy="190.035" r="27.667"/><path style="fill:#78cfc0" d="M110.97 254.62c25.415-48.175 101.97-67.248 119.402-64.584 1.49 33.139-12.161 130.747-50.357 141.097-29.559 8.01-42.991-16.255-39.441-29.891-15.539 10.436-55.99 3.392-29.604-46.622zM53.281 341.686c0 11.393 10.422 20.628 23.278 20.628s23.278-9.236 23.278-20.628c0-11.393-6.231-23.606-19.088-23.606s-27.468 12.214-27.468 23.606zM87.857 409.12c0 9.062 8.042 16.409 17.963 16.409 9.92 0 19.175-8.559 19.175-17.622 0-9.062-7.482-16.036-17.402-16.036s-19.736 8.187-19.736 17.249z"/><g style="opacity:.1"><circle cx="133.986" cy="268.393" r="7.137"/><circle cx="198.625" cy="246.054" r="7.137"/><circle cx="175.435" cy="299.563" r="7.137"/><circle cx="75.84" cy="345.401" r="7.137"/></g><path d="M107.593 384.371c-14.254 0-27.235 11.796-27.235 24.748 0 13.184 11.422 23.908 25.461 23.908 13.961 0 26.674-11.974 26.674-25.121.001-13.197-10.936-23.535-24.9-23.535zm-1.773 33.658c-5.769 0-10.462-3.997-10.462-8.909 0-4.738 6.29-9.749 12.236-9.749 5.737 0 9.902 3.59 9.902 8.536-.001 4.919-6.002 10.122-11.676 10.122zm37.261-260.542a7.501 7.501 0 0 0-10.606 0l-3.14 3.14-3.14-3.14a7.501 7.501 0 0 0-10.606 10.607l3.14 3.14-3.14 3.14a7.5 7.5 0 0 0 10.606 10.607l3.14-3.14 3.14 3.14c1.464 1.464 3.384 2.196 5.303 2.196s3.839-.732 5.303-2.196a7.5 7.5 0 0 0 0-10.607l-3.14-3.14 3.14-3.14a7.5 7.5 0 0 0 0-10.607zm146.738 16.886-3.14-3.14 3.14-3.14a7.5 7.5 0 0 0-10.606-10.607l-3.14 3.14-3.14-3.14a7.501 7.501 0 0 0-10.606 10.607l3.14 3.14-3.14 3.14a7.5 7.5 0 0 0 10.606 10.607l3.14-3.14 3.14 3.14a7.477 7.477 0 0 0 5.303 2.196 7.5 7.5 0 0 0 5.303-12.803zm205.44 217.814c-31.491-29.596-72.531-34.179-125.467-14.014-3.414 1.299-6.507 2.089-9.386 2.418 3.983-10.689 5.192-22.166 3.626-33.625a105.405 105.405 0 0 0 1.218-15.835c0-13.786-2.65-27.153-7.868-39.843 15.267-7.671 28.193-16.985 38.647-27.871 20.475-21.322 30.857-48.022 30.857-79.356 0-19.312-3.936-38.103-11.484-55.745 20.955-31.291 26.725-69.741 15.772-106.207A30.063 30.063 0 0 0 405.884.887c-36.342-4.285-72.118 7.09-98.932 31.263-24.34-8.702-50.774-13.283-78.042-13.283s-53.703 4.58-78.042 13.283C124.054 7.977 88.278-3.399 51.935.887A30.064 30.064 0 0 0 26.644 22.11C15.689 58.576 21.46 97.026 42.416 128.317c-7.548 17.642-11.484 36.433-11.484 55.745 0 32.684 11.527 60.508 33.677 82.128a144.4 144.4 0 0 1-7.628-3.997c-7.387-4.17-15.956-5.216-24.128-2.939-8.171 2.274-14.968 7.596-19.139 14.982-4.17 7.388-5.214 15.956-2.939 24.128 2.275 8.172 7.596 14.969 14.983 19.139 6.939 3.917 15.046 7.815 23.813 11.471-2.392 4.024-3.789 8.381-3.789 12.715 0 15.511 13.807 28.128 30.778 28.128 15.131 0 27.737-10.033 30.295-23.199 7.456 1.53 14.593 2.67 21.356 3.423 3.688 20.071 13.143 38.322 26.711 53.215a86.673 86.673 0 0 0-6.288 10.676c-5.6 11.313-8.576 23.336-8.844 35.738a7.499 7.499 0 0 0 7.336 7.66l.165.002a7.5 7.5 0 0 0 7.495-7.338c.22-10.188 2.673-20.081 7.291-29.408a71.122 71.122 0 0 1 3.825-6.76c8.45 7.13 17.992 13.152 28.363 17.813-5.531 8.485-8.241 20.145-3.429 33.756 3.08 8.712-1.502 18.305-10.213 21.384a16.7 16.7 0 0 1-5.586.965c-5.819 0-11.306-3.084-14.318-8.049a7.5 7.5 0 1 0-12.824 7.781c5.714 9.417 16.114 15.268 27.141 15.268 3.603 0 7.165-.613 10.586-1.822 16.51-5.837 25.192-24.017 19.357-40.526-4.056-11.471.359-19.245 3.93-23.269 11.644 3.548 24.064 5.475 36.961 5.475 3.389 0 6.76-.149 10.111-.412 2.11 13.508 6.33 28.882 13.314 48.638 4.479 12.668 16.511 21.179 29.941 21.179 3.601 0 7.162-.613 10.585-1.823 7.998-2.827 14.415-8.6 18.072-16.254 3.656-7.654 4.112-16.275 1.285-24.272-5.455-15.428-11.417-34.169-11.285-47.026a76.308 76.308 0 0 0 8.925-4.034c18.337 9.457 37.719 10.083 59.109 1.935 36.565-13.928 59.982-12.528 78.298 4.688a22.574 22.574 0 0 0 15.515 6.146c6.23 0 12.25-2.603 16.517-7.143a22.516 22.516 0 0 0 6.137-16.223c-.191-6.055-2.724-11.67-7.135-15.814zm-87.74-279.628c-9.668-16.796-22.813-32.264-39.139-45.781a191.673 191.673 0 0 0-3.434-2.775c18.465-14.86 38.693-22.11 54.706-25.632 3.202 17.654 4.034 45.607-12.133 74.188zm-3.39-96.775a15.071 15.071 0 0 1 11.641 8.086c-18.567 4.165-42.136 12.885-63.35 31.043-9.36-6.253-19.304-11.743-29.723-16.427 22.851-17.957 51.921-26.182 81.432-22.702zm-350.439 0c29.513-3.475 58.582 4.747 81.432 22.702C124.703 43.17 114.76 48.66 105.4 54.913 84.186 36.754 60.615 28.034 42.05 23.87a15.063 15.063 0 0 1 11.64-8.086zM38.167 38.371c16.013 3.521 36.241 10.773 54.706 25.632a190.833 190.833 0 0 0-3.434 2.775C73.113 80.294 59.968 95.763 50.3 112.559 34.133 83.978 34.966 56.025 38.167 38.371zM76.56 354.815c-8.701 0-15.779-5.89-15.779-13.129 0-6.506 10.519-16.106 19.969-16.106 9.166 0 11.588 10.535 11.588 16.106 0 7.239-7.077 13.129-15.778 13.129zm49.994-20.079c-6.544-.845-13.462-2.066-20.701-3.668-1.034-3.587-2.582-6.913-4.613-9.786-4.878-6.901-12.155-10.702-20.489-10.702-7.04 0-14.133 2.593-20.074 6.706-10.282-4.035-19.741-8.442-27.546-12.847a16.645 16.645 0 0 1-7.906-10.099 16.649 16.649 0 0 1 1.551-12.731 16.652 16.652 0 0 1 10.1-7.907 16.646 16.646 0 0 1 12.731 1.552c12.731 7.187 29.24 13.84 46.868 18.921 1.405 4.021 3.764 7.77 7.377 11.019 6.738 6.059 15.777 8.237 24.252 7.647a104.936 104.936 0 0 0-1.617 18.292c-.002 1.205.026 2.406.067 3.603zm9.838-39.72c-5.673 3.811-16.742 4.214-22.51-.975-6.564-5.903-5.208-18.996 3.722-35.921 7.073-13.406 23.051-32.608 59.006-47.959 18.489-7.893 36.258-11.932 46.365-12.737-.225 17.688-3.514 45.042-10.142 69.762-4.074 15.191-8.903 27.655-14.261 37.041a7.514 7.514 0 0 0-.716 1.226c-6.054 10.207-12.759 16.532-19.802 18.44-12.934 3.509-20.5-.558-24.567-4.585-5.095-5.044-6.715-12.1-5.654-16.177a7.5 7.5 0 0 0-11.441-8.115zm46.144-104.982c0-11.121 9.047-20.167 20.167-20.167 8.475 0 15.732 5.26 18.712 12.682-9.901.819-23.813 3.772-38.81 9.082a20.648 20.648 0 0 1-.069-1.597zm63.332 237.562c-57.557 0-104.382-43.274-104.382-96.465 0-.887.023-1.772.049-2.657.455.507.912 1.011 1.397 1.492 4.315 4.272 12.711 10.27 25.818 10.27 3.97 0 8.374-.551 13.226-1.865 10.1-2.737 19.054-10.126 26.808-22.053 6.59.314 13.335.481 20.125.481 18.753 0 36.8-1.201 53.643-3.571a7.5 7.5 0 1 0-2.09-14.854c-16.152 2.272-33.497 3.425-51.553 3.425-4.092 0-8.167-.061-12.199-.18 3.94-8.709 7.482-18.889 10.609-30.547 7.986-29.781 11.35-63.478 10.544-81.374l-.001-.012c-.189-19.231-15.884-34.819-35.159-34.819-19.392 0-35.167 15.776-35.167 35.167 0 2.473.259 4.904.762 7.281-25.147 11.126-50.735 28.733-63.962 53.804-2.909 5.514-6.207 12.877-8.07 20.677-10.656-6.511-19.646-13.937-26.932-22.27.73.229 1.489.357 2.255.357a7.467 7.467 0 0 0 4.448-1.466c6.489-4.79 25.056-14.078 33.783-16.395a7.5 7.5 0 0 0-3.849-14.498c-10.732 2.851-30.979 13.021-38.841 18.825a7.488 7.488 0 0 0-3.014 6.636c-12.082-16.529-18.183-36.213-18.183-58.924 0-82.817 82.084-150.193 182.978-150.193S411.89 101.244 411.89 184.06c0 31.626-12.439 71.789-66.648 96.461a7.494 7.494 0 0 0-1.052.417 7.561 7.561 0 0 0-.515.288c-8.856 3.924-18.796 7.443-29.955 10.451-3.349.903-5.546 3.938-5.541 7.249a31.985 31.985 0 0 0-6.015 3.777c-6.636 5.284-10.817 12.837-11.773 21.266-.955 8.429 1.429 16.726 6.713 23.359 4.614 5.794 5.272 10.406 1.958 13.707-6.255 6.229-17.985 1.939-26.235-4.685-13.658-10.961-33.684-8.766-44.645 4.89-5.31 6.614-7.725 14.901-6.802 23.333.923 8.433 5.075 16.001 11.691 21.31 11.62 9.327 24.148 15.752 36.978 19.091a112.873 112.873 0 0 1-24.181 2.622zm101.503-119.068c-.198-.254-.382-.512-.583-.764a31.71 31.71 0 0 0-9.285-7.919 203.044 203.044 0 0 0 6.196-2.397 90.125 90.125 0 0 1 3.672 11.08zm-33.015 178.931a16.645 16.645 0 0 1-9.535 8.576 16.728 16.728 0 0 1-5.587.966c-7.086 0-13.436-4.493-15.799-11.18-6.626-18.742-10.62-33.187-12.596-45.685 11.287-2.245 22.168-6.009 32.335-11.213 1.264 14.034 6.514 30.611 11.858 45.727a16.642 16.642 0 0 1-.676 12.809zm8.528-83.891-.012.007a61.166 61.166 0 0 1-17.409 7.261c-.092.02-.183.04-.274.064a62.83 62.83 0 0 1-14.705 1.75c-16.371-.001-32.977-6.386-48.026-18.464a16.644 16.644 0 0 1-6.168-11.245 16.655 16.655 0 0 1 3.589-12.314c3.306-4.119 8.174-6.262 13.086-6.262a16.68 16.68 0 0 1 10.473 3.682c19.065 15.304 36.945 12.842 46.21 3.614 7.012-6.984 10.481-19.5-.81-33.678a16.652 16.652 0 0 1-3.542-12.327 16.648 16.648 0 0 1 6.211-11.222 16.647 16.647 0 0 1 12.328-3.542 16.641 16.641 0 0 1 11.22 6.212c20.015 25.134 19.295 57.333-1.754 78.301-3.129 3.117-6.639 5.84-10.417 8.163zm162.44 10.377a7.592 7.592 0 0 1-5.586 2.416 7.63 7.63 0 0 1-5.243-2.078c-11.62-10.92-24.914-16.781-40.645-17.92-15.061-1.088-32.481 2.23-53.265 10.146-14.134 5.384-27.077 6.029-39.265 1.949a69.043 69.043 0 0 0 2.564-2.425 73.336 73.336 0 0 0 8.809-10.576c6.916.905 14.311-.173 22.437-3.268 47.034-17.917 82.968-14.344 109.855 10.927a7.61 7.61 0 0 1 2.412 5.345 7.601 7.601 0 0 1-2.073 5.484zM101.875 191.637c-11.007-1.453-33.602.235-43.085 2.604a7.501 7.501 0 0 0 3.638 14.553c7.826-1.957 28.534-3.471 37.481-2.286a7.496 7.496 0 0 0 8.418-6.453 7.5 7.5 0 0 0-6.452-8.418zm203.624 14.871c8.95-1.183 29.655.329 37.481 2.286a7.549 7.549 0 0 0 1.825.226 7.503 7.503 0 0 0 1.812-14.779c-9.483-2.371-32.078-4.06-43.084-2.604a7.5 7.5 0 1 0 1.966 14.871zm-9.911 25.515c8.727 2.317 27.294 11.605 33.783 16.395a7.467 7.467 0 0 0 4.448 1.466 7.5 7.5 0 0 0 4.46-13.534c-7.862-5.804-28.108-15.975-38.84-18.825a7.5 7.5 0 0 0-3.851 14.498z"/></svg>