<svg xmlns="http://www.w3.org/2000/svg" viewBox="0 0 511.999 511.999" style="enable-background:new 0 0 511.999 511.999" xml:space="preserve"><path style="fill:#eda751" d="M22.606 457.707a15.062 15.062 0 0 1-11.713-5.563c-5.265-6.465-4.293-15.973 2.171-21.238 26.051-21.218 69.913-25.709 123.505-12.648 29.966 7.304 56.84-8.349 65.352-38.062 2.297-8.015 10.656-12.648 18.669-10.355 8.015 2.296 12.651 10.654 10.355 18.669-13.006 45.401-55.703 70.247-101.523 59.081-43.549-10.614-79.011-8.163-97.29 6.724a15.044 15.044 0 0 1-9.526 3.392z"/><path style="fill:#fcd79d" d="M25.912 422.53c-4.66 2.42-8.957 5.208-12.848 8.378-6.464 5.265-7.436 14.773-2.171 21.238a15.064 15.064 0 0 0 11.713 5.563c3.351 0 6.724-1.111 9.524-3.392 2.8-2.281 6.007-4.266 9.581-5.961-2.376-12.321-10.223-21.354-15.799-25.826z"/><path style="fill:#eda751" d="M130.984 372.818c-19.303 0-40.047-3.704-59.555-15.192-11.494-6.769-15.325-21.574-8.556-33.068 6.769-11.494 21.574-15.324 33.068-8.556 25.789 15.188 59.459 6.667 81.739 1.029 2.952-.747 5.695-1.44 8.197-2.03 12.983-3.056 25.988 4.985 29.048 17.968 3.06 12.983-4.984 25.988-17.969 29.048-2.267.534-4.753 1.165-7.427 1.842-14.329 3.628-35.399 8.959-58.545 8.959zM384.497 366.604c-10.193 0-20.239-1.675-29.836-6.655-11.84-6.144-16.458-20.722-10.315-32.562 6.144-11.839 20.721-16.458 32.562-10.315 5.268 2.733 18.664.468 31.618-1.723 21.783-3.685 48.89-8.272 78.742.678 12.778 3.831 20.031 17.294 16.2 30.07-3.831 12.778-17.293 20.03-30.071 16.2-19.046-5.711-38.246-2.461-56.814.679-10.626 1.799-21.437 3.628-32.086 3.628z"/><path style="opacity:.2;fill:#a35f00;enable-background:new" d="M410.939 363.919c-.745-15.781-2.299-30.601-3.667-43.631l-.486-4.645c-12.397 2.089-24.846 4.04-29.879 1.43-11.842-6.144-26.418-1.525-32.562 10.315s-1.525 26.418 10.315 32.562c9.598 4.98 19.644 6.655 29.836 6.655 8.77-.001 17.648-1.245 26.443-2.686zM220.589 369.843c-8.013-2.294-16.372 2.34-18.669 10.355-7.076 24.702-26.847 39.672-50.531 39.827-1.175 10.222-2.693 20.34-4.644 30.107 38.903 1.947 72.851-22.01 84.198-61.62 2.297-8.016-2.339-16.373-10.354-18.669zM214.926 332.97c-3.06-12.983-16.066-21.025-29.049-17.968-2.502.59-5.245 1.283-8.197 2.03-6.687 1.692-14.404 3.641-22.623 5.133.193 14.276.275 31.085-.282 48.926 13.541-1.871 25.543-4.899 34.754-7.23 2.675-.677 5.161-1.307 7.427-1.841 12.985-3.061 21.03-16.067 17.97-29.05z"/><path style="fill:#fcd690" d="M174.059 290.896c0 33.18 4.1 108.19-9.733 169.969-1.152 5.144.353 10.524 3.94 14.388l1.893 2.039a20.03 20.03 0 0 0 23.52 4.345l6.83-3.36a20.03 20.03 0 0 1 22.501 3.323l.63.588a20.028 20.028 0 0 0 23.889 2.57l6.413-3.81a20.03 20.03 0 0 1 22.113 1.095l3.207 2.363a20.031 20.031 0 0 0 21.622 1.378l10.49-5.837a20.031 20.031 0 0 1 22.337 1.93c7.546 6.104 18.383 5.92 25.716-.437 11.802-10.23 20.493-23.607 24.861-38.602 16.495-56.619 1.234-122.044 1.234-151.942H174.059z"/><path style="opacity:.15;fill:#c17a00;enable-background:new" d="M164.325 460.866c-1.152 5.144.353 10.525 3.94 14.388l1.893 2.039a20.03 20.03 0 0 0 23.52 4.345l6.83-3.36a20.03 20.03 0 0 1 22.501 3.323l.63.587a19.99 19.99 0 0 0 11.219 5.221c-19.96-40.614-4.955-134.069.988-165.49v-31.022h-61.787c0 33.18 4.1 108.189-9.734 169.969z"/><path style="fill:#eda751" d="M210.807 171.891c21.799-18.291 36.352-48.996 5.606-94.387-30.989-45.749-77.128-57.217-113.149-52.974A22.524 22.524 0 0 0 84.36 40.393c-10.434 34.736-7.152 82.165 32.52 120.628 39.363 38.162 72.129 29.162 93.927 10.87z"/><path style="fill:#ff91ab" d="M82.911 45.709c-8.554 34.153-3.717 78.774 33.97 115.313 34.117 33.077 63.274 30.713 84.634 17.589C186.825 78.884 122.652 52.44 82.911 45.709z"/><path style="fill:#eda751" d="M346.394 171.891c-21.799-18.291-36.352-48.996-5.606-94.387 30.989-45.749 77.128-57.217 113.149-52.974a22.524 22.524 0 0 1 18.904 15.863c10.434 34.736 7.152 82.165-32.52 120.628-39.363 38.162-72.129 29.162-93.927 10.87z"/><path style="fill:#ff91ab" d="M474.291 45.709c8.554 34.153 3.717 78.774-33.97 115.313-34.117 33.077-63.274 30.713-84.634 17.589 14.69-99.727 78.862-126.171 118.604-132.902z"/><path style="fill:#ffdc9c" d="M468.256 199.498c0 86.716-84.911 124.696-189.655 124.696S88.946 286.215 88.946 199.498 173.857 42.486 278.601 42.486s189.655 70.296 189.655 157.012z"/><path style="opacity:.15;fill:#c17a00;enable-background:new" d="M177.334 66.727c-53.115 27.825-88.389 76.884-88.389 132.77 0 74.543 62.748 113.073 146.9 122.42-120.799-72.154-105.044-169.212-58.511-255.19z"/><ellipse style="fill:#ff91ab" cx="199.615" cy="203.156" rx="34.339" ry="27.346"/><ellipse style="fill:#ff91ab" cx="385.741" cy="203.156" rx="34.339" ry="27.346"/><circle style="fill:#ff91ab" cx="292.673" cy="187.627" r="23.119"/><path d="M212.124 163.749v12.127a7.5 7.5 0 0 0 15 0v-12.127a7.5 7.5 0 0 0-15 0zm-49.997 84.407a7.467 7.467 0 0 0 4.448-1.466c6.46-4.768 24.94-14.013 33.625-16.319a7.501 7.501 0 0 0 5.325-9.173 7.502 7.502 0 0 0-9.173-5.325c-10.687 2.837-30.853 12.967-38.684 18.749a7.5 7.5 0 0 0 4.459 13.534zm28.195-43.189a7.497 7.497 0 0 0 8.418-6.453 7.501 7.501 0 0 0-6.453-8.418c-10.962-1.448-33.466.233-42.909 2.595a7.499 7.499 0 0 0-5.457 9.095 7.503 7.503 0 0 0 7.27 5.683c.602 0 1.214-.073 1.825-.226 7.789-1.947 28.397-3.454 37.306-2.276zm132.969-17.334c0-16.881-13.734-30.615-30.614-30.615-16.881 0-30.615 13.734-30.615 30.615s13.734 30.615 30.615 30.615c16.881-.001 30.614-13.735 30.614-30.615zm-46.23 0c0-8.61 7.005-15.616 15.616-15.616 8.61 0 15.615 7.005 15.615 15.616 0 8.61-7.005 15.616-15.615 15.616-8.61-.002-15.616-7.007-15.616-15.616zm96.168-11.757v-12.127a7.5 7.5 0 0 0-15 0v12.127a7.5 7.5 0 0 0 15 0zm134.969 148.275c-4.01-7.443-10.678-12.879-18.777-15.307-31.53-9.453-59.597-4.706-82.146-.889-2.171.367-4.361.735-6.523 1.083 5.535-2.537 10.806-5.275 15.778-8.221 38.746-22.957 59.226-57.992 59.226-101.319 0-19.227-3.917-37.935-11.43-55.5 20.862-31.162 26.605-69.449 15.698-105.762a29.97 29.97 0 0 0-25.209-21.153c-36.187-4.266-71.811 7.057-98.516 31.123-24.233-8.662-50.55-13.221-77.698-13.221s-53.465 4.559-77.698 13.221C174.2 24.14 138.574 12.819 102.388 17.083a29.967 29.967 0 0 0-25.209 21.153c-10.907 36.312-5.163 74.598 15.699 105.761-7.513 17.565-11.43 36.273-11.43 55.501 0 35.421 13.211 64.725 39.266 87.095 12.134 10.418 26.798 19.077 43.822 25.955-18.181 4.243-44.972 8.661-64.788-3.009-15.04-8.856-34.48-3.824-43.335 11.213-4.291 7.285-5.487 15.805-3.369 23.99 2.118 8.186 7.296 15.056 14.582 19.346 18.286 10.769 39.603 16.229 63.36 16.229 11.187 0 22.659-1.134 35.517-3.533-.421 11.039-1.1 22.411-2.155 33.802-8.069 2.439-16.966 2.586-26 .385-55.931-13.631-102.104-8.616-130.019 14.12A22.447 22.447 0 0 0 .12 440.312a22.446 22.446 0 0 0 4.958 16.567 22.515 22.515 0 0 0 17.529 8.327 22.655 22.655 0 0 0 14.261-5.076c16.199-13.194 50.135-15.158 90.778-5.253 9.993 2.436 19.95 3.32 29.725 2.662-.122.561-.238 1.128-.363 1.687-1.686 7.528.468 15.427 5.762 21.129l1.893 2.039c8.339 8.982 21.33 11.382 32.327 5.972l6.83-3.359c4.641-2.282 10.296-1.446 14.076 2.078l.63.588c8.887 8.287 22.39 9.74 32.834 3.533l6.414-3.81a12.507 12.507 0 0 1 13.833.685l3.207 2.363a27.54 27.54 0 0 0 16.344 5.356 27.49 27.49 0 0 0 13.373-3.462l10.491-5.837a12.474 12.474 0 0 1 13.973 1.207 27.499 27.499 0 0 0 35.346-.601c8.074-6.999 14.753-15.261 19.851-24.556a7.5 7.5 0 1 0-13.153-7.213c-4.239 7.73-9.799 14.606-16.524 20.435a12.519 12.519 0 0 1-16.088.273c-8.781-7.103-20.833-8.145-30.699-2.652l-10.491 5.837a12.56 12.56 0 0 1-13.525-.861l-3.207-2.364a27.478 27.478 0 0 0-30.392-1.505l-6.414 3.81c-4.753 2.826-10.9 2.163-14.944-1.607l-.63-.588c-8.306-7.746-20.735-9.581-30.926-4.568l-6.83 3.359c-5.004 2.464-10.917 1.372-14.713-2.718l-1.894-2.039c-1.932-2.081-2.723-4.939-2.117-7.646a321.961 321.961 0 0 0 2.433-12.003c.05-.215.088-.432.119-.652 1.948-10.684 3.441-21.64 4.57-32.608.046-.278.075-.559.089-.843 1.656-16.359 2.518-32.71 2.932-48.169.029-.312.036-.628.025-.947.458-17.895.321-34.544.114-48.563 11.077 3.403 22.984 6.163 35.7 8.263a7.5 7.5 0 1 0 2.444-14.8c-15.713-2.595-30.035-6.242-42.957-10.883a7.46 7.46 0 0 0-.769-.274c-18.182-6.615-33.537-15.232-45.861-25.813-22.586-19.392-34.037-44.866-34.037-75.714 0-82.441 81.714-149.513 182.156-149.513 100.441 0 182.155 67.071 182.155 149.513 0 38.274-17.453 68.021-51.872 88.414-7.607 4.507-15.982 8.499-25.042 11.974a8.196 8.196 0 0 0-.388.15c-28.727 10.946-64.379 16.658-104.853 16.658-8.144 0-16.219-.237-24.002-.705a7.5 7.5 0 1 0-.899 14.973c8.082.486 16.46.732 24.901.732 38.223 0 72.526-4.954 101.292-14.489.199 1.927.403 3.883.614 5.897 2.927 27.877 6.935 66.057.397 101.446a7.5 7.5 0 1 0 14.749 2.725c3.338-18.067 4.105-36.571 3.671-54.12 6.421-.739 12.75-1.806 18.526-2.783 17.713-2.997 36.03-6.095 53.394-.888 16.72 5.011 34.396-4.512 39.408-21.23 2.425-8.099 1.554-16.658-2.456-24.101zM160.307 442.207c-9.496 1.13-19.265.498-29.111-1.902-45.854-11.175-83.688-8.189-103.802 8.195a7.51 7.51 0 0 1-4.789 1.707c-2.3 0-4.449-1.02-5.898-2.799a7.54 7.54 0 0 1-1.667-5.569 7.543 7.543 0 0 1 2.759-5.116c24.187-19.7 65.735-23.668 116.992-11.177 9.479 2.31 18.913 2.598 27.82.9a392.573 392.573 0 0 1-2.304 15.761zm6.632-80.782c-13.258 2.649-24.806 3.893-35.955 3.893-21.044 0-39.8-4.762-55.748-14.155a16.542 16.542 0 0 1-7.671-10.178 16.546 16.546 0 0 1 1.772-12.622c4.66-7.912 14.888-10.559 22.8-5.899 24.307 14.315 54.503 9.616 74.9 4.904.11 10.379.136 21.89-.098 34.057zM139.711 82.697c-16.243 13.447-29.323 28.835-38.948 45.543-16.054-28.414-15.234-56.2-12.055-73.762 15.925 3.506 36.032 10.718 54.391 25.482-1.14.9-2.27 1.812-3.388 2.737zm15.916-11.831c-21.108-18.06-44.553-26.739-63.031-30.889a14.97 14.97 0 0 1 11.546-7.997c29.355-3.455 58.275 4.714 81.014 22.565-10.35 4.655-20.229 10.11-29.529 16.321zm216.417-16.323c22.739-17.851 51.654-26.022 81.015-22.565 5 .59 9.289 3.633 11.546 7.997-18.478 4.15-41.924 12.83-63.032 30.889-9.3-6.209-19.177-11.664-29.529-16.321zm84.395 73.697c-9.626-16.708-22.707-32.096-38.949-45.543a193.641 193.641 0 0 0-3.387-2.737c18.359-14.765 38.465-21.978 54.391-25.482 3.18 17.562 3.999 45.348-12.055 73.762zm39.844 215.704c-2.637 8.796-11.94 13.806-20.733 11.17-20.718-6.212-40.791-2.817-60.219.468-5.468.925-11.065 1.866-16.657 2.543-.721-11.909-1.844-23.133-2.894-33.189 4.521-.59 9.308-1.399 13.995-2.192 21.012-3.556 47.163-7.98 75.338.467a16.543 16.543 0 0 1 9.879 8.053 16.54 16.54 0 0 1 1.291 12.68zM379.828 221.198a7.5 7.5 0 0 0 5.325 9.173c8.684 2.305 27.164 11.55 33.625 16.319a7.467 7.467 0 0 0 4.448 1.466 7.5 7.5 0 0 0 4.46-13.534c-7.833-5.782-27.998-15.912-38.685-18.749-4.003-1.058-8.11 1.322-9.173 5.325zm15.203-16.231c8.909-1.178 29.517.329 37.307 2.275a7.5 7.5 0 0 0 1.825.226 7.504 7.504 0 0 0 7.27-5.683 7.5 7.5 0 0 0-5.457-9.095c-9.444-2.361-31.95-4.043-42.91-2.595a7.5 7.5 0 1 0 1.965 14.872z"/></svg>