<svg xmlns="http://www.w3.org/2000/svg" viewBox="0 0 512 512" style="enable-background:new 0 0 512 512" xml:space="preserve"><path style="fill:#eda751" d="M396.785 426.987c-27.921 0-46.607-22.903-62.268-42.097l-1.378-1.688c-4.812-5.891-3.938-14.568 1.953-19.38 5.891-4.813 14.568-3.937 19.381 1.953l1.387 1.7c22.335 27.371 33.518 37.639 54.48 28.808 12.163-5.123 15.596-16.857 20.19-35.578 4.334-17.658 9.246-37.672 27.76-49.526 6.408-4.102 14.925-2.233 19.027 4.172 4.102 6.406 2.233 14.925-4.173 19.026-9.24 5.917-12.308 18.418-15.86 32.893-4.772 19.444-10.711 43.642-36.25 54.4-8.807 3.709-16.853 5.317-24.249 5.317z"/><path style="fill:#fcd79d" d="M477.316 315.351c-4.102-6.406-12.619-8.274-19.027-4.172a48.9 48.9 0 0 0-11.635 10.379c3.184 7.26 9.457 16.016 19.849 19.542 1.805-2.716 3.957-5.004 6.64-6.722 6.406-4.102 8.275-12.621 4.173-19.027z"/><path style="fill:#eda751" d="M334.027 504.5c-11.324 0-20.954-8.677-21.933-20.167-2.93-34.38-1.15-59.633 5.773-81.879 3.616-11.622 15.97-18.113 27.59-14.494 11.621 3.616 18.111 15.969 14.495 27.59-5.149 16.548-6.365 36.607-3.942 65.04 1.034 12.127-7.96 22.796-20.087 23.83-.636.054-1.269.08-1.896.08zM265.244 504.5c-11.326 0-20.954-8.677-21.933-20.168-2.929-34.382-1.149-59.635 5.773-81.878 3.616-11.622 15.97-18.113 27.59-14.494 11.621 3.616 18.111 15.969 14.495 27.59-5.149 16.546-6.364 36.605-3.942 65.041 1.033 12.127-7.96 22.796-20.087 23.829-.636.054-1.27.08-1.896.08zM165.374 378.264c-20.581 0-39.324-7.418-52.824-20.918-8.605-8.606-8.605-22.56 0-31.166 8.606-8.606 22.561-8.606 31.167 0 6.598 6.599 15.37 8.008 21.655 8.008l.239-.001c12.728-.073 26.408-5.701 34.853-14.34 8.509-8.704 22.463-8.862 31.164-.354 8.703 8.508 8.862 22.461.354 31.164-16.51 16.889-41.846 27.466-66.121 27.604a39.53 39.53 0 0 1-.487.003z"/><path style="opacity:.2;fill:#a35f00;enable-background:new" d="M403.724 398.5c-16.949 4.121-27.999-6.68-47.865-31.026l-1.387-1.7c-4.813-5.89-13.49-6.766-19.381-1.953-5.892 4.813-6.765 13.49-1.953 19.38l1.379 1.688c13.071 16.019 28.254 34.612 49.15 40.327 7.97-7.919 14.747-16.909 20.057-26.716z"/><path style="opacity:.2;fill:#a35f00;enable-background:new" d="M345.457 387.959c-11.62-3.618-23.975 2.872-27.59 14.494-5.179 16.642-7.478 34.968-7.082 57.537 15.898-1.858 30.846-6.629 44.227-13.721.53-11.775 2.154-21.769 4.94-30.72 3.616-11.62-2.874-23.973-14.495-27.59zM276.674 387.959c-11.62-3.618-23.975 2.872-27.59 14.494-4.312 13.857-6.627 28.884-7.053 46.556 13.466 6.302 28.344 10.316 44.062 11.491-.417-18.289 1.232-32.601 5.075-44.952 3.617-11.619-2.872-23.972-14.494-27.589zM200.463 319.848c-6.249 6.392-15.365 11.128-24.84 13.193a107.847 107.847 0 0 0-.911 13.959c0 10.448 1.512 20.569 4.327 30.188 19.947-3.089 39.409-12.687 52.942-26.53 8.508-8.703 8.349-22.656-.354-31.164-8.701-8.508-22.654-8.35-31.164.354z"/><ellipse style="fill:#fcd690" cx="295.769" cy="347" rx="101.65" ry="94.45"/><path style="opacity:.15;fill:#c17a00;enable-background:new" d="M280.929 440.446c-46.449-30.496-32.054-92.998-24.169-120.332v-60.353c-36.775 14.216-62.634 47.919-62.634 87.239 0 47.479 37.702 86.77 86.803 93.446z"/><path style="fill:#eda751" d="M233.914 183.222c19.89-16.689 33.169-44.706 5.115-86.123-28.276-41.744-70.375-52.207-103.242-48.335a20.554 20.554 0 0 0-17.249 14.473c-9.521 31.695-6.526 74.971 29.673 110.067 35.916 34.82 65.814 26.607 85.703 9.918z"/><path style="fill:#ff91ab" d="M117.216 68.087c-7.805 31.163-3.392 71.877 30.996 105.217 31.13 30.181 57.734 28.024 77.224 16.048-13.405-90.994-71.959-115.124-108.22-121.265z"/><path style="fill:#eda751" d="M357.63 183.222c-19.89-16.689-33.169-44.706-5.115-86.123 28.276-41.744 70.375-52.207 103.242-48.335a20.554 20.554 0 0 1 17.249 14.473c9.52 31.695 6.526 74.971-29.673 110.067-35.916 34.82-65.814 26.607-85.703 9.918z"/><path style="fill:#ff91ab" d="M474.328 68.087c7.805 31.163 3.392 71.877-30.996 105.217-31.131 30.181-57.734 28.024-77.224 16.048 13.405-90.994 71.959-115.124 108.22-121.265z"/><path style="fill:#ffdc9c" d="M468.822 208.412c0 79.123-77.477 113.778-173.05 113.778s-173.05-34.655-173.05-113.778 77.477-143.265 173.05-143.265 173.05 64.141 173.05 143.265z"/><path style="opacity:.15;fill:#c17a00;enable-background:new" d="M203.372 87.266c-48.465 25.389-80.65 70.153-80.65 121.146 0 68.017 57.253 103.173 134.038 111.702-110.222-65.839-95.847-154.398-53.388-232.848z"/><ellipse style="fill:#ff91ab" cx="190.569" cy="211.75" rx="31.33" ry="24.952"/><ellipse style="fill:#ff91ab" cx="360.409" cy="211.75" rx="31.33" ry="24.952"/><path style="fill:#bd4568" d="M379.72 122.793H211.824c-18.445 0-31.871-17.495-27.099-35.312l4.229-15.791c10.14-37.861 44.448-64.19 83.643-64.19h46.35c39.196 0 73.503 26.329 83.643 64.19l4.229 15.791c4.772 17.817-8.654 35.312-27.099 35.312z"/><path style="opacity:.1;enable-background:new" d="M257.708 8.792c-32.758 5.705-59.923 29.923-68.754 62.898l-4.229 15.791c-4.772 17.817 8.654 35.312 27.099 35.312h46.741c-14.655-17.669-10.161-89.672-.857-114.001z"/><path style="fill:#bd4568" d="M339.405 122.793H211.824l6.464 13.946a42.057 42.057 0 0 0 38.158 24.372h38.338c16.38 0 31.27-9.51 38.158-24.372l6.463-13.946z"/><path style="opacity:.1;enable-background:new" d="M339.405 122.793H211.824l6.464 13.946a42.057 42.057 0 0 0 38.158 24.372h38.338c16.38 0 31.27-9.51 38.158-24.372l6.463-13.946z"/><path style="opacity:.1;enable-background:new" d="m406.819 87.481-2.445-9.131h-45.313V51.942h35.53a86.39 86.39 0 0 0-10.202-14.561h-25.328V17.365a86.544 86.544 0 0 0-14.56-6.004v26.021h-41.448V7.5h-14.56v29.882h-41.448V11.361a86.436 86.436 0 0 0-14.561 6.004v20.017h-25.327a86.35 86.35 0 0 0-10.202 14.561h35.529V78.35h-45.313l-2.445 9.131a28.42 28.42 0 0 0-.897 5.43h48.655v29.882h14.561V92.911h41.448v29.882h14.56V92.911h41.448v29.882h14.56V92.911h48.656a28.345 28.345 0 0 0-.898-5.43zM288.492 78.35h-41.448V51.942h41.448V78.35zm56.008 0h-41.448V51.942H344.5V78.35z"/><path style="fill:#b77866" d="m115.886 319.35-11.339 2.402a8.9 8.9 0 0 1-10.551-6.862l-2.071-9.776c-1.393-6.575-7.852-10.776-14.427-9.383l-35.336 7.485c-6.575 1.393-10.776 7.852-9.383 14.427l2.62 12.37c3.828 18.07 21.58 29.616 39.65 25.788l47.824-10.131a46.27 46.27 0 0 0 24.453-13.927 28.374 28.374 0 0 0 6.884-25.1l-.193-.91c-1.383-6.53-9.511-8.85-14.132-4.033l-8.857 9.232a29.438 29.438 0 0 1-15.142 8.418z"/><path style="opacity:.1;enable-background:new" d="m52.247 301.08-10.085 2.136c-6.575 1.393-10.776 7.852-9.383 14.427l2.62 12.37c3.828 18.07 21.58 29.616 39.65 25.788l20.058-4.249c-26.774-4.993-39.724-32.095-42.86-50.472z"/><path style="fill:#eda751" d="M340.248 374.394c-14.878 0-29.289-4.326-42.301-12.909-23.36-15.409-39.056-42.848-39.056-68.278 0-12.171 9.866-22.038 22.038-22.038 12.171 0 22.038 9.866 22.038 22.038 0 9.236 7.2 23.538 19.25 31.486 10.153 6.697 21.618 7.385 34.083 2.048 11.189-4.79 24.142.396 28.933 11.584 4.791 11.189-.396 24.142-11.585 28.933-11.132 4.767-22.394 7.136-33.4 7.136z"/><path style="opacity:.15;fill:#c18f00;enable-background:new" d="M340.248 374.394c-14.878 0-29.289-4.326-42.301-12.909-23.36-15.409-39.056-42.848-39.056-68.278 0-12.171 9.866-22.038 22.038-22.038 12.171 0 22.038 9.866 22.038 22.038 0 9.236 7.2 23.538 19.25 31.486 10.153 6.697 21.618 7.385 34.083 2.048 11.189-4.79 24.142.396 28.933 11.584 4.791 11.189-.396 24.142-11.585 28.933-11.132 4.767-22.394 7.136-33.4 7.136z"/><path d="M333.811 177.429c.276 0 .556-.029.836-.06v9.488a7.5 7.5 0 0 0 15 0v-11.064c0-.188-.015-.373-.028-.558l1.922-.276a7.5 7.5 0 0 0 6.356-8.491 7.5 7.5 0 0 0-8.491-6.357l-16.652 2.394a7.501 7.501 0 0 0 1.057 14.924zm149.821 133.877c-6.324-9.875-19.506-12.767-29.387-6.444-21.038 13.47-26.562 35.971-31 54.055-4.527 18.449-7.393 26.905-15.818 30.454-5.665 2.386-9.893 2.871-13.507 2.199 7.04-13.472 10.997-28.597 10.997-44.57 0-11.82-2.124-23.316-6.323-34.279 11.509-4.529 21.89-9.923 30.973-16.144 30.587-20.949 46.754-51.436 46.754-88.165 0-17.44-3.596-34.481-10.397-50.492 19.027-28.558 24.248-63.6 14.264-96.84a28 28 0 0 0-23.555-19.765c-13.561-1.598-33.701-1.517-55.508 6.969C384.792 19.032 353.577 0 318.947 0h-46.35c-34.63 0-65.845 19.032-82.178 48.284-21.809-8.485-41.946-8.566-55.509-6.969a28.003 28.003 0 0 0-23.554 19.765c-9.984 33.241-4.763 68.282 14.264 96.841-6.802 16.011-10.398 33.052-10.398 50.491 0 28.576 9.449 52.942 28.084 72.421 12.656 13.229 29.293 23.922 49.629 31.926a95.937 95.937 0 0 0-1.853 5.31c-7.113 5.3-16.688 8.568-25.517 8.618h-.193c-1.64 0-3.639-.13-5.747-.531a35.903 35.903 0 0 0 1.924-21.065l-.193-.914a15.777 15.777 0 0 0-11.131-11.929 15.779 15.779 0 0 0-15.751 4.258l-8.856 9.232a21.86 21.86 0 0 1-11.285 6.275l-11.338 2.401a1.367 1.367 0 0 1-1.054-.196 1.37 1.37 0 0 1-.606-.884l-2.071-9.776c-2.247-10.61-12.708-17.415-23.318-15.166l-35.336 7.486c-10.609 2.248-17.412 12.708-15.165 23.318l2.62 12.37c2.267 10.699 8.563 19.875 17.733 25.838 6.725 4.374 14.402 6.635 22.24 6.635 2.848 0 5.717-.298 8.568-.902l26.548-5.624a29.217 29.217 0 0 0 4.095 5.135c14.905 14.905 35.549 23.114 58.127 23.114l.528-.001c8.928-.051 18.215-1.453 27.241-4.053 8.05 20.705 23.09 38.301 42.44 50.295-1.558 15.271-1.475 32.656.255 52.965C237.13 500.126 250.047 512 265.245 512c.843 0 1.694-.036 2.532-.107 16.228-1.383 28.306-15.71 26.923-31.939-1.002-11.761-1.352-21.986-1.065-31.027.711.013 1.422.025 2.137.025 2.544 0 5.066-.089 7.567-.249-.274 10.957.144 22.9 1.283 36.267 1.29 15.157 14.207 27.03 29.405 27.03.843 0 1.695-.036 2.533-.108 12.282-1.047 22.725-9.735 25.983-21.618a7.5 7.5 0 0 0-5.249-9.217 7.497 7.497 0 0 0-9.216 5.249c-1.604 5.849-6.745 10.125-12.792 10.641-.416.035-.84.053-1.26.053-7.473 0-13.824-5.844-14.46-13.304-1.175-13.784-1.553-25.932-1.164-36.955a113.29 113.29 0 0 0 29.82-10.358c-.568 5.471-.873 11.283-.908 17.526a7.5 7.5 0 0 0 7.459 7.541h.042a7.5 7.5 0 0 0 7.499-7.459c.059-10.755.962-20.028 2.739-28.271.142-.109.281-.22.422-.329 10.084 6.108 20.376 9.095 31.309 9.095 8.72 0 17.857-1.986 27.16-5.905 29.013-12.221 35.723-39.56 40.623-59.524 3.168-12.912 5.904-24.063 12.62-28.364 9.88-6.325 12.77-19.508 6.445-29.387zM73.495 348.464c-6.777 1.437-13.712.147-19.521-3.632-5.81-3.778-9.8-9.593-11.236-16.372l-2.62-12.37a4.674 4.674 0 0 1 3.6-5.535l35.335-7.485a4.677 4.677 0 0 1 5.536 3.6l2.071 9.776c1.873 8.846 10.593 14.519 19.441 12.646l11.339-2.402h.001a36.8 36.8 0 0 0 19-10.564l8.855-9.231c.102-.107.34-.353.812-.22.472.135.543.471.572.611l.193.914a20.91 20.91 0 0 1-4.117 17.353c-.023.03-.047.059-.069.09-.281.348-.573.69-.878 1.022a38.554 38.554 0 0 1-20.49 11.669l-47.824 10.13zm92.319 22.298-.439.001c-17.555 0-33.59-5.948-45.49-16.794l4.542-.962a53.442 53.442 0 0 0 26.132-13.86c4.501 1.66 9.515 2.541 14.812 2.541h.282c7.202-.041 14.604-1.593 21.463-4.368a96.927 96.927 0 0 0-.491 9.68c0 6.968.754 13.774 2.187 20.353-7.649 2.188-15.486 3.367-22.998 3.409zm292.171-228.618c-9.289-15.858-21.934-30.36-37.535-42.79 16.23-12.855 33.897-19.281 48.061-22.475 2.747 15.758 3.292 40.19-10.526 65.265zm-3.106-85.932a13 13 0 0 1 9.612 6.2c-14.922 3.444-33.228 10.113-50.471 22.964l-4.186-15.628a93.96 93.96 0 0 0-2.455-7.781c18.65-7.06 35.856-7.126 47.5-5.755zm-262.91 33.209 4.23-15.791C205.443 39.109 236.86 15 272.597 15h46.35c35.737 0 67.154 24.109 76.398 58.63l4.23 15.791c1.667 6.222.373 12.722-3.548 17.831-3.922 5.11-9.865 8.041-16.307 8.041H211.824c-6.441 0-12.385-2.931-16.307-8.041-3.921-5.109-5.215-11.609-3.548-17.831zm135.694 40.872-1.525 3.292c-5.639 12.165-17.946 20.026-31.354 20.026h-38.338c-13.408 0-25.716-7.86-31.354-20.026l-1.526-3.292h104.097zM136.664 56.212c11.644-1.374 28.851-1.307 47.499 5.756a93.577 93.577 0 0 0-2.454 7.781l-4.186 15.627c-17.242-12.851-35.548-19.52-50.47-22.964a13.004 13.004 0 0 1 9.611-6.2zm-13.631 20.667c14.163 3.194 31.831 9.62 48.061 22.475-15.601 12.43-28.246 26.932-37.535 42.79-13.819-25.074-13.273-49.507-10.526-65.265zm143.47 420.068c-.416.035-.84.053-1.259.053-7.473 0-13.825-5.844-14.461-13.305-1.425-16.721-1.685-31.273-.791-44.158a113.938 113.938 0 0 0 28.676 8.16c-.351 9.826.007 20.871 1.086 33.531.681 7.986-5.263 15.038-13.251 15.719zm29.269-62.995c-51.912 0-94.145-39.006-94.145-86.952a80.576 80.576 0 0 1 3.107-22.245c.041-.13.079-.261.113-.394a81.344 81.344 0 0 1 2.264-6.661c2.437.754 4.901 1.486 7.427 2.173.658.179 1.32.265 1.972.265a7.502 7.502 0 0 0 1.961-14.74c-40.259-10.942-88.249-36.651-88.249-96.987 0-36.748 18.131-71.689 50.076-97.211a36.087 36.087 0 0 0 3.32 5.184c5.763 7.51 14.056 12.285 23.252 13.555l4.613 9.953c8.086 17.446 25.734 28.718 44.963 28.718h38.338c19.228 0 36.876-11.272 44.963-28.719l4.449-9.599h35.525c11.142 0 21.423-5.069 28.206-13.908a36.096 36.096 0 0 0 3.32-5.185c31.944 25.522 50.075 60.463 50.075 97.211 0 32.007-13.535 57.506-40.23 75.79-24.135 16.53-58.767 26.751-100.303 29.638-6.759-6.831-10.322-15.668-10.322-20.632 0-16.287-13.25-29.538-29.537-29.538s-29.538 13.251-29.538 29.538c0 6.285.876 12.676 2.513 19-.827-.102-1.67-.191-2.488-.299-4.091-.54-7.875 2.346-8.418 6.453a7.5 7.5 0 0 0 6.453 8.418c3.331.44 6.74.831 10.174 1.173 7.403 15.736 19.374 30.02 34.192 39.795 14.232 9.388 29.854 14.148 46.431 14.148 12.126 0 24.357-2.604 36.353-7.741a29.457 29.457 0 0 0 11.06-8.207c-9.39 38.864-47.021 68.006-91.89 68.006zm79.919-113.763c2.965-.789 5.882-1.62 8.736-2.504a80.429 80.429 0 0 1 5.472 28.011 7.516 7.516 0 0 0-1.724-.672 7.497 7.497 0 0 0-9.089 5.468c-1.11 4.465-4.169 8.064-8.391 9.871-10.12 4.333-20.364 6.53-30.448 6.53-13.59 0-26.432-3.926-38.171-11.67-13.503-8.907-24.197-22.155-30.237-36.513a7.51 7.51 0 0 0-.535-1.3c-3.169-7.94-4.914-16.187-4.914-24.203s6.522-14.538 14.538-14.538 14.537 6.522 14.537 14.538c0 9.804 6.234 24.247 17.87 34.155.049.04.096.081.146.119a48.592 48.592 0 0 0 4.604 3.472c12.213 8.055 26.447 8.983 41.164 2.683a14.392 14.392 0 0 1 9.428-.694 7.495 7.495 0 0 0 9.169-5.331 7.492 7.492 0 0 0-2.155-7.422zm93.409 7.872c-11.767 7.534-15.329 22.052-19.101 37.424-4.6 18.739-9.813 39.979-31.877 49.273-7.45 3.138-14.629 4.728-21.338 4.728-6.694 0-13.145-1.561-19.535-4.73a103.986 103.986 0 0 0 8.422-10.013c8.531 3.238 17.454 2.716 27.579-1.549 16.254-6.846 20.29-23.291 24.564-40.706 4.193-17.087 8.53-34.757 24.518-44.993a6.281 6.281 0 0 1 8.668 1.899 6.281 6.281 0 0 1-1.9 8.667zM218.228 162.504l-16.652-2.394a7.501 7.501 0 0 0-2.135 14.848l1.922.276c-.014.185-.028.37-.028.558v11.064c0 4.142 3.357 7.5 7.5 7.5s7.5-3.358 7.5-7.5v-9.488c.28.031.56.06.836.06a7.502 7.502 0 0 0 7.414-6.434 7.502 7.502 0 0 0-6.357-8.49zm180.841 77.428c-7.19-5.308-25.706-14.608-35.518-17.213a7.499 7.499 0 0 0-9.174 5.325 7.5 7.5 0 0 0 5.324 9.173c7.71 2.047 24.736 10.559 30.46 14.784a7.467 7.467 0 0 0 4.448 1.466 7.5 7.5 0 0 0 4.46-13.535zm-211.638-17.214c-9.814 2.606-28.33 11.907-35.518 17.214a7.5 7.5 0 1 0 8.908 12.067c5.723-4.224 22.749-12.736 30.46-14.783a7.5 7.5 0 1 0-3.85-14.498zm181.538-8.665c7.911-1.046 26.895.337 33.795 2.063a7.506 7.506 0 0 0 1.825.226 7.5 7.5 0 0 0 1.814-14.778c-8.669-2.168-29.332-3.712-39.398-2.382a7.5 7.5 0 0 0-6.453 8.418c.542 4.107 4.324 6.993 8.417 6.453zm-186.958 0c4.094.538 7.875-2.346 8.418-6.453a7.5 7.5 0 0 0-6.453-8.418c-10.064-1.329-30.729.214-39.397 2.382a7.5 7.5 0 1 0 3.639 14.552c6.901-1.725 25.884-3.109 33.793-2.063zm69.491-10.663a7.502 7.502 0 0 0 10.227-2.813c1.303-2.29 3.54-3.677 6.302-3.905 12.089-.996 21.436 6.654 23.186 8.198a7.472 7.472 0 0 0 4.959 1.876 7.5 7.5 0 0 0 4.965-13.124c-3.583-3.161-16.648-13.355-34.347-11.899-7.736.64-14.335 4.81-18.105 11.44a7.501 7.501 0 0 0 2.813 10.227z"/></svg>