<svg xmlns="http://www.w3.org/2000/svg" viewBox="0 0 512.002 512.002" style="enable-background:new 0 0 512.002 512.002" xml:space="preserve"><path style="fill:#eda751" d="M132.796 284.362c6.934-19.051 4.976-43.181-30.166-60.235-35.418-17.189-67.972-7.828-88.686 7.622a16.047 16.047 0 0 0-6.013 16.522c5.936 25.15 24.857 53.245 63.038 62.845 37.882 9.524 54.893-7.702 61.827-26.754z"/><path style="fill:#ff91ab" d="M8.93 252.067c6.889 24.121 25.769 49.929 62.039 59.049 32.834 8.255 49.982-3.59 58.486-19.298-44.59-56.299-93.607-49.756-120.525-39.751z"/><path style="fill:#eda751" d="M216.455 236.062c-19.966-3.521-39.884-17.282-37.082-56.241 2.824-39.267 27.207-62.78 50.944-72.993a16.048 16.048 0 0 1 17.315 3.053c18.813 17.716 33.683 48.149 22.907 86.015-10.694 37.567-34.118 43.686-54.084 40.166z"/><path style="fill:#ff91ab" d="M250.419 112.643c17.445 18.026 30.357 47.281 20.119 83.252-9.268 32.563-28.1 41.491-45.955 41.002-26.462-66.766 3.712-105.944 25.836-124.254z"/><path style="fill:#ffdc9c" d="M301.481 209.685c30.892 53.505-7.971 107.188-72.6 144.502S98.33 398.314 67.439 344.808s-3.542-127.128 61.087-164.441c64.629-37.314 142.064-24.189 172.955 29.318z"/><path style="opacity:.15;fill:#c17a00;enable-background:new" d="M74.679 231.399c-22.861 36.09-27.149 78.927-7.24 113.409 26.555 45.995 78.997 47.415 134.251 23.205-100.24-1.489-125.094-66.987-127.011-136.614z"/><ellipse transform="rotate(-120 128.34 312.656)" style="fill:#ff91ab" cx="128.341" cy="312.652" rx="19.483" ry="24.465"/><ellipse transform="rotate(60 243.197 246.353)" style="fill:#ff91ab" cx="243.189" cy="246.355" rx="19.483" ry="24.465"/><path style="fill:#7694e4" d="M374.028 252.224c150.919 10.327 145.391 88.33 108.934 127.499-9.729 10.453-22.604 17.45-36.578 20.381-72.088 15.119-197.545-.232-231.181-9.14 0 0-2.75-37.69 44.382-83.484 51.908-50.433 81.593-55.936 114.443-55.256z"/><path style="fill:#82c7e6" d="M162.244 376.183c26.045-33.993 103.57-127.009 168.049-142.925 6.454-1.593 13.19-1.791 19.67-.306 7.817 1.792 14.008 4.649 19.033 8.255 6.129 4.399 6.103 13.505-.092 17.812-34.803 24.199-118.245 97.159-144.461 127.764-2.479 2.894-5.732 5.035-9.41 6.031-14.183 3.842-31.481 4.867-47.02.681-7.527-2.026-10.51-11.124-5.769-17.312z"/><path d="M411.686 137.811h26.68l-28.952 22.856c-3.588 2.833-4.991 7.637-3.492 11.955s5.578 7.219 10.148 7.219h38.942a7.5 7.5 0 0 0 7.5-7.5 7.5 7.5 0 0 0-7.5-7.5h-26.68l28.952-22.856a10.75 10.75 0 0 0 3.492-11.955 10.75 10.75 0 0 0-10.148-7.219h-38.942c-4.143 0-7.5 3.358-7.5 7.5s3.357 7.5 7.5 7.5zM338.17 169.47h26.68l-28.952 22.856a10.75 10.75 0 0 0-3.492 11.955 10.75 10.75 0 0 0 10.148 7.219h38.942c4.143 0 7.5-3.358 7.5-7.5s-3.357-7.5-7.5-7.5h-26.68l28.952-22.856a10.75 10.75 0 0 0 3.492-11.955 10.75 10.75 0 0 0-10.148-7.219H338.17a7.5 7.5 0 1 0 0 15zM139.284 272.598a7.503 7.503 0 0 0-10.046 3.403c-.689 1.397-1.942 2.67-3.527 3.585-1.586.916-3.317 1.36-4.87 1.263-4.141-.277-7.702 2.866-7.969 7a7.5 7.5 0 0 0 7 7.969c.474.031.949.046 1.425.046 4.077 0 8.167-1.124 11.914-3.287 4.183-2.415 7.46-5.85 9.477-9.933a7.501 7.501 0 0 0-3.404-10.046zm72.164-28.784c4.077 0 8.167-1.125 11.912-3.287 4.183-2.415 7.46-5.85 9.477-9.932a7.5 7.5 0 0 0-13.449-6.643c-.689 1.396-1.942 2.669-3.528 3.585-1.584.915-3.317 1.363-4.868 1.263-4.134-.273-7.702 2.865-7.97 6.999a7.5 7.5 0 0 0 6.999 7.97c.474.03.95.045 1.427.045zm-25.166 36.588a7.332 7.332 0 1 0-7.332-12.7 7.332 7.332 0 0 0 7.332 12.7zm60.031-32.981a7.468 7.468 0 0 0 4.563-1.552c4.824-3.705 17.892-10.031 23.11-11.523a7.5 7.5 0 0 0-4.125-14.421c-6.839 1.956-21.705 9.12-28.122 14.048a7.5 7.5 0 0 0 4.574 13.448zm-116.975 72.715c-5.733 5.707-14.801 19.494-17.646 26.016a7.5 7.5 0 1 0 13.75 5.997c2.17-4.976 10.169-17.092 14.479-21.382a7.5 7.5 0 0 0-10.583-10.631zm361.548-37.608a7.5 7.5 0 0 0-10.296 10.908c12.337 11.644 17.764 25.56 16.132 41.358-1.414 13.681-8.43 28.195-19.249 39.818-8.555 9.191-19.838 15.468-32.629 18.15-62.586 13.126-165.062 2.729-210.831-5.478 29.931-32.919 106.8-99.6 139.171-122.108a18.364 18.364 0 0 0 4.938-5.122c30.48 2.424 55.728 7.857 75.077 16.181a7.47 7.47 0 0 0 2.96.612 7.501 7.501 0 0 0 2.968-14.392c-20.618-8.87-47.086-14.671-78.735-17.272a18.495 18.495 0 0 0-7.024-10.071c-6.188-4.441-13.295-7.539-21.73-9.473-7.391-1.693-15.392-1.578-23.142.335a111.266 111.266 0 0 0-10.989 3.349c-1.944-7.931-5.13-15.766-9.533-23.392-6.803-11.784-15.763-21.903-26.473-30.114 1.449-26.888-8.877-52.702-28.732-71.4a23.508 23.508 0 0 0-25.422-4.482c-24.023 10.337-42.202 30.002-50.495 54.39-17.851 3.406-35.504 9.974-52.08 19.544-16.766 9.68-31.198 21.762-42.913 35.341-25.283-5.031-51.424.878-72.402 16.525a23.509 23.509 0 0 0-8.829 24.257c6.268 26.554 23.473 48.41 47.498 60.597 1.127 8.595 3.301 17.051 6.599 25.222a7.502 7.502 0 0 0 6.957 4.695 7.5 7.5 0 0 0 6.952-10.309c-3.194-7.912-5.163-16.143-5.997-24.52a7.458 7.458 0 0 0-.136-1.449c-1.46-17.426 1.984-35.438 9.648-52.501a7.483 7.483 0 0 0 .781-1.71c4.446-9.512 10.208-18.71 17.163-27.325.251-.264.481-.549.694-.85 11.048-13.47 25.028-25.481 41.486-34.983 16.214-9.361 33.52-15.564 50.923-18.428a7.438 7.438 0 0 0 1.3-.212c14.097-2.185 28.242-2.175 41.903.141 16.075 2.725 30.454 8.481 42.479 16.829.292.247.609.466.938.666 10.312 7.35 18.848 16.633 25.167 27.577 4.138 7.166 6.962 14.497 8.476 21.857-7.474 3.629-15.219 8.087-23.222 13.365-7.203-.749-23.361.213-31.075 2.298a7.5 7.5 0 1 0 3.915 14.48c1.418-.384 3.346-.724 5.521-1.013-10.287 8.171-20.941 17.544-31.941 28.113-33.431 32.12-60.348 66.009-70.369 79.088v.001a18.609 18.609 0 0 0-1.874 3.003c-29.192 4.55-52.327-1.527-68.8-18.107a7.498 7.498 0 0 0-10.606-.034 7.5 7.5 0 0 0-.034 10.606c15.749 15.852 36.835 23.954 61.838 23.954 5.483 0 11.159-.399 17.003-1.182a18.332 18.332 0 0 0 12.247 10.875c7.302 1.966 15.307 2.946 23.51 2.946 9.127 0 18.5-1.213 27.423-3.631a25.936 25.936 0 0 0 1.693-.529c19.108 4.305 57.647 9.952 100.742 12.74 14.939.967 32.406 1.721 50.541 1.721 26.52 0 54.46-1.615 77.95-6.542 15.839-3.322 29.854-11.141 40.53-22.611 13.187-14.169 21.422-31.392 23.188-48.497 2.109-20.393-5.067-38.999-20.753-53.805zM47.278 292.802c-16.226-10.679-24.588-25.165-28.82-35.991 9.953-2.913 22.731-4.991 36.814-3.275-4.826 12.852-7.562 26.106-7.994 39.266zm14.282-53.516c-17.686-2.991-33.747-.7-46.158 2.792a8.48 8.48 0 0 1 3.028-4.317c7.717-5.756 27.016-17.532 52.964-14.973a147.718 147.718 0 0 0-9.834 16.498zm151.497-87.469a146.7 146.7 0 0 0-19.206.236c10.764-23.718 30.592-34.534 39.429-38.337a8.5 8.5 0 0 1 5.254-.462c-9.225 8.997-19.223 21.762-25.477 38.563zm15.852 1.757c-.13-.022-.26-.04-.39-.061 5.556-13.056 13.744-23.084 21.244-30.247 7.256 9.074 15.616 23.55 16.758 42.925-11.281-6.016-23.918-10.296-37.612-12.617zm-14.011 231.314c-.086.04-.171.083-.256.126-.509.228-1.033.416-1.57.561-14.456 3.917-30.167 4.164-43.109.678-1.499-.403-2.09-1.544-2.308-2.189-.185-.545-.502-1.958.542-3.321 9.813-12.808 36.164-45.987 68.854-77.395 28.775-27.646 54.701-46.615 77.351-56.636a7.31 7.31 0 0 0 .73-.317c5.876-2.558 11.534-4.519 16.958-5.858 5.481-1.352 11.081-1.45 16.196-.276 6.455 1.48 11.799 3.782 16.336 7.038 1.272.913 1.453 2.162 1.448 2.825-.001.118-.012.26-.031.41-.027.117-.044.238-.065.357-.145.626-.501 1.377-1.353 1.969-34.503 23.99-118.757 97.383-145.875 129.043a11.758 11.758 0 0 1-3.848 2.985zM91.939 333.149a7.477 7.477 0 0 0 5.393 2.287c1.877 0 3.756-.7 5.212-2.108 3.902-3.773 15.915-11.927 21.534-14.251a7.5 7.5 0 1 0-5.733-13.861c-7.475 3.092-21.112 12.384-26.227 17.33a7.497 7.497 0 0 0-.179 10.603z"/></svg>