<svg xmlns="http://www.w3.org/2000/svg" viewBox="0 0 512.002 512.002" style="enable-background:new 0 0 512.002 512.002" xml:space="preserve"><path style="fill:#eda751" d="M123.389 419.602c-8.179 0-16.676-1.698-25.576-5.089-24.563-9.357-33.416-25.331-39.881-36.995-6.875-12.404-10.326-18.631-31.201-19.8-8.27-.463-14.597-7.542-14.134-15.811.463-8.27 7.566-14.602 15.811-14.134 37.404 2.094 47.58 20.454 55.756 35.205 5.59 10.085 10.005 18.052 24.325 23.507 25.077 9.553 37.314-3.643 60.455-31.979l.852-1.043c5.239-6.414 14.687-7.366 21.1-2.126s7.366 14.687 2.126 21.101l-.848 1.039c-11.666 14.286-22.684 27.778-36.903 36.633-10.169 6.333-20.73 9.492-31.882 9.492z"/><path style="fill:#fcd79d" d="M12.596 341.908c-.463 8.269 5.865 15.348 14.134 15.811 6.035.338 10.607 1.101 14.233 2.312 4.411-9.792 5.204-21.126 4.571-29.791-4.983-1.239-10.637-2.102-17.128-2.465-8.244-.469-15.347 5.864-15.81 14.133z"/><path style="fill:#eda751" d="M289.428 504.5c-.792 0-1.59-.039-2.393-.118-13.187-1.306-22.818-13.055-21.512-26.24 3.194-32.257-.633-57.636-4.881-69.565-4.444-12.484 2.074-26.206 14.557-30.651 12.484-4.444 26.205 2.073 30.651 14.557 8.023 22.534 10.798 56.325 7.425 90.388-1.225 12.38-11.661 21.629-23.847 21.629zM204.351 504.5c-.791 0-1.59-.039-2.394-.118-13.187-1.306-22.816-13.055-21.51-26.242 3.195-32.255-.632-57.633-4.88-69.564-4.444-12.484 2.073-26.206 14.557-30.651 12.481-4.444 26.206 2.073 30.65 14.557 8.024 22.536 10.799 56.327 7.425 90.389-1.227 12.381-11.661 21.629-23.848 21.629z"/><path style="opacity:.2;fill:#a35f00;enable-background:new" d="M190.124 377.924c-12.484 4.444-19.002 18.168-14.557 30.651 2.647 7.434 5.129 20.089 5.852 36.372 14.828 6.142 31.094 9.756 48.184 10.256.056-24.038-3-46.351-8.829-62.723-4.444-12.483-18.17-19-30.65-14.556zM305.85 392.48c-4.446-12.485-18.168-19.001-30.651-14.557-12.483 4.444-19.001 18.168-14.557 30.651 2.981 8.371 5.75 23.368 6.036 42.711 17.254-4.252 33.118-11.758 46.806-21.776-1.386-14-3.957-26.699-7.634-37.029z"/><ellipse style="fill:#fcd690" cx="233.706" cy="333.022" rx="110.667" ry="102.828"/><path style="opacity:.15;fill:#c18f00;enable-background:new" d="M217.544 434.762c-50.571-33.201-34.898-101.251-26.313-131.009v-65.708c-40.038 15.478-68.191 52.172-68.191 94.98-.001 51.691 41.046 94.468 94.504 101.737z"/><path style="fill:#eda751" d="M166.358 154.713c21.654-18.171 36.112-48.673 5.569-93.765C141.142 15.501 95.307 4.109 59.524 8.325a22.377 22.377 0 0 0-18.78 15.758C30.379 58.59 33.639 105.707 73.05 143.916c39.103 37.909 71.654 28.968 93.308 10.797z"/><path style="fill:#ff91ab" d="M39.304 29.363c-8.498 33.928-3.693 78.255 33.746 114.552 33.893 32.859 62.857 30.511 84.076 17.473C142.533 62.319 78.783 36.049 39.304 29.363z"/><path style="fill:#eda751" d="M301.051 154.713c-21.655-18.171-36.113-48.673-5.569-93.765C326.267 15.5 372.101 4.109 407.884 8.325a22.377 22.377 0 0 1 18.78 15.758c10.366 34.507 7.105 81.624-32.306 119.833-39.102 37.909-71.653 28.968-93.307 10.797z"/><path style="fill:#ff91ab" d="M428.104 29.363c8.498 33.928 3.693 78.255-33.746 114.552-33.893 32.859-62.857 30.511-84.076 17.473 14.593-99.069 78.343-125.339 117.822-132.025z"/><path style="fill:#ffdc9c" d="M422.109 182.138c0 86.144-84.352 123.874-188.406 123.874S45.299 268.282 45.299 182.138 129.651 26.161 233.705 26.161s188.404 69.833 188.404 155.977z"/><path style="opacity:.15;fill:#c18f00;enable-background:new" d="M133.105 50.243C80.34 77.884 45.299 126.621 45.299 182.137c0 74.052 62.334 112.327 145.932 121.614-120.003-71.68-104.352-168.097-58.126-253.508z"/><ellipse style="fill:#ff91ab" cx="141.248" cy="185.775" rx="34.109" ry="27.169"/><ellipse style="fill:#ff91ab" cx="326.153" cy="185.775" rx="34.109" ry="27.169"/><path style="fill:#fff" d="M260.813 153.647h-54.218c-11.946 0-21.63 9.684-21.63 21.63v9.967c0 26.918 21.822 48.739 48.739 48.739 26.918 0 48.739-21.821 48.739-48.739v-9.967c0-11.945-9.683-21.63-21.63-21.63z"/><path style="opacity:.1;enable-background:new" d="M210.178 227.932a48.428 48.428 0 0 0 14.561 5.215v-79.499h-14.561v74.284zm32.492-74.285v79.499a48.393 48.393 0 0 0 14.56-5.214v-74.285h-14.56z"/><path style="fill:#82c7e6" d="m445.696 217.662-92.922 33.821a31.615 31.615 0 0 1-33.222-7.406 31.617 31.617 0 0 1 11.596-52.013l56.745-20.654a99.116 99.116 0 0 0 40.136-27.24c10.411-11.697 29.711-6.42 32.724 8.946l1.377 7.026a121.465 121.465 0 0 1 1.831 33.66 27.914 27.914 0 0 1-18.265 23.86z"/><g style="opacity:.3"><circle style="fill:#fff" cx="432.071" cy="170.346" r="7.115"/><circle style="fill:#fff" cx="337.253" cy="209.915" r="7.115"/><circle style="fill:#fff" cx="387.372" cy="202.805" r="7.115"/></g><path style="opacity:.1;enable-background:new" d="m342.22 188.032-11.073 4.03a31.616 31.616 0 0 0-11.596 52.013 31.615 31.615 0 0 0 33.222 7.406l16.549-6.023c-36.365-1.894-33.614-39.382-27.102-57.426z"/><path style="fill:#7694e4" d="M210.957 360.347a17.406 17.406 0 0 0 16.593 2.582l97.002-35.305a17.402 17.402 0 0 0 11.051-12.643l2.692-12.333 145.821-53.075 13.843 38.031c4.609 12.663-1.92 26.663-14.583 31.272L54.048 475.139c-12.663 4.609-26.663-1.92-31.272-14.583l-5.497-15.104c-4.609-12.663 1.92-26.663 14.583-31.272l157.245-57.233a22.92 22.92 0 0 1 21.85 3.4z"/><path style="fill:#dee2e5" d="m453.665 202.029-16.782-1.88a25.456 25.456 0 0 0-21.267 7.741l-12.445 13.065a25.458 25.458 0 0 1-21.267 7.741l-17.931-2.009a25.456 25.456 0 0 0-21.267 7.741l-11.648 12.228a22.234 22.234 0 0 0-4.795 22.941l12.031 33.053 145.821-53.075-12.031-33.052a22.233 22.233 0 0 0-18.419-14.494z"/><g style="opacity:.1"><path d="M432.069 248.881a7.504 7.504 0 0 1-7.049-4.937l-4.003-10.999a7.501 7.501 0 0 1 14.095-5.13l4.003 10.999a7.501 7.501 0 0 1-7.046 10.067zM378.595 272.189a7.505 7.505 0 0 1-7.049-4.938l-2.784-7.652a7.5 7.5 0 0 1 4.483-9.612 7.495 7.495 0 0 1 9.612 4.483l2.784 7.652a7.5 7.5 0 0 1-4.483 9.612 7.458 7.458 0 0 1-2.563.455z"/></g><path style="fill:#82c7e6" d="m85.413 428.901 96.924-35.277c9.811-3.571 14.87-14.419 11.299-24.229l-4.53-12.446-132.452 48.208 4.53 12.446c3.571 9.81 14.418 14.869 24.229 11.298z"/><path style="fill:#eda751" d="M177.308 401.656c-18.508 0-37.436-9.108-49.816-24.085-13.813-16.714-18.511-38.642-13.229-61.749 2.953-12.918 15.82-20.993 28.737-18.043 12.918 2.953 20.995 15.82 18.043 28.737-1.94 8.485-.783 15.376 3.437 20.483 3.933 4.759 9.55 6.782 13.107 6.666 13.252-.486 24.358 9.887 24.825 23.13.469 13.243-9.888 24.357-23.13 24.825a54.07 54.07 0 0 1-1.974.036zM384.429 385.92c-3.485 0-7.025-.763-10.378-2.374-11.943-5.741-16.97-20.077-11.23-32.019 1.532-3.19 2.078-5.391 3.428-11.288.216-.942.44-1.923.681-2.953 3.017-12.903 15.928-20.916 28.824-17.903 12.904 3.016 20.919 15.921 17.904 28.824-.224.957-.432 1.868-.633 2.743-1.551 6.774-3.017 13.172-6.956 21.366-4.126 8.59-12.705 13.604-21.64 13.604z"/><path d="M132.018 187.62a7.5 7.5 0 0 0 1.965-14.871c-10.895-1.439-33.259.232-42.645 2.579a7.5 7.5 0 0 0-5.457 9.095 7.503 7.503 0 0 0 7.27 5.683c.602 0 1.214-.073 1.825-.226 7.734-1.934 28.198-3.431 37.042-2.26zm15.158 16.063a7.502 7.502 0 0 0-9.173-5.325c-10.621 2.819-30.662 12.887-38.446 18.633a7.5 7.5 0 0 0 4.46 13.534 7.467 7.467 0 0 0 4.448-1.466c6.415-4.735 24.764-13.914 33.387-16.204a7.5 7.5 0 0 0 5.324-9.172zm150.132-41.611a7.5 7.5 0 0 0 7.5-7.5 5.93 5.93 0 0 1 5.924-5.924 5.93 5.93 0 0 1 5.924 5.924c0 4.142 3.357 7.5 7.5 7.5s7.5-3.358 7.5-7.5c0-11.538-9.387-20.923-20.924-20.923-11.537 0-20.924 9.387-20.924 20.923a7.5 7.5 0 0 0 7.5 7.5zM505.004 285.04l-13.843-38.031-12.03-33.052a29.689 29.689 0 0 0-8.957-12.735 35.033 35.033 0 0 0 1.258-6.784 128.933 128.933 0 0 0-1.943-35.739l-1.377-7.027c-1.946-9.925-9.215-17.747-18.971-20.414-9.639-2.635-19.741.305-26.465 7.661a143.736 143.736 0 0 0-4.45-11.858c20.749-30.974 26.463-69.037 15.621-105.137A29.822 29.822 0 0 0 408.763.875c-35.99-4.239-71.411 7.028-97.954 30.974-23.792-8.508-49.897-13.191-77.104-13.191-26.964 0-53.104 4.527-77.175 13.127C129.994 7.885 94.607-3.359 58.647.877a29.82 29.82 0 0 0-25.085 21.048c-10.838 36.079-5.135 74.12 15.586 105.085-7.459 17.447-11.348 36.031-11.348 55.128 0 43.06 20.353 77.879 58.86 100.694 7.403 4.386 15.452 8.32 24.091 11.791-6.748 4.295-11.879 11.136-13.799 19.53-5.109 22.346-1.677 43.758 9.635 61.21l-8.159 2.97c-9.57-4.34-12.736-10.022-17.706-18.988-8.591-15.502-20.358-36.732-61.891-39.057-5.996-.346-11.76 1.679-16.245 5.685-4.487 4.008-7.144 9.519-7.48 15.518a22.348 22.348 0 0 0 5.689 16.25 22.35 22.35 0 0 0 15.515 7.468c16.741.937 18.504 4.117 25.06 15.947 2.424 4.373 5.235 9.435 9.1 14.633l-6.383 2.323-24.792 9.024c-8.007 2.914-14.4 8.772-18.001 16.495-3.601 7.722-3.979 16.385-1.065 24.39l5.498 15.105c2.915 8.006 8.772 14.399 16.495 18 4.289 2 8.867 3.006 13.462 3.006 3.679 0 7.369-.645 10.929-1.94l116.976-42.576c.718 9.692.909 22.5-.605 37.789-.83 8.372 1.65 16.565 6.983 23.07 5.333 6.506 12.88 10.545 21.247 11.374 1.037.104 2.092.156 3.137.156 16.247 0 29.707-12.206 31.31-28.39 1.332-13.444 1.727-27.214 1.198-40.308a126.695 126.695 0 0 0 21.893-2.444c.627 9.357.767 21.79-.694 36.543-.829 8.372 1.651 16.565 6.984 23.07 5.334 6.505 12.882 10.545 21.249 11.373 1.036.104 2.092.156 3.137.156 14.849 0 27.805-10.555 30.808-25.096a7.5 7.5 0 0 0-14.689-3.034c-1.571 7.608-8.351 13.131-16.119 13.131-.551 0-1.105-.027-1.654-.082a16.386 16.386 0 0 1-11.131-5.957 16.38 16.38 0 0 1-3.657-12.082c1.424-14.388 1.588-28.747.51-41.938 11.306-3.762 21.884-9.101 31.399-15.803 1.356 9.39 2.139 19.628 2.266 30.237a7.5 7.5 0 0 0 7.497 7.411h.092a7.498 7.498 0 0 0 7.409-7.589c-.174-14.641-1.52-28.717-3.894-41.045 9.444-9.037 17.303-19.673 23.087-31.602l13.835-5.035c2.814 7.11 8.198 13.224 15.617 16.791a31.225 31.225 0 0 0 13.626 3.114c12.041 0 23.188-7.009 28.401-17.855 4.303-8.951 5.932-16.063 7.508-22.942l.039-.172c.186-.812.378-1.655.584-2.537.029-.122.049-.245.076-.367l64.901-23.622c16.527-6.022 25.081-24.363 19.065-40.891zm-47.457-74.206c.092.047.187.083.28.126a14.656 14.656 0 0 1 7.209 8.126l9.465 26.005-131.725 47.944-9.465-26.004c-1.928-5.297-.71-11.123 3.178-15.204l11.647-12.228c3.393-3.562 8.153-5.57 13.032-5.57.655 0 1.314.036 1.97.11l17.932 2.008c10.166 1.139 20.469-2.605 27.532-10.021l12.445-13.064a18.046 18.046 0 0 1 15.002-5.46l16.782 1.88c1.653.185 3.221.642 4.666 1.322.017.009.033.02.05.03zm-33.936-51.838c.095-.078.19-.155.28-.238a105.98 105.98 0 0 0 9.74-9.604c2.952-3.317 7.27-4.6 11.557-3.427 4.283 1.171 7.352 4.472 8.205 8.83l1.378 7.027a113.947 113.947 0 0 1 1.718 31.581 20.214 20.214 0 0 1-.225 1.669c-.583-.1-1.169-.193-1.763-.26l-16.782-1.88c-10.172-1.136-20.47 2.607-27.532 10.022l-12.445 13.064c-3.848 4.04-9.458 6.083-15.002 5.46l-17.932-2.008c-10.168-1.143-20.47 2.605-27.532 10.021l-10.613 11.142a23.588 23.588 0 0 1-1.794-1.611 24.08 24.08 0 0 1-6.938-19.059c.794-9.324 6.989-17.417 15.782-20.617l56.745-20.654c12.133-4.413 23.392-11.05 33.153-19.458zm-13.27-47.694c-10.449-18.148-24.752-34.335-41.96-47.904 18.202-14.626 38.128-21.782 53.925-25.265 3.148 17.436 3.946 44.99-11.965 73.169zm-3.334-95.529c4.929.58 9.159 3.57 11.402 7.861-18.352 4.129-41.62 12.755-62.57 30.679-9.147-6.08-18.949-11.48-29.287-16.126 22.581-17.732 51.3-25.852 80.455-22.414zm-346.605 0c29.121-3.431 57.811 4.664 80.381 22.354-10.247 4.614-20.028 10.016-29.237 16.165C90.6 36.381 67.342 27.761 48.999 23.634a14.82 14.82 0 0 1 11.403-7.861zM45.103 38.132c15.793 3.482 35.714 10.636 53.913 25.256a182.242 182.242 0 0 0-3.317 2.681C79.582 79.412 66.6 94.678 57.039 111.253 41.156 83.091 41.956 55.559 45.103 38.132zm59.202 231.794C70.128 249.678 52.8 220.142 52.8 182.138c0-81.871 81.154-148.478 180.905-148.478 26.953 0 52.724 4.883 75.938 13.699.082.035.166.061.249.093 15.076 5.748 29.066 13.161 41.598 21.975.425.377.881.702 1.362.966 21.819 15.659 39.089 35.617 49.766 58.485a7.5 7.5 0 0 0 .463.997 128.85 128.85 0 0 1 7.361 20.536 91.864 91.864 0 0 1-25.115 13.951l-24.036 8.749c-8.599-.812-20.417-1.344-27.864-.361a7.5 7.5 0 0 0-6.453 8.418 7.445 7.445 0 0 0 1.686 3.82l-.077.028c-14.262 5.191-24.308 18.316-25.596 33.44a39.042 39.042 0 0 0 11.252 30.912 38.658 38.658 0 0 0 4.493 3.861c-1.877 6.066-1.79 12.68.486 18.934l5.224 14.354c-26.144 7.957-56.614 11.999-90.736 11.999-37.568 0-70.949-4.956-98.447-14.476-.068-.025-.136-.047-.205-.07-11.282-3.924-21.576-8.608-30.749-14.044zm17.27 47.568c2.026-8.865 10.892-14.429 19.755-12.403 1.045.239 2.066.578 3.035 1.007a7.502 7.502 0 0 0 8.209-1.423c24.154 5.833 51.455 8.837 81.13 8.837 35.929 0 68.13-4.338 95.874-12.882l.925 2.542-2.228 10.21a9.856 9.856 0 0 1-6.29 7.195l-97.001 35.306a9.857 9.857 0 0 1-9.443-1.469c-7.025-5.427-16.04-7.467-24.646-5.718a31.27 31.27 0 0 0-13.555-2.525c-1.162.059-4.564-.902-7.08-3.947-2.697-3.263-3.32-7.853-1.907-14.034a7.5 7.5 0 0 0-14.623-3.343c-3.097 13.545.992 22.122 4.968 26.932 5.946 7.194 14.036 9.553 19.164 9.383a16.324 16.324 0 0 1 11.805 4.396 16.404 16.404 0 0 1 5.251 11.505 16.386 16.386 0 0 1-4.416 11.826 16.39 16.39 0 0 1-11.487 5.24c-4.249.151-8.552-.271-12.794-1.198a6.641 6.641 0 0 0-.191-.047c-12.467-2.774-24.378-9.949-32.758-20.088-12.294-14.88-16.449-34.519-11.697-55.302zm5.012 70.19a75.01 75.01 0 0 0 16.327 12.307l-60.065 21.862a11.326 11.326 0 0 1-8.72-.381 11.33 11.33 0 0 1-5.897-6.435l-1.965-5.398 60.32-21.955zm-99.438-37.453a7.448 7.448 0 0 1-5.169-2.488 7.446 7.446 0 0 1-1.896-5.416 7.45 7.45 0 0 1 2.495-5.169 7.408 7.408 0 0 1 5.409-1.896c33.271 1.862 41.58 16.854 49.616 31.352 3.601 6.498 7.08 12.771 13.194 18.133l-15.456 5.626c-4.775-5.539-7.974-11.301-10.851-16.492-7.877-14.211-13.495-22.316-37.342-23.65zM220.736 482.13c-.84 8.477-7.883 14.87-16.384 14.87-.551 0-1.107-.027-1.655-.082a16.388 16.388 0 0 1-11.129-5.957 16.383 16.383 0 0 1-3.657-12.083c1.804-18.222 1.333-33.237.338-43.994a123.507 123.507 0 0 0 33.584 7.918c.57 12.727.204 26.186-1.097 39.328zm85.044-80.831a7.514 7.514 0 0 0-1.229 1.075c-11.515 10.058-25.422 17.564-40.694 21.854-.146.031-.286.074-.428.113a111.523 111.523 0 0 1-29.725 4.016c-1.51 0-3.012-.038-4.511-.097l-.039-.001a110.716 110.716 0 0 1-18.238-2.234l108.075-39.336a97.242 97.242 0 0 1-13.211 14.61zm100.576-54.798c-.212.906-.409 1.771-.6 2.604l-.039.169c-1.519 6.629-2.83 12.354-6.405 19.792-2.73 5.682-8.572 9.353-14.883 9.353-2.475 0-4.873-.55-7.129-1.634-8.196-3.94-11.658-13.814-7.719-22.009 1.897-3.947 2.591-6.796 3.981-12.869.212-.931.435-1.9.671-2.914 1.776-7.599 8.574-12.742 16.063-12.742 1.239 0 2.496.141 3.753.434 8.857 2.07 14.376 10.959 12.307 19.816zm74.453-34.672-60.319 21.954a31.665 31.665 0 0 0-3.443-7.654c-4.439-7.147-11.394-12.136-19.586-14.051-16.909-3.954-33.882 6.593-37.835 23.503a651.122 651.122 0 0 0-.686 2.982c-1.341 5.856-1.736 7.336-2.878 9.712a31.33 31.33 0 0 0-2.891 10.009l-175.53 63.888-.009.003-126.15 45.916a16.785 16.785 0 0 1-12.921-.564 16.789 16.789 0 0 1-8.738-9.536l-5.498-15.104c-1.544-4.242-1.344-8.831.564-12.922s5.294-7.194 9.536-8.738l17.746-6.459 1.965 5.398c3.898 10.711 14.049 17.375 24.837 17.375 2.992 0 6.034-.513 9.004-1.594l76.853-27.972a67.54 67.54 0 0 0 12.477 1.181c.747 0 1.496-.013 2.24-.04 8.407-.297 16.195-3.85 21.929-10.005 5.735-6.155 8.729-14.175 8.432-22.58a31.618 31.618 0 0 0-1.604-8.905 24.734 24.734 0 0 0 13.255 3.868c2.869 0 5.761-.5 8.556-1.517l97.001-35.306c8.071-2.938 13.983-9.701 15.814-18.092l1.811-8.297 134.892-49.097 11.277 30.983c3.185 8.758-1.344 18.474-10.101 21.661zM143.254 162.072a7.5 7.5 0 0 0 7.5-7.5c0-3.267 2.657-5.924 5.924-5.924s5.924 2.658 5.924 5.924a7.5 7.5 0 0 0 15 0c0-11.538-9.387-20.923-20.924-20.923s-20.924 9.387-20.924 20.923a7.5 7.5 0 0 0 7.5 7.5zm34.212 23.173c0 31.01 25.228 56.239 56.239 56.239s56.239-25.229 56.239-56.239v-9.967c0-16.063-13.068-29.13-29.13-29.13h-54.218c-16.063 0-29.13 13.068-29.13 29.13v9.967zm15-9.967c0-7.792 6.339-14.131 14.131-14.131h54.218c7.792 0 14.131 6.339 14.131 14.131v9.967c0 22.739-18.5 41.239-41.239 41.239s-41.239-18.501-41.239-41.239v-9.967h-.002z"/></svg>