<svg xmlns="http://www.w3.org/2000/svg" viewBox="0 0 511.998 511.998" style="enable-background:new 0 0 511.998 511.998" xml:space="preserve"><path style="fill:#eda751" d="M126.085 397.36c28.539-2.975 53.329-15.647 68.91-35.899 6.8-8.839 5.148-21.517-3.691-28.317-8.839-6.801-21.517-5.147-28.317 3.691-8.845 11.497-28.679 22.919-57.81 20.491-11.109-.928-20.873 7.333-21.799 18.447-.926 11.113 7.333 20.873 18.447 21.799 8.293.691 16.42.605 24.26-.212z"/><path style="fill:#78cfc0" d="M10.56 377.952c10.817 11.273 32.208 29.833 58.052 32.784 20.911 2.387 40.195-12.401 41.958-33.373 1.722-20.487-13.636-38.365-34.08-39.812-27.042-1.914-52.062 14.181-64.781 24.15-5.119 4.011-5.652 11.557-1.149 16.251z"/><path style="fill:#eda751" d="M97.449 453.163a12.616 12.616 0 0 1-11.002-6.418c-3.426-6.07-1.284-13.768 4.785-17.195 15.012-8.475 29.966-8.909 43.16-9.291 23.042-.668 42.943-1.245 66.469-45.172 3.291-6.145 10.941-8.458 17.083-5.167 6.145 3.291 8.458 10.939 5.167 17.083-30.429 56.816-62.344 57.742-87.988 58.485-11.755.341-21.907.635-31.482 6.041a12.55 12.55 0 0 1-6.192 1.634z"/><path style="fill:#fcd79d" d="M106.874 423.286c-5.159 1.339-10.396 3.303-15.642 6.265-6.07 3.427-8.212 11.125-4.785 17.195a12.616 12.616 0 0 0 17.195 4.786c3.847-2.172 7.791-3.51 11.891-4.367-.453-10.662-4.917-19.372-8.659-23.879z"/><path style="fill:#eda751" d="M217.422 503.02c-9.895 0-18.537-7.278-19.967-17.357-3.533-24.891-.751-46.269 1.281-61.878.633-4.87 1.181-9.076 1.456-12.662.854-11.12 10.562-19.436 21.68-18.586 11.119.854 19.441 10.561 18.587 21.68-.357 4.647-.998 9.569-1.676 14.78-1.924 14.783-4.105 31.539-1.343 50.991 1.567 11.042-6.113 21.263-17.155 22.83-.962.136-1.919.202-2.863.202zM294.575 503.02c-.945 0-1.9-.066-2.863-.203-11.041-1.567-18.722-11.788-17.155-22.83 2.761-19.452.581-36.208-1.343-50.991-.678-5.211-1.318-10.132-1.676-14.78-.854-11.119 7.467-20.826 18.586-21.68 11.115-.86 20.826 7.467 21.681 18.586.276 3.586.823 7.792 1.456 12.662 2.031 15.609 4.813 36.986 1.281 61.878-1.43 10.08-10.072 17.358-19.967 17.358z"/><path style="opacity:.2;fill:#a35f00;enable-background:new" d="M217.945 369.921c-6.143-3.291-13.793-.978-17.083 5.167-13.549 25.298-25.896 36.216-38.332 41.056a109.95 109.95 0 0 0 18.118 19.367c13.96-7.871 28.372-22.191 42.465-48.506 3.29-6.145.976-13.794-5.168-17.084zM313.262 423.785c-.634-4.87-1.181-9.076-1.456-12.662-.854-11.12-10.566-19.446-21.681-18.586-11.119.854-19.441 10.561-18.586 21.68.357 4.647.998 9.569 1.676 14.78 1.266 9.727 2.634 20.315 2.641 31.957 14.4-2.407 27.866-7.388 39.849-14.412-.594-8.502-1.583-16.151-2.443-22.757z"/><path style="opacity:.2;fill:#a35f00;enable-background:new" d="M221.872 392.537c-11.118-.849-20.826 7.467-21.68 18.586-.276 3.586-.823 7.792-1.456 12.662-.86 6.606-1.85 14.255-2.443 22.756 11.983 7.024 25.448 12.005 39.849 14.412.007-11.641 1.375-22.23 2.641-31.957.678-5.211 1.318-10.132 1.676-14.78.854-11.118-7.468-20.825-18.587-21.679z"/><ellipse style="fill:#fcd690" cx="255.999" cy="355.859" rx="93.14" ry="86.54"/><path style="opacity:.15;fill:#c18f00;enable-background:new" d="M242.398 441.482c-42.56-27.942-29.37-85.212-22.145-110.257v-55.3c-33.696 13.026-57.39 43.907-57.39 79.935 0 43.503 34.545 79.504 79.535 85.622z"/><path style="opacity:.2;fill:#a35f00;enable-background:new" d="M191.304 333.143c-8.839-6.801-21.517-5.147-28.317 3.691-8.208 10.668-25.882 21.263-51.66 20.798 6.695 14.948 17.396 27.725 30.733 36.955 21.737-5.348 40.343-16.761 52.935-33.127 6.801-8.838 5.148-21.516-3.691-28.317z"/><path style="fill:#eda751" d="M385.912 397.36c-28.539-2.975-53.329-15.647-68.91-35.899-6.8-8.839-5.148-21.517 3.691-28.317 8.839-6.801 21.517-5.147 28.317 3.691 8.845 11.497 28.679 22.919 57.81 20.491 11.109-.928 20.873 7.333 21.799 18.447.926 11.113-7.333 20.873-18.447 21.799-8.293.691-16.42.605-24.26-.212z"/><path style="fill:#78cfc0" d="M501.437 377.952c-10.817 11.273-32.208 29.833-58.052 32.784-20.911 2.387-40.195-12.401-41.958-33.373-1.723-20.487 13.636-38.365 34.08-39.812 27.042-1.914 52.062 14.181 64.781 24.15 5.12 4.011 5.652 11.557 1.149 16.251z"/><path style="opacity:.2;fill:#a35f00;enable-background:new" d="M320.693 333.143c8.839-6.801 21.517-5.147 28.317 3.691 8.208 10.668 25.882 21.263 51.66 20.798-6.695 14.948-17.396 27.725-30.733 36.955-21.737-5.348-40.343-16.761-52.935-33.127-6.801-8.838-5.148-21.516 3.691-28.317z"/><path style="fill:#7694e4" d="M435.511 178.553c16.431-14.507 26.726-35.805 26.483-59.504-.427-41.689-33.998-76.053-75.668-77.401-19.792-.64-37.989 6.084-52.094 17.625-2.034 1.665-5.077.863-6.061-1.575-11.519-28.561-39.486-48.722-72.172-48.722s-60.653 20.161-72.173 48.722c-.983 2.438-4.026 3.24-6.061 1.576-14.105-11.541-32.302-18.266-52.094-17.625-41.669 1.348-75.24 35.712-75.667 77.401-.243 23.699 10.051 44.996 26.482 59.503 2.116 1.868 1.539 5.343-1.061 6.44-25.688 10.844-43.544 36.595-42.721 66.415 1.011 36.642 30.739 66.604 67.372 67.897a70.152 70.152 0 0 0 18.555-1.808c2.461-.578 4.767 1.311 4.765 3.839v.053c0 38.199 30.967 69.166 69.166 69.166 25.635 0 48.005-13.951 59.951-34.672 1.537-2.667 5.376-2.571 6.813.151 11.625 22.014 34.733 37.024 61.361 37.024 38.312 0 69.37-31.058 69.37-69.37 0-.654-.009-1.306-.027-1.955-.071-2.536 2.214-4.477 4.694-3.944a69.865 69.865 0 0 0 18.323 1.465c36.417-1.884 65.578-32.018 66.264-68.478.555-29.552-17.229-55.016-42.734-65.783-2.603-1.097-3.183-4.571-1.066-6.44z"/><g style="opacity:.1"><path d="M255.999 116.931a7.5 7.5 0 0 1-7.5-7.5V59.076a7.5 7.5 0 0 1 15 0v50.355a7.5 7.5 0 0 1-7.5 7.5zM73.596 264.23a7.5 7.5 0 0 1-1.753-14.793l75.88-18.308a7.5 7.5 0 1 1 3.518 14.582l-75.88 18.308a7.5 7.5 0 0 1-1.765.211zM183.614 358.212a7.501 7.501 0 0 1-7.326-9.141l11.315-50.517a7.504 7.504 0 0 1 8.958-5.68 7.501 7.501 0 0 1 5.68 8.958l-11.316 50.517a7.5 7.5 0 0 1-7.311 5.863zM328.383 358.212a7.502 7.502 0 0 1-7.312-5.862l-11.316-50.517a7.501 7.501 0 0 1 14.638-3.278l11.315 50.517a7.501 7.501 0 0 1-7.325 9.14zM438.401 264.23a7.508 7.508 0 0 1-1.766-.211l-75.88-18.308a7.501 7.501 0 0 1-5.532-9.05 7.504 7.504 0 0 1 9.05-5.532l75.88 18.308a7.501 7.501 0 0 1-1.752 14.793z"/></g><path style="fill:#eda751" d="M199.32 205.793c18.225-15.292 30.392-40.963 4.687-78.912-25.909-38.249-64.483-47.836-94.598-44.288a18.834 18.834 0 0 0-15.805 13.262c-8.723 29.041-5.98 68.694 27.189 100.851 32.908 31.905 60.302 24.38 78.527 9.087z"/><path style="fill:#ff91ab" d="M92.392 100.298c-7.152 28.554-3.108 65.86 28.401 96.408 28.524 27.654 52.9 25.678 70.758 14.705-12.282-83.376-65.934-105.486-99.159-111.113z"/><path style="fill:#eda751" d="M312.677 205.793c-18.224-15.292-30.392-40.963-4.687-78.912 25.909-38.249 64.483-47.836 94.598-44.288a18.834 18.834 0 0 1 15.805 13.262c8.723 29.041 5.98 68.694-27.189 100.851-32.908 31.905-60.302 24.38-78.527 9.087z"/><path style="fill:#ff91ab" d="M419.605 100.298c7.152 28.554 3.108 65.86-28.401 96.408-28.524 27.654-52.9 25.678-70.758 14.705 12.282-83.376 65.934-105.486 99.159-111.113z"/><path style="fill:#ffdc9c" d="M414.56 228.874c0 72.499-70.99 104.252-158.561 104.252S97.437 301.373 97.437 228.874s70.99-131.271 158.562-131.271S414.56 156.375 414.56 228.874z"/><path style="opacity:.15;fill:#c18f00;enable-background:new" d="M171.335 117.871c-44.407 23.263-73.898 64.28-73.898 111.003 0 62.322 52.46 94.535 122.816 102.35-100.994-60.326-87.823-141.471-48.918-213.353z"/><ellipse style="fill:#ff91ab" cx="178.189" cy="231.929" rx="28.709" ry="22.863"/><ellipse style="fill:#ff91ab" cx="333.809" cy="231.929" rx="28.709" ry="22.863"/><path d="m471.436 364.378-45.626 3.229a7.5 7.5 0 0 0 1.059 14.963l45.626-3.229a7.5 7.5 0 0 0 6.952-8.011c-.293-4.131-3.888-7.24-8.011-6.952zm40.516 4.66a18.514 18.514 0 0 0-7.038-13.242c-13.407-10.508-40.318-27.822-69.937-25.728-11.917.843-22.758 6.306-30.529 15.38a45.007 45.007 0 0 0-3.484 4.664 79.867 79.867 0 0 1-8.036-.209 76.373 76.373 0 0 0 4.594-23.971 77.78 77.78 0 0 0 15.909.814c40.385-2.089 72.615-35.397 73.375-75.827.564-30.01-15.884-57.12-42.322-70.519a85.744 85.744 0 0 0 25.008-61.428c-.227-22.107-8.929-43.058-24.504-58.994-15.579-15.939-36.327-25.111-58.42-25.826a85.749 85.749 0 0 0-53.326 16.411c-14.019-29.972-43.845-49.086-77.243-49.086s-63.224 19.115-77.245 49.086a85.732 85.732 0 0 0-53.325-16.411c-22.094.715-42.841 9.887-58.42 25.826-15.575 15.936-24.278 36.886-24.504 58.994a85.752 85.752 0 0 0 25.007 61.427C40.818 193.917 24.37 221.3 25.207 251.614c1.123 40.724 33.894 73.749 74.604 75.186a78.06 78.06 0 0 0 16.204-1.114 76.094 76.094 0 0 0 5.314 24.005c-3.333.361-6.77.502-10.295.421a44.995 44.995 0 0 0-3.484-4.663c-7.771-9.074-18.612-14.537-30.529-15.38-29.608-2.103-56.53 15.22-69.937 25.728a18.518 18.518 0 0 0-7.038 13.242 18.522 18.522 0 0 0 5.103 14.105c11.225 11.699 34.286 31.809 62.613 35.043 1.732.198 3.467.295 5.198.295 10.585 0 20.985-3.649 29.16-10.35a45.38 45.38 0 0 0 3.122-2.817c2.579.142 5.152.218 7.711.218 4.695 0 9.347-.238 13.911-.714 13.421-1.399 26-4.794 37.487-10.097a91.863 91.863 0 0 0 5.053 9.068c-11.133 8.272-21.963 8.587-35.232 8.972-13.365.388-29.999.87-46.626 10.257-9.66 5.454-13.082 17.751-7.628 27.413a20.162 20.162 0 0 0 17.533 10.23c3.449 0 6.866-.9 9.879-2.601 7.96-4.494 16.809-4.75 28.013-5.076 15.683-.455 34.508-1.009 54.051-14.041-1.315 13.504-1.939 29.624.637 47.772 1.926 13.57 13.703 23.803 27.393 23.803 1.301 0 2.618-.093 3.916-.277 15.117-2.146 25.671-16.191 23.527-31.31-1.563-11.008-1.403-21.163-.775-29.685 3.929.432 7.902.655 11.908.655 4.015 0 7.988-.232 11.908-.665.629 8.525.789 18.683-.774 29.697-2.145 15.119 8.41 29.164 23.529 31.309a27.686 27.686 0 0 0 29.215-16.201 7.5 7.5 0 1 0-13.717-6.069 12.678 12.678 0 0 1-13.392 7.419c-6.929-.983-11.766-7.421-10.783-14.35 1.853-13.057 1.548-24.858.757-34.518a104.38 104.38 0 0 0 24.559-9.746c.765 7.026 1.388 14.868 1.432 23.363a7.5 7.5 0 0 0 7.499 7.461h.04a7.5 7.5 0 0 0 7.461-7.539c-.065-12.427-1.309-23.701-2.438-32.627 10.714-8.533 19.58-19.209 25.793-31.559.577-.212 1.146-.44 1.716-.665 11.215 5.017 23.412 8.26 36.331 9.607 4.565.476 9.215.714 13.911.714 2.559 0 5.132-.077 7.711-.218a45.38 45.38 0 0 0 3.122 2.817c8.175 6.701 18.574 10.35 29.16 10.35 1.73 0 3.466-.097 5.198-.295 28.327-3.234 51.388-23.344 62.613-35.043a18.529 18.529 0 0 0 5.101-14.106zm-408.855 7.695c-.652 7.759-4.376 14.79-10.486 19.798-6.394 5.241-14.829 7.7-23.148 6.752-23.648-2.7-43.664-20.284-53.491-30.525a3.46 3.46 0 0 1-.965-2.661 3.457 3.457 0 0 1 1.328-2.496c11.709-9.177 35.022-24.314 59.625-22.571 7.882.558 15.054 4.171 20.194 10.173a29.504 29.504 0 0 1 3.919 5.873c.022.039.04.08.063.118 2.381 4.759 3.419 10.093 2.961 15.539zm22.211 13.167c-3.354.35-6.767.548-10.213.608a43.527 43.527 0 0 0 2.949-12.518c.37-4.401.09-8.753-.796-12.95a87.75 87.75 0 0 0 11.477-1.255 77.278 77.278 0 0 0 20.579 20.846c-7.546 2.622-15.57 4.391-23.996 5.269zm9.596 48.093c-12.219.355-23.76.69-34.951 7.007a5.037 5.037 0 0 1-2.505.663 5.14 5.14 0 0 1-4.471-2.604 5.127 5.127 0 0 1 1.941-6.977c13.396-7.563 26.761-7.951 39.69-8.326 14.226-.413 28.877-.842 43.808-11.978a96.545 96.545 0 0 0 7.25 7.344c-17.612 13.898-34.434 14.397-50.762 14.871zm84.329 57.399c-.602.085-1.212.128-1.811.128-6.267 0-11.659-4.691-12.542-10.911-2.579-18.17-1.641-34.445-.182-47.826a103.573 103.573 0 0 0 24.556 9.767c-.79 9.655-1.092 21.446.759 34.49.984 6.931-3.853 13.369-10.78 14.352zm90.009-77.605a7.463 7.463 0 0 0-.81.599c-14.694 10.499-33.008 16.517-52.434 16.517-29.848 0-57.37-14.569-72.795-37.438 3.07.376 6.188.591 9.358.591 25.274 0 48.958-12.601 63.182-33.251 14.042 22.198 38.404 35.754 64.943 35.754a77.22 77.22 0 0 0 6.149-.267c-4.916 6.684-10.862 12.564-17.593 17.495zm11.444-32.228c-23.001 0-43.971-12.655-54.729-33.025a11.417 11.417 0 0 0-9.879-6.094l-.212-.002a11.38 11.38 0 0 0-9.852 5.7c-10.994 19.071-31.476 30.918-53.453 30.918-34.003 0-61.666-27.663-61.666-61.712a11.398 11.398 0 0 0-4.331-8.995 11.29 11.29 0 0 0-9.649-2.153 62.796 62.796 0 0 1-16.574 1.614c-32.818-1.159-59.234-27.781-60.14-60.609-.716-25.939 14.255-49.215 38.141-59.298a11.297 11.297 0 0 0 6.785-8.639 11.279 11.279 0 0 0-3.677-10.333 70.766 70.766 0 0 1-23.947-53.804c.187-18.224 7.373-35.506 20.232-48.663 12.861-13.159 29.971-20.73 48.179-21.319a70.746 70.746 0 0 1 47.102 15.934 11.406 11.406 0 0 0 10.017 2.216 11.453 11.453 0 0 0 7.748-6.791c10.787-26.746 36.387-44.027 65.218-44.027s54.43 17.282 65.217 44.027a11.457 11.457 0 0 0 7.748 6.791c3.486.894 7.23.064 10.018-2.216 13.235-10.83 29.962-16.489 47.102-15.934 18.208.589 35.317 8.16 48.179 21.319 12.86 13.157 20.045 30.439 20.232 48.663a70.763 70.763 0 0 1-23.947 53.805v-.001a11.282 11.282 0 0 0-3.677 10.332 11.303 11.303 0 0 0 6.788 8.642c23.659 9.988 38.635 33.042 38.152 58.732-.613 32.594-26.595 59.445-59.153 61.129a62.367 62.367 0 0 1-16.36-1.308 11.292 11.292 0 0 0-9.653 2.37 11.37 11.37 0 0 0-4.113 9.116c.016.58.024 1.163.024 1.747 0 34.114-27.755 61.868-61.87 61.868zm66.004 4.341a107.633 107.633 0 0 1-20.634-4.197 77.467 77.467 0 0 0 19.91-21.484c2.868.415 5.798.692 8.782.826a44.511 44.511 0 0 0-.795 12.944 43.52 43.52 0 0 0 2.949 12.518 117.974 117.974 0 0 1-10.212-.607zm109.335-17.141c-9.827 10.241-29.842 27.824-53.491 30.525-8.316.95-16.754-1.511-23.148-6.752-6.11-5.008-9.834-12.039-10.486-19.798-.458-5.448.58-10.782 2.961-15.539.02-.034.036-.07.056-.105a29.476 29.476 0 0 1 3.926-5.885c5.14-6.003 12.311-9.616 20.194-10.173a55.893 55.893 0 0 1 3.938-.138c23.125 0 44.605 14.023 55.688 22.71a3.454 3.454 0 0 1 1.328 2.495 3.464 3.464 0 0 1-.966 2.66zM179 255.875a7.5 7.5 0 0 0-3.85-14.498c-9.05 2.403-26.126 10.98-32.756 15.874a7.5 7.5 0 0 0 8.907 12.069c5.206-3.843 20.69-11.585 27.699-13.445zM86.188 367.607l-45.626-3.229c-4.118-.288-7.718 2.82-8.011 6.952a7.5 7.5 0 0 0 6.952 8.011l45.626 3.229a7.502 7.502 0 0 0 8.011-6.952 7.5 7.5 0 0 0-6.952-8.011zM422.06 228.875c0-16.022-3.224-31.614-9.399-46.272 17.346-26.259 22.077-58.405 12.916-88.906a26.289 26.289 0 0 0-22.11-18.553c-30.367-3.575-60.257 5.819-82.784 25.84-20.202-7.13-42.102-10.88-64.684-10.88-22.581 0-44.482 3.75-64.684 10.88-22.526-20.021-52.415-29.417-82.784-25.84a26.286 26.286 0 0 0-22.11 18.553c-9.161 30.501-4.431 62.647 12.916 88.906-6.175 14.658-9.399 30.25-9.399 46.272 0 28.982 10.478 53.168 31.142 71.884a7.499 7.499 0 0 0 10.593-.525 7.499 7.499 0 0 0-.524-10.593c-17.393-15.753-26.211-36.198-26.211-60.767 0-68.248 67.766-123.771 151.062-123.771s151.061 55.523 151.061 123.771c0 31.534-14.388 56.048-42.765 72.861-26.38 15.63-63.829 23.892-108.297 23.892-37.979 0-71.4-6.155-96.651-17.799a7.5 7.5 0 0 0-9.951 3.67 7.499 7.499 0 0 0 3.67 9.951c27.206 12.546 62.799 19.178 102.932 19.178 47.157 0 87.249-8.986 115.943-25.987 32.787-19.426 50.118-49.083 50.118-85.765zm-282.964-98.6c-13.083 10.831-23.733 23.16-31.739 36.527-11.802-22.101-11.494-43.555-9.132-57.688 12.611 2.916 28.151 8.641 42.517 19.831-.549.442-1.103.88-1.646 1.33zm14.179-10.479c-17.015-14.317-35.735-21.511-50.851-25.106a11.288 11.288 0 0 1 7.861-4.649c11.638-1.373 39.515-2.005 65.232 17.368a171.258 171.258 0 0 0-22.242 12.387zm183.204-12.387c25.716-19.373 53.591-18.74 65.232-17.368a11.288 11.288 0 0 1 7.861 4.649c-15.116 3.595-33.836 10.789-50.85 25.106a171.086 171.086 0 0 0-22.243-12.387zm68.161 59.392c-8.005-13.367-18.655-25.695-31.739-36.527-.543-.45-1.097-.888-1.646-1.33 14.366-11.19 29.906-16.915 42.517-19.831 2.362 14.133 2.67 35.587-9.132 57.688zm-234.377 67.865a7.501 7.501 0 0 0 1.966-14.871c-9.287-1.228-28.341.196-36.334 2.195a7.5 7.5 0 0 0-5.457 9.095 7.503 7.503 0 0 0 7.27 5.683c.602 0 1.214-.073 1.825-.226 6.276-1.568 23.542-2.826 30.73-1.876zm85.736-10.256a28.854 28.854 0 0 0 21.756-9.908 7.5 7.5 0 0 0-11.308-9.855 13.864 13.864 0 0 1-10.449 4.764 13.86 13.86 0 0 1-10.449-4.764 7.5 7.5 0 0 0-10.582-.726 7.498 7.498 0 0 0-.726 10.581 28.86 28.86 0 0 0 21.758 9.908zm-53.576-15.285v-10.138a7.5 7.5 0 0 0-15 0v10.138a7.5 7.5 0 0 0 15 0zm122.151 0v-10.138a7.5 7.5 0 0 0-15 0v10.138a7.5 7.5 0 0 0 15 0zm3.099 37.576a7.5 7.5 0 0 0 5.324 9.174c7.009 1.861 22.493 9.602 27.699 13.444a7.465 7.465 0 0 0 4.448 1.466 7.5 7.5 0 0 0 4.459-13.535c-6.63-4.894-23.706-13.47-32.756-15.874a7.503 7.503 0 0 0-9.174 5.325zm14.061-12.035c7.19-.95 24.454.307 30.731 1.876.61.153 1.222.226 1.825.226a7.504 7.504 0 0 0 7.27-5.683 7.5 7.5 0 0 0-5.457-9.095c-7.995-1.999-27.052-3.422-36.335-2.195a7.501 7.501 0 0 0 1.966 14.871z"/></svg>