<svg xmlns="http://www.w3.org/2000/svg" viewBox="0 0 512.002 512.002" style="enable-background:new 0 0 512.002 512.002" xml:space="preserve"><path style="fill:#eda751" d="M403.49 465.881c-6.673 0-13.209-.958-19.164-2.57-30.288-8.196-43.53-30.451-54.171-48.334-9.434-15.853-15.847-25.773-28.308-29.8-7.836-2.532-12.136-10.938-9.604-18.774 2.533-7.838 10.937-12.134 18.775-9.605 23.799 7.69 34.938 26.41 44.767 42.928 9.5 15.967 17.706 29.756 36.331 34.797 14.23 3.848 26.404.723 32.575-8.363 4.948-7.287 4.711-16.588-.603-23.695-4.931-6.596-3.583-15.941 3.013-20.872 6.599-4.931 15.94-3.583 20.872 3.013 13.048 17.45 13.594 40.337 1.391 58.308-11.494 16.925-29.119 22.967-45.874 22.967z"/><path style="fill:#fcd79d" d="M447.972 384.606c-4.931-6.596-14.273-7.944-20.872-3.013-6.596 4.931-7.944 14.276-3.013 20.872 2.086 2.79 3.377 5.918 3.893 9.129 9.634-1.115 17.784-2.036 28.095-10.968-1.681-5.621-4.381-11.042-8.103-16.02z"/><path style="fill:#eda751" d="M209.838 504.502c-12.209 0-22.616-9.323-23.733-21.718-3.809-42.25-.713-69.547 10.353-91.277 5.98-11.743 20.344-16.413 32.088-10.434 11.742 5.98 16.413 20.346 10.434 32.087-6.604 12.97-8.255 33.121-5.351 65.34 1.184 13.124-8.496 24.721-21.619 25.904-.73.065-1.455.098-2.172.098zM291.648 504.502c-.719 0-1.441-.033-2.17-.098-13.124-1.183-22.802-12.781-21.619-25.904 2.904-32.219 1.254-52.371-5.351-65.34-5.98-11.742-1.308-26.107 10.434-32.087 11.74-5.979 26.107-1.309 32.088 10.434 11.066 21.73 14.163 49.028 10.353 91.277-1.118 12.395-11.527 21.718-23.735 21.718zM135.968 434.898c-1.98 0-3.994-.249-6-.768-12.756-3.305-20.418-16.324-17.114-29.079 4.828-18.634 8.247-35.419 11.264-50.23 3.66-17.966 6.551-32.156 10.648-43.418 4.505-12.383 18.197-18.77 30.578-14.264 12.383 4.506 18.769 18.196 14.264 30.578-2.888 7.939-5.597 21.234-8.733 36.629-3.135 15.386-6.687 32.824-11.828 52.672-2.784 10.748-12.467 17.88-23.079 17.88z"/><path style="opacity:.2;fill:#a35f00;enable-background:new" d="M311.018 356.8c-7.838-2.53-16.242 1.767-18.775 9.605-2.531 7.837 1.769 16.242 9.604 18.774 12.462 4.026 18.875 13.947 28.308 29.8a892.968 892.968 0 0 0 2.496 4.174c8.076-6.618 15.237-14.194 21.276-22.538-9.41-15.698-20.595-32.605-42.909-39.815z"/><path style="opacity:.2;fill:#a35f00;enable-background:new" d="M305.028 391.507c-5.981-11.744-20.349-16.414-32.088-10.434-11.742 5.98-16.413 20.346-10.434 32.087 4.095 8.041 6.283 18.847 6.665 33.574 16.924-2.363 32.746-7.928 46.744-16.014-1.62-15.391-5.197-28.042-10.887-39.213zM228.544 381.073c-11.744-5.979-26.107-1.309-32.087 10.434-5.69 11.172-9.267 23.823-10.888 39.214 13.998 8.087 29.82 13.652 46.744 16.014.381-14.727 2.57-25.532 6.665-33.574 5.98-11.743 1.308-26.109-10.434-32.088zM165.345 297.139c-12.381-4.506-26.073 1.881-30.577 14.264-3.092 8.5-5.498 18.671-8.065 30.871 2.695 26.735 15.036 50.878 33.724 69.32 4.41-17.617 7.604-33.282 10.45-47.249 3.136-15.395 5.845-28.69 8.733-36.629 4.504-12.381-1.883-26.072-14.265-30.577z"/><ellipse style="fill:#fcd690" cx="250.746" cy="331.194" rx="110.047" ry="102.258"/><path style="opacity:.15;fill:#c17a00;enable-background:new" d="M360.615 336.868c-6.139 1.268-11.91 1.909-16.622 1.47-21.497-2.003-58.246-23.652-66.422-42.305-4.279 19.612 6.648 74.52 70.168 83.493 7.416-12.825 11.972-27.289 12.876-42.658z"/><path style="opacity:.15;fill:#c17a00;enable-background:new" d="M359.077 313.153c-9.172-47.868-54.186-84.21-108.334-84.21-60.776 0-110.043 45.781-110.043 102.255 0 51.401 40.817 93.939 93.974 101.167-8.875-5.827-15.692-12.734-20.863-20.32-1.25-1.834.641-4.162 2.699-3.33a66.751 66.751 0 0 0 25.071 4.858c28.912 0 53.537-18.308 62.943-43.96 1.854-5.055 5.829-9.087 10.943-10.771 21.136-6.957 37.618-24.137 43.61-45.689z"/><path style="fill:#eda751" d="M183.774 153.89c21.532-18.069 35.91-48.4 5.538-93.238C158.7 15.459 113.123 4.131 77.541 8.323c-8.773 1.033-16.133 7.21-18.674 15.67-10.307 34.313-7.066 81.165 32.124 119.16 38.884 37.696 71.251 28.804 92.783 10.737z"/><path style="fill:#ff91ab" d="M57.434 29.243c-8.45 33.737-3.672 77.816 33.557 113.909 33.702 32.674 62.504 30.339 83.604 17.375C160.084 62.014 96.691 35.891 57.434 29.243z"/><path style="fill:#eda751" d="M317.711 153.89c-21.533-18.069-35.91-48.4-5.538-93.238C342.786 15.46 388.362 4.131 423.945 8.323c8.773 1.033 16.133 7.21 18.674 15.67 10.307 34.313 7.065 81.165-32.124 119.16-38.884 37.696-71.251 28.804-92.784 10.737z"/><path style="fill:#ff91ab" d="M444.051 29.243c8.45 33.737 3.672 77.816-33.557 113.909-33.702 32.674-62.504 30.339-83.604 17.375 14.512-98.513 77.904-124.636 117.161-131.284z"/><path style="fill:#ffdc9c" d="M438.089 181.16c0 85.66-83.878 123.178-187.347 123.178S63.396 266.821 63.396 181.16c0-85.66 83.878-155.101 187.348-155.101S438.089 95.5 438.089 181.16z"/><path style="opacity:.15;fill:#c17a00;enable-background:new" d="M150.709 50.006C98.24 77.492 63.396 125.955 63.396 181.161c0 73.636 61.984 111.696 145.113 120.931-119.33-71.279-103.767-167.155-57.8-252.086z"/><ellipse style="fill:#ff91ab" cx="158.808" cy="184.778" rx="33.921" ry="27.009"/><ellipse style="fill:#ff91ab" cx="342.674" cy="184.778" rx="33.921" ry="27.009"/><path style="fill:#495059" d="M370.691 285.37c0-28.694-18.032-53.17-43.379-62.733-5.567-2.1-9.585-6.998-10.664-12.849-5.751-31.179-33.062-54.801-65.904-54.801-32.843 0-60.154 23.621-65.905 54.801-1.079 5.851-5.097 10.749-10.664 12.849-25.348 9.563-43.38 34.038-43.38 62.733 0 29.696 19.314 54.87 46.063 63.674 5.072 1.669 9.052 5.565 10.875 10.584 9.355 25.75 34.028 44.147 63.012 44.147 28.982 0 53.657-18.397 63.012-44.147 1.823-5.018 5.803-8.914 10.875-10.584 26.745-8.805 46.059-33.978 46.059-63.674z"/><path style="opacity:.15;enable-background:new" d="M324.629 349.044a66.872 66.872 0 0 0 20.032-10.664c-.221-.016-.45-.022-.667-.042-21.497-2.003-58.246-23.652-66.422-42.305-3.261 14.948 2.316 50.396 33.275 70.386a66.42 66.42 0 0 0 2.908-6.792c1.822-5.018 5.802-8.914 10.874-10.583z"/><path style="fill:#fff" d="M250.743 211.997a32.737 32.737 0 0 1-24.68-11.24 7.5 7.5 0 0 1 11.309-9.856 17.739 17.739 0 0 0 13.372 6.096c5.122 0 9.996-2.222 13.372-6.096a7.501 7.501 0 0 1 11.309 9.856 32.747 32.747 0 0 1-24.682 11.24z"/><path style="fill:#eda751" d="M353.116 361.512c-8.645 0-17.541-1.696-26.412-5.113-23.505-9.054-44.168-29.345-49.131-48.249-3.346-12.745 4.273-25.788 17.019-29.134 12.61-3.314 25.522 4.121 29.029 16.631 1.625 3.608 10.917 13.43 22.395 16.977 8.269 2.554 12.935.426 15.725-1.397 11.03-7.206 25.816-4.108 33.023 6.923 7.208 11.031 4.108 25.815-6.923 33.023-10.514 6.869-22.362 10.339-34.725 10.339zm-29.392-65.488.002.008a.019.019 0 0 1-.002-.008z"/><path d="M330.406 157.826v-11.979a7.5 7.5 0 0 0-15 0v11.979a7.5 7.5 0 0 0 15 0zm6.339 44.746a7.5 7.5 0 0 0 5.325 9.173c8.569 2.274 26.808 11.399 33.185 16.105a7.47 7.47 0 0 0 4.448 1.466 7.5 7.5 0 0 0 4.46-13.534c-7.744-5.716-27.681-15.731-38.245-18.535a7.503 7.503 0 0 0-9.173 5.325zm15.118-15.919c8.791-1.161 29.131.324 36.819 2.246a7.54 7.54 0 0 0 1.824.226 7.5 7.5 0 0 0 1.813-14.778c-9.336-2.334-31.585-3.997-42.421-2.565a7.501 7.501 0 0 0-6.453 8.418c.543 4.106 4.315 6.991 8.418 6.453zm-196.295 10.596c-10.566 2.805-30.503 12.82-38.245 18.535a7.5 7.5 0 0 0 4.46 13.534 7.467 7.467 0 0 0 4.448-1.466c6.376-4.707 24.614-13.831 33.184-16.105a7.5 7.5 0 0 0-3.847-14.498zm23.011-31.924a7.5 7.5 0 0 0 7.5-7.5v-11.979a7.5 7.5 0 0 0-7.5-7.5 7.5 7.5 0 0 0-7.5 7.5v11.979a7.5 7.5 0 0 0 7.5 7.5zm275.4 214.79c-7.399-9.895-21.47-11.927-31.368-4.529a22.264 22.264 0 0 0-8.763 14.748 22.263 22.263 0 0 0 4.233 16.622c3.422 4.576 3.577 10.32.406 14.991-4.291 6.317-13.419 8.311-24.412 5.338-15.694-4.247-22.821-16.227-31.845-31.394-2.385-4.006-5.014-8.42-7.93-12.803a105.525 105.525 0 0 0 6.991-14.553 70.778 70.778 0 0 0 30.652-11.086c7.012-4.582 11.82-11.62 13.539-19.818 1.72-8.198.143-16.575-4.44-23.586-5.614-8.594-14.758-13.524-24.291-14.133a74.663 74.663 0 0 0 1.421-13.717c44.132-22.556 67.417-58.782 67.417-105.038 0-18.99-3.866-37.466-11.279-54.816 20.6-30.796 26.268-68.627 15.49-104.509A29.696 29.696 0 0 0 424.822.871c-35.761-4.21-70.954 6.967-97.348 30.731-23.934-8.548-49.923-13.047-76.732-13.047s-52.798 4.499-76.732 13.047C147.617 7.841 112.423-3.339 76.663.874a29.695 29.695 0 0 0-24.979 20.96c-10.778 35.881-5.11 73.712 15.491 104.511-7.413 17.349-11.279 35.826-11.279 54.816 0 27.682 8.277 51.782 24.603 71.629a7.5 7.5 0 1 0 11.584-9.529c-14.059-17.093-21.188-37.986-21.188-62.102 0-81.388 80.679-147.602 179.848-147.602S430.59 99.771 430.59 181.159c0 38.948-18.174 68.798-54.027 88.878-5.212-24.491-22.633-45.377-46.604-54.42-3.056-1.152-5.331-3.909-5.937-7.191-6.514-35.311-37.332-60.94-73.28-60.94s-66.766 25.628-73.28 60.94c-.605 3.283-2.88 6.039-5.936 7.192-23.969 9.043-41.393 29.927-46.604 54.419-4.544-2.555-8.831-5.279-12.806-8.153a7.5 7.5 0 1 0-8.789 12.156c6.083 4.397 12.792 8.468 19.983 12.146a74.658 74.658 0 0 0 4.079 23.587c-4.107 11.61-6.994 25.751-10.631 43.603-2.996 14.706-6.392 31.372-11.165 49.793-4.335 16.739 5.756 33.883 22.493 38.22a31.432 31.432 0 0 0 7.88 1.008c14.279 0 26.755-9.663 30.341-23.499a696.8 696.8 0 0 0 2.322-9.247 116.594 116.594 0 0 0 11.107 8.953c-3.167 17.309-3.517 38.096-1.104 64.853 1.467 16.274 14.882 28.545 31.203 28.545.936 0 1.89-.043 2.844-.128 8.342-.752 15.893-4.708 21.259-11.139 5.367-6.431 7.908-14.567 7.156-22.908-1.359-15.09-1.68-27.386-.973-37.326 3.499.294 7.04.453 10.619.453 3.568 0 7.107-.162 10.619-.454.708 9.941.387 22.237-.973 37.327-.752 8.342 1.789 16.478 7.156 22.909 5.367 6.431 12.917 10.387 21.267 11.139.947.084 1.902.127 2.837.127a31.3 31.3 0 0 0 29.691-21.341 7.5 7.5 0 0 0-4.718-9.5 7.5 7.5 0 0 0-9.499 4.717c-2.396 7.12-9.374 11.731-16.973 11.057a16.252 16.252 0 0 1-11.09-5.81 16.249 16.249 0 0 1-3.733-11.951c1.476-16.38 1.781-29.824.917-40.815 11.081-2.28 21.717-6.05 31.666-11.244 1.096 8.03 1.603 16.891 1.512 26.852a7.5 7.5 0 0 0 7.432 7.568h.069a7.5 7.5 0 0 0 7.499-7.431c.121-13.36-.756-25.012-2.664-35.455.435-.309.863-.625 1.294-.939l.662 1.109c10.734 18.04 25.436 42.745 58.653 51.732a80.91 80.91 0 0 0 21.122 2.831c22.087 0 40.582-9.324 52.078-26.253 14.031-20.659 13.407-46.962-1.585-67.014zM113.485 65.71c-16.01 13.254-28.909 28.417-38.416 44.879C59.331 82.64 60.114 55.325 63.234 38.012c15.68 3.462 35.447 10.567 53.51 25.064a197.196 197.196 0 0 0-3.259 2.634zm15.788-11.731c-20.808-17.785-43.906-26.353-62.138-30.462a14.703 14.703 0 0 1 11.283-7.747c28.919-3.406 57.417 4.624 79.844 22.177-10.158 4.58-19.856 9.937-28.989 16.032zm213.95-16.031c22.427-17.554 50.926-25.582 79.844-22.177a14.7 14.7 0 0 1 11.283 7.747c-18.232 4.108-41.329 12.678-62.138 30.462-9.133-6.096-18.831-11.453-28.989-16.032zm83.194 72.641C416.91 94.128 404.01 78.964 388 65.71a192.033 192.033 0 0 0-3.258-2.633c18.063-14.498 37.829-21.601 53.509-25.064 3.119 17.312 3.903 44.627-11.834 72.576zm-37.931 211.662a16.245 16.245 0 0 1 2.315 12.304 16.254 16.254 0 0 1-7.064 10.339c-8.622 5.634-18.148 8.678-28.346 9.072l-.12.006c-.716.026-1.434.041-2.157.041-7.792 0-15.771-1.552-23.717-4.612-21.083-8.121-40.245-26.673-44.572-43.155a16.254 16.254 0 0 1 1.697-12.405 16.254 16.254 0 0 1 9.975-7.572 16.129 16.129 0 0 1 4.111-.533c7.154 0 13.779 4.758 15.791 11.935l.035.119a7.492 7.492 0 0 0 1.466 2.97c3.952 6.214 14.152 15.398 25.901 19.029 8.475 2.618 15.684 1.871 22.038-2.285 7.556-4.935 17.714-2.805 22.647 4.747zm-211.665-92.598c7.941-2.996 13.84-10.087 15.393-18.505 5.2-28.196 29.815-48.661 58.529-48.661 28.713 0 53.329 20.465 58.53 48.662 1.554 8.419 7.452 15.509 15.393 18.504 23.043 8.694 38.526 31.084 38.526 55.717 0 6.141-.934 12.165-2.766 17.955a31.244 31.244 0 0 0-2.787 1.624c-1.151.753-3.546 2.32-9.406.51-8.874-2.743-16.128-10.225-17.624-12.635-4.917-15.895-21.742-25.31-37.92-21.061-8.103 2.127-14.891 7.281-19.116 14.514s-5.38 15.678-3.253 23.779c4.377 16.674 18.752 33.672 37.184 45.103-.29.627-.563 1.261-.799 1.909-8.52 23.451-31.009 39.208-55.963 39.208s-47.443-15.757-55.963-39.208c-2.627-7.231-8.306-12.752-15.579-15.147a59.395 59.395 0 0 1-31.36-24.178 7.5 7.5 0 0 0-.578-.905 59.38 59.38 0 0 1-4.812-9.578c-.033-.09-.069-.178-.105-.266a59.595 59.595 0 0 1-4.052-21.623c.001-24.634 15.484-47.024 38.528-55.718zm-25.033 185.483c-1.87 7.22-8.376 12.262-15.82 12.262a16.46 16.46 0 0 1-4.118-.528c-8.732-2.262-13.996-11.207-11.735-19.939 4.872-18.802 8.31-35.674 11.356-50.626.881-4.323 1.716-8.421 2.533-12.306 2.439 19.514 10.377 37.481 22.33 52.509a705.05 705.05 0 0 1-4.546 18.628zm70.636 75.989a16.25 16.25 0 0 1-11.084 5.81c-9.228.815-16.958-5.843-17.768-14.825-2.021-22.407-2.036-40.22-.007-55.047a121.935 121.935 0 0 0 31.675 11.282c-.865 10.994-.561 24.442.916 40.83a16.242 16.242 0 0 1-3.732 11.95zm89.943-84.19c-13.437 9.353-28.814 15.39-45.154 17.812-.078.009-.155.01-.233.021-.05.007-.097.02-.147.028a112.394 112.394 0 0 1-16.092 1.158c-52.754 0-96.325-37.003-101.928-84.396a74.53 74.53 0 0 0 25.697 14.609c2.875.946 5.124 3.141 6.171 6.021 10.665 29.359 38.82 49.086 70.059 49.086s59.395-19.727 70.06-49.086c.011-.029.027-.057.038-.086 1.05.449 2.104.886 3.168 1.296 6.961 2.681 13.985 4.395 20.97 5.154-7.035 15.062-18.349 28.457-32.609 38.383zm130.791 31.767c-11.045 16.266-27.667 19.681-39.668 19.681-5.672 0-11.621-.799-17.205-2.31-27.352-7.401-39.215-27.335-49.685-44.928a674.277 674.277 0 0 0-1.895-3.165 113.605 113.605 0 0 0 10.402-11.422 489.647 489.647 0 0 1 4.232 7.005c9.903 16.646 19.258 32.368 40.818 38.202 17.456 4.72 32.688.463 40.738-11.391 6.771-9.975 6.457-22.691-.802-32.399a7.359 7.359 0 0 1-1.4-5.498 7.356 7.356 0 0 1 2.896-4.875c3.276-2.448 7.93-1.775 10.376 1.496 11.104 14.849 11.572 34.32 1.193 49.604zm-291.571-266.92c-10.838-1.43-33.087.232-42.422 2.565a7.5 7.5 0 1 0 3.639 14.552c7.686-1.921 28.025-3.407 36.818-2.246 4.089.538 7.874-2.346 8.418-6.453a7.5 7.5 0 0 0-6.453-8.418z"/></svg>