<svg xmlns="http://www.w3.org/2000/svg" viewBox="0 0 511.998 511.998" style="enable-background:new 0 0 511.998 511.998" xml:space="preserve"><path style="fill:#eda751" d="M140.76 442.35a81.733 81.733 0 0 1-17.924-1.966c-29.132-6.552-49.503-27.94-51.897-54.486-.63-6.99 4.525-13.168 11.516-13.798 6.976-.63 13.167 4.525 13.798 11.516 1.383 15.339 14.007 27.889 32.161 31.973 21.807 4.907 52.483-2.369 73.179-37.496 3.562-6.047 11.353-8.061 17.399-4.498 6.047 3.563 8.061 11.353 4.498 17.4-11.909 20.214-28.245 35.354-47.241 43.782-11.3 5.012-23.474 7.573-35.489 7.573z"/><path style="fill:#fcd79d" d="M99.67 395.209c-1.868-3.594-3.048-7.492-3.418-11.594-.631-6.99-6.822-12.146-13.798-11.516-6.99.63-12.146 6.808-11.516 13.798a56.79 56.79 0 0 0 4.303 17.145c7.392-.465 17.51-2.532 24.429-7.833z"/><path style="fill:#eda751" d="M300.78 504.499a20.47 20.47 0 0 1-4.135-.424c-10.997-2.272-18.07-13.03-15.798-24.027 4.187-20.259 1.044-43.654-4.412-54.567-5.022-10.044-.951-22.257 9.093-27.279 10.046-5.021 22.257-.951 27.279 9.093 10.41 20.821 13.571 53.365 7.865 80.983-1.987 9.607-10.451 16.221-19.892 16.221zM212.955 504.5c-8.375 0-16.219-5.215-19.17-13.561-12.739-36.034-2.886-63.629 7.122-83.645 5.023-10.043 17.235-14.115 27.279-9.093s14.115 17.236 9.093 27.279c-6.967 13.934-13.104 29.42-5.155 51.905 3.743 10.587-1.805 22.204-12.393 25.947a20.29 20.29 0 0 1-6.776 1.168zM164.457 370.559c-24.856 0-55.864-6.6-80.441-21.866-9.539-5.925-12.469-18.461-6.544-28 5.924-9.539 18.46-12.47 28-6.544 24.13 14.988 58.086 17.995 73.326 14.404 10.931-2.572 21.878 4.196 24.455 15.126 2.576 10.93-4.196 21.879-15.126 24.455-6.724 1.586-14.809 2.425-23.67 2.425zM394.779 417.275c-7.298 0-14.353-3.94-17.997-10.843-13.763-26.066-37.983-35.183-51.195-38.298-10.93-2.576-17.702-13.525-15.125-24.455s13.527-17.701 24.455-15.125c19.933 4.698 56.55 18.597 77.826 58.89 5.243 9.93 1.444 22.23-8.487 27.474a20.243 20.243 0 0 1-9.477 2.357z"/><path style="opacity:.2;fill:#a35f00;enable-background:new" d="M218.991 373.594c-6.047-3.563-13.837-1.548-17.399 4.498-11.841 20.098-26.949 31.067-41.794 35.865a108.45 108.45 0 0 0 17.053 20.535c18.737-8.48 34.856-23.5 46.638-43.498 3.563-6.047 1.549-13.837-4.498-17.4zM322.825 445.721c-1.348-14.371-4.755-27.899-10.019-38.427-5.022-10.044-17.234-14.114-27.279-9.093-10.044 5.022-14.115 17.236-9.093 27.279 3.954 7.908 6.69 22.371 6.306 37.445 14.658-3.24 28.226-9.17 40.085-17.204z"/><path style="opacity:.2;fill:#a35f00;enable-background:new" d="M228.187 398.201c-10.044-5.021-22.257-.95-27.279 9.093-5.131 10.262-10.213 22.522-12.239 36.884 11.761 8.382 25.305 14.658 39.997 18.216-1.502-14.803 3.312-26.31 8.614-36.914 5.022-10.044.951-22.257-9.093-27.279zM178.798 328.553c-7.066 1.665-18.158 1.908-30.426.2a100.46 100.46 0 0 0-4.207 40.438c7.029.917 13.868 1.368 20.292 1.368 8.861 0 16.946-.84 23.67-2.425 10.93-2.576 17.702-13.525 15.126-24.455-2.576-10.929-13.524-17.698-24.455-15.126zM310.462 343.679c-2.576 10.93 4.195 21.878 15.125 24.455 9.988 2.354 26.264 8.146 39.56 22.09a100.46 100.46 0 0 0 4.904-31.042c0-5.93-.526-11.747-1.52-17.416-12.625-7.218-24.765-11.126-33.615-13.212-10.927-2.575-21.877 4.195-24.454 15.125z"/><ellipse style="fill:#fcd690" cx="256.859" cy="359.18" rx="93.78" ry="87.14"/><path style="opacity:.15;fill:#c17a00;enable-background:new" d="M243.162 445.398c-42.855-28.136-29.573-85.802-22.299-111.021v-55.683c-33.929 13.116-57.787 44.212-57.787 80.489 0 43.804 34.785 80.055 80.086 86.215z"/><path style="fill:#eda751" d="M199.786 208.077c18.351-15.398 30.603-41.247 4.719-79.459-26.088-38.514-64.93-48.168-95.253-44.595a18.961 18.961 0 0 0-15.914 13.354c-8.784 29.243-6.021 69.17 27.377 101.55 33.136 32.125 60.72 24.548 79.071 9.15z"/><path style="fill:#ff91ab" d="M92.117 101.851c-7.201 28.752-3.129 66.316 28.598 97.075 28.722 27.846 53.267 25.856 71.249 14.807-12.368-83.954-66.392-106.216-99.847-111.882z"/><path style="fill:#eda751" d="M313.928 208.077c-18.351-15.398-30.603-41.247-4.719-79.459 26.088-38.514 64.93-48.168 95.253-44.595a18.961 18.961 0 0 1 15.914 13.354c8.784 29.243 6.021 69.17-27.377 101.55-33.136 32.125-60.72 24.548-79.071 9.15z"/><path style="fill:#ff91ab" d="M421.597 101.851c7.201 28.752 3.129 66.316-28.598 97.075-28.722 27.846-53.267 25.856-71.249 14.807 12.368-83.954 66.392-106.216 99.847-111.882z"/><path style="fill:#ffdc9c" d="M416.517 231.318c0 73.001-71.482 104.975-159.66 104.975s-159.66-31.974-159.66-104.975 71.482-132.18 159.66-132.18c88.178-.001 159.66 59.178 159.66 132.18z"/><path style="opacity:.15;fill:#c17a00;enable-background:new" d="M171.607 119.545c-44.715 23.424-74.409 64.725-74.409 111.772 0 62.754 52.823 95.19 123.667 103.059-101.695-60.744-88.432-142.451-49.258-214.831z"/><path style="fill:#7694e4" d="M343.195 282.955c3.354 2.784 4.408 7.495 2.514 11.42-3.287 6.81-10.702 17.353-27.144 26.846-16.442 9.493-29.28 10.643-36.821 10.085-4.347-.322-7.899-3.591-8.633-7.887L255.103 218.08l5.871-3.39 82.221 68.265z"/><path style="fill:#82c7e6" d="m343.195 282.955-8.027-6.664c-6.638 8.326-16.408 17.528-28.42 24.464-12.013 6.935-24.867 10.795-35.396 12.381l1.758 10.284c.734 4.297 4.286 7.565 8.633 7.887 7.542.558 20.379-.592 36.821-10.085 16.442-9.493 23.857-20.035 27.144-26.846 1.896-3.927.841-8.637-2.513-11.421zM260.973 214.689l-5.871 3.39 10.859 63.519c6.947-19.324 16.558-33.281 24.197-42.678l-29.185-24.231z"/><ellipse style="fill:#ff91ab" cx="178.509" cy="234.4" rx="28.908" ry="23.02"/><ellipse style="fill:#ff91ab" cx="335.199" cy="234.4" rx="28.908" ry="23.02"/><path style="fill:#82c7e6" d="M256.857 151.811c38.39 0 60.307-14.733 68.993-22.252 2.595-2.247 2.991-6.119.886-8.831l-64.792-83.483c-2.578-3.322-7.596-3.322-10.174 0l-64.793 83.483c-2.105 2.712-1.709 6.584.886 8.831 8.687 7.518 30.604 22.252 68.994 22.252z"/><path style="fill:#7694e4" d="M261.944 37.245c-2.578-3.322-7.596-3.322-10.174 0l-64.792 83.483a6.433 6.433 0 0 0-.435 7.248c25.684-.712 71.232-8.105 110.721-45.223l-35.32-45.508z"/><circle style="fill:#78cfc0" cx="255.099" cy="35.01" r="27.505"/><path d="M427.56 95.219a26.414 26.414 0 0 0-22.22-18.644c-30.526-3.6-60.581 5.834-83.245 25.941l-37.631-48.487a34.792 34.792 0 0 0 5.643-19.023C290.107 15.703 274.404 0 255.102 0s-35.005 15.703-35.005 35.005c0 8.049 2.737 15.466 7.32 21.385l-35.798 46.125c-22.664-20.106-52.722-29.538-83.245-25.941a26.418 26.418 0 0 0-22.22 18.644c-9.227 30.719-4.453 63.096 13.035 89.534-6.262 14.823-9.492 30.521-9.492 46.565 0 39.32 19.565 70.048 55.992 89.418-12.356-2.114-25.517-6.285-36.259-12.957-6.316-3.923-13.783-5.151-21.021-3.46-7.239 1.692-13.386 6.103-17.308 12.418s-5.151 13.78-3.459 21.019c1.691 7.239 6.101 13.386 12.416 17.309 21.354 13.263 49.913 21.611 77.508 22.823 1.892 8.784 5.091 17.131 9.396 24.858-11.63 6.231-24.749 8.261-36.904 5.525-14.915-3.355-25.253-13.297-26.337-25.33a20.074 20.074 0 0 0-7.186-13.701 20.076 20.076 0 0 0-14.756-4.61c-11.097 1.001-19.312 10.843-18.312 21.941 2.693 29.854 25.35 53.849 57.721 61.129 6.338 1.426 12.923 2.149 19.57 2.149 13.088 0 26.411-2.842 38.53-8.219a91.438 91.438 0 0 0 2.369-1.091c-2.939 17.556-1.268 35.013 5.056 52.9 3.925 11.101 14.471 18.56 26.241 18.56 3.159 0 6.281-.537 9.278-1.597 14.469-5.116 22.079-21.049 16.963-35.518-2.874-8.127-3.863-15.603-3.013-23.044a108.19 108.19 0 0 0 20.674 1.985c6.183 0 12.237-.523 18.117-1.519.668 9.011.177 18.239-1.472 26.223-3.105 15.03 6.596 29.784 21.628 32.89 1.863.384 3.764.579 5.65.579 13.123 0 24.578-9.338 27.236-22.204 4.123-19.954 3.876-43.069-.566-62.816 11.439-10.403 20.265-23.302 25.454-37.748 5.066 3.994 9.464 8.627 13.103 13.877a7.491 7.491 0 0 0 6.17 3.227 7.5 7.5 0 0 0 6.157-11.774c-5.713-8.24-12.897-15.248-21.377-20.916a88.89 88.89 0 0 0 1.181-14.461c0-5.085-.424-10.105-1.266-15.042 17.036 8.051 36.222 22.154 49.237 46.805 3.304 6.257.901 14.036-5.355 17.339a12.737 12.737 0 0 1-5.198 1.465 7.5 7.5 0 0 0 .912 14.972 27.642 27.642 0 0 0 11.29-3.173c13.571-7.166 18.782-24.037 11.617-37.608-17.083-32.353-43.379-48.737-64.531-57.002 6.68-2.775 12.942-5.877 18.734-9.309 32.999-19.551 50.44-49.398 50.44-86.315 0-16.044-3.231-31.742-9.492-46.565 17.488-26.435 22.262-58.812 13.035-89.53zm-23.975-3.748c3.28.387 6.158 2.16 7.996 4.766-15.239 3.616-34.131 10.865-51.292 25.317a172.306 172.306 0 0 0-22.535-12.502c25.939-19.603 54.087-18.963 65.831-17.581zM255.102 15c11.031 0 20.005 8.975 20.005 20.005 0 11.031-8.975 20.005-20.005 20.005-11.031 0-20.005-8.975-20.005-20.005S244.071 15 255.102 15zm-53.114 98.619.007-.009 36.927-47.578a34.778 34.778 0 0 0 16.18 3.979 34.788 34.788 0 0 0 18.607-5.376l38.01 48.975.007.009 8.466 10.908c-21.254 17.841-51.301 19.784-63.335 19.784-12.033 0-42.08-1.942-63.335-19.784l8.466-10.908zm-91.859-22.148c11.743-1.381 39.892-2.022 65.831 17.581a172.19 172.19 0 0 0-22.535 12.502c-17.161-14.453-36.053-21.702-51.292-25.317a11.414 11.414 0 0 1 7.996-4.766zm-12.18 19.193c12.73 2.938 28.43 8.716 42.936 20.032-8.057 6.491-15.38 13.665-21.816 21.477a137.009 137.009 0 0 0-11.859 16.798c-11.978-22.342-11.654-44.041-9.261-58.307zm57.627 248.519c0 1.199.032 2.39.08 3.578-24.29-1.474-49.077-8.881-67.683-20.438-2.912-1.809-4.945-4.643-5.725-7.98s-.214-6.779 1.595-9.691a12.745 12.745 0 0 1 7.979-5.725 12.75 12.75 0 0 1 9.692 1.596c17.93 11.137 39.895 15.801 56.793 16.723a88.857 88.857 0 0 0-2.731 21.937zm17.63 68.737c-10.218 4.533-21.438 6.93-32.447 6.93-5.542 0-11.018-.6-16.278-1.784-25.892-5.823-43.977-24.603-46.073-47.842a5.214 5.214 0 0 1 4.721-5.655 5.16 5.16 0 0 1 3.8 1.19 5.176 5.176 0 0 1 1.854 3.529c1.681 18.646 16.591 33.804 37.984 38.616 16.133 3.631 33.473.843 48.569-7.629a97.04 97.04 0 0 0 6.965 7.893 82.731 82.731 0 0 1-9.095 4.752zm44.026 68.341c-1.386.49-2.826.739-4.277.739a12.857 12.857 0 0 1-12.099-8.56c-6.264-17.719-7.235-34.937-2.957-52.348a103.647 103.647 0 0 0 23.68 11.807c-1.575 10.427-.424 20.957 3.475 31.986 2.359 6.671-1.15 14.017-7.822 16.376zm96.094-9.502c-1.226 5.933-6.502 10.239-12.546 10.239-.871 0-1.753-.091-2.618-.269-6.929-1.432-11.402-8.235-9.97-15.165 2.107-10.195 2.609-21.647 1.526-32.856a103.96 103.96 0 0 0 24.449-11.536c2.647 16.069 2.4 33.904-.841 49.587zm52.605-182.031c-7.703 4.564-16.35 8.5-25.828 11.795-.075.025-.15.049-.225.077-1.109.384-2.229.758-3.361 1.124 8.517-7.345 13.291-14.59 15.945-20.088 3.395-7.033 1.554-15.443-4.477-20.451l-70.784-58.769a29.261 29.261 0 0 0 1.523-1.604 7.5 7.5 0 0 0-11.309-9.854 14.01 14.01 0 0 1-10.56 4.814 14.01 14.01 0 0 1-10.56-4.814 7.498 7.498 0 0 0-10.581-.727 7.5 7.5 0 0 0-.727 10.581 29.027 29.027 0 0 0 13.792 8.803l16.937 99.068c.237 1.39.644 2.715 1.187 3.961-3.309.095-6.655.149-10.047.149-10.116 0-20.033-.436-29.476-1.294-4.126-.372-7.774 2.665-8.148 6.79a7.5 7.5 0 0 0 6.79 8.148c9.893.9 20.267 1.356 30.835 1.356 30.469 0 58-3.732 81.456-10.926a73.655 73.655 0 0 1 4.825 26.316c0 43.916-38.706 79.643-86.281 79.643s-86.281-35.728-86.281-79.643c0-9.07 1.622-17.896 4.826-26.321a215.261 215.261 0 0 0 14.884 3.991 7.504 7.504 0 0 0 8.989-5.631 7.5 7.5 0 0 0-5.631-8.988c-6.944-1.595-13.368-3.413-19.312-5.425a7.525 7.525 0 0 0-1.37-.476c-55.806-19.412-68.265-56.132-68.265-85.015 0-15.284 3.392-30.076 9.673-43.822.17-.321.322-.65.443-.99 8.805-18.782 23.066-35.551 41.583-48.859.499-.27.971-.601 1.409-.991a155.222 155.222 0 0 1 20.329-12.049 13.938 13.938 0 0 0 4.821 10.622c10.389 8.994 33.805 24.082 73.902 24.082 40.099 0 63.514-15.088 73.902-24.082a13.935 13.935 0 0 0 4.821-10.622 155.205 155.205 0 0 1 20.328 12.048c.439.39.912.722 1.411.992 18.516 13.308 32.776 30.076 41.581 48.856.122.342.274.674.446.997 6.28 13.745 9.671 28.535 9.671 43.818 0 31.772-14.496 56.471-43.086 73.41zm-55.433 2.522c9.262-5.347 18.128-12.48 25.543-20.486l2.362 1.961c.717.595.943 1.578.551 2.39-2.953 6.118-9.538 15.18-24.14 23.611s-25.742 9.601-32.518 9.1c-.9-.066-1.638-.754-1.794-1.671l-.518-3.027c10.642-2.419 21.252-6.531 30.514-11.878zm-33.046-2.94-13.188-77.14 60.212 49.991c-4.865 5.164-12.058 11.659-21.478 17.098-9.419 5.439-18.641 8.421-25.546 10.051zm129.052-135.339a136.9 136.9 0 0 0-11.859-16.798c-6.436-7.812-13.759-14.986-21.817-21.477 14.506-11.316 30.207-17.094 42.936-20.032 2.394 14.266 2.718 35.964-9.26 58.307zM62.405 256.539a5.137 5.137 0 0 1 0-7.259c7.85-7.85 7.85-20.623 0-28.472a7.5 7.5 0 0 0-10.607 10.606 5.14 5.14 0 0 1 0 7.259c-7.849 7.85-7.849 20.622 0 28.472a7.48 7.48 0 0 0 5.304 2.197 7.501 7.501 0 0 0 5.303-12.803zm392.591 56.25a19.998 19.998 0 0 0-5.897-14.236 7.5 7.5 0 0 0-10.606 10.607c.969.97 1.503 2.259 1.503 3.63s-.534 2.66-1.503 3.629a20 20 0 0 0-5.897 14.236 19.998 19.998 0 0 0 5.897 14.236c1.465 1.464 3.384 2.196 5.303 2.196s3.839-.732 5.304-2.197a7.501 7.501 0 0 0 0-10.607c-.97-.969-1.503-2.258-1.503-3.629s.534-2.66 1.503-3.629a20.001 20.001 0 0 0 5.896-14.236zm-83.778-52.857c-6.673-4.926-23.858-13.557-32.967-15.975a7.5 7.5 0 1 0-3.848 14.498c7.062 1.875 22.662 9.674 27.907 13.545a7.467 7.467 0 0 0 4.448 1.466 7.5 7.5 0 0 0 4.46-13.534zm87.478-62.984c0-1.371.534-2.66 1.503-3.63 7.85-7.85 7.85-20.622 0-28.472a7.5 7.5 0 0 0-10.607 10.606 5.14 5.14 0 0 1 0 7.259 20 20 0 0 0-5.897 14.236 19.998 19.998 0 0 0 5.897 14.236c1.465 1.464 3.384 2.196 5.303 2.196s3.839-.732 5.304-2.197a7.5 7.5 0 0 0-.001-10.607 5.094 5.094 0 0 1-1.502-3.627zm-265.359-8.859c-11.901 0-21.583 9.682-21.583 21.583a7.5 7.5 0 0 0 15 0 6.59 6.59 0 0 1 6.583-6.583 6.59 6.59 0 0 1 6.582 6.583 7.5 7.5 0 0 0 15 0c0-11.901-9.682-21.583-21.582-21.583zm184.444 36.347c-8.045-2.012-27.222-3.445-36.567-2.209a7.501 7.501 0 0 0 1.965 14.871c7.246-.959 24.639.309 30.962 1.89a7.506 7.506 0 0 0 1.825.226 7.504 7.504 0 0 0 7.27-5.683 7.498 7.498 0 0 0-5.455-9.095zm-59.425-30.713a7.5 7.5 0 0 0-7.5 7.5v10.208a7.5 7.5 0 0 0 15 0v-10.208a7.5 7.5 0 0 0-7.5-7.5zm-142.893 50.233c-9.109 2.418-26.294 11.05-32.966 15.975a7.5 7.5 0 0 0 4.46 13.534 7.467 7.467 0 0 0 4.448-1.466c5.245-3.872 20.844-11.671 27.907-13.545a7.501 7.501 0 0 0-3.849-14.498zm-4.929-6.858a7.5 7.5 0 1 0 1.966-14.871c-9.345-1.235-28.521.198-36.567 2.209a7.5 7.5 0 0 0-5.457 9.095 7.503 7.503 0 0 0 7.27 5.683 7.5 7.5 0 0 0 1.825-.226c6.324-1.582 23.718-2.85 30.963-1.89z"/></svg>