<svg xmlns="http://www.w3.org/2000/svg" viewBox="0 0 512 512" style="enable-background:new 0 0 512 512" xml:space="preserve"><path style="fill:#eda751" d="M152.123 434.48a12.106 12.106 0 0 1-9.356-4.4c-4.271-5.164-3.547-12.813 1.616-17.083 20.354-16.836 36.169-16.681 52.905-16.519 8.432.082 17.153.167 27.992-1.866 17.078-3.205 25.584-20.635 28.443-58.28.508-6.682 6.346-11.688 13.017-11.18 6.682.507 11.687 6.335 11.18 13.017-1.622 21.362-4.91 36.919-10.351 48.961-7.939 17.572-20.662 28.114-37.814 31.333-13.175 2.474-23.551 2.372-32.704 2.283-14.766-.151-23.681-.231-37.202 10.952a12.082 12.082 0 0 1-7.726 2.782z"/><path style="fill:#fcd79d" d="M142.767 430.08a12.103 12.103 0 0 0 9.356 4.4c2.724 0 5.464-.912 7.727-2.784a64.905 64.905 0 0 1 5.195-3.899c-2.851-8.365-10.367-15.181-15.485-18.786a92.674 92.674 0 0 0-5.176 3.986c-5.164 4.27-5.889 11.92-1.617 17.083z"/><path style="fill:#eda751" d="M307.293 433.645c-8.97 0-17.028-6.252-18.97-15.378-3.492-16.413-8.607-35.944-17.242-41.329-9.098-5.674-11.872-17.65-6.198-26.747 5.674-9.099 17.65-11.872 26.747-6.198 19.7 12.288 28.109 35.349 34.671 66.194 2.23 10.487-4.462 20.798-14.949 23.03a19.55 19.55 0 0 1-4.059.428zM171.038 370.161a66.018 66.018 0 0 1-15.483-1.821c-10.425-2.506-16.844-12.989-14.339-23.414 2.506-10.425 12.988-16.842 23.415-14.339 17.924 4.32 40.036-11.769 49.221-20.873 7.615-7.548 19.907-7.493 27.456.122 7.548 7.615 7.493 19.907-.122 27.456-6.117 6.062-35.165 32.869-70.148 32.869zM387.082 377.122c-8.97 0-17.028-6.252-18.97-15.378-3.723-17.498-18.858-22.45-21.684-22.701-10.69-.834-18.677-10.176-17.841-20.866.835-10.688 10.142-18.659 20.869-17.843 17.805 1.391 48.926 17.099 56.634 53.33 2.231 10.487-4.462 20.798-14.949 23.03a19.61 19.61 0 0 1-4.059.428zM337.235 275.733c-8.156 0-15.748-5.181-18.438-13.35-3.353-10.184 2.186-21.158 12.37-24.51 12.284-4.044 36.655-16.428 40.965-34.356 2.506-10.426 12.988-16.844 23.414-14.339 10.425 2.506 16.844 12.99 14.339 23.414-10 41.597-57.214 59.079-66.577 62.161a19.38 19.38 0 0 1-6.073.98z"/><path style="opacity:.2;fill:#a35f00;enable-background:new" d="M266.741 325.151c-6.672-.508-12.509 4.498-13.017 11.18-1.884 24.802-6.22 40.825-13.842 49.791 7.585 3.581 15.716 6.184 24.214 7.713a70.1 70.1 0 0 0 3.474-6.706c5.44-12.042 8.729-27.599 10.351-48.961.507-6.682-4.498-12.51-11.18-13.017zM213.852 309.714c-4.986 4.942-13.784 11.937-23.65 16.613a90.458 90.458 0 0 0 10.484 24.748 91.306 91.306 0 0 0 7.029 9.929c17.213-8.364 29.701-19.975 33.47-23.712 7.616-7.548 7.67-19.841.122-27.456-7.548-7.615-19.84-7.67-27.455-.122z"/><ellipse transform="rotate(-121.48 287.326 298.028)" style="fill:#fcd690" cx="287.324" cy="298.024" rx="76.379" ry="82.198"/><path style="opacity:.15;fill:#c17a00;enable-background:new" d="M316.566 368.72c-44.911-1.414-61.379-50.597-67.485-72.777l-25.488-41.621c-19.357 25.334-22.956 59.497-6.351 86.613 20.051 32.743 62.644 43.917 99.324 27.785z"/><path style="fill:#eda751" d="M175.515 211.188c6.668-19.909 3.994-44.838-32.844-61.552-37.129-16.846-70.58-6.283-91.61 10.268a16.62 16.62 0 0 0-5.783 17.266c6.82 25.878 27.161 54.458 66.946 63.373 39.474 8.844 56.623-9.446 63.291-29.355z"/><path style="fill:#ff91ab" d="M46.414 181.072c7.778 24.787 28.016 51.001 65.81 59.469 34.214 7.667 51.65-5.056 60.033-21.545-47.672-57.091-98.243-49.003-125.843-37.924z"/><path style="fill:#eda751" d="M260.832 158.941c-20.764-3.11-41.755-16.822-39.898-57.232 1.871-40.729 26.484-65.724 50.785-76.933a16.62 16.62 0 0 1 18.008 2.697c19.951 17.837 36.162 48.946 26.019 88.436-10.064 39.18-34.15 46.142-54.914 43.032z"/><path style="fill:#ff91ab" d="M292.686 30.258c18.543 18.194 32.694 48.136 23.059 85.65-8.722 33.96-27.979 43.708-46.478 43.68-29.184-68.412 1.006-109.781 23.419-129.33z"/><path style="fill:#ffdc9c" d="M348.15 129.355c33.415 54.565-5.38 111.183-71.289 151.545s-133.974 49.183-167.389-5.382-7.073-131.518 58.836-171.88c65.909-40.363 146.427-28.849 179.842 25.717z"/><path style="opacity:.15;fill:#c17a00;enable-background:new" d="M113.929 157.913c-22.7 37.976-25.991 82.439-4.456 117.604 28.724 46.906 83.054 46.971 139.609 20.426-103.817 1.145-131.303-65.998-135.153-138.03z"/><ellipse transform="rotate(-121.48 171.653 240.606)" style="fill:#ff91ab" cx="171.653" cy="240.603" rx="20.18" ry="25.337"/><ellipse transform="rotate(58.52 288.795 168.857)" style="fill:#ff91ab" cx="288.789" cy="168.86" rx="20.18" ry="25.337"/><path style="fill:#b77866" d="M412.23 168.467V62.381H310.914v106.086a40.7 40.7 0 0 1-12.305 29.158l-17.081 16.633a84.86 84.86 0 0 0-25.656 60.794v202.553c0 14.854 12.041 26.895 26.895 26.895h157.609c14.854 0 26.895-12.041 26.895-26.895V275.052a84.855 84.855 0 0 0-25.656-60.794l-17.081-16.633a40.704 40.704 0 0 1-12.304-29.158z"/><path style="fill:#dee2e5" d="M415.271 62.381H307.873c-8.155 0-14.766-6.611-14.766-14.766v-11.91c0-15.577 12.628-28.205 28.205-28.205h80.521c15.577 0 28.205 12.628 28.205 28.205v11.909c-.001 8.156-6.612 14.767-14.767 14.767z"/><path style="fill:#fff" d="M415.441 425.204H307.703a9.223 9.223 0 0 1-9.223-9.223V278.978a9.223 9.223 0 0 1 9.223-9.223H415.44a9.223 9.223 0 0 1 9.223 9.223v137.004c.001 5.093-4.129 9.222-9.222 9.222z"/><path style="fill:#f5d141" d="M330.326 333.474c0-17.257 13.989-31.246 31.246-31.246s31.246 13.989 31.246 31.246v71.992h-62.492v-71.992z"/><path style="fill:#bd4568" d="M298.481 376.728v39.253a9.223 9.223 0 0 0 9.223 9.223h107.737a9.223 9.223 0 0 0 9.223-9.223v-85.18l-126.183 45.927z"/><path style="opacity:.1;enable-background:new" d="M255.873 458.031v19.574c0 14.853 12.041 26.895 26.895 26.895h157.609c14.854 0 26.895-12.041 26.895-26.895v-19.574H255.873z"/><path style="opacity:.1;enable-background:new" d="M321.505 232.184c14.65-21.079 15.761-61.986 15.765-120.241.001-8.469 6.87-15.337 15.338-15.337h59.622V62.381H310.914v106.086a40.7 40.7 0 0 1-12.305 29.158l-17.081 16.633a84.857 84.857 0 0 0-25.656 60.793v202.553c0 14.854 12.041 26.895 26.895 26.895h100.492c-81.807-55.408-97.573-220.777-61.754-272.315z"/><path d="M344.288 410.688h34.567c4.143 0 7.5-3.357 7.5-7.5s-3.357-7.5-7.5-7.5h-34.567c-4.142 0-7.5 3.357-7.5 7.5s3.358 7.5 7.5 7.5zm-36.585-148.433c-9.221 0-16.723 7.502-16.723 16.723v137.004c0 9.221 7.502 16.723 16.723 16.723H415.44c9.221 0 16.723-7.502 16.723-16.723V278.978c0-9.221-7.502-16.723-16.723-16.723H307.703zm109.46 153.726c0 .95-.772 1.723-1.723 1.723H307.703c-.95 0-1.723-.772-1.723-1.723V381.98l111.183-40.467v74.468zm0-137.003v46.572L305.98 366.017v-87.04c0-.95.772-1.723 1.723-1.723H415.44a1.725 1.725 0 0 1 1.723 1.724zm-249.818-59.339a7.494 7.494 0 0 0 10.313 2.479 7.5 7.5 0 0 0 2.479-10.313l-4.673-7.631a7.502 7.502 0 0 0-12.793 7.834l4.674 7.631zM467.272 392.36a7.5 7.5 0 0 0 7.5-7.5V275.052c0-24.77-10.178-48.887-27.923-66.167l-17.081-16.633c-6.379-6.212-10.037-14.881-10.037-23.785V69.432c10.148-2.071 17.807-11.066 17.807-21.817v-11.91C437.537 16.018 421.52 0 401.832 0h-80.521c-13.489 0-25.252 7.52-31.324 18.587a24.067 24.067 0 0 0-21.411-.622c-24.586 11.343-42.857 32.208-50.734 57.693-18.525 4.014-36.67 11.307-53.451 21.583-17.166 10.512-31.764 23.435-43.48 37.807-26.297-4.582-53.201 2.208-74.489 18.962a24.075 24.075 0 0 0-8.396 25.07c7.198 27.314 25.618 49.46 50.843 61.378 2.106 13.646 6.77 26.832 14.206 38.977 16.971 27.712 43.265 41.911 76.252 41.909 1.172 0 2.356-.025 3.545-.06-6.927 2.57-12.612 2.945-16.492 2.011-14.429-3.462-28.988 5.452-32.457 19.879-3.469 14.43 5.449 28.991 19.878 32.459a73.799 73.799 0 0 0 17.235 2.029c20.706 0 39.283-8.549 52.555-16.97 4.703 4.506 9.967 8.409 15.71 11.672-4.644 11.36-10.568 13.969-15.405 14.877-10.122 1.897-18.47 1.814-26.543 1.738-17.343-.162-35.287-.343-57.752 18.239a19.506 19.506 0 0 0-7.032 13.279 19.499 19.499 0 0 0 4.417 14.362 19.58 19.58 0 0 0 15.136 7.121 19.67 19.67 0 0 0 12.507-4.505c11.421-9.445 17.98-9.389 32.349-9.231 9.494.094 20.263.198 34.161-2.411 6.231-1.169 11.986-3.217 17.232-6.105v57.876c0 18.966 15.43 34.396 34.395 34.396h157.608c18.966 0 34.396-15.43 34.396-34.396v-57.368a7.5 7.5 0 0 0-15 0v57.368c0 10.694-8.701 19.396-19.396 19.396H282.768c-10.694 0-19.395-8.701-19.395-19.396V275.052c0-20.746 8.524-40.946 23.389-55.421l17.08-16.633c6.145-5.983 10.537-13.54 12.807-21.722.14-.39.252-.792.325-1.207a47.897 47.897 0 0 0 1.441-11.602V69.881h86.316v98.586c0 12.927 5.311 25.513 14.572 34.531l17.081 16.633c14.863 14.474 23.388 34.674 23.388 55.421V384.86c0 4.143 3.357 7.5 7.5 7.5zM274.86 31.586a9.066 9.066 0 0 1 6.063-.533c-9.418 9.598-19.616 23.231-25.688 41.062-4.301-.12-8.646-.071-13.032.185-2.486.145-4.971.371-7.456.636 10.486-25.242 30.979-37.136 40.113-41.35zM87.556 222.749c-17.601-10.761-26.809-25.917-31.508-37.185 10.396-3.369 23.871-5.954 38.852-4.443-4.775 13.711-7.29 27.775-7.344 41.628zm-35.087-51.795a9.065 9.065 0 0 1 3.231-5.157c7.908-6.224 27.836-19.089 55.12-16.932a152.87 152.87 0 0 0-10.017 17.87c-18.678-2.718-35.485.186-48.334 4.219zm118.568 191.707c-4.655 0-9.275-.543-13.729-1.613-6.388-1.535-10.335-7.982-8.8-14.368 1.536-6.386 7.98-10.335 14.364-8.802 14.475 3.488 29.721-3.491 40.136-10.118a78.535 78.535 0 0 0 7.838 17.093 80.22 80.22 0 0 0 2.864 4.322c-11.288 6.882-26.367 13.486-42.673 13.486zm77.335 38.809c-5.565 4.935-12.276 8.172-19.999 9.621-12.455 2.338-22.437 2.241-31.245 2.153-15.329-.157-26.41-.269-42.06 12.674a4.576 4.576 0 0 1-2.945 1.063 4.624 4.624 0 0 1-3.577-1.681 4.605 4.605 0 0 1-1.043-3.39 4.605 4.605 0 0 1 1.66-3.134c18.24-15.088 32.057-14.954 48.052-14.798 8.794.083 17.883.174 29.448-1.996 9.117-1.71 16.297-6.588 21.709-14.749v14.237zm55.042-255.048c-5.933 3.002-12.45 6.771-16.295 9.886a7.501 7.501 0 0 0 9.443 11.654c1.515-1.227 3.964-2.819 6.852-4.496v4.999a32.68 32.68 0 0 1-.201 3.571c-2.779.433-5.665.991-8.045 1.702a7.5 7.5 0 0 0-5.04 9.333c.916 3.067 3.624 5.087 6.637 5.311a32.772 32.772 0 0 1-3.389 3.868l-17.08 16.633c-17.746 17.281-27.924 41.398-27.924 66.167v85.184c-6.812-3.624-12.829-8.326-17.873-13.981a7.646 7.646 0 0 0-.418-.476 64.409 64.409 0 0 1-6.443-8.76 63.506 63.506 0 0 1-8.12-20.715 193.024 193.024 0 0 0 13.494-4.099 7.5 7.5 0 1 0-4.871-14.187c-6.36 2.184-12.385 3.893-18.103 5.191a7.5 7.5 0 0 0-1.301.295c-49.979 10.878-75.786-10.539-88.868-31.902-31.201-50.951-5.92-123.43 56.357-161.567 42.213-25.851 93.164-30.121 131.189-11.329v47.718h-.001zm0-64.191c-10.233-4.306-21.21-7.284-32.681-8.859 3.904-9.99 9.306-18.358 14.889-25.134.29 10.473 7.841 19.163 17.792 21.194v12.799zm111.857-27.35H307.873c-4.007 0-7.267-3.26-7.267-7.267V35.705c0-11.417 9.288-20.705 20.705-20.705h80.521c11.417 0 20.705 9.288 20.705 20.705v11.909c0 4.007-3.259 7.267-7.266 7.267zM259.279 163.339a7.494 7.494 0 0 0 6.403 3.584 7.502 7.502 0 0 0 6.39-11.418l-4.673-7.631a7.5 7.5 0 0 0-12.793 7.834l4.673 7.631zm-86.193 85.162c-5.766 6.045-14.755 20.517-17.516 27.321a7.501 7.501 0 0 0 6.947 10.322 7.503 7.503 0 0 0 6.953-4.683c2.12-5.227 10.105-18.031 14.471-22.608a7.5 7.5 0 0 0-10.855-10.352zm60.198-75.408c-4.084-.684-7.954 2.063-8.645 6.146a11.355 11.355 0 0 1-5.259 7.796 11.354 11.354 0 0 1-9.336 1.142 7.5 7.5 0 0 0-4.496 14.31 26.41 26.41 0 0 0 7.913 1.215c4.805 0 9.57-1.314 13.753-3.875a26.356 26.356 0 0 0 12.216-18.09 7.5 7.5 0 0 0-6.146-8.644zm-62.165 64.122a7.5 7.5 0 0 0-9.899-3.808c-7.634 3.392-21.459 13.347-26.605 18.586a7.5 7.5 0 0 0 10.704 10.509c3.951-4.024 16.214-12.82 21.993-15.389a7.497 7.497 0 0 0 3.807-9.898z"/></svg>