<svg xmlns="http://www.w3.org/2000/svg" viewBox="0 0 512 512" style="enable-background:new 0 0 512 512" xml:space="preserve"><path style="fill:#eda751" d="M124.199 452.176c-1.342 0-2.59-.041-3.732-.106-29.851-1.716-55.724-22.43-62.919-50.374-1.986-7.714 2.657-15.577 10.37-17.563 7.711-1.987 15.576 2.657 17.562 10.37 4.038 15.683 19.447 27.782 36.641 28.77 25.497 1.479 48.893-20.433 64.126-60.082 2.857-7.435 11.2-11.149 18.635-8.289 7.435 2.856 11.147 11.2 8.29 18.635-26.683 69.456-68.683 78.639-88.973 78.639z"/><path style="fill:#fcd79d" d="M85.481 394.503c-1.986-7.714-9.851-12.357-17.562-10.37-7.714 1.986-12.357 9.85-10.37 17.563a63.278 63.278 0 0 0 3.594 10.221c8.038-.97 18.287-4.213 27.295-9.858a34.356 34.356 0 0 1-2.957-7.556z"/><path style="fill:#eda751" d="M215.986 504.5c-.795 0-1.597-.042-2.404-.125-12.676-1.313-21.889-12.652-20.576-25.329 2.728-26.355 2.328-49.494-1.224-70.737-2.102-12.569 6.384-24.463 18.954-26.565 12.575-2.105 24.464 6.385 26.565 18.955 4.244 25.384 4.771 52.567 1.61 83.1-1.229 11.869-11.249 20.701-22.925 20.701zM288.69 504.5c-.795 0-1.597-.042-2.404-.125-12.676-1.313-21.889-12.652-20.576-25.329 2.728-26.357 2.328-49.495-1.223-70.737-2.102-12.569 6.384-24.463 18.954-26.565 12.575-2.105 24.464 6.385 26.565 18.955 4.244 25.383 4.771 52.565 1.609 83.1-1.229 11.869-11.249 20.701-22.925 20.701zM111.867 365.538c-18.309 0-36.188-4.169-53.224-12.527-11.441-5.613-16.166-19.44-10.552-30.88 5.614-11.441 19.44-16.164 30.88-10.552 24.243 11.894 49.776 10.365 78.06-4.672 11.253-5.983 25.226-1.71 31.207 9.542 5.983 11.253 1.71 25.225-9.542 31.207-22.4 11.91-44.921 17.882-66.829 17.882zM338.436 346.217c-3.424 0-6.72-.311-9.833-.958-12.477-2.595-20.488-14.814-17.893-27.291 2.59-12.448 14.755-20.456 27.201-17.912 6.311.785 27.514-7.106 36.355-20.658 4.49-6.881 4.331-12.942-.55-20.917-6.653-10.87-3.234-25.074 7.636-31.728 10.868-6.654 25.075-3.235 31.728 7.636 14.58 23.821 13.984 50.211-1.635 72.402-16.031 22.774-47.927 39.426-73.009 39.426z"/><path style="opacity:.2;fill:#a35f00;enable-background:new" d="M313.601 441.64c-.215-14.266-1.407-27.846-3.596-40.941-2.101-12.57-13.99-21.06-26.565-18.955-12.57 2.103-21.056 13.996-18.954 26.565 2.515 15.046 3.442 31.049 2.803 48.467 16.699-2.167 32.361-7.423 46.312-15.136zM210.736 381.744c-12.57 2.103-21.056 13.996-18.954 26.565 1.982 11.856 2.981 24.304 3.004 37.57 14.055 6.48 29.572 10.569 45.952 11.695.69-20.211-.447-38.993-3.437-56.875-2.102-12.57-13.99-21.06-26.565-18.955z"/><path style="opacity:.2;fill:#a35f00;enable-background:new" d="M204.883 354.901c-7.435-2.86-15.778.854-18.635 8.289-8.991 23.403-20.828 40.621-34.262 50.502a123.701 123.701 0 0 0 21.55 19.786c14.083-11.659 28.254-30.313 39.637-59.943 2.858-7.434-.854-15.777-8.29-18.634zM157.032 306.907c-10.628 5.65-20.867 9.392-30.795 11.232a111.652 111.652 0 0 0 .76 46.445c17.081-2.106 34.426-7.744 51.699-16.928 11.253-5.982 15.525-19.954 9.542-31.207-5.981-11.252-19.954-15.525-31.206-9.542z"/><ellipse style="fill:#fcd690" cx="250.01" cy="339.579" rx="106.43" ry="98.9"/><path style="opacity:.15;fill:#c17a00;enable-background:new" d="M234.464 437.429c-48.636-31.932-33.563-97.378-25.307-125.999v-63.195c-38.507 14.885-65.583 50.176-65.583 91.347 0 49.715 39.477 90.856 90.89 97.847z"/><path style="fill:#eda751" d="M185.236 168.092c20.826-17.475 34.731-46.812 5.356-90.178-29.608-43.709-73.689-54.666-108.104-50.611a21.522 21.522 0 0 0-18.061 15.155c-9.969 33.188-6.833 78.502 31.071 115.25 37.606 36.459 68.911 27.859 89.738 10.384z"/><path style="fill:#ff91ab" d="M63.041 47.535c-8.173 32.631-3.552 75.262 32.456 110.171 32.597 31.602 60.453 29.344 80.86 16.804C162.322 79.231 101.011 53.965 63.041 47.535z"/><path style="fill:#eda751" d="M314.777 168.092c-20.826-17.475-34.732-46.812-5.356-90.178 29.608-43.709 73.689-54.666 108.104-50.611a21.522 21.522 0 0 1 18.061 15.155c9.969 33.188 6.833 78.502-31.07 115.25-37.608 36.459-68.913 27.859-89.739 10.384z"/><path style="fill:#ff91ab" d="M436.971 47.535c8.173 32.631 3.552 75.262-32.456 110.171-32.596 31.602-60.453 29.344-80.86 16.804C337.69 79.231 399.002 53.965 436.971 47.535z"/><path style="fill:#ffdc9c" d="M431.205 194.468c0 82.849-81.126 119.136-181.199 119.136S68.807 277.317 68.807 194.468 149.933 44.456 250.006 44.456s181.199 67.162 181.199 150.012z"/><path style="opacity:.15;fill:#c17a00;enable-background:new" d="M153.255 67.617c-50.747 26.584-84.448 73.457-84.448 126.851 0 71.22 59.95 108.031 140.35 116.963-115.413-68.94-100.361-161.67-55.902-243.814z"/><ellipse style="fill:#ff91ab" cx="161.09" cy="197.959" rx="32.808" ry="26.13"/><ellipse style="fill:#ff91ab" cx="338.92" cy="197.959" rx="32.808" ry="26.13"/><path style="fill:#ff91ab" d="M275.041 195.213c0-13.826-11.208-25.035-25.035-25.035-13.826 0-25.035 11.209-25.035 25.035v5.107c0 3.824 3.1 6.923 6.924 6.923h36.223c3.824 0 6.923-3.1 6.923-6.923v-5.107z"/><path style="fill:#bd4568" d="M471.182 144.127c-7.638 1.347-14.921-3.753-16.268-11.391l-7.008-39.741c-1.347-7.638 3.753-14.921 11.391-16.268 11.254-1.985 18.796-12.755 16.811-24.009-1.984-11.254-12.755-18.795-24.009-16.811-8.553 1.508-15.312 8.264-16.821 16.811-1.348 7.638-8.634 12.734-16.269 11.389-7.638-1.348-12.737-8.632-11.389-16.27 3.552-20.129 19.466-36.039 39.602-39.589 26.505-4.674 51.872 13.088 56.545 39.593 3.826 21.701-7.384 42.637-26.121 52.08l4.926 27.939c1.348 7.637-3.752 14.92-11.39 16.267z"/><circle style="fill:#bd4568" cx="476.91" cy="173.019" r="13"/><path style="fill:#bd4568" d="M29.108 182.649c-7.396-2.692-11.21-10.87-8.518-18.266l14.007-38.484c2.692-7.396 10.87-11.21 18.266-8.518 10.898 3.967 22.991-1.673 26.958-12.571 3.966-10.897-1.673-22.99-12.571-26.957-8.282-3.015-17.651-.507-23.314 6.24-5.06 6.029-14.05 6.811-20.078 1.754-6.029-5.06-6.814-14.05-1.754-20.079C35.44 49.879 57.5 43.972 76.999 51.069c25.667 9.342 38.948 37.823 29.606 63.49-7.648 21.014-28.125 33.726-49.384 32.518l-9.847 27.054c-2.692 7.397-10.87 11.21-18.266 8.518z"/><circle style="fill:#bd4568" cx="20.712" cy="208.809" r="13.194"/><path d="M191 107.668c-13.847-6.666-30.537-.827-37.205 13.021a7.5 7.5 0 0 0 3.503 10.011 7.5 7.5 0 0 0 10.012-3.503c3.079-6.395 10.788-9.094 17.183-6.013A7.501 7.501 0 0 0 191 107.668zm188.194 120.088c-7.506-5.54-26.832-15.248-37.073-17.967a7.5 7.5 0 0 0-3.848 14.498c8.267 2.194 25.862 10.997 32.013 15.537a7.467 7.467 0 0 0 4.448 1.466 7.5 7.5 0 0 0 4.46-13.534zm-33.319-42.602a7.5 7.5 0 0 0 1.966 14.871c8.48-1.125 28.102.313 35.518 2.167a7.555 7.555 0 0 0 1.825.226 7.504 7.504 0 0 0 7.27-5.683 7.5 7.5 0 0 0-5.457-9.096c-9.049-2.263-30.618-3.876-41.122-2.485zm-193.704 14.871a7.5 7.5 0 0 0 1.966-14.871c-10.504-1.389-32.072.224-41.122 2.485a7.5 7.5 0 0 0 3.638 14.553c7.417-1.855 27.038-3.289 35.518-2.167zm320.313-48.512a21.4 21.4 0 0 0 13.906-8.858 21.405 21.405 0 0 0 3.569-16.099l-4.011-22.746c18.911-12.104 29.156-34.871 25.206-57.272-5.391-30.577-34.653-51.07-65.234-45.677-12.947 2.283-24.376 8.998-32.672 18.514-32.814-2.466-64.823 8.383-89.083 30.165-23.137-8.245-48.253-12.584-74.159-12.584-25.877 0-51.014 4.384-74.127 12.613-25.571-22.985-59.649-33.793-94.268-29.715a28.965 28.965 0 0 0-24.367 20.445c-.038.127-.074.266-.112.394-15.501.82-30.42 7.92-40.771 20.254a21.605 21.605 0 0 0-5.009 15.877 21.611 21.611 0 0 0 7.686 14.77c9.189 7.708 22.935 6.507 30.642-2.678a13.406 13.406 0 0 1 2.894-2.568 117.19 117.19 0 0 0 4.89 24.537 13.516 13.516 0 0 1-2.036-.552 21.607 21.607 0 0 0-16.632.726 21.61 21.61 0 0 0-11.247 12.274l-14.007 38.484a21.61 21.61 0 0 0 .726 16.633 21.565 21.565 0 0 0 9.272 9.863 20.543 20.543 0 0 0-11.574 1.74 20.555 20.555 0 0 0-10.7 11.677c-1.891 5.194-1.645 10.813.691 15.823s6.483 8.81 11.678 10.7a20.696 20.696 0 0 0 7.09 1.259c2.981 0 5.951-.652 8.733-1.95a20.557 20.557 0 0 0 10.701-11.677 20.556 20.556 0 0 0-.691-15.823 20.513 20.513 0 0 0-8.662-9.298c1.06.159 2.126.255 3.191.255 3.133 0 6.255-.686 9.179-2.049a21.61 21.61 0 0 0 11.247-12.274l8.042-22.097a56.135 56.135 0 0 0 5.088-.469c-4.143 13.098-6.245 26.609-6.245 40.336 0 33.814 12.568 61.816 37.355 83.229 12.114 10.464 26.88 19.089 44.118 25.842a104.78 104.78 0 0 0-.79 2.128c-21.435 8.634-41 8.362-59.716-.821-15.136-7.423-33.491-1.152-40.917 13.982-3.598 7.331-4.125 15.625-1.484 23.354 2.641 7.728 8.133 13.966 15.465 17.563 17.978 8.82 36.997 13.293 56.528 13.293 9.506 0 19.196-1.098 28.897-3.232 3.446 10.844 8.695 20.968 15.424 30.072-7.973 8.514-19.442 16.722-33.635 15.909-14.025-.807-26.561-10.543-29.808-23.152a21.775 21.775 0 0 0-10.084-13.411 21.778 21.778 0 0 0-16.613-2.353c-11.706 3.016-18.777 14.992-15.763 26.696 7.999 31.065 36.681 54.091 69.759 55.993a73.96 73.96 0 0 0 4.155.117c13.602 0 38.869-3.887 62.625-28.313.896 14.51.479 29.93-1.279 46.911-1.736 16.77 10.494 31.825 27.27 33.563 1.061.108 2.127.164 3.171.164a30.484 30.484 0 0 0 30.384-27.429c1.403-13.546 2.071-26.251 2.05-38.609.528.007 1.055.019 1.585.019 3.361 0 6.687-.145 9.975-.413.035 10.329-.531 21.1-1.732 32.705-1.736 16.77 10.494 31.825 27.27 33.563 1.061.108 2.127.164 3.171.164a30.493 30.493 0 0 0 28.141-18.673 7.5 7.5 0 0 0-13.818-5.836 15.524 15.524 0 0 1-15.955 9.424c-8.543-.885-14.773-8.554-13.889-17.097 1.339-12.929 1.925-24.905 1.797-36.416a118.119 118.119 0 0 0 30.836-11.084c.388 8.184.442 16.626.143 25.233a7.5 7.5 0 0 0 7.501 7.761 7.5 7.5 0 0 0 7.491-7.239c.416-11.958.192-23.64-.66-34.795 23.951-17.576 40.195-43.911 43.164-73.787 21.704-6.912 42.1-21.282 54.136-38.384 14.047-19.956 17.264-43.063 9.219-65.427 7.865-15.216 11.91-32.395 11.91-51.214 0-18.35-3.727-36.206-10.872-52.976 7.321-10.924 12.191-21.845 15.307-32.332l4.387 24.878a21.404 21.404 0 0 0 8.859 13.907c3.663 2.564 7.931 3.901 12.311 3.901a21.582 21.582 0 0 0 3.787-.331zM137.306 355.21c-8.563 1.868-17.093 2.827-25.439 2.827-17.221 0-34.017-3.956-49.921-11.76a15.472 15.472 0 0 1-7.878-8.946 15.47 15.47 0 0 1 .756-11.896c3.783-7.71 13.135-10.903 20.843-7.123 19.729 9.679 40.047 11.287 61.754 4.838a100.429 100.429 0 0 0-1.348 16.433 99.951 99.951 0 0 0 1.233 15.627zM403.992 34.023a55.845 55.845 0 0 0-3.757 12.51 21.752 21.752 0 0 0-.326 4.29c-11.913 5.281-22.784 12.094-32.44 20.328-8.689-5.786-17.904-10.881-27.549-15.252 18.28-14.182 40.745-21.854 64.072-21.876zm-320.627.727c13.655-1.608 46.672-2.347 76.758 21.154a194.567 194.567 0 0 0-27.576 15.251c-20.009-17.054-42.183-25.328-59.758-29.326a13.972 13.972 0 0 1 10.576-7.079zm36.652 45.517a177.762 177.762 0 0 0-4.575 3.752 57.74 57.74 0 0 0-3.278-9.499 114.73 114.73 0 0 1 7.853 5.747zM26.062 210.755a5.66 5.66 0 0 1-2.944 3.214 5.652 5.652 0 0 1-4.354.189 5.658 5.658 0 0 1-3.213-2.944 5.654 5.654 0 0 1-.19-4.353 5.657 5.657 0 0 1 2.944-3.214 5.674 5.674 0 0 1 4.354-.189c1.429.52 2.57 1.565 3.213 2.944s.711 2.924.19 4.353zm31.584-71.166a7.509 7.509 0 0 0-7.473 4.923l-9.847 27.054a6.71 6.71 0 0 1-3.491 3.811 6.715 6.715 0 0 1-5.162.225h-.001a6.704 6.704 0 0 1-3.809-3.49 6.706 6.706 0 0 1-.225-5.162l14.007-38.484a6.71 6.71 0 0 1 3.491-3.811 6.728 6.728 0 0 1 2.849-.636c.779 0 1.56.137 2.313.411 7.154 2.603 14.9 2.262 21.813-.961 6.914-3.225 12.154-8.939 14.757-16.093 2.604-7.153 2.263-14.899-.961-21.813a28.375 28.375 0 0 0-26.132-16.448c-.064-.002-.126-.01-.19-.01h-.074c-.05.001-.099.008-.149.009-8.03.208-15.819 3.782-21.17 10.157a6.759 6.759 0 0 1-9.512.83 6.707 6.707 0 0 1-2.385-4.583 6.707 6.707 0 0 1 1.555-4.929c8.662-10.32 21.663-15.67 34.707-14.914l.064.004a41.77 41.77 0 0 1 11.813 2.439c10.531 3.833 18.947 11.556 23.699 21.745 2.949 6.324 4.259 13.119 3.915 19.881v.014a42.017 42.017 0 0 1-2.49 12.236c-6.294 17.291-23.526 28.661-41.912 27.595zm10.003-53.158a13.462 13.462 0 0 1 4.664 5.471 13.436 13.436 0 0 1 .46 10.343 13.565 13.565 0 0 1-1.414 2.793 102.13 102.13 0 0 1-3.71-18.607zm56.55 358.245c-1.096 0-2.21-.031-3.301-.093-26.632-1.532-49.696-19.936-56.086-44.758a6.931 6.931 0 0 1 4.978-8.431 6.887 6.887 0 0 1 5.244.743 6.875 6.875 0 0 1 3.185 4.235c4.829 18.755 23.112 33.217 43.469 34.387 15.886.925 31.055-5.761 44.289-19.404a111.905 111.905 0 0 0 10.335 9.3c-20.037 20.725-40.918 24.021-52.113 24.021zm107.252 38.351c-.879 8.498-8.333 14.777-17.096 13.889-8.543-.885-14.773-8.554-13.889-17.097 1.619-15.632 2.157-30.054 1.624-43.719a118.995 118.995 0 0 0 31.332 8.751c.064 12.186-.58 24.739-1.971 38.176zm173.858-180.551c-9.184 13.049-24.853 24.578-41.559 30.994a99.309 99.309 0 0 0-6.529-29.958c8.9-3.488 17.172-7.473 24.736-11.955 13.612-8.065 24.861-17.692 33.662-28.691 1.769 13.728-1.717 27.403-10.31 39.61zm6.831-61.028a6.82 6.82 0 0 0-.199.354c-8.247 14.557-20.804 26.88-37.631 36.85-8.801 5.214-18.677 9.71-29.501 13.472-.077.026-.153.05-.229.079-26.411 9.142-58.48 13.902-94.574 13.902a385.33 385.33 0 0 1-22.193-.63c-4.126-.26-7.682 2.918-7.921 7.054a7.499 7.499 0 0 0 7.053 7.921c7.499.435 15.258.655 23.061.655 34.871 0 66.332-4.313 93.046-12.628a84.627 84.627 0 0 1 5.886 31.107c0 1.268-.036 2.527-.091 3.782l-.003.069c-2.193 48.618-45.684 87.548-98.838 87.548-54.551 0-98.932-41.002-98.932-91.399 0-8.856 1.345-17.509 4.009-25.849.049-.142.101-.284.142-.428a85.266 85.266 0 0 1 1.723-4.798c10.513 3.262 21.811 5.917 33.876 7.946a7.503 7.503 0 0 0 8.64-6.153 7.501 7.501 0 0 0-6.152-8.641c-13.565-2.282-26.052-5.376-37.422-9.264a7.539 7.539 0 0 0-1.188-.426c-18.461-6.449-33.944-15.009-46.235-25.626-21.34-18.434-32.161-42.617-32.161-71.877 0-15.743 3.112-31.182 9.243-45.936 12.741-6.415 23.037-17.487 28.103-31.407a57.205 57.205 0 0 0 3.19-14.086 162.924 162.924 0 0 1 19.261-16.131c.086-.057.17-.118.255-.179 12.136-8.645 25.577-15.809 39.952-21.341.302-.09.597-.206.887-.336 22.505-8.534 47.251-13.096 72.808-13.096 95.778 0 173.699 63.931 173.699 142.512.001 17.581-3.879 33.266-11.564 46.98zm7.772-115.728c-9.188-15.803-21.608-30.365-36.996-43.104a181.477 181.477 0 0 0-2.896-2.34c7.71-6.162 16.232-11.371 25.496-15.525a21.377 21.377 0 0 0 12.192 6.743 21.45 21.45 0 0 0 14.993-2.864c1.049 15.916-1.141 36.265-12.789 57.09zm28.017-51.684a124.871 124.871 0 0 0-2.992-25.393 13.259 13.259 0 0 1 8.466-5.351c3.473-.61 6.978.169 9.876 2.199a13.129 13.129 0 0 1 5.443 8.528c.612 3.47-.168 6.978-2.198 9.876s-5.059 4.832-8.529 5.444a21.402 21.402 0 0 0-10.066 4.697zm17.062 61.621a6.504 6.504 0 0 1-2.691-4.225l-7.008-39.741a6.496 6.496 0 0 1 1.084-4.889 6.498 6.498 0 0 1 4.223-2.691c7.416-1.308 13.884-5.432 18.211-11.612 4.328-6.181 5.991-13.669 4.684-21.084-1.308-7.416-5.432-13.884-11.612-18.212-4.805-3.364-10.399-5.118-16.136-5.118a28.6 28.6 0 0 0-4.948.435c-9.074 1.599-16.648 7.548-20.53 15.599a27.993 27.993 0 0 0-2.374 7.294c-.627 3.552-4.028 5.932-7.581 5.307a6.503 6.503 0 0 1-4.223-2.691 6.634 6.634 0 0 1-.642-1.145c-.025-.071-.044-.142-.071-.213-.021-.052-.047-.101-.069-.152a6.488 6.488 0 0 1-.301-3.38c3.006-17.036 16.476-30.501 33.519-33.507 22.433-3.955 43.902 11.077 47.857 33.511 3.141 17.81-5.952 35.936-22.11 44.08a7.5 7.5 0 0 0-4.011 8l4.926 27.938a6.501 6.501 0 0 1-1.083 4.89 6.502 6.502 0 0 1-4.224 2.69 6.507 6.507 0 0 1-4.89-1.084zm23.674 20.571c-4.486-3.141-9.925-4.351-15.318-3.396a20.358 20.358 0 0 0-13.234 8.43 20.365 20.365 0 0 0-3.396 15.319 20.363 20.363 0 0 0 8.431 13.233c3.486 2.44 7.547 3.713 11.715 3.713a20.76 20.76 0 0 0 3.604-.317c11.132-1.963 18.592-12.616 16.629-23.749a20.373 20.373 0 0 0-8.431-13.233zm-10.804 22.211c-2.992.52-5.846-1.476-6.372-4.462a5.466 5.466 0 0 1 .911-4.111 5.471 5.471 0 0 1 3.551-2.262 5.51 5.51 0 0 1 6.373 4.463 5.51 5.51 0 0 1-4.463 6.372zm-140.435-39.554a7.5 7.5 0 0 0-7.5-7.5H314.01c-4.142 0-7.5 3.357-7.5 7.5s3.358 7.5 7.5 7.5h15.916a7.5 7.5 0 0 0 7.5-7.5zm-179.535 70.904c-10.241 2.719-29.566 12.427-37.073 17.967a7.5 7.5 0 0 0 8.908 12.068c6.151-4.54 23.747-13.343 32.013-15.537a7.502 7.502 0 0 0 5.325-9.174 7.502 7.502 0 0 0-9.173-5.324zm161.91-56.976a7.5 7.5 0 0 0-7.5 7.5v11.586c0 4.143 3.358 7.5 7.5 7.5s7.5-3.357 7.5-7.5v-11.586a7.5 7.5 0 0 0-7.5-7.5zm-139.59 0a7.5 7.5 0 0 0-7.5 7.5v11.586c0 4.143 3.358 7.5 7.5 7.5s7.5-3.357 7.5-7.5v-11.586a7.5 7.5 0 0 0-7.5-7.5zm69.795 9.865c-17.94 0-32.535 14.595-32.535 32.535v5.106c0 7.953 6.471 14.424 14.424 14.424h36.223c7.953 0 14.423-6.471 14.423-14.424v-5.106c0-17.94-14.595-32.535-32.535-32.535zm17.535 37.065h-35.07v-4.53c0-9.669 7.866-17.535 17.535-17.535 9.668 0 17.535 7.866 17.535 17.535v4.53z"/></svg>