<svg width="320" height="904" fill="none" xmlns="http://www.w3.org/2000/svg">
  <g clip-path="url(#clip0)" fill="#2A8086">
    <path d="M164.9 20H-15.3C-38.3 20-57 38.7-57 61.7v726c0 17 10.4 32.3 26.2 38.6L83.7 872c4.9 2 10.1 3 15.4 3h186c9 0 17.8-2.9 25-8.3l231.5-172.5a41.7 41.7 0 0015.5-43.7l-128-504a41.7 41.7 0 00-40.4-31.4h-75.2c-9.4 0-18.5-3.2-26-9l-96.7-77c-7.3-5.9-16.5-9.1-26-9.1z"/>
    <path opacity=".3" d="M168.5 298H-15.3c-23 0-41.7 18.7-41.7 41.7v490.9c0 18.6 12.4 35 30.3 40l112.2 31.8c3.7 1 7.6 1.6 11.4 1.6h191.7c6.8 0 13.5-1.7 19.5-4.8l224-118.3a41.7 41.7 0 0019.7-51L431 393a41.7 41.7 0 00-39.2-27.6h-81.9c-7.2 0-14.2-1.9-20.5-5.4L189 303.4a41.7 41.7 0 00-20.5-5.4z"/>
    <path opacity=".3" d="M166.6-.4H-15c-23 0-41.7 18.7-41.7 41.7v542.4A41.7 41.7 0 00-28.8 623l113.5 40.1c4.5 1.6 9.2 2.4 13.9 2.4h194.1c4.3 0 8.6-.7 12.7-2l220.2-70.3A41.7 41.7 0 00553 542L430 113.9a41.7 41.7 0 00-40-30.2h-77.6c-8.6 0-17-2.6-24-7.6L190.5 7.2c-7-4.9-15.4-7.6-24-7.6z"/>
  </g>
  <defs>
    <clipPath id="clip0">
      <path fill="#fff" d="M0 0h320v904H0z"/>
    </clipPath>
  </defs>
</svg>