<svg width="1920" height="564" fill="none" xmlns="http://www.w3.org/2000/svg">
    <path d="M1841.6 272.5l98.7 44.2a40 40 0 0123.7 36.5v109.6c0 22.1-18 40-40 40h-181.6a40 40 0 00-18.7 4.7l-98.4 51.9a40 40 0 01-18.7 4.6h-295a40 40 0 01-24.4-8.3l-57.7-44.5a40 40 0 00-24.4-8.4H990a40 40 0 00-15.7 3.2l-127 53.8a40 40 0 01-15.7 3.2H655.4a40 40 0 01-26.2-9.8l-47-40.6a40 40 0 00-26.1-9.8H187.5a40 40 0 01-23.8-7.8L28 394.4a40 40 0 00-23.8-7.8H-10c-22 0-40-18-40-40V246.3c0-22.1 18-40 40-40h8.1a40 40 0 0031.2-15L143 49.5a40 40 0 0131.2-15H591a40 40 0 0139.7 35.9l6 57.3a40 40 0 0039.8 35.9h338.9a40 40 0 0021.4-6.3L1209 48.1a40 40 0 0121.4-6.2h477.4a40 40 0 0137 24.7l76.2 184.7a40 40 0 0020.7 21.2z" fill="#2A8086"/>
    <path d="M1864.8 240l98.7 44.6a40 40 0 0123.5 36.5v111.2c0 22.1-18 40-40 40h-181a40 40 0 00-18.9 4.7l-98 52.3a40 40 0 01-18.9 4.7h-294.1c-9 0-17.6-3-24.6-8.5l-57.5-44.7a40 40 0 00-24.5-8.5H1015a40 40 0 00-15.8 3.2l-126.7 54.3A40 40 0 01857 533H681a40 40 0 01-26.3-10L608 482.3a40 40 0 00-26.4-9.9H214.2a40 40 0 01-24-8L54.8 363a40 40 0 00-24-8H17c-22 0-40-17.8-40-40V213.3c0-22 18-40 40-40h7.8a40 40 0 0031.4-15.1L169.6 15A40 40 0 01200.9 0h415.7a40 40 0 0139.8 35.9l6 58.4a40 40 0 0039.8 35.8h293.2a40 40 0 0021.2-6L1193.3 14a40 40 0 0121.2-6h516.7a40 40 0 0137 24.8l76.1 186a40 40 0 0020.5 21.2z" fill="#2A808D" fill-opacity=".3"/>
</svg>