<svg width="640" height="515" fill="none" xmlns="http://www.w3.org/2000/svg">
  <path d="M31.3 129.3l-120.6 117a41.7 41.7 0 00-12.7 29.9v123.6c0 23 18.7 41.7 41.7 41.7H914.2c4.8 0 9.5.8 14 2.3l134.5 47.6c4.5 1.5 9.1 2.3 13.9 2.3h194.1c4.3 0 8.6-.6 12.7-2l252.6-80.6c4-1.3 8.4-2 12.7-2h369.6c14.4 0 27.8-7.4 35.4-19.6l36.7-59a41.7 41.7 0 006.3-22V174c0-23-18.6-41.7-41.7-41.7h-14.7c-8.9 0-17.6-2.9-24.8-8.2L1775 20.2a41.7 41.7 0 00-27-8.1l-189.5 10.6a41.7 41.7 0 00-27.7 12.7l-119.2 123.8a41.7 41.7 0 01-30 12.8h-91.2c-8.6 0-17-2.7-24-7.6l-97.9-68.9c-7-5-15.4-7.6-24-7.6h-211c-7.9 0-15.7 2.3-22.4 6.6l-130.3 83.1a41.7 41.7 0 01-46-.8L659.6 125c-7-4.8-15.2-7.4-23.7-7.4H60.3a41.7 41.7 0 00-29 11.7z" fill="#2A8086"/>
  <path d="M31.3 150.6L-89.3 267.5a41.7 41.7 0 00-12.7 30V421c0 23 18.7 41.7 41.7 41.7H914.2c4.8 0 9.5.8 14 2.4l134.5 47.5c4.5 1.6 9.1 2.4 13.9 2.4h194.1c4.3 0 8.6-.7 12.7-2l252.6-80.6c4-1.3 8.4-2 12.7-2H1919.9c14.7 0 28.3-7.7 35.8-20.3l35.1-58.6c3.9-6.5 6-13.9 6-21.4V195.4c0-23-18.7-41.7-41.8-41.7h-14.7c-8.9 0-17.6-2.9-24.8-8.2L1775 41.5a41.7 41.7 0 00-27-8.1L1558.4 44a41.7 41.7 0 00-27.7 12.7l-119.2 123.8a41.7 41.7 0 01-30 12.7h-91.2c-8.6 0-17-2.6-24-7.6l-97.9-68.8c-7-5-15.4-7.6-24-7.6H936.4c-9.6 0-19 3.3-26.4 9.4L764 238.2a41.7 41.7 0 01-26.5 9.4H550.8c-9 0-17.7-2.9-25-8.3l-123.2-92.2c-7.2-5.3-16-8.3-25-8.3H60.3a41.7 41.7 0 00-29 11.8z" fill="#2A808D" fill-opacity=".3"/>
  <path d="M31.6 109.4L-88.2 217.1a41.7 41.7 0 00-13.8 31v109.6c0 23 18.7 41.7 41.7 41.7H4c5.4 0 10.8-1 15.8-3l197.8-81.1c5-2 10.4-3.1 15.8-3.1h312.8c9 0 18 3 25.2 8.5l92 70.2a41.7 41.7 0 0025.2 8.5H910c7.5 0 14.8 2 21.2 5.8l128.5 75.7a41.7 41.7 0 0021.1 5.7H1269c5.4 0 10.8-1 15.9-3.1l114.4-47.4 137.8-35.4c3.4-.8 6.8-1.3 10.3-1.3H1750c8.4 0 16.7-2.5 23.6-7.3l142.3-97.8c7-4.8 15.2-7.4 23.6-7.4h15.5c23 0 41.7-18.6 41.7-41.6v-91.1c0-23-18.6-41.7-41.7-41.7h-15.5c-8.4 0-16.6-2.6-23.6-7.4l-141.3-97a41.7 41.7 0 00-25.8-7.4l-191 10c-10.1.5-19.6 4.6-26.8 11.6l-119.6 115.2a41.7 41.7 0 01-29 11.7h-92.8c-8 0-16-2.4-22.8-6.8L1168.1 78a41.7 41.7 0 00-22.8-6.7H932.6c-7.4 0-14.6 1.9-20.9 5.6l-140.9 81.5c-14 8-31.3 7.4-44.5-1.8l-73.1-50.4c-7-4.8-15.2-7.4-23.7-7.4h-570a41.7 41.7 0 00-28 10.7z" fill="#2A808D" fill-opacity=".3"/>
</svg>