<svg width="992" height="310" fill="none" xmlns="http://www.w3.org/2000/svg">
  <g clip-path="url(#clip0)">
    <path d="M0 0h992v310H0z"/>
    <path d="M-85 57.3l-115.8 112.2a40 40 0 00-12.2 28.7v118.6c0 22.1 18 40 40 40h935.3c4.5 0 9 .8 13.2 2.3l129.2 45.6A40 40 0 00918 407h186.3a40 40 0 0012.2-1.9l242.4-77.4c3.9-1.2 8-1.9 12.1-1.9h354.8a40 40 0 0034-18.8l35.2-56.7a40 40 0 006-21.1v-129c0-22-18-40-40-40h-14.1a40 40 0 01-23.8-7.8l-134.8-99.8a40 40 0 00-26-7.8L1380.4-45a40 40 0 00-26.6 12.2L1239.5 86a40 40 0 01-28.8 12.2h-87.5a40 40 0 01-23-7.3l-94-66a40 40 0 00-23-7.3H783.4a40 40 0 00-25.4 9L618.1 141.3a40 40 0 01-25.3 9.1H413.5a40 40 0 01-24-8L271.2 54a40 40 0 00-24-8H-57.1a40 40 0 00-27.9 11.3z" fill="#2A8086"/>
    <path d="M-84.7 35.1L-199 133.4a40 40 0 00-13.9 30.3v97.4c0 22 18 40 40 40h62.1c5 0 10-1 14.6-2.8L94 224a40 40 0 0114.6-2.8h301a40 40 0 0123.5 7.7l88.6 64.6a40 40 0 0023.6 7.7h213.3a40 40 0 0119.6 5.1L902 375.9a40 40 0 0019.6 5.1H1103c5 0 10-1 14.7-2.8l110.1-43.5 132.4-32.5a40 40 0 019.5-1.1h195.1a40 40 0 0022-6.6l137-90a40 40 0 0122-6.5h15.3c22 0 40-18 40-40V78c0-22-18-40-40-40h-15.3a40 40 0 01-22-6.5l-136.1-89.3a40 40 0 00-24-6.6l-184.3 9.2a40 40 0 00-25.1 10.5l-115 105.9a40 40 0 01-27.1 10.5h-90a40 40 0 01-21.3-6l-95.2-59.4a40 40 0 00-21.2-6H782.1a40 40 0 00-23.5 7.6l-141 102.5A40 40 0 01594 118H412.2a40 40 0 01-22-6.6L270.5 32a40 40 0 00-22-6.6H-58.7a40 40 0 00-26 9.6z" fill="#2A808D" fill-opacity=".3"/>
  </g>
  <defs>
    <clipPath id="clip0">
      <path d="M0 0h992v310H0z"/>
    </clipPath>
  </defs>
</svg>
