<svg width="1920" height="521" fill="none" xmlns="http://www.w3.org/2000/svg">
    <g clip-path="sceneOneClip">
        <path d="M106.95 173.3L-8.83 285.48A40 40 0 00-21 314.2v118.64a40 40 0 0040 40h935.22a40 40 0 0113.32 2.28l129.15 45.6A40 40 0 001110 523h186.33c4.13 0 8.23-.64 12.16-1.9l242.37-77.37a40.08 40.08 0 0112.17-1.89H1919.32c14.07 0 27.1-7.4 34.32-19.47l33.69-56.3a40.02 40.02 0 005.67-20.54V216.26a40 40 0 00-40-40h-14.1a40.03 40.03 0 01-23.81-7.85L1780.28 68.6a39.99 39.99 0 00-26.04-7.8L1572.48 71a40.02 40.02 0 00-26.58 12.19l-114.39 118.79a40 40 0 01-28.81 12.25h-87.48a40.01 40.01 0 01-23.02-7.28l-93.95-66.1a39.95 39.95 0 00-23.01-7.29H975.38a40 40 0 00-25.37 9.07l-139.9 114.73a40 40 0 01-25.36 9.07H605.48a40 40 0 01-23.96-7.97L463.24 170a40 40 0 00-23.95-7.97h-304.5a40 40 0 00-27.84 11.28z" fill="#2A808D" fill-opacity=".3"/>
        <path d="M106.95 143.3L-8.83 255.48A40 40 0 00-21 284.2v118.64a40 40 0 0040 40h935.22a40 40 0 0113.32 2.28l129.15 45.6A40 40 0 001110 493h186.33c4.13 0 8.23-.64 12.16-1.9l242.37-77.37a40.08 40.08 0 0112.17-1.89h354.74a40 40 0 0033.97-18.88l35.23-56.68a40 40 0 006.03-21.12v-128.9a40 40 0 00-40-40h-14.1a40.03 40.03 0 01-23.81-7.85L1780.28 38.6a39.99 39.99 0 00-26.04-7.8L1572.48 41a40.02 40.02 0 00-26.58 12.19l-114.39 118.79a40 40 0 01-28.81 12.25h-87.48a40.01 40.01 0 01-23.02-7.28l-93.95-66.1a39.95 39.95 0 00-23.01-7.29H975.38a40 40 0 00-25.37 9.07l-139.9 114.73a40 40 0 01-25.36 9.07H605.48a40 40 0 01-23.96-7.97L463.24 140a40 40 0 00-23.95-7.97h-304.5a40 40 0 00-27.84 11.28z" fill="#2A8086"/>
        <path d="M107.18 104.98L-7.75 208.37A40 40 0 00-21 238.1v105.2a40 40 0 0040 40h61.8c5.2 0 10.35-1.02 15.16-3l189.82-77.73a40 40 0 0115.16-2.99h300.15a40 40 0 0124.26 8.2l88.18 67.3a40 40 0 0024.27 8.21h212.37a40 40 0 0120.3 5.54l123.28 72.63a40.04 40.04 0 0020.31 5.54h180.55c5.25 0 10.44-1.03 15.29-3.04l109.81-45.42 132.19-33.99a40 40 0 019.96-1.26h194.39c8.09 0 15.99-2.45 22.65-7.03l136.56-93.87a40.01 40.01 0 0122.66-7.04H1953a40 40 0 0040-40v-87.41a40 40 0 00-40-40h-14.88a40.01 40.01 0 01-22.66-7.04L1779.85 7.7A39.98 39.98 0 001755.12.7l-183.39 9.54a40 40 0 00-25.69 11.15l-114.71 110.59a40.01 40.01 0 01-27.76 11.2h-89.11a39.97 39.97 0 01-21.87-6.5l-94.72-61.88a40.03 40.03 0 00-21.88-6.51H974.57a40 40 0 00-24.23 8.17L809.79 183.47a40 40 0 01-24.23 8.18H604.7a40 40 0 01-22.82-7.15l-119-82.63a40 40 0 00-22.82-7.15H133.93a40 40 0 00-26.75 10.26z" fill="#2A808D" fill-opacity=".3"/>
    </g>
    <defs>
        <clipPath id="sceneOneClip">
            <path fill="#fff" d="M0 0h1920v521H0z"/>
        </clipPath>
    </defs>
</svg>