<svg xmlns="http://www.w3.org/2000/svg" viewBox="0 0 512 512" style="enable-background:new 0 0 512 512" xml:space="preserve"><path style="fill:#eda751" d="M103.55 446.609c-32.502 0-45.69-12.859-56.313-23.215-7.49-7.301-13.406-13.069-27.428-15.63-8.148-1.489-13.546-9.3-12.057-17.447 1.488-8.148 9.301-13.549 17.446-12.058 23.02 4.206 34.084 14.993 42.974 23.659 9.05 8.822 15.079 14.7 35.264 14.7.327 0 .657-.002.991-.005 21.2-.196 25.413-8.074 34.642-25.335 6.398-11.966 14.361-26.857 30.244-39.913 6.398-5.258 15.848-4.336 21.106 2.064 5.259 6.398 4.335 15.848-2.063 21.106-11.286 9.275-17.159 20.26-22.839 30.884-10.232 19.135-21.828 40.825-60.813 41.183-.386.004-.773.007-1.154.007z"/><path style="fill:#eda751" d="M103.55 446.609c-32.502 0-45.69-12.859-56.313-23.215-7.49-7.301-13.406-13.069-27.428-15.63-8.148-1.489-13.546-9.3-12.057-17.447 1.488-8.148 9.301-13.549 17.446-12.058 23.02 4.206 34.084 14.993 42.974 23.659 9.05 8.822 15.079 14.7 35.264 14.7.327 0 .657-.002.991-.005 21.2-.196 25.413-8.074 34.642-25.335 6.398-11.966 14.361-26.857 30.244-39.913 6.398-5.258 15.848-4.336 21.106 2.064 5.259 6.398 4.335 15.848-2.063 21.106-11.286 9.275-17.159 20.26-22.839 30.884-10.232 19.135-21.828 40.825-60.813 41.183-.386.004-.773.007-1.154.007z"/><path style="fill:#fcd79d" d="M7.752 390.317c-1.489 8.147 3.909 15.958 12.057 17.447 3.71.678 6.842 1.586 9.596 2.681 6.37-8.203 8.75-20.749 8.164-28.965-3.705-1.286-7.799-2.384-12.371-3.22-8.145-1.492-15.958 3.909-17.446 12.057z"/><path style="fill:#eda751" d="M193.661 504.5c-.966 0-1.941-.059-2.925-.178-13.154-1.598-22.521-13.559-20.923-26.712 3.51-28.876 2.085-54.922-3.631-66.352-5.926-11.853-1.122-26.264 10.73-32.19 11.855-5.925 26.264-1.121 32.19 10.73 13.805 27.611 11.155 70.496 8.347 93.603-1.479 12.169-11.83 21.099-23.788 21.099zM275.52 504.5c-.966 0-1.942-.059-2.925-.178-13.154-1.599-22.521-13.559-20.922-26.712 3.511-28.876 2.085-54.921-3.631-66.352-5.926-11.853-1.122-26.264 10.73-32.19 11.854-5.925 26.264-1.121 32.19 10.73 13.806 27.612 11.155 70.497 8.346 93.603-1.479 12.169-11.83 21.099-23.788 21.099zM100.261 362.476c-28.212 0-58.159-13.673-79.103-48.455-6.836-11.353-3.175-26.096 8.177-32.932 11.352-6.836 26.095-3.175 32.931 8.177 3.869 6.425 24.809 37.602 57.231 20.441 11.714-6.196 26.232-1.73 32.43 9.982 6.199 11.712 1.73 26.23-9.981 32.43-12.355 6.539-26.779 10.357-41.685 10.357zM360.241 380.253c-2.532 0-4.91-.167-7.11-.44-23.286-2.891-44.285-19.312-60.729-47.484-6.68-11.445-2.818-26.137 8.627-32.817 11.446-6.676 26.137-2.818 32.816 8.627 9.708 16.633 19.383 23.331 25.2 24.054 4.379.53 9.559-2.193 15.384-8.134 9.275-9.464 24.467-9.614 33.929-.337 9.463 9.278 9.613 24.467.337 33.93-17.635 17.99-35.145 22.601-48.454 22.601z"/><path style="opacity:.2;fill:#a35f00;enable-background:new" d="M359.046 332.194c-5.817-.723-15.493-7.422-25.2-24.054-6.679-11.445-21.371-15.303-32.816-8.627-11.445 6.68-15.307 21.372-8.627 32.817 15.812 27.088 35.835 43.305 58.054 47.083 6.27-14.313 9.738-29.976 9.738-46.389 0-.259-.009-.516-.01-.774a9.119 9.119 0 0 1-1.139-.056zM301.22 435.338c-.903-16.127-3.752-32.529-10.258-45.541-5.926-11.851-20.336-16.655-32.19-10.73-11.852 5.926-16.656 20.338-10.73 32.19 4.044 8.087 5.937 23.489 5.457 42.031 17.344-2.971 33.495-9.188 47.721-17.95zM176.912 379.066c-11.852 5.926-16.656 20.338-10.73 32.19 3.205 6.41 5.061 17.418 5.454 30.941 14.629 6.949 30.833 11.378 47.965 12.672.584-21.57-1.313-46.701-10.499-65.072-5.925-11.852-20.336-16.655-32.19-10.731z"/><path style="opacity:.2;fill:#a35f00;enable-background:new" d="M169.314 351.365c-15.883 13.056-23.846 27.947-30.244 39.913-4.033 7.544-7.109 13.295-11.063 17.397a127.641 127.641 0 0 0 21.882 20.514c6.749-7.186 11.315-15.702 15.629-23.768 5.68-10.624 11.554-21.608 22.839-30.884 6.398-5.259 7.322-14.709 2.063-21.106-5.259-6.403-14.708-7.324-21.106-2.066zM119.496 309.707c-6.477 3.428-12.494 4.923-18.01 5.076a115.428 115.428 0 0 0-1.449 18.241c0 10.122 1.325 19.958 3.804 29.369 13.629-.557 26.742-4.261 38.104-10.274 11.712-6.2 16.18-20.718 9.981-32.43-6.197-11.712-20.716-16.179-32.43-9.982z"/><ellipse style="fill:#fcd690" cx="230.113" cy="333.021" rx="110.667" ry="102.827"/><path style="opacity:.15;fill:#c17a00;enable-background:new" d="M213.956 434.761c-50.571-33.201-34.898-101.249-26.313-131.009v-65.708c-40.038 15.478-68.191 52.172-68.191 94.98-.001 51.691 41.046 94.468 94.504 101.737z"/><path style="fill:#eda751" d="M162.769 154.714c21.654-18.171 36.112-48.673 5.569-93.765C137.553 15.503 91.719 4.11 55.936 8.326a22.377 22.377 0 0 0-18.78 15.758c-10.365 34.507-7.105 81.624 32.306 119.833 39.102 37.909 71.653 28.968 93.307 10.797z"/><path style="fill:#ff91ab" d="M35.716 29.363c-8.498 33.928-3.693 78.255 33.746 114.552 33.893 32.859 62.856 30.511 84.076 17.473C138.945 62.32 75.195 36.049 35.716 29.363z"/><path style="fill:#eda751" d="M297.462 154.714c-21.654-18.171-36.112-48.673-5.569-93.765 30.785-45.447 76.62-56.84 112.402-52.624a22.377 22.377 0 0 1 18.78 15.758c10.365 34.507 7.105 81.623-32.306 119.833-39.103 37.91-71.653 28.969-93.307 10.798z"/><path style="fill:#ff91ab" d="M424.514 29.363c8.498 33.928 3.693 78.255-33.746 114.552-33.892 32.859-62.856 30.511-84.076 17.473C321.286 62.32 385.036 36.049 424.514 29.363z"/><path style="fill:#ffdc9c" d="M418.52 182.138c0 86.144-84.352 123.874-188.404 123.874S41.711 268.282 41.711 182.138 126.063 26.161 230.115 26.161c104.054 0 188.405 69.835 188.405 155.977z"/><path style="opacity:.15;fill:#c17a00;enable-background:new" d="M129.517 50.244c-52.765 27.641-87.806 76.378-87.806 131.895 0 74.052 62.333 112.327 145.931 121.614C67.64 232.072 83.29 135.655 129.517 50.244z"/><g style="opacity:.2"><ellipse cx="137.666" cy="185.775" rx="34.109" ry="27.169"/><ellipse cx="322.571" cy="185.775" rx="34.109" ry="27.169"/></g><path style="fill:#78cfc0" d="M493.335 365.627h-54.194c-6.163 0-11.158-4.996-11.158-11.158v-70.653a5.642 5.642 0 0 1 5.642-5.642h65.226a5.642 5.642 0 0 1 5.642 5.642v70.653c-.001 6.162-4.995 11.158-11.158 11.158z"/><path d="M484.315 262.578a7.5 7.5 0 0 0 7.428-8.6c-1.224-8.264.607-14.618 2.546-21.346 2.034-7.057 4.137-14.354 1.878-22.712-1.081-3.999-5.201-6.366-9.197-5.283a7.5 7.5 0 0 0-5.284 9.197c1.166 4.315-.148 8.873-1.811 14.646-2.082 7.223-4.673 16.212-2.971 27.696a7.504 7.504 0 0 0 7.411 6.402zm-34.601 0a7.5 7.5 0 0 0 7.428-8.601c-1.224-8.264.607-14.618 2.546-21.345 2.034-7.058 4.137-14.354 1.879-22.712a7.499 7.499 0 0 0-9.197-5.283 7.5 7.5 0 0 0-5.284 9.197c1.166 4.315-.148 8.873-1.811 14.645-2.082 7.224-4.672 16.213-2.971 27.698a7.502 7.502 0 0 0 7.41 6.401zm-85.45-45.587c-7.783-5.745-27.824-15.813-38.447-18.634a7.5 7.5 0 0 0-3.848 14.498c8.624 2.289 26.973 11.469 33.386 16.204a7.468 7.468 0 0 0 4.449 1.466 7.501 7.501 0 0 0 4.46-13.534zm-190.815-60.529c-2.326.77-5.71 1.333-9.062 1.671a7.461 7.461 0 0 0 .657-3.06v-12.047a7.466 7.466 0 0 0-2.037-5.128c3.78.314 7.796.922 10.442 1.798a7.483 7.483 0 0 0 2.356.382 7.5 7.5 0 0 0 2.355-14.622c-6.694-2.215-16.108-2.806-20.615-2.806-4.508 0-13.922.591-20.615 2.806a7.5 7.5 0 1 0 4.711 14.241c2.646-.876 6.662-1.483 10.442-1.798a7.466 7.466 0 0 0-2.037 5.128v12.047c0 1.091.238 2.125.657 3.06-3.352-.339-6.736-.902-9.061-1.671a7.5 7.5 0 1 0-4.713 14.241c6.693 2.216 16.109 2.807 20.616 2.807 4.508 0 13.924-.591 20.616-2.807a7.5 7.5 0 0 0 4.764-9.477 7.497 7.497 0 0 0-9.476-4.765zm325.403 114.213h-65.226c-7.246 0-13.142 5.896-13.142 13.142v3.92h-18.599c-9.827 0-17.822 7.995-17.822 17.822v4.707c-5.649 1.373-10.819 4.289-14.989 8.544-6.003 6.123-8.828 5.973-9.104 5.943-1.913-.238-7.096-2.929-13.535-11.248a103.211 103.211 0 0 0-5.232-18.154c9.346-3.647 18.026-7.82 25.956-12.519 38.506-22.814 58.859-57.634 58.859-100.692 0-19.098-3.89-37.681-11.349-55.13 20.72-30.965 26.422-69.004 15.586-105.084A29.821 29.821 0 0 0 405.171.879c-35.951-4.24-71.346 7.008-97.883 30.91-24.071-8.601-50.211-13.127-77.175-13.127s-53.104 4.527-77.175 13.127C126.405 7.886 91.013-3.36 55.058.878a29.822 29.822 0 0 0-25.085 21.048C19.137 58.005 24.84 96.046 45.559 127.01 38.1 144.458 34.21 163.041 34.21 182.14c0 35.099 13.055 64.156 38.802 86.367 12.625 10.891 28.02 19.86 46.001 26.873a104.197 104.197 0 0 0-2.591 7.488c-.144.073-.294.135-.436.211-25.787 13.648-42.722-10.082-47.297-17.682-4.34-7.206-11.226-12.292-19.39-14.319-8.164-2.027-16.629-.755-23.835 3.586-7.206 4.34-12.291 11.226-14.319 19.391-2.027 8.165-.753 16.63 3.586 23.835 20.226 33.588 50.601 52.086 85.529 52.086 5.966 0 11.952-.577 17.876-1.701 3.029 8.367 7.11 16.285 12.088 23.622-7.24 13.327-10.557 17.076-25.839 17.217l-.947.005c-17.134 0-21.441-4.2-30.029-12.57-9.112-8.884-21.59-21.049-46.859-25.665-5.913-1.087-11.891.202-16.835 3.621a22.35 22.35 0 0 0-9.34 14.466c-2.229 12.201 5.885 23.941 18.088 26.172 11.771 2.15 16.452 6.713 23.541 13.623 10.969 10.695 25.993 25.343 61.545 25.343l1.224-.006c31.389-.29 47.343-13.712 57.785-28.831 2.268 12.816 2.231 31.523-.189 51.433-2.095 17.239 10.225 32.968 27.466 35.063a31.95 31.95 0 0 0 3.826.232c15.887 0 29.313-11.907 31.233-27.695 1.253-10.31 2.545-25.172 2.256-40.983a127.039 127.039 0 0 0 18.841-.964c.301 10.393-.298 22.288-1.764 34.348-2.095 17.238 10.225 32.966 27.466 35.063 1.271.154 2.559.232 3.827.232 12.789 0 24.543-7.993 29.252-19.889a7.5 7.5 0 1 0-13.947-5.519c-2.71 6.847-9.917 11.196-17.326 10.286-9.028-1.098-15.481-9.335-14.383-18.362 1.69-13.9 2.292-27.22 1.786-38.966 11.461-2.891 22.236-7.353 32.044-13.127.975 8.908 1.316 18.726.984 29.375a7.499 7.499 0 0 0 7.501 7.733 7.5 7.5 0 0 0 7.492-7.267c.453-14.527-.259-27.745-2.109-39.383 11.776-9.404 21.555-20.923 28.653-33.926 5.449 2.141 11.052 3.594 16.742 4.301a65.65 65.65 0 0 0 8.032.496c13.435 0 33.675-4.311 53.812-24.851a31.32 31.32 0 0 0 6.431-9.599v1.165c0 10.288 8.37 18.658 18.658 18.658h54.194c10.288 0 18.658-8.37 18.658-18.658v-70.652c-.002-7.246-5.897-13.141-13.142-13.141zm-398.591 84.3c-29.461 0-55.273-15.919-72.679-44.824a16.387 16.387 0 0 1-1.878-12.483 16.388 16.388 0 0 1 7.499-10.155 16.394 16.394 0 0 1 12.483-1.878 16.39 16.39 0 0 1 10.155 7.5c10.92 18.134 31.682 34.583 56.865 27.382a104.722 104.722 0 0 0-.753 12.507c0 7.092.729 14.026 2.105 20.748a80.75 80.75 0 0 1-13.797 1.203zm306.52-243.722c-9.561-16.575-22.544-31.841-38.661-45.184a194.056 194.056 0 0 0-3.317-2.68c18.198-14.62 38.12-21.773 53.914-25.256 3.146 17.427 3.946 44.958-11.936 73.12zm-3.363-95.479c4.928.581 9.16 3.57 11.403 7.861-18.345 4.128-41.602 12.748-62.546 30.658-9.21-6.148-18.991-11.55-29.237-16.165 22.568-17.692 51.26-25.791 80.38-22.354zm-346.605 0c29.123-3.433 57.812 4.664 80.381 22.354-10.247 4.615-20.026 10.016-29.237 16.165-20.943-17.91-44.201-26.53-62.545-30.658a14.816 14.816 0 0 1 11.401-7.861zM41.515 38.133C57.308 41.616 77.23 48.77 95.429 63.388a190.354 190.354 0 0 0-3.318 2.681c-16.117 13.343-29.099 28.609-38.66 45.184-15.883-28.162-15.083-55.693-11.936-73.12zm63.133 400.97-1.099.006c-29.449 0-40.938-11.202-51.08-21.089-7.736-7.54-15.043-14.663-31.312-17.634-4.067-.743-6.771-4.655-6.028-8.722a7.444 7.444 0 0 1 3.113-4.821 7.452 7.452 0 0 1 5.607-1.206c20.77 3.795 30.501 13.281 39.09 21.654 9.645 9.4 17.262 16.826 40.496 16.826l1.061-.005c20.545-.19 28.582-7.621 35.758-19.527a115.407 115.407 0 0 0 11.066 10.584c-8.138 12.626-19.773 23.686-46.672 23.934zm105.356 43.391c-1.005 8.27-8.032 14.506-16.344 14.506-.667 0-1.347-.041-2.02-.123-9.028-1.097-15.48-9.335-14.383-18.362 2.076-17.081 2.503-33.121 1.324-46.218a123.287 123.287 0 0 0 33.541 9.782c.394 15.508-.884 30.267-2.118 40.415zm-4.472-169.699c7.993.477 16.264.718 24.583.718 36.342 0 69.119-4.507 96.922-13.198a88.343 88.343 0 0 1 4.896 17.254c.027.21.067.419.112.627a89.073 89.073 0 0 1 1.236 14.828c0 52.566-46.28 95.333-103.164 95.333s-103.164-42.767-103.164-95.333c0-7.716.983-15.285 2.925-22.639.031-.109.063-.217.09-.327a89.12 89.12 0 0 1 3.215-9.709c11.052 3.443 22.944 6.237 35.653 8.365a7.5 7.5 0 1 0 2.478-14.793c-14.195-2.378-27.258-5.61-39.149-9.677a7.404 7.404 0 0 0-1.226-.44c-19.207-6.708-35.323-15.612-48.127-26.655-22.294-19.232-33.6-44.47-33.6-75.01 0-81.871 81.154-148.477 180.904-148.477 99.751 0 180.905 66.606 180.905 148.477 0 38.003-17.33 67.539-51.506 87.789-9.168 5.432-19.456 10.115-30.729 14.033-.077.026-.155.051-.232.08-27.495 9.519-60.873 14.473-98.438 14.473a400.7 400.7 0 0 1-23.691-.69c-4.147-.257-7.686 2.906-7.933 7.04a7.498 7.498 0 0 0 7.04 7.931zm197.809 39.607c-13.239 13.504-27.74 20.351-43.1 20.351-2.057 0-4.139-.129-6.185-.382-4.173-.519-8.303-1.557-12.344-3.078a103.28 103.28 0 0 0 6.53-33.521c3.377 2.146 6.714 3.472 9.904 3.868 6.828.826 14.11-2.65 21.64-10.331a16.502 16.502 0 0 1 4.277-3.134v5.958c0 9.827 7.995 17.822 17.822 17.822h3.427c-.57.86-1.221 1.683-1.971 2.447zm-1.456-17.448a2.825 2.825 0 0 1-2.822-2.822v-5.959a16.358 16.358 0 0 1 4.046 2.904 16.385 16.385 0 0 1 3.837 5.877h-5.061zm18.599-6.549a31.316 31.316 0 0 0-6.874-10.038c-4.103-4.023-9.106-6.789-14.547-8.112v-4.698a2.825 2.825 0 0 1 2.822-2.822h18.599v25.67zm76.509 26.063a3.662 3.662 0 0 1-3.658 3.658h-54.194a3.662 3.662 0 0 1-3.658-3.658v-68.794h61.509l.001 68.794zm-362.579-156.11c-10.622 2.82-30.663 12.889-38.447 18.634a7.498 7.498 0 0 0 4.46 13.534 7.473 7.473 0 0 0 4.449-1.466c6.413-4.735 24.762-13.915 33.386-16.204a7.5 7.5 0 1 0-3.848-14.498zm142.892-37.133a7.5 7.5 0 0 0 4.763 9.477c6.693 2.216 16.109 2.807 20.617 2.807 4.509 0 13.924-.591 20.616-2.807a7.5 7.5 0 0 0-4.713-14.241c-2.326.77-5.71 1.333-9.061 1.671a7.461 7.461 0 0 0 .657-3.06v-12.046a7.466 7.466 0 0 0-2.037-5.128c3.78.314 7.796.922 10.442 1.798a7.485 7.485 0 0 0 2.357.382 7.5 7.5 0 0 0 2.355-14.622c-6.694-2.215-16.108-2.806-20.615-2.806-4.508 0-13.923.591-20.615 2.806a7.5 7.5 0 0 0-4.765 9.476 7.498 7.498 0 0 0 9.477 4.765c2.646-.876 6.661-1.483 10.442-1.798a7.466 7.466 0 0 0-2.037 5.128v12.047c0 1.091.238 2.125.657 3.06-3.352-.339-6.736-.902-9.061-1.672a7.501 7.501 0 0 0-9.479 4.763zM128.429 187.62c4.108.548 7.875-2.347 8.418-6.453a7.5 7.5 0 0 0-6.453-8.418c-10.894-1.439-33.259.233-42.645 2.579a7.5 7.5 0 0 0-5.457 9.096 7.504 7.504 0 0 0 7.27 5.683c.602 0 1.214-.073 1.825-.226 7.736-1.936 28.198-3.43 37.042-2.261zm194.954-6.453c.543 4.106 4.316 6.999 8.418 6.453 8.845-1.171 29.307.326 37.043 2.261a7.549 7.549 0 0 0 1.825.226 7.503 7.503 0 0 0 7.27-5.683 7.5 7.5 0 0 0-5.457-9.096c-9.387-2.347-31.753-4.02-42.645-2.579a7.501 7.501 0 0 0-6.454 8.418zm-112.4-7.579h38.266c4.142 0 7.5-3.357 7.5-7.5s-3.358-7.5-7.5-7.5h-38.266a7.5 7.5 0 0 0 0 15z"/></svg>