<svg xmlns="http://www.w3.org/2000/svg" viewBox="0 0 512 512" style="enable-background:new 0 0 512 512" xml:space="preserve"><path style="fill:#eda751" d="M68.854 425.103c-1.083 0-2.183-.133-3.28-.412-7.124-1.806-11.435-9.046-9.629-16.169 3.753-14.8 14.045-27.86 28.237-35.832 11.991-6.737 32.154-12.959 60.117-4.338 22.756 7.007 32.833-5.379 51.689-31.808l.693-.971c4.27-5.982 12.58-7.369 18.562-3.1 5.981 4.27 7.37 12.58 3.1 18.561l-.691.968c-9.506 13.324-18.485 25.907-30.565 34.569-14.975 10.738-31.535 13.099-50.627 7.214-18.941-5.835-31.797-2.074-39.246 2.109-7.864 4.417-13.504 11.404-15.473 19.169-1.526 6.026-6.942 10.04-12.887 10.04z"/><path style="fill:#fcd79d" d="M59.821 398.066a53.242 53.242 0 0 0-3.875 10.456c-1.806 7.124 2.504 14.363 9.628 16.169 1.098.279 2.197.412 3.28.412 5.945 0 11.361-4.014 12.889-10.04.624-2.46 1.618-4.84 2.933-7.087-6.729-6.183-16.663-9.185-24.855-9.91z"/><path style="fill:#eda751" d="M293.543 479.543c-.418 0-.838-.013-1.26-.037-11.739-.685-20.7-10.757-20.015-22.495 2.02-34.616 1.455-53.688-2.015-68.026-2.766-11.428 4.255-22.936 15.685-25.702 11.422-2.771 22.936 4.255 25.703 15.685 5.242 21.652 5.045 47.85 3.138 80.524-.661 11.316-10.046 20.051-21.236 20.051zM218.457 479.543c-11.191 0-20.575-8.735-21.235-20.052-1.908-32.673-2.104-58.872 3.137-80.524 2.766-11.428 14.272-18.453 25.703-15.685 11.429 2.766 18.452 14.273 15.685 25.702-3.47 14.337-4.035 33.409-2.015 68.026.685 11.738-8.275 21.81-20.014 22.495-.422.026-.843.038-1.261.038zM377.957 343.848c-25.064 0-46.881-7.813-53.207-10.31-10.938-4.318-16.304-16.684-11.988-27.622 4.316-10.937 16.681-16.302 27.622-11.988 14.713 5.806 47.381 13.176 65.712-.497 9.426-7.033 22.766-5.09 29.796 4.334 7.032 9.425 5.091 22.766-4.334 29.797-16.614 12.395-35.916 16.286-53.601 16.286zM134.043 343.848c-17.688 0-36.986-3.889-53.602-16.286-9.425-7.031-11.366-20.371-4.335-29.797 7.032-9.425 20.372-11.366 29.797-4.334 8.015 5.979 32.064 13.777 65.712.497 10.938-4.318 23.305 1.05 27.622 11.988 4.317 10.938-1.05 23.304-11.988 27.622-6.325 2.496-28.145 10.31-53.206 10.31z"/><path style="opacity:.2;fill:#a35f00;enable-background:new" d="M171.616 293.928c-12.086 4.77-22.924 6.811-32.235 7.204a104.475 104.475 0 0 0-1.969 20.194c0 7.665.834 15.15 2.418 22.381 22.575-1.049 41.587-7.867 47.42-10.169 10.938-4.318 16.305-16.684 11.988-27.622-4.318-10.937-16.685-16.305-27.622-11.988zM215.245 332.473c-5.982-4.269-14.292-2.882-18.562 3.1l-.693.971c-17.444 24.45-27.383 36.868-46.789 33.045 4.903 9.479 11.201 18.205 18.644 25.94 6.722-1.598 13.119-4.565 19.245-8.958 12.081-8.662 21.059-21.246 30.565-34.569l.691-.968c4.269-5.981 2.88-14.292-3.101-18.561z"/><path style="opacity:.2;fill:#a35f00;enable-background:new" d="M226.062 363.283c-11.431-2.769-22.937 4.256-25.703 15.685-2.747 11.349-3.99 23.963-4.286 38.087 12.852 7.035 27.242 11.84 42.57 13.859-.37-19.02.625-31.685 3.105-41.929 2.765-11.429-4.257-22.936-15.686-25.702zM315.907 415.985c-.336-13.694-1.589-25.954-4.267-37.017-2.766-11.43-14.28-18.455-25.703-15.685-11.43 2.767-18.451 14.274-15.685 25.702 2.468 10.195 3.465 22.791 3.109 41.661 15.365-2.272 29.752-7.349 42.546-14.661zM312.762 305.916c-4.316 10.938 1.05 23.304 11.988 27.622 5.667 2.237 23.771 8.737 45.502 10.067a104.426 104.426 0 0 0 2.395-22.278c0-6.984-.699-13.816-2.02-20.445-11.843-.987-23.137-4.149-30.242-6.953-10.942-4.315-23.306 1.051-27.623 11.987z"/><ellipse style="fill:#fcd690" cx="256" cy="321.33" rx="98.2" ry="91.25"/><path style="opacity:.15;fill:#c17a00;enable-background:new" d="M241.659 411.608c-44.876-29.463-30.968-89.849-23.35-116.257v-58.309c-35.529 13.735-60.513 46.297-60.513 84.285.001 45.87 36.426 83.831 83.863 90.281z"/><path style="fill:#eda751" d="M196.237 163.095c19.216-16.124 32.046-43.192 4.942-83.206-27.319-40.33-67.992-50.439-99.745-46.698a19.858 19.858 0 0 0-16.665 13.983c-9.198 30.622-6.305 72.432 28.668 106.339 34.699 33.641 63.584 25.706 82.8 9.582z"/><path style="fill:#ff91ab" d="M83.49 51.859c-7.541 30.108-3.277 69.443 29.946 101.654 30.076 29.159 55.779 27.075 74.608 15.505C175.095 81.105 118.524 57.792 83.49 51.859z"/><path style="fill:#eda751" d="M315.763 163.095c-19.216-16.124-32.046-43.192-4.942-83.206 27.319-40.33 67.992-50.439 99.746-46.698a19.858 19.858 0 0 1 16.665 13.983c9.198 30.622 6.305 72.432-28.668 106.339-34.7 33.641-63.585 25.706-82.801 9.582z"/><path style="fill:#ff91ab" d="M428.51 51.859c7.541 30.108 3.277 69.443-29.946 101.654-30.076 29.159-55.779 27.075-74.608 15.505 12.949-87.913 69.52-111.226 104.554-117.159z"/><path style="fill:#ffdc9c" d="M423.19 187.432c0 76.444-74.853 109.925-167.19 109.925S88.81 263.875 88.81 187.432c0-76.444 74.853-138.414 167.19-138.414s167.19 61.97 167.19 138.414z"/><path style="opacity:.15;fill:#c17a00;enable-background:new" d="M166.729 70.388C119.906 94.917 88.81 138.165 88.81 187.432c0 65.713 55.315 99.679 129.499 107.92-106.489-63.61-92.601-149.171-51.58-224.964z"/><path style="fill:#7694e4" d="M202.34 157.322C159.46 84.635 41.743 106.415 20.487 205.08a32.532 32.532 0 0 0 9.378 30.44c16.225 15.416 42.646 10.118 51.997-10.216 18.475-40.176 55.23-81.037 99.569-68.278l20.909.296zM309.66 157.322c42.88-72.687 160.597-50.907 181.852 47.758a32.532 32.532 0 0 1-9.378 30.44c-16.225 15.416-42.647 10.118-51.997-10.216-18.475-40.176-55.23-81.037-99.569-68.278l-20.908.296z"/><path style="fill:#ff91ab" d="M256 216.935c6.019 0 13.37 2.039 19.568 4.247 7.193 2.563 14.783-3.102 14.266-10.72-1.497-22.037-16.406-37.275-33.833-37.275-17.428 0-32.337 15.238-33.833 37.275-.517 7.618 7.073 13.283 14.266 10.72 6.196-2.208 13.547-4.247 19.566-4.247z"/><path style="fill:#7694e4" d="M54.097 304.22c0 12.867-10.431 23.299-23.299 23.299S7.5 317.087 7.5 304.22c0-27.066 20.081-44.249 30.026-42.228 11.885 2.415 16.571 22.315 16.571 42.228zM457.903 296.768c0 12.867 10.431 23.299 23.299 23.299s23.299-10.431 23.299-23.299c0-27.066-20.081-44.249-30.026-42.228-11.886 2.415-16.572 22.315-16.572 42.228z"/><path d="M61.597 304.22c0-13.527-2.2-45.437-22.577-49.577-6.04-1.227-13.095 1.144-19.866 6.676C7.161 271.12 0 287.157 0 304.22c0 16.982 13.816 30.799 30.799 30.799 16.982 0 30.798-13.817 30.798-30.799zm-30.798 15.799c-8.711 0-15.799-7.087-15.799-15.799 0-14.755 6.991-25.788 13.533-31.193 3.465-2.863 6.249-3.702 7.274-3.702.089 0 .164.006.226.017 5.122 1.041 10.565 13.618 10.565 34.878-.001 8.712-7.088 15.799-15.799 15.799zm462.048-66.152c-4.646-3.797-9.424-6.105-13.918-6.783a40.554 40.554 0 0 0 8.372-6.128c10.042-9.542 14.465-23.895 11.544-37.456-5.616-26.068-18.15-48.828-36.248-65.817-9.179-8.617-19.527-15.565-30.667-20.684 8.756-22.775 9.675-48.042 2.484-71.982a27.303 27.303 0 0 0-22.97-19.274c-32.006-3.775-63.508 6.176-87.199 27.35-21.472-7.594-44.721-11.575-68.245-11.575s-46.773 3.981-68.245 11.574c-23.692-21.175-55.198-31.126-87.199-27.351a27.309 27.309 0 0 0-22.97 19.275c-7.191 23.94-6.272 49.207 2.484 71.982-11.14 5.119-21.488 12.066-30.667 20.684-18.097 16.989-30.631 39.749-36.247 65.817-2.921 13.562 1.502 27.914 11.544 37.457 7.546 7.17 17.197 10.998 27.29 10.998 2.545 0 5.121-.244 7.696-.739 12.908-2.482 23.475-10.784 28.991-22.778.105-.229.214-.458.321-.688 11.131 26.729 34.192 47.404 67.344 60.587-.371.975-.72 1.955-1.057 2.939-29.546 7.225-44.74-3.738-44.896-3.855-6.165-4.599-13.753-6.521-21.36-5.415-7.61 1.107-14.334 5.112-18.933 11.276-9.492 12.725-6.863 30.801 5.861 40.293 15.809 11.794 35.353 17.773 58.087 17.773 6.697 0 13.645-.531 20.73-1.576a94.236 94.236 0 0 0 5.081 12.569c-3.842.868-8.069.468-13.346-1.156-30.507-9.406-52.729-2.49-65.999 4.967-15.976 8.974-27.58 23.745-31.834 40.527-2.819 11.12 3.934 22.462 15.056 25.283a20.785 20.785 0 0 0 25.282-15.055c1.466-5.782 5.794-11.057 11.876-14.473 6.169-3.464 16.965-6.533 33.364-1.481 19.185 5.915 36.776 4.158 52.395-5.162.983.8 1.984 1.58 2.998 2.346-1.93 19.506-1.116 41.16.089 61.792.887 15.205 13.503 27.115 28.723 27.115.566 0 1.138-.017 1.697-.05 7.677-.448 14.721-3.859 19.833-9.605s7.68-13.138 7.232-20.814c-.886-15.187-1.253-27.168-1.123-36.932 3.262.285 6.564.437 9.904.437s6.642-.152 9.904-.437c.13 9.762-.237 21.743-1.123 36.932-.447 7.677 2.121 15.069 7.232 20.814 5.112 5.746 12.155 9.157 19.819 9.604.572.034 1.144.052 1.711.052 11.972 0 22.813-7.543 26.977-18.771a7.502 7.502 0 0 0-4.424-9.641 7.503 7.503 0 0 0-9.641 4.424c-1.993 5.376-7.183 8.987-12.912 8.987-.269 0-.539-.008-.824-.025a13.701 13.701 0 0 1-9.499-4.601 13.697 13.697 0 0 1-3.465-9.97c.97-16.63 1.333-29.6 1.112-40.137a109.445 109.445 0 0 0 27.168-10.054c.471 7.78.582 16.454.349 26.534a7.5 7.5 0 0 0 7.324 7.672l.177.002a7.5 7.5 0 0 0 7.495-7.326c.327-14.122.002-25.704-1.023-36.006 16.331-12.339 28.662-29.121 34.868-48.361 7.085 1.045 14.033 1.576 20.731 1.576 22.735 0 42.278-5.979 58.086-17.773 6.165-4.599 10.169-11.322 11.276-18.933 1.107-7.61-.815-15.196-5.415-21.361-9.495-12.725-27.57-15.352-40.292-5.86-.156.116-15.357 11.075-44.897 3.854a94.032 94.032 0 0 0-1.044-2.904 165.343 165.343 0 0 0 12.86-5.697c26.327-13.085 44.861-31.861 54.473-54.92.106.228.214.456.319.684 5.516 11.994 16.083 20.296 28.991 22.778 2.576.495 5.15.739 7.696.739 1.259 0 2.512-.06 3.754-.178-11.864 10.319-13.362 33.865-13.362 44.99 0 16.982 13.816 30.799 30.799 30.799S512 313.75 512 296.768c0-17.062-7.16-33.1-19.153-42.901zm-341.516 81.24c-5.922.819-11.714 1.241-17.288 1.241-19.432 0-35.957-4.979-49.118-14.797-6.095-4.547-7.354-13.205-2.808-19.3a13.7 13.7 0 0 1 9.069-5.401c3.645-.534 7.279.39 10.232 2.594 5.416 4.04 13.867 7.126 23.185 8.466 8.514 1.223 17.469 1.045 26.738-.513a93.456 93.456 0 0 0-1.045 13.93 92.926 92.926 0 0 0 1.035 13.78zm259.251-35.665a13.67 13.67 0 0 1 10.23-2.593 13.7 13.7 0 0 1 9.069 5.4c2.203 2.953 3.124 6.587 2.594 10.233s-2.448 6.865-5.401 9.068c-13.161 9.818-29.686 14.797-49.117 14.797-5.574 0-11.366-.422-17.288-1.241a92.795 92.795 0 0 0-.013-27.724c24.99 4.164 42.754-2.589 49.926-7.94zm7.326-187.776a111.636 111.636 0 0 0-14.82-3.465c-.138-.022-.275-.038-.414-.06-7.376-9.504-16.047-18.262-25.807-26.074 15.487-12.189 32.305-18.333 45.846-21.412 2.289 13.112 2.788 31.367-4.805 51.011zm-8.218-71.027a12.312 12.312 0 0 1 8.916 5.57c-16.064 3.749-36.113 11.357-54.28 26.731a179.916 179.916 0 0 0-22.223-12.514c-.689-.326-1.39-.632-2.084-.95 27.396-20.979 57.257-20.298 69.671-18.837zm-307.379-.001c12.416-1.459 42.275-2.141 69.671 18.837-.694.318-1.395.624-2.084.95a180.046 180.046 0 0 0-22.223 12.514c-18.168-15.373-38.217-22.981-54.281-26.73a12.317 12.317 0 0 1 8.917-5.571zM89.287 60.654c13.541 3.08 30.358 9.223 45.846 21.412-9.76 7.813-18.432 16.571-25.808 26.075-.138.022-.275.037-.413.059-5.035.815-9.98 1.986-14.82 3.466-7.593-19.644-7.094-37.899-4.805-51.012zM75.048 222.17c-3.468 7.541-10.1 12.759-18.195 14.315-7.973 1.532-15.926-.801-21.821-6.402-6.277-5.965-9.04-14.94-7.212-23.425 4.971-23.075 15.984-43.146 31.85-58.04 9.591-9.005 20.639-15.909 32.576-20.468.2-.065.397-.145.594-.228a96.651 96.651 0 0 1 18.469-4.914 95.083 95.083 0 0 1 3.079-.444c.072-.009.143-.019.214-.03 27.818-3.508 53.742 5.842 71.319 25.111-1.749.338-3.46.823-5.112 1.461-21.609-5.297-43.522.319-63.548 16.353-16.467 13.183-31.458 33.323-42.213 56.711zm63.622 164.447c-21.484-6.619-36.398-2.164-45.127 2.738-9.647 5.419-16.598 14.116-19.07 23.863a5.797 5.797 0 0 1-7.056 4.203 5.815 5.815 0 0 1-4.202-7.058c3.25-12.816 12.23-24.164 24.641-31.136 10.711-6.018 28.813-11.546 54.236-3.709 9.676 2.979 17.987 3.015 25.632.061a100.04 100.04 0 0 0 7.525 9.392c-10.99 5.391-22.814 5.889-36.579 1.646zm90.111 80.801a13.714 13.714 0 0 1-9.514 4.602c-7.639.455-14.117-5.413-14.558-12.966-1.311-22.453-1.567-38.482-.753-51.801a109.467 109.467 0 0 0 27.177 10.059c-.221 10.539.141 23.51 1.112 40.137a13.704 13.704 0 0 1-3.464 9.969zM361.855 269.24c-27.139 13.487-63.742 20.616-105.855 20.616-6.787 0-13.53-.188-20.043-.558-4.129-.217-7.678 2.927-7.913 7.063a7.5 7.5 0 0 0 7.063 7.913c6.795.386 13.825.581 20.894.581 31.851 0 60.87-3.946 85.509-11.528a78.215 78.215 0 0 1 2.077 6.142c.036.129.07.258.112.385a77.592 77.592 0 0 1 3.005 21.47c0 46.182-40.689 83.753-90.703 83.753s-90.703-37.571-90.703-83.753a77.546 77.546 0 0 1 3.004-21.465c.045-.134.081-.271.119-.408a78.512 78.512 0 0 1 2.07-6.121c8.967 2.776 18.548 5.071 28.714 6.864a7.504 7.504 0 0 0 8.689-6.084 7.5 7.5 0 0 0-6.084-8.688c-11.88-2.094-22.85-4.896-32.893-8.367-.053-.02-.107-.036-.16-.055-14.049-4.87-26.263-11.061-36.487-18.544-17.555-12.848-28.784-29.284-33.445-48.872 16.241-26.057 40.406-48.485 68.304-47.351a7.48 7.48 0 0 0 2.568 5.746 7.502 7.502 0 0 0 10.582-.727c2.859-3.281 6.987-5.163 11.324-5.163s8.465 1.882 11.324 5.163a7.483 7.483 0 0 0 5.657 2.572 7.5 7.5 0 0 0 5.651-12.428 30.035 30.035 0 0 0-6.467-5.566c-16.983-27.53-45.473-43.702-77.587-44.944 12.648-13.247 28.338-24.477 46.139-32.908 24.12-11.421 51.674-17.46 79.68-17.46 28.007 0 55.56 6.039 79.682 17.464 17.801 8.431 33.491 19.66 46.139 32.908-32.114 1.242-60.605 17.414-77.588 44.945a30.054 30.054 0 0 0-6.466 5.566 7.498 7.498 0 0 0 .728 10.581 7.5 7.5 0 0 0 10.581-.728 15.023 15.023 0 0 1 11.324-5.162c4.337 0 8.465 1.882 11.324 5.163a7.483 7.483 0 0 0 5.657 2.572 7.47 7.47 0 0 0 4.925-1.846 7.479 7.479 0 0 0 2.567-5.743c27.907-1.131 52.073 21.305 68.314 47.367-6.104 25.678-23.358 45.733-51.332 59.635zm93.292-32.755c-8.096-1.557-14.728-6.774-18.195-14.315-10.755-23.388-25.746-43.528-42.213-56.711-20.027-16.034-41.941-21.652-63.549-16.353a29.961 29.961 0 0 0-5.112-1.461c17.625-19.324 43.641-28.671 71.551-25.079.048.006.094.015.142.021.972.127 1.945.263 2.92.421a96.622 96.622 0 0 1 18.468 4.914c.197.083.393.163.592.228 11.937 4.559 22.985 11.463 32.577 20.468 15.866 14.895 26.88 34.965 31.851 58.04 1.828 8.484-.936 17.46-7.212 23.424-5.896 5.603-13.852 7.935-21.82 6.403zm26.054 76.081c-8.712 0-15.799-7.087-15.799-15.799 0-21.26 5.443-33.837 10.564-34.878.061-.012.138-.018.227-.018 1.024 0 3.808.839 7.272 3.701 6.543 5.405 13.534 16.439 13.534 31.194.001 8.714-7.086 15.8-15.798 15.8zM375.545 217.68c-6.962-5.14-24.895-14.147-34.402-16.672a7.5 7.5 0 0 0-3.85 14.498c7.429 1.973 23.83 10.173 29.342 14.242a7.494 7.494 0 0 0 10.489-1.579 7.501 7.501 0 0 0-1.579-10.489zm-204.688-16.672c-9.507 2.524-27.44 11.532-34.402 16.672a7.5 7.5 0 0 0 4.461 13.535 7.474 7.474 0 0 0 4.449-1.467c5.512-4.07 21.914-12.27 29.342-14.242a7.5 7.5 0 0 0-3.85-14.498zm211.684-20.44c-8.398-2.099-28.41-3.595-38.16-2.306-4.106.543-6.995 4.313-6.452 8.419s4.314 6.99 8.419 6.452c7.616-1.009 25.906.324 32.555 1.987a7.555 7.555 0 0 0 1.825.226 7.5 7.5 0 0 0 1.813-14.778zM256 165.688c-21.84 0-39.603 19.03-41.316 44.267-.413 6.084 2.262 11.928 7.154 15.633 4.923 3.729 11.322 4.723 17.112 2.66 6.998-2.494 12.894-3.813 17.05-3.813s10.052 1.318 17.051 3.813a18.158 18.158 0 0 0 6.099 1.057c3.914 0 7.781-1.271 11.014-3.718 4.892-3.706 7.566-9.55 7.152-15.633-1.714-25.236-19.475-44.266-41.316-44.266zm25.106 47.941c-.423.32-1.563 1.007-3.021.489-8.719-3.107-16.149-4.684-22.086-4.684-5.936 0-13.367 1.576-22.085 4.683-1.459.521-2.598-.168-3.021-.488-.506-.383-1.341-1.238-1.244-2.659 1.191-17.547 12.273-30.282 26.351-30.282 14.077 0 25.159 12.735 26.351 30.283.096 1.42-.739 2.275-1.245 2.658zm-115.454-20.495a7.497 7.497 0 0 0 8.418-6.452 7.499 7.499 0 0 0-6.452-8.419c-9.749-1.29-29.762.207-38.16 2.306a7.5 7.5 0 0 0 3.638 14.553c6.651-1.664 24.941-2.997 32.556-1.988z"/></svg>