<svg xmlns="http://www.w3.org/2000/svg" viewBox="0 0 512 512" style="enable-background:new 0 0 512 512" xml:space="preserve"><circle style="fill:#82c7e6" cx="42.733" cy="290.22" r="19.391"/><path style="fill:#eda751" d="M310.013 466.683c-9.887 0-19.244-2.799-28.258-8.413-12.603-7.848-22.37-19.808-32.709-32.469l-.752-.921c-4.644-5.685-3.8-14.058 1.885-18.703s14.058-3.8 18.702 1.885l.755.925c20.51 25.116 31.354 36.816 53.584 28.344 45.289-17.252 85.638-18.164 110.701-2.497 6.225 3.89 8.117 12.09 4.227 18.315s-12.091 8.117-18.316 4.226c-17.68-11.051-50.259-9.256-87.15 4.797-7.887 3.006-15.42 4.511-22.669 4.511z"/><path style="fill:#fcd79d" d="M433.921 434.834c-3.192-1.995-6.635-3.718-10.301-5.176-4.21 4.539-10.088 12.887-10.507 24.407 2.425.935 4.676 2.033 6.72 3.31 6.225 3.891 14.425 1.999 18.316-4.226 3.889-6.225 1.997-14.425-4.228-18.315z"/><path style="fill:#eda751" d="M105.605 403.198c-22.076 0-49.727-4.911-69.968-25.152-8.305-8.305-8.305-21.771 0-30.076 8.305-8.303 21.77-8.303 30.075 0 7.063 7.064 29.713 18.232 64.881 9.941 11.431-2.691 22.883 4.389 25.577 15.821 2.694 11.433-4.389 22.884-15.821 25.578-4.827 1.136-18.227 3.888-34.744 3.888z"/><path style="opacity:.2;fill:#a35f00;enable-background:new" d="M130.592 357.911c-12.055 2.842-22.638 3.397-31.628 2.615a104.191 104.191 0 0 0-3.427 42.316c3.448.246 6.819.356 10.067.356 16.517 0 29.917-2.752 34.743-3.889 11.432-2.694 18.516-14.145 15.821-25.578-2.693-11.431-14.144-18.512-25.576-15.82z"/><ellipse style="fill:#fcd690" cx="212.231" cy="389.95" rx="98.09" ry="91.14"/><path style="opacity:.15;fill:#c17a00;enable-background:new" d="M197.912 480.121c-44.823-29.428-30.932-89.743-23.323-116.12V305.76c-35.488 13.718-60.441 46.242-60.441 84.185 0 45.817 36.382 83.733 83.764 90.176z"/><path style="fill:#eda751" d="M152.543 231.901c19.193-16.105 32.008-43.141 4.936-83.108-27.286-40.282-67.912-50.38-99.628-46.643a19.833 19.833 0 0 0-16.645 13.967c-9.187 30.585-6.298 72.347 28.634 106.214 34.659 33.6 63.509 25.675 82.703 9.57z"/><path style="fill:#ff91ab" d="M39.929 120.796c-7.532 30.072-3.273 69.361 29.911 101.533 30.041 29.125 55.713 27.043 74.521 15.487-12.935-87.808-69.439-111.093-104.432-117.02z"/><path style="fill:#eda751" d="M271.927 231.901c-19.193-16.105-32.008-43.141-4.936-83.108 27.286-40.282 67.911-50.38 99.628-46.643a19.833 19.833 0 0 1 16.645 13.967c9.187 30.585 6.298 72.347-28.634 106.214-34.658 33.6-63.509 25.675-82.703 9.57z"/><path style="fill:#ff91ab" d="M384.541 120.796c7.532 30.072 3.273 69.361-29.911 101.533-30.041 29.125-55.713 27.043-74.52 15.487 12.934-87.808 69.439-111.093 104.431-117.02z"/><path style="fill:#ffdc9c" d="M379.227 256.209c0 76.353-74.765 109.795-166.992 109.795S45.243 332.562 45.243 256.209s74.765-138.25 166.992-138.25c92.227 0 166.992 61.896 166.992 138.25z"/><path style="opacity:.15;fill:#c17a00;enable-background:new" d="M123.07 139.304c-46.768 24.5-77.827 67.697-77.827 116.905 0 65.636 55.249 99.561 129.346 107.792-106.364-63.534-92.492-148.994-51.519-224.697z"/><ellipse style="fill:#ff91ab" cx="104.751" cy="242.07" rx="30.24" ry="24.08"/><ellipse style="fill:#ff91ab" cx="268.641" cy="242.07" rx="30.24" ry="24.08"/><ellipse style="fill:#ff91ab" cx="186.701" cy="226.25" rx="16.201" ry="22.01"/><path style="fill:#82c7e6" d="M352.291 429.135c-2.001-.292-3.509-1.927-3.722-3.937-3.145-29.605-28.191-52.67-58.631-52.67-3.727 0-7.37.357-10.904 1.022a4.35 4.35 0 0 1-4.207-1.544c-14.649-18.322-37.19-30.059-62.472-30.059-29.064 0-54.493 15.518-68.486 38.713-.874 1.449-2.514 2.237-4.198 2.07a58.831 58.831 0 0 0-5.832-.291c-23.406 0-43.622 13.64-53.147 33.402a4.459 4.459 0 0 1-3.59 2.493c-21.79 2.13-38.834 20.444-38.938 42.77-.111 23.869 20.052 43.396 43.922 43.396h263.987c21.022 0 38.57-16.819 38.592-37.841.02-19.069-14.05-34.854-32.374-37.524z"/><g style="opacity:.1"><path d="M155.55 463.303a7.505 7.505 0 0 1-7.079-5.023 13.815 13.815 0 0 0-13.027-9.236 13.78 13.78 0 0 0-12.715 8.43 7.499 7.499 0 0 1-9.829 3.985 7.5 7.5 0 0 1-3.986-9.829 28.755 28.755 0 0 1 26.531-17.586c12.223 0 23.147 7.748 27.184 19.279a7.501 7.501 0 0 1-7.079 9.98zM212.888 411.147a7.503 7.503 0 0 1-7.063-4.98c-1.495-4.184-4.788-7.314-9.035-8.589a13.78 13.78 0 0 0-14.601 4.419 7.5 7.5 0 0 1-11.553-9.567 28.752 28.752 0 0 1 30.465-9.22c8.734 2.622 15.78 9.317 18.85 17.911a7.5 7.5 0 0 1-4.54 9.585 7.457 7.457 0 0 1-2.523.441zM258.906 465.955a7.502 7.502 0 0 1-7.185-5.361 33.917 33.917 0 0 1 8.525-33.698c13.229-13.226 34.754-13.227 47.982 0a7.5 7.5 0 0 1-10.607 10.608c-7.38-7.382-19.39-7.382-26.769 0a18.933 18.933 0 0 0-4.755 18.81 7.5 7.5 0 0 1-7.191 9.641z"/></g><path style="fill:#495059" d="m398.087 71.323-22.556-22.556 36.595-36.595A15.946 15.946 0 0 1 423.404 7.5h59.922a5.333 5.333 0 0 1 5.333 5.333v21.232a5.333 5.333 0 0 1-5.333 5.333h-53.315l-31.924 31.925z"/><path style="fill:#dee2e5" d="m404.821 120.407-78.374-78.374 6.466-3.657c21.686-12.264 48.89-8.559 66.506 9.058 17.617 17.617 21.322 44.82 9.058 66.506l-3.656 6.467z"/><path style="fill:#495059" d="M389.785 139.301 307.553 57.07c-4.685-4.685-4.685-12.28 0-16.965 4.685-4.685 12.28-4.685 16.965 0l82.231 82.232c4.685 4.685 4.685 12.28 0 16.965-4.684 4.683-12.28 4.683-16.964-.001z"/><path style="fill:#eda751" d="M304.382 394.719c-1.579 0-3.182-.178-4.786-.546-35.162-8.087-60.757-36.245-67.764-44.683-7.503-9.035-6.262-22.443 2.774-29.946 9.033-7.504 22.442-6.264 29.947 2.774 9.543 11.492 26.944 26.35 44.577 30.405 11.446 2.632 18.591 14.045 15.958 25.491-2.264 9.842-11.02 16.505-20.706 16.505z"/><circle style="fill:#82c7e6" cx="380.161" cy="355.29" r="19.391"/><circle style="fill:#82c7e6" cx="414.281" cy="283.7" r="13.663"/><path d="M266.001 108.929a7.477 7.477 0 0 0 5.29-2.184c2.987-2.972 14.914-11.639 19.986-15.02a7.5 7.5 0 1 0-8.32-12.48c-3.264 2.175-17.656 12.301-22.245 16.867a7.5 7.5 0 0 0 5.289 12.817zM380.16 328.403c-14.828 0-26.891 12.064-26.891 26.891s12.063 26.891 26.891 26.891 26.891-12.064 26.891-26.891-12.063-26.891-26.891-26.891zm0 38.782c-6.557 0-11.891-5.334-11.891-11.891s5.334-11.891 11.891-11.891 11.891 5.334 11.891 11.891-5.334 11.891-11.891 11.891zM114.875 207.369v10.678c0 4.143 3.358 7.5 7.5 7.5s7.5-3.357 7.5-7.5v-10.678a7.5 7.5 0 0 0-15 0zm128.646 0v10.678c0 4.143 3.358 7.5 7.5 7.5s7.5-3.357 7.5-7.5v-10.678a7.5 7.5 0 0 0-15 0zm-80.524 18.877c0 16.546 10.411 29.507 23.701 29.507 13.29 0 23.702-12.961 23.702-29.507s-10.411-29.507-23.702-29.507-23.701 12.961-23.701 29.507zm32.402 0c0 8.549-4.586 14.507-8.702 14.507s-8.701-5.958-8.701-14.507 4.585-14.507 8.701-14.507c4.117 0 8.702 5.958 8.702 14.507zM71.75 282.586a7.467 7.467 0 0 0 4.448-1.466c5.507-4.064 21.888-12.255 29.305-14.224a7.502 7.502 0 0 0 5.325-9.174 7.502 7.502 0 0 0-9.173-5.324c-9.495 2.52-27.409 11.519-34.365 16.653a7.5 7.5 0 0 0-1.58 10.488 7.487 7.487 0 0 0 6.04 3.047zM483.326 0h-59.921a23.297 23.297 0 0 0-16.582 6.868l-21.915 21.915c-17.652-7.495-38.306-6.765-55.688 3.065l-1.736.982a19.335 19.335 0 0 0-11.449-3.739 19.369 19.369 0 0 0-13.786 5.71c-7.602 7.602-7.602 19.971 0 27.572l33.158 33.158c-20.426 3.476-39.426 12.571-54.967 26.439-21.293-7.543-44.389-11.512-68.205-11.512-23.82 0-46.917 3.97-68.212 11.514-23.659-21.118-55.104-31.036-87.049-27.272a27.284 27.284 0 0 0-22.951 19.258c-9.635 32.076-4.63 65.887 13.67 93.476-6.538 15.446-9.95 31.883-9.95 48.774 0 2.554.086 5.069.24 7.552-12.569 2.251-22.141 13.256-22.141 26.463 0 14.827 12.064 26.891 26.891 26.891 4.285 0 8.476-1.043 12.233-2.97 4.86 6.999 10.734 13.475 17.63 19.4 8.924 7.668 19.384 14.265 31.3 19.774-22.567-.658-32.761-10.531-32.881-10.651-11.216-11.215-29.464-11.213-40.681 0-5.433 5.434-8.426 12.657-8.426 20.341 0 7.685 2.993 14.908 8.425 20.341 12.119 12.12 27.639 20.273 46.236 24.344a64.85 64.85 0 0 0-1.874 3.37 50.177 50.177 0 0 0-17.248 5.547 7.5 7.5 0 0 0-3.071 10.151 7.498 7.498 0 0 0 10.152 3.071 35.296 35.296 0 0 1 13.303-4.032c4.135-.404 7.82-2.972 9.618-6.702 8.537-17.713 26.746-29.158 46.391-29.158 1.686 0 3.398.086 5.092.254 4.557.45 9.014-1.77 11.36-5.659a73.388 73.388 0 0 1 13.495-16.447 7.53 7.53 0 0 0 1.302-1.15c12.926-11.184 29.516-17.489 47.266-17.489 3.659 0 7.318.275 10.92.819a28.733 28.733 0 0 0 2.787 4.014c7.385 8.895 34.394 38.586 71.857 47.202 2.128.488 4.303.736 6.463.736a28.606 28.606 0 0 0 20.446-8.533c9.122 8.415 14.959 19.848 16.283 32.306.41 3.853 2.62 7.15 5.78 9.028.118.074.24.141.361.208.092.051.184.103.278.151.07.035.14.067.211.099 1.075.525 2.238.9 3.469 1.08 14.812 2.157 25.97 15.095 25.955 30.094-.018 16.733-13.966 30.347-31.093 30.347H82.086c-9.63 0-19.107-3.973-26.001-10.899-6.763-6.794-10.463-15.659-10.42-24.961a35.694 35.694 0 0 1 1.551-10.277 7.5 7.5 0 1 0-14.344-4.382 50.675 50.675 0 0 0-2.206 14.59c-.062 13.322 5.19 25.971 14.789 35.613C55.142 506.417 68.494 512 82.086 512h263.987c25.389 0 46.065-20.336 46.092-45.333a44.819 44.819 0 0 0-.9-8.938c10.208.233 18.607 2.264 24.593 6.006a20.652 20.652 0 0 0 15.694 2.628 20.654 20.654 0 0 0 12.956-9.239 20.657 20.657 0 0 0 2.628-15.695 20.65 20.65 0 0 0-9.239-12.954c-20.065-12.543-49.187-15.507-82.516-8.515-2.727-15.548-10.91-29.588-23.093-39.666.033-.135.079-.264.11-.4 2.438-10.602-1.352-21.208-8.961-27.973 5.529-2.689 10.736-5.609 15.563-8.753a7.5 7.5 0 0 0-8.185-12.57c-7.599 4.95-16.294 9.313-25.854 13.005-13.062-4.983-26.385-16.141-34.637-26.077-4.909-5.912-11.827-9.559-19.479-10.267-7.653-.711-15.12 1.606-21.03 6.515-6.519 5.414-10.033 13.121-10.35 20.987a88.313 88.313 0 0 0-7.11-.313c-20.536 0-39.784 6.993-55.084 19.457-11.432-2.052-22.02-4.735-31.709-8.057a7.716 7.716 0 0 0-.796-.284c-16.916-5.89-31.114-13.704-42.395-23.397-16.107-13.84-25.704-31.239-28.648-51.853-.004-.037-.01-.073-.015-.11a99.725 99.725 0 0 1-.965-13.995c0-72.096 71.548-130.75 159.492-130.75 51.001 0 96.485 19.729 125.701 50.363-3.688 6.633-6.693 13.166-7.897 16.744a7.5 7.5 0 0 0 4.717 9.5c.793.267 1.6.394 2.392.394a7.505 7.505 0 0 0 7.108-5.11c.835-2.483 2.321-5.763 4.092-9.224 14.824 19.843 23.379 43.159 23.379 68.084 0 20.795-5.999 38.884-17.83 53.762a7.499 7.499 0 0 0 1.203 10.538 7.5 7.5 0 0 0 10.539-1.202c13.993-17.599 21.088-38.827 21.088-63.098 0-16.89-3.412-33.326-9.948-48.77 13.595-20.433 17.885-40.862 18.39-57.399 1.026.164 2.06.266 3.097.266a19.44 19.44 0 0 0 13.786-5.701 19.366 19.366 0 0 0 5.71-13.786c0-4.176-1.324-8.14-3.739-11.45l.982-1.737c9.83-17.382 10.56-38.035 3.065-55.686l15.046-15.046h50.209c7.077 0 12.833-5.757 12.833-12.833V12.834C496.16 5.757 490.403 0 483.326 0zM42.733 302.114c-6.557 0-11.891-5.334-11.891-11.891 0-5.586 3.878-10.273 9.079-11.542 1.607 7.924 4.106 15.418 7.482 22.472a11.736 11.736 0 0 1-4.67.961zm387.214 139.08a5.75 5.75 0 0 1 2.573 3.607c.348 1.508.088 3.06-.732 4.372s-2.101 2.226-3.608 2.573a5.753 5.753 0 0 1-4.372-.732c-9.544-5.966-22.781-8.776-38.48-8.23a46.059 46.059 0 0 0-9.414-10.883c21.962-2.196 40.679.947 54.033 9.293zM239.399 325.313a13.657 13.657 0 0 1 10.063-3.117 13.673 13.673 0 0 1 9.321 4.912c9.46 11.392 26.215 25.875 43.973 31.616l.139.044c1.512.485 3.03.914 4.553 1.264 7.397 1.701 12.032 9.103 10.331 16.501a13.942 13.942 0 0 1-1.056 2.968 7.3 7.3 0 0 0-.208.427 13.67 13.67 0 0 1-12.134 7.292c-1.034 0-2.08-.12-3.105-.355-32.875-7.562-57.049-34.186-63.675-42.166-4.849-5.841-4.043-14.537 1.798-19.386zm-112.552 36.72a226.292 226.292 0 0 0 17.703 4.638 89.546 89.546 0 0 0-6.063 8.432 65.455 65.455 0 0 0-15.532.767 77.588 77.588 0 0 1 3.892-13.837zm-17.636 6.268a92.312 92.312 0 0 0-2.087 12.329 67.41 67.41 0 0 0-20.153 13.733c-19.028-2.829-34.503-10.091-46.031-21.621-2.6-2.6-4.032-6.057-4.032-9.734s1.432-7.134 4.032-9.733c5.368-5.367 14.102-5.366 19.468-.001 4.761 4.762 12.649 9.021 21.64 11.687 8.43 2.498 17.532 3.61 27.163 3.34zm-19.84-215.627c-13.942 11.543-25.25 24.704-33.697 38.979-12.948-23.817-12.505-46.983-9.92-62.054 13.513 3.077 30.286 9.209 45.736 21.364-.709.567-1.42 1.132-2.119 1.711zm14.652-10.847c-18.139-15.341-38.15-22.937-54.187-26.681a12.29 12.29 0 0 1 8.892-5.549c12.391-1.459 42.181-2.137 69.526 18.771a180.108 180.108 0 0 0-24.231 13.459zm192.18-13.465c18.515-14.204 38.042-18.498 52.755-19.282l10.495 10.495c-14.575 5.168-27.632 12.626-38.997 22.257a179.975 179.975 0 0 0-24.253-13.47zm72.597 63.297a141.114 141.114 0 0 0-12.269-17.513c1.885-2.781 3.55-4.873 4.618-5.631a7.5 7.5 0 1 0-8.675-12.236c-1.944 1.378-4.075 3.697-6.23 6.53a162.696 162.696 0 0 0-11.146-10.134c-.699-.579-1.41-1.144-2.119-1.712 11.099-8.757 23.962-15.287 38.39-19.468l8.638 8.639c.902 13.687-.762 32.316-11.207 51.525zm32.646-57.662a4.499 4.499 0 0 1-6.358 0l-2.49-2.49-.01-.01-79.731-79.731a4.5 4.5 0 0 1 .001-6.358c.849-.85 1.978-1.316 3.179-1.316s2.33.467 3.179 1.317l82.231 82.231a4.467 4.467 0 0 1 1.317 3.179 4.47 4.47 0 0 1-1.318 3.178zm1.651-25.921-64.319-64.319c18.315-9.146 40.743-5.615 55.339 8.981 14.595 14.595 18.127 37.024 8.98 55.338zm78.063-76.177h-51.149a7.5 7.5 0 0 0-5.303 2.196l-14.422 14.422a62.508 62.508 0 0 0-5.563-6.387 62.487 62.487 0 0 0-6.386-5.562l19.094-19.094a8.39 8.39 0 0 1 5.974-2.475h57.755v16.9zM96.458 244.55a7.5 7.5 0 1 0 1.964-14.871c-9.741-1.286-29.732.208-38.117 2.304a7.503 7.503 0 0 0 3.639 14.554c6.637-1.662 24.902-2.994 32.514-1.987zm171.435 22.347c7.417 1.969 23.798 10.159 29.305 14.224a7.467 7.467 0 0 0 4.448 1.466 7.5 7.5 0 0 0 4.46-13.534c-6.956-5.135-24.87-14.133-34.364-16.653a7.5 7.5 0 0 0-3.849 14.497zm43.385-20.136a7.5 7.5 0 0 0 1.813-14.779c-8.385-2.096-28.375-3.591-38.117-2.304a7.501 7.501 0 0 0 1.963 14.871c7.61-1.006 25.877.325 32.514 1.985a7.48 7.48 0 0 0 1.827.227zm124.162 36.942c0-11.669-9.494-21.163-21.163-21.163s-21.163 9.494-21.163 21.163 9.494 21.162 21.163 21.162c11.67 0 21.163-9.493 21.163-21.162zm-27.326 0a6.17 6.17 0 0 1 6.163-6.163 6.17 6.17 0 0 1 6.163 6.163 6.17 6.17 0 0 1-6.163 6.162 6.17 6.17 0 0 1-6.163-6.162zm-143.447-111.65a7.497 7.497 0 0 0 10.33-2.405c2.864-4.604 7.673-11.075 11.323-14.538a7.5 7.5 0 0 0-10.325-10.881c-5.489 5.208-11.215 13.447-13.733 17.493a7.5 7.5 0 0 0 2.405 10.331z"/></svg>