<svg xmlns="http://www.w3.org/2000/svg" viewBox="0 0 512 512" style="enable-background:new 0 0 512 512" xml:space="preserve"><path style="fill:#bd4568" d="M337.311 468.633H55.87c-9.044 0-16.375-7.331-16.375-16.375v-46.276c0-9.044 7.331-16.375 16.375-16.375h281.44c9.044 0 16.375 7.331 16.375 16.375v46.276c.001 9.043-7.33 16.375-16.374 16.375z"/><path style="opacity:.1;enable-background:new" d="M83.732 389.607h33.846v79.032H83.732z"/><path style="fill:#eda751" d="M20.461 409.624a12.928 12.928 0 0 1-9.534-4.175c-4.855-5.264-4.525-13.467.739-18.323 27.382-25.259 52.568-28.936 92.937-13.556 21.906 8.341 35.829-6.159 56.152-31.039 4.531-5.546 12.699-6.367 18.246-1.839 5.546 4.53 6.369 12.699 1.839 18.246-15.283 18.707-35.167 43.042-64.119 43.045-6.625 0-13.721-1.273-21.35-4.179-34.536-13.157-48.309-8.048-66.118 8.382a12.927 12.927 0 0 1-8.792 3.438z"/><path style="fill:#fcd79d" d="M19.323 380.588a124.615 124.615 0 0 0-7.657 6.537c-5.264 4.855-5.594 13.059-.738 18.323a12.928 12.928 0 0 0 9.534 4.175c3.143 0 6.297-1.137 8.789-3.436 2.469-2.277 4.859-4.328 7.239-6.152-3.113-8.751-9.936-16.436-17.167-19.447z"/><path style="opacity:.2;fill:#c18f00;enable-background:new" d="M179.001 340.693c-5.547-4.528-13.715-3.708-18.246 1.839-17.096 20.928-29.665 34.509-46.265 33.33 4.907 8.618 11.013 16.544 18.113 23.574 20.621-6.71 35.925-25.425 48.237-40.497 4.529-5.546 3.707-13.715-1.839-18.246z"/><ellipse style="fill:#fcd690" cx="212.134" cy="324.856" rx="95.692" ry="88.922"/><path style="opacity:.15;fill:#c17a00;enable-background:new" d="M198.16 412.833c-43.73-28.711-30.177-87.554-22.753-113.287v-56.82c-34.622 13.384-58.967 45.114-58.967 82.132 0 44.698 35.494 81.69 81.72 87.975z"/><path style="fill:#eda751" d="M153.898 170.668c18.725-15.712 31.228-42.089 4.815-81.081-26.621-39.3-66.255-49.151-97.198-45.506a19.35 19.35 0 0 0-16.239 13.626c-8.963 29.84-6.144 70.582 27.936 103.623 33.814 32.783 61.962 25.05 80.686 9.338z"/><path style="fill:#ff91ab" d="M44.032 62.274c-7.348 29.339-3.193 67.669 29.182 99.057 29.308 28.415 54.354 26.383 72.702 15.109C133.297 90.773 78.171 68.055 44.032 62.274z"/><path style="fill:#eda751" d="M270.371 170.668c-18.725-15.712-31.228-42.089-4.815-81.081 26.621-39.3 66.255-49.151 97.198-45.506a19.35 19.35 0 0 1 16.239 13.626c8.963 29.84 6.144 70.582-27.937 103.623-33.813 32.783-61.96 25.05-80.685 9.338z"/><path style="fill:#ff91ab" d="M380.238 62.274c7.348 29.339 3.193 67.669-29.182 99.057-29.308 28.415-54.354 26.383-72.702 15.109 12.619-85.667 67.745-108.385 101.884-114.166z"/><path style="fill:#ffdc9c" d="M375.054 194.383c0 74.491-72.941 107.117-162.919 107.117s-162.92-32.627-162.92-107.117S122.157 59.505 212.134 59.505c89.978 0 162.92 60.387 162.92 134.878z"/><path style="opacity:.15;fill:#c17a00;enable-background:new" d="M125.145 80.329c-45.627 23.902-75.928 66.046-75.928 114.053 0 64.035 53.902 97.133 126.19 105.163-103.769-61.984-90.236-145.358-50.262-219.216z"/><ellipse style="fill:#ff91ab" cx="147.393" cy="197.304" rx="29.499" ry="23.491"/><ellipse style="fill:#ff91ab" cx="307.286" cy="197.304" rx="29.499" ry="23.491"/><path style="fill:#dee2e5" d="M346.114 261.888c-3.374-28.223-116.311-47.211-153.269 0v160.62h153.269v-160.62z"/><path style="fill:#dee2e5" d="M346.114 261.888c-3.374-28.223-116.311-47.211-153.269 0v160.62h153.269v-160.62zM346.114 261.888c2.922-28.223 100.723-47.211 132.729 0v160.62H346.114v-160.62z"/><path style="fill:#78cfc0" d="M314.429 468.633h-126.7c-11.796 0-21.358-9.562-21.358-21.358V283.246c0-11.796 9.562-21.358 21.358-21.358h126.7v206.745zM483.142 468.633H377.799V261.888h105.343c11.796 0 21.358 9.562 21.358 21.358v164.027c0 11.797-9.562 21.36-21.358 21.36z"/><path style="fill:#78cfc0" d="M314.426 261.885h63.371v206.744h-63.371z"/><path style="opacity:.1;enable-background:new" d="M314.426 261.885h63.371v206.744h-63.371z"/><path style="fill:#fff" d="M215.031 438.434h50.736a5.61 5.61 0 0 0 5.61-5.61v-17.579a5.61 5.61 0 0 0-5.61-5.61h-50.736a5.61 5.61 0 0 0-5.61 5.61v17.579a5.61 5.61 0 0 0 5.61 5.61z"/><path style="fill:#eda751" d="M178.525 375.949c-27.277 3.174-58.967-8.642-74.871-40.689-5.094-10.264-.902-22.714 9.362-27.808 10.263-5.096 22.714-.903 27.808 9.362 9.396 18.938 29.035 20.154 39.204 16.471 10.782-3.897 22.671 1.673 26.572 12.446 3.901 10.775-1.672 22.671-12.446 26.572-4.926 1.784-10.192 3.013-15.629 3.646z"/><path style="fill:#f5d141" d="M346.114 394.1a7.499 7.499 0 0 1-7.5-7.5v-64.291c0-4.142 3.357-7.5 7.5-7.5s7.5 3.358 7.5 7.5V386.6a7.5 7.5 0 0 1-7.5 7.5zM346.114 441.519a7.499 7.499 0 0 1-7.5-7.5v-14.987c0-4.143 3.357-7.5 7.5-7.5s7.5 3.357 7.5 7.5v14.987a7.5 7.5 0 0 1-7.5 7.5z"/><g style="opacity:.1"><path d="M472.709 441.519h-63.12c-4.143 0-7.5-3.357-7.5-7.5s3.357-7.5 7.5-7.5h63.12c4.143 0 7.5 3.357 7.5 7.5s-3.356 7.5-7.5 7.5zM460.064 417.124h-37.829a7.5 7.5 0 0 1 0-15h37.829a7.5 7.5 0 0 1 0 15z"/></g><path d="M153.495 212.533a7.501 7.501 0 0 0-9.174-5.324c-9.278 2.464-26.787 11.258-33.587 16.276a7.498 7.498 0 0 0 4.459 13.534 7.47 7.47 0 0 0 4.448-1.466c5.362-3.957 21.31-11.931 28.529-13.847a7.5 7.5 0 0 0 5.325-9.173zm-14.221-12.622a7.5 7.5 0 0 0 1.967-14.871c-9.521-1.258-29.06.202-37.257 2.251a7.5 7.5 0 0 0-5.457 9.096 7.504 7.504 0 0 0 7.271 5.683c.603 0 1.215-.073 1.825-.226 6.463-1.616 24.247-2.914 31.651-1.933zm88.065-10.54c8.509 0 16.6-3.685 22.198-10.11a7.498 7.498 0 0 0-.728-10.581 7.498 7.498 0 0 0-10.581.728 14.449 14.449 0 0 1-10.89 4.964 14.45 14.45 0 0 1-10.891-4.964 7.498 7.498 0 0 0-10.581-.728 7.5 7.5 0 0 0-.728 10.581 29.445 29.445 0 0 0 22.201 10.11zm255.803 65.016h-.502c-22.692-29.056-68.618-33.4-102.841-24.795-1.171.294-2.315.606-3.445.926 4.117-11.109 6.199-23.195 6.199-36.135 0-16.471-3.321-32.5-9.684-47.565 17.839-26.946 22.712-59.953 13.305-91.269a26.804 26.804 0 0 0-22.543-18.916c-31.173-3.673-61.875 5.991-84.99 26.581-20.766-7.344-43.285-11.208-66.506-11.208s-45.74 3.864-66.507 11.208C122.516 42.625 91.82 32.959 60.639 36.633A26.8 26.8 0 0 0 38.095 55.55c-9.407 31.315-4.534 64.322 13.305 91.268-6.362 15.065-9.683 31.094-9.683 47.565 0 26.463 8.582 49.127 25.51 67.365 11.989 12.917 27.947 23.332 47.549 31.106a91.812 91.812 0 0 0-2.216 6.648c-.973.357-1.934.764-2.876 1.232-6.759 3.354-11.807 9.139-14.214 16.29-2.408 7.15-1.887 14.81 1.468 21.569 5.846 11.78 13.478 20.85 22.004 27.678.317.621.622 1.247.953 1.861-3.964.716-8.008.185-12.622-1.571-42.973-16.37-71.204-12.15-100.693 15.052-8.295 7.651-8.818 20.625-1.168 28.919a20.521 20.521 0 0 0 15.048 6.592 20.38 20.38 0 0 0 11.534-3.586v38.72c0 13.165 10.71 23.875 23.875 23.875H483.14c15.912 0 28.859-12.946 28.859-28.859V283.246c.001-15.912-12.945-28.859-28.857-28.859zm-99.685-10.248c25.764-6.476 57.677-4.324 77.702 10.248H359.802c5.021-3.791 12.993-7.567 23.655-10.248zM364.87 131.026c-8.234-13.835-19.223-26.595-32.751-37.794-.624-.516-1.259-1.02-1.89-1.527 14.926-11.687 31.103-17.622 44.181-20.622 2.477 14.618 2.853 36.956-9.54 59.943zm-2.995-79.496a11.811 11.811 0 0 1 8.4 5.112c-15.594 3.672-34.985 11.075-52.581 25.922a175.612 175.612 0 0 0-23.271-12.941c26.561-20.166 55.424-19.509 67.452-18.093zm-299.481 0c12.025-1.417 40.892-2.073 67.452 18.093a175.499 175.499 0 0 0-23.271 12.941C88.98 67.718 69.589 60.315 53.995 56.642a11.806 11.806 0 0 1 8.399-5.112zM49.861 71.082c13.078 3.001 29.256 8.936 44.181 20.623-.632.507-1.267 1.011-1.89 1.527-13.527 11.199-24.516 23.958-32.751 37.794-12.394-22.988-12.018-45.326-9.54-59.944zm6.855 123.302c0-70.235 69.721-127.377 155.419-127.377s155.418 57.142 155.418 127.377c0 16.889-4.084 31.98-12.12 44.894-3.836 2.328-7.082 4.879-9.667 7.609-6.557-6.206-17.041-11.45-30.932-15.334-41.575-11.619-98.694-7.322-125.488 22.836h-1.617c-15.912 0-28.859 12.945-28.859 28.858v41.769c-4.37-2.116-8.458-5.752-11.326-11.534-3.355-6.759-9.14-11.808-16.291-14.215a29.03 29.03 0 0 0-2.572-.732c.089-.24.185-.476.276-.715 1.051.323 2.094.651 3.163.961a7.53 7.53 0 0 0 2.091.298 7.501 7.501 0 0 0 2.083-14.706c-36.304-10.522-79.578-34.672-79.578-89.989zM39.193 389.216c-5.111 2.934-9.982 6.803-15.028 11.459a5.45 5.45 0 0 1-3.704 1.448 5.407 5.407 0 0 1-4.021-1.76 5.433 5.433 0 0 1-1.444-3.928 5.429 5.429 0 0 1 1.756-3.797c25.21-23.258 47.504-26.413 85.182-12.06 9.318 3.549 18.055 3.785 26.536.701a99.286 99.286 0 0 0 7.618 8.709c-6.372 3.012-12.769 4.494-19.367 4.495-5.971 0-12.256-1.241-18.681-3.688-27.417-10.446-43.751-9.922-58.043-2.034a7.6 7.6 0 0 0-.804.455zm16.677 71.917c-4.893 0-8.875-3.981-8.875-8.875v-46.276c0-2.011.642-3.585 1.362-4.72 10.214-5.12 22.231-4.871 44.342 3.553 8.137 3.1 16.219 4.671 24.021 4.671 10.927-.002 21.277-2.943 31.492-8.958a103.69 103.69 0 0 0 10.657 6.921v39.826c0 5.02 1.291 9.743 3.554 13.858H55.87zm92.468-80.115a85.336 85.336 0 0 0 10.531 2.111v6.59a87.291 87.291 0 0 1-10.531-8.701zm-37.967-49.092a13.168 13.168 0 0 1-.688-10.115 13.162 13.162 0 0 1 6.667-7.641 13.185 13.185 0 0 1 5.875-1.388c1.423 0 2.852.232 4.239.699a13.162 13.162 0 0 1 7.64 6.666c7.26 14.634 19.541 20.647 30.797 21.97.458.091.931.14 1.416.143 6.146.514 11.903-.343 16.259-1.92 6.872-2.489 14.483 1.081 16.97 7.944 2.486 6.869-1.078 14.48-7.946 16.967-4.391 1.589-9.082 2.682-13.943 3.247-21.426 2.493-51.907-5.586-67.286-36.572zm196.558 129.207h-119.2c-7.642 0-13.858-6.217-13.858-13.858v-63.443a77.448 77.448 0 0 0 5.521-.431c6.011-.7 11.836-2.06 17.314-4.044 14.645-5.301 22.246-21.529 16.944-36.178-5.299-14.638-21.529-22.238-36.178-16.943a20.443 20.443 0 0 1-3.604.918v-43.906c0-7.641 6.217-13.857 13.858-13.857h119.2v191.743h.003zm7.5-206.746-.011.001H212.437c27.072-17.051 70.997-16.038 98.358-8.39 8.939 2.499 15.629 5.475 20.224 8.389h-16.59zM497 447.274c0 7.642-6.217 13.858-13.858 13.858h-97.843v-29.071a7.5 7.5 0 0 0-7.5-7.5 7.5 7.5 0 0 0-7.5 7.5v29.071H321.93V269.388H370.298V397.7c0 4.143 3.357 7.5 7.5 7.5s7.5-3.357 7.5-7.5V269.388h93.535l.016.001.013-.001h4.279c7.642 0 13.858 6.217 13.858 13.858L497 447.274zM290.092 181.372a7.5 7.5 0 0 0 7.5-7.5v-10.417c0-4.143-3.357-7.5-7.5-7.5a7.499 7.499 0 0 0-7.5 7.5v10.417a7.5 7.5 0 0 0 7.5 7.5zm-125.508 0a7.5 7.5 0 0 0 7.5-7.5v-10.417c0-4.143-3.357-7.5-7.5-7.5a7.499 7.499 0 0 0-7.5 7.5v10.417a7.5 7.5 0 0 0 7.5 7.5zm141.921 40.335c7.221 1.917 23.168 9.89 28.529 13.847a7.467 7.467 0 0 0 4.448 1.466 7.5 7.5 0 0 0 4.46-13.534c-6.798-5.019-24.307-13.813-33.588-16.276a7.5 7.5 0 1 0-3.849 14.497zm8.898-21.796c7.406-.979 25.187.316 31.651 1.933.61.152 1.223.226 1.825.226a7.505 7.505 0 0 0 7.271-5.683 7.5 7.5 0 0 0-5.457-9.096c-8.196-2.049-27.732-3.507-37.257-2.251-4.105.543-6.995 4.313-6.452 8.419s4.315 6.995 8.419 6.452z"/></svg>