<svg xmlns="http://www.w3.org/2000/svg" viewBox="0 0 512 512" style="enable-background:new 0 0 512 512" xml:space="preserve"><path style="fill:#eda751" d="M107.377 487.642c-5.306 0-10.326-3.179-12.417-8.407-6.151-15.378-5.281-32.178 2.328-44.943 5.598-9.392 17.537-21.197 42.618-24.098 28.713-3.323 37.364-14.18 53.067-33.889a775.624 775.624 0 0 1 6.052-7.53c4.671-5.719 13.093-6.567 18.812-1.896 5.718 4.672 6.567 13.094 1.895 18.812-2.039 2.496-3.973 4.924-5.846 7.275-16.758 21.034-31.23 39.198-70.906 43.789-11.425 1.322-19.071 5.1-22.724 11.228-3.97 6.66-2.845 15.381-.469 21.321 2.742 6.856-.592 14.636-7.448 17.379-1.629.651-3.31.959-4.962.959z"/><path style="fill:#fcd79d" d="M112.337 486.683c6.856-2.743 10.19-10.523 7.448-17.379a30.755 30.755 0 0 1-1.634-5.665c-9.887-.485-19.852 2.161-26.121 5.777a57.407 57.407 0 0 0 2.928 9.819c2.091 5.228 7.111 8.407 12.417 8.407 1.654 0 3.335-.308 4.962-.959z"/><path style="opacity:.2;fill:#a35f00;enable-background:new" d="M217.835 366.88c-5.719-4.671-14.141-3.823-18.812 1.896a775.624 775.624 0 0 0-6.052 7.53c-12.716 15.96-20.811 26.114-38.676 31.164a113.323 113.323 0 0 0 18.108 21.861c19.05-8.233 29.708-21.586 41.481-36.364a764.926 764.926 0 0 1 5.846-7.275c4.671-5.719 3.823-14.14-1.895-18.812z"/><path style="fill:#82c7e6" d="M212.048 281.844 59.105 268.463c-19.645-1.719-37.469 12.508-39.27 32.146-1.465 15.979 7.863 30.429 21.959 36.195 2.14.875 3.225 3.329 2.433 5.501-4.215 11.564-2.311 24.997 6.169 35.103 9.78 11.655 25.438 15.465 39 10.735 2.102-.733 4.387.176 5.44 2.137 5.477 10.201 15.933 17.162 28.352 18.824 43.03 5.76 66.917-4.447 92.191-49.767s-3.331-77.493-3.331-77.493zM299.952 281.844l152.943-13.381c19.645-1.719 37.469 12.508 39.27 32.146 1.465 15.979-7.863 30.429-21.96 36.195-2.14.875-3.225 3.329-2.433 5.501 4.215 11.564 2.311 24.997-6.169 35.103-9.78 11.655-25.438 15.465-39 10.735-2.102-.733-4.387.176-5.44 2.137-5.477 10.201-15.933 17.162-28.352 18.824-43.031 5.76-66.917-4.447-92.191-49.767-25.273-45.32 3.332-77.493 3.332-77.493z"/><path style="opacity:.1;enable-background:new" d="M436.01 281.063a116.845 116.845 0 0 0 6.221-11.667l-142.28 12.448s-28.605 32.173-3.331 77.493c20.739 37.188 40.552 50.723 70.766 51.204 10.704-17.7 16.829-38.18 16.829-59.988 0-7.121-.659-14.099-1.91-20.887a165.389 165.389 0 0 0 7.532-4.187c19.851-11.761 35.385-26.705 46.173-44.416zM69.768 269.396a116.845 116.845 0 0 0 6.221 11.667c10.788 17.711 26.323 32.655 46.173 44.415a165.389 165.389 0 0 0 7.532 4.187 115.052 115.052 0 0 0-1.91 20.887c0 21.808 6.125 42.288 16.829 59.988 30.214-.481 50.027-14.016 70.766-51.204 25.274-45.32-3.331-77.493-3.331-77.493l-142.28-12.447z"/><path style="fill:#eda751" d="M221.39 504.5c-10.659 0-19.885-7.956-21.207-18.805-3.066-25.15-.214-58.575 1.758-76.261 1.31-11.742 11.889-20.201 23.631-18.888 11.741 1.31 20.197 11.889 18.888 23.63-2.961 26.545-3.637 51.346-1.81 66.343 1.429 11.726-6.918 22.393-18.645 23.822-.878.107-1.752.159-2.615.159zM290.61 504.5c-.863 0-1.736-.052-2.615-.159-11.727-1.43-20.074-12.096-18.645-23.822 1.828-14.997 1.151-39.798-1.81-66.343-1.309-11.741 7.147-22.321 18.888-23.63 11.738-1.318 22.32 7.146 23.631 18.888 1.972 17.686 4.824 51.111 1.758 76.261-1.322 10.848-10.549 18.805-21.207 18.805zM148.742 363.883c-22.204 0-50.017-4.94-70.375-25.3-8.354-8.354-8.354-21.897 0-30.251 8.353-8.353 21.898-8.354 30.251.001 7.105 7.103 29.886 18.335 65.26 9.997 11.499-2.707 23.018 4.415 25.727 15.913 2.71 11.5-4.414 23.018-15.913 25.729-4.854 1.142-18.332 3.911-34.95 3.911zM363.258 363.883c-16.621 0-30.095-2.768-34.951-3.913-11.499-2.711-18.623-14.229-15.913-25.729 2.71-11.498 14.227-18.617 25.727-15.913 15.47 3.646 49.015 6.249 65.26-9.997 8.354-8.354 21.898-8.354 30.251-.001 8.354 8.354 8.354 21.897 0 30.251-20.355 20.36-48.171 25.302-70.374 25.302z"/><path style="opacity:.2;fill:#a35f00;enable-background:new" d="M312.954 448.166c-.505-14.982-1.828-29.162-2.896-38.732-1.31-11.742-11.892-20.207-23.631-18.888-11.741 1.31-20.197 11.889-18.888 23.63 1.906 17.087 2.864 33.446 2.818 46.938 15.281-1.747 29.672-6.243 42.597-12.948zM225.572 390.546c-11.742-1.313-22.32 7.146-23.631 18.888-1.067 9.57-2.39 23.75-2.896 38.732 12.925 6.705 27.316 11.201 42.596 12.948-.046-13.492.912-29.851 2.818-46.938 1.31-11.741-7.146-22.321-18.887-23.63zM370.074 320.815c-12.219.863-24.298-.681-31.952-2.485-11.5-2.704-23.017 4.415-25.728 15.913-2.71 11.5 4.414 23.018 15.913 25.729 4.856 1.145 18.33 3.913 34.951 3.913 3.322 0 6.771-.114 10.301-.37a104.97 104.97 0 0 0-3.485-42.7zM173.878 318.329c-12.205 2.877-22.909 3.423-31.989 2.614a104.992 104.992 0 0 0-3.448 42.569c3.529.256 6.979.37 10.301.37 16.618 0 30.096-2.769 34.951-3.913 11.499-2.711 18.623-14.229 15.913-25.729-2.71-11.496-14.229-18.618-25.728-15.911z"/><ellipse style="fill:#fcd690" cx="256" cy="350.55" rx="98.66" ry="91.68"/><path style="opacity:.15;fill:#c17a00;enable-background:new" d="M241.592 441.256c-45.086-29.601-31.113-90.268-23.459-116.8v-58.582c-35.695 13.799-60.795 46.513-60.795 84.678 0 46.086 36.595 84.224 84.254 90.704z"/><path style="fill:#eda751" d="M195.958 191.582c19.306-16.2 32.196-43.394 4.965-83.595-27.446-40.518-68.309-50.675-100.211-46.917a19.951 19.951 0 0 0-16.743 14.049c-9.241 30.765-6.335 72.771 28.802 106.836 34.861 33.798 63.881 25.826 83.187 9.627z"/><path style="fill:#ff91ab" d="M82.685 79.827c-7.576 30.248-3.292 69.768 30.086 102.128 30.217 29.295 56.039 27.202 74.957 15.577-13.011-88.323-69.846-111.745-105.043-117.705z"/><path style="fill:#eda751" d="M316.042 191.582c-19.306-16.2-32.196-43.394-4.965-83.595 27.446-40.518 68.309-50.675 100.211-46.917a19.949 19.949 0 0 1 16.742 14.049c9.241 30.765 6.335 72.771-28.802 106.836-34.86 33.798-63.88 25.826-83.186 9.627z"/><path style="fill:#ff91ab" d="M429.315 79.827c7.576 30.248 3.292 69.768-30.086 102.128-30.217 29.295-56.039 27.202-74.957 15.577 13.011-88.323 69.846-111.745 105.043-117.705z"/><path style="fill:#ffdc9c" d="M423.971 216.032c0 76.801-75.203 110.439-167.971 110.439S88.029 292.833 88.029 216.032 163.232 76.972 256 76.972s167.971 62.26 167.971 139.06z"/><path style="opacity:.15;fill:#c17a00;enable-background:new" d="M166.312 98.442c-47.042 24.644-78.283 68.094-78.283 117.59 0 66.02 55.573 100.144 130.104 108.424-106.987-63.906-93.034-149.866-51.821-226.014z"/><ellipse style="fill:#ff91ab" cx="173.57" cy="219.27" rx="30.413" ry="24.22"/><ellipse style="fill:#ff91ab" cx="338.421" cy="219.27" rx="30.413" ry="24.22"/><ellipse style="fill:#ff91ab" cx="256" cy="208.49" rx="17.06" ry="20.16"/><path d="M256 55.831c22.914 0 44.542-2.199 60.898-6.193 20.327-4.964 30.208-12.069 30.208-21.723C347.106.783 265.326 0 256 0c-22.914 0-44.541 2.199-60.898 6.193-20.327 4.964-30.208 12.069-30.208 21.722 0 27.133 81.781 27.916 91.106 27.916zm-53.451-35.953C217.276 16.732 236.258 15 256 15s38.724 1.732 53.451 4.878c13.737 2.934 19.898 6.261 22.017 8.037-2.119 1.776-8.279 5.104-22.016 8.038-14.727 3.146-33.71 4.878-53.452 4.878s-38.725-1.733-53.452-4.878c-13.737-2.934-19.897-6.262-22.016-8.038 2.119-1.776 8.28-5.103 22.017-8.037zm297.085 280.046c-2.161-23.564-23.419-41.029-47.393-38.933l-31.88 2.789c7.336-14.184 11.109-30.201 11.109-47.748 0-16.992-3.434-33.527-10.014-49.064 18.41-27.742 23.447-61.746 13.757-94.006a27.402 27.402 0 0 0-23.048-19.34c-32.125-3.786-63.752 6.193-87.544 27.438-21.42-7.593-44.657-11.588-68.621-11.588s-47.2 3.995-68.622 11.589c-23.792-21.245-55.419-31.222-87.544-27.438a27.4 27.4 0 0 0-23.048 19.34c-9.69 32.26-4.652 66.264 13.757 94.006-6.58 15.537-10.014 32.072-10.014 49.064 0 17.652 3.68 33.607 10.978 47.737l-31.749-2.778c-23.977-2.082-45.231 15.367-47.393 38.933-1.651 18.009 7.87 34.773 23.901 42.616-3.954 13.714-.854 28.679 8.384 39.689 10.899 12.989 28.638 18.344 44.82 13.751 4.481 7.247 11.187 12.995 19.144 16.636-8.778 5.407-14.318 12.047-17.77 17.836-8.796 14.758-9.862 34.036-2.849 51.568 3.188 7.972 10.796 13.122 19.381 13.122 2.656 0 5.261-.503 7.746-1.496 10.684-4.274 15.899-16.443 11.626-27.127-1.633-4.081-2.626-10.379-.053-14.695 2.982-5.003 10.969-6.904 17.143-7.619 18.631-2.156 33.443-7.306 46.099-16.074.851.634 1.708 1.26 2.58 1.869-1.202 16.618-1.976 38.593.22 56.602C194.503 501.082 206.821 512 221.39 512c1.159 0 2.339-.071 3.523-.214 15.813-1.929 27.109-16.362 25.182-32.175-.913-7.486-1.17-17.983-.762-30.08 2.206.128 4.427.201 6.667.201s4.461-.073 6.667-.201c.408 12.096.15 22.593-.762 30.08-1.928 15.813 9.369 30.246 25.197 32.177 1.17.141 2.351.212 3.508.212 11.597 0 22.023-6.9 26.563-17.58a7.5 7.5 0 1 0-13.804-5.867A13.843 13.843 0 0 1 290.611 497a14.4 14.4 0 0 1-1.707-.103c-7.604-.928-13.035-7.868-12.108-15.472 1.053-8.64 1.328-20.219.817-33.762a110.314 110.314 0 0 0 27.391-9.15c.47 8.224.695 15.957.66 23.071a7.499 7.499 0 0 0 7.462 7.538h.039a7.5 7.5 0 0 0 7.499-7.462c.048-9.606-.35-20.241-1.178-31.661a104.194 104.194 0 0 0 19.135-17.241c8.918 3.553 18.82 5.291 30.505 5.291 6.331 0 13.186-.509 20.684-1.513 13.813-1.849 25.864-9.466 32.723-20.556 16.184 4.592 33.921-.764 44.82-13.752 9.239-11.011 12.339-25.975 8.384-39.689 16.029-7.842 25.548-24.606 23.897-42.615zm-86.153-148.736c-8.499-14.38-19.883-27.638-33.925-39.263-.717-.594-1.446-1.174-2.173-1.756 15.575-12.266 32.491-18.446 46.109-21.543 2.611 15.181 3.071 38.546-10.011 62.562zm-3.07-82.669a12.402 12.402 0 0 1 9.008 5.654c-16.144 3.763-36.304 11.406-54.57 26.864a180.853 180.853 0 0 0-24.462-13.584c27.534-21.086 57.544-20.403 70.024-18.934zm-308.822 0c12.476-1.468 42.489-2.153 70.024 18.933a180.853 180.853 0 0 0-24.462 13.584c-18.265-15.457-38.426-23.101-54.571-26.864a12.405 12.405 0 0 1 9.009-5.653zM88.508 88.626c13.618 3.097 30.535 9.277 46.109 21.543-.727.582-1.456 1.162-2.173 1.756-14.042 11.625-25.426 24.883-33.925 39.263-13.081-24.016-12.622-47.381-10.011-62.562zm12.935 298.104c-2.813-5.238-8.92-7.622-14.518-5.67-10.952 3.82-23.325.416-30.785-8.474-6.437-7.671-8.302-18.29-4.868-27.713a11.8 11.8 0 0 0-6.639-15.012c-11.501-4.705-18.466-16.186-17.331-28.569 1.408-15.362 15.389-26.737 31.148-25.358l43.472 3.804c3.813 4.748 8.128 9.235 12.95 13.448 9.17 8.01 19.998 14.872 32.384 20.577-22.885-.6-33.216-10.612-33.336-10.733-5.457-5.458-12.712-8.464-20.43-8.464-7.717 0-14.972 3.006-20.429 8.462-11.264 11.265-11.264 29.593 0 40.857 17.987 17.989 44.157 27.497 75.679 27.497 1.131 0 2.291-.03 3.446-.055 2.354 10.278 6.414 19.972 11.895 28.806-10.565 3.299-23.272 3.761-39.9 1.537-10.077-1.349-18.365-6.794-22.738-14.94zm48.582-30.368c-.425.004-.862.021-1.283.021-19.146 0-45.978-4.008-65.072-23.103-5.416-5.417-5.416-14.229 0-19.645a13.8 13.8 0 0 1 9.822-4.069c3.71 0 7.199 1.445 9.823 4.07 4.784 4.783 12.71 9.063 21.746 11.741 8.489 2.516 17.654 3.633 27.355 3.357a93.095 93.095 0 0 0-2.391 27.628zm-7.909 72.943c-13.868 1.605-23.39 6.598-28.304 14.839-6.756 11.335-2.466 24.256-.99 27.946a5.877 5.877 0 0 1-5.446 8.053 5.845 5.845 0 0 1-5.454-3.692c-5.289-13.223-4.613-27.548 1.807-38.318 4.517-7.577 14.196-17.186 34.65-20.167 1.528.055 3.029.085 4.498.085 11.683 0 21.587-1.738 30.505-5.291a102.851 102.851 0 0 0 4.767 5.147c-9.914 6.051-21.579 9.725-36.033 11.398zm80.995 67.591a13.88 13.88 0 0 1-15.483-12.107c-1.747-14.332-1.462-31.624-.629-46.273a110.3 110.3 0 0 0 27.389 9.15c-.511 13.542-.236 25.121.817 33.762.927 7.601-4.504 14.542-12.094 15.468zM256 434.732c-50.267 0-91.162-37.763-91.162-84.18a77.896 77.896 0 0 1 4.973-27.477l.038-.102c.072-.191.141-.382.215-.573 9.198 2.83 19.022 5.174 29.492 6.995a7.5 7.5 0 0 0 2.57-14.778c-12.067-2.099-23.185-4.906-33.344-8.39a7.59 7.59 0 0 0-1.083-.367c-17.206-6.024-31.586-14.038-42.958-23.972-19.384-16.933-29.212-39.09-29.212-65.857 0-72.543 71.987-131.56 160.471-131.56s160.471 59.018 160.471 131.56c0 19.877-5.371 37.133-16.019 51.618-.213.247-.41.507-.59.78-7.273 9.652-16.913 18.06-28.912 25.17-8.125 4.814-17.243 8.964-27.236 12.438-.08.027-.16.052-.239.082-24.421 8.451-54.082 12.851-87.475 12.851a355.54 355.54 0 0 1-20.181-.563 7.5 7.5 0 0 0-.854 14.976c6.829.389 13.906.586 21.034.586 32.168 0 61.217-3.957 85.931-11.584.068.176.132.353.199.529.012.032.023.066.036.098a77.876 77.876 0 0 1 4.996 27.538c.001 46.42-40.894 84.182-91.161 84.182zm103.529-106.221c5.91.171 12.62-.064 19.432-1.176 12.704-2.071 22.704-6.681 29.723-13.7a13.803 13.803 0 0 1 9.823-4.068c3.71 0 7.198 1.444 9.822 4.068 5.415 5.415 5.415 14.228 0 19.645-19.094 19.095-45.926 23.103-65.072 23.103-.42 0-.858-.017-1.283-.021a93.023 93.023 0 0 0-2.445-27.851zm107.838 1.35a11.802 11.802 0 0 0-6.64 15.012c3.434 9.424 1.569 20.043-4.868 27.714-7.458 8.891-19.829 12.295-30.784 8.475-5.598-1.956-11.705.432-14.519 5.67-4.373 8.145-12.661 13.59-22.739 14.938-16.63 2.227-29.336 1.764-39.901-1.536 5.481-8.834 9.541-18.528 11.896-28.807 1.155.026 2.315.055 3.446.055 31.522 0 57.691-9.508 75.679-27.497 11.264-11.265 11.263-29.593-.001-40.856-5.456-5.457-12.711-8.463-20.429-8.462-7.717 0-14.973 3.005-20.429 8.463-8.061 8.061-21.767 10.221-32.844 10.476 4.677-2.17 9.14-4.501 13.361-7.002 12.693-7.52 23.18-16.499 31.384-26.757l43.569-3.812c15.76-1.373 29.739 9.996 31.148 25.358 1.136 12.384-5.828 23.864-17.329 28.568zM303.973 191.37c3.114 2.411 7.819 6.056 16.727 6.056 8.906 0 13.612-3.644 16.727-6.056a7.499 7.499 0 0 0 1.338-10.521 7.499 7.499 0 0 0-10.522-1.338c-2.348 1.817-3.765 2.915-7.543 2.915s-5.195-1.098-7.542-2.915a7.497 7.497 0 0 0-10.522 1.338 7.499 7.499 0 0 0 1.337 10.521zM256 236.148c13.541 0 24.558-12.408 24.558-27.66s-11.017-27.66-24.558-27.66-24.558 12.408-24.558 27.66 11.017 27.66 24.558 27.66zm0-40.32c5.181 0 9.558 5.798 9.558 12.66s-4.377 12.66-9.558 12.66-9.558-5.798-9.558-12.66 4.377-12.66 9.558-12.66zm120.081 50.622c-6.993-5.162-25.004-14.209-34.55-16.744a7.5 7.5 0 0 0-3.85 14.498c7.465 1.981 23.95 10.224 29.492 14.314a7.492 7.492 0 0 0 10.488-1.58 7.498 7.498 0 0 0-1.58-10.488zm-177.238-66.939c-2.348 1.817-3.765 2.915-7.542 2.915-3.778 0-5.195-1.098-7.543-2.915a7.5 7.5 0 0 0-9.184 11.859c3.114 2.412 7.82 6.056 16.727 6.056 8.906 0 13.612-3.644 16.726-6.056a7.499 7.499 0 0 0 1.338-10.521 7.498 7.498 0 0 0-10.522-1.338zm139.503 35.762c.543 4.107 4.307 7.001 8.418 6.453 7.661-1.011 26.04.327 32.72 1.997a7.555 7.555 0 0 0 1.825.226 7.503 7.503 0 0 0 7.27-5.683 7.5 7.5 0 0 0-5.457-9.096c-8.431-2.108-28.53-3.608-38.325-2.315a7.5 7.5 0 0 0-6.451 8.418zm-167.877 14.433c-9.545 2.534-27.556 11.581-34.551 16.744a7.5 7.5 0 0 0 4.46 13.535 7.469 7.469 0 0 0 4.448-1.467c5.542-4.091 22.028-12.333 29.492-14.314a7.5 7.5 0 0 0-3.849-14.498zm-5.234-7.979c4.105.547 7.875-2.346 8.418-6.453a7.5 7.5 0 0 0-6.453-8.418c-9.793-1.293-29.893.208-38.325 2.315a7.5 7.5 0 0 0-5.457 9.096 7.503 7.503 0 0 0 7.27 5.683 7.5 7.5 0 0 0 1.825-.226c6.683-1.672 25.066-3.011 32.722-1.997z"/></svg>