<svg xmlns="http://www.w3.org/2000/svg" viewBox="0 0 512.003 512.003" style="enable-background:new 0 0 512.003 512.003" xml:space="preserve"><path style="fill:#eda751" d="M91.213 414.288c-1.598 0-3.224-.266-4.819-.825-7.571-2.662-11.551-10.957-8.89-18.529 4.601-13.09 14.696-23.171 28.423-28.387 19.904-7.565 45.257-4.606 67.821 7.914 9.771 5.423 17.326 5.409 26.071-.042 9.659-6.02 19.294-17.87 28.609-29.329l2.851-3.501c5.08-6.216 14.235-7.135 20.448-2.061 6.216 5.078 7.137 14.233 2.061 20.448l-2.808 3.448c-10.821 13.311-22.012 27.075-35.789 35.661-17.805 11.094-36.492 11.361-55.543.791-14.718-8.166-31.751-10.587-43.398-6.16-5.753 2.185-9.564 5.839-11.328 10.858-2.1 5.975-7.713 9.714-13.709 9.714z"/><path style="opacity:.2;fill:#a35f00;enable-background:new" d="M251.728 339.528c-6.212-5.075-15.367-4.155-20.448 2.061l-2.851 3.501c-9.316 11.46-18.951 23.31-28.609 29.329-8.746 5.45-16.3 5.465-26.071.042-11.12-6.17-22.917-10.013-34.406-11.424l52.202 44.37c8.02-.734 15.917-3.507 23.646-8.324 13.778-8.586 24.967-22.35 35.789-35.661l2.808-3.448c5.077-6.214 4.156-15.368-2.06-20.446z"/><path style="fill:#fcd79d" d="M83.547 383.368a45.494 45.494 0 0 0-6.043 11.567c-2.661 7.572 1.319 15.867 8.891 18.529 1.595.56 3.221.825 4.819.825 5.995 0 11.608-3.74 13.71-9.716a16.412 16.412 0 0 1 3.861-6.161c-6.016-9.247-17.121-13.556-25.238-15.044z"/><path style="fill:#eda751" d="M237.41 489.116c-2.573 0-5.186-.43-7.749-1.336-12.107-4.28-18.452-17.564-14.172-29.67 7.897-22.336 15.127-46.854 8.876-59.354-5.742-11.486-1.088-25.451 10.398-31.193 11.488-5.742 25.45-1.087 31.193 10.398 13.219 26.438 6.912 57.357-6.625 95.648-3.374 9.543-12.345 15.507-21.921 15.507z"/><path style="opacity:.2;fill:#a35f00;enable-background:new" d="M234.762 367.562c-11.486 5.742-16.14 19.709-10.398 31.193 4.037 8.073 2.448 21.161-1.309 35.433l38.569 32.782c11.911-35.251 16.778-64.119 4.331-89.011-5.742-11.484-19.705-16.139-31.193-10.397z"/><path style="fill:#eda751" d="M364.697 488.729c-2.571 0-5.187-.43-7.75-1.336-12.107-4.28-18.452-17.564-14.172-29.67 4.287-12.127 2.349-24.107-.032-32.023-3.049-10.138-7.82-17.001-9.643-18.724-10.157-7.595-12.365-21.967-4.893-32.267 7.538-10.395 22.079-12.71 32.472-5.171 17.88 12.968 41.838 58.706 25.937 103.685-3.373 9.543-12.342 15.506-21.919 15.506zm-31.328-81.557.01.007-.01-.007z"/><ellipse style="fill:#fcd690" cx="294.374" cy="322.943" rx="107.238" ry="99.648"/><path style="opacity:.15;fill:#c17a00;enable-background:new" d="M278.713 421.532c-49.005-32.173-33.817-98.115-25.498-126.952v-63.674c-38.798 14.999-66.08 50.556-66.08 92.039 0 50.09 39.776 91.543 91.578 98.587z"/><path style="fill:#eda751" d="M229.112 150.156c20.985-17.608 34.994-47.166 5.396-90.861-29.832-44.04-74.247-55.08-108.921-50.995a21.683 21.683 0 0 0-18.198 15.27c-10.044 33.439-6.885 79.096 31.305 116.123 37.892 36.735 69.434 28.07 90.418 10.463z"/><path style="fill:#ff91ab" d="M105.992 28.686c-8.235 32.877-3.578 75.832 32.701 111.006 32.843 31.841 60.911 29.566 81.472 16.932-14.14-96.001-75.916-121.459-114.173-127.938z"/><path style="fill:#eda751" d="M359.634 150.156c-20.984-17.608-34.994-47.166-5.396-90.861C384.069 15.255 428.484 4.215 463.16 8.3a21.683 21.683 0 0 1 18.198 15.27c10.044 33.439 6.885 79.096-31.305 116.123-37.893 36.735-69.435 28.07-90.419 10.463z"/><path style="fill:#ff91ab" d="M482.753 28.686c8.235 32.877 3.579 75.832-32.701 111.006-32.843 31.841-60.911 29.566-81.472 16.932 14.141-96.001 75.917-121.459 114.173-127.938z"/><path style="fill:#ffdc9c" d="M476.944 176.731c0 83.476-81.74 120.038-182.571 120.038s-182.571-36.562-182.571-120.038S193.541 25.583 294.373 25.583c100.831 0 182.571 67.672 182.571 151.148z"/><path style="opacity:.15;fill:#c17a00;enable-background:new" d="M196.889 48.92c-51.131 26.785-85.087 74.012-85.087 127.811 0 71.759 60.404 108.849 141.413 117.848-116.287-69.461-101.121-162.893-56.326-245.659z"/><ellipse style="fill:#ff91ab" cx="225.886" cy="195.796" rx="33.059" ry="26.324"/><ellipse style="fill:#ff91ab" cx="405.062" cy="195.796" rx="33.059" ry="26.324"/><path transform="scale(-1) rotate(-49.998 -508.729 243.835)" style="fill:#495059" d="M49.456 212.172H177.93v50.068H49.456z"/><path style="fill:#ff91ab" d="m135.811 171.897-82.582 98.418-24.547-20.598c-12.11-10.162-13.69-28.216-3.528-40.326l45.784-54.564c10.162-12.11 28.216-13.69 40.326-3.528l24.547 20.598z"/><path style="fill:#f5d141" d="m91.585 302.5 206.359 175.395a66.569 66.569 0 0 0 33.593 14.935l82.879 11.557c8.337 1.163 15.018-6.799 12.425-14.807l-25.772-79.613a66.553 66.553 0 0 0-20.542-30.489l-206.36-175.395L91.585 302.5z"/><path transform="scale(-1) rotate(40.002 951.874 -670.13)" style="opacity:.1;enable-background:new" d="M98.948 338.966h289.936v14.999H98.948z"/><path style="fill:#ffdc9c" d="M314.406 488.033a66.551 66.551 0 0 0 17.132 4.799l82.879 11.557c8.337 1.163 15.018-6.799 12.425-14.807l-25.773-79.612a66.567 66.567 0 0 0-7.701-16.039l-78.962 94.102z"/><path style="fill:#495059" d="m376.185 499.056 38.231 5.331c8.337 1.163 15.018-6.799 12.425-14.807l-11.889-36.724-38.767 46.2z"/><path style="opacity:.1;enable-background:new" d="M414.417 504.387c3.786.528 7.218-.836 9.607-3.221C205.369 405.262 68.968 235.077 45.769 184.821l-20.617 24.57c-10.162 12.11-8.582 30.164 3.528 40.326l24.547 20.598L91.585 302.5l206.359 175.395a66.569 66.569 0 0 0 33.593 14.935l82.88 11.557z"/><path style="fill:#eda751" d="M132.019 351.787c-3.683 0-7.419-.878-10.898-2.727-11.337-6.031-15.64-20.109-9.61-31.445 1.394-2.621 8.861-16.318 18.951-28.562 8.166-9.91 22.82-11.323 32.728-3.157 9.91 8.166 11.323 22.819 3.157 32.728-6.022 7.308-11.496 16.53-13.781 20.827-4.179 7.858-12.227 12.336-20.547 12.336zM326.451 358.613h-.143c-12.841-.035-23.221-10.473-23.187-23.314.035-12.819 10.439-23.187 23.249-23.187h.104c9.289 0 34.956-8.943 46.801-19.179 9.716-8.396 24.397-7.326 32.794 2.39 8.395 9.716 7.326 24.397-2.39 32.794-18.828 16.273-54.869 30.496-77.228 30.496z"/><path d="M315.477 186a32.088 32.088 0 0 0 24.194-11.019 7.5 7.5 0 0 0-11.309-9.855A17.094 17.094 0 0 1 315.475 171a17.098 17.098 0 0 1-12.888-5.874 7.497 7.497 0 0 0-10.581-.726 7.5 7.5 0 0 0-.726 10.581A32.095 32.095 0 0 0 315.477 186zm178.052 300.636h-59.758l-25.567-78.977a73.98 73.98 0 0 0-16.522-27.93c9.292-13.87 15.055-29.551 16.827-45.869l.077-.064c12.828-11.087 14.246-30.543 3.16-43.373a30.709 30.709 0 0 0-5.926-5.287c11.32-4.682 21.553-10.181 30.539-16.461 31.457-21.982 48.084-53.774 48.084-91.941 0-18.497-3.76-36.495-10.967-53.397 20.062-30.048 25.573-66.936 15.064-101.925A29.132 29.132 0 0 0 464.038.851c-34.866-4.106-69.18 6.775-94.932 29.919-23.315-8.313-48.625-12.688-74.732-12.688-25.864 0-51.251 4.406-74.67 12.744C193.943 7.644 159.592-3.261 124.709.852a29.128 29.128 0 0 0-24.503 20.562c-10.519 35.017-4.989 71.938 15.115 101.998a138.471 138.471 0 0 0-6.163 17.573c-5.949-3.019-12.633-4.336-19.441-3.743-9.612.841-18.321 5.375-24.522 12.767L19.41 204.574c-12.804 15.259-10.806 38.088 4.452 50.892l62.868 52.753 15.412 13.099c-1.288 5.295-1.142 10.858.492 16.206 2.401 7.855 7.717 14.306 14.97 18.163.071.038.145.07.217.107-5.05.749-9.931 1.991-14.554 3.748-15.829 6.016-27.489 17.704-32.835 32.911-4.027 11.46 2.02 24.061 13.483 28.092a22.006 22.006 0 0 0 7.302 1.248c9.334 0 17.688-5.919 20.785-14.728.646-1.838 2.066-4.493 6.917-6.336 9.516-3.615 24.423-1.323 37.095 5.708 17.542 9.732 34.951 11.307 51.825 4.717l10.582 8.994c-1.784 11.339-6.203 24.73-9.998 35.465-2.737 7.744-2.296 16.091 1.244 23.503 3.541 7.411 9.755 13.001 17.502 15.74a30.707 30.707 0 0 0 10.246 1.764c13.005 0 24.655-8.241 28.992-20.508a456.858 456.858 0 0 0 3.997-11.781l22.725 19.315a73.988 73.988 0 0 0 37.378 16.618l82.88 11.557c.888.124 1.773.185 2.652.185 5.545 0 10.804-2.424 14.439-6.757a19.028 19.028 0 0 0 2.38-3.608h60.676c4.143 0 7.5-3.357 7.5-7.5s-3.362-7.505-7.505-7.505zm-94.752-164.192c-17.363 15.006-51.836 28.67-72.325 28.67h-.123c-8.686-.024-15.732-7.108-15.708-15.793.024-8.642 7.057-15.676 15.689-15.708.081.002.163 0 .246 0 10.875-.047 38.24-9.44 51.624-21.005 6.571-5.679 16.538-4.952 22.217 1.618 5.678 6.573 4.952 16.539-1.62 22.218zm-7.853 23.606c-2.303 8.23-5.835 16.136-10.509 23.49l-14.1-11.985c8.524-3.192 16.959-7.12 24.609-11.505zm74.643-238.469c-9.26-15.951-21.788-30.648-37.315-43.503-.987-.817-1.986-1.62-2.991-2.417 17.448-13.945 36.512-20.825 51.686-24.198 2.995 16.79 3.705 43.133-11.38 70.118zm-3.284-91.833a14.134 14.134 0 0 1 10.733 7.228c-17.721 4.023-40.1 12.363-60.286 29.577a196.084 196.084 0 0 0-27.886-15.434c30.345-23.738 63.66-22.995 77.439-21.371zm-167.91 17.335c96.534 0 175.07 64.44 175.07 143.647 0 33.524-14.022 60.322-41.676 79.645-25.596 17.887-62.68 28.958-107.24 32.018a7.5 7.5 0 0 0-6.969 7.996 7.499 7.499 0 0 0 7.996 6.968 345.195 345.195 0 0 0 18.428-1.759c-5.801 1.891-10.824 3.014-13.508 3.014a30.538 30.538 0 0 0-16.696 4.889l-96.513-82.032c5.29-2.451 10.142-4.376 13.261-5.204a7.5 7.5 0 1 0-3.848-14.498c-6.156 1.634-14.846 5.523-21.899 9.09l-19.804-16.833c.041-.01.083-.013.124-.023 7.475-1.871 27.255-3.319 35.808-2.186 4.104.535 7.875-2.347 8.418-6.453a7.501 7.501 0 0 0-6.453-8.418c-10.579-1.396-32.3.225-41.411 2.504a7.505 7.505 0 0 0-5.671 6.847l-31.157-26.143-.003-.003-.003-.002-18.437-15.47c7.107-31.731 27.26-60.786 57.146-82.194.111-.08.225-.156.337-.236l.037-.026c31.813-22.658 72.512-35.138 114.663-35.138zM126.464 15.748c13.786-1.625 47.135-2.366 77.495 21.418-9.794 4.415-19.146 9.56-27.933 15.396-20.189-17.22-42.572-25.561-60.296-29.585a14.136 14.136 0 0 1 10.734-7.229zm-14.666 21.714c15.175 3.374 34.241 10.255 51.69 24.201-16.731 13.263-30.336 28.873-40.263 45.996-15.132-27.011-14.425-53.39-11.427-70.197zM33.502 243.973c-8.923-7.487-10.091-20.838-2.604-29.76l45.785-54.565a20.984 20.984 0 0 1 14.341-7.465 20.972 20.972 0 0 1 15.419 4.861l18.803 15.777-72.94 86.928-18.804-15.776zm30.292 25.418 72.94-86.927 26.867 22.544-72.941 86.927-26.866-22.544zm53.183 63.745a15.653 15.653 0 0 1 1.157-12.001c1.334-2.508 8.474-15.611 18.117-27.312a15.643 15.643 0 0 1 10.643-5.661c.516-.05 1.03-.074 1.541-.074 3.643 0 7.142 1.25 9.988 3.597 6.702 5.523 7.661 15.47 2.139 22.172-6.403 7.772-12.2 17.533-14.614 22.074a15.732 15.732 0 0 1-4.951 5.564l-.129.083a15.762 15.762 0 0 1-8.848 2.711 15.55 15.55 0 0 1-7.376-1.85 15.647 15.647 0 0 1-7.667-9.303zm46.31 60.181c-16.823-9.334-35.867-11.869-49.699-6.612-7.802 2.963-13.244 8.282-15.74 15.381a7.045 7.045 0 0 1-6.635 4.704 7.07 7.07 0 0 1-2.331-.4c-3.657-1.286-5.588-5.31-4.302-8.967 3.854-10.97 12.383-19.444 24.012-23.863 17.864-6.789 40.86-4.001 61.516 7.46a47.413 47.413 0 0 0 5.242 2.522l18.772 15.956c-10.015 1.762-20.194-.278-30.835-6.181zm88.973 77.791c-2.222 6.285-8.191 10.508-14.851 10.508-1.778 0-3.546-.306-5.249-.907-8.188-2.895-12.496-11.912-9.601-20.1 3.097-8.76 6.594-19.233 8.942-29.343l26.485 22.512c-1.612 5.319-3.498 11.03-5.726 17.33zm80.313 14.296a59.122 59.122 0 0 1-5.331-1.003l2.727-3.249a7.5 7.5 0 0 0-.924-10.566 7.5 7.5 0 0 0-10.566.924l-6.064 7.226a58.863 58.863 0 0 1-9.614-6.554l-71.584-60.844-.015-.013-17.099-14.533-.011-.009-57.912-49.223a30.86 30.86 0 0 0 3.01-4.588c2.152-4.047 7.301-12.726 12.947-19.578 10.782-13.086 8.909-32.503-4.176-43.286-6.339-5.224-14.336-7.673-22.508-6.877-8.177.788-15.556 4.714-20.779 11.053-6.754 8.196-12.367 16.985-15.917 22.971l-6.638-5.642 72.94-86.927 124.436 105.766a30.526 30.526 0 0 0-3.877 14.828c-.046 16.956 13.711 30.787 30.687 30.834h.143c6.821 0 14.7-1.171 22.953-3.245l26.301 22.355a59.032 59.032 0 0 1 8.159 8.363l-44.385 52.896a7.5 7.5 0 0 0 .924 10.566 7.465 7.465 0 0 0 4.817 1.755 7.481 7.481 0 0 0 5.749-2.679l41.05-48.922a59.229 59.229 0 0 1 1.913 5.075l12.605 38.938-33.429 39.84-40.532-5.652zm86.409 10.198c-.418.498-1.608 1.619-3.529 1.358l-24.814-3.46 21.352-25.445 7.717 23.835c.599 1.856-.309 3.215-.726 3.712zM245.153 177.036c4.143 0 7.5-3.357 7.5-7.5v-11.674c0-4.143-3.357-7.5-7.5-7.5s-7.5 3.357-7.5 7.5v11.674c0 4.143 3.357 7.5 7.5 7.5zm140.647 0c4.143 0 7.5-3.357 7.5-7.5v-11.674c0-4.143-3.357-7.5-7.5-7.5a7.5 7.5 0 0 0-7.5 7.5v11.674c0 4.143 3.357 7.5 7.5 7.5zm18.627 45.231c8.336 2.213 26.073 11.087 32.273 15.664a7.465 7.465 0 0 0 4.448 1.466 7.5 7.5 0 0 0 4.46-13.534c-7.557-5.579-27.019-15.355-37.333-18.094a7.502 7.502 0 0 0-9.174 5.324 7.502 7.502 0 0 0 5.326 9.174zm9.618-24.448c8.554-1.13 28.332.317 35.808 2.186.61.152 1.223.226 1.825.226a7.501 7.501 0 0 0 1.814-14.779c-9.112-2.278-30.829-3.9-41.411-2.504a7.5 7.5 0 0 0-6.453 8.418c.542 4.107 4.321 6.987 8.417 6.453z"/></svg>