<svg xmlns="http://www.w3.org/2000/svg" viewBox="0 0 512.001 512.001" style="enable-background:new 0 0 512.001 512.001" xml:space="preserve"><path style="fill:#eda751" d="M170.114 441.65c-6.744 1.112-13.902.445-21.433-2.008-22.974-7.484-52.996-12.578-65.555 5.655-4.065 5.902-12.149 7.392-18.052 3.326-5.904-4.067-7.394-12.149-3.327-18.053 11.946-17.345 38.121-34.133 94.975-15.613 13.282 4.327 19.632-2.353 34.575-27.577 3.755-6.336 7.637-12.889 12.072-19.088 4.173-5.829 12.28-7.173 18.109-3.002s7.174 12.28 3.002 18.109c-3.784 5.287-7.376 11.35-10.849 17.213-6.675 11.266-13.576 22.915-22.878 30.967-6.343 5.491-13.242 8.851-20.639 10.071z"/><path style="opacity:.15;fill:#c17a00;enable-background:new" d="M170.114 441.65c-6.744 1.112-13.902.445-21.433-2.008-22.974-7.484-52.996-12.578-65.555 5.655-4.065 5.902-12.149 7.392-18.052 3.326-5.904-4.067-7.394-12.149-3.327-18.053 11.946-17.345 38.121-34.133 94.975-15.613 13.282 4.327 19.632-2.353 34.575-27.577 3.755-6.336 7.637-12.889 12.072-19.088 4.173-5.829 12.28-7.173 18.109-3.002s7.174 12.28 3.002 18.109c-3.784 5.287-7.376 11.35-10.849 17.213-6.675 11.266-13.576 22.915-22.878 30.967-6.343 5.491-13.242 8.851-20.639 10.071z"/><path style="fill:#fcd79d" d="M68.201 422.862a53.087 53.087 0 0 0-6.455 7.709c-4.066 5.904-2.576 13.986 3.327 18.053 5.904 4.066 13.987 2.576 18.052-3.326a25.513 25.513 0 0 1 4.467-4.942c-3.875-9.552-13.39-15.722-19.391-17.494z"/><path style="fill:#eda751" d="M366.835 431.222c-9.191 0-17.594-6.147-20.061-15.45-2.107-7.948-3.757-15.512-5.212-22.186-2.201-10.091-5.525-25.332-8.609-27.825.005.018-.115-.036-.313-.083-11.164-2.63-18.082-13.813-15.451-24.978 2.631-11.164 13.814-18.082 24.978-15.45 13.57 3.198 23.766 11.958 30.304 26.035 4.483 9.653 6.888 20.681 9.673 33.451 1.43 6.556 2.909 13.336 4.779 20.391 2.939 11.087-3.665 22.457-14.752 25.397a20.826 20.826 0 0 1-5.336.698zM158.04 431.222c-1.762 0-3.552-.226-5.336-.699-11.087-2.94-17.691-14.31-14.752-25.397 1.87-7.055 3.349-13.835 4.779-20.391 2.785-12.77 5.19-23.798 9.673-33.451 6.538-14.077 16.734-22.837 30.304-26.035 11.163-2.63 22.347 4.286 24.978 15.45 2.631 11.165-4.286 22.348-15.451 24.978a1.976 1.976 0 0 0-.36.11c-3.024 2.407-6.357 17.687-8.562 27.798-1.455 6.674-3.105 14.237-5.212 22.186-2.467 9.304-10.871 15.451-20.061 15.451zM230.534 504.5c-11.47 0-20.768-9.298-20.768-20.768v-52.935c0-11.47 9.298-20.768 20.768-20.768s20.768 9.298 20.768 20.768v52.935c0 11.47-9.298 20.768-20.768 20.768zM294.341 504.5c-11.47 0-20.768-9.298-20.768-20.768v-52.935c0-11.47 9.298-20.768 20.768-20.768s20.768 9.298 20.768 20.768v52.935c0 11.47-9.298 20.768-20.768 20.768z"/><path style="opacity:.2;fill:#a35f00;enable-background:new" d="M372.471 351.284c-6.538-14.077-16.734-22.837-30.304-26.035-11.164-2.631-22.347 4.286-24.978 15.45-2.631 11.165 4.286 22.348 15.451 24.978.198.047.318.101.313.083 3.084 2.493 6.408 17.734 8.609 27.825 1.455 6.674 3.105 14.237 5.212 22.186a20.65 20.65 0 0 0 5.286 9.246c14.296-16.546 23.535-37.107 25.48-59.583-1.415-5.021-3.02-9.737-5.069-14.15zM182.708 325.249c-13.57 3.198-23.766 11.958-30.304 26.035-2.049 4.412-3.653 9.128-5.069 14.15 1.944 22.477 11.183 43.038 25.48 59.584a20.66 20.66 0 0 0 5.286-9.246c2.107-7.948 3.757-15.512 5.212-22.186 2.206-10.111 5.538-25.391 8.562-27.798.001-.001.103-.049.36-.11 11.164-2.63 18.082-13.813 15.451-24.978-2.631-11.164-13.815-18.081-24.978-15.451zM294.341 410.029c-11.47 0-20.768 9.298-20.768 20.768v33.941c14.837-1.342 28.865-5.334 41.536-11.473v-22.469c0-11.469-9.298-20.767-20.768-20.767zM230.534 410.029c-11.47 0-20.768 9.298-20.768 20.768v22.469c12.671 6.138 26.699 10.13 41.536 11.473v-33.941c0-11.471-9.298-20.769-20.768-20.769z"/><ellipse style="fill:#fcd690" cx="262.44" cy="356.53" rx="95.79" ry="89.01"/><path style="opacity:.15;fill:#c17a00;enable-background:new" d="M248.45 444.596c-43.773-28.739-30.207-87.64-22.776-113.399v-56.876c-34.656 13.397-59.025 45.158-59.025 82.213-.001 44.742 35.529 81.77 81.801 88.062z"/><path style="fill:#eda751" d="M203.602 204.798c13.663-20.298 18.388-49.132-17.813-79.328-36.487-30.435-77.34-28.94-106.096-16.868a19.367 19.367 0 0 0-11.849 17.603c-.362 31.185 13.628 69.597 55.558 91.947 41.602 22.174 66.537 6.944 80.2-13.354z"/><path style="fill:#ff91ab" d="M67.911 130.942c1.053 30.256 15.661 65.978 55.492 87.21 36.058 19.22 59.589 10.333 74.119-5.592-35.854-78.914-95.171-85.507-129.611-81.618z"/><path style="fill:#eda751" d="M321.273 204.798c-13.663-20.298-18.388-49.132 17.813-79.328 36.487-30.435 77.34-28.94 106.096-16.868a19.369 19.369 0 0 1 11.849 17.603c.362 31.185-13.628 69.597-55.558 91.947-41.602 22.174-66.537 6.944-80.2-13.354z"/><path style="fill:#ff91ab" d="M456.965 130.942c-1.053 30.256-15.661 65.978-55.492 87.21-36.058 19.22-59.589 10.333-74.119-5.592 35.854-78.914 95.171-85.507 129.611-81.618z"/><path style="fill:#ffdc9c" d="M425.517 225.93c0-74.564-73.013-135.011-163.079-135.011S99.358 151.366 99.358 225.93c0 12.239 1.967 23.349 5.654 33.37 1.871 5.085 3.416 10.284 4.812 15.52 2.736 10.261 5.218 20.489 7.2 28.533.807 3.273 5.28 3.648 6.658.571 1.118-2.499 2.403-5.028 3.766-7.212.794-1.272 2.539-1.55 3.68-.577 29.696 25.334 77.452 37.016 131.31 37.016 47.509 0 90.271-9.089 120.077-28.62 3.462-2.268 8.07-1.753 10.907 1.26 3.514 3.733 5.761 6.981 7.274 9.761 1.131 2.078 4.254 1.533 4.667-.796 2.299-12.976 7.645-31.538 11.108-44.122a239.85 239.85 0 0 1 4.117-13.421c3.215-9.47 4.929-19.884 4.929-31.283z"/><path style="opacity:.15;fill:#c17a00;enable-background:new" d="M99.358 225.93c0 12.239 1.967 23.349 5.654 33.37 1.871 5.085 3.416 10.284 4.812 15.519 2.736 10.261 5.217 20.489 7.2 28.533.807 3.273 5.28 3.648 6.658.571 1.118-2.499 2.403-5.028 3.766-7.212.794-1.272 2.539-1.55 3.68-.577 22.72 19.383 56.018 30.766 94.526 35.048-103.85-62.044-90.303-145.495-50.292-219.42-45.673 23.928-76.004 66.113-76.004 114.168z"/><path d="M59.889 326.215v-18.487c0-4.143-3.358-7.5-7.5-7.5s-7.5 3.357-7.5 7.5v18.487a7.5 7.5 0 0 0 15 0zM444.668 35.729a7.5 7.5 0 0 0 7.5-7.5V7.5c0-4.143-3.358-7.5-7.5-7.5s-7.5 3.357-7.5 7.5v20.729a7.5 7.5 0 0 0 7.5 7.5zM105.377 449.703a7.5 7.5 0 0 0-7.5 7.5v8.49c0 4.143 3.358 7.5 7.5 7.5s7.5-3.357 7.5-7.5v-8.49a7.5 7.5 0 0 0-7.5-7.5zM422.914 322.69a7.5 7.5 0 0 0-7.5 7.5v20.339c0 4.143 3.358 7.5 7.5 7.5s7.5-3.357 7.5-7.5V330.19a7.5 7.5 0 0 0-7.5-7.5zm-6.401 105.917a7.5 7.5 0 0 0-7.5 7.5v25.594c0 4.143 3.358 7.5 7.5 7.5s7.5-3.357 7.5-7.5v-25.594a7.5 7.5 0 0 0-7.5-7.5zM72.791 84.122a7.5 7.5 0 0 0 7.5-7.5v-32.01c0-4.143-3.358-7.5-7.5-7.5s-7.5 3.357-7.5 7.5v32.01a7.5 7.5 0 0 0 7.5 7.5zm273.091-19.351a7.5 7.5 0 0 0 7.5-7.5V23.29c0-4.143-3.358-7.5-7.5-7.5s-7.5 3.357-7.5 7.5v33.981a7.5 7.5 0 0 0 7.5 7.5zM180.203 54.686a7.5 7.5 0 0 0 7.5-7.5V7.5c0-4.143-3.358-7.5-7.5-7.5s-7.5 3.357-7.5 7.5v39.686a7.5 7.5 0 0 0 7.5 7.5zm74.966 17.135a7.5 7.5 0 0 0 7.5-7.5V36.28c0-4.143-3.358-7.5-7.5-7.5s-7.5 3.357-7.5 7.5v28.041a7.5 7.5 0 0 0 7.5 7.5zM27.815 187.996a7.5 7.5 0 0 0-7.5 7.5v54.067c0 4.143 3.358 7.5 7.5 7.5s7.5-3.357 7.5-7.5v-54.067a7.5 7.5 0 0 0-7.5-7.5zm183.549-.246c-1.88.326-6.399.434-10.552-.346-4.153-.777-8.329-2.512-9.967-3.495a7.5 7.5 0 1 0-7.719 12.861c2.229 1.338 5.85 2.94 9.923 4.155a7.46 7.46 0 0 0-.927 3.611v10.428c0 4.143 3.358 7.5 7.5 7.5s7.5-3.357 7.5-7.5v-10.428a7.49 7.49 0 0 0-.163-1.552c.184.002.378.012.56.012 2.513 0 4.745-.18 6.397-.465a7.5 7.5 0 1 0-2.552-14.781zM484.185 48.018a7.5 7.5 0 0 0-7.5 7.5v25.011c0 4.143 3.358 7.5 7.5 7.5s7.5-3.357 7.5-7.5V55.518a7.5 7.5 0 0 0-7.5-7.5zM348.622 226.149a7.5 7.5 0 0 0 1.965 14.871c7.412-.98 25.213.316 31.686 1.935a7.549 7.549 0 0 0 1.825.226 7.5 7.5 0 0 0 1.813-14.779c-8.206-2.051-27.763-3.513-37.289-2.253zm-169.281 22.192c-9.289 2.466-26.814 11.268-33.619 16.291a7.5 7.5 0 0 0 4.46 13.534 7.46 7.46 0 0 0 4.448-1.466c5.367-3.961 21.331-11.942 28.559-13.861a7.501 7.501 0 0 0-3.848-14.498zm199.811 16.291c-6.804-5.022-24.329-13.825-33.619-16.291a7.5 7.5 0 1 0-3.848 14.498c7.229 1.919 23.193 9.9 28.559 13.861a7.467 7.467 0 0 0 4.448 1.466 7.5 7.5 0 0 0 4.46-13.534zM341.75 196.77a7.499 7.499 0 0 0 2.572-10.29 7.498 7.498 0 0 0-10.29-2.571c-1.639.983-5.815 2.718-9.968 3.495-4.154.777-8.671.671-10.553.346a7.499 7.499 0 1 0-2.551 14.781c1.652.285 3.883.465 6.396.465.181 0 .376-.01.56-.012a7.56 7.56 0 0 0-.163 1.552v10.428c0 4.143 3.358 7.5 7.5 7.5s7.5-3.357 7.5-7.5v-10.428a7.46 7.46 0 0 0-.927-3.611c4.073-1.215 7.694-2.816 9.924-4.155zm-57.033 8.046a7.5 7.5 0 0 0-9.675 4.347c-.873 2.296-1.507 5.398-1.921 8.385h-21.366c-.414-2.986-1.048-6.088-1.921-8.385a7.5 7.5 0 1 0-14.021 5.328c.813 2.141 1.537 7.687 1.537 10.557s-.724 8.415-1.537 10.556a7.5 7.5 0 1 0 14.021 5.328c.873-2.296 1.507-5.398 1.921-8.384h21.366c.414 2.986 1.048 6.087 1.921 8.384a7.49 7.49 0 0 0 9.675 4.347 7.5 7.5 0 0 0 4.346-9.675c-.814-2.141-1.537-7.686-1.537-10.556s.724-8.416 1.537-10.557a7.5 7.5 0 0 0-4.346-9.675zM479.84 351.381a7.5 7.5 0 0 0-7.5 7.5v33.996a7.5 7.5 0 0 0 15 0v-33.996a7.5 7.5 0 0 0-7.5-7.5zm-15.57-126.345a7.5 7.5 0 0 0-7.5 7.5v34.055c0 4.143 3.358 7.5 7.5 7.5s7.5-3.357 7.5-7.5v-34.055a7.5 7.5 0 0 0-7.5-7.5zM117.802 359.458v-26.305c0-4.143-3.358-7.5-7.5-7.5s-7.5 3.357-7.5 7.5v26.305c0 4.143 3.358 7.5 7.5 7.5s7.5-3.357 7.5-7.5zm56.486-118.438a7.5 7.5 0 1 0 1.966-14.871c-9.526-1.261-29.084.202-37.29 2.253a7.5 7.5 0 0 0-5.457 9.095 7.504 7.504 0 0 0 7.27 5.684c.602 0 1.214-.073 1.825-.226 6.471-1.617 24.274-2.915 31.686-1.935zM464.53 126.118a26.817 26.817 0 0 0-16.445-24.431c-30.648-12.867-64.466-11.264-93.472 4.262-27.248-14.66-58.998-22.53-92.175-22.53-33.178 0-64.927 7.87-92.175 22.53-29.005-15.526-62.823-17.127-93.471-4.262a26.823 26.823 0 0 0-16.446 24.432c-.351 30.269 11.701 59.069 33.192 79.707a121.592 121.592 0 0 0-1.68 20.104c0 12.831 2.058 24.93 6.115 35.96 1.589 4.321 3.053 9.044 4.604 14.862 2.354 8.83 4.569 17.842 6.349 25.082l.815 3.314c1.144 4.64 4.954 7.913 9.708 8.341a11.078 11.078 0 0 0 11.077-6.5c.189-.422.379-.836.57-1.241 9.698 7.41 21.013 13.681 33.871 18.782-.043.114-.083.229-.126.343-8.086 5.358-14.554 13.161-19.24 23.252-4.833 10.406-7.319 21.809-10.199 35.013-1.259 5.773-2.572 11.73-4.135 17.845-43.144-6.846-64.934 9.705-75.698 25.334-6.406 9.3-4.051 22.077 5.25 28.484a20.361 20.361 0 0 0 11.586 3.606c6.516-.001 12.929-3.097 16.896-8.855 10.457-15.184 40.235-8.258 57.056-2.778 8.646 2.816 17.049 3.583 24.977 2.277 8.768-1.447 16.952-5.417 24.326-11.799a65.774 65.774 0 0 0 4.198-3.993 103.98 103.98 0 0 0 2.407 1.67v48.804c0 15.587 12.681 28.268 28.268 28.268s28.268-12.681 28.268-28.268v-30.756c1.207.039 2.418.066 3.635.066s2.428-.027 3.636-.066v30.756c0 15.587 12.681 28.268 28.268 28.268 11.876 0 22.564-7.502 26.594-18.668a7.5 7.5 0 0 0-14.109-5.094c-1.892 5.241-6.91 8.762-12.486 8.762-7.316 0-13.268-5.952-13.268-13.268v-32.267a107.568 107.568 0 0 0 26.536-8.155v16.515c0 4.143 3.358 7.5 7.5 7.5s7.5-3.357 7.5-7.5v-24.898a102.001 102.001 0 0 0 17.618-14.975c3.982 11.16 14.606 18.768 26.608 18.768 2.44 0 4.882-.319 7.259-.949 15.065-3.995 24.073-19.503 20.079-34.568-1.83-6.901-3.29-13.594-4.701-20.066-2.879-13.204-5.366-24.606-10.198-35.013-4.687-10.091-11.155-17.894-19.24-23.252-.046-.124-.09-.249-.137-.372 9.792-3.891 18.737-8.459 26.728-13.695.429-.281 1.003-.226 1.336.128 2.684 2.852 4.695 5.535 6.147 8.204a9.982 9.982 0 0 0 10.375 5.076 10.042 10.042 0 0 0 8.265-8.148c1.939-10.942 6.143-26.087 9.52-38.257.503-1.811.984-3.547 1.435-5.183a233.1 233.1 0 0 1 3.988-13c3.535-10.414 5.328-21.751 5.328-33.696 0-6.789-.573-13.501-1.679-20.104 21.491-20.639 33.544-49.438 33.192-79.708zm-22.251-10.599a11.824 11.824 0 0 1 6.673 7.256c-15.851-.775-36.361.925-57.23 10.134a159.714 159.714 0 0 0-9.186-8.223 167.108 167.108 0 0 0-12.589-9.452c32.017-13.453 60.662-4.616 72.332.285zm-359.682-.001c11.669-4.897 40.314-13.736 72.332-.284a166.923 166.923 0 0 0-12.59 9.452 159.731 159.731 0 0 0-9.185 8.223c-20.868-9.21-41.379-10.912-57.23-10.135a11.824 11.824 0 0 1 6.673-7.256zm15.169 72.979c-12.176-14.216-19.792-31.881-21.853-50.699 12.904-.711 29.38.391 46.331 6.845-11.166 13.383-19.416 28.181-24.478 43.854zM76.949 441.043a5.488 5.488 0 0 1-7.621 1.405 5.487 5.487 0 0 1-1.405-7.623c12.059-17.508 33.037-23.82 62.398-18.808a28.454 28.454 0 0 0 5.868 12.352c-28.589-6.588-48.924-2.303-59.24 12.674zm93.902-27.193c-1.542 5.813-6.81 9.872-12.811 9.872-1.144 0-2.293-.15-3.413-.447-6.123-1.624-10.107-7.301-9.85-13.385.002-.075.005-.151.005-.226.052-.868.188-1.744.419-2.616 1.915-7.223 3.411-14.081 4.857-20.715 2.683-12.302 5.003-22.93 9.118-31.82a90.537 90.537 0 0 0-.028 2.02c0 17.613 5.08 34.137 13.936 48.366a336.577 336.577 0 0 1-2.233 8.951zm14.993 12.06c-3.067 2.655-6.293 4.698-9.637 6.151 3.762-3.165 6.725-7.298 8.441-12.107a99.955 99.955 0 0 0 3.629 3.682 50.433 50.433 0 0 1-2.433 2.274zm57.958 57.822c0 7.316-5.952 13.268-13.268 13.268-7.316 0-13.268-5.952-13.268-13.268v-40.421a107.598 107.598 0 0 0 26.536 8.155v32.266zm121.925-127.199c0-.675-.013-1.349-.028-2.022 4.114 8.89 6.434 19.519 9.118 31.822 1.446 6.634 2.942 13.492 4.857 20.715 1.875 7.071-2.353 14.35-9.423 16.225a13.31 13.31 0 0 1-3.415.448c-6.002 0-11.27-4.06-12.812-9.872a341.496 341.496 0 0 1-2.233-8.951c8.856-14.228 13.936-30.752 13.936-48.365zm47.758-101.729a248.194 248.194 0 0 0-4.246 13.842c-.448 1.625-.927 3.351-1.426 5.151-2.435 8.773-5.289 19.055-7.486 28.435a70.782 70.782 0 0 0-1.445-1.58c-5.332-5.665-13.944-6.672-20.479-2.394-8.84 5.793-19.021 10.698-30.38 14.691a7.46 7.46 0 0 0-1.034.36c-23.585 8.124-52.192 12.344-84.552 12.344a347.66 347.66 0 0 1-18.889-.507c-4.128-.244-7.672 2.941-7.899 7.078a7.5 7.5 0 0 0 7.079 7.899c6.418.351 13.049.529 19.709.529 31.256 0 59.366-3.817 83.303-11.186a75.395 75.395 0 0 1 4.986 27.066c0 44.944-39.606 81.51-88.289 81.51s-88.289-36.565-88.289-81.51c0-9.325 1.674-18.4 4.984-27.059 9.047 2.774 18.721 5.059 29.026 6.829 4.083.706 7.961-2.039 8.661-6.122a7.5 7.5 0 0 0-6.122-8.661c-11.852-2.036-22.776-4.768-32.742-8.179a7.587 7.587 0 0 0-1.052-.374c-16.294-5.695-29.992-13.223-40.907-22.535a9.964 9.964 0 0 0-14.129 1.225c-1.449-5.85-3.083-12.34-4.796-18.77-1.673-6.274-3.268-11.414-5.02-16.177-3.446-9.366-5.193-19.723-5.193-30.781 0-70.31 69.793-127.511 155.58-127.511s155.58 57.201 155.58 127.511c-.001 10.303-1.525 20.018-4.533 28.876zm13.624-66.307c-5.062-15.672-13.312-30.471-24.477-43.854 16.951-6.454 33.427-7.555 46.331-6.845-2.063 18.818-9.678 36.483-21.854 50.699z"/></svg>