<svg xmlns="http://www.w3.org/2000/svg" viewBox="0 0 512.001 512.001" style="enable-background:new 0 0 512.001 512.001" xml:space="preserve"><path style="fill:#eda751" d="M64.702 446.623c-5.81 0-11.34-3.396-13.782-9.073-3.273-7.608.241-16.429 7.848-19.701 8.933-3.843 18.079-7.703 26.923-11.436 43.451-18.339 88.381-37.3 108.088-54.703 6.209-5.479 15.684-4.891 21.166 1.315 5.482 6.208 4.894 15.685-1.314 21.167-23.381 20.647-68.505 39.691-116.278 59.851-8.798 3.713-17.895 7.552-26.731 11.355a14.952 14.952 0 0 1-5.92 1.225z"/><path style="fill:#eda751" d="M209.724 504.5c-12.672 0-23.262-9.926-23.939-22.728-2.334-44.158 1.127-75.282 10.286-92.507 6.22-11.702 20.748-16.143 32.449-9.922 11.7 6.221 16.142 20.749 9.921 32.448-2.804 5.276-6.957 25.415-4.735 67.448.699 13.233-9.461 24.526-22.693 25.225a23.27 23.27 0 0 1-1.289.036zM302.276 504.5c-.428 0-.856-.012-1.288-.035-13.233-.7-23.393-11.993-22.692-25.225 2.221-42.031-1.932-62.172-4.737-67.446-6.221-11.701-1.78-26.227 9.921-32.449 11.702-6.217 26.228-1.78 32.449 9.921 9.159 17.227 12.62 48.351 10.285 92.509-.676 12.798-11.267 22.725-23.938 22.725zM80.875 370.843c-8.569 0-16.858-4.601-21.18-12.686-6.247-11.686-1.839-26.223 9.847-32.472 37.455-20.023 73.219-26.287 96.862-29.255 13.143-1.654 25.144 7.668 26.795 20.815 1.651 13.149-7.669 25.145-20.817 26.795-19.859 2.494-49.781 7.691-80.215 23.962a23.886 23.886 0 0 1-11.292 2.841zM431.126 370.843c-3.817 0-7.69-.913-11.292-2.839-30.433-16.272-60.355-21.468-80.215-23.962-13.147-1.651-22.467-13.648-20.815-26.795 1.651-13.147 13.638-22.463 26.795-20.815 23.642 2.969 59.407 9.232 96.861 29.255 11.686 6.248 16.095 20.785 9.847 32.472-4.323 8.082-12.613 12.684-21.181 12.684z"/><path style="opacity:.2;fill:#a35f00;enable-background:new" d="M166.402 296.429c-10.19 1.279-22.634 3.175-36.492 6.516a115.14 115.14 0 0 0-3.989 30.079c0 6.905.622 13.675 1.798 20.27 17.14-5.274 32.72-7.755 44.661-9.254 13.149-1.651 22.467-13.648 20.817-26.795-1.649-13.148-13.652-22.47-26.795-20.816zM193.78 351.71c-11.682 10.316-32.226 21.179-56.071 32.135 4.448 9.109 10.055 17.617 16.639 25.36 24.626-11.486 45.653-22.977 59.283-35.014 6.208-5.483 6.797-14.96 1.314-21.167-5.482-6.205-14.958-6.794-21.165-1.314z"/><path style="opacity:.2;fill:#a35f00;enable-background:new" d="M228.52 379.343c-11.701-6.221-26.228-1.78-32.449 9.922-5.563 10.462-9.019 26.059-10.356 46.581 14.157 8.577 30.189 14.645 47.381 17.527.251-24.721 3.194-37.534 5.345-41.581 6.22-11.7 1.778-26.228-9.921-32.449zM315.93 389.264c-6.221-11.701-20.748-16.138-32.449-9.921-11.7 6.222-16.142 20.749-9.921 32.449 2.152 4.047 5.094 16.86 5.346 41.58 17.192-2.882 33.224-8.95 47.381-17.527-1.338-20.521-4.795-36.119-10.357-46.581zM318.803 317.246c-1.652 13.148 7.669 25.144 20.815 26.795 11.941 1.5 27.521 3.981 44.662 9.254a115.38 115.38 0 0 0 1.798-20.27c0-10.376-1.387-20.453-3.989-30.079-13.858-3.341-26.302-5.236-36.491-6.516-13.157-1.648-25.144 7.668-26.795 20.816z"/><ellipse style="fill:#fcd690" cx="256.004" cy="333.021" rx="110.667" ry="102.827"/><path style="opacity:.15;fill:#c17a00;enable-background:new" d="M239.84 434.762c-50.571-33.201-34.898-101.25-26.313-131.009v-65.708c-40.038 15.478-68.191 52.172-68.191 94.981 0 51.69 41.047 94.467 94.504 101.736z"/><path style="fill:#eda751" d="M188.654 154.714c21.654-18.171 36.112-48.673 5.569-93.765C163.437 15.503 117.604 4.11 81.82 8.326a22.377 22.377 0 0 0-18.78 15.758c-10.366 34.507-7.106 81.624 32.306 119.833 39.103 37.909 71.653 28.968 93.308 10.797z"/><path style="fill:#ff91ab" d="M61.6 29.363c-8.498 33.928-3.693 78.255 33.746 114.553 33.893 32.859 62.856 30.511 84.076 17.473C164.829 62.32 101.08 36.05 61.6 29.363z"/><path style="fill:#eda751" d="M323.346 154.714c-21.654-18.171-36.113-48.673-5.569-93.765 30.785-45.447 76.62-56.84 112.403-52.624 8.822 1.039 16.224 7.251 18.78 15.758 10.366 34.507 7.105 81.624-32.306 119.833-39.103 37.91-71.653 28.969-93.308 10.798z"/><path style="fill:#ff91ab" d="M450.4 29.363c8.498 33.928 3.693 78.255-33.746 114.553-33.893 32.859-62.856 30.511-84.076 17.473C347.172 62.32 410.921 36.05 450.4 29.363z"/><path style="fill:#ffdc9c" d="M444.405 182.139c0 86.144-84.352 123.874-188.405 123.874S67.596 268.283 67.596 182.139 151.948 26.162 256.001 26.162s188.404 69.834 188.404 155.977z"/><path style="opacity:.15;fill:#c17a00;enable-background:new" d="M155.402 50.244c-52.765 27.641-87.806 76.378-87.806 131.896 0 74.052 62.333 112.327 145.931 121.614-120.003-71.682-104.352-168.099-58.125-253.51z"/><ellipse style="fill:#ff91ab" cx="163.546" cy="185.775" rx="34.109" ry="27.169"/><ellipse style="fill:#ff91ab" cx="348.452" cy="185.775" rx="34.109" ry="27.169"/><path style="fill:#ff91ab" d="M270.07 308.558a30.924 30.924 0 0 0 16.854-27.537V174.469c0-7.315-3.801-14.148-10.098-17.872-6.103-3.609-13.221-5.682-20.825-5.682s-14.723 2.073-20.825 5.682c-6.296 3.723-10.098 10.557-10.098 17.872v106.553a30.923 30.923 0 0 0 44.992 27.536z"/><path style="opacity:.1;enable-background:new" d="M276.826 156.597c-6.103-3.609-13.221-5.682-20.825-5.682s-14.723 2.073-20.825 5.682c-6.296 3.723-10.098 10.557-10.098 17.872v24.576c0-7.315 3.801-14.148 10.098-17.872a40.78 40.78 0 0 1 20.825-5.682 40.774 40.774 0 0 1 20.825 5.682c6.296 3.723 10.098 10.557 10.098 17.872v-24.576c-.001-7.315-3.802-14.148-10.098-17.872z"/><circle style="fill:#fff" cx="183.426" cy="146.626" r="27.346"/><circle style="fill:#fff" cx="328.572" cy="146.626" r="27.346"/><path style="fill:#fcd79d" d="M68.278 413.783c-3.181 1.353-6.36 2.709-9.51 4.065-7.608 3.273-11.122 12.094-7.848 19.701 2.443 5.676 7.972 9.073 13.782 9.073 1.978 0 3.988-.394 5.92-1.224 3.232-1.391 6.502-2.786 9.776-4.178-.903-12.207-7.26-23.133-12.12-27.437z"/><path d="M43.771 107.356a7.498 7.498 0 0 0 6.62-3.965 7.498 7.498 0 0 0-3.076-10.15L26.893 82.319a7.5 7.5 0 1 0-7.074 13.226l20.421 10.923a7.473 7.473 0 0 0 3.531.888zM87.16 274.278a7.5 7.5 0 0 0-10.005-3.521l-46.074 22.085a7.5 7.5 0 0 0-3.521 10.005 7.503 7.503 0 0 0 6.769 4.26 7.455 7.455 0 0 0 3.236-.739l46.074-22.085a7.5 7.5 0 0 0 3.521-10.005zM30.681 226.55l20.49-4.111a7.5 7.5 0 0 0 5.878-8.829 7.498 7.498 0 0 0-8.829-5.878l-20.49 4.111a7.5 7.5 0 1 0 2.951 14.707zm453.59-14.706-20.489-4.111a7.5 7.5 0 1 0-2.951 14.707l20.489 4.111a7.502 7.502 0 0 0 8.829-5.878 7.5 7.5 0 0 0-5.878-8.829zM183.43 138.402a8.224 8.224 0 1 0 0 16.448 8.224 8.224 0 0 0 0-16.448zm174.256 49.219c8.844-1.171 29.309.326 37.042 2.26a7.555 7.555 0 0 0 1.825.226 7.5 7.5 0 0 0 1.814-14.779c-9.385-2.346-31.75-4.019-42.645-2.578a7.5 7.5 0 0 0-6.453 8.418c.543 4.107 4.322 6.992 8.417 6.453zm123.232 105.223-46.073-22.085a7.499 7.499 0 0 0-10.005 3.521 7.499 7.499 0 0 0 3.521 10.005l46.073 22.085a7.5 7.5 0 0 0 10.005-3.521 7.499 7.499 0 0 0-3.521-10.005zm14.34-207.448a7.498 7.498 0 0 0-10.15-3.076l-20.422 10.923a7.5 7.5 0 0 0-3.076 10.15 7.498 7.498 0 0 0 10.15 3.076l20.422-10.923a7.5 7.5 0 0 0 3.076-10.15zm-49.263 233.675c-22.465-12.01-46.62-20.527-73.541-25.923 9.841-4.17 18.871-8.948 26.984-14.322 34.324-22.733 52.468-56.168 52.468-96.687 0-19.099-3.89-37.681-11.349-55.13 20.719-30.964 26.422-69.004 15.586-105.083A29.818 29.818 0 0 0 431.059.878c-35.959-4.24-71.346 7.008-97.883 30.91-24.071-8.6-50.211-13.127-77.175-13.127s-53.104 4.527-77.175 13.127C152.29 7.885 116.9-3.361 80.943.878a29.821 29.821 0 0 0-25.085 21.048c-10.837 36.079-5.134 74.12 15.586 105.084-7.459 17.448-11.349 36.031-11.349 55.13 0 31.266 10.439 57.862 31.027 79.047 12.621 12.987 28.828 23.679 48.371 31.972-26.9 5.396-51.039 13.912-73.489 25.913-15.314 8.188-21.111 27.308-12.925 42.622a31.46 31.46 0 0 0 27.794 16.649 31.566 31.566 0 0 0 14.828-3.725c13.66-7.304 28.788-13.064 45.056-17.174a104.116 104.116 0 0 0 4.67 14.483c-19.012 9.154-41.155 18.504-62.652 27.576-8.821 3.723-17.943 7.572-26.971 11.456-11.395 4.903-16.676 18.162-11.773 29.555a22.481 22.481 0 0 0 20.671 13.609c3.064 0 6.053-.617 8.885-1.836 8.747-3.764 17.767-7.57 26.489-11.252l.193-.081c25.485-10.757 49.655-20.959 70.686-31.41a116.419 116.419 0 0 0 9.137 7.966c-2.552 17.127-3.161 38.837-1.797 64.658.884 16.729 14.69 29.832 31.429 29.832.561 0 1.128-.016 1.683-.046 17.341-.916 30.703-15.77 29.787-33.11-.722-13.662-.814-25.853-.283-36.382 4.942.591 9.978.896 15.089.896 5.111 0 10.147-.305 15.089-.896.532 10.53.44 22.72-.282 36.382-.444 8.4 2.41 16.472 8.036 22.725 5.626 6.254 13.351 9.942 21.739 10.386.566.03 1.133.046 1.694.046 14.213 0 26.71-9.583 30.393-23.304a7.5 7.5 0 0 0-14.487-3.889c-1.928 7.18-8.469 12.193-15.907 12.193-.292 0-.585-.008-.892-.024a16.387 16.387 0 0 1-11.392-5.439 16.39 16.39 0 0 1-4.209-11.902c.793-15 .85-28.37.178-39.875a122.047 122.047 0 0 0 32.026-12.843c.822 7.637 1.299 16.138 1.408 25.443a7.5 7.5 0 0 0 7.497 7.412l.09-.001a7.498 7.498 0 0 0 7.411-7.587c-.151-13.01-.987-24.644-2.482-34.678 19.421-15.239 33.532-36.192 39.331-60.061 16.268 4.11 31.396 9.87 45.057 17.174a31.576 31.576 0 0 0 14.826 3.725 31.465 31.465 0 0 0 27.795-16.649c8.189-15.318 2.39-34.437-12.924-42.625zm-13.329-207.818c-9.561-16.574-22.543-31.84-38.66-45.184a190.354 190.354 0 0 0-3.318-2.681c18.198-14.62 38.12-21.773 53.913-25.255 3.147 17.428 3.947 44.958-11.935 73.12zm-3.362-95.479a14.824 14.824 0 0 1 11.403 7.861c-18.345 4.128-41.602 12.748-62.546 30.658-9.211-6.149-18.992-11.55-29.238-16.165 22.569-17.691 51.257-25.785 80.381-22.354zm-346.607 0c29.122-3.428 57.811 4.665 80.381 22.354-10.247 4.615-20.026 10.016-29.237 16.165-20.944-17.911-44.202-26.53-62.546-30.658a14.822 14.822 0 0 1 11.402-7.861zM67.399 38.133c15.793 3.483 35.716 10.637 53.914 25.256a186.55 186.55 0 0 0-3.317 2.68c-16.117 13.343-29.099 28.609-38.661 45.184-15.882-28.161-15.083-55.692-11.936-73.12zm70.437 294.891c0 3.229.158 6.424.451 9.584-17.904 4.426-34.585 10.723-49.657 18.781a16.29 16.29 0 0 1-7.756 1.953 16.484 16.484 0 0 1-14.566-8.722c-4.288-8.02-1.251-18.034 6.769-22.321 20.688-11.06 42.962-18.986 67.764-24.104a103.494 103.494 0 0 0-3.005 24.829zm-43.399 94.11-.194.082c-8.747 3.691-17.791 7.508-26.584 11.293a7.454 7.454 0 0 1-2.957.614 7.497 7.497 0 0 1-6.893-4.538c-1.634-3.796.126-8.214 3.923-9.848 8.98-3.863 18.078-7.702 26.875-11.415 21.698-9.159 44.051-18.596 63.413-27.923a109.945 109.945 0 0 0 8.509 12.559c-19.751 9.618-42.346 19.154-66.092 29.176zm116.167 69.841c-9.151.505-16.851-6.548-17.33-15.6-1.125-21.291-.873-39.535.734-54.462a122.065 122.065 0 0 0 32.028 12.845c-.672 11.504-.615 24.875.178 39.875.482 9.084-6.516 16.862-15.61 17.342zM256 428.357c-56.886 0-103.165-42.766-103.165-95.333a88.251 88.251 0 0 1 5.968-32.017l.003-.008c.089-.23.184-.458.275-.688a243.998 243.998 0 0 0 10.721 3.091c4.007 1.056 8.107-1.342 9.16-5.349a7.5 7.5 0 0 0-5.348-9.159 227.19 227.19 0 0 1-15.921-4.799 7.544 7.544 0 0 0-.619-.213c-67.24-23.278-81.978-67.495-81.978-101.743 0-81.871 81.154-148.477 180.905-148.477s180.905 66.606 180.905 148.477c0 35.752-15.393 64.074-45.751 84.182-24.786 16.418-59.188 26.902-100.183 30.645a38.452 38.452 0 0 0 3.452-15.945V174.469c0-9.979-5.28-19.3-13.78-24.326a48.446 48.446 0 0 0-24.643-6.726 48.43 48.43 0 0 0-24.643 6.726c-8.5 5.027-13.78 14.349-13.78 24.326v106.553a38.46 38.46 0 0 0 3.449 15.939 335.43 335.43 0 0 1-13.812-1.534c-4.11-.56-7.878 2.335-8.427 6.44a7.5 7.5 0 0 0 6.441 8.427c9.44 1.261 19.337 2.145 29.433 2.664a38.693 38.693 0 0 0 3.856 2.281A38.421 38.421 0 0 0 256 319.433a38.415 38.415 0 0 0 17.482-4.194 38.853 38.853 0 0 0 3.839-2.271c27.895-1.432 53.353-5.723 75.592-12.672.092.232.188.463.278.695.034.098.077.192.115.288 3.892 10.157 5.86 20.804 5.86 31.746-.001 52.567-46.28 95.332-103.166 95.332zm23.423-253.888v106.553c0 7.324-3.363 14.058-8.99 18.443a7.02 7.02 0 0 0-.336.253 23.636 23.636 0 0 1-3.44 2.163 23.49 23.49 0 0 1-21.315 0 23.545 23.545 0 0 1-3.443-2.166 8.841 8.841 0 0 0-.329-.248c-5.629-4.385-8.993-11.12-8.993-18.446V174.469c0-4.701 2.458-9.075 6.415-11.416A33.43 33.43 0 0 1 256 158.416a33.43 33.43 0 0 1 17.008 4.637c3.958 2.341 6.415 6.715 6.415 11.416zm166.27 180.152a16.486 16.486 0 0 1-14.567 8.722 16.29 16.29 0 0 1-7.755-1.953c-15.073-8.058-31.753-14.355-49.657-18.781a103.482 103.482 0 0 0-2.555-34.413c24.802 5.119 47.076 13.044 67.764 24.104 8.02 4.287 11.057 14.3 6.77 22.321zm-97.839-141.764c8.623 2.289 26.973 11.469 33.387 16.203a7.47 7.47 0 0 0 4.448 1.467 7.5 7.5 0 0 0 4.46-13.535c-7.784-5.745-27.825-15.813-38.445-18.633a7.5 7.5 0 1 0-3.85 14.498zm-19.283-58.007a8.224 8.224 0 1 0 0-16.448 8.224 8.224 0 0 0 0 16.448zm-174.257 32.771a7.5 7.5 0 1 0 1.965-14.871c-10.892-1.438-33.259.232-42.645 2.578a7.5 7.5 0 0 0-5.457 9.096 7.504 7.504 0 0 0 7.27 5.683c.602 0 1.214-.073 1.825-.226 7.733-1.934 28.197-3.433 37.042-2.26zm5.984 10.738c-10.621 2.819-30.662 12.887-38.446 18.633a7.5 7.5 0 0 0 4.46 13.535 7.469 7.469 0 0 0 4.448-1.467c6.415-4.734 24.764-13.914 33.387-16.203a7.502 7.502 0 0 0 5.325-9.174 7.504 7.504 0 0 0-9.174-5.324z"/></svg>