<svg xmlns="http://www.w3.org/2000/svg" viewBox="0 0 512 512" style="enable-background:new 0 0 512 512" xml:space="preserve"><path style="fill:#eda751" d="M176.074 430.383c-.715 0-1.431-.016-2.147-.05-21.309-1.003-40.132-16.781-47.954-40.195-6.293-18.837-17.682-22.49-22.286-23.186-6.524-.979-12.598 1.463-16.248 6.55-4.369 6.087-12.845 7.482-18.933 3.112-6.088-4.368-7.481-12.845-3.113-18.933 9.568-13.333 25.795-20.065 42.349-17.559 19.87 3.003 36.306 18.487 43.968 41.417 4.179 12.508 13.62 21.224 23.494 21.689 12.627.596 25.4-11.605 35.072-33.47 3.032-6.854 11.042-9.954 17.897-6.919 6.852 3.031 9.95 11.043 6.918 17.896-7.313 16.532-16.394 29.212-26.992 37.689-9.814 7.85-20.842 11.959-32.025 11.959z"/><path style="fill:#fcd79d" d="M65.393 357.682c-4.369 6.087-2.975 14.565 3.113 18.933 6.088 4.37 14.564 2.975 18.933-3.112a15.975 15.975 0 0 1 6.768-5.427c-2.136-9.858-9.317-17.421-16.98-21.58a43.057 43.057 0 0 0-11.834 11.186z"/><path style="fill:#eda751" d="M307.497 504.498c-.675 0-1.355-.031-2.039-.094-11.937-1.113-20.712-11.691-19.6-23.628 2.84-30.476 3.197-49.354-3.037-61.822-5.361-10.723-1.015-23.763 9.708-29.124 10.724-5.36 23.763-1.014 29.124 9.708 10.897 21.794 11.019 46.781 7.433 85.266-1.049 11.251-10.509 19.694-21.589 19.694zM236.83 504.498c-.675 0-1.355-.031-2.039-.094-11.937-1.113-20.712-11.691-19.6-23.628 2.84-30.476 3.197-49.354-3.037-61.822-5.361-10.723-1.015-23.763 9.708-29.124 10.726-5.36 23.763-1.014 29.124 9.708 10.897 21.794 11.019 46.781 7.433 85.266-1.049 11.251-10.509 19.694-21.589 19.694z"/><path style="opacity:.2;fill:#a35f00;enable-background:new" d="M228.172 362.839c-6.855-3.035-14.865.066-17.897 6.919-9.673 21.865-22.446 34.065-35.072 33.47-4.485-.211-8.875-2.139-12.73-5.338 6.137 11.7 14.366 22.259 24.228 31.244 7.472-1.76 14.717-5.367 21.397-10.711 10.598-8.476 19.68-21.156 26.992-37.688 3.032-6.852-.065-14.864-6.918-17.896z"/><path style="opacity:.2;fill:#a35f00;enable-background:new" d="M221.861 389.829c-10.723 5.361-15.069 18.401-9.708 29.124 3.73 7.46 5.099 17.218 4.99 30.379 13.178 6.12 27.714 10.027 43.06 11.201 1.186-25.405-.798-44.157-9.218-60.996-5.361-10.723-18.398-15.068-29.124-9.708zM331.162 445.08c-.254-17.894-2.893-32.311-9.509-45.543-5.361-10.722-18.4-15.068-29.124-9.708-10.723 5.361-15.069 18.401-9.708 29.124 4.65 9.3 5.632 22.17 4.652 40.756 15.763-2.177 30.535-7.252 43.689-14.629z"/><ellipse style="fill:#fcd690" cx="270.001" cy="348.169" rx="100.12" ry="93.04"/><path style="opacity:.15;fill:#c17a00;enable-background:new" d="M255.376 440.218c-45.753-30.039-31.574-91.605-23.807-118.53v-59.449c-36.224 14.003-61.696 47.202-61.696 85.933.001 46.767 37.138 85.47 85.503 92.046z"/><path style="fill:#eda751" d="M305.45 389.036c-14.245 0-27.881-2.773-38.947-8.074-10.812-5.181-15.377-18.145-10.197-28.957 5.179-10.813 18.144-15.377 28.956-10.198 14.151 6.783 44.519 5.61 61.827-11.697 8.476-8.477 22.222-8.479 30.699-.001 8.478 8.477 8.478 22.222 0 30.699-14.15 14.15-33.997 23.74-55.884 27.003a111.682 111.682 0 0 1-16.454 1.225z"/><path style="fill:#eda751" d="M234.544 389.036c-5.433 0-10.952-.404-16.454-1.223-21.888-3.263-41.735-12.853-55.885-27.002-8.477-8.477-8.477-22.223 0-30.7 8.477-8.478 22.222-8.478 30.699 0 17.308 17.308 47.675 18.479 61.827 11.698 10.812-5.178 23.776-.615 28.956 10.198 5.18 10.811.615 23.776-10.197 28.957-11.064 5.299-24.703 8.072-38.946 8.072z"/><path style="opacity:.2;fill:#a35f00;enable-background:new" d="M234.544 389.036c-5.433 0-10.952-.404-16.454-1.223-21.888-3.263-41.735-12.853-55.885-27.002-8.477-8.477-8.477-22.223 0-30.7 8.477-8.478 22.222-8.478 30.699 0 17.308 17.308 47.675 18.479 61.827 11.698 10.812-5.178 23.776-.615 28.956 10.198 5.18 10.811.615 23.776-10.197 28.957-11.064 5.299-24.703 8.072-38.946 8.072z"/><path style="fill:#eda751" d="M209.066 186.846c19.592-16.439 32.673-44.037 5.038-84.833-27.853-41.119-69.321-51.425-101.696-47.611a20.245 20.245 0 0 0-16.99 14.257c-9.378 31.22-6.428 73.849 29.229 108.418 35.377 34.299 64.827 26.209 84.419 9.769z"/><path style="fill:#ff91ab" d="M94.115 73.436c-7.688 30.696-3.341 70.801 30.532 103.641 30.664 29.729 56.869 27.605 76.067 15.808-13.204-89.632-70.881-113.4-106.599-119.449z"/><path style="fill:#eda751" d="M330.928 186.846c-19.592-16.439-32.673-44.037-5.038-84.833 27.853-41.119 69.321-51.425 101.696-47.611a20.246 20.246 0 0 1 16.991 14.257c9.378 31.22 6.428 73.849-29.229 108.418-35.379 34.299-64.828 26.209-84.42 9.769z"/><path style="fill:#ff91ab" d="M445.879 73.436c7.688 30.696 3.341 70.801-30.532 103.641-30.664 29.729-56.869 27.605-76.067 15.808 13.203-89.632 70.881-113.4 106.599-119.449z"/><path style="fill:#ffdc9c" d="M440.455 211.659c0 77.938-76.317 112.074-170.458 112.074S99.539 289.597 99.539 211.659s76.316-141.12 170.458-141.12 170.458 63.181 170.458 141.12z"/><path style="opacity:.15;fill:#c17a00;enable-background:new" d="M178.981 92.327c-47.739 25.008-79.442 69.102-79.442 119.332 0 66.998 56.396 101.627 132.031 110.029-108.572-64.852-94.413-152.086-52.589-229.361z"/><path d="M360.125 202.456a7.502 7.502 0 0 0-6.453 8.419c.543 4.105 4.31 6.999 8.418 6.452 7.782-1.028 26.458.332 33.246 2.029a7.555 7.555 0 0 0 1.825.226 7.503 7.503 0 0 0 7.27-5.683 7.5 7.5 0 0 0-5.457-9.096c-8.547-2.137-28.921-3.66-38.849-2.347zm91.634-135.954a27.697 27.697 0 0 0-23.296-19.548c-32.594-3.842-64.678 6.292-88.803 27.861-21.285-7.553-44.341-11.593-68.126-11.76 2.189-.461 4.153-1.876 5.207-4.044l10.846-22.308a7.5 7.5 0 0 0-7.107-10.77l-7.943.384 9.436-14.783A7.5 7.5 0 0 0 274.584.075l-29.415 4.227a7.5 7.5 0 0 0 2.134 14.848l13.228-1.901-8.441 13.226a7.5 7.5 0 0 0 6.684 11.527l9.791-.474-5.312 10.926a7.5 7.5 0 0 0 5.132 10.603c-23.758.175-46.787 4.214-68.05 11.759-24.126-21.569-56.211-31.706-88.803-27.861a27.695 27.695 0 0 0-23.296 19.548c-9.829 32.724-4.711 67.22 13.98 95.355-6.687 15.77-10.176 32.554-10.176 49.803 0 31.503 11.561 57.684 34.36 77.814 11.505 10.158 25.605 18.531 42.156 25.058a97.048 97.048 0 0 0-1.286 3.602 29.028 29.028 0 0 0-10.368 6.673c-11.388 11.389-11.388 29.919 0 41.308a93.515 93.515 0 0 0 9.113 7.985 96.243 96.243 0 0 0 9.167 21.597c-6.578-.544-13.264-7.264-16.36-16.533-8.572-25.656-27.249-43.023-49.959-46.455-19.353-2.937-38.343 4.964-49.564 20.6a20.93 20.93 0 0 0-3.672 15.701 20.927 20.927 0 0 0 8.504 13.697c9.438 6.774 22.625 4.606 29.4-4.832 2.002-2.789 5.295-4.066 9.033-3.507 3.24.489 11.313 3.239 16.294 18.147 8.812 26.375 30.289 44.16 54.72 45.311.832.038 1.663.058 2.494.058 10.32 0 20.58-3.051 29.969-8.853.7.485 1.41.952 2.12 1.42 2.403 11.252 1.62 27.517-.441 49.628-1.494 16.036 10.336 30.298 26.376 31.792.907.084 1.826.127 2.732.127 15.157 0 27.648-11.393 29.056-26.499 1.432-15.366 2.108-26.913 2.131-36.828.66.011 1.317.038 1.98.038 3.473 0 6.914-.167 10.322-.465-.012 7.909-.624 17.834-1.929 31.836-.724 7.768 1.621 15.354 6.602 21.358s12.002 9.71 19.774 10.434c.907.084 1.826.127 2.732.127 11.249 0 21.615-6.584 26.409-16.772a7.5 7.5 0 0 0-13.572-6.387c-2.332 4.957-7.371 8.159-12.836 8.159-.445 0-.898-.022-1.344-.063a14.113 14.113 0 0 1-9.617-5.075 14.115 14.115 0 0 1-3.211-10.39c1.471-15.79 2.091-26.724 1.979-35.547a110.072 110.072 0 0 0 27.949-10.364c.493 6.572.56 13.932.22 22.463a7.5 7.5 0 0 0 7.5 7.799 7.5 7.5 0 0 0 7.489-7.201c.501-12.577.159-22.91-1.071-32.068 17.83-13.397 30.727-31.927 36.588-52.456a93.519 93.519 0 0 0 9.112-7.985c11.388-11.388 11.388-29.917 0-41.306a29.112 29.112 0 0 0-10.376-6.695 96.051 96.051 0 0 0-1.291-3.617c8.241-3.252 15.907-6.959 22.928-11.119 35.067-20.777 53.603-52.492 53.603-91.717 0-17.249-3.49-34.033-10.176-49.803 18.692-28.135 23.81-62.63 13.98-95.354zm-21.944 79.579c-8.629-14.648-20.208-28.152-34.503-39.987-.763-.632-1.538-1.25-2.312-1.868 15.894-12.55 33.176-18.85 47.06-21.995 2.676 15.457 3.177 39.328-10.245 63.85zm-3.107-84.231a12.696 12.696 0 0 1 9.304 5.921c-16.414 3.808-36.953 11.569-55.547 27.325a183.527 183.527 0 0 0-25.048-13.9c28.014-21.538 58.59-20.843 71.291-19.346zm-313.422 0c12.7-1.497 43.276-2.192 71.291 19.346a183.468 183.468 0 0 0-25.048 13.9c-18.593-15.757-39.132-23.518-55.547-27.325a12.702 12.702 0 0 1 9.304-5.921zM99.935 82.232c13.884 3.145 31.166 9.444 47.059 21.994-.774.619-1.549 1.237-2.312 1.868-14.295 11.835-25.874 25.339-34.503 39.987-13.422-24.522-12.921-48.393-10.244-63.849zm67.573 273.275c-5.539-5.539-5.539-14.554 0-20.093 2.77-2.77 6.408-4.155 10.046-4.155s7.276 1.385 10.046 4.155c20.408 20.407 54.564 20.733 70.37 13.158 7.068-3.385 15.57-.39 18.953 6.675 3.385 7.065.391 15.566-6.674 18.952-9.876 4.731-22.557 7.337-35.706 7.337-5.098 0-10.261-.384-15.347-1.142-15.76-2.349-30.33-8.211-42.158-16.797l-.114-.084c-3.371-2.456-6.531-5.122-9.416-8.006zm6.771 67.336c-18.19-.856-34.359-14.626-41.193-35.081-7.605-22.766-22.309-27.322-28.286-28.227-9.374-1.406-18.136 2.181-23.455 9.595a6.076 6.076 0 0 1-8.468 1.391 6.02 6.02 0 0 1-2.449-3.944 6.028 6.028 0 0 1 1.058-4.522c7.919-11.036 21.382-16.595 35.134-14.516 17.028 2.573 31.224 16.173 37.975 36.377 5.153 15.425 17.312 26.196 30.254 26.804 3.28.161 6.553-.301 9.786-1.359a103.44 103.44 0 0 0 8.823 9.467c-6.229 2.935-12.764 4.311-19.179 4.015zm76.671 61.264c-.685 7.349-6.755 12.891-14.121 12.891-.445 0-.898-.022-1.344-.063-7.8-.727-13.555-7.664-12.828-15.464 1.615-17.334 2.447-30.993 1.737-42.193 9.063 3.977 18.661 6.728 28.621 8.186.025 9.699-.638 21.336-2.065 36.643zm77.145-69.322c-12.259 9.133-26.412 15.078-41.579 17.575a8.182 8.182 0 0 0-.425.075 101.814 101.814 0 0 1-16.094 1.274c-18.607 0-36.226-4.956-51.434-14.393-.066-.039-.131-.081-.199-.119a94.736 94.736 0 0 1-6.464-4.412c-10.298-7.672-18.669-17.319-24.586-28.11 9.242 4.089 19.245 7.001 29.672 8.556a119.615 119.615 0 0 0 17.558 1.306c12.778 0 24.891-2.055 35.476-5.977 10.595 3.913 22.768 5.977 35.43 5.977 5.836 0 11.744-.439 17.56-1.306 10.427-1.555 20.43-4.467 29.671-8.556-5.917 10.79-14.288 20.437-24.586 28.11zm44.39-79.372c5.539 5.54 5.539 14.554 0 20.094-2.872 2.872-6.017 5.527-9.371 7.974a5.574 5.574 0 0 0-.198.145c-11.82 8.57-26.375 14.421-42.117 16.768a104.472 104.472 0 0 1-15.349 1.142c-6.454 0-12.714-.629-18.613-1.81 6.198-7.706 8.249-18.297 4.831-28.012 17.528 3.72 43.83.594 60.724-16.3a14.109 14.109 0 0 1 10.046-4.161c3.796 0 7.363 1.477 10.047 4.16zm14.221-44.942c-8.25 4.888-17.507 9.103-27.654 12.63-.083.028-.166.054-.248.085-24.794 8.581-54.907 13.047-88.807 13.047-7.45 0-14.841-.222-21.967-.659-4.136-.233-7.691 2.892-7.945 7.027a7.5 7.5 0 0 0 7.027 7.945c7.43.455 15.129.687 22.885.687 26.875 0 51.608-2.718 73.501-7.998a29.774 29.774 0 0 0-1.712 1.572c-14.763 14.763-41.418 15.923-53.285 10.235a29.172 29.172 0 0 0-18.518-2.252 29.06 29.06 0 0 0-18.492 2.253c-11.865 5.688-38.521 4.525-53.283-10.237a29.397 29.397 0 0 0-1.725-1.581 259.61 259.61 0 0 0 14.818 3.113c4.073.74 7.975-1.98 8.707-6.058a7.5 7.5 0 0 0-6.058-8.706c-11.784-2.114-22.657-4.905-32.625-8.332a7.733 7.733 0 0 0-.786-.266c-17.76-6.197-32.567-14.467-44.211-24.748-19.434-17.159-29.288-39.557-29.288-66.57 0-73.679 73.102-133.62 162.958-133.62s162.958 59.941 162.958 133.62c-.001 34.114-15.561 60.63-46.25 78.813zm5.085-47.855c-7.091-5.233-25.349-14.404-35.024-16.974a7.501 7.501 0 0 0-3.85 14.498c7.583 2.014 24.335 10.388 29.967 14.544a7.466 7.466 0 0 0 4.448 1.467 7.501 7.501 0 0 0 4.459-13.535zm-208.564-16.974c-9.676 2.569-27.934 11.74-35.024 16.974a7.5 7.5 0 0 0 8.907 12.068c5.631-4.156 22.382-12.53 29.966-14.544a7.501 7.501 0 0 0 5.324-9.174 7.502 7.502 0 0 0-9.173-5.324zm166.512-50.809a7.501 7.501 0 0 0 5.987-8.756c-.765-4.07-4.688-6.752-8.755-5.986-1.858.349-3.686.696-5.494 1.039-21.124 4.01-39.366 7.473-71.48 7.473s-50.357-3.463-71.481-7.473c-1.808-.344-3.636-.69-5.493-1.039a7.5 7.5 0 1 0-2.768 14.742c1.848.347 3.666.692 5.464 1.033l1.895.359a7.454 7.454 0 0 0-.774 3.303v10.899c0 4.143 3.358 7.5 7.5 7.5s7.5-3.357 7.5-7.5v-10.899c0-.239-.014-.474-.036-.707 16.118 2.762 33.033 4.782 58.193 4.782 25.161 0 42.076-2.019 58.194-4.781a7.503 7.503 0 0 0-.036.707v10.899c0 4.143 3.358 7.5 7.5 7.5s7.5-3.357 7.5-7.5v-10.899a7.45 7.45 0 0 0-.774-3.302l1.893-.359c1.799-.343 3.618-.689 5.465-1.035zm-171.836 42.494a7.5 7.5 0 0 0 1.965-14.871c-9.925-1.311-30.302.211-38.851 2.348a7.503 7.503 0 0 0 1.814 14.779 7.5 7.5 0 0 0 1.825-.226c6.789-1.699 25.468-3.058 33.247-2.03zm51.123-65.332c12.865 1.538 25.884 2.254 40.971 2.254 15.087 0 28.107-.716 40.972-2.254a7.501 7.501 0 0 0-1.78-14.895c-12.26 1.466-24.713 2.148-39.191 2.148-14.478 0-26.931-.683-39.191-2.148a7.502 7.502 0 0 0-1.781 14.895zm40.971 41.494a30.458 30.458 0 0 0-22.964 10.458 7.5 7.5 0 0 0 5.65 12.428 7.485 7.485 0 0 0 5.657-2.572 15.463 15.463 0 0 1 11.657-5.313c4.465 0 8.713 1.936 11.657 5.313a7.5 7.5 0 1 0 11.308-9.855 30.46 30.46 0 0 0-22.965-10.459z"/></svg>