<svg xmlns="http://www.w3.org/2000/svg" viewBox="0 0 511.999 511.999" style="enable-background:new 0 0 511.999 511.999" xml:space="preserve"><circle style="fill:#82c7e6" cx="481.429" cy="30.474" r="22.974"/><circle style="opacity:.4;fill:#fff;enable-background:new" cx="488.729" cy="23.18" r="7.298"/><circle style="fill:#82c7e6" cx="257.029" cy="60.832" r="53.33"/><circle style="opacity:.4;fill:#fff;enable-background:new" cx="243.469" cy="39.25" r="17.558"/><path style="fill:#eda751" d="M25.239 448.936c-4.619 0-9.114-2.393-11.596-6.679-10.603-18.304-6.875-39.393 9.276-52.478 17.277-13.994 41.623-12.686 59.208 3.184 6.988 6.307 13.707 9.123 20.525 8.602 15.497-1.178 31.549-18.769 42.275-31.898 4.677-5.725 13.11-6.575 18.836-1.898 5.726 4.678 6.575 13.111 1.898 18.837-15.014 18.378-35.513 39.721-60.981 41.656-14.319 1.091-27.945-4.1-40.49-15.422-9.497-8.57-19.088-6.571-24.417-2.255-2.161 1.75-8.762 8.241-2.962 18.253 3.706 6.398 1.524 14.588-4.874 18.294a13.344 13.344 0 0 1-6.698 1.804z"/><path style="fill:#fcd79d" d="M13.643 442.257a13.382 13.382 0 0 0 18.294 4.874c6.398-3.706 8.58-11.896 4.874-18.294-1.586-2.738-2.241-5.21-2.316-7.396-11.749-.908-20.683 3.093-26.04 7.243.916 4.585 2.631 9.16 5.188 13.573z"/><path style="fill:#eda751" d="M98.398 367.057c-27.55 0-63.43-9.327-85.191-38.356-7.095-9.465-5.173-22.89 4.292-29.986 9.466-7.094 22.89-5.172 29.986 4.292 15.742 21.002 49.171 23.383 63.571 19.989 11.515-2.71 23.048 4.421 25.761 15.935s-4.42 23.047-15.935 25.761c-6.256 1.474-13.976 2.365-22.484 2.365zM241.394 504.5c-1.178 0-2.37-.097-3.571-.299-11.666-1.958-19.536-13.003-17.578-24.669 4.675-27.855 1.256-42.586-2.366-58.182-.39-1.679-.774-3.337-1.144-4.986-2.587-11.543 4.673-22.998 16.217-25.585 11.54-2.586 22.997 4.674 25.585 16.216.346 1.544.706 3.095 1.071 4.666 3.999 17.226 8.977 38.664 2.884 74.961-1.756 10.467-10.827 17.878-21.098 17.878zM167.434 504.5c-1.178 0-2.371-.097-3.571-.299-11.666-1.958-19.536-13.003-17.578-24.669 4.675-27.855 1.256-42.586-2.366-58.182-.39-1.679-.774-3.337-1.144-4.986-2.587-11.543 4.673-22.998 16.217-25.585 11.542-2.586 22.997 4.674 25.585 16.216.346 1.544.706 3.095 1.071 4.666 3.999 17.226 8.977 38.664 2.885 74.961-1.758 10.467-10.829 17.878-21.099 17.878zM309.497 370.817c-12.483 0-25.344-2.351-38.123-7.706-10.91-4.571-16.048-17.122-11.477-28.032s17.124-16.049 28.032-11.477c19.644 8.23 49.603 5.622 72.252-18.765 8.05-8.668 21.603-9.168 30.27-1.118 8.668 8.05 9.168 21.602 1.119 30.27-19.153 20.624-49.307 36.828-82.073 36.828z"/><path style="opacity:.2;fill:#a35f00;enable-background:new" d="M163.762 367.768c-5.726-4.677-14.159-3.827-18.836 1.898-10.726 13.129-26.777 30.72-42.275 31.898-2.15.164-4.29-.005-6.431-.509 4.935 9.271 11.204 17.808 18.574 25.383 20.827-5.876 37.896-23.956 50.867-39.834 4.676-5.724 3.827-14.158-1.899-18.836zM317.387 327.352c-10.785 1.294-21.064-.233-29.457-3.75-10.908-4.572-23.461.566-28.032 11.477-4.572 10.91.566 23.461 11.477 28.032 12.779 5.355 25.639 7.706 38.123 7.706 3.009 0 5.996-.139 8.955-.403a105.01 105.01 0 0 0-1.066-43.062zM265.071 445.425c-.803-13.668-3.277-24.348-5.463-33.763a612.222 612.222 0 0 1-1.071-4.666c-2.588-11.543-14.044-18.802-25.585-16.216-11.544 2.587-18.804 14.042-16.217 25.585.37 1.649.755 3.307 1.144 4.986 2.721 11.718 5.327 22.949 4.472 39.624 15.476-2.54 29.925-7.921 42.72-15.55z"/><path style="opacity:.2;fill:#a35f00;enable-background:new" d="M184.576 406.997c-2.587-11.543-14.043-18.802-25.585-16.216-11.544 2.587-18.804 14.042-16.217 25.585.37 1.649.755 3.307 1.144 4.986 2.115 9.107 4.157 17.923 4.563 29.225 13.039 6.252 27.468 10.288 42.724 11.591 1.005-22.228-2.552-37.557-5.559-50.505-.364-1.571-.724-3.123-1.07-4.666zM111.056 322.996c-5.65 1.332-14.231 1.767-23.522.545a104.853 104.853 0 0 0-3.762 27.879c0 5.052.367 10.024 1.064 14.9 4.669.504 9.219.737 13.562.737 8.508 0 16.228-.891 22.485-2.365 11.514-2.714 18.648-14.248 15.935-25.761-2.715-11.514-14.247-18.646-25.762-15.935z"/><ellipse style="fill:#fcd690" cx="201.979" cy="351.42" rx="98.79" ry="91.8"/><path style="opacity:.15;fill:#c17a00;enable-background:new" d="M187.551 442.242c-45.145-29.639-31.154-90.387-23.49-116.953V266.63c-35.742 13.817-60.875 46.574-60.875 84.79 0 46.145 36.643 84.333 84.365 90.822z"/><path style="fill:#eda751" d="M141.857 192.24c19.331-16.221 32.238-43.451 4.971-83.705-27.482-40.571-68.399-50.741-100.343-46.978A19.977 19.977 0 0 0 29.72 75.624c-9.253 30.805-6.343 72.866 28.84 106.976 34.908 33.843 63.965 25.861 83.297 9.64z"/><path style="fill:#ff91ab" d="M28.435 80.338c-7.586 30.288-3.297 69.859 30.126 102.262 30.257 29.334 56.113 27.238 75.055 15.598-13.028-88.439-69.938-111.891-105.181-117.86z"/><path style="fill:#eda751" d="M262.098 192.24c-19.331-16.221-32.238-43.451-4.971-83.705 27.482-40.572 68.399-50.741 100.343-46.978a19.977 19.977 0 0 1 16.765 14.067c9.253 30.805 6.343 72.866-28.84 106.976-34.908 33.843-63.965 25.861-83.297 9.64z"/><path style="fill:#ff91ab" d="M375.521 80.338c7.586 30.288 3.297 69.859-30.126 102.262-30.257 29.334-56.113 27.238-75.056 15.598 13.028-88.439 69.938-111.891 105.182-117.86z"/><path style="fill:#ffdc9c" d="M370.169 216.723c0 76.902-75.302 110.584-168.191 110.584S33.786 293.625 33.786 216.723 109.088 77.48 201.978 77.48s168.191 62.341 168.191 139.243z"/><path style="opacity:.15;fill:#c17a00;enable-background:new" d="M112.172 98.978c-47.104 24.676-78.385 68.183-78.385 117.744 0 66.107 55.646 100.276 130.275 108.566-107.128-63.989-93.157-150.062-51.89-226.31z"/><ellipse style="fill:#ff91ab" cx="149.219" cy="219.97" rx="30.453" ry="24.25"/><ellipse style="fill:#ff91ab" cx="314.279" cy="219.97" rx="30.453" ry="24.25"/><path style="fill:#b77866" d="M400.747 279.406h-25.941v42.149c0 7.163 5.807 12.97 12.97 12.97s12.97-5.807 12.97-12.97v-42.149h.001z"/><circle style="fill:#82c7e6" cx="387.779" cy="255.57" r="30.56"/><circle style="fill:#82c7e6" cx="458.449" cy="185.02" r="39.993"/><circle style="opacity:.4;fill:#fff;enable-background:new" cx="470.589" cy="170.97" r="13.198"/><circle style="fill:#82c7e6" cx="397.869" cy="86.46" r="53.33"/><circle style="opacity:.4;fill:#fff;enable-background:new" cx="411.889" cy="68.774" r="17.558"/><ellipse style="fill:#ff91ab" cx="231.749" cy="204.03" rx="13.635" ry="18.442"/><path d="M481.427 60.949c16.804 0 30.474-13.671 30.474-30.475S498.23 0 481.427 0c-16.804 0-30.475 13.67-30.475 30.474s13.671 30.475 30.475 30.475zm0-45.949c8.532 0 15.474 6.942 15.474 15.474 0 8.533-6.942 15.475-15.474 15.475-8.533 0-15.475-6.942-15.475-15.475 0-8.532 6.942-15.474 15.475-15.474zM140.866 222.415a7.496 7.496 0 0 0 8.419-6.453 7.5 7.5 0 0 0-6.453-8.418c-9.805-1.295-29.928.208-38.371 2.319a7.5 7.5 0 0 0-5.457 9.095 7.503 7.503 0 0 0 7.27 5.683c.602 0 1.214-.073 1.825-.226 6.691-1.673 25.101-3.016 32.767-2zm246.91-4.902c-3.513 0-6.912.488-10.143 1.383.013-.724.036-1.447.036-2.173 0-17.013-3.438-33.569-10.026-49.126a111.691 111.691 0 0 0 11.804-23.167 60.595 60.595 0 0 0 18.423 2.859c33.542 0 60.831-27.289 60.831-60.831s-27.289-60.831-60.831-60.831c-21.341 0-40.138 11.056-50.998 27.732a115.48 115.48 0 0 0-29.169 3.301C315.548 25.058 289.168 0 257.029 0c-33.542 0-60.831 27.289-60.831 60.832 0 3.094.242 6.172.708 9.214-22.201.522-43.707 4.473-63.642 11.539-23.821-21.274-55.489-31.264-87.656-27.476a27.427 27.427 0 0 0-23.07 19.358c-9.702 32.301-4.658 66.349 13.777 94.126-6.589 15.558-10.028 32.115-10.028 49.13 0 31.706 11.84 57.932 35.192 77.946 10.224 8.763 22.445 16.131 36.545 22.083-5.546-.025-12.153-.697-18.838-2.475-7.909-2.103-18.787-6.545-25.7-15.769-9.563-12.758-27.725-15.357-40.484-5.795-12.76 9.564-15.36 27.726-5.795 40.485 19.412 25.897 53.503 41.358 91.192 41.358l.207-.003a94.241 94.241 0 0 0 7.065 18.853 17.57 17.57 0 0 1-3.591.68c-4.662.355-9.544-1.832-14.928-6.691-20.387-18.398-48.741-19.815-68.954-3.443-19.132 15.5-23.571 40.441-11.045 62.064 3.723 6.427 10.653 10.42 18.086 10.42 3.662 0 7.278-.974 10.458-2.816 9.965-5.773 13.376-18.578 7.604-28.543-.831-1.433-3.037-5.241 1.192-8.665 1.541-1.247 7.151-4.791 14.672 1.995 14.132 12.753 29.635 18.582 46.083 17.332 9.219-.7 18.486-3.709 27.618-8.94a105.926 105.926 0 0 0 5.526 4.145c2.548 12.038 4.207 25.248.497 47.347-1.279 7.618.486 15.278 4.968 21.568 4.483 6.291 11.147 10.46 18.764 11.738 1.59.267 3.209.402 4.813.402 14.164 0 26.148-10.15 28.495-24.135 2.22-13.228 3.158-25.472 2.881-37.193 1.053.029 2.108.048 3.169.048 4.373 0 8.684-.253 12.92-.735.377 8.64-.288 17.818-2.049 28.306-1.279 7.618.486 15.278 4.968 21.568 4.483 6.291 11.147 10.46 18.764 11.738 1.59.267 3.209.402 4.813.402 10.919 0 20.783-6.049 25.744-15.787a7.5 7.5 0 0 0-13.365-6.809c-2.351 4.614-7.21 7.596-12.379 7.596a14.17 14.17 0 0 1-2.329-.195 13.823 13.823 0 0 1-9.031-5.65 13.827 13.827 0 0 1-2.392-10.381c2.077-12.374 2.756-23.191 2.122-33.503a109.825 109.825 0 0 0 26.961-10.766 148.228 148.228 0 0 1 1.07 21.845 7.5 7.5 0 0 0 14.997.358c.316-13.184-.96-23.778-2.267-31.462 16.029-12.666 28.004-29.673 33.819-49.064 1.725.085 3.447.135 5.153.135 31.469 0 63.621-14.168 86.372-37.967 7.272-3.144 12.378-10.382 12.378-18.795v-33.921c10.566-6.77 17.589-18.607 17.589-32.06-.001-20.986-17.075-38.059-38.061-38.059zM96.042 359.526c-14.681-.35-53.616-4.351-76.834-35.324a13.827 13.827 0 0 1-2.641-10.321 13.83 13.83 0 0 1 5.43-9.165c6.142-4.603 14.883-3.352 19.486 2.789 13.6 18.145 38.001 24.147 56.287 24.256a93.388 93.388 0 0 0-1.728 27.765zm301.826-318.9c25.271 0 45.831 20.56 45.831 45.831s-20.56 45.831-45.831 45.831c-25.272 0-45.832-20.56-45.832-45.831s20.561-45.831 45.832-45.831zm-32.086 97.479a95.171 95.171 0 0 1-6.112 13.714c-8.511-14.406-19.913-27.688-33.98-39.334-.723-.598-1.457-1.183-2.19-1.769a107.984 107.984 0 0 1 15.233-10.036c3.784 15.73 13.687 29.094 27.049 37.425zm-26.034-69.616a60.574 60.574 0 0 0-2.665 16.181c-9.486 4.581-18.227 10.255-26.102 16.924a181.028 181.028 0 0 0-24.523-13.618c18.836-14.452 38.727-18.703 53.29-19.487zM257.029 15c25.272 0 45.832 20.56 45.832 45.832 0 .202-.015.414-.018.618-10.612 4.282-21.62 10.688-32.156 20.133-18.395-6.52-38.128-10.384-58.509-11.352a45.793 45.793 0 0 1-.98-9.4c0-25.271 20.56-45.831 45.831-45.831zM47.363 69.006c12.499-1.473 42.56-2.155 70.136 18.969a181.119 181.119 0 0 0-24.514 13.612C74.69 86.103 54.496 78.45 38.328 74.683a12.43 12.43 0 0 1 9.035-5.677zM34.257 89.138c13.641 3.101 30.59 9.291 46.194 21.583-.731.585-1.464 1.169-2.185 1.766C64.202 124.131 52.8 137.41 44.29 151.814c-13.112-24.062-12.649-47.471-10.033-62.676zm69.852 331.644c-12.196.93-23.932-3.618-34.896-13.511-12.176-10.987-25.931-9.181-34.161-2.516-6.551 5.304-11.721 15.777-4.732 27.841a5.894 5.894 0 0 1-5.081 8.84 5.913 5.913 0 0 1-5.106-2.938c-8.816-15.219-5.87-32.054 7.507-42.89 14.342-11.618 34.681-10.416 49.462 2.923 8.599 7.76 17.139 11.197 26.118 10.512 3.354-.255 6.822-1.107 10.365-2.538a100.952 100.952 0 0 0 7.7 9.474c-5.776 2.785-11.451 4.368-17.176 4.803zm77.026 64.6c-1.13 6.732-6.892 11.618-13.702 11.618a14.19 14.19 0 0 1-2.33-.195 13.823 13.823 0 0 1-9.031-5.65 13.827 13.827 0 0 1-2.392-10.381c2.873-17.115 2.788-29.707 1.539-40.194a110.72 110.72 0 0 0 28.549 8.677c.401 11.293-.459 23.17-2.633 36.125zm2.815-151.004a375.82 375.82 0 0 0 18.028.428c32.345 0 61.212-3.905 86.051-11.598a77.997 77.997 0 0 1 5.24 28.211c0 46.483-40.953 84.3-91.292 84.3-50.338 0-91.292-37.817-91.292-84.3 0-8.671 1.405-17.13 4.174-25.257l.001-.004a78.21 78.21 0 0 1 1.053-2.918c9.951 3.061 20.654 5.536 32.086 7.414a7.503 7.503 0 0 0 8.617-6.185 7.501 7.501 0 0 0-6.185-8.617c-12.986-2.133-24.903-5.072-35.732-8.782a7.614 7.614 0 0 0-.918-.326c-16.958-5.915-31.205-13.75-42.54-23.465-19.876-17.036-29.954-39.429-29.954-66.557 0-72.643 72.086-131.743 160.691-131.743 86.625 0 157.447 56.49 160.571 126.895a7.443 7.443 0 0 0-3.513-2.012c-8.443-2.112-28.567-3.616-38.371-2.319a7.5 7.5 0 0 0 1.965 14.871c7.666-1.016 26.075.327 32.767 1.999.61.153 1.222.226 1.825.226 2.006 0 3.892-.824 5.278-2.202a101.187 101.187 0 0 1-.401 5.069c-5.434 4.976-9.42 11.505-11.254 18.877-7.654-5.255-24.376-13.548-33.455-15.959a7.5 7.5 0 0 0-3.85 14.498c7.475 1.984 23.984 10.238 29.534 14.334a7.467 7.467 0 0 0 4.448 1.466c.85 0 1.695-.146 2.498-.428.102.82.227 1.632.381 2.435-11.171 18.228-29.816 32.448-55.509 42.271-25.335 9.686-57.464 14.806-92.914 14.806a359.96 359.96 0 0 1-17.304-.411 7.5 7.5 0 0 0-7.853 7.129 7.499 7.499 0 0 0 7.129 7.854zm118.83-14.526a89.9 89.9 0 0 0-.594-1.618c24.078-9.52 42.656-22.772 55.414-39.507a38.362 38.362 0 0 0 9.706 8.906v4.163a28.726 28.726 0 0 0-12.619 7.936c-14.235 15.328-33.368 22.666-51.907 20.12zm6.717 43.465c-.66 0-1.325-.013-1.99-.028a93.64 93.64 0 0 0-.634-28.015c1.073.05 2.146.086 3.219.086 20.298 0 40.318-8.979 55.585-25.419a13.926 13.926 0 0 1 1.628-1.478v13.091c0 6.944 3.483 13.082 8.787 16.785-18.971 15.814-43.032 24.978-66.595 24.978zm83.75-41.763a5.477 5.477 0 0 1-5.471 5.47 5.476 5.476 0 0 1-5.47-5.47v-28.321c1.787.259 3.612.399 5.47.399s3.683-.14 5.471-.399v28.321zm-5.471-42.922c-12.715 0-23.06-10.344-23.06-23.059 0-12.715 10.344-23.06 23.06-23.06s23.06 10.345 23.06 23.06c0 12.715-10.345 23.059-23.06 23.059zM166.964 177.52a7.5 7.5 0 0 0-7.5 7.5v10.754a7.5 7.5 0 0 0 15 0V185.02a7.5 7.5 0 0 0-7.5-7.5zm291.488-39.993c-26.188 0-47.493 21.305-47.493 47.493s21.305 47.493 47.493 47.493c26.188 0 47.493-21.305 47.493-47.493s-21.305-47.493-47.493-47.493zm0 79.986c-17.917 0-32.493-14.576-32.493-32.493s14.576-32.493 32.493-32.493 32.493 14.576 32.493 32.493-14.576 32.493-32.493 32.493zm-161.919-14.239a7.5 7.5 0 0 0 7.5-7.5V185.02a7.5 7.5 0 0 0-15 0v10.754a7.5 7.5 0 0 0 7.5 7.5zm-64.785 26.7c11.851 0 21.135-11.395 21.135-25.942s-9.284-25.942-21.135-25.942c-11.852 0-21.135 11.395-21.135 25.942s9.284 25.942 21.135 25.942zm0-36.884c2.837 0 6.135 4.78 6.135 10.942s-3.298 10.942-6.135 10.942c-2.837 0-6.135-4.78-6.135-10.942s3.298-10.942 6.135-10.942zm-85.641 37.334c-9.557 2.538-27.59 11.595-34.593 16.764a7.5 7.5 0 0 0 4.46 13.534 7.467 7.467 0 0 0 4.448-1.466c5.55-4.096 22.059-12.35 29.534-14.334a7.5 7.5 0 0 0-3.849-14.498z"/></svg>