<svg xmlns="http://www.w3.org/2000/svg" viewBox="0 0 511.999 511.999" style="enable-background:new 0 0 511.999 511.999" xml:space="preserve"><path style="fill:#eda751" d="M48.085 420.987c-7.696 0-13.935-6.238-13.935-13.935 0-18.527 10.62-34.708 27.716-42.229 19.603-8.625 43.279-4.107 60.314 11.51 7.144 6.548 14.436 9.008 22.296 7.524 13.968-2.639 30.416-18.146 39.995-37.709 3.385-6.911 11.731-9.773 18.643-6.387 6.912 3.384 9.772 11.731 6.387 18.643-10.338 21.111-32.215 47.616-59.85 52.838-16.61 3.137-32.624-1.827-46.302-14.365-10.791-9.891-22.708-9.866-30.261-6.543-3.328 1.464-11.068 6.024-11.068 16.719 0 7.696-6.239 13.934-13.935 13.934z"/><path style="fill:#fcd79d" d="M48.085 420.987c7.695 0 13.935-6.238 13.935-13.935 0-3.16.686-5.773 1.724-7.94-8.354-5.22-20.253-5.638-27.883-4.64a46.779 46.779 0 0 0-1.711 12.58c.001 7.697 6.24 13.935 13.935 13.935z"/><path style="fill:#eda751" d="M202.861 488.565c-2.467 0-4.974-.412-7.432-1.281-11.609-4.104-17.693-16.843-13.588-28.452 7.359-20.813 14.867-48.153 8.84-60.206-5.506-11.014-1.043-24.406 9.971-29.913 11.017-5.506 24.405-1.042 29.913 9.971 13.891 27.782 4.417 63.619-6.682 95.012-3.237 9.151-11.839 14.869-21.022 14.869zM132.156 344.722c-29.157 0-60.95-12.059-81.296-45.403-6.413-10.511-3.092-24.232 7.42-30.645 10.509-6.412 24.231-3.093 30.645 7.419 20.981 34.387 59.619 23.155 68.816 18.264 10.873-5.78 24.373-1.651 30.152 9.22 5.781 10.872 1.653 24.372-9.22 30.152-12.542 6.668-29.059 10.993-46.517 10.993zM298.512 488.565c-2.467 0-4.974-.412-7.432-1.281-11.609-4.104-17.693-16.843-13.588-28.452 8.537-24.146 4.09-47.895 1.196-53.615-8.377-7.532-9.88-20.33-3.12-29.652 7.229-9.966 21.171-12.188 31.138-4.958 13.654 9.902 18.265 30.065 19.728 45.236 1.874 19.419-.577 39.965-6.902 57.854-3.235 9.15-11.837 14.867-21.02 14.868zM280.51 406.69l.016.012-.016-.012zM381.115 371.253c-15.889 0-30.778-3.662-42.468-9.484-20.65-10.285-32.943-27.354-33.727-46.829-.496-12.303 9.076-22.679 21.38-23.174 12.328-.501 22.68 9.078 23.174 21.38.084 2.064 2.952 5.67 9.054 8.709 13.528 6.738 36.177 7.35 53.288-4.516 10.119-7.018 24.011-4.503 31.026 5.615 7.017 10.119 4.503 24.009-5.615 31.027-17.745 12.305-37.606 17.272-56.112 17.272z"/><path style="fill:#78cfc0" d="m422.697 415.127-7.326-20.129c-2.23-6.128.929-12.903 7.057-15.133l58.898-21.437c6.128-2.23 12.903.929 15.133 7.057l7.326 20.129c2.23 6.128-.929 12.903-7.057 15.133l-58.898 21.437c-6.127 2.23-12.902-.929-15.133-7.057zM380.352 298.784l-7.326-20.129c-2.23-6.128.929-12.903 7.057-15.133l58.898-21.437c6.128-2.23 12.903.929 15.133 7.057l7.326 20.129c2.23 6.128-.929 12.903-7.057 15.133l-58.898 21.437c-6.128 2.23-12.903-.93-15.133-7.057z"/><path style="fill:#78cfc0" d="M399.019 312.91h78.78v38.449h-78.78z" transform="rotate(-109.999 438.416 332.132)"/><path style="opacity:.1;enable-background:new" d="M399.019 312.91h78.78v38.449h-78.78z" transform="rotate(-109.999 438.416 332.132)"/><path style="opacity:.2;fill:#a35f00;enable-background:new" d="M203.114 339.762c-6.912-3.387-15.258-.525-18.643 6.387-9.579 19.563-26.026 35.069-39.994 37.709-.515.097-1.027.175-1.538.239 5.314 8.515 11.751 16.339 19.128 23.28 21.725-9.447 38.699-31.134 47.434-48.971 3.385-6.913.525-15.26-6.387-18.644zM371.223 325.848c-4.705-.8-9.035-2.17-12.695-3.993-6.102-3.039-8.97-6.645-9.054-8.709-.494-12.302-10.846-21.882-23.174-21.38-12.304.495-21.876 10.871-21.38 23.174.784 19.475 13.077 36.544 33.727 46.829 6.87 3.422 14.85 6.089 23.483 7.713 5.856-13.445 9.094-28.15 9.094-43.555l-.001-.079zM157.741 294.357c-4.424 2.353-15.663 6.171-28.471 5.674a108.874 108.874 0 0 0-1.5 44.591c1.467.061 2.93.1 4.385.1 17.459 0 33.976-4.325 46.518-10.994 10.872-5.78 15-19.28 9.22-30.152-5.779-10.871-19.279-14.999-30.152-9.219zM326.35 415.013c-1.55-15.069-6.236-34.683-19.644-44.407-9.967-7.23-23.91-5.008-31.138 4.958-6.76 9.322-5.257 22.12 3.12 29.652 1.988 3.93 4.709 16.372 3.449 31.605 16.387-4.38 31.385-11.895 44.213-21.808z"/><path style="opacity:.2;fill:#a35f00;enable-background:new" d="M200.651 368.712c-11.014 5.507-15.477 18.899-9.971 29.913 3.203 6.406 2.583 17.132.193 28.901 13.09 6.617 27.598 11.059 42.975 12.813 4.881-21.666 5.843-43.4-3.285-61.655-5.507-11.014-18.895-15.478-29.912-9.972z"/><ellipse style="fill:#fcd690" cx="248.69" cy="325.931" rx="102.83" ry="95.56"/><path style="opacity:.15;fill:#c17a00;enable-background:new" d="M233.67 420.466c-46.992-30.852-32.428-94.086-24.451-121.739v-61.059c-37.205 14.382-63.366 48.48-63.366 88.259 0 48.034 38.143 87.784 87.817 94.539z"/><path style="fill:#eda751" d="M186.106 160.234c20.122-16.885 33.557-45.229 5.175-87.13-28.607-42.232-71.198-52.818-104.449-48.9a20.793 20.793 0 0 0-17.451 14.643c-9.632 32.066-6.602 75.848 30.02 111.354 36.336 35.227 66.583 26.918 86.705 10.033z"/><path style="fill:#ff91ab" d="M68.043 43.753c-7.896 31.528-3.432 72.718 31.358 106.447 31.494 30.534 58.409 28.352 78.127 16.236-13.561-92.058-72.799-116.47-109.485-122.683z"/><path style="fill:#eda751" d="M311.268 160.234c-20.122-16.885-33.557-45.229-5.175-87.13 28.607-42.232 71.198-52.818 104.449-48.9a20.793 20.793 0 0 1 17.451 14.643c9.632 32.066 6.603 75.848-30.02 111.354-36.336 35.227-66.583 26.918-86.705 10.033z"/><path style="fill:#ff91ab" d="M429.331 43.753c7.896 31.528 3.432 72.718-31.358 106.447-31.495 30.534-58.409 28.352-78.127 16.236 13.561-92.058 72.8-116.47 109.485-122.683z"/><path style="fill:#eda751" d="M423.76 185.719c0 80.048-78.383 115.109-175.073 115.109S73.614 265.767 73.614 185.719s78.383-144.94 175.073-144.94S423.76 105.67 423.76 185.719z"/><path style="fill:#ffdc9c" d="M423.76 185.719c0 80.048-78.383 115.109-175.073 115.109S73.614 265.767 73.614 185.719s78.383-144.94 175.073-144.94S423.76 105.67 423.76 185.719z"/><path style="fill:#78cfc0" d="m380.352 298.784-7.326-20.129c-2.23-6.128.929-12.903 7.057-15.133l58.898-21.437c6.128-2.23 12.903.929 15.133 7.057l7.326 20.129c2.23 6.128-.929 12.903-7.057 15.133l-58.898 21.437c-6.128 2.23-12.903-.93-15.133-7.057z"/><path style="opacity:.15;fill:#c17a00;enable-background:new" d="M155.207 63.156c-49.031 25.686-81.593 70.973-81.593 122.562 0 68.812 57.923 104.379 135.605 113.008-111.511-66.607-96.968-156.202-54.012-235.57z"/><ellipse style="fill:#ff91ab" cx="162.78" cy="189.091" rx="31.699" ry="25.24"/><ellipse style="fill:#ff91ab" cx="334.6" cy="189.091" rx="31.699" ry="25.24"/><circle style="fill:#ff91ab" cx="248.69" cy="173.491" r="17.779"/><path style="fill:#dee2e5" d="M414.226 136.513H83.149c-11.727 0-19.627-11.997-14.995-22.77l6.569-15.275a32.899 32.899 0 0 1 30.222-19.902h298.4a16.324 16.324 0 0 1 14.995 9.874l10.881 25.303c4.632 10.773-3.269 22.77-14.995 22.77z"/><path style="fill:#7694e4" d="M68.154 113.743c-4.633 10.773 3.268 22.77 14.995 22.77h331.077c11.727 0 19.627-11.997 14.995-22.77l-2.668-6.204H70.821l-2.667 6.204z"/><path d="M455.667 160.612c9.121 1.457 17.222 10.854 18.057 20.949a7.501 7.501 0 0 0 14.95-1.237c-1.394-16.838-14.853-32.003-30.641-34.524a7.497 7.497 0 0 0-8.589 6.224 7.5 7.5 0 0 0 6.223 8.588zm-206.98 38.161c13.94 0 25.279-11.34 25.279-25.279s-11.34-25.279-25.279-25.279-25.279 11.34-25.279 25.279c0 13.938 11.34 25.279 25.279 25.279zm0-35.558c5.668 0 10.279 4.611 10.279 10.279s-4.611 10.279-10.279 10.279-10.279-4.611-10.279-10.279 4.611-10.279 10.279-10.279zM28.902 82.058a7.5 7.5 0 0 0 4.663-14.247c-4.697-1.72-24.536-.729-30.036 2.706A7.5 7.5 0 0 0 7.507 84.38c1.22 0 2.453-.297 3.587-.918 2.963-1.04 14.709-1.845 17.808-1.404zm14.54 84.176a7.5 7.5 0 0 0-5.969-13.761c-12.07 5.235-26.856 26.979-27.942 35.695-.513 4.11 2.401 7.884 6.512 8.396.316.04.632.059.943.059 3.725 0 6.949-2.755 7.422-6.548.829-4.532 12.133-20.847 19.034-23.841zm467.392 216.814-7.327-20.128c-1.764-4.846-5.309-8.716-9.983-10.895s-9.914-2.407-14.763-.645l-4.336 1.578-21.812-59.929 4.336-1.578c4.846-1.764 8.715-5.309 10.895-9.983s2.408-9.917.643-14.763l-7.326-20.128a19.186 19.186 0 0 0-9.982-10.896 19.189 19.189 0 0 0-14.764-.645l-20.855 7.59c10.364-16.46 15.701-35.603 15.701-56.908 0-14.895-2.56-29.539-7.603-43.655a23.767 23.767 0 0 0 10.463-8.77 23.757 23.757 0 0 0 1.989-22.514l-1.727-4.015c7.381-22.344 7.693-47.1.792-70.076a28.24 28.24 0 0 0-23.756-19.933c-33.481-3.95-66.434 6.488-91.184 28.686-22.409-7.962-46.695-12.164-71.548-12.164-24.854 0-49.14 4.202-71.549 12.164-24.749-22.197-57.697-32.635-91.184-28.686a28.24 28.24 0 0 0-23.755 19.933c-6.902 22.974-6.59 47.73.792 70.075l-1.727 4.016a23.755 23.755 0 0 0 1.988 22.513 23.765 23.765 0 0 0 10.464 8.771c-5.043 14.114-7.603 28.758-7.603 43.655 0 32.295 11.851 59.133 35.222 79.769 11.745 10.37 26.128 18.925 43.003 25.607-11.259 2.554-34.774 4.425-49.012-18.909-8.559-14.025-26.931-18.472-40.954-9.915-14.024 8.557-18.473 26.929-9.916 40.955 26.014 42.631 66.112 48.997 87.699 48.997 3.219 0 6.468-.158 9.715-.437a98.315 98.315 0 0 0 8.96 21.707c-2.725 1.518-5.345 2.542-7.746 2.996-3.432.648-8.807.761-15.837-5.683-19.228-17.627-46.078-22.67-68.403-12.847-19.858 8.737-32.194 27.548-32.194 49.094 0 11.819 9.615 21.435 21.434 21.435s21.435-9.616 21.435-21.435c0-5.749 3.583-8.532 6.589-9.853 5.388-2.37 14.04-2.247 22.173 5.207 15.485 14.195 33.729 19.802 52.762 16.206 9.701-1.833 19.219-6.05 28.367-12.54a111.165 111.165 0 0 0 5.946 4.195c.059 10.259-3.624 26.373-10.587 46.065-2.652 7.503-2.225 15.591 1.205 22.772 3.43 7.182 9.451 12.598 16.954 15.251a29.715 29.715 0 0 0 9.933 1.71c12.6 0 23.89-7.985 28.092-19.87 4.687-13.259 10.158-30.162 12.655-47.325a117.55 117.55 0 0 0 31.283-2.832c.265 7.759-.398 18.772-4.472 30.293-5.475 15.49 2.672 32.547 18.16 38.022a29.715 29.715 0 0 0 9.933 1.71c10.082 0 19.397-5.03 24.918-13.455a7.5 7.5 0 0 0-12.547-8.222c-2.698 4.118-7.438 6.676-12.371 6.676-1.674 0-3.333-.287-4.933-.853-7.691-2.719-11.736-11.189-9.018-18.88 5.498-15.548 5.851-30.042 5.118-39.729 10.103-3.79 19.469-8.937 27.842-15.199a110.678 110.678 0 0 1 1.447 10.158c.913 9.456.752 19.171-.479 28.874a7.5 7.5 0 0 0 14.881 1.887c1.371-10.807 1.549-21.642.529-32.203-.694-7.195-1.91-13.862-3.608-19.906 6.442-6.613 11.973-14.011 16.417-22.018 10.741 3.643 22.498 5.555 34.406 5.555 14.795 0 29.366-3.017 42.63-8.761l.454 1.247-4.335 1.578c-4.847 1.764-8.716 5.309-10.896 9.983s-2.408 9.917-.645 14.763l7.326 20.129c2.851 7.832 10.273 12.705 18.163 12.705a19.23 19.23 0 0 0 6.584-1.165l58.896-21.438c10.006-3.634 15.183-14.736 11.543-24.741zm-371.845-46.071c-2.286.16-4.569.246-6.833.246-18.442 0-52.696-5.432-74.895-41.81-4.249-6.964-2.04-16.088 4.924-20.337 6.966-4.248 16.089-2.04 20.337 4.923 14.337 23.496 37.393 29.512 57.673 27.039a97.014 97.014 0 0 0-1.842 18.89c0 3.732.22 7.418.636 11.049zm302.557-87.845a4.281 4.281 0 0 1 3.293.143 4.278 4.278 0 0 1 2.227 2.43l7.327 20.13a4.277 4.277 0 0 1-.144 3.293 4.277 4.277 0 0 1-2.431 2.227l-11.378 4.141-.006.002-.005.002-36.116 13.145a.126.126 0 0 1-.01.003l-.009.004-11.374 4.14a4.311 4.311 0 0 1-5.521-2.574l-6.934-19.05c5.454-3.495 10.484-7.264 15.084-11.295l45.997-16.741zM424.317 83.605a23.793 23.793 0 0 0-20.972-12.539h-22.839c14.824-10.256 30.338-15.678 43.045-18.532a103.006 103.006 0 0 1 .766 31.071zm-14.653-51.952a13.247 13.247 0 0 1 9.854 6.418c-16.916 3.89-38.162 11.871-57.367 28.191-8.252-5.469-17.008-10.3-26.165-14.462 28.916-22.414 60.566-21.693 73.678-20.147zM248.687 48.278c33.139 0 65.133 7.985 92.373 22.788H156.314c27.24-14.803 59.234-22.788 92.373-22.788zM87.71 31.653c13.114-1.546 44.763-2.265 73.679 20.147-9.157 4.162-17.912 8.993-26.164 14.462-19.206-16.32-40.452-24.302-57.368-28.191a13.243 13.243 0 0 1 9.853-6.418zM73.425 86.226a102.82 102.82 0 0 1 .399-33.692c12.707 2.853 28.222 8.276 43.045 18.531h-11.924c-12.471.001-23.975 5.73-31.52 15.161zm2.355 38.817c-1.661-2.523-1.93-5.562-.736-8.337l6.568-15.275a25.378 25.378 0 0 1 23.333-15.365h261.62l.006.001.009-.001h36.765a8.814 8.814 0 0 1 8.105 5.337l10.881 25.303c1.192 2.776.924 5.815-.737 8.338-1.662 2.523-4.348 3.97-7.368 3.97H83.148c-3.02-.001-5.706-1.448-7.368-3.971zm72.48 278.83c-14.195 2.681-27.977-1.648-39.843-12.524-13.451-12.331-28.63-12.155-38.348-7.88-9.736 4.283-15.549 13.099-15.549 23.584 0 3.548-2.887 6.435-6.435 6.435s-6.434-2.887-6.434-6.435c0-15.508 8.903-29.059 23.235-35.364 16.882-7.426 37.382-3.435 52.227 10.174 8.88 8.139 18.552 11.289 28.756 9.365 4.332-.819 8.767-2.576 13.245-5.199a105.546 105.546 0 0 0 8.614 9.835c-6.413 4.084-12.934 6.774-19.468 8.009zm68.55 67.323a14.821 14.821 0 0 1-13.949 9.869c-1.674 0-3.333-.287-4.933-.853a14.696 14.696 0 0 1-8.419-7.572 14.703 14.703 0 0 1-.598-11.309c6.103-17.263 9.775-31.645 10.994-42.986a114.914 114.914 0 0 0 28.771 8.935c-2.349 15.699-7.468 31.475-11.866 43.916zm7.789-163.611c7.815.492 15.92.742 24.088.742 33.619 0 63.964-4.149 89.751-12.145a81.37 81.37 0 0 1 5.095 20.775l.007.067a82.76 82.76 0 0 1 .481 8.902c0 48.554-42.767 88.056-95.334 88.056s-95.334-39.501-95.334-88.056a81.516 81.516 0 0 1 5.579-29.736c9.222 2.851 19.048 5.236 29.505 7.112a7.501 7.501 0 0 0 2.648-14.765c-12.117-2.173-23.298-5.043-33.548-8.569a7.475 7.475 0 0 0-.773-.261c-18.277-6.375-33.516-14.884-45.5-25.466-20.006-17.665-30.149-40.72-30.149-68.525 0-14.254 2.656-28.259 7.884-41.705h319.379c5.228 13.448 7.884 27.453 7.884 41.705 0 27.495-9.823 50.194-29.249 67.735a7.393 7.393 0 0 0-.497.437c-5.262 4.69-11.209 9.011-17.854 12.948-8.493 5.032-18.024 9.37-28.471 13-.069.023-.138.045-.207.071-25.491 8.824-56.448 13.418-91.294 13.418-7.854 0-15.642-.24-23.145-.713-4.128-.246-7.695 2.88-7.957 7.014a7.498 7.498 0 0 0 7.011 7.959zm142.644-22.889 6.061 16.652c2.851 7.832 10.273 12.705 18.163 12.705a19.23 19.23 0 0 0 6.584-1.165l4.336-1.578.892 2.451c-13.977 7.369-31.201 6.464-41.408 1.379-1.73-.862-2.927-1.679-3.735-2.329a96.152 96.152 0 0 0-5.529-21.592c5.098-2.006 9.984-4.177 14.636-6.523zm13.872 79.057c-9.734 0-19.305-1.484-28.098-4.287a96.479 96.479 0 0 0 5.902-29.275c6.319 2.461 13.879 3.895 21.859 3.895 9.132 0 18.782-1.869 27.661-6.147l10.166 27.93c-11.605 5.167-24.435 7.884-37.49 7.884zm35.367-57.573 22.035-8.02 21.812 59.929-22.035 8.02-21.812-59.929zm77.681 87.519-58.897 21.438a4.313 4.313 0 0 1-5.522-2.575v.001l-7.326-20.129c-.394-1.081-.343-2.25.143-3.293s1.349-1.833 2.431-2.227l47.512-17.293.003-.001.003-.001 11.381-4.142a4.286 4.286 0 0 1 3.293.144 4.277 4.277 0 0 1 2.227 2.431l7.327 20.128a4.311 4.311 0 0 1-2.575 5.519zM456.286 76.055a7.497 7.497 0 0 0 10.355-2.302c1.979-3.112 10.908-10.006 18.173-9.658a7.487 7.487 0 0 0 7.833-7.151 7.5 7.5 0 0 0-7.151-7.833c-13.31-.62-26.838 9.247-31.511 16.59a7.5 7.5 0 0 0 2.301 10.354zM333.905 214.776c7.807 2.072 25.049 10.692 30.845 14.97a7.467 7.467 0 0 0 4.448 1.466 7.5 7.5 0 0 0 4.46-13.534c-7.268-5.365-25.985-14.767-35.905-17.4a7.5 7.5 0 0 0-3.848 14.498zm-17.782-43.364a7.5 7.5 0 0 0 7.5-7.5v-11.194a7.5 7.5 0 0 0-15 0v11.194a7.5 7.5 0 0 0 7.5 7.5zm-134.871-26.194a7.5 7.5 0 0 0-7.5 7.5v11.194c0 4.142 3.357 7.5 7.5 7.5s7.5-3.358 7.5-7.5v-11.194a7.5 7.5 0 0 0-7.5-7.5zm161.996 46.121c8.007-1.061 27.233.341 34.224 2.089a7.54 7.54 0 0 0 1.824.226 7.5 7.5 0 0 0 1.813-14.778c-8.764-2.19-29.649-3.751-39.825-2.407a7.501 7.501 0 0 0-6.453 8.418c.542 4.106 4.321 6.99 8.417 6.452zm-183.626 8.939c-9.919 2.633-28.636 12.034-35.906 17.4a7.5 7.5 0 0 0 8.908 12.069c5.797-4.279 23.04-12.898 30.846-14.971 4.004-1.063 6.388-5.17 5.325-9.173s-5.168-6.388-9.173-5.325zm-5.495-8.939c4.096.539 7.875-2.346 8.418-6.453a7.501 7.501 0 0 0-6.453-8.418c-10.178-1.345-31.063.216-39.826 2.408a7.5 7.5 0 1 0 3.639 14.552c6.987-1.748 26.21-3.148 34.222-2.089z"/></svg>