<svg xmlns="http://www.w3.org/2000/svg" viewBox="0 0 512.002 512.002" style="enable-background:new 0 0 512.002 512.002" xml:space="preserve"><path style="fill:#bd4568" d="M173.486 282.358c-32.175 16.09-103.718 87.796-133.866 153.291-3.215 6.985-.599 15.296 6.079 19.108 46.608 26.603 162.887 22.434 218.109 12.622 22.697-50.704 4.37-193.933 4.37-193.933l-94.692 8.912z"/><path style="fill:#eda751" d="M67.325 466.249a14.946 14.946 0 0 1-9.593-3.474c-6.372-5.303-7.239-14.767-1.935-21.139 26.844-32.254 50.634-38.486 71.621-43.985 15.439-4.045 28.772-7.538 43.74-21.915 5.98-5.742 15.481-5.55 21.223.427 5.742 5.979 5.551 15.481-.427 21.223-20.6 19.786-39.899 24.843-56.927 29.304-19.032 4.986-35.468 9.293-56.157 34.15a14.978 14.978 0 0 1-11.545 5.409z"/><path style="fill:#fcd79d" d="M64.769 431.688a164.838 164.838 0 0 0-8.972 9.948c-5.304 6.371-4.437 15.836 1.935 21.139a14.946 14.946 0 0 0 9.593 3.474 14.98 14.98 0 0 0 11.545-5.408 133.474 133.474 0 0 1 8.347-9.169c-5.569-9.394-14.494-16.631-22.448-19.984z"/><path style="fill:#eda751" d="M150.232 504.145c-8.651 0-17.008-4.688-21.298-12.884-6.151-11.751-1.61-26.264 10.141-32.414 27.373-14.327 41.098-32.391 53.206-48.328a837.328 837.328 0 0 1 4.009-5.249c8.106-10.496 23.19-12.435 33.686-4.328 10.497 8.107 12.435 23.189 4.328 33.687-1.237 1.602-2.492 3.254-3.78 4.948-13.637 17.949-32.313 42.531-69.177 61.826a23.893 23.893 0 0 1-11.115 2.742zM266.721 504.5c-6.899 0-13.744-2.957-18.495-8.681-8.469-10.207-7.061-25.348 3.146-33.817 19.733-16.373 15.731-38.836 14.126-42.58-5.227-12.19.419-26.309 12.609-31.536 12.191-5.226 26.309.42 31.536 12.609 9.239 21.55 9.917 67.339-27.599 98.469a23.92 23.92 0 0 1-15.323 5.536zM333.322 361.856c-11.904 0-22.234-8.842-23.789-20.962-1.689-13.156 7.608-25.189 20.763-26.877 16.813-2.157 68.31-30.159 98.395-53.503 10.48-8.131 25.566-6.227 33.697 4.252 8.13 10.479 6.227 25.565-4.252 33.696-30.027 23.298-90.651 59.208-121.726 63.195-1.037.134-2.07.199-3.088.199z"/><path style="opacity:.2;fill:#a35f00;enable-background:new" d="M377.708 347.458c.328-16.82-3.002-33.349-9.728-48.768-16.1 8.391-30.268 14.375-37.685 15.327-13.155 1.688-22.451 13.721-20.763 26.877 1.555 12.119 11.886 20.962 23.789 20.962 1.018 0 2.051-.065 3.088-.198 10.966-1.407 25.617-6.799 41.299-14.2zM278.107 387.887c-12.191 5.227-17.836 19.346-12.609 31.536 1.605 3.744 5.608 26.207-14.126 42.58a24.11 24.11 0 0 0-3.836 4.021c.757.013 1.516.036 2.27.036 22.086 0 43.611-5.346 62.586-15.33 4.748-19.737 2.259-38.548-2.75-50.233-5.226-12.19-19.344-17.836-31.535-12.61zM229.978 400.943c-10.496-8.107-25.58-6.168-33.686 4.328a837.328 837.328 0 0 0-4.009 5.249c-6.949 9.146-14.436 18.992-24.724 28.431 13.477 10.139 28.896 17.673 45.519 22.195 6.894-7.682 12.506-15.061 17.45-21.568 1.288-1.694 2.542-3.346 3.779-4.948 8.106-10.499 6.168-25.581-4.329-33.687zM171.157 375.737c-13.712 13.171-26.054 17.207-39.898 20.902a125.468 125.468 0 0 0 18.306 25.943c13.199-4.247 27.451-10.848 42.388-25.194 5.978-5.742 6.169-15.244.427-21.223-5.742-5.978-15.243-6.17-21.223-.428z"/><ellipse transform="rotate(-82.807 247.636 343.59)" style="fill:#fcd690" cx="247.628" cy="343.578" rx="102.926" ry="110.766"/><path style="fill:#ff91ab" d="M247.953 424.234c-.897 0-1.795-.031-2.695-.095-11.768-.834-21.322-7.077-26.215-17.128a7.5 7.5 0 0 1 3.462-10.026 7.499 7.499 0 0 1 10.026 3.461c3.229 6.637 9.279 8.411 13.786 8.73 6.873.488 14.157-2.295 16.977-6.468a7.501 7.501 0 0 1 12.428 8.4c-5.433 8.039-16.354 13.126-27.769 13.126z"/><circle style="fill:#ff91ab" cx="283.569" cy="374.177" r="41.679"/><path style="opacity:.15;fill:#c17a00;enable-background:new" d="M218.855 442.584c-46.061-39.307-21.971-104.919-9.718-133.397l8.232-65.252c-41.699 10.354-74.254 43.267-79.617 85.778-6.477 51.333 28.927 98.955 81.103 112.871z"/><path style="fill:#bd4568" d="M147.803 271.358c-17.612 2.089-28.594 45.712 8.906 48.883 51.215 4.331 103.806 10.132 125.988 23.888 3.892 2.414 8.745 2.423 12.754.209 21.07-11.635 58.518-10.828 70.56-12.69 27.895-4.313 14.881-47.971-2.86-46.985-17.74.985-215.348-13.305-215.348-13.305z"/><path style="fill:#eda751" d="M203.151 159.848c22.63-16.985 38.737-46.686 10.658-93.411-28.301-47.095-73.491-60.97-109.484-58.7A22.397 22.397 0 0 0 84.7 22.466C72.466 56.392 73.166 103.66 110.481 143.99c37.022 40.012 70.04 32.843 92.67 15.858z"/><path style="fill:#ff91ab" d="M82.973 27.666c-10.336 33.449-7.941 78.012 27.507 116.323 32.09 34.682 61.166 33.908 83.081 22.029-9.205-99.807-71.494-129.526-110.588-138.352z"/><path style="fill:#eda751" d="M337.77 167.163c-20.656-19.337-33.45-50.608-.474-94.016C370.533 29.396 416.96 20.5 452.495 26.655a22.398 22.398 0 0 1 17.914 16.769c8.486 35.052 2.669 81.965-38.797 118.014-41.139 35.766-73.185 25.062-93.842 5.725z"/><path style="fill:#ff91ab" d="M471.563 48.78c6.651 34.372-.559 78.413-39.949 112.658-35.659 31.001-64.48 27.081-84.979 12.897C366.6 76.113 431.741 53.319 471.563 48.78z"/><path style="fill:#ffdc9c" d="M457.274 201.148c-4.678 86.097-91.033 119.226-195.03 113.575-103.998-5.651-186.254-47.941-181.576-134.039 4.678-86.097 92.776-151.312 196.773-145.661 103.997 5.651 184.511 80.028 179.833 166.125z"/><path style="opacity:.15;fill:#c17a00;enable-background:new" d="M175.589 53.629c-54.238 24.761-91.906 71.567-94.921 127.055-4.022 74.012 56.2 115.652 139.248 129.473-116.044-78.158-95.167-173.673-44.327-256.528z"/><ellipse transform="rotate(-86.887 203.564 180.317)" style="fill:#ff91ab" cx="203.564" cy="180.312" rx="27.189" ry="34.149"/><ellipse transform="rotate(93.113 388.414 190.332)" style="fill:#ff91ab" cx="388.407" cy="190.335" rx="27.189" ry="34.149"/><path style="fill:#eda751" d="M166.981 399.351c-20.177 0-38.557-9.738-48.031-25.898-5.556-9.476-7.669-20.554-6.108-32.036 1.466-10.794 6.141-21.82 13.897-32.772 7.662-10.825 22.651-13.388 33.478-5.721 10.825 7.664 13.386 22.653 5.721 33.478-5.467 7.721-5.748 12.079-5.524 12.824.457.689 3.735 2.477 8.19 2.007 13.197-1.407 25.02 8.151 26.422 21.34 1.404 13.189-8.151 25.018-21.34 26.421-2.251.24-4.49.357-6.705.357z"/><g style="opacity:.07"><path d="M310.477 342.363c-24.577 12.55-54.787 18.47-66.618 19.143a41.632 41.632 0 0 0-1.969 12.674c0 .617.02 1.229.047 1.84 14.313-.275 49.571-6.776 78.012-22.173a41.854 41.854 0 0 0-9.472-11.484zM325.068 377.976a42.14 42.14 0 0 0 .18-3.796c0-4.242-.638-8.334-1.816-12.191-27.1 17.383-67.792 24.588-79.669 24.578a41.58 41.58 0 0 0 7.528 13.975c17.826-1.758 48.879-8.577 73.777-22.566z"/></g><path d="M369.991 169.683a7.5 7.5 0 0 0 7.482-7.093l.654-12.04a7.5 7.5 0 0 0-7.082-7.896c-4.11-.228-7.672 2.945-7.896 7.082l-.654 12.04a7.499 7.499 0 0 0 7.496 7.907zm-172.97-2.78c-10.811-2.031-33.255-1.574-42.76.261a7.5 7.5 0 0 0 2.842 14.729c7.835-1.512 28.372-1.896 37.148-.247a7.501 7.501 0 0 0 2.77-14.743zm184.475 41.026a7.501 7.501 0 0 0 4.818 9.449c8.495 2.757 26.339 12.929 32.492 18.009a7.47 7.47 0 0 0 4.771 1.716 7.5 7.5 0 0 0 4.779-13.284c-7.467-6.165-26.95-17.314-37.412-20.71a7.502 7.502 0 0 0-9.448 4.82zm70.675 41.303c7.387-14.18 11.64-30.154 12.592-47.678 1.037-19.088-1.841-37.873-8.35-55.717 22.39-29.821 30.156-67.53 21.284-104.177a29.842 29.842 0 0 0-23.922-22.395c-35.702-6.185-71.687 3.131-99.506 25.58-23.59-9.903-49.47-15.847-76.419-17.311-26.954-1.464-53.324 1.641-77.848 8.929C174.778 11.131 140.003-2.022 103.854.252a29.844 29.844 0 0 0-26.209 19.671c-12.79 35.47-9.156 73.798 9.873 105.87-8.403 17.034-13.3 35.396-14.338 54.485-1.478 27.213 5.198 51.431 19.843 71.981a7.5 7.5 0 0 0 12.215-8.706c-12.622-17.713-18.368-38.729-17.079-62.462 4.446-81.83 89.171-143.998 188.878-138.58 99.701 5.418 177.197 76.398 172.751 158.23-1.047 19.275-6.445 36.123-16.106 50.452a7.741 7.741 0 0 0-.538.782c-9.351 13.559-22.564 24.832-39.605 33.717-5.049 2.633-10.405 5.035-16.047 7.206-.025.009-.05.014-.074.023-.046.017-.088.039-.134.057-30.711 11.774-69.9 16.687-114.631 14.257-50.494-2.743-92.56-13.891-122.799-32.41a7.43 7.43 0 0 0-.596-.379c-.015-.008-.031-.014-.045-.023a139.444 139.444 0 0 1-11.296-7.758 7.5 7.5 0 0 0-9.112 11.915 150.292 150.292 0 0 0 7.309 5.231c-1.774 5.253-2.402 10.854-1.802 16.175a31.872 31.872 0 0 0-3.691 4.326c-5.11 7.217-8.991 14.505-11.63 21.79-33.189 34.532-60.913 73.239-76.183 106.413-4.887 10.619-.943 22.982 9.174 28.757 2.329 1.329 4.899 2.619 7.645 3.854a22.685 22.685 0 0 0 3.308 3.414 22.54 22.54 0 0 0 14.393 5.21 22.63 22.63 0 0 0 5.642-.721c13.053 3.315 28.397 5.784 45.744 7.357a31.307 31.307 0 0 0 3.58 14.356c5.458 10.428 16.165 16.906 27.942 16.906a31.594 31.594 0 0 0 14.594-3.598c15.634-8.183 28.139-17.237 38.635-26.661 10.853-.596 21.639-1.447 31.792-2.516-.394 7.625 1.953 15.412 7.202 21.738a31.444 31.444 0 0 0 24.267 11.392 31.248 31.248 0 0 0 18.724-6.174 7.5 7.5 0 0 0-8.926-12.056 16.346 16.346 0 0 1-9.798 3.229 16.48 16.48 0 0 1-12.723-5.97c-5.815-7.008-4.845-17.441 2.163-23.257 5.241-4.348 9.399-9.409 12.444-15.065 13.578-2.08 26.45-6.376 38.122-12.517-1.142 8.83-3.89 19.122-9.759 29.567a7.5 7.5 0 0 0 13.078 7.347c9.801-17.444 12.257-34.493 12.372-46.819 22.12-16.571 37.759-40.703 42.147-68.946 32.646-12.837 74.336-38.463 98.167-56.953 13.728-10.653 16.231-30.489 5.58-44.219a31.514 31.514 0 0 0-16.146-10.938zM137.348 67.42c-16.835 12.462-30.642 27.019-41.099 43.068-14.353-29.02-12.056-56.502-7.962-73.751 15.599 4.339 35.13 12.573 52.529 28.18a182.712 182.712 0 0 0-3.468 2.503zm16.472-10.906c-19.964-19.042-42.745-28.922-60.857-34.043a14.842 14.842 0 0 1 11.833-7.248c29.306-1.846 57.54 7.805 79.137 26.717-10.497 4.056-20.57 8.926-30.113 14.574zm244.186 13.268c-8.875-6.649-18.362-12.581-28.357-17.751 23.523-16.461 52.646-22.996 81.565-17.985 4.9.848 8.97 4.071 10.978 8.488-18.558 3.128-42.276 10.481-64.186 27.248zm51.384 59.894c-8.656-17.088-20.805-33.054-36.191-47.268a191.695 191.695 0 0 0-3.176-2.865c18.988-13.63 39.296-19.699 55.273-22.322 2.201 17.593 1.506 45.162-15.906 72.455zM120.274 342.427c1.302-9.585 5.536-19.492 12.587-29.449a16.4 16.4 0 0 1 10.693-6.735c.941-.161 1.882-.24 2.817-.24 3.389 0 6.689 1.043 9.511 3.042a16.407 16.407 0 0 1 6.735 10.696 16.411 16.411 0 0 1-2.801 12.327c-5.527 7.807-7.929 14.847-6.586 19.315.211.705.525 1.374.932 1.987 2.487 3.753 8.893 5.992 15.235 5.32a16.408 16.408 0 0 1 12.126 3.573 16.41 16.41 0 0 1 6.044 11.103 16.407 16.407 0 0 1-3.574 12.124 16.413 16.413 0 0 1-11.101 6.046 56.145 56.145 0 0 1-5.911.315c-17.61 0-33.536-8.503-41.562-22.191-4.699-8.014-6.479-17.431-5.145-27.233zm-70.242 94.411a22.481 22.481 0 0 0-3.975 7.083 7.389 7.389 0 0 1 .374-5.135c12.283-26.682 33.133-57.253 58.538-86.154.578 8.756 3.11 17.109 7.511 24.616 3.001 5.118 6.801 9.691 11.221 13.625-20.666 5.436-46.099 12.84-73.669 45.965zm23.074 19.204a7.482 7.482 0 0 1-2.807 2.087 7.444 7.444 0 0 0-.558.222 7.552 7.552 0 0 1-2.415.397 7.419 7.419 0 0 1-4.796-1.739 7.507 7.507 0 0 1-1.646-1.935c-.011-.018-.021-.037-.033-.055a7.477 7.477 0 0 1-.996-3.097 7.458 7.458 0 0 1 1.707-5.489c25.306-30.405 46.886-36.06 67.756-41.528 3.998-1.047 7.818-2.057 11.64-3.233a65.921 65.921 0 0 0 9.455 3.145 115.017 115.017 0 0 0 5.83 7.342c-7.946 3.295-15.626 5.312-23.118 7.275-19.435 5.093-37.793 9.903-60.019 36.608zm49.141 9.592c-12.347-1.054-23.617-2.56-33.693-4.505 17.276-19.028 31.14-22.669 48.372-27.184 9.268-2.428 19.615-5.14 30.595-10.393.865.761 1.743 1.508 2.629 2.244-7.796 8.422-18.557 18.034-34.552 26.405a31.34 31.34 0 0 0-13.351 13.433zm35.623 29.124a16.307 16.307 0 0 1-7.638 1.888 16.49 16.49 0 0 1-14.653-8.861c-4.223-8.069-1.095-18.069 6.974-22.292 18.778-9.828 31.043-21.13 39.798-30.81 9.62 6.123 20.166 10.923 31.329 14.227-13.368 16.159-30.038 32.359-55.81 45.848zm88.713-38.528a31.388 31.388 0 0 0-6.231 6.972 570.128 570.128 0 0 1-20.933 2.07c3.752-4.226 7.243-8.468 10.561-12.686 1.277.201 2.558.388 3.846.551 5.07.64 10.101.958 15.078.991a40.095 40.095 0 0 1-2.321 2.102zm103.522-99.728c-6.586 52.206-57.902 88.874-114.4 81.753-18.584-2.345-35.899-9.221-50.401-19.689l-.021-.016a103.751 103.751 0 0 1-11.188-9.337c-.074-.075-.151-.146-.228-.217-.784-.76-1.561-1.527-2.32-2.312.979-.063 1.959-.13 2.933-.233 8.371-.891 15.894-4.987 21.184-11.536 5.289-6.549 7.712-14.766 6.821-23.137-.891-8.372-4.986-15.895-11.533-21.184-5.931-4.792-13.211-7.231-20.77-6.986a43.527 43.527 0 0 1 1.878-2.874 31.465 31.465 0 0 0 5.008-11.147c38.885 3.702 83.254 9.489 101.676 20.914a19.802 19.802 0 0 0 10.45 2.957c3.385 0 6.793-.85 9.883-2.557 13.561-7.488 35.667-9.374 51.579-10.458a88.968 88.968 0 0 1-.551 16.059zm2.691-31.234c-17.351 1.153-43.57 2.896-60.97 12.503-1.705.942-3.641.936-5.177-.017-21.182-13.135-64.842-19.037-109.839-23.257a31.344 31.344 0 0 0-3.296-7.949c25.565 8.554 55.289 13.868 88.322 15.663 7.68.418 15.203.625 22.572.625 33.94-.001 64.434-4.42 90.193-13.004.296 3.706-.271 7.119-1.706 9.558-1.569 2.668-4.196 4.253-8.03 4.846-2.61.403-6.994.695-12.069 1.032zm100.742-32.731c-21.617 16.773-58.341 39.354-87.742 52.064a103.016 103.016 0 0 0-.184-5.33c.539-.067 1.06-.136 1.545-.211 10.52-1.626 15.958-7.458 18.668-12.064 3.649-6.202 4.72-14.3 3.167-22.59a165.196 165.196 0 0 0 11.479-5.415c18.078-9.425 32.52-21.548 43.126-36.008a16.521 16.521 0 0 1 12.865 6.38c5.582 7.196 4.27 17.591-2.924 23.174zm-56.027-99.847c8.902-.686 29.277 1.918 36.903 4.27.736.228 1.48.336 2.213.336a7.5 7.5 0 0 0 2.209-14.668c-9.251-2.854-31.52-5.742-42.48-4.893a7.499 7.499 0 0 0-6.9 8.055 7.493 7.493 0 0 0 8.055 6.9zm-197.862.026c-10.769 2.242-31.345 11.215-39.435 16.535a7.5 7.5 0 0 0-2.146 10.387 7.49 7.49 0 0 0 6.273 3.381 7.46 7.46 0 0 0 4.113-1.234c6.668-4.383 25.508-12.562 34.251-14.382a7.5 7.5 0 0 0-3.056-14.687zm25.28-30.916a7.5 7.5 0 0 0 7.482-7.093l.654-12.04a7.499 7.499 0 0 0-7.082-7.895c-4.123-.226-7.671 2.945-7.896 7.082l-.654 12.04a7.5 7.5 0 0 0 7.496 7.906zm71.615 13.176a32.913 32.913 0 0 0 25.381-9.934 7.5 7.5 0 0 0-10.757-10.454 17.924 17.924 0 0 1-13.81 5.411 17.906 17.906 0 0 1-13.143-6.876 7.5 7.5 0 1 0-11.826 9.228 32.901 32.901 0 0 0 24.155 12.625z"/></svg>