<svg xmlns="http://www.w3.org/2000/svg" viewBox="0 0 511.996 511.996" style="enable-background:new 0 0 511.996 511.996" xml:space="preserve"><circle style="fill:#82c7e6" cx="195.705" cy="34.775" r="27.27"/><path style="opacity:.1;enable-background:new" d="M211.19 51.408c-14.76 2.978-29.141-6.573-32.119-21.334a27.148 27.148 0 0 1 3.084-18.959c-9.915 5.676-15.561 17.239-13.177 29.052 2.978 14.761 17.359 24.312 32.119 21.333 8.008-1.616 14.477-6.592 18.25-13.16a27.205 27.205 0 0 1-8.157 3.068z"/><path style="fill:#eda751" d="M115.415 470.838c-1.855 0-3.739-.407-5.522-1.268-6.329-3.054-8.984-10.661-5.93-16.991 10.188-21.115 31.832-33.366 66.167-37.451 19.285-2.295 26.142-12.049 39.471-37.29 3.282-6.215 10.98-8.595 17.195-5.31 6.215 3.282 8.593 10.98 5.311 17.195-14.862 28.143-26.995 46.873-58.97 50.678-25.014 2.976-40.143 10.578-46.251 23.238a12.73 12.73 0 0 1-11.471 7.199z"/><path style="fill:#fcd79d" d="M133.497 454.788c-6.029-6.891-14.412-11.811-21.118-14.88a55.01 55.01 0 0 0-8.417 12.672c-3.054 6.33-.399 13.937 5.93 16.991a12.679 12.679 0 0 0 5.522 1.268c4.731 0 9.276-2.651 11.47-7.198 1.588-3.292 3.792-6.238 6.613-8.853z"/><path style="opacity:.2;fill:#a35f00;enable-background:new" d="M232.107 389.723c3.282-6.215.904-13.913-5.311-17.195-6.216-3.285-13.913-.904-17.195 5.31-13.329 25.241-20.186 34.996-39.471 37.29-.624.074-1.235.157-1.851.237a105.526 105.526 0 0 0 18.861 18.557c1.055.804 2.132 1.579 3.216 2.344 19.791-7.685 29.91-24.122 41.751-46.543z"/><path style="fill:#eda751" d="M240.961 504.499c-11.245 0-20.361-9.116-20.361-20.361V416.27c0-11.245 9.116-20.361 20.361-20.361 11.245 0 20.361 9.116 20.361 20.361v67.869c0 11.246-9.115 20.36-20.361 20.36zM338.184 485.655c-9.355 1.616-18.86-3.513-22.427-12.705L291.2 409.68c-4.069-10.483 1.131-22.28 11.614-26.349 10.483-4.067 22.28 1.131 26.348 11.614l24.557 63.271c4.069 10.483-1.131 22.28-11.614 26.348a20.509 20.509 0 0 1-3.921 1.091zM332.255 351.31c-.835 0-1.658-.013-2.477-.039-11.239-.364-20.056-9.771-19.691-21.01.364-11.239 9.796-20.039 21.009-19.691 12.872.42 37.079-5.975 60.279-15.906 10.339-4.425 22.306.368 26.731 10.707 4.425 10.338-.369 22.305-10.706 26.73-10.73 4.592-47.113 19.209-75.145 19.209z"/><path style="opacity:.2;fill:#a35f00;enable-background:new" d="M370.342 327.71a100.565 100.565 0 0 0-7.521-22.736c-12.804 3.756-24.203 5.842-31.726 5.597-11.213-.348-20.645 8.452-21.009 19.691-.365 11.239 8.451 20.646 19.691 21.01.819.026 1.642.039 2.478.039 12.686 0 27.077-2.996 40.031-6.699a100.817 100.817 0 0 0-1.944-16.902z"/><path style="fill:#eda751" d="M117.405 390.932c-.556 0-1.069-.002-1.538-.005-11.244-.07-20.304-9.242-20.234-20.487.069-11.201 9.172-20.234 20.358-20.234h.129c25.242.156 50.044-3.346 61.732-8.714 10.217-4.694 22.305-.215 27.001 10.003 4.694 10.219.215 22.307-10.004 27.001-24.746 11.367-63.769 12.436-77.444 12.436z"/><path style="opacity:.2;fill:#a35f00;enable-background:new" d="M204.852 351.496c-4.696-10.219-16.784-14.698-27.001-10.004-6.845 3.144-18.19 5.646-31.484 7.149a101.61 101.61 0 0 0 1.954 23.867 100.23 100.23 0 0 0 4.793 16.33c14.247-1.717 29.682-4.806 41.734-10.342 10.219-4.693 14.698-16.782 10.004-27z"/><path style="fill:#7694e4" d="M77.846 422.164c-9.648 0-17.578-7.706-17.803-17.403-.229-9.836 7.561-17.996 17.397-18.224a13.69 13.69 0 0 0 9.644-4.259 13.68 13.68 0 0 0 3.807-9.828c-.176-7.592-6.53-13.631-14.088-13.449-9.887.238-17.997-7.561-18.224-17.398-.229-9.836 7.561-17.996 17.397-18.224a50.27 50.27 0 0 1 1.162-.013c26.716 0 48.751 21.411 49.373 48.257.306 13.192-4.543 25.715-13.656 35.26-9.113 9.545-21.397 14.97-34.589 15.276-.14.004-.28.005-.42.005z"/><path style="opacity:.2;fill:#a35f00;enable-background:new" d="M329.162 394.946c-4.069-10.483-15.865-15.681-26.348-11.614-10.483 4.069-15.683 15.865-11.614 26.349l14.328 36.915c13.123-5.849 24.776-13.912 34.529-23.578l-10.895-28.072zM256.573 456.999c1.581 0 3.165-.041 4.75-.104v-40.624c0-11.245-9.116-20.361-20.361-20.361-11.245 0-20.361 9.116-20.361 20.361v35.047a117.063 117.063 0 0 0 35.972 5.681z"/><ellipse transform="scale(-1) rotate(78.591 427.806 -316.892)" style="fill:#fcd690" cx="259.322" cy="350.086" rx="87.265" ry="93.905"/><path style="opacity:.15;fill:#c17a00;enable-background:new" d="M262.966 437.45c-47.639-19.13-46.023-78.366-43.877-104.562L208.06 278.23c-30.708 19.595-47.967 54.843-40.782 90.453 8.676 43 50 71.693 95.688 68.767z"/><path style="fill:#eda751" d="M173.382 213.089c14.963-18.749 21.87-46.549-11.106-78.931-33.237-32.638-73.275-34.421-102.333-24.908a18.989 18.989 0 0 0-12.977 16.26c-2.83 30.444 7.79 69.09 46.986 94.259 38.891 24.97 64.467 12.069 79.43-6.68z"/><path style="fill:#ff91ab" d="M46.654 130.143c-1.374 29.649 10.063 65.715 47.298 89.625 33.709 21.645 57.407 14.83 72.87.422-28.767-79.959-86.205-91.112-120.168-90.047z"/><path style="fill:#eda751" d="M285.423 190.481c-21.063-11.48-38.21-34.427-20.371-77.062 17.98-42.972 54.194-60.141 84.667-62.641a18.99 18.99 0 0 1 18.267 9.956c14.414 26.965 19.611 66.704-6.76 105.104-26.162 38.097-54.739 36.123-75.803 24.643z"/><path style="fill:#ff91ab" d="M370.071 64.884c12.764 26.797 16.207 64.475-8.844 100.953-22.678 33.023-47.165 35.931-67.004 28.646-4.489-84.858 44.131-117.411 75.848-129.599z"/><path style="fill:#ffdc9c" d="M390.728 192.974c14.459 71.657-49.374 117.201-135.929 134.666-86.555 17.465-163.055.238-177.514-71.419-14.46-71.658 43.986-143.906 130.54-161.371s168.443 26.467 182.903 98.124z"/><path style="opacity:.15;fill:#c17a00;enable-background:new" d="M128.186 131.768c-39.253 31.85-60.22 78.272-50.901 124.454 12.43 61.599 70.705 82.975 141.803 76.668-111.853-39.485-115.018-122.315-90.902-201.122z"/><path style="fill:#82c7e6" d="m253.279 233.889-33.435 6.746c-9.222 1.861-18.206-4.107-20.067-13.329-1.861-9.222 4.107-18.206 13.329-20.067l33.435-6.746c9.222-1.861 18.206 4.107 20.067 13.329 1.86 9.222-4.107 18.206-13.329 20.067z"/><g style="opacity:.1"><path d="m240.36 236.5-6.74-33.393 14.701-2.967 6.74 33.393zM218.081 240.986l-6.738-33.393 14.7-2.967 6.74 33.394z"/></g><circle style="fill:#7694e4" cx="292.214" cy="186.287" r="18.468"/><circle style="fill:#7694e4" cx="165.496" cy="211.857" r="18.468"/><path style="fill:#7694e4" d="M436.131 349.746c-19.715 0-38.38-11.882-46.027-31.308-4.835-12.279-4.597-25.705.667-37.806 5.265-12.101 14.927-21.427 27.206-26.26 9.16-3.603 19.5.897 23.104 10.052 3.604 9.155-.897 19.499-10.052 23.103a13.683 13.683 0 0 0-7.584 7.321 13.68 13.68 0 0 0-.187 10.538c2.783 7.066 10.791 10.554 17.86 7.771 9.153-3.605 19.498.895 23.103 10.051 3.605 9.156-.896 19.499-10.051 23.104a49.203 49.203 0 0 1-18.039 3.434z"/><path d="M315.5 235.866c7.304.442 24.165 5.009 30.082 7.77a7.467 7.467 0 0 0 3.167.706 7.503 7.503 0 0 0 3.177-14.298c-7.525-3.513-26.103-8.582-35.52-9.151a7.496 7.496 0 0 0-7.939 7.034 7.5 7.5 0 0 0 7.033 7.939zm1.946-22.294c.808 0 1.629-.131 2.434-.408 6.923-2.375 24.253-4.575 30.773-4.278 4.115.182 7.645-3.01 7.836-7.148a7.502 7.502 0 0 0-7.148-7.837c-8.307-.379-27.401 2.012-36.327 5.074a7.5 7.5 0 0 0-4.66 9.528 7.5 7.5 0 0 0 7.092 5.069zm-190.021 61.771a7.501 7.501 0 0 0 5.557 12.534 7.479 7.479 0 0 0 5.561-2.466c4.381-4.839 18.151-15.586 24.714-18.826a7.5 7.5 0 0 0-6.641-13.45c-8.461 4.177-23.618 16.053-29.191 22.208zm21.978-42.95c-9.414.638-27.953 5.842-35.453 9.41a7.5 7.5 0 0 0 6.443 13.545c5.896-2.805 22.723-7.495 30.023-7.989a7.5 7.5 0 0 0 6.976-7.99c-.28-4.134-3.888-7.255-7.989-6.976zm321.795 88.066c-2.478-6.292-7.257-11.243-13.457-13.94-6.2-2.698-13.081-2.819-19.373-.341a6.278 6.278 0 0 1-8.132-3.538 6.142 6.142 0 0 1 .086-4.801 6.148 6.148 0 0 1 3.452-3.333c12.989-5.113 19.397-19.84 14.284-32.83-5.113-12.984-19.84-19.391-32.829-14.283-14.143 5.567-25.272 16.31-31.336 30.247a57.285 57.285 0 0 0-4.012 13.6c-11.42 4.412-22.832 7.894-32.482 9.917-.14-.229-.28-.459-.422-.687 6.844-4.461 13.092-9.223 18.688-14.272 28.517-25.725 39.725-58.473 32.413-94.707-3.196-15.839-9.496-30.609-18.528-43.864 11.915-29.404 10.184-62.115-4.951-90.428a26.44 26.44 0 0 0-25.494-13.896c-30.72 2.52-58.385 17.77-76.648 42.056-19.036-2.69-38.868-2.46-58.737.798l-3.952-19.587c6.017-2.648 11.168-6.952 14.893-12.56 5.138-7.735 6.955-17.008 5.118-26.11-1.836-9.103-7.107-16.946-14.843-22.083C207.2.679 197.925-1.14 188.825.698c-18.791 3.791-30.993 22.164-27.201 40.954 3.282 16.267 17.492 27.589 33.44 27.879l3.954 19.592c-19.578 4.702-37.949 12.181-54.452 22.042-26.25-15.305-57.666-18.632-86.956-9.044a26.44 26.44 0 0 0-18.111 22.694c-2.973 31.966 8.116 62.788 30.503 85.272-3.185 15.722-3.264 31.779-.068 47.617 2.562 12.698 7.065 24.222 13.386 34.252a7.5 7.5 0 0 0 10.344 2.347 7.5 7.5 0 0 0 2.348-10.344c-5.347-8.484-9.173-18.315-11.374-29.222-2.998-14.856-2.684-29.973.759-44.753a7.44 7.44 0 0 0 .298-1.275c4.181-17.035 12.533-33.601 24.813-48.779 10.42-12.882 23.099-24.072 37.471-33.253a7.46 7.46 0 0 0 1.219-.766c17.833-11.178 38.214-19.29 60.106-23.708l.008-.001.008-.002c82.36-16.611 160.441 24.771 174.06 92.257 6.294 31.192-3.045 58.31-27.758 80.603-6.661 6.009-14.373 11.587-23.028 16.701-.063.037-.127.072-.189.111-21.158 12.463-47.967 22.137-79.087 28.417-57.77 11.657-106.002 6.684-135.8-14.006a7.5 7.5 0 1 0-8.555 12.321c13.732 9.535 30.744 16.112 50.343 19.673-.046.286-.089.572-.132.858-9.693 1.88-21.572 3.097-33.814 3.458a57.349 57.349 0 0 0-8.511-10.533c-10.703-10.442-24.806-16.193-39.71-16.193-.441 0-.888.005-1.336.015-6.76.157-13.055 2.937-17.724 7.828-4.67 4.892-7.154 11.309-6.997 18.067.156 6.764 2.928 13.058 7.803 17.723 4.888 4.677 11.293 7.152 18.1 6.999 1.673-.041 3.237.578 4.456 1.74a6.22 6.22 0 0 1 1.953 4.384 6.153 6.153 0 0 1-1.732 4.475 6.157 6.157 0 0 1-4.394 1.941c-6.761.157-13.055 2.937-17.725 7.828-4.669 4.892-7.154 11.308-6.997 18.068.315 13.635 11.666 24.729 25.301 24.729.201 0 .4-.002.596-.007 15.193-.352 29.343-6.6 39.84-17.595a57.076 57.076 0 0 0 9.751-13.82c11.305-.381 25.959-1.455 40.424-4.16a90.072 90.072 0 0 0 7.752 12.18c-2.064.636-4.348 1.107-6.962 1.418-37.083 4.412-60.645 18.032-72.036 41.639-4.846 10.044-.617 22.158 9.425 27.004a20.047 20.047 0 0 0 8.782 2.013c7.718 0 14.871-4.49 18.225-11.439 4.907-10.17 18.117-16.401 40.384-19.051 14.267-1.698 25.642-6.171 35.358-13.965 1.226.625 2.466 1.226 3.721 1.802v48.453c0 15.362 12.498 27.861 27.86 27.861s27.86-12.498 27.86-27.861v-39.689c3.074-.35 6.161-.826 9.254-1.45a108.668 108.668 0 0 0 16.223-4.61l14.467 37.272c4.201 10.828 14.683 17.786 25.991 17.786 1.558 0 3.131-.132 4.705-.404a28.052 28.052 0 0 0 5.358-1.489c10.817-4.198 17.964-14.813 17.781-26.412a7.5 7.5 0 0 0-7.497-7.382l-.12.001a7.5 7.5 0 0 0-7.381 7.617c.084 5.354-3.216 10.254-8.209 12.192-.809.314-1.646.546-2.487.692-5.995 1.038-11.951-2.34-14.157-8.028l-14.764-38.038a104.253 104.253 0 0 0 21.575-15.497l7.523 19.382a7.503 7.503 0 0 0 6.994 4.788 7.5 7.5 0 0 0 6.99-10.215l-10.235-26.371c10.906-14.229 17.765-31.109 19.323-48.883 14.363-3.112 28.27-7.796 38.837-11.827 10.081 8.664 23.121 13.67 37.141 13.67a56.486 56.486 0 0 0 20.784-3.957c6.292-2.477 11.243-7.255 13.941-13.456a25.179 25.179 0 0 0 .334-19.369zM98.844 150.497c-10.793 13.341-18.868 27.681-24.112 42.52-16.169-19.558-20.144-40.914-20.618-55.386 13.079.363 29.649 2.923 46.14 11.164-.47.566-.946 1.129-1.41 1.702zm11.887-13.148c-19.714-10.791-39.696-14.165-55.372-14.693a11.445 11.445 0 0 1 6.917-6.28c11.254-3.683 38.746-9.883 68.081 4.205a172.464 172.464 0 0 0-19.626 16.768zm88.882-83.199c-10.679 2.154-21.128-4.781-23.284-15.465-2.155-10.683 4.782-21.128 15.465-23.284a19.635 19.635 0 0 1 14.846 2.91 19.631 19.631 0 0 1 8.438 12.554 19.637 19.637 0 0 1-2.91 14.845 19.632 19.632 0 0 1-12.555 8.44zm114.19 42.224a172.356 172.356 0 0 0-24.592-7.845c21.579-24.363 49.324-29.309 61.123-30.276a11.448 11.448 0 0 1 8.811 3.107c-14.243 6.566-31.356 17.424-45.342 35.014zm54.768 37.352c-10.587-11.645-23.592-21.731-38.714-29.844-.649-.348-1.307-.683-1.961-1.022 12.005-13.992 26.282-22.778 38.201-28.184 5.175 13.524 9.793 34.752 2.474 59.05zm-261.14 267.979c-7.729 8.096-18.149 12.697-29.345 12.956l-.241.003c-5.554 0-10.176-4.52-10.305-10.077a10.246 10.246 0 0 1 2.851-7.362 10.25 10.25 0 0 1 7.223-3.19 21.14 21.14 0 0 0 14.894-6.578 21.133 21.133 0 0 0 5.88-15.181c-.132-5.673-2.475-10.963-6.599-14.895-3.993-3.806-9.176-5.884-14.646-5.884-.173 0-.348.002-.521.006a10.207 10.207 0 0 1-7.368-2.841 10.27 10.27 0 0 1-3.177-7.233 10.246 10.246 0 0 1 2.851-7.362 10.25 10.25 0 0 1 7.218-3.19c.331-.007.664-.011.992-.011 22.567 0 41.354 18.362 41.876 40.932.258 11.191-3.855 21.811-11.583 29.907zm25.676-18.7c.681-3.77.992-7.636.901-11.554a57.003 57.003 0 0 0-2.113-14.114c9.318-.487 18.323-1.44 26.283-2.783a89.326 89.326 0 0 0 1.747 15.613 88.958 88.958 0 0 0 2.567 9.737c-10.535 1.774-21.032 2.664-29.385 3.101zm39.145 49.948c-27.762 3.303-44.81 12.274-52.121 27.427a5.196 5.196 0 0 1-4.715 2.958 5.23 5.23 0 0 1-4.697-7.5c8.986-18.624 28.71-29.504 60.298-33.263 6.127-.729 11.283-2.189 15.84-4.469a96.267 96.267 0 0 0 8.667 7.217c-6.536 4.067-14.121 6.541-23.272 7.63zm81.57 51.187c0 7.091-5.77 12.861-12.86 12.861s-12.86-5.769-12.86-12.861v-42.932a105.087 105.087 0 0 0 25.721 3.887v39.045h-.001zm21.287-55.844a93.236 93.236 0 0 1-18.469 1.855c-39.582-.003-74.469-25.575-82.012-62.951a73.88 73.88 0 0 1-1.193-21.118c.01-.098.023-.195.029-.294.167-1.821.397-3.64.7-5.455a221.947 221.947 0 0 0 22.021 1.081c18.642-.001 38.809-2.127 60.097-6.422 29.901-6.033 56.18-15.147 77.775-26.85a74.242 74.242 0 0 1 2.935 5.041c.024.043.047.086.072.128a73.838 73.838 0 0 1 6.971 19.707c8.7 43.113-22.221 85.854-68.926 95.278zm85.058-88.28a89.435 89.435 0 0 0-5.872-25.033c7.852-1.848 16.517-4.46 25.292-7.624a57.235 57.235 0 0 0 3.539 13.825 57.591 57.591 0 0 0 5.309 10.301c-7.867 2.835-17.879 6.083-28.268 8.531zm96.934-6.168a10.25 10.25 0 0 1-5.682 5.483 41.556 41.556 0 0 1-15.289 2.914c-17.104 0-32.797-10.672-39.049-26.556-4.101-10.415-3.9-21.803.565-32.066 4.466-10.264 12.661-18.174 23.074-22.273a10.283 10.283 0 0 1 3.767-.717c4.118 0 8.017 2.48 9.613 6.535 2.083 5.293-.528 11.295-5.822 13.378a21.128 21.128 0 0 0-11.711 11.305 21.126 21.126 0 0 0-.29 16.281c4.299 10.914 16.67 16.298 27.586 12a10.244 10.244 0 0 1 7.893.139 10.25 10.25 0 0 1 5.484 5.681 10.251 10.251 0 0 1-.139 7.896z"/></svg>