<svg xmlns="http://www.w3.org/2000/svg" viewBox="0 0 512 512" style="enable-background:new 0 0 512 512" xml:space="preserve"><path style="fill:#eda751" d="M143.991 437.059c-24.436 0-45.237-7.492-61.824-22.267-13.605-12.119-24.604-29.26-33.625-52.403-3.008-7.716.809-16.411 8.525-19.419 7.717-3.009 16.411.809 19.419 8.526 15.184 38.953 35.373 55.572 67.506 55.572 32.951 0 53.173-25.545 72.729-50.249 2.576-3.254 5.008-6.326 7.49-9.364 5.239-6.414 14.687-7.366 21.1-2.126 6.414 5.239 7.366 14.687 2.126 21.1-2.336 2.859-4.699 5.844-7.201 9.005-20.589 26.007-48.785 61.625-96.245 61.625z"/><path style="fill:#fcd79d" d="M76.485 351.495c-3.008-7.717-11.702-11.535-19.419-8.526-7.716 3.008-11.534 11.702-8.525 19.419a200.045 200.045 0 0 0 6.396 14.69c8.698-1.959 18.661-6.207 27.169-12.681-1.952-3.997-3.823-8.287-5.621-12.902z"/><path style="opacity:.2;fill:#a35f00;enable-background:new" d="M245.132 345.186c-6.481-5.135-16.001-3.77-21.224 2.639-2.378 2.917-4.717 5.872-7.188 8.993-18.451 23.307-37.499 47.351-67.263 49.998 6.612 7.029 14.685 12.546 23.873 16.233 3.104 1.245 6.012 2.917 8.584 5.054l.384.318c25.605-12.169 43.617-34.897 57.938-52.987 2.502-3.16 4.865-6.145 7.201-9.005 5.286-6.472 4.268-16.035-2.305-21.243z"/><path style="fill:#eda751" d="M207.574 504.5a23.885 23.885 0 0 1-14.447-4.852c-10.573-7.989-12.667-23.034-4.679-33.607 7.87-10.416 13.541-22.38 15.968-33.692 2.217-10.336 1.18-17.672-.53-21.091-5.926-11.852-1.122-26.264 10.73-32.19 11.853-5.925 26.265-1.122 32.19 10.73 14.147 28.294 6.08 70.559-20.072 105.172-4.716 6.243-11.895 9.53-19.16 9.53zM363.383 480.122a23.932 23.932 0 0 1-7.998-1.378c-12.494-4.417-19.041-18.126-14.624-30.619 1.623-4.59 1.34-8.5-.917-12.679-3.107-5.754-8.798-9.692-11.815-11.078-10.539 1.221-20.98-4.687-25.067-15.011-4.876-12.321 1.159-26.263 13.48-31.139 18.187-7.201 39.377 4.449 51.997 16.611 19.645 18.931 26.212 44.834 17.566 69.29-3.482 9.849-12.739 16.002-22.622 16.003zM405.86 389.5c-13.802 0-27.483-3.697-39.55-11.089-21.575-13.218-34.114-36.052-32.723-59.592.783-13.228 12.146-23.296 25.367-22.535 13.228.782 23.317 12.14 22.535 25.367-.412 6.963 4.837 12.749 9.887 15.843 3.403 2.084 15.643 8.218 30.296-.378 11.431-6.705 26.13-2.875 32.835 8.554 6.706 11.43 2.876 26.13-8.554 32.835-12.493 7.33-26.351 10.995-40.093 10.995z"/><path style="opacity:.2;fill:#a35f00;enable-background:new" d="M405.278 341.55c-6.824-.2-11.896-2.83-13.9-4.057-5.05-3.094-10.299-8.88-9.887-15.843.781-13.228-9.308-24.585-22.535-25.367-13.222-.761-24.584 9.308-25.367 22.535-1.391 23.54 11.147 46.374 32.723 59.592a75.125 75.125 0 0 0 25.824 9.843c7.367-14.284 11.963-30.059 13.142-46.703zM379.389 408.101c-3.016-4.697-6.672-9.15-10.95-13.273-12.62-12.162-33.81-23.811-51.997-16.611-12.321 4.876-18.356 18.818-13.48 31.139 4.087 10.324 14.529 16.231 25.067 15.011 3.017 1.386 8.708 5.324 11.815 11.078.995 1.842 1.584 3.634 1.818 5.453 14.688-8.573 27.504-19.731 37.727-32.797zM214.617 379.067c-11.852 5.926-16.656 20.338-10.73 32.19 1.71 3.42 2.747 10.756.53 21.091-.666 3.104-1.585 6.258-2.718 9.415 13.704 7.769 28.986 13.309 45.28 16.075 8.821-24.621 9.163-49.373-.171-68.041-5.926-11.852-20.337-16.655-32.191-10.73z"/><ellipse style="fill:#fcd690" cx="270.935" cy="333.021" rx="110.667" ry="102.827"/><path style="opacity:.15;fill:#c17a00;enable-background:new" d="M254.771 434.762c-50.571-33.201-34.898-101.25-26.313-131.009v-65.708c-40.038 15.478-68.191 52.172-68.191 94.981-.001 51.69 41.047 94.467 94.504 101.736z"/><path style="fill:#7694e4" d="M160.498 331.248c-11.453-4.426-21.699-10.555-31.609-16.482-21.915-13.107-36.43-20.918-56.282-16.959-5.219 1.041-10.41-1.922-12.146-6.953l-10.731-31.11c-2.05-5.944 1.483-12.341 7.593-13.824 43.834-10.642 75.594 8.353 99.275 22.516 8.333 4.983 16.203 9.691 23.358 12.456l-19.458 50.356z"/><path style="opacity:.1;enable-background:new" d="m155.271 267.643-19.086 44.454a16.216 16.216 0 0 0-1.242 6.266c8.047 4.734 16.414 9.353 25.555 12.886l19.458-50.357c-7.155-2.765-15.026-7.472-23.358-12.456l-1.327-.793z"/><path style="fill:#82c7e6" d="M57.323 245.921c-6.11 1.483-9.643 7.881-7.593 13.824l10.732 31.11c1.736 5.031 6.926 7.994 12.146 6.953 10.177-2.03 18.951-.96 28.038 2.324 3.093-25.29-3.084-44.64-9.736-56.969-10.335-.849-21.499-.177-33.587 2.758z"/><path style="fill:#eda751" d="M201.7 416.346c-32.162.002-55.37-20.726-59.161-52.871-3.274-27.759 9.401-60.258 36.28-66.594 12.898-3.034 25.817 4.952 28.857 17.85 2.804 11.895-3.776 23.808-14.933 27.973-2.288 3.707-4.185 13.659-1.173 20.535.894 2.04 2.244 5.12 10.118 5.12h.185c13.215 0 23.946 10.688 23.991 23.912.044 13.252-10.662 24.029-23.912 24.074l-.252.001zm-11.857-72.761-.015.003.015-.003z"/><path style="fill:#7694e4" d="M376.814 277.252c-29.562 11.939-65.61 18.174-105.882 18.174s-76.32-6.235-105.882-18.174l-16.194 38.892c-3.676 8.829 1.001 18.872 10.096 21.826 32.491 10.555 70.38 16.03 111.98 16.03 41.599 0 79.489-5.475 111.98-16.03 9.096-2.954 13.773-12.998 10.097-21.826l-16.195-38.892z"/><path style="fill:#82c7e6" d="M246.938 294.644v58.722c7.849.417 15.848.634 23.993.634s16.145-.217 23.993-.634v-58.722c-7.814.51-15.812.781-23.993.781s-16.178-.271-23.993-.781zM198.43 287.66c-11.853-2.76-23.022-6.226-33.381-10.409l-16.194 38.892c-3.676 8.829 1.001 18.872 10.096 21.826 6.691 2.173 13.623 4.119 20.756 5.858l18.723-56.167zM343.434 287.66c11.853-2.76 23.022-6.226 33.381-10.409l16.194 38.892c3.676 8.829-1.001 18.872-10.096 21.826-6.691 2.173-13.623 4.119-20.756 5.858l-18.723-56.167z"/><path style="fill:#eda751" d="M203.585 154.714c21.654-18.171 36.112-48.673 5.569-93.765C178.369 15.502 132.534 4.11 96.751 8.326c-8.822 1.039-16.224 7.251-18.78 15.758-10.366 34.507-7.105 81.624 32.306 119.833 39.104 37.909 71.654 28.967 93.308 10.797z"/><path style="fill:#ff91ab" d="M76.532 29.363c-8.498 33.928-3.693 78.255 33.746 114.553 33.893 32.859 62.856 30.511 84.076 17.473C179.76 62.32 116.011 36.049 76.532 29.363z"/><path style="fill:#eda751" d="M338.278 154.714c-21.654-18.171-36.112-48.673-5.569-93.765 30.785-45.447 76.62-56.84 112.402-52.624 8.822 1.039 16.224 7.251 18.78 15.758 10.366 34.507 7.105 81.624-32.306 119.833-39.102 37.91-71.653 28.968-93.307 10.798z"/><path style="fill:#ff91ab" d="M465.332 29.363c8.498 33.928 3.693 78.255-33.746 114.553-33.893 32.859-62.856 30.511-84.076 17.473 14.592-99.069 78.343-125.34 117.822-132.026z"/><path style="fill:#ffdc9c" d="M459.337 182.139c0 86.144-84.352 123.874-188.405 123.874S82.526 268.283 82.526 182.139 166.878 26.162 270.932 26.162s188.405 69.833 188.405 155.977z"/><path style="opacity:.15;fill:#c17a00;enable-background:new" d="M170.333 50.243c-52.765 27.641-87.806 76.378-87.806 131.896 0 74.052 62.333 112.327 145.931 121.614-120.002-71.681-104.352-168.099-58.125-253.51z"/><ellipse style="fill:#ff91ab" cx="178.477" cy="185.775" rx="34.109" ry="27.169"/><ellipse style="fill:#ff91ab" cx="363.382" cy="185.775" rx="34.109" ry="27.169"/><path style="fill:#82c7e6" d="M460.161 366.012c2.325-7.507 1.4-15.437-2.547-22.164-4.934-8.41-14.061-13.634-23.821-13.634a27.582 27.582 0 0 0-13.94 3.797c-2.491 1.461-5.03 2.522-7.594 3.174-2.707.689-4.66 3.009-4.733 5.801-.31 11.861 1.725 31.425 12.708 45.253 1.52 1.914 4.012 2.782 6.376 2.162a83.88 83.88 0 0 0 20.278-8.278c6.248-3.565 11.145-9.241 13.273-16.111zM201.873 364.76h-.185c-1.685 0-2.916-.14-3.833-.377a5.827 5.827 0 0 0-5.518 1.439c-10.597 10.21-16.356 33.244-8.162 48.056 1.686 3.047 4.75 5.048 8.205 5.486 3.017.382 6.125.581 9.32.581h.264c15.215-.051 27.55-12.471 27.499-27.685-.05-15.163-12.427-27.5-27.59-27.5z"/><path d="M433.792 322.714a35.072 35.072 0 0 0-17.735 4.829c-1.872 1.098-3.772 1.897-5.648 2.375a13.836 13.836 0 0 0-6.722 3.996 21.826 21.826 0 0 1-4.389-.988c.095-.192.194-.382.284-.577a23.86 23.86 0 0 0 .348-19.088l-9.005-21.625c27.636-12.383 48.074-29.592 60.834-51.276a7.5 7.5 0 0 0-12.928-7.608c-12.646 21.489-34.311 38.129-64.392 49.457-28.325 10.667-64.118 16.305-103.51 16.305-41.638 0-78.14-6.082-107.179-17.728-.05-.022-.096-.049-.146-.07-.061-.025-.124-.043-.186-.066-7.86-3.17-15.176-6.745-21.889-10.723-13.843-8.202-24.919-17.928-33.203-29.122a7.482 7.482 0 0 0-.728-1.015c-11.678-16.235-17.576-35.502-17.576-57.651 0-81.871 81.154-148.477 180.905-148.477s180.905 66.606 180.905 148.477c0 7.014-.603 13.836-1.793 20.276a7.5 7.5 0 1 0 14.75 2.724c1.355-7.337 2.043-15.076 2.043-23 0-19.099-3.89-37.682-11.349-55.13 20.72-30.964 26.423-69.004 15.586-105.083A29.818 29.818 0 0 0 445.984.878c-35.951-4.239-71.346 7.007-97.883 30.911-24.071-8.6-50.211-13.127-77.175-13.127s-53.104 4.527-77.175 13.127C167.22 7.886 131.829-3.355 95.874.877A29.821 29.821 0 0 0 70.79 21.925C59.952 58.004 65.655 96.044 86.375 127.01a141.367 141.367 0 0 0-7.841 24.097h-7.762v-12.725a7.5 7.5 0 0 0-15 0v12.725H43.048a7.5 7.5 0 0 0 0 15h12.725v12.725a7.5 7.5 0 0 0 15 0v-12.725h5.18a139.561 139.561 0 0 0-.925 16.033c0 19.586 4.225 37.459 12.439 53.281-10.53-.479-21.079.583-31.912 3.213a18.24 18.24 0 0 0-11.682 8.957 18.16 18.16 0 0 0-1.231 14.602l10.732 31.11c2.942 8.531 11.844 13.63 20.702 11.863 17.266-3.441 29.98 3.49 50.965 16.041 4.363 2.61 8.841 5.277 13.498 7.854-3.611 11.195-4.84 23.486-3.446 35.297 1.599 13.556 6.389 25.46 13.761 34.992a54.377 54.377 0 0 1-4.861.221c-28.921 0-46.456-14.717-60.519-50.796a22.349 22.349 0 0 0-11.916-12.429 22.349 22.349 0 0 0-17.214-.361 22.347 22.347 0 0 0-12.428 11.916 22.349 22.349 0 0 0-.362 17.214c9.461 24.272 21.114 42.354 35.625 55.28 18.003 16.036 40.482 24.166 66.812 24.166 19.201 0 36.752-5.265 53.519-16.057-.128.75-.26 1.502-.426 2.275-1.046 4.875-2.769 9.913-5.12 14.974a7.5 7.5 0 0 0 13.604 6.32c2.822-6.074 4.902-12.18 6.183-18.148a67.65 67.65 0 0 0 .866-4.932c9.893 5.252 20.491 9.109 31.505 11.496-3.593 17.079-11.745 34.576-23.37 49.963-3.146 4.164-7.949 6.551-13.178 6.551a16.341 16.341 0 0 1-9.925-3.335 16.528 16.528 0 0 1-6.541-13.777 7.5 7.5 0 0 0-7.223-7.767c-4.169-.166-7.617 3.083-7.767 7.223a31.535 31.535 0 0 0 12.488 26.288c5.514 4.165 12.073 6.367 18.968 6.367 9.974 0 19.14-4.56 25.144-12.509 13.11-17.351 22.266-37.232 26.234-56.71 3.963.374 7.959.575 11.979.575 18.786 0 36.584-4.097 52.397-11.402a30.98 30.98 0 0 0 3.061.05c2.211 1.388 5.19 3.915 6.858 7.005 1.242 2.3 1.359 4.031.444 6.615-5.788 16.372 2.824 34.4 19.197 40.19a31.413 31.413 0 0 0 10.491 1.807h.006c13.319-.001 25.25-8.442 29.691-21.002 9.371-26.505 2.799-54.47-17.551-75.317a83.728 83.728 0 0 0 30.337 5.698c4.027 0 8.102-.305 12.157-.891a13.658 13.658 0 0 0 7.066 1.988c1.142 0 2.293-.145 3.429-.442a91.376 91.376 0 0 0 22.092-9.018c8.146-4.647 14.084-11.894 16.72-20.405 2.961-9.561 1.809-19.568-3.243-28.178-6.275-10.699-17.881-17.342-30.291-17.342zm13.805-211.461c-9.561-16.575-22.544-31.841-38.661-45.184a190.23 190.23 0 0 0-3.317-2.68c18.198-14.62 38.121-21.773 53.914-25.256 3.147 17.427 3.947 44.959-11.936 73.12zm-3.363-95.479a14.82 14.82 0 0 1 11.403 7.861c-18.345 4.128-41.602 12.748-62.546 30.658-9.21-6.148-18.991-11.55-29.237-16.165 22.569-17.691 51.26-25.788 80.38-22.354zm-346.605-.001c29.119-3.431 57.811 4.664 80.381 22.354-10.247 4.615-20.027 10.016-29.237 16.165-20.944-17.911-44.202-26.53-62.546-30.658a14.82 14.82 0 0 1 11.402-7.861zM82.33 38.133c15.793 3.483 35.715 10.637 53.914 25.256a186.55 186.55 0 0 0-3.317 2.68c-16.117 13.343-29.099 28.609-38.66 45.183C78.384 83.091 79.183 55.559 82.33 38.133zm59.602 275.128c-.056.134-.103.271-.157.406-3.064-1.764-6.076-3.565-9.037-5.336-23.531-14.074-39.42-22.301-61.598-17.878-1.538.306-3.08-.572-3.588-2.044L56.82 257.298a3.1 3.1 0 0 1 .213-2.516 3.173 3.173 0 0 1 2.059-1.575c13.197-3.204 25.879-3.75 38.678-1.66 9.298 12.046 21.37 22.547 36.115 31.284 5.353 3.171 11.045 6.105 17.052 8.799l-9.005 21.631zm2.059 116.298c-22.54 0-41.663-6.853-56.837-20.368-12.701-11.313-23.045-27.512-31.626-49.527a7.448 7.448 0 0 1 .121-5.736 7.445 7.445 0 0 1 4.142-3.971 7.445 7.445 0 0 1 5.735.121 7.45 7.45 0 0 1 3.971 4.141c16.269 41.736 39.243 60.348 74.494 60.348 6.215 0 12.317-.85 18.199-2.502 5.263 3.678 11.171 6.574 17.635 8.576.132.15.262.301.398.447-11.492 5.677-23.449 8.471-36.232 8.471zm28.909-28.373a46.274 46.274 0 0 1-4.175-2.905 7.514 7.514 0 0 0-.874-.691c-9.838-8.08-16.111-20.129-17.864-34.993-.786-6.66-.516-13.667.706-20.393a23.921 23.921 0 0 0 5.941 2.9c8.357 2.715 17.023 5.095 25.98 7.139-.264 3.832.032 7.964 1.261 11.791-7.399 9.322-12.06 23.641-10.975 37.152zm29.065 11.259h-.275c-2.823 0-5.638-.175-8.366-.521-1.078-.137-2.006-.732-2.521-1.589-.029-.05-.064-.097-.094-.146-6.279-11.442-1.781-29.934 6.205-38.333 1.386.272 2.958.404 4.776.404h.184c11.041 0 20.053 8.983 20.09 20.024.037 11.079-8.946 20.123-19.999 20.161zm117.138 4.916c-.271.112-.534.24-.789.383-14.209 6.788-30.328 10.614-47.383 10.614-15.988 0-31.552-3.392-45.687-9.86 7.215-6.457 11.754-15.842 11.719-26.262-.064-19.286-15.807-34.974-35.09-34.974h-.184c-1.381 0-1.903-.125-1.96-.139a13.606 13.606 0 0 0-2.099-.351 19.094 19.094 0 0 1-.09-1.492c22.831 4.129 47.373 6.221 73.391 6.221 37.152 0 71.306-4.248 101.744-12.637-1.734 9.621-5.014 18.736-9.598 27.127a7.46 7.46 0 0 0-.333.538c-.092.166-.169.336-.246.506a93.443 93.443 0 0 1-5.135 8.119c-.073.083-.15.161-.22.249-.22.275-.408.564-.583.859-9.495 13.027-22.376 23.74-37.457 31.099zm59.83 44.259a16.527 16.527 0 0 1-15.552 11.003h-.003c-1.862 0-3.71-.32-5.493-.949-8.575-3.032-13.084-12.475-10.054-21.047 2.326-6.577 1.872-12.708-1.388-18.744-1.882-3.485-4.451-6.459-7.126-8.846 9.33-6.183 17.659-13.605 24.713-22.013 16.845 16.756 22.424 39.324 14.903 60.596zM270.932 346.5c-27.939 0-54.056-2.477-78.025-7.379a7.219 7.219 0 0 0-.494-.102c-10.832-2.233-21.224-4.961-31.144-8.183a8.839 8.839 0 0 1-5.362-4.756 8.967 8.967 0 0 1-.578-1.684 9.082 9.082 0 0 0-.041-.238 7.953 7.953 0 0 0-.072-.374 8.704 8.704 0 0 1 .563-4.759l9.074-21.79c29.657 10.703 65.663 16.278 106.079 16.278 40.538 0 76.194-5.489 106.076-16.286l9.077 21.8a8.701 8.701 0 0 1-.128 7.054 8.877 8.877 0 0 1-2.221 2.98 7.07 7.07 0 0 0-.474.378 8.98 8.98 0 0 1-2.667 1.398C348.6 341.23 311.704 346.5 270.932 346.5zM405.86 382a68.655 68.655 0 0 1-26.376-5.275 104.014 104.014 0 0 0 8.981-32.252c2.316 1.295 6.359 3.164 11.595 4.065.291 8.551 1.825 21.43 7.54 33.421-.581.015-1.163.041-1.74.041zm47.137-18.206c-1.506 4.864-4.996 9.059-9.824 11.814a76.388 76.388 0 0 1-17.582 7.301c-9.861-13.011-10.662-31.75-10.586-38.696 2.937-.835 5.84-2.088 8.642-3.732a20.07 20.07 0 0 1 10.145-2.767c7.11 0 13.76 3.805 17.353 9.93 2.893 4.929 3.55 10.665 1.852 16.15zM305.82 157.442l-4.254 7.082-5.181-7.228a10.724 10.724 0 0 0-8.637-4.463h-.054a10.722 10.722 0 0 0-8.627 4.374l-8.135 11.104-8.135-11.104a10.724 10.724 0 0 0-8.627-4.374h-.056a10.724 10.724 0 0 0-8.636 4.464l-5.18 7.227-4.254-7.082a7.5 7.5 0 0 0-10.291-2.567 7.5 7.5 0 0 0-2.567 10.291l7.627 12.697a10.663 10.663 0 0 0 8.734 5.18 10.653 10.653 0 0 0 9.126-4.456l5.536-7.723 8.096 11.052c2.007 2.739 5.232 4.374 8.627 4.374s6.621-1.635 8.627-4.374l8.097-11.052 5.535 7.722a10.657 10.657 0 0 0 9.124 4.456 10.665 10.665 0 0 0 8.736-5.179l7.627-12.698a7.5 7.5 0 0 0-12.858-7.723zm-114.959-10.816v12.047a7.5 7.5 0 0 0 15 0v-12.047a7.5 7.5 0 0 0-15 0zm-49.618 83.9a7.467 7.467 0 0 0 4.448-1.466c6.413-4.734 24.763-13.914 33.387-16.204a7.5 7.5 0 0 0-3.85-14.498c-10.622 2.821-30.663 12.889-38.446 18.633a7.5 7.5 0 0 0 4.461 13.535zm28.002-42.905a7.5 7.5 0 0 0 1.965-14.871c-10.894-1.438-33.26.232-42.645 2.579a7.499 7.499 0 0 0-5.457 9.095 7.503 7.503 0 0 0 7.27 5.683c.602 0 1.214-.073 1.825-.226 7.733-1.934 28.196-3.43 37.042-2.26zm166.758-40.995v12.047a7.5 7.5 0 0 0 15 0v-12.047a7.5 7.5 0 0 0-15 0zm75.482 43.48a7.5 7.5 0 0 0 1.813-14.778c-9.385-2.347-31.751-4.018-42.645-2.579a7.5 7.5 0 0 0 1.965 14.871c8.845-1.167 29.308.326 37.042 2.259a7.453 7.453 0 0 0 1.825.227zm-44.851 8.253a7.505 7.505 0 0 0-9.174 5.324 7.501 7.501 0 0 0 5.324 9.174c8.624 2.29 26.974 11.469 33.387 16.204a7.467 7.467 0 0 0 4.448 1.466 7.5 7.5 0 0 0 4.46-13.534c-7.782-5.747-27.823-15.813-38.445-18.634zm94.323 75.711a7.5 7.5 0 0 0-10.607 0l-8.998 8.998-8.998-8.998a7.5 7.5 0 0 0-10.606 0 7.5 7.5 0 0 0 0 10.606l8.998 8.998-8.998 8.998a7.5 7.5 0 0 0 5.303 12.803 7.474 7.474 0 0 0 5.303-2.197l8.998-8.998 8.998 8.998a7.478 7.478 0 0 0 5.303 2.197 7.474 7.474 0 0 0 5.303-2.197 7.5 7.5 0 0 0 0-10.606l-8.998-8.998 8.998-8.998a7.498 7.498 0 0 0 .001-10.606z"/></svg>