<svg xmlns="http://www.w3.org/2000/svg" viewBox="0 0 512 512" style="enable-background:new 0 0 512 512" xml:space="preserve"><path style="fill:#eda751" d="M123.103 357.337c-25.954 0-59.97-5.729-83.919-30.965-9.263-9.761-8.86-25.183.901-34.446 9.762-9.263 25.182-8.861 34.446.901 7.879 8.301 33.484 21.767 74.012 13.33 13.172-2.741 26.077 5.713 28.821 18.887 2.743 13.175-5.712 26.078-18.887 28.821-5.11 1.064-18.55 3.472-35.374 3.472zM347.498 433.516c-1.688 0-3.383-.093-5.081-.282-19.595-2.172-37.647-16.318-50.831-39.829-4.113-7.336-1.5-16.618 5.836-20.73 7.338-4.116 16.618-1.501 20.73 5.835 8.008 14.283 18.334 23.423 27.62 24.453 6.2.687 12.385-2.331 18.359-8.979 27.392-30.494 73.906-37.327 108.195-15.899 7.133 4.457 9.3 13.853 4.842 20.984-4.458 7.132-13.851 9.301-20.984 4.843-18.898-11.811-50.023-11.143-69.396 10.424-11.219 12.492-25.01 19.18-39.29 19.18z"/><path style="fill:#fcd79d" d="M456.185 403.914c7.134 4.458 16.527 2.289 20.984-4.843 4.458-7.133 2.29-16.528-4.842-20.984a80.854 80.854 0 0 0-15.465-7.486c-7.884 6.493-11.974 19.26-13.265 27.811 4.554 1.295 8.817 3.145 12.588 5.502z"/><path style="fill:#eda751" d="M307.417 504.5a24.292 24.292 0 0 1-17.424-7.332c-18.434-18.855-28.423-37.57-30.541-57.217-2.144-19.894 4.567-36.113 9.801-46.581 6.017-12.035 20.653-16.915 32.69-10.897 12.037 6.018 16.915 20.653 10.897 32.69-5.531 11.061-11.799 23.597 11.999 47.937 9.407 9.622 9.234 25.048-.389 34.456a24.288 24.288 0 0 1-17.033 6.944zM170.034 504.5c-10.037 0-19.436-6.249-22.972-16.251-16.485-46.629 7.925-86.164 27.182-100.129 10.896-7.9 26.129-5.473 34.028 5.42 7.9 10.894 5.474 26.128-5.419 34.029-3.347 2.427-18.518 19.912-9.847 44.438 4.485 12.688-2.164 26.608-14.852 31.094a24.346 24.346 0 0 1-8.12 1.399z"/><path style="opacity:.2;fill:#a35f00;enable-background:new" d="M148.543 306.156c-13.238 2.756-24.872 3.165-34.828 2.191a116.59 116.59 0 0 0-3.848 29.727c0 6.409.521 12.706 1.525 18.855 4.034.281 7.959.406 11.711.406 16.824 0 30.264-2.408 35.374-3.472 13.175-2.743 21.63-15.647 18.887-28.821-2.743-13.172-15.65-21.627-28.821-18.886zM174.245 388.12c-9.419 6.831-20.067 19.781-26.564 36.682 12.166 11.639 26.748 21.037 42.981 27.463 1.64-13.822 9.838-22.989 12.192-24.697 10.893-7.901 13.319-23.135 5.419-34.029-7.899-10.893-23.133-13.319-34.028-5.419zM301.944 382.474c-12.037-6.018-26.673-1.139-32.69 10.897-5.234 10.469-11.945 26.686-9.801 46.581.732 6.796 2.43 13.479 5.07 20.096 16.594-2.738 32.127-8.404 45.976-16.407-5.653-12.473-1.483-20.828 2.341-28.476 6.018-12.037 1.14-26.673-10.896-32.691z"/><path style="opacity:.2;fill:#a35f00;enable-background:new" d="M345.773 402.963c-9.287-1.03-19.612-10.171-27.62-24.453-4.113-7.336-13.393-9.951-20.731-5.835-7.336 4.113-9.949 13.395-5.836 20.73 10.288 18.348 23.54 30.99 38.178 36.692 9.864-8.347 18.38-18.07 25.209-28.844-3.047 1.476-6.122 2.051-9.2 1.71z"/><ellipse style="fill:#fcd690" cx="241.664" cy="338.071" rx="112.377" ry="104.427"/><path style="opacity:.15;fill:#c17a00;enable-background:new" d="M225.251 441.391c-51.355-33.717-35.439-102.82-26.721-133.042v-66.728c-40.659 15.718-69.249 52.981-69.249 96.454 0 52.493 41.684 95.934 95.97 103.316z"/><path style="fill:#eda751" d="M173.272 156.998c21.99-18.453 36.673-49.429 5.655-95.22C147.663 15.627 101.119 4.057 64.78 8.339c-8.959 1.055-16.476 7.363-19.071 16.003-10.526 35.043-7.216 82.89 32.807 121.692 39.71 38.496 72.764 29.417 94.756 10.964z"/><path style="fill:#ff91ab" d="M44.247 29.702c-8.63 34.455-3.75 79.47 34.27 116.33 34.419 33.369 63.832 30.984 85.381 17.744C149.076 63.17 84.338 36.492 44.247 29.702z"/><path style="fill:#eda751" d="M310.053 156.998c-21.99-18.453-36.673-49.429-5.655-95.22 31.263-46.153 77.808-57.722 114.146-53.441a22.72 22.72 0 0 1 19.07 16.003c10.526 35.043 7.216 82.89-32.807 121.692-39.708 38.498-72.763 29.419-94.754 10.966z"/><path style="fill:#ff91ab" d="M439.078 29.702c8.63 34.455 3.75 79.47-34.27 116.33-34.419 33.369-63.832 30.984-85.381 17.744C334.248 63.17 398.987 36.492 439.078 29.702z"/><path style="fill:#ffdc9c" d="M432.99 184.848c0 87.481-85.661 125.796-191.328 125.796S50.335 272.329 50.335 184.848s85.66-158.397 191.327-158.397S432.99 97.369 432.99 184.848z"/><path style="opacity:.15;fill:#c17a00;enable-background:new" d="M139.503 50.907c-53.584 28.07-89.169 77.563-89.169 133.942 0 75.201 63.3 114.07 148.195 123.501-121.863-72.794-105.97-170.708-59.026-257.443z"/><ellipse style="fill:#ff91ab" cx="135.157" cy="188.535" rx="34.642" ry="27.587"/><ellipse style="fill:#ff91ab" cx="322.932" cy="188.535" rx="34.642" ry="27.587"/><path style="fill:#bd4568" d="M155.347 117.802c-8.507-8.507-22.237-8.607-30.867-.301-8.905 8.571-8.739 23.042.001 31.782l20.96 20.96c5.47 5.47 14.34 5.47 19.809 0l20.961-20.96c8.74-8.74 8.907-23.211.001-31.782-8.628-8.307-22.358-8.206-30.865.301zM241.662 339.483c-11.493-11.493-30.041-11.628-41.701-.407-12.031 11.58-11.806 31.13.002 42.937l28.317 28.317c7.39 7.39 19.373 7.39 26.762 0l28.317-28.317c11.808-11.808 12.033-31.358.001-42.937-11.657-11.22-30.205-11.084-41.698.407zM302.741 117.802c8.507-8.507 22.236-8.607 30.867-.301 8.906 8.571 8.739 23.042-.001 31.782l-20.96 20.96c-5.47 5.47-14.34 5.47-19.81 0l-20.961-20.96c-8.74-8.74-8.907-23.211-.001-31.782 8.629-8.307 22.359-8.206 30.866.301z"/><path style="fill:#eda751" d="M307.812 404.946c-12.921.001-26.072-3.948-37.978-11.895-11.192-7.47-14.209-22.599-6.739-33.792 7.469-11.193 22.599-14.212 33.793-6.739 9.782 6.528 16.745 3.002 20.024.319 4.459-3.648 7.976-10.588 4.475-19.122-5.109-12.449.844-26.682 13.293-31.79 12.453-5.108 26.684.845 31.79 13.294 11.03 26.882 3.516 57.156-18.697 75.332-11.698 9.574-25.687 14.393-39.961 14.393z"/><path d="M486.402 385.888a22.576 22.576 0 0 0-10.102-14.163c-34.223-21.389-79.598-16.925-109.871 9.509 13.565-19.793 16.573-45.483 6.981-68.86a31.683 31.683 0 0 0-12.945-15.127c7.21-3.087 13.994-6.502 20.309-10.244 39.066-23.145 59.716-58.471 59.716-102.155 0-19.4-3.955-38.276-11.539-55.997 21.05-31.426 26.848-70.043 15.847-106.668A30.167 30.167 0 0 0 419.423.89c-36.5-4.302-72.433 7.124-99.362 31.408-24.45-8.745-51.005-13.347-78.398-13.347s-53.948 4.602-78.398 13.347C136.338 8.015 100.412-3.411 63.903.89a30.169 30.169 0 0 0-25.376 21.293c-11.003 36.625-5.205 75.242 15.847 106.668-7.585 17.722-11.54 36.598-11.54 55.998 0 35.869 13.432 65.508 39.921 88.097 12.737 10.861 28.212 19.812 46.236 26.831-.187.478-.369.957-.549 1.437-26.81 1.258-43.313-8.115-48.471-13.55-12.094-12.745-32.303-13.274-45.05-1.179-12.744 12.096-13.272 32.304-1.178 45.049 26.121 27.524 63.011 33.302 89.359 33.302.713 0 1.428-.005 2.146-.014 4.168 15.81 11.939 30.308 22.457 42.689-8.695 15.023-21.04 45.546-7.716 83.238 4.493 12.711 16.566 21.25 30.043 21.25 3.616 0 7.189-.615 10.621-1.829 16.566-5.857 25.278-24.098 19.423-40.665-3.885-10.99-1.967-20.065.728-26.201 12.758 4.331 26.516 6.698 40.857 6.698 3.95 0 7.879-.196 11.777-.56 3.973 18.215 14.225 35.614 31.192 52.969 6.046 6.183 14.139 9.588 22.785 9.588 8.376 0 16.287-3.225 22.275-9.081 12.563-12.284 12.791-32.499.508-45.062-12.53-12.816-15.244-21.137-14.991-26.883 8.319 5.43 17.158 8.692 26.379 9.714 1.959.217 3.947.328 5.909.328 16.384 0 32.318-7.695 44.869-21.666 16.738-18.634 43.569-19.247 59.843-9.076 10.626 6.642 24.675 3.399 31.318-7.228a22.558 22.558 0 0 0 2.877-17.157zm-364.621-47.814c0 3.971.226 7.893.661 11.758-23.358-.093-55.572-5.183-77.817-28.624-6.402-6.746-6.123-17.442.622-23.843 6.748-6.401 17.446-6.121 23.844.624 5.061 5.332 13.553 10.263 23.298 13.527 9.726 3.258 20.337 4.864 31.654 4.815a105.15 105.15 0 0 0-2.262 21.743zM421.07 113.093c-9.712-16.886-22.923-32.438-39.335-46.025a192.54 192.54 0 0 0-3.481-2.813c18.575-14.96 38.928-22.249 55.031-25.786 3.221 17.745 4.067 45.871-12.215 74.624zm-3.403-97.306a15.172 15.172 0 0 1 11.739 8.179c-18.657 4.18-42.354 12.941-63.679 31.2-9.421-6.296-19.432-11.822-29.921-16.535 22.964-18.066 52.189-26.339 81.861-22.844zm-352.008 0c29.663-3.497 58.895 4.778 81.862 22.844-10.491 4.713-20.499 10.239-29.921 16.535-21.324-18.261-45.023-27.021-63.68-31.201a15.167 15.167 0 0 1 11.739-8.178zM50.041 38.469c16.103 3.537 36.456 10.828 55.031 25.786a189.112 189.112 0 0 0-3.481 2.813c-16.412 13.587-29.623 29.138-39.335 46.025C45.973 84.34 46.818 56.214 50.041 38.469zm135.895 436.037c3.1 8.768-1.512 18.424-10.281 21.523a16.817 16.817 0 0 1-5.62.971c-7.133 0-13.523-4.521-15.901-11.251-10.322-29.194-2.53-53.311 4.516-67.002 8.356 7.498 17.869 13.88 28.262 18.883-3.781 8.745-6.404 21.522-.976 36.876zm133.54-6.163c6.502 6.65 6.381 17.35-.269 23.85a16.774 16.774 0 0 1-11.79 4.806 16.743 16.743 0 0 1-12.061-5.075c-14.629-14.963-23.525-29.673-27.051-44.763a126.074 126.074 0 0 0 32.136-11.619c1.137 10.349 7.329 20.829 19.035 32.801zm-11.663-70.897c-11.699.001-23.392-3.676-33.814-10.632-7.734-5.163-9.827-15.657-4.664-23.391a16.755 16.755 0 0 1 10.728-7.177 16.748 16.748 0 0 1 12.663 2.513c9.932 6.629 20.749 6.585 28.935-.114 6.238-5.102 11.726-15.438 6.666-27.775a16.965 16.965 0 0 1-1.008-3.453 7.498 7.498 0 0 0-8.7-6.067 7.5 7.5 0 0 0-6.067 8.7 31.906 31.906 0 0 0 1.898 6.515c2.384 5.813-.804 9.259-2.287 10.472-3.018 2.47-6.653 2.222-11.11-.752-7.079-4.727-15.577-6.412-23.924-4.747-8.348 1.665-15.547 6.482-20.27 13.561-9.754 14.614-5.801 34.438 8.813 44.194 12.897 8.607 27.469 13.157 42.143 13.156.355 0 .708-.017 1.063-.023-18.695 14.391-42.502 22.579-67.214 22.579-57.833 0-104.882-43.482-104.882-96.929a89.76 89.76 0 0 1 4.195-27.229c.051-.143.096-.288.138-.435a91.415 91.415 0 0 1 2.048-5.676c11.76 3.671 24.44 6.627 38.047 8.828a7.503 7.503 0 0 0 8.601-6.207 7.499 7.499 0 0 0-6.206-8.601c-15.154-2.451-29.04-5.863-41.647-10.19a7.371 7.371 0 0 0-.928-.327c-19.316-6.734-35.572-15.65-48.539-26.706-22.994-19.608-34.653-45.408-34.653-76.683 0-83.205 82.465-150.897 183.828-150.897s183.828 67.692 183.828 150.897c0 38.637-17.617 68.664-52.362 89.251-32.071 19.002-77.531 29.045-131.467 29.045-8.224 0-16.383-.24-24.248-.713-4.14-.256-7.688 2.901-7.936 7.036a7.5 7.5 0 0 0 7.036 7.937c8.165.491 16.627.74 25.149.74 31.484 0 60.329-3.334 85.652-9.792a7.5 7.5 0 0 0 8.701 1.221c.49-.26.998-.498 1.511-.708 8.606-3.528 18.477.599 22.006 9.203 9.77 23.809 3.136 50.607-16.509 66.681a57.202 57.202 0 0 1-10.992 7.076c-.12.056-.239.112-.356.174-.744.359-1.494.701-2.251 1.026a7.509 7.509 0 0 0-.513.224 54.735 54.735 0 0 1-21.102 4.195zm162.996-2.351c-2.258 3.615-7.036 4.717-10.649 2.458-21.523-13.453-56.942-12.73-78.95 11.771-9.81 10.92-21.466 16.691-33.711 16.691a38.94 38.94 0 0 1-4.256-.236c-6.486-.719-12.796-2.987-18.845-6.746a114.524 114.524 0 0 0 11.236-11.465c3.109 1.542 6.227 2.505 9.314 2.848 6.018.668 15.196-.775 24.763-11.422 24.99-27.819 67.395-34.078 98.641-14.55a7.676 7.676 0 0 1 3.435 4.815 7.688 7.688 0 0 1-.978 5.836zM322.352 215.93c8.767 2.327 27.423 11.66 33.944 16.474a7.47 7.47 0 0 0 4.448 1.466 7.5 7.5 0 0 0 4.46-13.534c-7.897-5.829-28.229-16.042-39.003-18.903a7.5 7.5 0 1 0-3.849 14.497zm-190.465-14.498c-10.773 2.86-31.106 13.074-39.004 18.903a7.5 7.5 0 0 0 8.908 12.068c6.521-4.814 25.178-14.146 33.945-16.474a7.5 7.5 0 0 0-3.849-14.497zm-6.092-11.132c4.09.543 7.874-2.346 8.418-6.453a7.5 7.5 0 0 0-6.453-8.418c-11.054-1.46-33.741.237-43.264 2.617a7.5 7.5 0 1 0 3.639 14.552c7.862-1.966 28.67-3.486 37.66-2.298zm206.497 0c8.995-1.189 29.799.332 37.662 2.297.61.153 1.222.226 1.824.226a7.502 7.502 0 0 0 1.813-14.778c-9.521-2.379-32.209-4.076-43.264-2.616a7.5 7.5 0 0 0-6.453 8.418c.543 4.106 4.316 6.99 8.418 6.453zm-78.164-23.812a7.5 7.5 0 0 0-.727-10.582 7.5 7.5 0 0 0-10.582.726 18.274 18.274 0 0 1-13.776 6.28 18.273 18.273 0 0 1-13.775-6.279 7.5 7.5 0 0 0-10.581-.727 7.5 7.5 0 0 0-.728 10.581 33.266 33.266 0 0 0 25.083 11.425 33.278 33.278 0 0 0 25.086-11.424z"/></svg>