<svg xmlns="http://www.w3.org/2000/svg" viewBox="0 0 511.999 511.999" style="enable-background:new 0 0 511.999 511.999" xml:space="preserve"><path style="fill:#eda751" d="M129.56 401.972c-2.99 0-5.973-1.186-8.186-3.534-4.257-4.52-4.044-11.635.476-15.892 34.087-32.105 65.583-22.757 88.578-15.93 10.424 3.095 19.427 5.768 25.903 4.019 23.688-6.394 34.367-30.721 32.387-50.364-.622-6.177 3.881-11.69 10.059-12.312 6.191-.629 11.691 3.882 12.313 10.059 1.569 15.583-2.068 31.563-10.243 44.993-8.876 14.582-22.604 25-38.657 29.332-12.628 3.408-25.607-.446-38.158-4.172-21.647-6.426-42.091-12.495-66.764 10.744a11.222 11.222 0 0 1-7.708 3.057z"/><path style="fill:#fcd79d" d="M121.374 398.438a11.21 11.21 0 0 0 8.186 3.534c2.765 0 5.535-1.014 7.706-3.058 2.742-2.582 5.429-4.784 8.074-6.682-2.328-9.269-8.949-14.498-14.665-17.138a103.824 103.824 0 0 0-8.824 7.453c-4.52 4.257-4.734 11.372-.477 15.891z"/><path style="fill:#eda751" d="M161.537 216.736c1.847-21.112-6.658-44.945-46.753-52.657-40.411-7.773-70.747 10.486-87.481 31.689a16.774 16.774 0 0 0-1.602 18.308c12.798 23.787 39.502 47.035 80.649 46.398 40.825-.631 53.34-22.626 55.187-43.738z"/><path style="fill:#ff91ab" d="M27.738 217.639c13.481 22.49 39.525 43.44 78.614 42.835 35.385-.548 49.494-17.147 53.831-35.306-60.253-44.78-107.973-24.912-132.445-7.529z"/><path style="fill:#eda751" d="M232.938 145.335c-21.111 1.847-44.945-6.659-52.657-46.752-7.773-40.411 10.486-70.747 31.689-87.481A16.776 16.776 0 0 1 230.279 9.5c23.787 12.798 47.035 39.502 46.398 80.649-.633 40.825-22.627 53.339-43.739 55.186z"/><path style="fill:#ff91ab" d="M233.841 11.536c22.49 13.481 43.44 39.525 42.835 78.614-.548 35.385-17.147 49.494-35.306 53.831-44.781-60.253-24.913-107.973-7.529-132.445z"/><path style="fill:#ffdc9c" d="M311.65 95.7c45.665 45.665 20.951 110.38-34.207 165.539-55.159 55.159-119.874 79.873-165.539 34.208-45.665-45.665-37.968-127.399 17.19-182.557 55.157-55.158 136.89-62.854 182.556-17.19z"/><path style="opacity:.15;fill:#c17a00;enable-background:new" d="M88.53 178.984c-13.318 42.623-6.058 87.034 23.372 116.464 39.255 39.255 92.588 26.502 141.826-12.891-101.611 25.616-144.426-33.792-165.198-103.573z"/><path style="fill:#ff91ab" d="M204.24 188.039a18.914 18.914 0 0 1-9.904 5.234l15.649 15.649c4.18 4.18 10.957 4.18 15.137 0s4.18-10.957 0-15.138l-15.649-15.649a18.923 18.923 0 0 1-5.233 9.904z"/><path style="opacity:.05;enable-background:new" d="M204.24 188.039a18.914 18.914 0 0 1-9.904 5.234l9.352 9.352c3.628-.684 7.096-2.426 9.904-5.234s4.55-6.275 5.234-9.904l-9.352-9.352a18.932 18.932 0 0 1-5.234 9.904z"/><ellipse transform="rotate(-134.999 164.694 246.505)" style="fill:#ff91ab" cx="164.694" cy="246.504" rx="20.365" ry="25.573"/><ellipse transform="rotate(45.001 262.719 148.49)" style="fill:#ff91ab" cx="262.716" cy="148.492" rx="20.365" ry="25.573"/><path style="fill:#78cfc0" d="M454.193 181.47c-45.549-45.549-119.399-45.549-164.947 0L162.731 307.985c-12.021 12.021-12.021 31.512 0 43.532l121.415 121.415c12.021 12.022 31.512 12.022 43.532 0l126.515-126.515c45.55-45.549 45.55-119.398 0-164.947z"/><path style="opacity:.05;enable-background:new" d="m206.031 264.685-43.3 43.3c-12.021 12.021-12.021 31.512 0 43.532l121.415 121.415c12.021 12.021 31.512 12.021 43.532 0l98.4-98.4c-111.466 56.324-207.663-70.726-220.047-109.847z"/><path style="opacity:.1;enable-background:new" d="M155.047 320.788c.027.027.049.057.076.084l15.803 15.802c3.861 3.861 8.922 5.792 13.983 5.792s10.122-1.931 13.984-5.792c7.723-7.723 7.722-20.244-.001-27.967l-15.803-15.802a19.84 19.84 0 0 0-2.895-2.382l-17.462 17.462a30.632 30.632 0 0 0-7.685 12.803zM337.148 187.246c11.349-1.118 19.643-11.224 18.525-22.573l-1.578-16.027a116.14 116.14 0 0 0-40.123 13.937l.604 6.137c1.049 10.661 10.031 18.627 20.524 18.627.677 0 1.36-.033 2.048-.101z"/><path style="fill:#b77866" d="m245.67 434.456-44.461-44.461-60.835 60.835c-12.278 12.278-12.278 32.183 0 44.461 12.278 12.278 32.184 12.278 44.461 0l60.835-60.835z"/><g style="opacity:.1"><path d="M225.995 348.148c-8.593-8.593-8.593-22.524 0-31.117l106.583-106.583c8.593-8.593 22.524-8.593 31.117 0s8.593 22.524 0 31.117L257.112 348.148c-8.593 8.592-22.524 8.592-31.117 0zM287.515 409.668c8.593 8.593 22.524 8.593 31.117 0l106.583-106.583c8.593-8.593 8.593-22.524 0-31.117s-22.524-8.593-31.117 0L287.515 378.552c-8.592 8.593-8.592 22.523 0 31.116z"/></g><path transform="rotate(-134.999 211.29 424.349)" style="opacity:.1;enable-background:new" d="M179.863 407.187h62.853v34.319h-62.853z"/><path style="fill:#eda751" d="M186.696 330.755a17.934 17.934 0 0 1-12.719-5.268l-14.374-14.373c-7.024-7.025-7.025-18.414-.001-25.438 7.025-7.025 18.413-7.024 25.438 0l14.374 14.374c7.025 7.025 7.025 18.414.001 25.438a17.937 17.937 0 0 1-12.719 5.267zM337.103 176.292c-9.14 0-16.964-6.939-17.879-16.226l-1.657-16.832c-.974-9.887 6.252-18.69 16.138-19.664 9.88-.968 18.689 6.251 19.663 16.138l1.657 16.832c.974 9.886-6.252 18.69-16.138 19.664-.598.059-1.194.088-1.784.088z"/><path d="M189.991 186.078c-4.123-.289-7.713 2.836-7.996 6.968a7.5 7.5 0 0 0 6.969 7.997 26.532 26.532 0 0 0 20.581-7.7 26.52 26.52 0 0 0 7.7-20.581c-.284-4.133-3.88-7.248-7.997-6.968a7.5 7.5 0 0 0-6.968 7.997 11.525 11.525 0 0 1-3.342 8.945 11.56 11.56 0 0 1-8.947 3.342zm47.815-33.914a7.5 7.5 0 0 0 5.304-12.804l-6.386-6.386a7.5 7.5 0 0 0-10.607 10.606l6.386 6.386a7.47 7.47 0 0 0 5.303 2.198zm44.861-37.279c-6.353 3.813-19.373 15.024-24.496 21.708a7.5 7.5 0 0 0 5.947 12.063 7.485 7.485 0 0 0 5.958-2.938c3.885-5.068 15.422-15.038 20.311-17.971a7.499 7.499 0 0 0 2.571-10.29 7.503 7.503 0 0 0-10.291-2.572zm-15.225 47.183a7.497 7.497 0 0 0 10.251 2.721c5.523-3.206 19.988-8.027 25.625-8.876a7.5 7.5 0 0 0 6.299-8.534c-.616-4.097-4.449-6.913-8.533-6.299-7.326 1.104-23.637 6.508-30.92 10.736a7.5 7.5 0 0 0-2.722 10.252zm-111.879 64.839c1.465 1.464 3.385 2.197 5.304 2.197s3.839-.732 5.304-2.197a7.5 7.5 0 0 0 0-10.606l-6.386-6.386a7.5 7.5 0 0 0-10.607 10.606l6.385 6.386zm303.934-50.74c-25.885-25.884-62.228-38.989-98.536-35.877l-.129-1.316c-1.304-13.232-12.572-23.122-25.636-22.98-4.325-9.201-10.439-17.791-18.244-25.596-10.166-10.166-22.01-17.854-34.909-23.137-5.732-27.563-23.112-50.862-48.211-64.366a24.237 24.237 0 0 0-26.509 2.32c-21.458 16.934-34.459 41.733-36.155 68.615-16.876 8.106-33.008 19.385-47.38 33.756-14.151 14.151-25.564 30.238-33.826 47.383-26.855 1.714-51.625 14.713-68.544 36.151a24.235 24.235 0 0 0-2.32 26.509c13.488 25.069 36.747 42.437 64.266 48.19 5.057 12.279 12.252 23.452 21.461 33.113a7.48 7.48 0 0 0 5.43 2.325 7.5 7.5 0 0 0 5.428-12.675c-8.619-9.041-15.193-19.662-19.585-31.416a7.395 7.395 0 0 0-.343-.956c-5.368-14.837-7.294-31.436-5.486-48.923.278-2.69.649-5.374 1.096-8.05l.016-.096c1.897-11.311 5.281-22.475 10.039-33.238.19-.343.352-.704.487-1.077 7.624-16.883 18.612-32.757 32.489-46.635 52.145-52.145 129.282-59.857 171.951-17.19 6.074 6.074 10.898 12.668 14.428 19.658-7.231 5.124-11.6 13.876-10.672 23.309l1.138 11.547a124.118 124.118 0 0 0-27.299 20.651l-99.699 99.699a25.437 25.437 0 0 0-8.2-2.675c1.626-4.642 3.46-9.136 4.948-11.701a7.5 7.5 0 1 0-12.973-7.529c-2.982 5.138-6.543 14.757-8.774 22.556a25.438 25.438 0 0 0-4.946 3.855c-4.814 4.814-7.465 11.215-7.465 18.023 0 3.861.856 7.591 2.472 10.975a65.875 65.875 0 0 1-8.674-3.011 7.5 7.5 0 0 0-5.911 13.787 81.01 81.01 0 0 0 11.942 4.041c-1.544 10.734 1.472 21.96 8.803 30.507-13.722 3.465-26.512 10.859-38.76 22.396-7.522 7.085-7.878 18.97-.793 26.493a18.813 18.813 0 0 0 13.646 5.892c4.794 0 9.357-1.811 12.849-5.099 17.155-16.158 31.092-16.281 46.443-12.63l-53.781 53.782c-7.355 7.354-11.406 17.133-11.406 27.535 0 10.401 4.051 20.18 11.405 27.534 7.354 7.354 17.133 11.405 27.534 11.405s20.18-4.05 27.535-11.405l55.532-55.531 33.173 33.173c7.464 7.463 17.267 11.195 27.07 11.195 9.804 0 19.606-3.732 27.07-11.195l96.803-96.803a7.5 7.5 0 0 0 0-10.606 7.502 7.502 0 0 0-10.608 0l-96.803 96.802c-9.076 9.078-23.85 9.078-32.926 0L168.035 346.214c-5.906-5.906-8-14.409-6.079-22.144l6.719 6.719c4.813 4.815 11.213 7.466 18.021 7.466 6.81 0 13.211-2.651 18.023-7.465 9.937-9.937 9.937-26.107-.001-36.043l-9.07-9.07 98.902-98.902a109.29 109.29 0 0 1 20.325-15.996 25.368 25.368 0 0 0 22.228 13.015c.837 0 1.686-.041 2.521-.124 13.985-1.378 24.243-13.876 22.866-27.862l-.058-.587c31.868-2.678 63.746 8.841 86.459 31.555 42.552 42.552 42.552 111.789 0 154.342l-4.859 4.86a7.5 7.5 0 0 0 5.304 12.803 7.478 7.478 0 0 0 5.304-2.197l4.859-4.86c48.399-48.404 48.399-127.157-.002-175.557zM38.15 219.755c9.418-5.775 22.06-11.513 37.157-13.573-1.496 14.918-.576 29.299 2.618 42.718-19.87-6.426-32.506-19.178-39.775-29.145zm39.543-28.943c-18.998 1.75-34.819 8.592-46.472 15.595a9.225 9.225 0 0 1 1.971-5.992c6.3-7.984 22.846-25.328 50.16-29.648a153.196 153.196 0 0 0-5.659 20.045zM186.955 67.247c4.296-27.372 21.669-43.949 29.663-50.257a9.226 9.226 0 0 1 5.991-1.971c-7.014 11.671-13.867 27.526-15.604 46.565a154.209 154.209 0 0 0-20.05 5.663zm35.414-8.04c2.048-15.144 7.801-27.82 13.589-37.258 9.986 7.283 22.765 19.954 29.181 39.889-13.664-3.243-28.124-4.098-42.77-2.631zm12.694 375.249-55.531 55.532A23.788 23.788 0 0 1 162.603 497a23.782 23.782 0 0 1-16.928-7.012 23.787 23.787 0 0 1-7.012-16.928c0-6.395 2.49-12.407 7.013-16.928l55.531-55.531 33.856 33.855zm-66.794-66.794 7.16 7.16c-13.441-.253-27.745 3.975-43.305 18.632a3.725 3.725 0 0 1-2.564 1.018 3.72 3.72 0 0 1-2.726-1.176 3.728 3.728 0 0 1-1.017-2.678 3.73 3.73 0 0 1 1.174-2.612c13.03-12.271 26.565-18.946 41.278-20.344zm28.913-54.894c0 2.801-1.09 5.435-3.071 7.416a10.42 10.42 0 0 1-7.416 3.071 10.417 10.417 0 0 1-7.415-3.072l-14.374-14.373a10.42 10.42 0 0 1-3.072-7.415c0-1.803.457-3.533 1.308-5.068.146.031.289.066.438.089a7.501 7.501 0 0 0 8.361-5.485c.127-.004.253-.018.38-.018 2.686 0 5.371 1.022 7.415 3.066l14.374 14.374a10.414 10.414 0 0 1 3.072 7.415zM338.153 168.74a10.87 10.87 0 0 1-1.05.052 10.44 10.44 0 0 1-10.414-9.461l-.002-.018v-.003l-.004-.041-1.652-16.769c-.495-5.028 2.664-9.587 7.305-11.037.094-.023.187-.047.281-.074a10.444 10.444 0 0 1 1.82-.353c.347-.034.69-.051 1.032-.051 5.327 0 9.903 4.054 10.436 9.46l1.657 16.831c.566 5.754-3.654 10.897-9.409 11.464zM133.66 276.756a7.495 7.495 0 0 0 10.29-2.574c2.932-4.887 12.9-16.424 17.97-20.31a7.5 7.5 0 0 0-9.125-11.905c-6.686 5.124-17.896 18.145-21.708 24.498a7.502 7.502 0 0 0 2.573 10.291z"/></svg>