<svg xmlns="http://www.w3.org/2000/svg" viewBox="0 0 512 512" style="enable-background:new 0 0 512 512" xml:space="preserve"><path style="fill:#eda751" d="M87.678 410.617c-7.259 0-14.582-2.022-21.674-6.036-19.185-10.858-21.283-28.071-22.814-40.637-1.721-14.123-2.507-20.57-20.794-23.817-6.415-1.139-10.692-7.263-9.554-13.678 1.139-6.415 7.26-10.69 13.678-9.553C61.992 323.195 64.771 346 66.61 361.09c1.438 11.803 2.582 18.185 11.014 22.958 5.564 3.148 10.696 3.78 15.689 1.931 8.583-3.178 15.452-12.821 18.203-20.436 2.214-6.129 8.977-9.302 15.103-7.088 6.128 2.214 9.302 8.976 7.088 15.103-4.352 12.048-15.397 28.326-32.202 34.547-4.527 1.678-9.164 2.512-13.827 2.512z"/><path style="fill:#fcd79d" d="M33.632 343.495c3.49-4.227 7.811-10.676 9.05-21.722-4.454-2.065-9.77-3.742-16.16-4.877-6.419-1.137-12.538 3.138-13.678 9.553-1.139 6.415 3.138 12.538 9.554 13.677 4.874.867 8.497 1.964 11.234 3.369z"/><path style="fill:#eda751" d="M148.262 467.734c-2.089 0-4.211-.349-6.291-1.084-9.829-3.475-14.979-14.258-11.504-24.087 9.006-25.473 9.673-33.568 4.196-50.956-3.131-9.944 2.391-20.542 12.334-23.673 9.943-3.131 20.542 2.391 23.673 12.334 8.867 28.159 5.903 45.135-4.612 74.878-2.739 7.747-10.022 12.588-17.796 12.588zM229.59 456.493c-2.089 0-4.211-.349-6.291-1.084-9.829-3.475-14.979-14.258-11.504-24.087 6.717-19-5.036-32.545-7.628-34.425-8.439-6.12-10.319-17.922-4.199-26.361 6.12-8.439 17.922-10.32 26.361-4.199 14.918 10.819 33.826 41.444 21.057 77.566-2.74 7.748-10.022 12.59-17.796 12.59z"/><path style="fill:#eda751" d="M229.59 456.493c-2.089 0-4.211-.349-6.291-1.084-9.829-3.475-14.979-14.258-11.504-24.087 6.717-19-5.036-32.545-7.628-34.425-8.439-6.12-10.319-17.922-4.199-26.361 6.12-8.439 17.922-10.32 26.361-4.199 14.918 10.819 33.826 41.444 21.057 77.566-2.74 7.748-10.022 12.59-17.796 12.59z"/><path style="opacity:.2;fill:#a35f00;enable-background:new" d="M226.329 366.336c-8.439-6.121-20.241-4.241-26.361 4.199-6.12 8.439-4.241 20.241 4.199 26.361 2.091 1.516 10.136 10.625 9.647 24.061a108.876 108.876 0 0 0 14.728-7.186 2.655 2.655 0 0 1 2.717.021 14.785 14.785 0 0 0 5.844 2.005l14.455 1.748c-.809-24.111-14.121-43.153-25.229-51.209zM126.621 358.456c-6.127-2.215-12.889.959-15.103 7.088-2.751 7.615-9.621 17.258-18.203 20.436-2.399.888-4.831 1.198-7.327.937 5.554 7.281 12.115 13.832 19.492 19.477 14.576-7.13 24.23-21.764 28.229-32.834 2.213-6.128-.96-12.89-7.088-15.104zM146.997 367.934c-9.943 3.131-15.465 13.73-12.334 23.673 3.761 11.943 4.624 19.503 1.877 31.322 11.238 3.811 23.345 5.894 35.959 5.894.463 0 .924-.011 1.385-.017 3.344-15.941 2.7-29.754-3.215-48.538-3.13-9.942-13.73-15.465-23.672-12.334z"/><ellipse style="fill:#fcd690" cx="172.501" cy="328.515" rx="87.056" ry="80.896"/><path style="opacity:.15;fill:#c18f00;enable-background:new" d="M159.786 408.548c-39.783-26.119-27.454-79.651-20.7-103.063v-51.692c-31.498 12.176-53.645 41.042-53.645 74.719-.001 40.665 32.291 74.317 74.345 80.036z"/><path style="fill:#eda751" d="M118.894 194.964c15.291-16.146 23.851-41.284-4.071-73.781C86.68 88.43 49.836 83.644 22.249 90.153a17.602 17.602 0 0 0-13.261 14.002c-5.001 27.9 1.779 64.43 36.013 90.752 33.966 26.115 58.602 16.203 73.893.057z"/><path style="fill:#ff91ab" d="M8.337 108.411c-3.594 27.28 4.144 61.491 36.664 86.496 29.441 22.636 51.866 18.199 67.278 6.103-20.305-76.116-72.487-90.92-103.942-92.599z"/><path style="fill:#eda751" d="M224.162 182.864c-18.556-12.255-32.595-34.796-12.774-72.781 19.977-38.284 54.775-51.306 83.12-51.225A17.602 17.602 0 0 1 310.6 69.487c11.2 26.038 12.885 63.154-14.484 96.556-27.156 33.142-53.398 29.077-71.954 16.821z"/><path style="fill:#ff91ab" d="M312.199 73.485c9.69 25.753 9.916 60.828-16.084 92.559-23.537 28.726-46.384 29.492-64.139 21.208 2.506-78.737 49.969-104.995 80.223-113.767z"/><path style="fill:#ffdc9c" d="M321.237 193.424c7.739 67.325-54.796 104.39-136.119 113.737-81.321 9.348-150.635-12.563-158.374-79.888C19.008 159.947 78.659 97.792 159.98 88.446c81.321-9.348 153.519 37.653 161.257 104.978z"/><path style="opacity:.15;fill:#c18f00;enable-background:new" d="M83.522 116.304c-38.755 26.343-61.763 67.58-56.775 110.969 6.652 57.874 58.806 82.189 124.975 81.937-100.226-45.242-96.656-122.003-68.2-192.906z"/><ellipse transform="scale(-1) rotate(83.443 242.977 -93.973)" style="fill:#ff91ab" cx="83.794" cy="216.657" rx="21.372" ry="26.837"/><ellipse transform="rotate(83.443 228.267 200.024)" style="fill:#ff91ab" cx="228.277" cy="200.033" rx="21.372" ry="26.837"/><path style="fill:#78cfc0" d="m388.757 422.426-146.488-17.719a14.902 14.902 0 0 1-13.113-14.8l.09-261.827 238.113 28.802-62.338 254.297c-1.795 7.323-8.778 12.152-16.264 11.247z"/><path style="opacity:.15;enable-background:new" d="m229.166 361.058-.01 28.849c-.003 7.541 5.628 13.894 13.113 14.8l146.488 17.719a14.902 14.902 0 0 0 16.263-11.246l6.869-28.02-182.723-22.102z"/><circle style="fill:#fff" cx="334.384" cy="257.568" r="61.197"/><path style="fill:#b77866" d="m491.191 108.979-273.67-33.101c-8.291-1.003-15.824 4.905-16.827 13.195l-2.423 20.03c-1.003 8.291 4.905 15.824 13.195 16.826l273.669 33.102c8.291 1.003 15.824-4.905 16.827-13.195l2.423-20.03c1.005-8.291-4.904-15.824-13.194-16.827z"/><path style="opacity:.15;enable-background:new" d="m491.191 108.979-273.67-33.101c-8.291-1.003-15.824 4.905-16.827 13.195l-2.423 20.03c-1.003 8.291 4.905 15.824 13.195 16.826l273.669 33.102c8.291 1.003 15.824-4.905 16.827-13.195l2.423-20.03c1.005-8.291-4.904-15.824-13.194-16.827z"/><path style="fill:#b77866" d="M473.413 106.829 235.299 78.027l13.608-23.754a19.898 19.898 0 0 1 19.655-9.863l180.562 21.84a19.897 19.897 0 0 1 16.736 14.264l7.553 26.315zM341.17 293.785c-5.808.547-10.635-4.411-9.935-10.202l6.294-52.033c.779-6.439 7.828-10.043 13.503-6.903a30.708 30.708 0 0 1 15.622 30.559l-1.887 15.598c-1.483 12.258-11.306 21.824-23.597 22.981z"/><path style="fill:#b77866" d="M319.155 291.122c5.51 1.916 11.379-1.748 12.08-7.539l6.294-52.033c.779-6.439-5.208-11.619-11.468-9.924a30.708 30.708 0 0 0-22.457 25.953l-1.887 15.598c-1.483 12.258 5.777 23.892 17.438 27.945z"/><path style="opacity:.15;enable-background:new" d="M319.155 291.122c5.51 1.916 11.379-1.748 12.08-7.539l6.294-52.033c.779-6.439-5.208-11.619-11.468-9.924a30.708 30.708 0 0 0-22.457 25.953l-1.887 15.598c-1.483 12.258 5.777 23.892 17.438 27.945z"/><path style="opacity:.1;enable-background:new" d="M229.156 389.907c-.003 7.541 5.628 13.894 13.113 14.8l107.447 12.996c-67.817-73.507-78.257-172.866-77.148-247.783.122-8.246 7.376-14.557 15.562-13.567l174.193 21.07 5.036-20.541-238.113-28.802-.09 261.827z"/><path style="fill:#eda751" d="M188.985 363.33c-12.576 0-23.772-2.041-32.21-6.013-9.432-4.44-13.478-15.684-9.04-25.116 4.44-9.432 15.684-13.478 25.116-9.04 10.878 5.121 48.524 2.577 69.414-14.199 8.129-6.527 20.009-5.229 26.536 2.899 6.527 8.128 5.23 20.008-2.899 26.536-14.218 11.417-34.037 19.647-55.807 23.172-7.289 1.179-14.397 1.761-21.11 1.761z"/><path d="M155.289 201.846a27.466 27.466 0 0 0 19.493-11.731 7.5 7.5 0 0 0-12.36-8.5 12.465 12.465 0 0 1-8.848 5.33 12.461 12.461 0 0 1-9.826-3.184 7.5 7.5 0 1 0-10.109 11.081 27.473 27.473 0 0 0 21.65 7.004zm55.021-13.7a7.501 7.501 0 0 0 7.461-8.357l-1.082-9.415a7.501 7.501 0 0 0-14.903 1.713l1.082 9.415a7.502 7.502 0 0 0 7.442 6.644zM96.876 201.185a7.5 7.5 0 0 0 7.46-8.357l-1.082-9.415c-.473-4.115-4.191-7.075-8.308-6.594a7.5 7.5 0 0 0-6.594 8.307l1.082 9.415a7.502 7.502 0 0 0 7.442 6.644zm229.257 124.576c2.807.339 5.604.507 8.387.507 15.282 0 30.037-5.07 42.251-14.648 14.438-11.322 23.603-27.59 25.807-45.806 4.549-37.603-22.344-71.896-59.946-76.444-18.216-2.203-36.199 2.819-50.638 14.141-14.438 11.322-23.603 27.59-25.807 45.805-2.204 18.216 2.819 36.199 14.141 50.638 11.323 14.438 27.59 23.604 45.805 25.807zm-45.056-74.644c1.722-14.238 8.886-26.954 20.171-35.803 9.549-7.488 21.078-11.449 33.025-11.449 2.173 0 4.364.131 6.555.396 29.393 3.556 50.413 30.36 46.857 59.752-1.722 14.238-8.886 26.954-20.171 35.803-11.285 8.85-25.341 12.774-39.581 11.053-14.238-1.722-26.954-8.886-35.803-20.171-8.849-11.285-12.775-25.342-11.053-39.581zm35.615 47.089c1.792.623 3.642.93 5.482.93 2.546 0 5.068-.598 7.387-1.754a16.534 16.534 0 0 0 12.311 3.869h.001c15.687-1.477 28.448-13.902 30.341-29.547l1.887-15.598c1.878-15.526-5.752-30.451-19.437-38.021a16.616 16.616 0 0 0-15.464-.335 16.61 16.61 0 0 0-15.098-3.362c-15.095 4.089-26.063 16.764-27.942 32.291l-1.887 15.598c-1.894 15.645 7.535 30.754 22.419 35.929zm21.989-13.721 6.294-52.033a1.58 1.58 0 0 1 .884-1.266c.196-.101.454-.189.752-.189.241 0 .509.058.792.214 8.313 4.599 12.947 13.664 11.806 23.096l-1.887 15.598c-1.051 8.691-8.141 15.594-16.855 16.414a1.607 1.607 0 0 1-1.331-.49 1.597 1.597 0 0 1-.454-1.344h-.001zm-29.519-20.405 1.887-15.597c1.141-9.432 7.804-17.131 16.973-19.615a1.585 1.585 0 0 1 1.506.344c.302.261.643.723.556 1.44l-6.294 52.033a1.598 1.598 0 0 1-.762 1.197 1.6 1.6 0 0 1-1.411.158c-8.268-2.876-13.506-11.27-12.455-19.96zM87.519 218.613a7.498 7.498 0 0 0-7.931-7.043c-8.788.521-26.118 5.227-33.137 8.496a7.5 7.5 0 0 0 6.33 13.598c5.448-2.536 20.971-6.722 27.695-7.121a7.5 7.5 0 0 0 7.043-7.93zm419.657-108.581a22.471 22.471 0 0 0-15.084-8.498l-12.841-1.553-6.181-21.534a27.347 27.347 0 0 0-23.045-19.641l-180.561-21.84a27.35 27.35 0 0 0-27.063 13.58l-11.136 19.439-12.841-1.553a22.474 22.474 0 0 0-16.675 4.657 22.547 22.547 0 0 0-6.069 7.308 185.715 185.715 0 0 0-36.555.599c-21.225 2.44-41.05 8.361-58.735 16.976-23.143-16.18-51.976-21.698-79.861-15.119a25.058 25.058 0 0 0-18.921 19.978c-5.269 29.396 2.558 58.837 21.493 81.466-4.103 14.06-5.528 28.827-3.804 43.831 2.218 19.301 9.265 35.922 20.943 49.402a7.483 7.483 0 0 0 5.672 2.589 7.5 7.5 0 0 0 5.665-12.411c-9.665-11.154-15.511-25.048-17.378-41.293-7.254-63.108 49.556-121.659 126.639-130.518a171.013 171.013 0 0 1 31.566-.717l-1.575 13.023a22.468 22.468 0 0 0 4.657 16.675 22.473 22.473 0 0 0 15.084 8.498l11.176 1.352-.055 158.271c-11.7 2.942-24.259 5.198-37.427 6.711-35.3 4.058-66.259 1.982-90.79-5.971l-.008-.004a7.537 7.537 0 0 0-.853-.273c-5.639-1.871-10.933-4.056-15.856-6.553a7.501 7.501 0 0 0-6.786 13.378c3.588 1.82 7.357 3.476 11.271 4.997a82.979 82.979 0 0 0-3.301 23.23c0 18.044 5.819 34.84 15.786 48.843-1.015.685-2.027 1.225-3.017 1.592-1.935.716-4.75 1.201-9.391-1.425-5.023-2.843-5.861-5.824-7.265-17.34-1.849-15.167-5.29-43.401-46.226-50.67-10.48-1.861-20.509 5.153-22.369 15.626a19.169 19.169 0 0 0 3.179 14.422 19.172 19.172 0 0 0 12.447 7.951c8.612 1.529 10.867 3.472 11.814 4.8 1.59 2.229 2.117 6.555 2.847 12.541 1.628 13.353 4.087 33.534 26.565 46.256 8.217 4.65 16.751 7.008 25.368 7.008 5.565 0 11.093-1.002 16.431-2.978 6.658-2.465 12.835-6.37 18.446-11.6a96.466 96.466 0 0 0 7.99 4.177c.576 7.744-1.308 15.821-7.151 32.348-4.847 13.711 2.365 28.81 16.075 33.656a26.314 26.314 0 0 0 8.792 1.514c11.154 0 21.147-7.069 24.867-17.588 5.506-15.575 9.196-28.369 10.063-41.326a100.205 100.205 0 0 0 21.706-4.769c1.53 4.345 2.302 10.268-.174 17.27-4.848 13.711 2.364 28.81 16.077 33.658a26.306 26.306 0 0 0 8.79 1.513c11.154 0 21.147-7.069 24.867-17.589 3.757-10.626 5.235-21.395 4.436-32.13l128.964 15.599c.906.109 1.808.163 2.701.163 10.185 0 19.269-6.959 21.747-17.07l60.755-247.838 11.176 1.352c.924.112 1.845.167 2.762.167 5.033 0 9.892-1.67 13.913-4.824a22.478 22.478 0 0 0 8.499-15.083l2.423-20.03c.723-6.002-.93-11.923-4.658-16.678zM29.323 167.695c-12.705-18.721-14.76-38.024-14.163-51.178 11.756 1.387 26.325 4.986 40.44 13.481-11.045 11.298-19.965 24.029-26.277 37.697zm37.679-48.231c-17.034-11.222-34.833-15.926-49.127-17.722a10.046 10.046 0 0 1 6.096-4.291c10.519-2.482 35.869-5.988 61.464 8.761a161.778 161.778 0 0 0-18.433 13.252zM185.976 314.61c12.464-1.433 24.427-3.51 35.708-6.178l-.001 3.418c-16.384 6.224-35.552 7.295-43.885 5.12-.908-.237-1.453-.454-1.753-.595a26.156 26.156 0 0 0-1.518-.652c3.771-.303 7.584-.669 11.449-1.113zm-87.073 86.463c-9.477 3.508-19.523 2.461-29.204-3.018-15.892-8.995-17.577-22.819-19.064-35.018-1.97-16.168-4.325-26.281-26.928-30.294a4.304 4.304 0 0 1-3.481-4.983 4.306 4.306 0 0 1 4.983-3.48c30.009 5.329 32.105 22.535 33.956 37.717 1.361 11.169 2.647 21.719 14.765 28.578 7.499 4.243 14.896 5.063 21.986 2.438 2.602-.964 5.118-2.37 7.533-4.176a92.878 92.878 0 0 0 6.451 5.867c-3.46 2.806-7.14 4.94-10.997 6.369zm60.084 51.573a11.396 11.396 0 0 1-10.725 7.589c-1.286 0-2.561-.221-3.792-.656-5.914-2.09-9.025-8.603-6.934-14.516 4.774-13.504 7.531-22.906 8.023-31.815a100.07 100.07 0 0 0 22.554 3.563c-.953 10.867-4.273 22.108-9.126 35.835zm13.511-50.737c-43.869 0-79.558-32.925-79.558-73.397 0-6.309.868-12.517 2.568-18.539 16.334 4.473 34.85 6.748 55.117 6.748.766 0 1.541-.011 2.312-.018a26.427 26.427 0 0 0-3.678 2.231 7.5 7.5 0 0 0 8.836 12.122 11.388 11.388 0 0 1 11.559-1.108c1.269.598 2.735 1.115 4.356 1.538 12.924 3.373 37.743 1.456 57.874-7.624.323-.125.636-.268.935-.434 5.132-2.39 9.943-5.246 14.14-8.616 4.892-3.928 12.065-3.144 15.992 1.747 3.928 4.891 3.144 12.064-1.747 15.992-9.162 7.358-20.897 13.298-34.062 17.361-.108.03-.215.06-.321.095a135.332 135.332 0 0 1-17.927 4.16c-6.825 1.105-13.524 1.666-19.912 1.666-11.619 0-21.652-1.832-29.017-5.299a11.327 11.327 0 0 1-3.1-2.143 7.499 7.499 0 0 0-10.605.134 7.499 7.499 0 0 0 .134 10.605 26.323 26.323 0 0 0 7.184 4.975c9.349 4.401 21.591 6.727 35.404 6.727 7.189 0 14.694-.625 22.31-1.858a152.094 152.094 0 0 0 10.37-2.065l-.007 19.299c-13.976 10.143-31.289 15.701-49.157 15.701zm67.816 39.494a11.396 11.396 0 0 1-10.725 7.589c-1.286 0-2.562-.221-3.792-.655-5.914-2.091-9.024-8.604-6.934-14.517 4.07-11.513 2.515-21.248-.154-28.209a95.433 95.433 0 0 0 6.45-3.702c3.498 5.499 9.329 9.412 16.207 10.243l2.269.274c1.183 9.642.077 19.366-3.321 28.977zm157.423-32.01a7.41 7.41 0 0 1-8.08 5.587l-146.488-17.72a7.407 7.407 0 0 1-6.513-7.332l-.001-.048.009-27.332c12.929-4.543 24.547-10.767 33.934-18.305 11.338-9.107 13.155-25.74 4.05-37.078-9.105-11.339-25.74-13.156-37.078-4.051-.288.231-.589.451-.885.676l.057-167.25 221.319 26.77-60.324 246.083zm99.204-284.488-2.423 20.03c-.245 2.021-1.261 3.826-2.863 5.083s-3.593 1.816-5.618 1.569l-273.669-33.102c-4.172-.504-7.156-4.309-6.651-8.481l2.411-19.933-.001.015.001-.003c.027-.142.053-.285.077-.428.01-.059.012-.119.02-.178a7.559 7.559 0 0 1 2.778-4.584 7.573 7.573 0 0 1 5.618-1.569l17.754 2.148.044.005 177.41 21.459a7.498 7.498 0 0 0 8.346-6.546 7.5 7.5 0 0 0-6.545-8.346L247.43 71.94l7.986-13.937a12.38 12.38 0 0 1 12.247-6.146l180.561 21.839c4.958.6 9.052 4.089 10.428 8.889l4.432 15.44-14.189-1.716a7.5 7.5 0 0 0-1.801 14.891l43.197 5.225a7.572 7.572 0 0 1 5.082 2.863 7.565 7.565 0 0 1 1.568 5.617zM64.023 263.969a7.482 7.482 0 0 0 5.519-2.419c4.071-4.42 16.828-14.205 22.893-17.136a7.5 7.5 0 0 0-6.526-13.506c-7.926 3.831-22.155 14.785-27.401 20.481a7.5 7.5 0 0 0 5.515 12.58z"/></svg>