<svg xmlns="http://www.w3.org/2000/svg" viewBox="0 0 512.003 512.003" style="enable-background:new 0 0 512.003 512.003" xml:space="preserve"><path style="fill:#eda751" d="M363.364 425.111c-36.9 0-57.807-25.799-76.396-48.738-1.23-1.518-2.463-3.039-3.704-4.558-4.904-6.004-4.014-14.847 1.991-19.753 6.006-4.906 14.847-4.013 19.753 1.99 1.263 1.547 2.52 3.097 3.773 4.644 20.426 25.205 34.261 40.53 59.892 38.077 17.504-1.674 26.876-8.044 36.799-14.788 10.307-7.006 21.99-14.947 40.413-14.947 7.753 0 14.038 6.285 14.038 14.038s-6.285 14.038-14.038 14.038c-9.783 0-15.69 4.014-24.629 10.091-11.247 7.645-25.244 17.159-49.909 19.517a83.592 83.592 0 0 1-7.983.389z"/><path style="fill:#fcd79d" d="M445.884 367.038c-7.808 0-14.396 1.435-20.191 3.612-.533 7.185.417 17.398 7.236 27.389 3.92-1.857 7.925-2.925 12.955-2.925 7.753 0 14.038-6.285 14.038-14.038 0-7.754-6.285-14.038-14.038-14.038z"/><path style="fill:#eda751" d="M284.92 504.5c-11.785 0-21.677-9.183-22.399-21.104-2.563-42.334.371-71.319 1.781-85.249 1.249-12.341 12.273-21.331 24.608-20.085 12.343 1.249 21.335 12.267 20.085 24.609-1.391 13.735-3.978 39.301-1.634 78.01.749 12.382-8.681 23.027-21.063 23.777-.461.028-.922.042-1.378.042zM205.036 504.5c-11.784 0-21.677-9.183-22.398-21.104-2.564-42.332.371-71.318 1.781-85.25 1.249-12.341 12.261-21.331 24.609-20.085 12.342 1.249 21.333 12.267 20.084 24.609-1.389 13.736-3.978 39.305-1.634 78.01.75 12.382-8.68 23.028-21.062 23.777-.463.029-.923.043-1.38.043z"/><path style="fill:#495059" d="M132.556 342.085c-23.315 0-52.521-5.188-73.897-26.565-8.771-8.772-8.771-22.993 0-31.765 8.772-8.772 22.994-8.772 31.765 0 7.46 7.459 31.383 19.253 68.525 10.498 12.073-2.843 24.169 4.636 27.014 16.71 2.845 12.074-4.635 24.168-16.71 27.014-5.098 1.202-19.248 4.108-36.697 4.108z"/><path style="fill:#eda751" d="M90.423 283.755c-8.77-8.772-22.993-8.772-31.765 0-8.771 8.771-8.771 22.993 0 31.765 6.97 6.971 14.775 12.211 22.935 16.12 12.321-12.657 18.313-27.692 21.226-40.093-5.794-2.486-9.97-5.367-12.396-7.792z"/><path style="opacity:.15;enable-background:new" d="M158.949 294.252c-10.683 2.518-20.266 3.33-28.686 3.041-3.336 12.559-4.98 28.431-5.788 44.575 2.754.147 5.456.217 8.081.217 17.448 0 31.6-2.906 36.698-4.108 12.074-2.846 19.555-14.941 16.71-27.014-2.847-12.075-14.943-19.554-27.015-16.711z"/><path style="fill:#495059" d="M357.803 342.085c23.315 0 52.521-5.188 73.897-26.565 8.772-8.772 8.772-22.993 0-31.765-8.772-8.772-22.994-8.772-31.765 0-7.46 7.459-31.383 19.253-68.525 10.498-12.073-2.843-24.169 4.636-27.014 16.71-2.846 12.074 4.635 24.168 16.71 27.014 5.098 1.202 19.248 4.108 36.697 4.108z"/><path style="fill:#eda751" d="M399.936 283.755c8.771-8.772 22.993-8.772 31.765 0 8.771 8.771 8.771 22.993 0 31.765-6.97 6.971-14.775 12.211-22.935 16.12-12.321-12.657-18.313-27.692-21.226-40.093 5.794-2.486 9.97-5.367 12.396-7.792z"/><path style="opacity:.15;enable-background:new" d="M331.411 294.252c10.683 2.518 20.266 3.33 28.685 3.041 3.336 12.559 4.981 28.431 5.788 44.575a151.81 151.81 0 0 1-8.08.217c-17.448 0-31.6-2.906-36.698-4.108-12.074-2.846-19.555-14.941-16.71-27.014 2.845-12.075 14.942-19.554 27.015-16.711z"/><path style="opacity:.2;fill:#a35f00;enable-background:new" d="M308.78 358.695a1281.36 1281.36 0 0 0-3.773-4.644c-4.906-6.003-13.747-6.896-19.753-1.99-6.005 4.905-6.895 13.748-1.991 19.753 1.24 1.518 2.474 3.04 3.704 4.558 12.373 15.268 25.78 31.794 44.24 41.145 7.28-6.706 13.684-14.25 19.024-22.47-15.086-4.771-26.507-17.911-41.451-36.352zM209.027 378.061c-12.347-1.246-23.36 7.743-24.609 20.085-.768 7.593-1.988 19.669-2.525 35.932 13.433 7.61 28.527 12.879 44.644 15.193.049-21.609 1.604-37 2.575-46.601 1.248-12.342-7.743-23.36-20.085-24.609z"/><path style="opacity:.2;fill:#a35f00;enable-background:new" d="M288.91 378.061c-12.335-1.246-23.359 7.743-24.608 20.085-.996 9.835-2.749 27.185-2.792 51.431 16.267-2.038 31.541-7.074 45.166-14.501.491-14.32 1.577-25.057 2.32-32.405 1.249-12.343-7.744-23.361-20.086-24.61z"/><ellipse style="fill:#fcd690" cx="245.175" cy="334.916" rx="103.602" ry="96.272"/><path style="opacity:.15;fill:#c17a00;enable-background:new" d="M230.051 430.159c-47.342-31.082-32.67-94.785-24.633-122.644v-61.513c-37.482 14.489-63.837 48.84-63.837 88.916 0 48.39 38.426 88.437 88.47 95.241z"/><path style="fill:#495059" d="M148.348 284.402c-9.114 18.219-10.836 52.857-11.161 82.605-.119 10.852 8.623 19.722 19.476 19.722h48.505a7.78 7.78 0 0 0 7.779-7.779v-94.549l-64.599.001z"/><path style="fill:#8f959b" d="M192.775 386.73h12.392a7.78 7.78 0 0 0 7.779-7.779v-94.549h-20.17V386.73h-.001z"/><path style="fill:#495059" d="M342.011 284.402c9.114 18.219 10.836 52.857 11.161 82.605.119 10.852-8.623 19.722-19.476 19.722h-48.505a7.78 7.78 0 0 1-7.779-7.779v-94.549l64.599.001z"/><path style="fill:#8f959b" d="M297.583 386.73h-12.392a7.78 7.78 0 0 1-7.779-7.779v-94.549h20.17l.001 102.328z"/><path style="fill:#eda751" d="M182.133 167.992c20.271-17.01 33.807-45.566 5.213-87.778-28.82-42.546-71.727-53.211-105.226-49.264a20.947 20.947 0 0 0-17.58 14.751c-9.703 32.305-6.652 76.412 30.244 112.182 36.605 35.489 67.077 27.119 87.349 10.109z"/><path style="fill:#ff91ab" d="M63.192 50.645c-7.955 31.762-3.457 73.258 31.592 107.239 31.729 30.762 58.843 28.564 78.707 16.356C159.83 81.498 100.15 56.904 63.192 50.645z"/><path style="fill:#eda751" d="M308.225 167.992c-20.272-17.01-33.807-45.566-5.213-87.778 28.819-42.546 71.727-53.211 105.226-49.264a20.947 20.947 0 0 1 17.58 14.751c9.703 32.305 6.651 76.412-30.244 112.182-36.605 35.489-67.076 27.119-87.349 10.109z"/><path style="fill:#ff91ab" d="M427.167 50.645c7.955 31.762 3.457 73.258-31.592 107.239-31.729 30.762-58.843 28.564-78.707 16.356 13.661-92.742 73.341-117.336 110.299-123.595z"/><path style="fill:#ffdc9c" d="M421.554 193.665c0 80.643-78.966 115.965-176.375 115.965S68.804 274.31 68.804 193.665 147.77 47.647 245.179 47.647s176.375 65.375 176.375 146.018z"/><path style="opacity:.15;fill:#c17a00;enable-background:new" d="M151.004 70.192c-49.396 25.876-82.199 71.501-82.199 123.474 0 69.324 58.354 105.156 136.613 113.849-112.34-67.105-97.689-157.365-54.414-237.323z"/><ellipse style="fill:#ff91ab" cx="158.634" cy="197.064" rx="31.935" ry="25.431"/><ellipse style="fill:#ff91ab" cx="331.727" cy="197.064" rx="31.935" ry="25.431"/><path style="fill:#495059" d="M156.797 134.384a8.448 8.448 0 0 0-8.448 8.448V162.5c0 16.415 14.461 29.723 32.3 29.723s32.3-13.307 32.3-29.723v-19.667a8.448 8.448 0 0 0-8.448-8.448h-47.704zM333.562 134.384a8.448 8.448 0 0 1 8.448 8.448V162.5c0 16.415-14.461 29.723-32.3 29.723-17.838 0-32.3-13.307-32.3-29.723v-19.667a8.448 8.448 0 0 1 8.448-8.448h47.704zM295.521 98.517h-99.836c-21.15 0-38.296-17.146-38.296-38.297 0-21.15 17.145-38.296 38.296-38.296h83.279c19.771 0 39.294-4.409 57.146-12.907 11.522-5.485 24.323 4.649 21.628 17.123l-5.8 26.845c-5.738 26.567-29.235 45.532-56.417 45.532z"/><g style="opacity:.1"><path d="M273.412 68.807c-1.458 0-2.914-.005-4.366-.01-1.388-.005-2.77-.01-4.144-.01-4.143 0-7.5-3.358-7.5-7.5s3.357-7.5 7.5-7.5c1.392 0 2.791.005 4.195.01 16.209.056 32.953.114 43.28-7.604a7.502 7.502 0 0 1 8.98 12.016c-13.228 9.886-30.671 10.598-47.945 10.598zM220.577 58.517h-19.653a7.5 7.5 0 0 1 0-15h19.653a7.5 7.5 0 0 1 0 15z"/></g><path d="M268.019 177.389a7.5 7.5 0 0 0-10.582.726 16.26 16.26 0 0 1-12.257 5.587 16.26 16.26 0 0 1-12.256-5.587 7.5 7.5 0 1 0-11.308 9.855 31.257 31.257 0 0 0 23.565 10.732 31.26 31.26 0 0 0 23.565-10.732 7.5 7.5 0 0 0-.727-10.581zm-112.554 30.998c-9.988 2.652-28.835 12.118-36.154 17.521a7.5 7.5 0 0 0 8.908 12.068c5.842-4.313 23.223-13.002 31.094-15.091a7.501 7.501 0 0 0 5.325-9.173 7.498 7.498 0 0 0-9.173-5.325zm290.419 151.15c-20.732 0-33.983 9.007-44.629 16.245-9.5 6.457-17.704 12.034-33.298 13.525-6.091.584-11.428.048-16.514-1.75.485-.426.962-.864 1.421-1.328 5.114-5.17 7.887-12.025 7.808-19.303a744.737 744.737 0 0 0-.376-17.364c19.16-.295 36.367-3.994 51.032-10.878a7.39 7.39 0 0 0 1.241-.587c9.231-4.491 17.428-10.266 24.435-17.273 5.658-5.659 8.774-13.183 8.774-21.186s-3.116-15.527-8.774-21.185c-5.66-5.659-13.184-8.776-21.186-8.776-8.004 0-15.527 3.117-21.185 8.775-1.76 1.759-4.967 3.987-9.543 6.007a7.487 7.487 0 0 0-.926.399c-2.806 1.173-6.087 2.256-9.835 3.111 35.801-21.454 54.726-54.045 54.726-94.304 0-17.815-3.68-35.191-10.611-51.483 19.4-29.082 24.729-64.778 14.558-98.638a28.393 28.393 0 0 0-23.885-20.042 119.007 119.007 0 0 0-43.828 3.016c1.326-8.19-1.811-16.357-8.376-21.554-6.887-5.453-16.093-6.494-24.023-2.718-16.737 7.967-35.385 12.179-53.923 12.179h-83.279c-17.628 0-32.953 10.018-40.605 24.655-29.159-17.506-58.307-17.407-73.838-15.577a28.397 28.397 0 0 0-23.886 20.042c-10.18 33.89-4.833 69.621 14.611 98.718-6.942 16.276-10.664 33.628-10.664 51.404 0 26.015 7.737 48.691 22.997 67.397a7.482 7.482 0 0 0 5.816 2.759 7.466 7.466 0 0 0 4.736-1.689 7.5 7.5 0 0 0 1.071-10.552c-13.019-15.959-19.62-35.445-19.62-57.915 0-46.878 29.281-90.708 76.977-116.175 6.832 16.714 23.261 28.527 42.405 28.527h99.835c14.854 0 29.401-5.138 40.961-14.466a64.975 64.975 0 0 0 9.233-9.141c42.913 26.136 68.34 67.302 68.34 111.257 0 35.396-16.144 62.907-47.981 81.771-7.057 4.181-14.827 7.884-23.235 11.108-.08.031-.162.059-.24.093-18.881 7.207-40.997 11.975-65.655 14.143-.163.01-.325.023-.485.044-10.023.866-20.464 1.305-31.277 1.305-10.822 0-21.252-.442-31.265-1.304a7.512 7.512 0 0 0-.605-.051c-24.559-2.158-46.545-6.881-65.335-14.034a7.44 7.44 0 0 0-.971-.387c-.018-.005-.035-.008-.053-.014-10.023-3.887-19.131-8.467-27.214-13.728a7.5 7.5 0 1 0-8.183 12.571c1.464.953 2.968 1.878 4.49 2.79-3.748-.855-7.03-1.939-9.837-3.111a7.431 7.431 0 0 0-.945-.407c-4.572-2.019-7.777-4.246-9.535-6.004-5.658-5.66-13.182-8.776-21.186-8.776-8.003 0-15.527 3.117-21.186 8.776-5.659 5.658-8.775 13.182-8.775 21.185 0 8.003 3.117 15.527 8.775 21.186 7.005 7.006 15.201 12.78 24.43 17.271.401.237.818.434 1.247.59 14.664 6.884 31.871 10.583 51.03 10.878a755.936 755.936 0 0 0-.376 17.364c-.08 7.278 2.693 14.133 7.806 19.303 4.452 4.5 10.2 7.236 16.412 7.862 6.113 8.223 13.35 15.461 21.451 21.586-1.566 22.064-1.646 44.411-.207 68.172.956 15.785 14.083 28.15 29.886 28.15.606 0 1.217-.018 1.833-.055 7.988-.484 15.309-4.049 20.616-10.04 5.306-5.991 7.962-13.689 7.478-21.677-.875-14.465-1.121-28.564-.753-42.047 3.621.331 7.28.504 10.969.504 3.016 0 6.009-.125 8.981-.347-.35 14.768-.064 30.032.874 45.512.957 15.785 14.084 28.151 29.887 28.151.605 0 1.218-.018 1.831-.055 13.304-.806 24.594-10.452 27.455-23.458a7.5 7.5 0 0 0-5.714-8.936 7.498 7.498 0 0 0-8.937 5.713c-1.428 6.491-7.066 11.306-13.71 11.708-8.271.501-15.343-5.84-15.839-14.03-.964-15.915-1.228-31.591-.794-46.692a115.355 115.355 0 0 0 30.387-10.817 444.661 444.661 0 0 0-.678 27.01 7.5 7.5 0 0 0 7.499 7.466h.035a7.5 7.5 0 0 0 7.466-7.534c-.07-15.416.643-27.438 1.331-35.975 14.8 10.886 30.601 16.209 48.112 16.209 2.84 0 5.766-.142 8.694-.422 26.577-2.541 42.088-13.083 53.412-20.78 8.614-5.855 12.938-8.794 20.413-8.794 11.876 0 21.538-9.662 21.538-21.538-.002-11.875-9.664-21.54-21.54-21.54zM79.891 126.511c-14.328-25.784-13.725-50.936-10.886-67.08 14.523 3.259 32.688 9.847 49.35 23.095-15.906 12.683-28.91 27.602-38.464 43.985zm70.052-64.202a187.605 187.605 0 0 0-19.057 11.094c-19.381-16.486-40.833-24.532-57.894-28.446a13.4 13.4 0 0 1 10.007-6.558c14.081-1.658 40.991-1.694 67.35 15.408a45.994 45.994 0 0 0-.458 6.414c-.001.7.02 1.395.052 2.088zm200.465-37.754-2.463 11.4-3.336 15.445c-4.959 22.954-25.603 39.615-49.088 39.615h-99.835c-16.98 0-30.796-13.815-30.796-30.797 0-16.98 13.815-30.796 30.796-30.796h83.279c20.755 0 41.631-4.715 60.37-13.635 2.771-1.319 5.86-.97 8.266.935 2.406 1.906 3.456 4.834 2.807 7.833zm3.492 45.28a65.042 65.042 0 0 0 5.371-15.266l2.448-11.332c18.172-6.245 34.695-6.128 45.642-4.837a13.4 13.4 0 0 1 10.007 6.557c-17.058 3.913-38.505 11.957-57.882 28.436a185.432 185.432 0 0 0-5.586-3.558zm56.616 56.585c-9.523-16.335-22.513-31.222-38.483-43.917 16.654-13.232 34.806-19.815 49.32-23.072 2.836 16.125 3.44 41.237-10.837 66.989zm-5.277 162.638c2.825-2.826 6.582-4.382 10.578-4.382s7.753 1.556 10.58 4.382a14.864 14.864 0 0 1 4.381 10.579c0 3.996-1.556 7.753-4.382 10.579-4.913 4.913-10.311 8.872-15.957 12.061-6.241-7.54-10.947-16.477-14.046-26.684 3.662-2.073 6.628-4.317 8.846-6.535zm-22.753 12.305c3.236 10.146 7.868 19.255 13.848 27.236-12.794 4.426-25.855 5.842-36.778 5.975-.681-10.266-1.769-20.471-3.517-29.734 10.102.086 18.969-1.283 26.447-3.477zM79.917 322.278c-5.645-3.189-11.044-7.148-15.956-12.061a14.863 14.863 0 0 1-4.382-10.579c0-3.996 1.556-7.753 4.382-10.579a14.863 14.863 0 0 1 10.579-4.382 14.86 14.86 0 0 1 10.579 4.383c2.218 2.218 5.184 4.462 8.844 6.536-3.098 10.205-7.804 19.143-14.046 26.682zm50.885 12.295c-10.922-.133-23.984-1.548-36.778-5.975 5.978-7.979 10.611-17.088 13.847-27.233 7.478 2.195 16.345 3.564 26.446 3.476-1.746 9.262-2.834 19.467-3.515 29.732zm154.11-19.516c20.264-2.198 38.895-6.127 55.515-11.717 4.241 19.066 5.04 44.975 5.245 63.75a11.936 11.936 0 0 1-3.472 8.591 11.862 11.862 0 0 1-7.383 3.495 7.423 7.423 0 0 0-.517.025c-.202.01-.401.03-.605.03H285.19a.279.279 0 0 1-.278-.279v-63.895zm-127.103 64.174H156.663a11.88 11.88 0 0 1-8.505-3.55 11.944 11.944 0 0 1-3.472-8.59c.206-18.773 1.005-44.676 5.243-63.741 16.615 5.595 35.227 9.531 55.517 11.724v63.878a.28.28 0 0 1-.279.279h-47.358zm58.447 112.727a14.863 14.863 0 0 1-10.292 5.014c-8.28.491-15.345-5.839-15.84-14.029-1.22-20.158-1.314-39.25-.313-58.012 9.163 4.919 19.071 8.6 29.455 10.909-.46 14.503-.218 29.706.726 45.294a14.868 14.868 0 0 1-3.736 10.824zm93.953-91.66a7.607 7.607 0 0 0-.856.718 94.294 94.294 0 0 1-4.959 3.853 7.546 7.546 0 0 0-1.135.806c-12.361 8.68-26.87 14.483-42.4 16.829a8.05 8.05 0 0 0-.271.044 105.014 105.014 0 0 1-15.409 1.134c-21.041 0-40.979-6.254-57.277-17.452a7.525 7.525 0 0 0-.999-.692 93.562 93.562 0 0 1-13.228-11.309h31.494c8.425 0 15.279-6.854 15.279-15.279v-62.594c8.02.513 16.268.775 24.732.775 8.458 0 16.706-.264 24.732-.781v62.601c0 8.425 6.854 15.279 15.278 15.279h31.494a92.547 92.547 0 0 1-6.475 6.068zm135.675-12.685c-12.091 0-19.484 5.026-28.845 11.389-11.088 7.536-23.655 16.078-46.408 18.254a76.654 76.654 0 0 1-7.267.354c-13.541 0-25.501-3.776-37.078-11.756 3.1-3.1 6.017-6.394 8.727-9.874 10.528 6.844 21.587 9.483 34.373 8.259 19.418-1.857 30.034-9.073 40.302-16.051 9.871-6.711 20.079-13.65 36.196-13.65 3.605 0 6.538 2.933 6.538 6.538s-2.932 6.537-6.538 6.537zM111.786 186.825a7.5 7.5 0 1 0 3.638 14.552c7.044-1.761 26.423-3.172 34.498-2.105a7.49 7.49 0 0 0 8.338-6.015c6.383 4.076 14.091 6.465 22.386 6.465 21.945 0 39.8-16.698 39.8-37.223v-9.024c6.89-.621 15.174-.934 24.732-.934 9.557 0 17.842.314 24.732.934v9.024c0 20.524 17.854 37.223 39.8 37.223 8.295 0 16.004-2.389 22.386-6.465.746 3.871 4.39 6.538 8.337 6.015 8.076-1.068 27.454.344 34.498 2.105a7.506 7.506 0 0 0 1.825.226 7.5 7.5 0 0 0 1.814-14.778c-7.877-1.969-25.477-3.43-36.453-2.76 4.646-6.089 7.391-13.531 7.391-21.565v-19.667c0-8.794-7.154-15.949-15.948-15.949h-47.702c-7.282 0-13.426 4.911-15.328 11.592-7.211-.62-15.695-.934-25.353-.934-9.658 0-18.142.315-25.352.934-1.902-6.68-8.047-11.592-15.328-11.592h-47.702c-8.794 0-15.948 7.155-15.948 15.949V162.5c0 8.035 2.745 15.476 7.391 21.565-10.977-.67-28.574.79-36.452 2.76zm173.126-43.991a.95.95 0 0 1 .948-.949h47.702a.95.95 0 0 1 .948.949v19.667c0 12.253-11.125 22.222-24.799 22.222s-24.799-9.969-24.799-22.222v-19.667zm-129.064 0a.95.95 0 0 1 .948-.949h47.702a.95.95 0 0 1 .949.949v19.667c0 12.253-11.124 22.222-24.799 22.222-13.674 0-24.799-9.969-24.799-22.222l-.001-19.667zm179.046 65.553a7.498 7.498 0 0 0-9.174 5.325 7.5 7.5 0 0 0 5.324 9.173c7.87 2.089 25.251 10.778 31.095 15.091a7.467 7.467 0 0 0 4.448 1.466 7.5 7.5 0 0 0 4.46-13.534c-7.32-5.403-26.166-14.87-36.153-17.521z"/><path style="fill:#fff" d="M355.629 123.7a6.337 6.337 0 0 1-6.338-6.338c0-4.005-3.086-7.512-7.089-7.615a7.28 7.28 0 0 0-7.471 7.278v.337c0 3.5-2.837 6.338-6.338 6.338-4.004 0-7.512 3.085-7.615 7.088a7.28 7.28 0 0 0 7.278 7.473h.338c3.5 0 6.338 2.838 6.338 6.338v.001c0 4.005 3.086 7.512 7.089 7.615a7.28 7.28 0 0 0 7.471-7.278v-.337c0-3.5 2.837-6.338 6.338-6.338h.338a7.28 7.28 0 0 0 7.278-7.473c-.105-4.004-3.612-7.089-7.617-7.089z"/></svg>