<svg xmlns="http://www.w3.org/2000/svg" viewBox="0 0 512 512" style="enable-background:new 0 0 512 512" xml:space="preserve"><circle style="fill:#f5d141" cx="108.11" cy="83.38" r="48.892"/><path style="fill:#eda751" d="M392.629 436.903c-19.591 0-40.991-9.121-60.286-46.063-3.227-6.177-.835-13.801 5.343-17.027 6.179-3.229 13.803-.835 17.027 5.343 9.556 18.292 19.355 28.608 29.959 31.536 9.312 2.574 19.941-.263 31.191-3.264 16.348-4.36 36.69-9.785 56.823 2.414 5.96 3.612 7.864 11.372 4.252 17.333s-11.372 7.864-17.333 4.252c-10.409-6.308-20.931-3.962-37.237.387-8.956 2.389-19.08 5.088-29.739 5.089z"/><path style="fill:#fcd79d" d="M476.938 427.175c3.612-5.961 1.708-13.721-4.252-17.333a51.428 51.428 0 0 0-9.41-4.489c-4.009 4.51-9.184 12.435-10.054 23.268a26.21 26.21 0 0 1 6.383 2.806c5.961 3.612 13.721 1.708 17.333-4.252z"/><path style="fill:#eda751" d="M330.888 504.5c-10.103 0-18.827-7.569-20.029-17.849-2.563-21.924-2.469-48.267.253-70.47 1.358-11.068 11.426-18.941 22.499-17.583 11.068 1.358 18.94 11.431 17.583 22.499-2.319 18.908-2.406 42.231-.228 60.865 1.296 11.076-6.634 21.104-17.71 22.398-.794.095-1.586.14-2.368.14zM268.323 504.5c-10.103 0-18.827-7.569-20.028-17.849-2.563-21.924-2.469-48.267.253-70.47 1.357-11.068 11.429-18.941 22.499-17.583 11.068 1.358 18.94 11.431 17.583 22.499-2.319 18.908-2.406 42.231-.228 60.865 1.295 11.076-6.634 21.104-17.71 22.398-.795.095-1.586.14-2.369.14zM199.573 453.811c-3.044 0-6.133-.69-9.039-2.148-9.967-5-13.994-17.134-8.992-27.101 9.595-19.123 11.998-34.13 14.119-47.369 2.281-14.242 4.64-28.969 15.917-41.593 7.429-8.317 20.194-9.036 28.509-1.606 8.316 7.429 9.036 20.193 1.606 28.509-3.24 3.627-4.34 9.721-6.159 21.077-2.325 14.517-5.509 34.399-17.899 59.091-3.542 7.061-10.666 11.14-18.062 11.14z"/><path style="opacity:.2;fill:#c18f00;enable-background:new" d="M384.672 410.691c-10.604-2.928-20.403-13.244-29.96-31.536-3.225-6.178-10.849-8.571-17.027-5.343-6.178 3.227-8.57 10.851-5.343 17.027 14.765 28.267 30.761 40.235 46.236 44.302 7.533-7.007 14.02-15.006 19.227-23.768-4.596.534-8.995.462-13.133-.682z"/><path style="opacity:.2;fill:#a35f00;enable-background:new" d="M333.612 398.598c-11.073-1.358-21.141 6.516-22.499 17.583-1.883 15.358-2.506 32.696-1.865 49.184 14.313-1.159 27.867-4.85 40.156-10.596-.08-11.55.516-23.278 1.791-33.672 1.357-11.068-6.516-21.141-17.583-22.499zM271.047 398.598c-11.07-1.358-21.143 6.516-22.499 17.583-1.425 11.621-2.122 24.376-2.103 37.039 12.359 6.249 26.092 10.384 40.655 11.897-.638-14.713-.128-30.493 1.531-44.02 1.356-11.068-6.516-21.141-17.584-22.499zM240.087 333.994c-8.315-7.43-21.08-6.711-28.509 1.606-11.278 12.623-13.636 27.35-15.917 41.593-.809 5.051-1.663 10.361-2.937 16.056 5.741 16.21 15.537 30.687 28.25 42.366 9.639-21.44 12.462-38.93 14.561-52.035 1.819-11.355 2.919-17.449 6.159-21.076 7.429-8.317 6.709-21.082-1.607-28.51z"/><ellipse style="fill:#fcd690" cx="299.52" cy="359.81" rx="93.13" ry="86.54"/><path style="opacity:.15;fill:#c17a00;enable-background:new" d="M285.92 445.43c-42.557-27.94-29.368-85.205-22.143-110.249v-55.296c-33.693 13.025-57.385 43.904-57.385 79.929-.001 43.5 34.542 79.499 79.528 85.616z"/><path style="fill:#eda751" d="M242.845 209.76c18.223-15.291 30.39-40.96 4.686-78.906-25.907-38.246-64.478-47.833-94.591-44.285a18.83 18.83 0 0 0-15.803 13.261c-8.723 29.039-5.979 68.689 27.187 100.844 32.906 31.901 60.298 24.377 78.521 9.086z"/><path style="fill:#ff91ab" d="M135.925 104.273c-7.151 28.552-3.108 65.855 28.399 96.4 28.522 27.652 52.896 25.676 70.753 14.703-12.281-83.369-65.929-105.477-99.152-111.103z"/><path style="fill:#eda751" d="M356.194 209.76c-18.223-15.291-30.39-40.96-4.686-78.906 25.907-38.246 64.478-47.833 94.591-44.285a18.83 18.83 0 0 1 15.803 13.261c8.723 29.039 5.979 68.689-27.187 100.844-32.906 31.901-60.298 24.377-78.521 9.086z"/><path style="fill:#ff91ab" d="M463.114 104.273c7.151 28.552 3.108 65.855-28.399 96.4-28.522 27.652-52.896 25.676-70.753 14.703 12.281-83.369 65.929-105.477 99.152-111.103z"/><path style="fill:#ffdc9c" d="M458.069 232.839c0 72.493-70.985 104.244-158.549 104.244s-158.55-31.751-158.55-104.244 70.985-131.26 158.549-131.26 158.55 58.767 158.55 131.26z"/><path style="opacity:.15;fill:#c17a00;enable-background:new" d="M214.862 121.844c-44.404 23.261-73.892 64.275-73.892 110.994 0 62.317 52.456 94.528 122.806 102.342-100.986-60.321-87.815-141.459-48.914-213.336z"/><ellipse style="fill:#ff91ab" cx="197.47" cy="247.79" rx="28.707" ry="22.861"/><ellipse style="fill:#ff91ab" cx="353.07" cy="247.79" rx="28.707" ry="22.861"/><path style="fill:#ff91ab" d="M303.839 253.492c0-15.777-12.79-28.566-28.566-28.566-15.777 0-28.566 12.79-28.566 28.566s12.79 9.202 28.566 9.202c15.777 0 28.566 6.575 28.566-9.202z"/><path style="fill:#eda751" d="M373.428 367.228c-7.482 0-14.67-4.175-18.167-11.355-4.883-10.025-.715-22.111 9.311-26.994 4.125-2.009 16.41-12.384 26.114-27.258 7.448-11.42 15.411-28.504 11.043-45.047-2.847-10.782 3.585-21.83 14.366-24.677 10.787-2.847 21.831 3.586 24.677 14.366 14.65 55.479-36.575 108.232-58.518 118.92a20.09 20.09 0 0 1-8.826 2.045z"/><path style="fill:#82c7e6" d="M384.211 161.601c5.46 6.019 13.466 16.941 14.055 29.727.509 11.044-8.047 20.632-19.102 20.634-10.573.002-19.145-8.568-19.145-19.141 0-13.395 8.38-24.915 14.051-31.177 2.714-2.997 7.424-3.038 10.141-.043zM267.299 135.308c5.46 6.019 13.466 16.941 14.055 29.727.509 11.044-8.047 20.632-19.102 20.634-10.573.002-19.145-8.568-19.145-19.141 0-13.395 8.38-24.915 14.051-31.177 2.714-2.997 7.424-3.038 10.141-.043z"/><path d="M74.375 142.885c-18.066-10.267-30.362-27.855-33.734-48.258a7.497 7.497 0 0 0-8.622-6.177 7.499 7.499 0 0 0-6.177 8.622c4.113 24.89 19.102 46.341 41.123 58.853a7.495 7.495 0 0 0 10.225-2.816 7.498 7.498 0 0 0-2.815-10.224zM40.411 48.25a7.494 7.494 0 0 0 10.38-2.182 69.117 69.117 0 0 1 22.02-21.27C83.428 18.389 95.632 15 108.105 15c21.684 0 41.61 9.949 54.669 27.297a7.5 7.5 0 0 0 11.984-9.022C158.839 12.128 134.545 0 108.105 0 92.899 0 78.014 4.135 65.057 11.958A84.227 84.227 0 0 0 38.228 37.87a7.501 7.501 0 0 0 2.183 10.38zm-8.026 26.065c.543.12 1.085.178 1.619.178a7.502 7.502 0 0 0 7.317-5.89c.444-2.016.988-4.04 1.618-6.016a7.501 7.501 0 0 0-14.293-4.553 83.13 83.13 0 0 0-1.974 7.344 7.5 7.5 0 0 0 5.713 8.937zm319.88 197.413c7.009 1.86 22.491 9.602 27.696 13.443a7.47 7.47 0 0 0 4.448 1.466 7.5 7.5 0 0 0 4.46-13.534c-6.631-4.893-23.706-13.471-32.755-15.873a7.498 7.498 0 0 0-9.174 5.324 7.504 7.504 0 0 0 5.325 9.174zm-66.781-.807c2.941.318 5.82.63 8.56.63 4.526 0 8.675-.851 12.098-3.923 3.497-3.139 5.197-7.763 5.197-14.136 0-19.887-16.18-36.066-36.066-36.066-19.887 0-36.066 16.18-36.066 36.066 0 6.373 1.7 10.997 5.197 14.136 5.496 4.935 12.861 4.139 20.658 3.293 3.299-.357 6.71-.727 10.211-.727s6.912.37 10.211.727zm-22.036-14.913c-2.959.32-7.325.791-8.934.402-.122-.404-.308-1.284-.308-2.918 0-11.616 9.45-21.066 21.066-21.066s21.066 9.45 21.066 21.066c0 1.634-.185 2.514-.308 2.918-1.61.388-5.975-.082-8.934-.402-3.522-.382-7.516-.814-11.825-.814-4.307 0-8.3.432-11.823.814zm213.124 147.42c-22.865-13.854-45.854-7.724-62.66-3.243-9.444 2.52-18.399 4.9-25.499 3.658 7.112-12.489 11.302-26.641 11.702-41.66 10.236-8.348 21.871-20.653 31.44-35.622 6.287-9.835 12.706-22.441 16.337-36.809 11.718-16.129 17.676-35.26 17.676-56.912 0-16.021-3.224-31.611-9.398-46.268 17.345-26.256 22.076-58.401 12.914-88.899a26.284 26.284 0 0 0-22.107-18.552c-30.367-3.58-60.254 5.818-82.778 25.837-20.2-7.129-42.099-10.879-64.679-10.879-22.58 0-44.478 3.75-64.678 10.879a104.935 104.935 0 0 0-43.379-23.172 83.425 83.425 0 0 0-2.991-20.699 7.494 7.494 0 0 0-9.229-5.225 7.5 7.5 0 0 0-5.226 9.229 68.293 68.293 0 0 1 2.331 13.919c-3.992-.436-8.025-.65-12.085-.632-2.544-28.757-26.751-51.386-56.157-51.386-31.095 0-56.393 25.298-56.393 56.393s25.298 56.392 56.393 56.392a56.39 56.39 0 0 0 17.601-2.825c.323 4.048.882 8.069 1.671 12.045a68.024 68.024 0 0 1-19.272 2.772c-4.143 0-7.5 3.357-7.5 7.5s3.357 7.5 7.5 7.5a82.97 82.97 0 0 0 23.241-3.304 105.905 105.905 0 0 0 11.522 23.107c-6.175 14.657-9.399 30.247-9.399 46.269 0 44.495 24.917 77.707 71.021 95.985a88.877 88.877 0 0 0-2.08 6.238c-9.686 13.192-12.067 27.908-14.156 40.945-2.035 12.703-4.341 27.103-13.416 45.19-3.318 6.612-3.862 14.119-1.533 21.14 2.33 7.02 7.254 12.713 13.864 16.029a27.418 27.418 0 0 0 12.402 2.945c10.549 0 20.039-5.854 24.766-15.276a184.497 184.497 0 0 0 7.412-16.768 100.078 100.078 0 0 0 7.654 5.914c-.939 17.823-.44 36.247 1.442 52.34 1.63 13.954 13.443 24.477 27.477 24.477a27.93 27.93 0 0 0 3.241-.19c7.346-.859 13.918-4.527 18.506-10.329 4.588-5.803 6.641-13.044 5.781-20.39-.96-8.208-1.472-17.703-1.507-27.363 1.714.082 3.44.123 5.175.123.669 0 1.335-.012 2-.024.037 11.763.673 23.279 1.891 33.695C305.042 501.477 316.854 512 330.888 512a27.93 27.93 0 0 0 3.241-.19c9.834-1.149 18.362-7.524 22.258-16.638a7.5 7.5 0 0 0-3.949-9.844 7.5 7.5 0 0 0-9.844 3.949 12.74 12.74 0 0 1-11.706 7.722c-6.423 0-11.831-4.823-12.579-11.22-1.198-10.24-1.804-21.632-1.794-33.277a104.908 104.908 0 0 0 25.484-7.455 301.542 301.542 0 0 0-.004 15.423 7.5 7.5 0 0 0 7.69 7.304 7.498 7.498 0 0 0 7.304-7.69c-.2-7.755-.074-15.753.359-23.356.847-.558 1.685-1.126 2.512-1.706 9.937 6.299 20.708 9.381 32.77 9.381 11.655-.001 22.289-2.84 31.67-5.344 16.14-4.303 23.99-5.719 31.418-1.219a19.976 19.976 0 0 0 15.222 2.333 19.987 19.987 0 0 0 12.412-9.112c5.749-9.487 2.708-21.882-6.78-27.633zM448.149 170.77c-8.005-13.365-18.654-25.693-31.736-36.524-.543-.449-1.096-.887-1.645-1.329 14.364-11.189 29.902-16.913 42.512-19.829 2.362 14.132 2.67 35.584-9.131 57.682zm-2.928-76.753a11.288 11.288 0 0 1 7.86 4.648c-15.115 3.595-33.832 10.789-50.845 25.104a171.038 171.038 0 0 0-22.24-12.385c25.713-19.371 53.585-18.735 65.225-17.367zm-226.177 17.366a171.168 171.168 0 0 0-22.241 12.385c-17.012-14.315-35.73-21.509-50.844-25.104a11.288 11.288 0 0 1 7.86-4.648c11.637-1.368 39.51-2.004 65.225 17.367zm-89.089-13.711a108.005 108.005 0 0 0-4.286 23.168 41.353 41.353 0 0 1-17.564 3.935c-22.824 0-41.393-18.568-41.393-41.392S85.28 41.99 108.105 41.99c21.55 0 39.298 16.557 41.212 37.618a26.273 26.273 0 0 0-19.362 18.064zm11.804 15.416c12.61 2.916 28.148 8.64 42.511 19.829-.549.443-1.102.88-1.645 1.33-13.082 10.831-23.731 23.158-31.736 36.523-11.8-22.099-11.492-43.551-9.13-57.682zm69.172 326.22a12.638 12.638 0 0 1-11.358 7.004c-1.978 0-3.887-.455-5.675-1.352a12.607 12.607 0 0 1-6.354-7.347 12.614 12.614 0 0 1 .702-9.689c8.828-17.594 11.854-31.725 13.949-44.194 3.499 12.425 9.657 23.852 17.869 33.717-2.499 7.431-5.499 14.62-9.133 21.861zm67.373 52.87a12.611 12.611 0 0 1-8.487 4.735c-.491.058-.994.087-1.493.087-6.424 0-11.832-4.823-12.579-11.22-1.517-12.973-2.083-27.569-1.673-42.081a104.639 104.639 0 0 0 25.271 8.253c-.033 10.895.51 21.462 1.611 30.883a12.608 12.608 0 0 1-2.65 9.343zm21.215-53.326c-47.216 0-85.628-35.456-85.628-79.037 0-6.647.884-13.16 2.623-19.48l.007-.027a73.624 73.624 0 0 1 2.137-6.552 223.719 223.719 0 0 0 22.337 5.548 7.5 7.5 0 0 0 8.799-5.921 7.5 7.5 0 0 0-5.921-8.8c-9.546-1.866-18.425-4.221-26.633-7.041a7.658 7.658 0 0 0-.513-.183c-17.117-5.943-31.271-13.942-42.235-23.928a84.753 84.753 0 0 1-6.808-6.976 7.435 7.435 0 0 0 2.9-1.284c5.204-3.842 20.687-11.582 27.696-13.443a7.5 7.5 0 0 0-3.85-14.498c-9.052 2.403-26.126 10.98-32.755 15.873a7.454 7.454 0 0 0-2.044 2.293c-7.403-12.339-11.163-26.569-11.163-42.557 0-68.242 67.761-123.761 151.05-123.761s151.049 55.519 151.049 123.761c0 5.674-.483 11.132-1.424 16.37a85.705 85.705 0 0 0-1.121-4.86c-3.897-14.76-19.079-23.604-33.843-19.702-7.151 1.889-13.14 6.449-16.861 12.841-.171.294-.33.592-.489.89a7.562 7.562 0 0 0-1.463-.533c-7.993-1.997-27.044-3.419-36.33-2.195a7.501 7.501 0 0 0-6.453 8.418c.543 4.106 4.316 6.988 8.418 6.453 7.19-.947 24.451.309 30.729 1.877a7.54 7.54 0 0 0 1.824.225l.029-.002c.089 1.96.381 3.926.894 5.869 3.665 13.879-3.455 28.889-10.072 39.035-9.577 14.679-20.927 23.546-23.118 24.612a27.981 27.981 0 0 0-3.201 1.836c-17.75 3.713-37.435 5.611-58.567 5.611-7.356 0-14.645-.232-21.662-.692-4.098-.268-7.703 2.861-7.974 6.995a7.5 7.5 0 0 0 6.995 7.974c7.342.48 14.959.724 22.641.724 16.472 0 32.139-1.115 46.808-3.29-1.287 6.015-.545 12.248 2.19 17.865a7.501 7.501 0 0 0 13.486-6.568 12.613 12.613 0 0 1-.588-9.696 12.607 12.607 0 0 1 6.439-7.271c5.677-2.765 18.855-14.18 29.114-29.903 8.278-12.693 17.083-31.855 12.012-51.061a12.612 12.612 0 0 1 1.303-9.625 12.604 12.604 0 0 1 7.727-5.885c6.765-1.786 13.725 2.265 15.512 9.029 3.387 12.827 2.807 25.232.151 36.523-.016.063-.028.125-.043.188-3.103 13.064-8.98 24.625-14.713 33.592-13.964 21.845-31.54 35.865-39.948 39.962-.507.246-1.037.463-1.578.643a7.5 7.5 0 0 0 4.738 14.232 28.144 28.144 0 0 0 1.879-.707c-6.647 37.513-41.994 66.239-84.489 66.239zm171.004-15.565a5.127 5.127 0 0 1-7.032 1.726c-13.667-8.283-27.287-4.651-43.059-.446-8.491 2.267-18.116 4.836-27.804 4.837-7.377 0-14.122-1.526-20.416-4.63a96.82 96.82 0 0 0 7.27-7.942c1.061.416 2.124.795 3.191 1.089 11.272 3.117 23.388-.115 35.123-3.247 15.75-4.199 33.602-8.961 51.001 1.583a5.084 5.084 0 0 1 2.319 3.159 5.076 5.076 0 0 1-.593 3.871zM336.345 232.481c4.143 0 7.5-3.357 7.5-7.5v-10.138c0-4.143-3.357-7.5-7.5-7.5s-7.5 3.357-7.5 7.5v10.138c0 4.143 3.357 7.5 7.5 7.5zm-122.143-25.137a7.499 7.499 0 0 0-7.5 7.5v10.138c0 4.143 3.357 7.5 7.5 7.5s7.5-3.357 7.5-7.5v-10.138c0-4.143-3.357-7.5-7.5-7.5zm-22.692 28.305c-9.286-1.226-28.336.198-36.33 2.195a7.5 7.5 0 0 0 3.637 14.554c6.277-1.568 23.542-2.826 30.729-1.877 4.091.546 7.874-2.346 8.418-6.453a7.503 7.503 0 0 0-6.454-8.419z"/></svg>